<svg width="69" height="67" viewBox="0 0 69 67" fill="none" xmlns="http://www.w3.org/2000/svg">
<path d="M19.8589 42.2557H12.6654C11.8182 42.2557 11.1308 41.6256 11.0509 40.8065L10.2196 31.4655C10.0438 29.4808 8.39726 28.0001 6.36711 28.0001H5.5998C4.88046 28.0001 4.17709 28.2994 3.68154 28.8349C3.18599 29.3547 2.94621 30.0793 3.01015 30.7882L4.16111 43.7206C4.30498 45.2485 5.00834 46.6505 6.14331 47.6901C6.86266 48.3359 7.72587 48.8085 8.63705 49.0605L5.88754 57.9289C5.74367 58.37 5.99944 58.8268 6.44703 58.9686C6.52696 59.0001 6.60689 59.0001 6.68682 59.0001C7.05448 59.0001 7.37419 58.7638 7.48609 58.4172L8.46121 55.2668H20.0347L21.0098 58.4172C21.1217 58.7795 21.4574 59.0001 21.8091 59.0001C21.889 59.0001 21.9689 58.9843 22.0489 58.9686C22.4965 58.8268 22.7522 58.37 22.6084 57.9289L21.4414 54.1957C21.4414 54.1957 21.4414 54.1957 21.4414 54.1799L19.9228 49.2811H21.4734C22.8641 49.2811 23.9991 48.1627 23.9991 46.7922V46.3827C24.0471 44.0986 22.1608 42.2557 19.8589 42.2557ZM9.00471 53.5814L10.3475 49.2653H18.1964L19.5392 53.5814H9.00471ZM22.3526 46.7922C22.3526 47.249 21.9689 47.6271 21.5054 47.6271H18.8358C18.8358 47.6271 18.8358 47.6271 18.8198 47.6271H10.3475C10.1717 47.6271 9.99581 47.6113 9.81997 47.5956C7.70989 47.3593 6.0474 45.7053 5.85557 43.5631L4.70461 30.6307C4.68863 30.3786 4.76856 30.1423 4.9444 29.9533C5.12024 29.7643 5.36002 29.6698 5.61579 29.6698H6.36711C7.50208 29.6698 8.42923 30.5046 8.52515 31.623L9.35639 40.964C9.50026 42.6495 10.923 43.9254 12.6494 43.9254H19.8429C21.2176 43.9254 22.3366 45.028 22.3366 46.3827L22.3526 46.7922Z" fill="#00D654"/>
<path d="M50.9884 56.2005C50.6324 54.849 49.4187 53.9158 48.0107 53.9158H47.4767V38.4542H57.9957C58.5945 38.4542 59.1609 38.1807 59.5493 37.7141C59.9377 37.2475 60.0833 36.6361 59.9539 36.0569C59.5817 34.2871 57.9957 33 56.167 33H38.4303C37.961 33 37.5726 33.3861 37.5726 33.8527C37.5726 34.3193 37.961 34.7054 38.4303 34.7054H56.1832C57.2027 34.7054 58.0928 35.4295 58.287 36.4109C58.3194 36.5235 58.2547 36.62 58.2223 36.6522C58.1899 36.7005 58.109 36.7649 57.9957 36.7649H31.0184C30.889 36.7649 30.8242 36.7005 30.7919 36.6522C30.7595 36.604 30.7109 36.5235 30.7271 36.4109C30.9375 35.4134 31.8114 34.7054 32.8309 34.7054H34.4331C34.9024 34.7054 35.2908 34.3193 35.2908 33.8527C35.2908 33.3861 34.9024 33 34.4331 33H32.8309C31.0022 33 29.4163 34.2871 29.0441 36.0569C28.9146 36.6522 29.0765 37.2475 29.4487 37.7141C29.8371 38.1807 30.4035 38.4542 31.0022 38.4542H41.5213V53.9158H40.9872C39.5955 53.9158 38.3656 54.849 38.0095 56.2005L37.8153 56.9728C37.6859 57.4554 37.7992 57.9703 38.1066 58.3725C38.4141 58.7748 38.8834 59 39.4013 59H49.6129C50.1307 59 50.6 58.7748 50.9075 58.3725C51.215 57.9703 51.3283 57.4554 51.1988 56.9728L50.9884 56.2005ZM43.2367 38.4703H45.7775V53.9319H43.2367V38.4703ZM39.4984 57.3106L39.6764 56.6349C39.8382 56.0396 40.3723 55.6213 41.0034 55.6213H48.0269C48.6419 55.6213 49.1921 56.0396 49.3539 56.6349L49.5319 57.3106H39.4984Z" fill="#00D654"/>
<path d="M60.1784 17.8494H56.4634V16.0166C57.4562 15.8413 58.2088 14.9966 58.2088 13.9607V11.6338C58.2088 11.3629 57.9846 11.1397 57.7124 11.1397H54.5098C54.2376 11.1397 54.0134 11.3629 54.0134 11.6338V13.9607C54.0134 14.9966 54.766 15.8413 55.7588 16.0166V17.8494H52.0438C51.7396 17.8494 51.4834 18.1044 51.4834 18.4072V18.8376C51.4834 19.491 52.0278 20.0329 52.6843 20.0329H53.9974V20.6066C53.9974 20.8616 54.0935 21.0847 54.2536 21.276L54.0615 21.8019C53.9173 21.7701 53.7732 21.7701 53.6451 21.8338C53.501 21.8976 53.3889 22.0251 53.3409 22.1685L52.3961 24.7504L51.8517 23.1407C51.4353 21.9135 50.5066 20.9572 49.3056 20.4791L47.5442 19.7779V18.471C47.9926 18.1682 48.3929 17.7857 48.569 17.4351C48.6651 17.2597 48.7292 17.0047 48.7612 16.7019H49.2896C49.9622 16.7019 50.5226 16.1601 50.5226 15.4747C50.5226 15.1879 50.4105 14.9169 50.2504 14.6938C50.7308 13.4188 50.9229 12.5104 50.8589 11.9685C50.7948 11.5382 50.5386 11.1397 50.1223 10.821C49.8341 10.5979 49.5138 10.4704 49.2736 10.3907C48.521 9.4185 46.4553 8.07975 44.4697 8.00006C44.2936 8.00006 44.1175 8.07975 44.0374 8.23912C43.9413 8.3985 43.9413 8.58975 44.0374 8.73319C44.1335 8.87662 44.1975 8.98819 44.2456 9.09975C43.4449 8.89256 42.0358 8.6535 40.7067 9.13162C40.5626 9.17944 40.4345 9.30693 40.4025 9.46631C40.3544 9.62568 40.4025 9.78506 40.4985 9.91256C40.8508 10.311 41.2351 10.6935 41.4593 10.9166C41.1391 11.5222 40.4985 13.0522 41.3312 14.7894C41.1871 14.9966 41.091 15.2357 41.091 15.5066C41.091 16.176 41.6355 16.7338 42.324 16.7338H42.8524C42.9005 17.0366 42.9645 17.3076 43.0446 17.4669C43.2207 17.8176 43.6211 18.2001 44.0694 18.5029V19.7141C42.7564 19.8576 41.4913 20.7341 40.1943 22.4235C40.0662 22.5829 40.0982 22.806 40.2584 22.9175C40.3224 22.9654 40.4025 22.9972 40.4825 22.9972C40.5946 22.9972 40.6907 22.9494 40.7708 22.8538C41.2672 22.2004 41.7636 21.6904 42.26 21.2919L42.7403 24.081C42.8364 24.6707 42.6763 25.2763 42.308 25.7385H41.8276V24.7185C41.8276 24.5272 41.6675 24.3679 41.4753 24.3679C41.2832 24.3679 41.123 24.5272 41.123 24.7185V25.7385C40.4025 25.7704 39.826 26.36 39.826 27.0772V28.4638C39.0414 28.3841 38.4329 27.7307 38.4329 26.9338C38.4329 26.6469 38.529 26.36 38.6891 26.0891C38.8012 25.8979 39.5538 24.6547 39.826 24.2244C39.9381 24.0651 39.8901 23.8419 39.7139 23.7304C39.5538 23.6188 39.3296 23.6666 39.2175 23.8419C38.9293 24.2882 38.6731 24.7025 38.4489 25.085C38.3048 25.3082 38.1767 25.5313 38.0646 25.7225C37.8244 26.105 37.6963 26.5354 37.6963 26.9497C37.6963 28.1291 38.625 29.1013 39.794 29.181V29.5954C39.794 29.7866 39.9541 29.946 40.1463 29.946C40.3384 29.946 40.4985 29.7866 40.4985 29.5954V27.0932C40.4985 26.7425 40.7868 26.4557 41.1391 26.4557H44.9181V31.5397H43.8773V29.8025C43.8773 29.6113 43.7171 29.4519 43.525 29.4519C43.3328 29.4519 43.1727 29.6113 43.1727 29.8025V31.5397H42.26V30.8544C42.26 30.6632 42.0998 30.5038 41.9077 30.5038C41.7155 30.5038 41.5554 30.6632 41.5554 30.8544V31.5397H40.5146V31.2529C40.5146 31.0616 40.3544 30.9022 40.1623 30.9022C39.9701 30.9022 39.81 31.0616 39.81 31.2529V31.7947C39.81 32.0497 40.0182 32.241 40.2584 32.241H49.9141C50.2504 32.241 50.5066 31.97 50.5066 31.6513V29.5475C50.8909 30.2647 51.6595 30.7269 52.4762 30.7269C52.5883 30.7269 52.7164 30.711 52.8285 30.695C53.6291 30.5675 54.3016 30.0097 54.5739 29.2447L55.7428 26.0254C55.8069 25.8341 55.7108 25.6429 55.5346 25.5632C55.3425 25.4994 55.1503 25.595 55.0703 25.7704L53.9013 28.9897C53.7092 29.5157 53.2608 29.8822 52.7004 29.9779C51.9798 30.0894 51.2752 29.691 51.019 29.0057L50.4746 27.5713V26.87V24.7025C50.4746 24.5113 50.3144 24.3519 50.1223 24.3519C49.9301 24.3519 49.77 24.5113 49.77 24.7025V26.1688L49.6259 26.0572C49.0174 25.595 48.7132 24.83 48.8413 24.0651L49.3216 21.2919C50.1703 21.7222 50.8108 22.4713 51.1151 23.3797L51.9478 25.8182L51.6435 26.6469C51.5795 26.8382 51.6755 27.0294 51.8517 27.1091C51.8997 27.125 51.9317 27.125 51.9798 27.125C52.1239 27.125 52.268 27.0294 52.316 26.886L53.6131 23.3319L53.9013 22.5191L55.967 23.2682L55.6147 24.2085C55.5507 24.3997 55.6467 24.591 55.8229 24.6707C56.015 24.7344 56.2072 24.6388 56.2872 24.4635L56.6716 23.4116C56.7196 23.2682 56.7196 23.1088 56.6555 22.9654C56.5915 22.8379 56.4954 22.7263 56.3513 22.6785L56.7356 21.6426H57.0078C57.7925 21.6426 58.449 21.0051 58.449 20.2082V20.0488H59.5218C60.1784 20.0488 60.7228 19.5069 60.7228 18.8535V18.4232C60.7548 18.1044 60.4986 17.8494 60.1784 17.8494ZM57.4882 11.841V13.1638H54.718V11.841H57.4882ZM54.718 13.9607V13.881H57.4882V13.9607C57.4882 14.7257 56.8637 15.3472 56.0951 15.3472C55.3425 15.3313 54.718 14.7257 54.718 13.9607ZM49.2896 16.0007H48.8413C48.8573 15.666 48.8733 15.3154 48.8733 14.9647H49.2896C49.5778 14.9647 49.802 15.1879 49.802 15.4747C49.802 15.7616 49.5618 16.0007 49.2896 16.0007ZM41.2832 9.68943C42.6763 9.33881 44.1014 9.76912 44.5338 9.9285C44.7099 9.99225 44.9181 9.94443 45.0462 9.801C45.1743 9.65756 45.2223 9.46631 45.1423 9.291C45.0942 9.1635 45.0302 9.00412 44.8701 8.74912C46.5354 8.98819 48.2168 10.1357 48.7132 10.9007C48.7612 10.9804 48.8573 11.0441 48.9533 11.0601C49.3056 11.1238 50.0422 11.5063 50.1223 12.0641C50.1703 12.4466 49.9942 13.2594 49.6099 14.2954C49.4978 14.2635 49.3857 14.2476 49.2736 14.2476H48.8413C48.8252 13.5463 48.7772 12.9407 48.7612 12.6538C48.7132 12.1597 48.2968 11.7772 47.8004 11.7772H46.7115C46.6155 11.7772 46.5354 11.8091 46.4713 11.8729C45.5426 12.7654 44.3416 13.371 43.0606 13.5622C42.8845 13.5941 42.7724 13.7376 42.7564 13.8969C42.7564 14.0085 42.7564 14.1201 42.7403 14.2316H42.34C42.1959 14.2316 42.0678 14.2635 41.9397 14.2954C41.1871 12.5422 42.1959 11.0601 42.2279 10.9963C42.324 10.8529 42.308 10.6457 42.1799 10.5341C42.1639 10.566 41.7315 10.1676 41.2832 9.68943ZM42.34 16.0007C42.0518 16.0007 41.8276 15.7776 41.8276 15.4907C41.8276 15.3313 41.8917 15.1879 42.0038 15.0922C42.0998 15.0126 42.2119 14.9647 42.34 14.9647H42.7564C42.7564 15.2994 42.7724 15.6501 42.7884 16.0007H42.34ZM43.6851 17.1163C43.6211 16.9729 43.557 16.7019 43.525 16.3354C43.525 16.3194 43.525 16.3035 43.525 16.2876C43.4769 15.8413 43.4609 15.2676 43.4769 14.6141C43.4769 14.4866 43.4769 14.3591 43.4769 14.2316C44.742 13.9766 45.9269 13.371 46.8717 12.4944H47.8164C47.9445 12.4944 48.0566 12.5901 48.0726 12.7176C48.1367 13.371 48.1527 13.9926 48.1687 14.5504C48.1687 14.5663 48.1687 14.5822 48.1687 14.5982C48.1687 14.6141 48.1687 14.646 48.1687 14.6619C48.1687 15.921 48.0726 16.8613 47.9445 17.1163C47.8004 17.3872 47.4161 17.7219 46.9998 17.9929C46.9998 17.9929 46.9998 17.9929 46.9838 17.9929C46.5674 18.2479 46.1191 18.4391 45.8148 18.4391C45.2063 18.4391 43.9733 17.6741 43.6851 17.1163ZM45.8148 19.1563C46.1031 19.1563 46.4713 19.0607 46.8236 18.8854V20.0329C46.8236 20.1285 46.8717 20.2241 46.9357 20.2879L46.7916 20.6704C46.1191 21.1007 45.4946 21.1007 44.822 20.6704L44.6779 20.2879C44.758 20.2241 44.806 20.1285 44.806 20.0169V18.8694C45.1583 19.0607 45.5106 19.1563 45.8148 19.1563ZM46.4233 21.6266L45.8148 23.2204L45.1903 21.6266C45.3985 21.6904 45.6067 21.7222 45.8148 21.7222C46.007 21.7063 46.2151 21.6744 46.4233 21.6266ZM46.7115 26.6629H47.0959C47.4962 26.6629 47.8324 26.9816 47.8324 27.396V27.6191C47.8324 28.0175 47.5122 28.3522 47.0959 28.3522H45.6547V25.9616C45.6547 25.9297 45.6707 25.9138 45.7027 25.9138H46.3272C46.3432 25.9138 46.3432 25.9297 46.3432 25.9297V26.3122C46.3593 26.5035 46.5194 26.6629 46.7115 26.6629ZM49.2256 26.615L49.802 27.0454V27.635V31.5079H45.6547V29.0535H47.0959C47.8965 29.0535 48.537 28.416 48.537 27.6191V27.396C48.537 26.5991 47.8965 25.9616 47.0959 25.9616H47.0638V25.9457C47.0638 25.5472 46.7276 25.2125 46.3272 25.2125H45.7027C45.3665 25.2125 45.0782 25.4197 44.9822 25.7225H43.1567C43.4449 25.1807 43.557 24.5591 43.4449 23.9535L42.9005 20.8457C43.2528 20.6385 43.605 20.511 43.9573 20.4472L45.2544 23.7622C45.3504 23.9854 45.5586 24.1447 45.8148 24.1447C46.055 24.1447 46.2792 24.0013 46.3753 23.7622L47.6083 20.5907L48.7132 21.021L48.2007 23.9535C47.9926 24.9575 48.4089 25.9935 49.2256 26.615ZM57.7764 20.1922C57.7764 20.5907 57.4562 20.9094 57.0559 20.9094H56.5435C56.3993 20.9094 56.2552 21.0051 56.2072 21.1485L55.7428 22.4235L54.718 22.0569L54.9902 21.2919C55.0543 21.1326 54.9902 20.9572 54.8461 20.8776C54.75 20.8138 54.702 20.7182 54.702 20.6226V20.0488H57.7764V20.1922ZM60.0343 18.8535C60.0343 19.1244 59.8101 19.3316 59.5539 19.3316H52.6683C52.3961 19.3316 52.1879 19.1085 52.1879 18.8535V18.5666H60.0343V18.8535Z" fill="#00D654"/>
<path d="M10.3177 40.5273C10.1046 41.0008 10.3176 40.1958 10.3177 42.232C9.79681 42.232 10.6018 42.6581 10.3177 42.232L24.9494 42.9186C25.3045 42.9186 25.6123 42.6345 25.6123 42.2556V41.3796C25.6123 40.5273 25.0678 39.7933 24.3101 39.5329V34.5135C25.4229 32.7378 25.636 30.5122 24.902 28.5234L24.7363 28.0973C24.7837 27.5527 25.2572 27.1029 25.8254 27.1029C26.6778 27.1029 27.3644 26.4162 27.3644 25.5639V22.9358C27.3644 22.7701 27.2933 22.6044 27.175 22.4623C27.0566 22.3439 26.8909 22.2729 26.7014 22.2729H25.6123L24.0971 21.0418C23.6709 20.7103 23.15 20.5209 22.6055 20.5209H20.4509C19.6696 20.5209 18.9356 20.8997 18.4858 21.5389C18.0359 22.1782 17.9176 22.9832 18.178 23.7408L18.6752 25.1377L18.6042 25.8954C18.3674 28.0973 16.9468 29.944 14.9107 30.749C13.5611 31.2699 12.401 32.1932 11.596 33.3771C10.7673 34.5845 10.3412 35.9814 10.3412 37.4257V38.5148L10.3175 38.9883C8.82588 39.0357 10.9096 39.1777 10.3177 40.5273ZM24.3101 41.6164H21.6821V32.5721C21.6821 32.2169 21.398 31.9091 21.0191 31.9091C20.6403 31.9091 20.3562 32.1932 20.3562 32.5721V41.6164H19.4802V40.9534C19.4802 39.8643 18.6042 38.9883 17.5151 38.9883H16.8048C16.5207 37.4967 15.1948 36.3603 13.6085 36.3603C13.2533 36.3603 12.9455 36.6444 12.9455 37.0232C12.9455 37.402 13.2297 37.6861 13.6085 37.6861C14.6976 37.6861 15.5736 38.5621 15.5736 39.6512C15.5736 40.0064 15.8577 40.3142 16.2365 40.3142H17.5387C17.8939 40.3142 18.2017 40.5983 18.2017 40.9771V41.6401H12.7561C12.1642 41.6401 11.667 41.1429 11.667 40.5509V37.4967C11.667 35.0581 13.135 32.9272 15.4079 32.0275C16.639 31.554 17.7045 30.749 18.5095 29.7072C19.2434 28.7365 19.717 27.6001 19.9064 26.4163C20.0011 26.4399 20.0958 26.4399 20.2142 26.4636C20.8534 26.4873 21.4216 26.1085 21.6584 25.5166L22.2266 24.1433C22.3687 23.8119 22.203 23.433 21.8715 23.291C21.54 23.1489 21.1612 23.3147 21.0191 23.6461L20.4509 25.0194C20.4036 25.1377 20.3089 25.1614 20.2378 25.1614C20.1668 25.1614 20.0721 25.1377 20.0484 25.0194L19.4802 23.3857C19.3618 23.0542 19.4092 22.6754 19.6222 22.3913C19.8353 22.1072 20.1431 21.9178 20.5219 21.9178H22.6765C22.9132 21.9178 23.1737 22.0125 23.3631 22.1545L25.0678 23.5278C25.1862 23.6225 25.3282 23.6698 25.4703 23.6698H26.1332V25.6349C26.1332 25.7533 26.0385 25.848 25.9201 25.848C24.5943 25.848 23.5288 26.9371 23.5288 28.2393C23.5288 28.3103 23.5525 28.4051 23.5762 28.4761L23.7893 29.0206C24.4048 30.678 24.1918 32.5247 23.221 33.9926C23.15 34.111 23.1027 34.2294 23.1027 34.3478V40.1011C23.1027 40.4562 23.3868 40.764 23.7656 40.764C24.1207 40.764 24.4285 41.0481 24.4285 41.427V41.6164H24.3101ZM10.3175 39.8643C9.37044 39.8643 10.6963 38.9883 10.3175 39.8643L10.3177 40.5273C10.3177 40.9298 10.4122 41.2849 10.5779 41.6164L10.3177 40.5273C10.3414 40.5509 10.223 40.5273 10.3177 40.5273C10.294 40.4799 10.2701 39.959 10.3175 39.8643Z" fill="#00D654"/>
</svg>
