<svg width="48" height="50" viewBox="0 0 48 50" fill="none" xmlns="http://www.w3.org/2000/svg">
<g clip-path="url(#clip0)">
<path d="M36.6921 18.6081C36.5674 18.2465 36.4552 17.8723 36.3305 17.4108C36.106 16.5752 35.9314 14.9663 35.7817 13.5445C35.7193 13.0082 35.6694 12.5094 35.6196 12.0853C35.3701 10.1397 33.9857 8.70542 32.6388 7.75755C32.3394 7.23373 31.9528 6.73485 31.5163 6.28586C30.1818 4.93889 28.4357 4.21552 26.6023 4.21552C24.769 4.21552 23.0229 4.95136 21.7009 6.28586C21.2519 6.73485 20.8777 7.23373 20.5784 7.75755C19.2314 8.70542 17.8346 10.1397 17.5976 12.0853C17.5477 12.5094 17.4854 13.0207 17.4355 13.5445C17.2858 14.9663 17.1112 16.5627 16.8867 17.4108C16.762 17.8723 16.6373 18.2465 16.525 18.6081C16.2506 19.4313 16.0137 20.1547 16.0137 21.352C16.0137 22.4246 16.4377 23.4348 17.1985 24.208C17.9718 24.9813 18.9945 25.4178 20.0795 25.4178C21.9503 25.4178 23.5218 24.1457 23.9957 22.4246C24.2077 22.4744 24.4198 22.4994 24.6443 22.4994H24.6567C25.405 22.4994 26.1035 22.2001 26.6148 21.6762C27.1262 22.2001 27.8246 22.4994 28.5729 22.4994H28.5854C28.8099 22.4994 29.0219 22.4744 29.2339 22.4246C29.7079 24.1457 31.2793 25.4178 33.1501 25.4178C34.2352 25.4178 35.2579 24.9938 36.0311 24.208C36.7919 23.4348 37.216 22.4246 37.216 21.352C37.2035 20.1422 36.9665 19.4313 36.6921 18.6081ZM20.0671 24.1706C19.3187 24.1706 18.6078 23.8713 18.0715 23.335C17.5352 22.7987 17.2484 22.0878 17.2484 21.352C17.2484 20.3542 17.4355 19.7805 17.6974 18.9948C17.8221 18.6331 17.9468 18.2215 18.084 17.7226C18.3335 16.7872 18.5081 15.1409 18.6702 13.6692C18.7326 13.1454 18.7824 12.6465 18.8323 12.2225C18.9321 11.4492 19.2813 10.7633 19.7428 10.1771C19.7054 10.4889 19.6804 10.9628 19.6804 11.2746C19.6555 11.998 19.6555 13.4946 20.4287 15.4777L21.7632 18.7204L21.8381 19.8678V19.8803C21.9004 20.5912 22.2122 21.2522 22.736 21.7261C22.7735 21.7635 22.8234 21.801 22.8608 21.8384C22.5989 23.1729 21.4514 24.1706 20.0671 24.1706ZM25.879 19.107C25.6919 18.9948 25.5672 18.7827 25.5672 18.5583C25.5672 18.1966 25.854 17.9097 26.2157 17.9097H26.989C27.3507 17.9097 27.6375 18.1966 27.6375 18.5583C27.6375 18.7827 27.5128 18.9948 27.3257 19.107L26.6023 19.5435L25.879 19.107ZM30.2192 18.4585L30.1319 19.8054C30.0571 20.6286 29.3836 21.2647 28.548 21.2647C28.548 21.2647 28.548 21.2647 28.5355 21.2647C28.0241 21.2647 27.5502 21.0028 27.2758 20.5787L27.9368 20.1796C28.4981 19.8429 28.8473 19.2193 28.8473 18.5583C28.8473 17.5231 27.9992 16.675 26.964 16.675H26.1908C25.1556 16.675 24.3075 17.5231 24.3075 18.5583C24.3075 19.2193 24.6567 19.8429 25.218 20.1796L25.879 20.5787C25.6046 21.0028 25.1307 21.2647 24.6193 21.2647C24.6193 21.2647 24.6193 21.2647 24.6068 21.2647C23.7712 21.2647 23.0977 20.6286 23.0229 19.8054L22.9356 18.4585L21.5387 15.0412C20.8528 13.2826 20.8777 11.9481 20.8777 11.3121C20.8777 9.85283 21.4889 8.23148 22.549 7.15889C23.634 6.06136 25.0558 5.46271 26.5649 5.46271C28.074 5.46271 29.4958 6.06136 30.5809 7.15889C31.641 8.23148 32.2521 9.67823 32.2521 11.1374C32.2646 11.7735 32.2771 13.2826 31.5911 15.0412L30.2192 18.4585ZM35.1332 23.335C34.5969 23.8713 33.886 24.1706 33.1376 24.1706C31.7533 24.1706 30.6058 23.1729 30.3564 21.8508C30.3938 21.8134 30.4437 21.776 30.4811 21.7386C31.0049 21.2522 31.3167 20.5912 31.3791 19.8927L31.4539 18.7329L32.776 15.5026V15.4902C33.5492 13.5071 33.5243 11.8483 33.5243 11.125C33.5243 10.8132 33.4993 10.5014 33.4619 10.1896C33.9358 10.7758 34.2851 11.4617 34.3724 12.235C34.4223 12.6466 34.4846 13.1454 34.5345 13.6817C34.6966 15.1409 34.8712 16.7997 35.1207 17.7351C35.2579 18.234 35.3826 18.6456 35.5073 19.0072C35.7692 19.793 35.9563 20.3542 35.9563 21.3644C35.9563 22.0878 35.657 22.7987 35.1332 23.335Z" fill="#00D654"/>
<path d="M23.1851 12.3098H22.5615V13.557H23.8087V12.3098H23.1851Z" fill="#00D654"/>
<path d="M30.6305 13.557V12.3098H30.0069H29.3833V13.557H30.6305Z" fill="#00D654"/>
<path d="M30.3441 33.8613C30.3067 32.8761 30.0573 32.0529 29.5833 31.4044L30.6809 28.7853C30.7931 28.5109 30.5187 28.224 30.2443 28.3363C28.3112 29.122 28.4234 29.0721 28.4234 29.0846C27.8747 29.3216 26.8021 29.7955 26.6898 29.8454C26.0662 29.7581 25.3304 29.7581 24.6819 29.8454C24.607 29.808 23.497 29.3216 22.9483 29.0846C22.9358 29.0846 23.0605 29.1345 21.1273 28.3363C20.853 28.224 20.5786 28.4984 20.6908 28.7853L21.7884 31.4044C21.3144 32.0529 21.065 32.8761 21.0276 33.8613C19.2815 35.4328 19.6681 37.5281 21.6761 38.7878C23.9211 40.2096 27.4631 40.2096 29.708 38.7878C31.716 37.5032 32.0777 35.4203 30.3441 33.8613ZM29.7455 29.2717L29.0844 30.8431C28.7103 30.5064 28.2613 30.2694 27.7874 30.0948C28.9223 29.5959 28.4608 29.7955 29.7455 29.2717ZM23.5843 30.1073C23.0979 30.2819 22.6614 30.5189 22.2872 30.8556L21.6262 29.2841C22.8984 29.7955 22.4369 29.5959 23.5843 30.1073ZM21.4766 37.8025L23.1104 37.104C23.285 37.0292 23.3598 36.8297 23.285 36.6551C23.2102 36.4805 23.0106 36.4056 22.836 36.4805L20.9902 37.2787C20.6035 36.7299 20.4663 36.0938 20.6908 35.4578L22.9358 35.6947C23.1229 35.7197 23.285 35.5825 23.3099 35.3954C23.3349 35.2083 23.1977 35.0462 23.0106 35.0212L21.0525 34.8217C21.2147 34.6097 21.4017 34.4351 21.5639 34.2854C21.6387 34.223 21.6886 34.1233 21.6886 34.036C21.726 31.0926 23.8712 30.4814 25.6796 30.4814C27.4756 30.4814 29.6332 31.105 29.6706 34.036C29.6706 34.1357 29.7205 34.223 29.7953 34.2854C29.97 34.4351 30.1446 34.6097 30.3067 34.8217L28.3486 35.0212C28.1615 35.0462 28.0243 35.2083 28.0493 35.3954C28.0742 35.5825 28.2364 35.7197 28.4234 35.6947L30.6684 35.4578C30.8929 36.0938 30.7557 36.7299 30.3691 37.2787L28.5232 36.4805C28.3486 36.4056 28.1491 36.4805 28.0742 36.6551C27.9994 36.8297 28.0742 37.0292 28.2488 37.104L29.8827 37.8025C27.8248 39.6483 23.522 39.6359 21.4766 37.8025Z" fill="#00D654"/>
<path d="M24.2204 33.7865V33.3874C24.2204 33.2003 24.0707 33.0507 23.8836 33.0507C23.6965 33.0507 23.5469 33.2003 23.5469 33.3874V33.7865C23.5469 33.9736 23.6965 34.1233 23.8836 34.1233C24.0582 34.1233 24.2204 33.9736 24.2204 33.7865Z" fill="#00D654"/>
<path d="M27.4881 33.0382C27.301 33.0382 27.1514 33.1879 27.1514 33.375V33.7741C27.1514 33.9611 27.301 34.1108 27.4881 34.1108C27.6752 34.1108 27.8248 33.9611 27.8248 33.7741V33.375C27.8248 33.2003 27.6752 33.0382 27.4881 33.0382Z" fill="#00D654"/>
<path d="M26.9393 36.6301C26.7522 36.6301 26.6026 36.7798 26.6026 36.9669C26.6026 37.129 26.4654 37.2537 26.3157 37.2537C26.166 37.2537 26.0289 37.1165 26.0289 36.9669V36.2186L26.6275 35.7072C27.276 35.1584 26.9393 34.0983 26.0413 34.0983H25.318C24.4324 34.0983 24.0832 35.1584 24.7442 35.7072L25.3429 36.2186V36.9669C25.3429 37.129 25.2057 37.2537 25.056 37.2537C24.9064 37.2537 24.7692 37.1165 24.7692 36.9669C24.7692 36.7798 24.6195 36.6301 24.4324 36.6301C24.2454 36.6301 24.0957 36.7798 24.0957 36.9669C24.0957 37.5032 24.5322 37.9397 25.0685 37.9397C25.3055 37.9397 25.53 37.8524 25.7046 37.7027C25.8792 37.8524 26.0912 37.9397 26.3407 37.9397C26.8769 37.9397 27.3135 37.5032 27.3135 36.9669C27.276 36.7798 27.1264 36.6301 26.9393 36.6301ZM25.0935 34.9339C25.1184 34.8841 25.1683 34.7968 25.318 34.7968H26.0413C26.191 34.7968 26.2533 34.8841 26.2658 34.9339C26.2908 35.0088 26.2908 35.121 26.191 35.2083L25.6796 35.6324L25.1683 35.2083C25.0685 35.121 25.0685 35.0088 25.0935 34.9339Z" fill="#00D654"/>
<path d="M9.39083 7.81989L9.92712 8.38112L9.35341 8.91742L8.82959 8.35618L9.39083 7.81989Z" fill="#00D654"/>
<path d="M5.32518 15.9267C5.76169 16.3882 6.49754 16.4131 6.97147 15.9766C7.43293 15.5401 7.45788 14.8042 7.02136 14.3303C6.58484 13.8688 5.849 13.8439 5.37506 14.2804C4.90113 14.7294 4.88866 15.4652 5.32518 15.9267ZM6.44765 14.8666C6.59731 15.0162 6.58484 15.2657 6.43518 15.4153C6.28552 15.565 6.03608 15.5525 5.88641 15.4029C5.73675 15.2532 5.74922 15.0038 5.89889 14.8541C6.06102 14.7044 6.29799 14.7044 6.44765 14.8666Z" fill="#00D654"/>
<path d="M1.87055 12.2724C2.30707 12.7339 3.04291 12.7588 3.51684 12.3223C3.99078 11.8858 4.00325 11.1499 3.56673 10.676C3.13021 10.2145 2.39437 10.1896 1.92044 10.6261C1.4465 11.0751 1.42156 11.7985 1.87055 12.2724ZM2.99302 11.1998C3.14269 11.3495 3.13021 11.5989 2.98055 11.7486C2.83089 11.8982 2.58145 11.8858 2.43179 11.7361C2.28212 11.5864 2.29459 11.337 2.44426 11.1873C2.59392 11.0377 2.84336 11.0501 2.99302 11.1998Z" fill="#00D654"/>
<path d="M0.735673 13.3325C1.49646 14.1432 2.66882 14.3926 3.70399 13.9935C3.0804 15.353 3.66658 16.9619 5.02602 17.5979C6.38546 18.2215 7.99434 17.6353 8.63041 16.2759C9.02951 15.4029 8.94221 14.3926 8.40591 13.5944L9.3912 10.4889L15.3029 4.88901C15.939 4.27789 16.5127 3.6044 16.9991 2.86856C17.4855 2.13271 17.8846 1.34698 18.1839 0.511363C18.2587 0.311812 18.159 0.0873171 17.9469 0.0124855C17.8721 -0.0124584 17.7848 -0.0124584 17.6975 1.35349e-05C16.0013 0.511363 14.4548 1.40934 13.1702 2.63159L7.2585 8.24397L3.99085 9.07959C2.66882 8.38116 1.02253 8.88003 0.324099 10.2021C-0.224667 11.2248 -0.0625315 12.4844 0.735673 13.3325ZM5.32535 10.7758L6.87187 10.7259L6.7222 12.472C6.19838 12.3597 5.66209 12.4096 5.17568 12.6091C5.43759 12.0354 5.48748 11.3869 5.32535 10.7758ZM7.49546 16.5378C6.7222 17.2736 5.48748 17.2362 4.76411 16.463C4.02826 15.6897 4.06568 14.455 4.83894 13.7316C5.6122 12.9958 6.84692 13.0332 7.57029 13.8064C8.30614 14.5797 8.28119 15.802 7.49546 16.5378ZM13.7065 3.2053C14.7042 2.26991 15.8641 1.53406 17.1363 1.03518C16.9118 1.52159 16.6499 1.99552 16.3505 2.44451C15.9015 3.13047 15.3653 3.76654 14.7791 4.32778L8.79254 9.99004C8.74266 10.0399 8.70524 10.0898 8.69277 10.1522L7.80726 12.9459C7.70749 12.8711 7.59524 12.7962 7.49546 12.7463L7.84468 8.76779L13.7065 3.2053ZM7.00906 9.10453L6.93423 9.96509L4.9886 10.0275C4.91377 9.91521 4.82647 9.80296 4.73916 9.69071L7.00906 9.10453ZM4.11557 10.1397C4.85141 10.913 4.814 12.1477 4.04074 12.8711C3.26748 13.6069 2.03275 13.5695 1.30938 12.7962C0.573537 12.023 0.610953 10.7882 1.38421 10.0649C2.15747 9.32902 3.37972 9.36644 4.11557 10.1397Z" fill="#00D654"/>
<path d="M42.2675 38.5133C42.2051 37.4781 41.7811 36.3557 41.0702 35.3454C40.3593 34.3352 39.4488 33.562 38.4885 33.1504C37.4783 32.7263 36.5429 32.7513 35.8444 33.2377C35.146 33.7241 34.7968 34.5971 34.8592 35.6947C34.9215 36.7298 35.3456 37.8523 36.0565 38.8625C36.7674 39.8728 37.6778 40.646 38.6382 41.0576C39.0373 41.2322 39.4488 41.332 39.8854 41.3569L41.2323 42.7288L42.4172 44.8366C42.7664 45.4602 43.5646 45.6847 44.1882 45.3355C44.8118 44.9863 45.0363 44.188 44.687 43.5645C44.6496 43.4896 44.5997 43.4148 44.5374 43.3524L42.9534 41.5191L42.1178 39.7855C42.255 39.3739 42.3049 38.9374 42.2675 38.5133ZM44.1508 44.2754C44.1133 44.5996 43.814 44.8366 43.4773 44.7992C43.2902 44.7742 43.1156 44.662 43.0283 44.4998L41.8185 42.3547C41.806 42.3297 41.7811 42.3048 41.7686 42.2798L40.7584 41.2447C41.145 41.12 41.4818 40.883 41.7312 40.5587L42.3548 41.8683C42.3673 41.8932 42.3797 41.9182 42.4047 41.9431L44.0136 43.8139C44.1258 43.9386 44.1757 44.1007 44.1508 44.2754ZM40.8831 40.3966C40.3967 40.7458 39.6983 40.7458 38.9125 40.4215C38.0769 40.0598 37.2662 39.3739 36.6302 38.4759C35.9941 37.5779 35.62 36.5802 35.5701 35.6697C35.5202 34.8216 35.7696 34.1731 36.256 33.8239C36.7424 33.4747 37.4409 33.4747 38.2266 33.7989C39.0622 34.1606 39.8729 34.8466 40.5089 35.7445C41.145 36.6425 41.5192 37.6403 41.5691 38.5507C41.6189 39.3988 41.3695 40.0474 40.8831 40.3966Z" fill="#00D654"/>
<path d="M37.8149 37.8523L38.3886 37.4532L38.7878 38.0269L38.214 38.426L37.8149 37.8523Z" fill="#00D654"/>
<path d="M38.6133 38.9998L39.187 38.6006L39.5861 39.1744L39.0124 39.5735L38.6133 38.9998Z" fill="#00D654"/>
<path d="M36.2061 35.5574L36.7798 35.1583L37.1789 35.732L36.6052 36.1311L36.2061 35.5574Z" fill="#00D654"/>
<path d="M37.0044 36.7049L37.5781 36.3058L37.9772 36.8795L37.4035 37.2786L37.0044 36.7049Z" fill="#00D654"/>
<path d="M37.3408 34.7593L37.9145 34.3602L38.3136 34.9339L37.7399 35.333L37.3408 34.7593Z" fill="#00D654"/>
<path d="M38.1519 35.9067L38.7256 35.5076L39.1247 36.0813L38.551 36.4804L38.1519 35.9067Z" fill="#00D654"/>
<path d="M39.7607 38.189L40.3345 37.7899L40.7336 38.3636L40.1598 38.7627L39.7607 38.189Z" fill="#00D654"/>
<path d="M38.9624 37.0541L39.5361 36.655L39.9352 37.2287L39.3615 37.6278L38.9624 37.0541Z" fill="#00D654"/>
<path d="M44.7369 9.26664C44.6371 9.31653 44.5498 9.36641 44.4625 9.42877L42.6666 7.9072L42.5668 3.74157C42.5917 2.51932 41.6189 1.49662 40.3717 1.47168C40.247 1.47168 40.1348 1.52157 40.0475 1.60887C39.9602 1.69617 39.9103 1.80842 39.9103 1.93314L39.9851 5.63731L37.154 3.24269C37.0667 3.16786 36.942 3.13045 36.8172 3.14292C36.6925 3.15539 36.5803 3.21775 36.5054 3.31753C35.7446 4.30281 35.9193 5.69967 36.8796 6.46045L40.035 9.15439L40.0849 11.4991C40.01 11.5241 39.9477 11.549 39.8729 11.5864C38.7629 12.1227 38.2764 13.4572 38.8127 14.5672C39.349 15.6772 40.6835 16.1636 41.7935 15.6273C42.9035 15.091 43.3899 13.7565 42.8537 12.6465C42.8287 12.5842 42.7913 12.5343 42.7663 12.4844L42.7414 11.4742L43.6643 12.2599C43.6643 12.2599 43.6643 12.2599 43.6643 12.2724C44.2006 13.3824 45.5351 13.8688 46.6451 13.3325C47.7551 12.7962 48.2415 11.4617 47.7052 10.3517C47.1939 9.20428 45.8594 8.73035 44.7369 9.26664ZM37.4658 5.74955L37.4533 5.73708C36.9918 5.3754 36.8422 4.77674 37.0043 4.26539L40.01 6.80967L40.035 7.93214L37.4658 5.74955ZM41.4194 14.8042C40.7459 15.1284 39.9477 14.8416 39.6234 14.1681C39.2991 13.4946 39.586 12.6964 40.2595 12.3722C40.933 12.0479 41.7312 12.3347 42.0554 13.0082C42.3797 13.6817 42.0929 14.4924 41.4194 14.8042ZM41.8559 11.5989C41.5815 11.4617 41.2822 11.3744 40.9829 11.3619L40.8083 2.45696C41.3071 2.65651 41.6688 3.15539 41.6563 3.7291C41.6563 3.74157 41.6563 3.74157 41.6563 3.75404L41.8559 11.5989ZM43.4897 10.9005L42.7165 10.2394L42.6915 9.09203L43.8265 10.0524C43.6643 10.3143 43.5396 10.6011 43.4897 10.9005ZM46.271 12.4969C45.5975 12.8211 44.7993 12.5343 44.475 11.8608C44.1507 11.1873 44.4376 10.3891 45.1111 10.0648C45.7846 9.74057 46.5828 10.0274 46.907 10.7009C47.2313 11.3744 46.9444 12.1851 46.271 12.4969Z" fill="#00D654"/>
<path d="M5.50005 32.9384C5.16331 33.3874 3.13038 36.1312 2.856 36.5054C2.61903 36.8296 2.68139 37.2911 3.00566 37.5405C3.32993 37.79 3.7914 37.7152 4.04084 37.3909L5.36286 35.6074L6.54769 36.4929L5.22567 38.2764C4.9887 38.6007 5.05106 39.0621 5.37533 39.3116C5.6996 39.5485 6.16106 39.4862 6.4105 39.1619L7.73253 37.3659L8.91736 38.2514L7.60781 40.0225C7.37084 40.3467 7.4332 40.8082 7.75747 41.0576C8.08174 41.3071 8.5432 41.2322 8.79264 40.908L10.1147 39.1245L11.2995 40.01L9.97748 41.781C9.74051 42.1053 9.80287 42.5667 10.1271 42.8162C10.4514 43.0656 10.9129 42.9908 11.1623 42.6665L12.4843 40.883L13.6692 41.7685L12.3471 43.552C12.1102 43.8763 12.1725 44.3378 12.4968 44.5872C12.8211 44.8366 13.2825 44.7618 13.532 44.4375L14.854 42.654L16.0388 43.5396L14.7168 45.323C14.4798 45.6473 14.5422 46.1088 14.8665 46.3582C15.1907 46.6077 15.6522 46.5328 15.9016 46.2086L17.2237 44.4251L18.4085 45.3106L17.0865 47.0941C16.8495 47.4183 16.9119 47.8798 17.2361 48.1292C17.5604 48.3787 18.0219 48.3038 18.2713 47.9796L19.5933 46.1961L20.7782 47.0816L19.4561 48.8651C19.2192 49.1893 19.2815 49.6508 19.6058 49.9002C19.9301 50.1497 20.3915 50.0749 20.641 49.7506C20.8904 49.4138 22.9233 46.67 23.285 46.1836C24.0084 45.1983 23.8089 43.8139 22.8236 43.0781L8.59309 32.4769C7.62028 31.7536 6.22342 31.9656 5.50005 32.9384ZM21.963 44.2255C22.2873 44.4625 22.3621 44.9364 22.1127 45.2607L21.6762 45.8593L6.24837 34.4101L6.68489 33.8114C6.92185 33.4872 7.39579 33.4123 7.72006 33.6618L21.963 44.2255Z" fill="#00D654"/>
</g>
<defs>
<clipPath id="clip0">
<rect width="47.9421" height="50" fill="white"/>
</clipPath>
</defs>
</svg>
