<svg width="50" height="50" viewBox="0 0 50 50" fill="none" xmlns="http://www.w3.org/2000/svg">
<g clip-path="url(#clip0)">
<path d="M9.08145 12.3492C11.2339 12.3492 12.9788 10.6043 12.9788 8.45188C12.9788 6.29942 11.2339 4.5545 9.08145 4.5545C6.92899 4.5545 5.18408 6.29942 5.18408 8.45188C5.18408 10.6043 6.92899 12.3492 9.08145 12.3492Z" fill="#00D654"/>
<path d="M49.9649 35.7122C49.8865 35.5494 49.6886 35.4531 49.4739 35.5566C48.6358 35.959 47.7221 36.1779 46.8588 36.2256C45.9436 36.2564 45.1535 36.1299 44.2669 35.6253C44.1814 35.1678 43.9907 34.7317 43.7026 34.3543L38.8314 27.9747C38.8314 27.9747 38.9293 27.2574 39.0355 26.4478C38.6766 26.5052 38.2962 26.5432 37.9601 26.5432C37.0516 26.5432 36.4526 26.2634 36.1796 25.7114C35.6954 24.7329 36.6431 23.7077 36.9547 23.3708C37.2088 23.0959 37.5533 22.7732 37.8592 22.5315L37.839 22.5194C37.4655 22.2962 37.0461 22.1848 36.6266 22.1848C36.1951 22.1848 35.7637 22.3027 35.3829 22.5384L34.2716 22.2871C34.0735 22.2423 33.8606 22.2825 33.6895 22.4067C33.5217 22.5284 33.4145 22.7166 33.3953 22.923L33.3097 23.8413C33.2399 24.5905 33.6691 25.2971 34.3664 25.5802C34.6666 25.702 34.9025 25.9437 35.0189 26.2462C35.1351 26.5485 35.1214 26.8855 34.9807 27.1772C34.5473 28.0754 33.9512 29.3626 33.5348 30.4674C32.1639 29.3591 32.38 29.5339 30.1879 27.7618C29.7702 27.4238 29.1569 27.4887 28.819 27.9069C28.481 28.325 28.5459 28.938 28.9641 29.276C33.9297 33.2901 36.6485 35.2832 38.3421 36.5535C38.57 36.0043 38.9125 35.4757 39.367 35.0087C39.5684 34.8017 39.8995 34.7973 40.1063 34.9986C40.3133 35.1999 40.3178 35.531 40.1163 35.7379C39.5925 36.2761 39.3014 36.9204 39.0929 37.5609C38.8187 38.4032 38.746 40.329 39.0881 41.4622L38.2183 43.8661C38.0355 44.3716 38.297 44.9297 38.8025 45.1126C39.3086 45.2956 39.8663 45.0337 40.0492 44.5285L41.0316 41.8131C43.2672 40.8975 44.0848 38.7789 44.2599 37.4667C45.2571 37.6813 46.0818 37.6494 47.0373 37.4394C48.0155 37.2058 49.0077 36.7707 49.8557 36.1504C49.9903 36.052 50.0401 35.8682 49.9649 35.7122Z" fill="#00D654"/>
<path d="M39.9448 23.8488C39.6926 23.3392 39.2385 23.0293 38.9118 23.0293C38.8458 23.0293 38.7851 23.0419 38.7321 23.0682C38.4171 23.224 36.7203 24.6815 37.0234 25.2942C37.137 25.5238 37.5152 25.6022 37.9604 25.6022C38.7034 25.6022 39.6327 25.384 39.8295 25.2865C40.1445 25.1307 40.2478 24.4614 39.9448 23.8488Z" fill="#00D654"/>
<path d="M29.9017 0.788757C24.7827 0.788757 20.6181 4.95332 20.6181 10.0724C20.6181 11.481 20.935 12.8164 21.4988 14.0136L18.1454 15.8711L13.5091 14.6123C13.033 13.9566 12.2619 13.5284 11.3895 13.5245L7.72832 13.508C7.02461 13.5049 6.34892 13.7835 5.85204 14.2818C5.36943 14.7659 5.0954 15.4182 5.08476 16.1L5.08515 16.2484L0.470784 21.8777C0.0790842 22.369 -0.0422051 23.0251 0.151057 23.6258C0.597835 25.0161 1.89813 29.0633 2.4954 30.922C2.81093 31.9033 3.866 32.4563 4.86142 32.1362C5.84736 31.8189 6.39443 30.7614 6.07558 29.7702L4.08339 23.578L8.5416 17.9854L6.01298 23.6808L7.79424 29.2172C8.41474 31.1455 7.35351 33.2308 5.41445 33.8547C5.06415 33.9674 4.70136 34.0253 4.33554 34.0303L3.86063 37.0009L0.166194 46.1056C-0.302459 47.2604 0.253987 48.5765 1.40877 49.0451C2.56356 49.5137 3.87968 48.9573 4.34823 47.8025L8.13935 38.4596C8.20361 38.3013 8.24961 38.1361 8.27666 37.9673L9.49463 30.3469L11.4758 38.0556L11.6623 47.001C11.6882 48.244 12.7156 49.2356 13.9654 49.21C15.2115 49.1841 16.2006 48.1529 16.1744 46.9069L15.9825 37.7001C15.9789 37.5264 15.9552 37.3536 15.9119 37.1853L13.9559 29.5745L14.0002 18.6425L17.8961 19.7003C18.3574 19.8256 18.8622 19.7731 19.3 19.5305L23.7843 17.0464C25.4193 18.4821 27.5596 19.3555 29.9013 19.3555C35.0203 19.3555 39.1848 15.1909 39.1848 10.072C39.185 4.95332 35.0206 0.788757 29.9017 0.788757ZM29.9017 17.1257C28.3212 17.1257 26.8606 16.6032 25.6833 15.722C26.0308 15.1619 26.0739 14.4359 25.7319 13.8184C25.2812 13.0046 24.3165 12.6583 23.4671 12.956C23.0707 12.0749 22.8481 11.0993 22.8481 10.0722C22.8481 6.18281 26.0122 3.01864 29.9016 3.01864C33.7908 3.01864 36.955 6.18281 36.955 10.0722C36.955 13.9615 33.7909 17.1257 29.9017 17.1257Z" fill="#00D654"/>
</g>
<defs>
<clipPath id="clip0">
<rect width="50" height="50" fill="white"/>
</clipPath>
</defs>
</svg>
