<svg width="89" height="48" viewBox="0 0 89 48" fill="none" xmlns="http://www.w3.org/2000/svg">
<g clip-path="url(#clip0)">
<path d="M56.0744 28.4273H53.6997V20.2978C56.4038 19.7431 58.4318 17.3511 58.4318 14.491C58.4318 11.2323 55.7797 8.56287 52.5037 8.56287C49.2276 8.56287 46.5755 11.2149 46.5755 14.491C46.5755 17.3511 48.6209 19.7431 51.3076 20.2978V28.4273H48.9329V24.6139H46.5582V28.4273H44.1835V9.30822L32.0499 0.364008L27.0404 4.1081V0H24.6657V5.84147L19.9683 9.30822V34.2341H44.2355V30.802H46.6102V34.2341H48.9849V30.802H51.3596V34.2341H53.7344V30.802H56.1091V34.2341H58.4838V24.6139H56.1091V28.4273H56.0744ZM48.9676 14.491C48.9676 12.5323 50.5623 10.9376 52.521 10.9376C54.4797 10.9376 56.0744 12.5323 56.0744 14.491C56.0744 16.4497 54.4797 18.0444 52.521 18.0444C50.5623 18.0444 48.9676 16.4497 48.9676 14.491ZM35.3779 31.8594H28.8085V19.7778H35.3779V31.8594ZM41.8608 31.8594H37.7527V17.4204H26.4511V31.8594H22.343V10.5042L32.1019 3.31074L41.8608 10.5042V31.8594Z" fill="#00D654"/>
<path d="M62.5571 43.0051C61.8118 43.0051 61.2051 43.6117 61.2051 44.3571C61.2051 45.1024 61.8118 45.7091 62.5571 45.7091C63.3025 45.7091 63.9091 45.1024 63.9091 44.3571C63.9091 43.6291 63.3025 43.0051 62.5571 43.0051ZM62.5571 44.7904C62.3318 44.7904 62.1411 44.5998 62.1411 44.3744C62.1411 44.1491 62.3318 43.9584 62.5571 43.9584C62.7824 43.9584 62.9731 44.1491 62.9731 44.3744C62.9731 44.5998 62.7824 44.7904 62.5571 44.7904Z" fill="#00D654"/>
<path d="M83.1323 43.0051C82.387 43.0051 81.7803 43.6117 81.7803 44.3571C81.7803 45.1024 82.387 45.7091 83.1323 45.7091C83.8776 45.7091 84.4843 45.1024 84.4843 44.3571C84.5017 43.6291 83.895 43.0051 83.1323 43.0051ZM83.1323 44.7904C82.907 44.7904 82.7163 44.5998 82.7163 44.3744C82.7163 44.1491 82.907 43.9584 83.1323 43.9584C83.3576 43.9584 83.5483 44.1491 83.5483 44.3744C83.5656 44.5998 83.375 44.7904 83.1323 44.7904Z" fill="#00D654"/>
<path d="M87.5525 40.3703V36.1062C87.5525 35.5688 87.4138 35.0488 87.1365 34.5808L86.5991 33.6448C86.4605 33.4194 86.1831 33.3501 85.9578 33.4714C85.7324 33.6101 85.6631 33.8875 85.7844 34.1128L86.3218 35.0488C86.5125 35.3608 86.5991 35.7248 86.5991 36.0888V36.1582H85.6631C85.1258 36.1582 84.6751 36.6089 84.6751 37.1462V39.8329C84.6751 40.3703 85.1258 40.8209 85.6631 40.8209H86.6165C86.6511 41.0463 86.8418 41.237 87.0845 41.237H87.1018C87.5005 41.237 87.8125 41.549 87.8125 41.9476V42.7103H85.9231C85.3511 41.757 84.3284 41.133 83.1497 41.133C81.971 41.133 80.931 41.7743 80.3763 42.7103H75.6616L76.2509 41.393C76.3202 41.2543 76.3549 41.0983 76.3549 40.9423V37.1115H79.4923C79.7523 37.1115 79.9603 36.9035 79.9603 36.6435C79.9603 36.3835 79.7523 36.1755 79.4923 36.1755H77.2909V32.5701H82.439V36.1755H81.4683C81.2083 36.1755 81.0003 36.3835 81.0003 36.6435C81.0003 36.9035 81.2083 37.1115 81.4683 37.1115H82.4217C82.9417 37.1115 83.3577 36.6955 83.3577 36.1755V32.4141C83.3577 31.9807 83.011 31.6341 82.5777 31.6341H71.6401C71.4495 31.6341 71.2588 31.7034 71.1201 31.8247L65.9894 36.2968C65.8333 36.4182 65.7813 36.6262 65.8507 36.8169C65.92 37.0075 66.0934 37.1289 66.284 37.1289H75.3669V40.9596C75.3669 40.977 75.3669 41.0116 75.3496 41.029L74.5869 42.7277H69.2308C68.9707 42.7277 68.7627 42.9357 68.7627 43.1957C68.7627 43.4557 68.9707 43.6637 69.2308 43.6637H79.9603C79.9083 43.889 79.8736 44.1317 79.8736 44.3744C79.8736 44.461 79.8736 44.5304 79.891 44.5997H65.764C65.764 44.5304 65.7813 44.4437 65.7813 44.3744C65.7813 44.1317 65.7467 43.889 65.6947 43.6637H67.2374C67.4974 43.6637 67.7054 43.4557 67.7054 43.1957C67.7054 42.9357 67.4974 42.7277 67.2374 42.7277H65.3133C64.984 42.173 64.4813 41.7223 63.892 41.445V36.8862L70.6348 31.0274C70.8601 30.8367 71.1375 30.7327 71.4495 30.7327H82.5604C83.2884 30.7327 83.9644 31.1141 84.3284 31.7554L84.7444 32.4488C84.8831 32.6741 85.1604 32.7434 85.3858 32.6221C85.6111 32.4834 85.6804 32.2061 85.5591 31.9807L85.1431 31.2874C84.6057 30.3687 83.6177 29.814 82.5604 29.814H71.4495C70.9295 29.814 70.4268 30.0047 70.0281 30.3514L63.2506 36.2448H60.0786C58.2585 36.2448 56.7852 37.7182 56.7852 39.5383V44.5824C56.7852 45.1371 57.2358 45.5877 57.7905 45.5877H59.5239C59.9919 46.8011 61.1706 47.6504 62.5399 47.6504C63.9093 47.6504 65.088 46.8011 65.556 45.5877H80.1163C80.5843 46.8011 81.763 47.6504 83.1324 47.6504C84.5017 47.6504 85.6804 46.8011 86.1484 45.5877H87.7258C88.2805 45.5877 88.7485 45.1371 88.7485 44.565V41.9476C88.7485 41.2023 88.2458 40.5609 87.5525 40.3703ZM85.6631 37.1289H86.5991V38.0476H85.6111V37.1809C85.6111 37.1462 85.6284 37.1289 85.6631 37.1289ZM85.6111 39.8503V38.9836H86.5991V39.9023H85.6631C85.6284 39.9023 85.6111 39.8676 85.6111 39.8503ZM75.3842 32.5701H76.3202V36.1755H75.3842V32.5701ZM71.7095 32.5701H74.4482V36.1755H67.5667L71.7095 32.5701ZM62.9733 37.1289V41.1676C62.8346 41.1503 62.6959 41.133 62.5573 41.133C61.3786 41.133 60.3386 41.7743 59.7839 42.7103C59.7666 42.7103 59.7492 42.7103 59.7319 42.7103H57.7212V40.3356H59.0039C59.7839 40.3356 60.4252 39.6943 60.4252 38.9142C60.4252 38.1342 59.7839 37.4929 59.0039 37.4929H58.7959C59.1599 37.2502 59.6105 37.1115 60.0786 37.1115L62.9733 37.1289ZM59.0039 38.4462C59.2639 38.4462 59.4892 38.6542 59.4892 38.9316C59.4892 39.1916 59.2812 39.4169 59.0039 39.4169H57.7212C57.7385 39.0702 57.8252 38.7582 57.9638 38.4636H59.0039V38.4462ZM57.8078 44.5997C57.7732 44.5997 57.7385 44.565 57.7385 44.5304V43.6637H59.4199C59.3679 43.889 59.3332 44.1317 59.3332 44.3744C59.3332 44.461 59.3332 44.5304 59.3505 44.5997H57.8078ZM62.5573 46.6624C61.2919 46.6624 60.2692 45.6397 60.2692 44.3744C60.2692 43.109 61.2919 42.0863 62.5573 42.0863C63.8226 42.0863 64.8453 43.109 64.8453 44.3744C64.8453 45.6397 63.8226 46.6624 62.5573 46.6624ZM83.1324 46.6624C81.867 46.6624 80.8443 45.6397 80.8443 44.3744C80.8443 43.109 81.867 42.0863 83.1324 42.0863C84.3977 42.0863 85.4204 43.109 85.4204 44.3744C85.4378 45.6397 84.4151 46.6624 83.1324 46.6624ZM87.7258 44.5997H86.3565C86.3565 44.5304 86.3738 44.4437 86.3738 44.3744C86.3738 44.1317 86.3391 43.889 86.2871 43.6637H87.7951V44.5304C87.8125 44.565 87.7778 44.5997 87.7258 44.5997Z" fill="#00D654"/>
<path d="M74.1711 38.7929C74.4311 38.7929 74.6391 38.5849 74.6391 38.3249C74.6391 38.0649 74.4311 37.8569 74.1711 37.8569H73.2698C73.0098 37.8569 72.8018 38.0649 72.8018 38.3249C72.8018 38.5849 73.0098 38.7929 73.2698 38.7929H74.1711Z" fill="#00D654"/>
<path d="M0.0862084 40.8557C-0.0697952 41.2023 -0.0351277 41.601 0.172877 41.913C0.380882 42.225 0.727557 42.4157 1.1089 42.4157H14.5945C14.8546 42.4157 15.0799 42.2077 15.0799 41.9304V41.289C15.0799 40.665 14.6812 40.1276 14.1265 39.937V36.2622C14.9412 34.9622 15.0972 33.3328 14.5599 31.8768L14.4385 31.5648C14.4732 31.1661 14.8199 30.8368 15.2359 30.8368C15.8599 30.8368 16.3626 30.3341 16.3626 29.7101V27.786C16.3626 27.6647 16.3106 27.5434 16.2239 27.4394C16.1372 27.3527 16.0159 27.3007 15.8772 27.3007H15.0799L13.9705 26.3993C13.6585 26.1567 13.2772 26.018 12.8785 26.018H11.3011C10.7291 26.018 10.1918 26.2953 9.86244 26.7634C9.53309 27.2314 9.44643 27.8207 9.6371 28.3754L10.0011 29.3981L9.9491 29.9528C9.77577 31.5648 8.73574 32.9168 7.24504 33.5062C6.25702 33.8875 5.40766 34.5635 4.81832 35.4302C4.21164 36.3142 3.89963 37.3369 3.89963 38.3943V39.1916H2.58227C1.49024 39.2263 0.519552 39.8676 0.0862084 40.8557ZM14.1265 41.4623H12.2025V34.8409C12.2025 34.5809 11.9945 34.3555 11.7171 34.3555C11.4398 34.3555 11.2318 34.5635 11.2318 34.8409V41.4623H10.5905V40.977C10.5905 40.1796 9.9491 39.5383 9.15175 39.5383H8.63174C8.42374 38.4463 7.45305 37.6143 6.29169 37.6143C6.03168 37.6143 5.80634 37.8223 5.80634 38.0996C5.80634 38.3769 6.01435 38.5849 6.29169 38.5849C7.08904 38.5849 7.73039 39.2263 7.73039 40.0236C7.73039 40.2836 7.93839 40.509 8.21573 40.509H9.16909C9.42909 40.509 9.65443 40.717 9.65443 40.9943V41.4797H5.66767C5.23433 41.4797 4.87032 41.1157 4.87032 40.6823V38.4463C4.87032 36.6609 5.94501 35.1009 7.60905 34.4422C8.5104 34.0955 9.29042 33.5062 9.87977 32.7435C10.4171 32.0328 10.7638 31.2008 10.9025 30.3341C10.9718 30.3514 11.0411 30.3514 11.1278 30.3688C11.5958 30.3861 12.0118 30.1088 12.1852 29.6754L12.6012 28.6701C12.7052 28.4274 12.5838 28.1501 12.3412 28.046C12.0985 27.942 11.8211 28.0634 11.7171 28.3061L11.3011 29.3114C11.2665 29.3981 11.1971 29.4154 11.1451 29.4154C11.0931 29.4154 11.0238 29.3981 11.0065 29.3114L10.5905 28.1154C10.5038 27.8727 10.5385 27.5954 10.6945 27.3874C10.8505 27.1794 11.0758 27.0407 11.3531 27.0407H12.9305C13.1038 27.0407 13.2945 27.11 13.4332 27.214L14.6812 28.2194C14.7679 28.2887 14.8719 28.3234 14.9759 28.3234H15.4612V29.7621C15.4612 29.8488 15.3919 29.9181 15.3052 29.9181C14.3345 29.9181 13.5545 30.7154 13.5545 31.6688C13.5545 31.7208 13.5719 31.7901 13.5892 31.8421L13.7452 32.2408C14.1959 33.4542 14.0399 34.8062 13.3292 35.8809C13.2772 35.9676 13.2425 36.0542 13.2425 36.1409V40.353C13.2425 40.613 13.4505 40.8383 13.7279 40.8383C13.9879 40.8383 14.2132 41.0463 14.2132 41.3237V41.4623H14.1265ZM0.970229 41.237C1.24757 40.5957 1.87158 40.1796 2.56493 40.1796H3.8823V40.665C3.8823 40.9597 3.95163 41.2197 4.07297 41.4623H1.12623C1.0569 41.4623 1.0049 41.4103 0.987563 41.393C0.970229 41.3583 0.935561 41.3063 0.970229 41.237Z" fill="#00D654"/>
<g clip-path="url(#clip1)">
<path d="M65.1932 7.35134L67.3274 14.0474C67.6505 15.061 68.746 15.627 69.7596 15.3039L73.1325 14.2289C73.631 14.07 74.0382 13.7206 74.2686 13.2567L76.7187 8.42463C76.7187 8.42463 75.9554 8.03951 75.937 8.03927C75.809 7.98243 75.6658 7.97318 75.5273 8.01731C75.4276 8.04909 75.3423 8.10679 75.2751 8.18312C75.2602 8.19395 73.6486 9.95223 73.6486 9.95223L71.8957 4.45248C71.8372 4.26887 71.7082 4.11602 71.5369 4.02757C71.3657 3.93911 71.1664 3.9223 70.9828 3.98082C70.7992 4.03934 70.6463 4.1684 70.5579 4.33962C70.4694 4.51083 70.4526 4.71018 70.5111 4.89379L71.542 8.12829L71.0823 8.2748L69.6842 3.88829C69.6257 3.70468 69.4967 3.55183 69.3254 3.46338C69.1542 3.37492 68.9549 3.35811 68.7713 3.41663C68.5877 3.47515 68.4348 3.60422 68.3464 3.77543C68.2579 3.94665 68.2411 4.14599 68.2996 4.3296L69.6977 8.71611L69.2325 8.86439L67.9809 4.93758C67.9224 4.75396 67.7933 4.60112 67.6221 4.51266C67.4509 4.42421 67.2515 4.4074 67.0679 4.46592C66.8843 4.52444 66.7315 4.6535 66.643 4.82472C66.5546 4.99593 66.5377 5.19527 66.5963 5.37889L67.8478 9.3057L67.3881 9.45221L66.5779 6.91003C66.5194 6.72642 66.3903 6.57357 66.2191 6.48512C66.0479 6.39667 65.8485 6.37985 65.6649 6.43837C65.4813 6.49689 65.3284 6.62596 65.24 6.79717C65.1515 6.96839 65.1347 7.16773 65.1932 7.35134Z" fill="#00D654"/>
</g>
</g>
<defs>
<clipPath id="clip0">
<rect width="88.7487" height="47.5984" fill="white"/>
</clipPath>
<clipPath id="clip1">
<rect width="13.9513" height="13.9513" fill="white" transform="translate(62.3701 4.23657) rotate(-17.6781)"/>
</clipPath>
</defs>
</svg>
