<svg width="86" height="61" viewBox="0 0 86 61" fill="none" xmlns="http://www.w3.org/2000/svg">
<rect x="10.5" y="9.5" width="19" height="19" rx="4.5" fill="white" stroke="#00D654"/>
<rect x="32.5" y="9.5" width="19" height="19" rx="4.5" fill="white" stroke="#00D654"/>
<rect x="54.5" y="9.5" width="19" height="19" rx="4.5" fill="white" stroke="#00D654"/>
<path d="M16.0117 24V14.0469H18.9512C19.8307 14.0469 20.61 14.2428 21.2891 14.6348C21.9727 15.0267 22.5013 15.5827 22.875 16.3027C23.2487 17.0228 23.4355 17.8477 23.4355 18.7773V19.2764C23.4355 20.2197 23.2464 21.0492 22.8682 21.7646C22.4945 22.4801 21.959 23.0316 21.2617 23.4189C20.569 23.8063 19.7738 24 18.876 24H16.0117ZM17.7412 15.4414V22.6191H18.8691C19.776 22.6191 20.471 22.3366 20.9541 21.7715C21.4417 21.2018 21.6901 20.3861 21.6992 19.3242V18.7705C21.6992 17.6904 21.4645 16.8656 20.9951 16.2959C20.5257 15.7262 19.8444 15.4414 18.9512 15.4414H17.7412Z" fill="#00D654"/>
<path d="M44.583 21.6826H40.7275L39.9209 24H38.123L41.8828 14.0469H43.4346L47.2012 24H45.3965L44.583 21.6826ZM41.2129 20.2881H44.0977L42.6553 16.1592L41.2129 20.2881Z" fill="#00D654"/>
<path d="M64.2588 18.7637L66.5488 14.0469H68.4629L65.127 20.3359V24H63.3906V20.3359L60.0479 14.0469H61.9688L64.2588 18.7637Z" fill="#00D654"/>
<g clip-path="url(#clip0)">
<path d="M21.71 3.85059C21.6687 3.89185 21.647 3.94616 21.647 4.0048C21.647 4.06127 21.6709 4.11775 21.71 4.15901C21.7512 4.20028 21.8055 4.222 21.8642 4.222C21.9206 4.222 21.9771 4.19811 22.0184 4.15901C22.0597 4.11775 22.0814 4.06344 22.0814 4.0048C22.0814 3.94833 22.0575 3.89185 22.0184 3.85059C21.9771 3.80932 21.9228 3.7876 21.8642 3.7876C21.8055 3.7876 21.7491 3.81149 21.71 3.85059Z" fill="#00D654"/>
<path d="M23.9036 9.40226H20.9626C21.3406 9.21764 21.6924 8.97871 22.0074 8.68984C22.0964 8.60947 22.1008 8.47046 22.0204 8.38358C21.9401 8.29453 21.801 8.29018 21.7142 8.37055C20.9931 9.03736 20.0547 9.40226 19.073 9.40226H18.5995C18.7363 9.29366 18.8666 9.17637 18.9926 9.05256C19.6486 8.39661 20.0113 7.52129 20.0135 6.59383C20.0156 5.73588 19.7072 4.92789 19.1468 4.29149L20.5956 2.84275C20.854 2.57993 21.2016 2.4344 21.573 2.4344C22.3397 2.4344 22.9631 3.05778 22.9631 3.8245V5.50782C22.9631 5.96612 22.8849 6.41355 22.7285 6.83927C22.6872 6.95222 22.7459 7.07602 22.8588 7.11729C22.8827 7.12598 22.9088 7.13032 22.9327 7.13032C23.0217 7.13032 23.1043 7.07602 23.1368 6.98697C23.3084 6.51347 23.3975 6.01607 23.3975 5.50782V4.58905H23.9036C23.9904 4.58905 24.0708 4.53692 24.1034 4.45439C24.136 4.37402 24.1186 4.28063 24.0556 4.21764L23.3736 3.53562C23.2346 2.66681 22.4787 2 21.5708 2C21.0843 2 20.626 2.18897 20.2806 2.53432L13.3519 9.46525C13.3041 9.51303 13.2802 9.58037 13.2911 9.6477C13.2997 9.71503 13.3388 9.77367 13.3997 9.80843C13.6429 9.94744 13.8927 10.0604 14.149 10.1516L13.063 11.2376C13.0217 11.2767 13 11.331 13 11.3897C13 11.4483 13.0239 11.5026 13.0652 11.5439C13.3736 11.8501 13.7798 12.0022 14.1838 12.0022C14.5921 12.0022 15.0004 11.848 15.3089 11.5374L16.5013 10.3449C17.003 10.258 17.4896 10.0864 17.9435 9.83884H20.298L21.0908 10.6316V10.8901C21.0908 11.5004 21.5882 11.9978 22.1985 11.9978H22.546C22.6655 11.9978 22.7632 11.9001 22.7632 11.7806V11.4331C22.7632 10.8228 22.2659 10.3254 21.6555 10.3254H21.397L20.9127 9.84101H23.9036C24.023 9.84101 24.1208 9.74327 24.1208 9.62381C24.1208 9.5 24.023 9.40226 23.9036 9.40226ZM17.3614 7.55169C16.6338 8.27932 15.6672 8.71373 14.6529 8.78106L18.2498 5.18419C18.3106 6.05734 17.9935 6.91964 17.3614 7.55169ZM14.212 9.21981C14.2663 9.22198 14.3228 9.22415 14.3771 9.22415C15.6064 9.22415 16.7924 8.73545 17.6677 7.86012C18.4757 7.05213 18.8341 5.91399 18.6386 4.7954L18.8341 4.59991C19.3141 5.15161 19.5747 5.85317 19.5747 6.59383C19.5725 7.40834 19.2554 8.17289 18.682 8.74631C17.4092 10.0169 15.4674 10.3341 13.8688 9.56299L14.212 9.21981ZM15.0004 11.2289C14.6051 11.6242 13.9883 11.672 13.5408 11.3723L14.6247 10.2884C14.9765 10.371 15.3349 10.4123 15.6933 10.4123C15.7346 10.4123 15.7758 10.4123 15.8193 10.4101L15.0004 11.2289ZM22.3267 11.4288V11.5591H22.1964C21.8249 11.5591 21.523 11.2572 21.523 10.8858V10.7554H21.6533C22.0248 10.7554 22.3267 11.0573 22.3267 11.4288Z" fill="#00D654"/>
<path d="M22.3398 7.63208C22.2986 7.67335 22.2769 7.72765 22.2769 7.78629C22.2769 7.84494 22.3007 7.89924 22.3398 7.94051C22.3811 7.98178 22.4354 8.0035 22.4941 8.0035C22.5527 8.0035 22.607 7.9796 22.6483 7.94051C22.6895 7.89924 22.7113 7.84494 22.7113 7.78629C22.7113 7.72765 22.6874 7.67335 22.6483 7.63208C22.607 7.59081 22.5527 7.56909 22.4941 7.56909C22.4354 7.56909 22.3811 7.59298 22.3398 7.63208Z" fill="#00D654"/>
</g>
<path d="M46.7598 7.78906C46.7031 7.61914 46.6445 7.44336 46.5879 7.22461C46.4824 6.82813 46.4004 6.07031 46.3281 5.40234C46.3008 5.15234 46.2754 4.91406 46.25 4.71289C46.1348 3.79297 45.4785 3.11914 44.8418 2.66992C44.6992 2.41992 44.5215 2.18555 44.3105 1.97461C43.6875 1.3457 42.8672 1 42 1C41.1328 1 40.3125 1.3457 39.6895 1.97461C39.4805 2.18555 39.3027 2.41992 39.1582 2.66992C38.5215 3.11914 37.8652 3.79492 37.75 4.71289C37.7246 4.91406 37.6992 5.15039 37.6719 5.40234C37.5996 6.07031 37.5176 6.82813 37.4121 7.22461C37.3535 7.44336 37.2969 7.61914 37.2402 7.78906C37.1113 8.17969 37 8.51562 37 9.08203C37 9.58789 37.1992 10.0664 37.5605 10.4297C37.9258 10.7988 38.4062 11 38.918 11C39.7988 11 40.5449 10.4023 40.7676 9.58984C40.8672 9.61328 40.9688 9.625 41.0723 9.62695H41.0781C41.4316 9.62695 41.7617 9.48438 42 9.24023C42.2383 9.48438 42.5684 9.62695 42.9219 9.62695H42.9277C43.0312 9.62695 43.1328 9.61328 43.2324 9.58984C43.4551 10.4023 44.1992 11 45.082 11C45.5918 11 46.0742 10.7988 46.4395 10.4316C46.8008 10.0664 47 9.58789 47 9.08398C47 8.51562 46.8887 8.17969 46.7598 7.78906ZM38.918 10.4141C38.5645 10.4141 38.2305 10.2734 37.9766 10.0176C37.7246 9.76367 37.5859 9.43164 37.5859 9.08203C37.5859 8.60937 37.6738 8.34375 37.7969 7.97266C37.8535 7.80273 37.918 7.60938 37.9805 7.375C38.0977 6.93555 38.1816 6.1543 38.2559 5.46484C38.2832 5.2168 38.3086 4.98242 38.332 4.78516C38.377 4.41992 38.541 4.09961 38.7637 3.82227C38.7441 3.9668 38.7324 4.18945 38.7324 4.33789C38.7227 4.67773 38.7207 5.38477 39.084 6.32031L39.7109 7.85156L39.7441 8.39062V8.39648C39.7715 8.73047 39.9219 9.04102 40.168 9.26953C40.1875 9.28711 40.207 9.30469 40.2266 9.32031C40.1152 9.94141 39.5703 10.4141 38.918 10.4141ZM41.6602 8.02539C41.5684 7.9707 41.5117 7.87109 41.5117 7.76367C41.5117 7.5957 41.6484 7.45898 41.8164 7.45898H42.1816C42.3496 7.45898 42.4863 7.5957 42.4863 7.76367C42.4863 7.86914 42.4297 7.9707 42.3379 8.02539L42 8.22852L41.6602 8.02539ZM43.7109 7.71875L43.6719 8.35156C43.6387 8.74219 43.3203 9.03711 42.9277 9.03906C42.9258 9.03906 42.9258 9.03906 42.9238 9.03906C42.6797 9.03906 42.459 8.91602 42.3281 8.71289L42.6406 8.52539C42.9082 8.36523 43.0723 8.07227 43.0723 7.76172C43.0723 7.27148 42.6719 6.87109 42.1816 6.87109H41.8164C41.3262 6.87109 40.9258 7.27148 40.9258 7.76172C40.9258 8.07227 41.0918 8.36523 41.3574 8.52539L41.6699 8.71289C41.541 8.91602 41.3184 9.03906 41.0742 9.03906C41.0723 9.03906 41.0723 9.03906 41.0703 9.03906C40.6777 9.03711 40.3594 8.74219 40.3262 8.35156L40.2871 7.71875L39.625 6.10742C39.3047 5.27734 39.3105 4.64844 39.3145 4.3457C39.3145 3.6582 39.6016 2.89258 40.1016 2.38672C40.6133 1.86914 41.2852 1.58594 41.9961 1.58594C42.7051 1.58594 43.3789 1.87109 43.8906 2.38672C44.3906 2.89062 44.6777 3.57617 44.6777 4.26367C44.6816 4.56641 44.6895 5.27734 44.3691 6.10742L43.7109 7.71875ZM46.0234 10.0176C45.7695 10.2734 45.4355 10.4141 45.082 10.4141C44.4297 10.4141 43.8848 9.94141 43.7715 9.32031C43.791 9.30469 43.8105 9.28711 43.8301 9.26953C44.0762 9.04102 44.2266 8.73047 44.2539 8.39648L44.2871 7.85156L44.9121 6.32617L44.9141 6.32031C45.2773 5.38477 45.2676 4.60156 45.2637 4.26367C45.2637 4.11523 45.2539 3.96875 45.2324 3.82227C45.4531 4.09961 45.6172 4.42188 45.6641 4.78516C45.6895 4.98242 45.7148 5.2168 45.7402 5.46484C45.8145 6.1543 45.9004 6.93555 46.0156 7.375C46.0781 7.61133 46.1426 7.80273 46.1992 7.97266C46.3223 8.3418 46.4102 8.60937 46.4102 9.08203C46.4141 9.43164 46.2754 9.76562 46.0234 10.0176Z" fill="#00D654"/>
<path d="M40.3887 4.82227H40.0957V5.4082H40.6816V4.82227H40.3887Z" fill="#00D654"/>
<path d="M43.9043 5.4082V4.82227H43.6113H43.3184V5.4082H43.9043Z" fill="#00D654"/>
<g clip-path="url(#clip1)">
<path d="M63.1894 3.64648C63.1777 3.69531 63.1933 3.74805 63.2285 3.7832L63.7324 4.28711C63.7617 4.31641 63.7988 4.33008 63.8359 4.33008C63.873 4.33008 63.9101 4.31641 63.9394 4.28711L64.4433 3.7832C64.4784 3.74805 64.4941 3.69531 64.4824 3.64648C64.4706 3.59766 64.4335 3.55664 64.3867 3.54102C64.0312 3.42383 63.6406 3.42383 63.2851 3.54102C63.2382 3.55664 63.2011 3.5957 63.1894 3.64648ZM64.0527 3.76172L63.8378 3.97656L63.623 3.76172C63.7636 3.74023 63.9101 3.74023 64.0527 3.76172Z" fill="#00D654"/>
<path d="M62.8574 2.48828C62.5605 2.48828 62.3184 2.73047 62.3184 3.02734C62.3184 3.10742 62.3848 3.17383 62.4648 3.17383C62.5449 3.17383 62.6113 3.10742 62.6113 3.02734C62.6113 2.89258 62.7207 2.7832 62.8555 2.7832C62.9902 2.7832 63.0996 2.89258 63.0996 3.02734C63.0996 3.10742 63.166 3.17383 63.2461 3.17383C63.3262 3.17383 63.3926 3.10742 63.3926 3.02734C63.3965 2.73047 63.1543 2.48828 62.8574 2.48828Z" fill="#00D654"/>
<path d="M65.0625 3.02734C65.0625 3.10742 65.1289 3.17383 65.209 3.17383C65.2891 3.17383 65.3555 3.10742 65.3555 3.02734C65.3555 2.73047 65.1133 2.48828 64.8164 2.48828C64.5195 2.48828 64.2773 2.73047 64.2773 3.02734C64.2773 3.10742 64.3437 3.17383 64.4238 3.17383C64.5039 3.17383 64.5703 3.10742 64.5703 3.02734C64.5703 2.89258 64.6797 2.7832 64.8145 2.7832C64.9512 2.78125 65.0625 2.89258 65.0625 3.02734Z" fill="#00D654"/>
<path d="M63.8379 5.90234C64.1348 5.90234 64.377 5.66016 64.377 5.36328V5.28711C64.6035 5.22266 64.7695 5.01562 64.7695 4.76953C64.7695 4.68945 64.7031 4.62305 64.623 4.62305C64.543 4.62305 64.4766 4.68945 64.4766 4.76953C64.4766 4.9043 64.3672 5.01367 64.2324 5.01367C64.0977 5.01367 63.9883 4.9043 63.9883 4.76953C63.9883 4.68945 63.9219 4.62305 63.8418 4.62305C63.7617 4.62305 63.6953 4.68945 63.6953 4.76953C63.6953 4.9043 63.5859 5.01367 63.4512 5.01367C63.3164 5.01367 63.207 4.9043 63.207 4.76953C63.207 4.68945 63.1406 4.62305 63.0605 4.62305C62.9805 4.62305 62.9141 4.68945 62.9141 4.76953C62.9141 5.01562 63.0801 5.22266 63.3066 5.28711V5.36328C63.2988 5.66016 63.541 5.90234 63.8379 5.90234ZM63.8379 5.13867C63.9043 5.20898 63.9883 5.26172 64.082 5.28711V5.36328C64.082 5.49805 63.9727 5.60742 63.8379 5.60742C63.7031 5.60742 63.5938 5.49805 63.5938 5.36328V5.28711C63.6875 5.26172 63.7715 5.20898 63.8379 5.13867Z" fill="#00D654"/>
<path d="M68.0605 4.35744C67.707 4.1133 67.3184 3.96877 66.9551 3.88478C66.9531 3.50978 66.8789 3.15041 66.7422 2.81838V0.357439C66.7422 0.216814 66.6641 0.0937667 66.5371 0.0332198C66.4102 -0.0273271 66.2656 -0.00974897 66.1562 0.0781417L64.8984 1.10744C64.5664 0.992204 64.209 0.929704 63.8359 0.929704C63.4629 0.929704 63.1055 0.992204 62.7734 1.10744L61.5156 0.0800948C61.4062 -0.00779584 61.2617 -0.025374 61.1348 0.0351729C61.0078 0.0957198 60.9297 0.218767 60.9297 0.359392V0.925798C60.9297 1.00588 60.9961 1.07228 61.0762 1.07228C61.1562 1.07228 61.2227 1.00588 61.2227 0.925798V0.359392C61.2227 0.324235 61.2461 0.306657 61.2598 0.300798C61.2734 0.294939 61.3008 0.287126 61.3281 0.30861L62.4609 1.23635C61.9551 1.47267 61.5273 1.834 61.2207 2.27931V1.61525C61.2207 1.53517 61.1543 1.46877 61.0742 1.46877C60.9941 1.46877 60.9277 1.53517 60.9277 1.61525V2.82033C60.791 3.15041 60.7168 3.50978 60.7148 3.88674C60.3535 3.97072 59.9629 4.11525 59.6094 4.35939C59.543 4.40627 59.5254 4.49611 59.5723 4.56252C59.6016 4.60353 59.6465 4.62502 59.6934 4.62502C59.7227 4.62502 59.752 4.61721 59.7773 4.59963C60.0781 4.3926 60.4141 4.26369 60.7305 4.18556C60.7539 4.41213 60.8047 4.63088 60.8789 4.83986C60.6562 4.96486 60.4277 5.13478 60.2402 5.36135C60.1895 5.42385 60.1973 5.51564 60.2598 5.56838C60.2871 5.59181 60.3203 5.60158 60.3535 5.60158C60.3965 5.60158 60.4375 5.584 60.4668 5.54885C60.6191 5.36525 60.8066 5.22267 60.9922 5.11525C61.2363 5.62502 61.6289 6.05861 62.1172 6.36525C61.5059 6.58791 61.1328 7.22463 61.2539 7.87892L61.4316 8.83791H61.2949C60.873 8.83791 60.5312 9.18166 60.5312 9.60158V9.70705H60.1719C59.6875 9.70705 59.293 9.31252 59.293 8.82814V7.60549C59.293 7.23049 59.5977 6.9258 59.9727 6.9258C60.3477 6.9258 60.6523 7.23049 60.6523 7.60549C60.6523 7.98049 60.3477 8.28517 59.9727 8.28517C59.8984 8.28517 59.8398 8.22463 59.8398 8.15236C59.8398 8.07814 59.9004 8.01955 59.9727 8.01955C60.0527 8.01955 60.1191 7.95314 60.1191 7.87306C60.1191 7.79299 60.0527 7.72658 59.9727 7.72658C59.7383 7.72658 59.5449 7.91799 59.5449 8.15431C59.5449 8.38869 59.7363 8.58205 59.9727 8.58205C60.5098 8.58205 60.9453 8.14455 60.9453 7.60939C60.9453 7.07228 60.5078 6.63674 59.9727 6.63674C59.4375 6.63674 59 7.06838 59 7.60549V8.82814C59 9.47463 59.5254 10 60.1719 10H66.9922C67.0723 10 67.1387 9.93361 67.1387 9.85353V9.60158C67.1387 9.17971 66.7949 8.83791 66.375 8.83791H66.2383L66.416 7.87892C66.5391 7.22267 66.166 6.58791 65.5547 6.36525C65.6445 6.30861 65.7324 6.24806 65.8164 6.18166C65.8809 6.13088 65.8906 6.03908 65.8418 5.97658C65.791 5.91213 65.6992 5.90236 65.6367 5.95119C65.1328 6.34572 64.4922 6.56252 63.8359 6.56252C62.6875 6.56252 61.6973 5.91408 61.2559 4.98439C61.5664 4.84767 61.8203 4.80275 61.8242 4.8008C61.9043 4.78713 61.957 4.71096 61.9434 4.63088C61.9297 4.5508 61.8535 4.49806 61.7734 4.51174C61.752 4.51564 61.4785 4.56447 61.1426 4.71096C61.0801 4.52541 61.0371 4.3301 61.0176 4.12892C61.5605 4.03908 61.9902 4.08205 62 4.08205C62.0801 4.08986 62.1523 4.03322 62.1621 3.95119C62.1699 3.87111 62.1133 3.79885 62.0312 3.78908C62 3.78517 61.5645 3.7422 61.0078 3.8301C61.0391 2.63674 61.9043 1.63478 63.0742 1.32619V1.77931C63.0742 1.85939 63.1406 1.9258 63.2207 1.9258C63.3008 1.9258 63.3672 1.85939 63.3672 1.77931V1.26369C63.4707 1.24806 63.5781 1.23635 63.6855 1.23049V2.03517C63.6855 2.11525 63.752 2.18166 63.832 2.18166C63.9121 2.18166 63.9785 2.11525 63.9785 2.03517V1.23049C64.0781 1.23439 64.1758 1.24416 64.2734 1.25978V1.77931C64.2734 1.85939 64.3398 1.9258 64.4199 1.9258C64.5 1.9258 64.5664 1.85939 64.5664 1.77931V1.31838C65.748 1.61916 66.625 2.62697 66.6562 3.82814C66.0996 3.74025 65.6641 3.78517 65.6328 3.78713C65.5527 3.79494 65.4941 3.8672 65.502 3.94924C65.5098 4.02931 65.584 4.08791 65.6641 4.0801C65.6719 4.0801 66.1035 4.03517 66.6465 4.12697C66.6289 4.32619 66.5879 4.5215 66.5234 4.709C66.1875 4.56252 65.9121 4.51369 65.8926 4.50978C65.8125 4.49611 65.7363 4.54885 65.7227 4.62892C65.709 4.709 65.7617 4.78517 65.8418 4.79885C65.8457 4.79885 66.1016 4.84572 66.4121 4.98244C66.3281 5.16017 66.2227 5.3301 66.0957 5.4883C66.0449 5.55275 66.0566 5.64455 66.1191 5.69338C66.1836 5.74416 66.2754 5.73244 66.3242 5.66994C66.4629 5.49611 66.5781 5.30861 66.6719 5.11525C66.8574 5.22267 67.0449 5.36525 67.1973 5.54885C67.2266 5.584 67.2676 5.60158 67.3105 5.60158C67.3437 5.60158 67.377 5.58986 67.4043 5.56838C67.4668 5.5176 67.4766 5.42385 67.4238 5.36135C67.2383 5.13478 67.0098 4.96486 66.7871 4.83986C66.8613 4.62892 66.9121 4.41017 66.9336 4.18556C67.25 4.26369 67.5859 4.3926 67.8867 4.59963C67.9121 4.61721 67.9414 4.62502 67.9707 4.62502C68.0176 4.62502 68.0625 4.60353 68.0918 4.56252C68.1445 4.49611 68.127 4.40431 68.0605 4.35744ZM64.2031 9.70705H63.4727C63.5215 9.62111 63.5488 9.52346 63.5488 9.41799V7.92971C63.5488 7.7715 63.6777 7.64064 63.8379 7.64064C63.9961 7.64064 64.127 7.76955 64.127 7.92971V9.41799C64.125 9.52346 64.1543 9.62111 64.2031 9.70705ZM66.1289 7.82424L65.918 8.95705C65.9102 9.00002 65.9219 9.04494 65.9492 9.07814C65.9766 9.11135 66.0176 9.13088 66.0625 9.13088H66.375C66.6348 9.13088 66.8457 9.34181 66.8457 9.60158V9.70705H65.2129C65.2617 9.62111 65.2891 9.52346 65.2891 9.41799V6.59181L65.334 6.60353C65.8828 6.73244 66.2324 7.26955 66.1289 7.82424ZM64.9961 6.64064V9.41799C64.9961 9.57619 64.8672 9.70705 64.707 9.70705C64.5469 9.70705 64.418 9.57814 64.418 9.41799V7.92971C64.418 7.60939 64.1562 7.34767 63.8359 7.34767C63.5156 7.34767 63.2539 7.60939 63.2539 7.92971V9.41799C63.2539 9.57619 63.125 9.70705 62.9648 9.70705C62.8047 9.70705 62.6758 9.57814 62.6758 9.41799V7.78517C62.6758 7.7051 62.6094 7.63869 62.5293 7.63869C62.4492 7.63869 62.3828 7.7051 62.3828 7.78517V9.41799C62.3828 9.52346 62.4102 9.62111 62.459 9.70705H60.8281V9.60158C60.8281 9.34181 61.0391 9.13088 61.2988 9.13088H61.6113C61.6543 9.13088 61.6953 9.11135 61.7246 9.07814C61.752 9.04494 61.7637 9.00002 61.7559 8.95705L61.5449 7.82424C61.4414 7.26955 61.791 6.73439 62.3418 6.60353L62.3848 6.59181V7.10353C62.3848 7.18361 62.4512 7.25002 62.5312 7.25002C62.6113 7.25002 62.6777 7.18361 62.6777 7.10353V6.64064C63.0371 6.77736 63.4277 6.85158 63.8359 6.85158C64.2363 6.85353 64.6309 6.77931 64.9961 6.64064ZM65.209 1.23635L66.3418 0.30861C66.3691 0.285173 66.3965 0.292985 66.4121 0.300798C66.4258 0.306657 66.4492 0.324235 66.4492 0.359392V2.27931C66.1445 1.83595 65.7148 1.47267 65.209 1.23635Z" fill="#00D654"/>
</g>
<rect x="0.5" y="41.5" width="19" height="19" rx="4.5" fill="white" stroke="#00D654"/>
<rect x="22.5" y="41.5" width="19" height="19" rx="4.5" fill="white" stroke="#00D654"/>
<rect x="44.5" y="41.5" width="19" height="19" rx="4.5" fill="white" stroke="#00D654"/>
<rect x="66.5" y="41.5" width="19" height="19" rx="4.5" fill="white" stroke="#00D654"/>
<path d="M13.6064 52.7598C13.5062 53.8216 13.1143 54.651 12.4307 55.248C11.7471 55.8405 10.8379 56.1367 9.70312 56.1367C8.91016 56.1367 8.21061 55.9499 7.60449 55.5762C7.00293 55.1979 6.53809 54.6624 6.20996 53.9697C5.88184 53.277 5.71094 52.4727 5.69727 51.5566V50.627C5.69727 49.6882 5.86361 48.861 6.19629 48.1455C6.52897 47.43 7.00521 46.8786 7.625 46.4912C8.24935 46.1038 8.9694 45.9102 9.78516 45.9102C10.8835 45.9102 11.7676 46.2087 12.4375 46.8057C13.1074 47.4027 13.4971 48.2458 13.6064 49.335H11.8838C11.8018 48.6195 11.5921 48.1045 11.2549 47.79C10.9222 47.471 10.4323 47.3115 9.78516 47.3115C9.0332 47.3115 8.45443 47.5872 8.04883 48.1387C7.64779 48.6855 7.44271 49.4899 7.43359 50.5518V51.4336C7.43359 52.5091 7.625 53.3294 8.00781 53.8945C8.39518 54.4596 8.96029 54.7422 9.70312 54.7422C10.3822 54.7422 10.8926 54.5895 11.2344 54.2842C11.5762 53.9788 11.7926 53.4707 11.8838 52.7598H13.6064Z" fill="#00D654"/>
<path d="M33.583 53.6826H29.7275L28.9209 56H27.123L30.8828 46.0469H32.4346L36.2012 56H34.3965L33.583 53.6826ZM30.2129 52.2881H33.0977L31.6553 48.1592L30.2129 52.2881Z" fill="#00D654"/>
<path d="M53.6689 52.165H51.7412V56H50.0117V46.0469H53.5117C54.6602 46.0469 55.5465 46.3044 56.1709 46.8193C56.7952 47.3343 57.1074 48.0794 57.1074 49.0547C57.1074 49.7201 56.9456 50.2783 56.6221 50.7295C56.3031 51.1761 55.8564 51.5202 55.2822 51.7617L57.5176 55.9111V56H55.665L53.6689 52.165ZM51.7412 50.7773H53.5186C54.1019 50.7773 54.5576 50.6315 54.8857 50.3398C55.2139 50.0436 55.3779 49.6403 55.3779 49.1299C55.3779 48.5967 55.2253 48.1842 54.9199 47.8926C54.6191 47.6009 54.168 47.4505 53.5664 47.4414H51.7412V50.7773Z" fill="#00D654"/>
<path d="M78.8291 51.5566H74.7412V54.6191H79.5195V56H73.0117V46.0469H79.4717V47.4414H74.7412V50.1895H78.8291V51.5566Z" fill="#00D654"/>
<path d="M12.3633 32H8.32031C6.49023 32 5 33.4902 5 35.3203C5 35.3203 5 35.8008 5 35.8281C5 35.9902 5.13086 36.1211 5.29297 36.1211C5.31055 36.1211 9.39453 36.1211 9.39453 36.1211V41.7051C9.39453 41.8672 9.52539 41.998 9.6875 41.998C9.84961 41.998 9.98047 41.8672 9.98047 41.7051V36.1211H11.3672C11.5293 36.1211 11.6602 35.9902 11.6602 35.8281V34.5391V33.7578H12.3633C12.8477 33.7578 13.2422 34.1523 13.2422 34.6367V36.623C13.2422 37.0391 12.9473 37.4004 12.5391 37.4844C11.584 37.6816 10.916 38.498 10.916 39.4746V41.707C10.916 41.8691 11.0469 42 11.209 42C11.3711 42 11.502 41.8691 11.502 41.707V39.4746C11.502 38.7812 11.9766 38.1992 12.6562 38.0586C13.334 37.9199 13.8262 37.3164 13.8262 36.623V34.6367C13.8262 33.8281 13.1699 33.1719 12.3613 33.1719H11.6582V32.5859H12.3613C13.4922 32.5859 14.4121 33.5059 14.4121 34.6367V41.7012C14.4121 41.8633 14.543 41.9941 14.7051 41.9941C14.8672 41.9941 14.998 41.8633 14.998 41.7012V34.6367C15 33.1836 13.8164 32 12.3633 32ZM6.79297 33.0527C7.01758 33.2266 7.15234 33.5 7.15234 33.7852C7.15234 33.9473 7.10938 34.1055 7.0293 34.2461C7.0293 34.2461 6.55469 34.2461 6.55078 34.2461C6.24023 34.252 5.95117 34.3477 5.70703 34.5098C5.89453 33.9102 6.2832 33.3984 6.79297 33.0527ZM11.0742 35.5352H5.63086C5.75586 35.1289 6.13477 34.832 6.58203 34.832H11.0742V35.5352ZM11.0742 34.2461H7.66602C7.71289 34.0977 7.73828 33.9434 7.73828 33.7852C7.73828 33.4082 7.59375 33.043 7.34375 32.7676C7.64648 32.6504 7.97656 32.5879 8.32031 32.5879H11.0742V34.2461Z" fill="#00D654"/>
<path d="M12.6758 34.7539C12.6758 34.5918 12.5449 34.4609 12.3828 34.4609C12.2207 34.4609 12.0898 34.5918 12.0898 34.7539C12.0898 34.916 12.2207 35.0469 12.3828 35.0469C12.5449 35.0469 12.6758 34.916 12.6758 34.7539Z" fill="#00D654"/>
<g clip-path="url(#clip2)">
<path d="M71.3592 34.4332C71.4804 34.4332 71.5787 34.3062 71.5787 34.1495C71.5787 33.9928 71.4804 33.8658 71.3592 33.8658C71.2379 33.8658 71.1396 33.9928 71.1396 34.1495C71.1396 34.3062 71.2379 34.4332 71.3592 34.4332Z" fill="#00D654"/>
<path d="M77.5823 35.0855L76.6297 33.4144C76.259 32.76 75.6274 32.2837 74.9006 32.1035L74.6562 32.0435C74.4678 31.9959 74.2752 31.9876 74.0826 32.0186L72.1526 32.3168C71.4133 32.4307 70.8107 32.9712 70.616 33.6939L70.5249 34.0335L69.678 34.3048C69.5972 34.3317 69.5516 34.4187 69.5786 34.4995C69.6055 34.5802 69.6925 34.6258 69.7732 34.5989L70.7009 34.3007C70.7506 34.2841 70.79 34.2448 70.8045 34.193L70.9184 33.7726C71.0799 33.1679 71.5852 32.7165 72.2023 32.6212L74.1323 32.323C74.2835 32.3003 74.4346 32.3065 74.5837 32.3438L74.8281 32.4038C75.4742 32.5633 76.0333 32.9878 76.3646 33.5655L77.3172 35.2367C77.3462 35.2864 77.398 35.3154 77.4518 35.3154C77.4787 35.3154 77.5036 35.3092 77.5284 35.2947C77.5989 35.2553 77.6258 35.1601 77.5823 35.0855Z" fill="#00D654"/>
<path d="M74.0534 40.5131C74.0285 40.4303 73.9416 40.3848 73.8608 40.4096C73.778 40.4345 73.7324 40.5214 73.7573 40.6022C73.954 41.2628 74.072 41.8695 74.072 41.8737C74.0865 41.9482 74.1507 42 74.2253 42C74.2356 42 74.2439 42 74.2543 41.9979C74.3392 41.9814 74.393 41.9006 74.3785 41.8157C74.3764 41.8095 74.2563 41.1903 74.0534 40.5131Z" fill="#00D654"/>
<path d="M68.4724 34.6921L67.4411 35.0089C67.263 35.0628 67.118 35.1932 67.0476 35.3651C66.9772 35.537 66.9834 35.7316 67.0704 35.8952L67.555 36.8188L67.7476 37.38C67.9754 38.0406 68.5966 38.4858 69.2966 38.4858H71.7256C72.32 38.4858 72.8625 38.7613 73.1793 39.2251C73.2974 39.397 73.4175 39.6393 73.5355 39.9458C73.5583 40.0079 73.6184 40.0452 73.6805 40.0452C73.6991 40.0452 73.7178 40.041 73.7364 40.0348C73.8172 40.0038 73.8565 39.9147 73.8254 39.8339C73.6991 39.5068 73.5687 39.2417 73.4361 39.0491C73.2705 38.8068 73.053 38.608 72.8025 38.461C73.3554 38.3906 73.8834 38.1711 74.3204 37.8232C74.3866 37.7693 74.3991 37.672 74.3452 37.6057C74.2914 37.5395 74.194 37.5271 74.1278 37.5809C73.6432 37.964 73.0365 38.1752 72.4173 38.1752H69.2966C68.7291 38.1752 68.2259 37.8149 68.0416 37.2786L67.8905 36.8375C68.0106 36.7774 68.1825 36.6656 68.3398 36.4834C68.5697 36.2141 68.8016 35.7358 68.6629 34.9572L69.0998 34.8163C69.1806 34.7894 69.2261 34.7024 69.1992 34.6217C69.1723 34.5409 69.0853 34.4954 69.0046 34.5223L68.4724 34.6921ZM67.3479 35.7524C67.3044 35.6695 67.3003 35.5722 67.3355 35.4852C67.3707 35.3982 67.4432 35.334 67.5343 35.3051L68.3668 35.0503C68.5262 36.034 68.0126 36.4254 67.7704 36.5538L67.3479 35.7524Z" fill="#00D654"/>
<path d="M75.1775 33.2922C75.0926 33.2777 75.0119 33.3336 74.9974 33.4164C74.9829 33.5013 75.0388 33.5821 75.1216 33.5966C75.805 33.7208 75.8713 34.0108 75.8795 34.2738C75.8982 34.895 75.7222 36.3301 75.2314 36.8354C75.1258 36.9451 75.016 36.999 74.8959 36.999C74.0572 36.999 73.2993 36.4523 72.8644 35.537C72.5145 34.7998 72.4668 33.9818 72.7526 33.6339C73.0446 33.2777 74.0904 33.4309 74.4341 33.4806C74.519 33.4931 74.5977 33.4351 74.6101 33.3502C74.6226 33.2653 74.5646 33.1866 74.4797 33.1741C73.7528 33.0665 72.8707 33.0002 72.5124 33.4371C72.1438 33.8865 72.1749 34.806 72.5849 35.6695C72.8044 36.1334 73.1109 36.5268 73.4733 36.8085C73.8978 37.1398 74.3761 37.3075 74.898 37.3075C75.103 37.3075 75.2914 37.2206 75.4571 37.0507C76.0514 36.4378 76.213 34.8805 76.1943 34.2634C76.1798 33.9259 76.0639 33.4537 75.1775 33.2922Z" fill="#00D654"/>
</g>
<g clip-path="url(#clip3)">
<path d="M34.4595 33.6523C34.3423 33.6523 34.2466 33.748 34.2466 33.8652C34.2466 33.9824 34.3423 34.0781 34.4595 34.0781C34.5767 34.0781 34.6724 33.9824 34.6724 33.8652C34.6724 33.748 34.5767 33.6523 34.4595 33.6523Z" fill="#00D654"/>
<path d="M34.5178 41.1074C34.4006 41.0351 34.2834 40.9882 34.1994 40.9609V40.5878C34.1994 40.5078 34.133 40.4414 34.0529 40.4414C33.9729 40.4414 33.9065 40.5078 33.9065 40.5878V41.0703C33.9065 41.1386 33.9553 41.1992 34.0217 41.2128C34.0236 41.2128 34.1994 41.2539 34.3713 41.3593C34.5256 41.455 34.6213 41.5703 34.6623 41.7031H33.7346C33.6076 41.7031 33.4924 41.623 33.4494 41.5019L32.594 39.0859C32.5666 39.0097 32.4846 38.9707 32.4065 38.9961C32.3303 39.0234 32.2893 39.1054 32.3166 39.1816C32.3791 39.3613 32.4104 39.5625 32.4104 39.7793C32.4104 40.207 32.1994 40.5078 31.7639 40.6992C31.3889 40.8632 30.9553 40.8906 30.7873 40.8925C30.7072 40.8945 30.6428 40.9609 30.6447 41.041C30.6447 41.1211 30.7111 41.1855 30.7912 41.1855H31.9455C32.176 41.1855 32.3498 41.2461 32.4631 41.3671C32.5607 41.4707 32.6018 41.6035 32.6174 41.7011H29.4787C29.2365 41.7011 29.0197 41.6054 28.8303 41.416C28.8049 41.3906 28.7717 41.375 28.7365 41.373C27.7815 41.3105 26.6232 40.4375 26.3557 38.955C26.342 38.875 26.2658 38.8222 26.1857 38.8359C26.1057 38.8496 26.0529 38.9257 26.0666 39.0058C26.1975 39.7363 26.5412 40.3847 27.0568 40.8828C27.5275 41.3339 28.094 41.6113 28.6604 41.666C28.8947 41.8847 29.1779 42 29.4768 42H32.7717C32.8498 42 32.9123 41.9394 32.9182 41.8632C32.9201 41.8476 32.9416 41.457 32.6779 41.1738C32.5217 41.0058 32.3029 40.914 32.0275 40.8984C32.3537 40.7187 32.5666 40.4628 32.6545 40.1445L33.1701 41.6035C33.2541 41.8398 33.4787 42 33.7307 42H34.8244C34.9045 42 34.9709 41.9336 34.9709 41.8535C34.9768 41.5488 34.8166 41.291 34.5178 41.1074Z" fill="#00D654"/>
<path d="M26.2972 38.3906C26.2542 37.2422 26.7523 36.582 27.1781 36.2285C27.721 35.7793 28.3089 35.666 28.3324 35.6601C28.4241 35.6426 28.512 35.7031 28.5296 35.7949C28.5472 35.8867 28.4866 35.9746 28.3929 35.9922C28.3714 35.9961 27.846 36.1035 27.3734 36.5039C26.7542 37.0293 26.5179 37.7969 26.6702 38.7851C26.8011 39.6269 27.262 40.2246 28.0394 40.5586C28.1234 40.5937 28.223 40.6504 28.305 40.582C28.346 40.5469 28.3636 40.4941 28.3538 40.4414C28.0726 39.0117 28.8714 37.9726 29.7308 37.6113C30.0804 37.4648 30.3929 37.2969 30.6624 37.1094C30.7288 37.0625 30.7464 36.9726 30.6995 36.9043C30.6527 36.8379 30.5628 36.8203 30.4945 36.8672C30.2425 37.043 29.9476 37.2012 29.6175 37.3398C28.346 37.873 27.9144 39.1582 28.0257 40.2285C27.4241 39.9277 27.0667 39.4277 26.9613 38.7402C26.8245 37.8594 27.0277 37.1816 27.5628 36.7285C27.973 36.3808 28.4456 36.2812 28.4476 36.2812C28.6976 36.2344 28.8636 35.9922 28.8167 35.7402C28.7699 35.4902 28.5277 35.3242 28.2757 35.3711C28.2484 35.3769 27.5882 35.5039 26.9866 36.0019C26.5101 36.3965 25.9515 37.1328 25.9984 38.4004C26.0023 38.4805 26.0706 38.5449 26.1507 38.541C26.2366 38.5391 26.2991 38.4707 26.2972 38.3906Z" fill="#00D654"/>
<path d="M35.6292 34.2265C35.6292 34.2168 35.6292 34.207 35.6272 34.1953C35.6213 34.1504 35.6018 34.0996 35.5686 34.0351C35.5686 34.0332 35.5667 34.0312 35.5647 34.0293C35.4885 33.8867 34.9963 33.248 34.967 33.207C34.844 33.0312 34.4417 32.9512 34.1819 32.916V32.1465C34.1819 32.0566 34.0979 31.9863 34.01 32.0019C33.971 32.0098 33.0647 32.1816 32.7639 33.0469C32.5784 33.1348 32.0881 33.4297 31.9124 34.166C31.885 34.2832 31.8616 34.4101 31.8381 34.5449C31.7346 35.1308 31.6038 35.8574 30.9358 36.5117C30.8772 36.5683 30.8772 36.6621 30.9338 36.7187C30.9905 36.7773 31.0842 36.7773 31.1409 36.7207C31.4085 36.459 31.5979 36.1836 31.7366 35.9121C32.6018 36.5078 33.469 36.6269 34.0178 36.6269C34.0588 36.6269 34.0979 36.6269 34.135 36.625C34.1702 36.6894 34.2014 36.748 34.2268 36.791L34.2444 36.8203C34.2717 36.8672 34.9006 38 33.9397 39.1777C33.9182 39.2031 33.9065 39.2363 33.9065 39.2695V40C33.9065 40.0801 33.9729 40.1465 34.053 40.1465C34.1331 40.1465 34.1995 40.0801 34.1995 40V39.3242C34.5979 38.8183 34.7874 38.2617 34.762 37.6679C34.7385 37.123 34.5374 36.748 34.4983 36.6777L34.4807 36.6465C34.3948 36.5 34.1819 36.1289 34.2307 35.8867C34.2307 35.8847 34.2307 35.8847 34.2307 35.8828C34.2346 35.8594 34.2424 35.8379 34.2522 35.8183C34.2991 35.7187 34.4182 35.6543 34.6057 35.625C35.0335 35.5586 35.344 35.3125 35.5061 34.916C35.5706 34.7558 35.6409 34.3691 35.6292 34.2265ZM31.8557 35.6426C31.9065 35.5156 31.9456 35.3906 31.9807 35.2695C32.2678 35.5254 32.8811 35.9336 33.9299 35.9922C33.9338 36.1074 33.9631 36.2246 34.0022 36.334C33.4846 36.334 32.6663 36.2168 31.8557 35.6426ZM34.5588 35.334C34.2717 35.3789 34.0784 35.5 33.9866 35.6914C33.9846 35.6953 33.9846 35.6972 33.9827 35.7012C33.2698 35.666 32.7835 35.457 32.4963 35.2832C32.2659 35.1445 32.1252 35.0058 32.0608 34.9355C32.0862 34.8164 32.1057 34.7031 32.1252 34.5957C32.1487 34.4648 32.1702 34.3418 32.1956 34.2324C32.3713 33.498 32.9065 33.3008 32.928 33.293C32.9729 33.2773 33.0081 33.2422 33.0217 33.1953C33.1819 32.6562 33.635 32.4258 33.887 32.3379V33.0449C33.887 33.1211 33.9436 33.1836 34.0198 33.1914C34.3401 33.2226 34.676 33.3105 34.7268 33.375C34.76 33.4238 34.8167 33.4941 34.887 33.584C34.9768 33.6972 35.1467 33.916 35.2522 34.0742C35.2229 34.1191 35.2073 34.1699 35.2073 34.2246C35.2073 34.3183 35.2522 34.4004 35.3245 34.4512C35.2776 34.8105 35.1096 35.248 34.5588 35.334Z" fill="#00D654"/>
</g>
<g clip-path="url(#clip4)">
<path d="M56.8984 40.3926H56.1504C56.4141 40.043 56.6094 39.6465 56.7246 39.2246C56.7539 39.1211 56.6914 39.0137 56.5879 38.9844C56.4844 38.9551 56.377 39.0176 56.3477 39.1211C56.2344 39.5332 56.0352 39.9199 55.7637 40.252C55.3145 39.7012 55.0703 39.0176 55.0703 38.3027C55.0703 37.832 55.1797 37.3652 55.3848 36.9453C55.5977 36.8731 55.793 36.7637 55.9609 36.6211C56.1348 36.8867 56.2656 37.1758 56.3496 37.4844C56.373 37.5703 56.4512 37.6289 56.5371 37.6289C56.5547 37.6289 56.5723 37.627 56.5898 37.6211C56.6934 37.5918 56.7559 37.4844 56.7266 37.3809C56.623 37.0039 56.459 36.6524 56.2363 36.3301C56.457 36.0371 56.5859 35.6719 56.5859 35.2774C56.5859 34.8457 56.4316 34.4395 56.1484 34.1192L56.7852 33.4824C56.8262 33.4414 56.8477 33.3848 56.8418 33.3262C56.8359 33.2676 56.8047 33.2149 56.7578 33.1836C56.3379 32.8985 55.7734 32.9531 55.416 33.3106L55.2109 33.5156C54.8652 33.2852 54.4668 33.166 54.0469 33.166C53.627 33.166 53.2285 33.2871 52.8828 33.5156L52.6777 33.3086C52.3203 32.9512 51.7559 32.8985 51.3359 33.1817C51.2871 33.2149 51.2559 33.2676 51.252 33.3242C51.248 33.3809 51.2676 33.4395 51.3086 33.4805L51.9453 34.1172C51.666 34.4375 51.5078 34.8496 51.5078 35.2774C51.5078 35.6719 51.6387 36.0352 51.8574 36.3301C51.4551 36.9121 51.2441 37.5899 51.2441 38.3027C51.2441 39.0625 51.4902 39.793 51.9434 40.3926H51.1953C51.0879 40.3926 51 40.4805 51 40.5879V41.3691C51 41.4766 51.0879 41.5645 51.1953 41.5645H52.8184V42.041C52.8184 42.459 53.0703 42.8301 53.459 42.9863C53.4824 42.9961 53.5059 43 53.5312 43C53.5566 43 53.5801 42.9961 53.6035 42.9863C53.7871 42.9141 53.9395 42.793 54.0488 42.6426C54.1582 42.793 54.3105 42.9141 54.4941 42.9863C54.5176 42.9961 54.541 43 54.5664 43C54.5918 43 54.6152 42.9961 54.6387 42.9863C55.0273 42.832 55.2793 42.4609 55.2793 42.041V41.5645H56.8984C57.0059 41.5645 57.0938 41.4766 57.0938 41.3691V40.5879C57.0938 40.4805 57.0059 40.3926 56.8984 40.3926ZM56.1953 35.2774C56.1953 36.0313 55.582 36.6445 54.8281 36.6445C54.6855 36.6445 54.543 36.6211 54.4082 36.5781L54.5859 36.2246C54.6641 36.2442 54.7441 36.2559 54.8281 36.2559C55.3672 36.2559 55.8047 35.8184 55.8047 35.2793C55.8047 35.0508 55.7266 34.8418 55.5938 34.6758L55.8711 34.3985C56.082 34.6426 56.1953 34.9492 56.1953 35.2774ZM53.2656 34.6914C53.5879 34.6914 53.8516 34.9551 53.8516 35.2774C53.8516 35.5996 53.5879 35.8633 53.2656 35.8633C52.9434 35.8633 52.6797 35.5996 52.6797 35.2774C52.6797 34.9551 52.9434 34.6914 53.2656 34.6914ZM55.4141 35.2774C55.4141 35.5996 55.1504 35.8633 54.8281 35.8633C54.5059 35.8633 54.2422 35.5996 54.2422 35.2774C54.2422 34.9551 54.5059 34.6914 54.8281 34.6914C55.1504 34.6914 55.4141 34.9531 55.4141 35.2774ZM54.0469 35.8613C54.1016 35.9336 54.1641 35.9961 54.2363 36.0508L54.0469 36.4258L53.8594 36.0508C53.9297 35.9981 53.9941 35.9336 54.0469 35.8613ZM56.3086 33.4063L55.2949 34.4199C55.1953 34.3652 55.084 34.3281 54.9668 34.3106L55.6914 33.586C55.8574 33.4199 56.0918 33.3574 56.3086 33.4063ZM54.0469 33.5567C54.3613 33.5567 54.6621 33.6387 54.9277 33.7988L54.0469 34.6777L53.166 33.7969C53.4316 33.6387 53.7324 33.5567 54.0469 33.5567ZM52.4023 33.586L53.127 34.3106C53.0098 34.3281 52.8984 34.3652 52.7988 34.4199L51.7852 33.4063C52.002 33.3574 52.2363 33.4199 52.4023 33.586ZM52.2227 34.3965L52.5 34.6738C52.3672 34.8399 52.2891 35.0488 52.2891 35.2774C52.2891 35.8164 52.7266 36.2539 53.2656 36.2539C53.3496 36.2539 53.4297 36.2442 53.5078 36.2227L53.6855 36.5762C53.5508 36.6192 53.4082 36.6426 53.2656 36.6426C52.5117 36.6426 51.8984 36.0293 51.8984 35.2754C51.8984 34.9531 52.0156 34.6406 52.2227 34.3965ZM52.1328 36.6192C52.3008 36.7617 52.4961 36.8731 52.709 36.9434C52.9141 37.3633 53.0234 37.8301 53.0234 38.3008C53.0234 39.0156 52.7793 39.7012 52.3301 40.252C51.8809 39.7012 51.6367 39.0176 51.6367 38.3008C51.6348 37.6973 51.8066 37.1211 52.1328 36.6192ZM53.4141 38.3027C53.4141 37.8672 53.332 37.4356 53.1738 37.0332C53.2051 37.0352 53.2344 37.0352 53.2656 37.0352C53.5371 37.0352 53.8047 36.9727 54.0469 36.8516C54.2891 36.9727 54.5566 37.0352 54.8281 37.0352C54.8594 37.0352 54.8906 37.0352 54.9199 37.0332C54.7617 37.4356 54.6797 37.8692 54.6797 38.3027C54.6797 39.0625 54.9258 39.793 55.3789 40.3926H54.9082C54.8008 40.2481 54.6309 40.1543 54.4375 40.1543C54.2871 40.1543 54.1504 40.2109 54.0469 40.3047C53.9434 40.2109 53.8066 40.1543 53.6562 40.1543C53.4629 40.1543 53.293 40.2481 53.1855 40.3926H52.7148C53.168 39.793 53.4141 39.0625 53.4141 38.3027ZM53.4609 40.7402C53.4609 40.6328 53.5488 40.5449 53.6562 40.5449C53.7637 40.5449 53.8516 40.6328 53.8516 40.7402V41.209C53.8516 41.3164 53.7637 41.4043 53.6562 41.4043C53.5488 41.4043 53.4609 41.3164 53.4609 41.209V40.7402ZM54.2422 41.209V40.7402C54.2422 40.6328 54.3301 40.5449 54.4375 40.5449C54.5449 40.5449 54.6328 40.6328 54.6328 40.7402V41.209C54.6328 41.3164 54.5449 41.4043 54.4375 41.4043C54.3301 41.4043 54.2422 41.3164 54.2422 41.209ZM51.3906 40.7832H53.0703V41.1738H51.3906V40.7832ZM53.5312 42.5899C53.334 42.4805 53.209 42.2734 53.209 42.043V41.5899C53.3164 41.7168 53.4766 41.7969 53.6562 41.7969C53.7266 41.7969 53.793 41.7852 53.8535 41.7617V42.041C53.8535 42.2715 53.7305 42.4805 53.5312 42.5899ZM54.5664 42.5899C54.3691 42.4805 54.2441 42.2734 54.2441 42.043V41.7637C54.3047 41.7852 54.3691 41.7969 54.4375 41.7969C54.6191 41.7969 54.7812 41.7129 54.8887 41.584V42.043C54.8887 42.2715 54.7656 42.4805 54.5664 42.5899ZM56.7031 41.1738H55.0234V40.7832H56.7031V41.1738Z" fill="#00D654"/>
<path d="M53.2656 35.4727C53.3164 35.4727 53.3672 35.4512 53.4043 35.416C53.4414 35.3789 53.4609 35.3301 53.4609 35.2773C53.4609 35.2266 53.4395 35.1758 53.4043 35.1387C53.3672 35.1016 53.3184 35.082 53.2656 35.082C53.2129 35.082 53.1641 35.1035 53.127 35.1387C53.0898 35.1758 53.0703 35.2246 53.0703 35.2773C53.0703 35.3281 53.0918 35.3789 53.127 35.416C53.1641 35.4512 53.2148 35.4727 53.2656 35.4727Z" fill="#00D654"/>
<path d="M54.6895 35.1387C54.6523 35.1758 54.6328 35.2246 54.6328 35.2773C54.6328 35.3281 54.6543 35.3789 54.6895 35.416C54.7266 35.4531 54.7754 35.4727 54.8281 35.4727C54.8809 35.4727 54.9297 35.4512 54.9668 35.416C55.0039 35.3789 55.0234 35.3301 55.0234 35.2773C55.0234 35.2266 55.002 35.1758 54.9668 35.1387C54.9297 35.1016 54.8809 35.082 54.8281 35.082C54.7754 35.082 54.7266 35.1016 54.6895 35.1387Z" fill="#00D654"/>
<path d="M56.6543 38.1074C56.6035 38.1074 56.5527 38.1289 56.5156 38.1641C56.4785 38.2012 56.459 38.25 56.459 38.3027C56.459 38.3555 56.4805 38.4043 56.5156 38.4414C56.5527 38.4785 56.6035 38.498 56.6543 38.498C56.7051 38.498 56.7559 38.4766 56.793 38.4414C56.8301 38.4043 56.8496 38.3555 56.8496 38.3027C56.8496 38.25 56.8281 38.2012 56.793 38.1641C56.7559 38.127 56.707 38.1074 56.6543 38.1074Z" fill="#00D654"/>
</g>
<defs>
<clipPath id="clip0">
<rect width="11.1208" height="10" fill="white" transform="translate(13 2)"/>
</clipPath>
<clipPath id="clip1">
<rect width="9.125" height="10" fill="white" transform="translate(59)"/>
</clipPath>
<clipPath id="clip2">
<rect width="10.6026" height="10" fill="white" transform="translate(67 32)"/>
</clipPath>
<clipPath id="clip3">
<rect width="9.62891" height="10" fill="white" transform="translate(26 32)"/>
</clipPath>
<clipPath id="clip4">
<rect width="6.09375" height="10" fill="white" transform="translate(51 33)"/>
</clipPath>
</defs>
</svg>
