<svg width="61" height="52" viewBox="0 0 61 52" fill="none" xmlns="http://www.w3.org/2000/svg">
<g clip-path="url(#clip0)">
<path d="M31.9039 14.5958C32.5637 15.4125 33.5121 15.9569 34.7491 16.2156C35.1065 16.2972 35.4501 16.3244 35.8075 16.3244C36.7422 16.3244 37.6631 16.0522 38.474 15.5486C39.5874 14.8408 40.3571 13.7519 40.632 12.4725C40.9069 11.2203 40.7282 10.0633 40.096 9.02889C40.2884 8.86555 40.4121 8.68861 40.4671 8.48444C40.687 7.80389 40.1235 7.13694 39.6836 6.70139C38.5703 5.57167 37.1958 5 35.6151 5C35.3677 5 35.1202 5.01361 34.8728 5.04083C33.6908 5.17694 32.0551 5.78944 30.9967 7.12333C30.1445 8.19861 29.8284 9.5325 30.0346 11.0842C30.3507 13.2756 31.6427 14.3917 31.9039 14.5958ZM39.876 12.2956C39.8073 12.6358 39.6836 12.9489 39.5462 13.2483L38.5153 13.0306C38.0892 12.9353 37.6493 13.0169 37.2782 13.2483C36.9071 13.4797 36.6459 13.8472 36.5635 14.2692L36.4535 14.7456C36.4123 14.9497 36.536 15.1539 36.7422 15.1947C36.7697 15.1947 36.7971 15.2083 36.8246 15.2083C37.0033 15.2083 37.1683 15.0858 37.1958 14.9089L37.3057 14.4325C37.3607 14.2011 37.4981 14.0106 37.6906 13.8881C37.883 13.7656 38.1167 13.7247 38.3503 13.7656L39.1063 13.9289C38.9414 14.1331 38.7627 14.3236 38.5703 14.5006L38.0067 14.3781C37.8005 14.3372 37.5944 14.4597 37.5531 14.6639C37.5119 14.8272 37.5944 14.9906 37.7318 15.0722C36.8934 15.5078 35.9037 15.6711 34.9141 15.4533C33.9794 15.2492 33.2372 14.8681 32.7011 14.3236C33.1684 13.6431 33.0447 12.4725 33.0172 12.2139C33.0035 12.0914 32.9348 11.9961 32.8248 11.9281C32.5362 11.7647 32.385 11.4244 32.4537 11.0978C32.5362 10.7439 32.8523 10.4989 33.2097 10.4989C33.2647 10.4989 33.3196 10.4989 33.3746 10.5125C33.787 10.6078 34.0619 11.0161 33.9657 11.4244L33.5945 13.085C33.5671 13.1803 33.5945 13.2892 33.6495 13.3708C33.7045 13.4525 33.787 13.5206 33.8969 13.5342L34.9965 13.7656C35.189 13.8064 35.3951 13.6975 35.4501 13.4933C35.4914 13.3572 35.5051 13.1939 35.5189 12.9489C35.6426 11.615 35.9175 10.1586 37.773 9.81833C38.4603 9.69583 39.0101 9.54611 39.4225 9.36916C39.9585 10.2811 40.1097 11.2203 39.876 12.2956ZM31.6153 7.58611C32.5224 6.44278 33.9382 5.91194 34.969 5.78944C35.189 5.76222 35.4089 5.74861 35.6151 5.74861C36.9758 5.74861 38.1717 6.23861 39.1338 7.21861C39.5874 7.66778 39.7936 8.03528 39.7248 8.23944C39.6699 8.38917 39.3675 8.78389 37.6356 9.09694C35.0515 9.55972 34.8316 11.9008 34.7491 12.9081C34.7491 12.9217 34.7491 12.9353 34.7491 12.9489L34.433 12.8808L34.7216 11.5878C34.9003 10.7575 34.3643 9.94083 33.5396 9.76389C33.4296 9.73667 33.3196 9.72305 33.2097 9.72305C32.4812 9.72305 31.8489 10.2267 31.6977 10.9344C31.574 11.5197 31.7939 12.1186 32.2613 12.4725C32.3025 12.9081 32.2613 13.4389 32.1376 13.7519C31.739 13.3436 31.0242 12.4181 30.818 10.9617C30.6256 9.64139 30.9005 8.49805 31.6153 7.58611Z" fill="#00D654"/>
<path d="M29.8419 39.3137C30.0481 39.3137 30.2268 39.1367 30.2268 38.9325V33.3656C30.2268 33.1614 30.0481 32.9845 29.8419 32.9845C29.6357 32.9845 29.457 33.1614 29.457 33.3656V38.9325C29.457 39.1367 29.6357 39.3137 29.8419 39.3137Z" fill="#00D654"/>
<path d="M44.247 41.1647C44.5907 41.1647 44.9206 41.0286 45.1542 40.7836L45.3466 40.593C45.3604 40.593 45.3604 40.593 45.3741 40.593L53.0576 38.388C53.1951 38.3472 53.2913 38.2519 53.3188 38.1158C53.3463 37.9797 53.3188 37.8436 53.2226 37.7483L51.9443 36.4825C51.8756 36.4144 51.7656 36.3736 51.6556 36.3736L49.5389 36.4416L49.6351 36.3463C49.8825 36.1014 50.02 35.7883 50.02 35.448C50.02 35.1077 49.8825 34.7811 49.6351 34.5497L44.8518 29.813C44.6869 29.6497 44.467 29.5272 44.247 29.4727C44.4257 29.1325 44.5219 28.7514 44.5219 28.3566C44.5219 27.7169 44.2608 27.1044 43.8072 26.6552L37.6494 20.5983C37.6494 20.5711 37.6494 20.5439 37.6494 20.5166C37.4157 18.4069 35.9313 16.6647 34.0619 16.2564L33.3884 16.1066C31.2442 15.6439 29.1962 17.1411 28.4814 19.6591C27.7117 22.4222 26.0211 30.8883 26.0073 30.97C25.9661 31.1741 26.1035 31.3783 26.3097 31.4191L27.8766 31.7594V47.2488C27.8766 48.855 29.1962 50.148 30.8043 50.148C32.4125 50.148 33.7321 48.8413 33.7321 47.2488V33.0252L35.2578 33.3519C35.2852 33.3519 35.3127 33.3655 35.3402 33.3655C35.4227 33.3655 35.4914 33.3383 35.5601 33.2975C35.6426 33.243 35.7113 33.1477 35.7251 33.0389L36.811 26.56L38.859 28.5744L38.5841 34.1822L38.5291 34.2366C38.2817 34.4816 38.1442 34.7947 38.1442 35.135C38.1442 35.4752 38.2817 35.8019 38.5291 36.0333L43.3124 40.77C43.5735 41.0286 43.9034 41.1647 44.247 41.1647ZM51.5319 37.1494L52.2329 37.8436L46.4875 39.4905L48.7554 37.2447L51.5319 37.1494ZM49.0991 35.0805C49.1953 35.1758 49.2503 35.3119 49.2503 35.448C49.2503 35.5841 49.1953 35.7202 49.0991 35.8155L45.9239 38.9597L42.8725 35.938L43.9584 34.8627C44.1096 34.713 44.1096 34.468 43.9584 34.3183C43.8072 34.1686 43.5598 34.1686 43.4086 34.3183L42.309 35.4072L41.5805 34.6858L43.4498 32.8347C43.601 32.685 43.601 32.44 43.4498 32.2902C43.2986 32.1405 43.0512 32.1405 42.9 32.2902L41.0582 34.1414L40.3984 33.488L43.5735 30.3439C43.6698 30.2486 43.8072 30.1941 43.9447 30.1941C44.0821 30.1941 44.2196 30.2486 44.3158 30.3439L49.0991 35.0805ZM43.7522 28.343C43.7522 28.7786 43.5873 29.2005 43.2711 29.5136C42.955 29.8266 42.5427 30.0036 42.0891 30.0036C41.6492 30.0036 41.2369 29.8402 40.9207 29.5272L32.4125 21.1564C32.0964 20.8433 31.9177 20.435 31.9177 19.9994C31.9177 19.5639 32.0826 19.1419 32.3988 18.8289C32.7149 18.5158 33.1273 18.3389 33.5809 18.3389C34.0207 18.3389 34.4331 18.5022 34.7492 18.8152L43.2574 27.1861C43.5873 27.4991 43.7522 27.9075 43.7522 28.343ZM28.6601 46.2688H32.9761C32.9761 46.2688 32.9761 46.2688 32.9898 46.2688V47.2488C32.9898 48.433 32.0139 49.3858 30.8318 49.3858C29.636 49.3858 28.6739 48.4194 28.6739 47.2488V46.2688H28.6601ZM28.6601 45.5066V31.9364L32.9761 32.8619V43.7236H32.3026C32.0964 43.7236 31.9177 43.9005 31.9177 44.1047C31.9177 44.3088 32.0964 44.4858 32.3026 44.4858H32.9761V45.5066C32.9761 45.5066 32.9761 45.5066 32.9623 45.5066H28.6601ZM35.6426 29.01L34.4605 28.7514C34.2544 28.7105 34.0482 28.833 34.007 29.0372C33.9657 29.2414 34.0894 29.4455 34.2956 29.4864L35.5189 29.745L35.3677 30.6433L30.502 29.5952C30.2958 29.5544 30.0896 29.6769 30.0484 29.8811C30.0071 30.0852 30.1308 30.2894 30.337 30.3302L35.2303 31.3783L35.0378 32.4944L26.8595 30.7386C27.1894 29.078 28.5776 22.2589 29.2512 19.8497C29.8559 17.6991 31.4916 16.4605 33.251 16.828L33.9245 16.9777C35.1478 17.2364 36.2062 18.2708 36.6735 19.5775L35.3127 18.2436C34.8591 17.7944 34.2406 17.5494 33.5946 17.5494C32.9486 17.5494 32.3301 17.808 31.8627 18.2572C31.4091 18.72 31.148 19.3189 31.1617 19.9586C31.1617 20.5983 31.4229 21.2108 31.8765 21.66L36.1649 25.8794L35.6426 29.01ZM39.6149 29.3094L40.3847 30.058C40.8383 30.5072 41.4293 30.7522 42.0753 30.7522L39.4088 33.3927L39.6149 29.3094ZM38.9414 35.1486C38.9414 35.0125 38.9964 34.8764 39.0926 34.7811L39.8486 34.0325L45.3741 39.4905L44.6044 40.2527C44.5082 40.348 44.3707 40.4025 44.2333 40.4025C44.0958 40.4025 43.9584 40.348 43.8622 40.2527L39.0789 35.5161C38.9964 35.4208 38.9414 35.2847 38.9414 35.1486Z" fill="#00D654"/>
<path d="M62.5553 45.9695C61.6619 45.9695 61.1808 46.1464 60.7135 46.3097C60.2874 46.4595 59.8888 46.6092 59.1328 46.6092C58.5967 46.6092 58.2393 46.5411 57.937 46.4458V44.8261L60.3561 42.5667C60.5073 42.417 60.521 42.1856 60.3698 42.0222C60.2186 41.8725 59.985 41.8589 59.82 42.0086L57.937 43.7781V39.3545L59.284 38.1022C59.5451 38.2792 59.8338 38.3745 60.1087 38.3745C60.4523 38.3745 60.7684 38.2383 61.0296 37.9797C61.5657 37.4625 61.9505 35.5842 62.0192 35.2167C62.0467 35.0942 62.0055 34.9581 61.9093 34.8764C61.8131 34.7811 61.6894 34.7539 61.5657 34.7675C61.1945 34.8356 59.2977 35.2167 58.7754 35.7475C58.5142 36.0061 58.3768 36.3192 58.3768 36.6595C58.3768 36.9725 58.5005 37.2992 58.7204 37.585L57.937 38.3064V36.4008C57.937 36.1967 57.7583 36.0197 57.5521 36.0197C57.3459 36.0197 57.1672 36.1967 57.1672 36.4008V36.6731L56.5762 36.1286C56.425 35.9789 56.1776 35.9925 56.0264 36.1422C55.8752 36.292 55.8889 36.537 56.0401 36.6867L57.1535 37.7211V40.8381L56.1363 39.8853C55.9852 39.7356 55.7377 39.7492 55.5865 39.8989C55.4353 40.0486 55.4491 40.2936 55.6003 40.4433L57.1397 41.8861V44.4178L55.6965 43.0975C56.0814 42.4986 56.0539 41.8453 55.5728 41.3689C55.0505 40.8381 53.1537 40.457 52.7825 40.3889C52.6588 40.3617 52.5214 40.4025 52.4389 40.4978C52.3427 40.5931 52.3152 40.7156 52.329 40.8381C52.3977 41.2056 52.7825 43.0839 53.3186 43.6011C53.5798 43.8597 53.8959 43.9958 54.2395 43.9958C54.5557 43.9958 54.8718 43.8733 55.1742 43.6556L57.1397 45.4522V46.1736C56.7686 46.0647 56.3425 45.9695 55.6828 45.9695C54.7893 45.9695 54.3082 46.1464 53.8959 46.3097C53.511 46.4595 53.1399 46.5956 52.3839 46.5956C51.628 46.5956 51.2568 46.4595 50.872 46.3097C50.4596 46.1464 49.9785 45.9695 49.0851 45.9695C48.1917 45.9695 47.7106 46.1464 47.2983 46.3097C46.9134 46.4595 46.5423 46.5956 45.7863 46.5956C45.0303 46.5956 44.6592 46.4595 44.2743 46.3097C43.8482 46.1464 43.3809 45.9695 42.4737 45.9695C42.2676 45.9695 42.0889 46.1464 42.0889 46.3506C42.0889 46.5547 42.2676 46.7317 42.4737 46.7317C43.2297 46.7317 43.6008 46.8678 43.9857 47.0175C44.398 47.1808 44.8791 47.3578 45.7726 47.3578C46.666 47.3578 47.1471 47.1808 47.5594 47.0175C47.9443 46.8678 48.3154 46.7317 49.0714 46.7317C49.8273 46.7317 50.1985 46.8678 50.5833 47.0175C50.9957 47.1808 51.4768 47.3578 52.3702 47.3578C53.2636 47.3578 53.7447 47.1808 54.1571 47.0175C54.5419 46.8678 54.913 46.7317 55.669 46.7317C56.425 46.7317 56.8236 46.8678 57.2497 47.0311C57.717 47.1945 58.1981 47.3714 59.0915 47.3714C59.985 47.3714 60.466 47.1945 60.9334 47.0311C61.3595 46.8814 61.7581 46.7317 62.5141 46.7317C62.7202 46.7317 62.8989 46.5547 62.8989 46.3506C62.9402 46.1464 62.7615 45.9695 62.5553 45.9695ZM59.3115 36.2783C59.5039 36.0878 60.3149 35.8292 61.1396 35.6386C60.9471 36.4417 60.686 37.2447 60.4798 37.4353C60.3561 37.5442 60.2461 37.6122 60.1087 37.6122C59.9162 37.6122 59.6826 37.4897 59.4764 37.2856C59.2702 37.0814 59.1465 36.85 59.1465 36.6595C59.1465 36.5233 59.2015 36.4008 59.3115 36.2783ZM54.2533 43.2336C54.1158 43.2336 53.9921 43.1792 53.8822 43.0567C53.6897 42.8661 53.4286 42.0631 53.2361 41.2464C54.0471 41.437 54.8581 41.6956 55.0505 41.8997C55.4353 42.2808 55.0642 42.73 54.8993 42.907C54.6794 43.1111 54.4457 43.2336 54.2533 43.2336Z" fill="#00D654"/>
<path d="M30.5844 20.6119C30.3782 20.5711 30.172 20.7072 30.1308 20.9114L28.9487 26.8322C28.9075 27.0364 29.0449 27.2405 29.2511 27.2814C29.2786 27.2814 29.3061 27.295 29.3198 27.295C29.4985 27.295 29.6635 27.1725 29.691 26.9819L30.8868 21.0611C30.928 20.8569 30.7906 20.6528 30.5844 20.6119Z" fill="#00D654"/>
<path d="M21.2381 34.9508C21.0318 34.9508 20.8599 35.1211 20.8599 35.3254C20.8599 35.5297 21.0318 35.7 21.2381 35.7C21.4444 35.7 21.6164 35.5297 21.6164 35.3254C21.6164 35.1211 21.4444 34.9508 21.2381 34.9508Z" fill="#00D654" stroke="#00D654" stroke-width="0.09"/>
<path d="M21.3414 48.282C21.1351 48.1458 20.9116 48.0777 20.774 48.0266V47.3626C20.774 47.2094 20.6537 47.1072 20.5161 47.1072C20.3614 47.1072 20.2582 47.2264 20.2582 47.3626V48.2309C20.2582 48.3501 20.3442 48.4522 20.4645 48.4863C20.4645 48.4863 20.7912 48.5544 21.1007 48.7417C21.3758 48.9119 21.5477 49.1163 21.6337 49.3546H19.9659C19.7424 49.3546 19.5361 49.2184 19.4501 48.9971L17.9027 44.6725C17.8511 44.5363 17.6964 44.4682 17.5588 44.5193C17.4213 44.5703 17.3525 44.7236 17.3869 44.8598C17.49 45.1833 17.5588 45.5408 17.5588 45.9324C17.5588 46.6986 17.1806 47.2434 16.3897 47.5839C15.7191 47.8734 14.9282 47.9244 14.6187 47.9244C14.4812 47.9244 14.3608 48.0436 14.3608 48.1969C14.3608 48.3331 14.4812 48.4522 14.6187 48.4522H16.6991C17.1118 48.4522 17.4213 48.5544 17.6276 48.7757C17.7995 48.963 17.8683 49.2014 17.9027 49.3716H12.2288C11.799 49.3716 11.4035 49.2014 11.0597 48.8609C11.0081 48.8098 10.9565 48.7928 10.8877 48.7928C9.16839 48.6736 7.07078 47.1072 6.58936 44.4511C6.55498 44.3149 6.41743 44.2128 6.27988 44.2468C6.14233 44.2809 6.03917 44.4171 6.07356 44.5533C6.31427 45.8643 6.93323 47.0221 7.86168 47.9074C8.70417 48.7076 9.73578 49.2184 10.7502 49.3035C11.18 49.6951 11.6786 49.8994 12.2288 49.8994H18.1778C18.3153 49.8994 18.4357 49.7973 18.4357 49.6611C18.4357 49.627 18.4873 48.929 18.0059 48.4352C17.7308 48.1287 17.3353 47.9755 16.8367 47.9415C17.4213 47.618 17.8167 47.1583 17.9715 46.5964L18.8999 49.2014C19.0547 49.627 19.4501 49.9165 19.9143 49.9165H21.8916C22.0463 49.9165 22.1495 49.7973 22.1495 49.6611C22.1667 49.0822 21.8916 48.6055 21.3414 48.282Z" fill="#00D654" stroke="#00D654" stroke-width="0.09"/>
<path d="M6.50373 43.4296C6.43495 41.3865 7.32901 40.1947 8.10272 39.5647C9.08275 38.7645 10.1487 38.5602 10.1831 38.5432C10.3551 38.5091 10.5098 38.6283 10.5442 38.7816C10.5786 38.9518 10.4582 39.105 10.3035 39.1391C10.2691 39.1391 9.30627 39.3434 8.46379 40.0585C7.34621 40.9949 6.91637 42.374 7.19147 44.1277C7.43218 45.626 8.25746 46.6986 9.66733 47.2945C9.82207 47.3626 9.99401 47.4648 10.1487 47.3286C10.2175 47.2604 10.2519 47.1753 10.2347 47.0732C9.71891 44.5193 11.1632 42.6635 12.7278 42.0165C13.3639 41.7611 13.9313 41.4546 14.4127 41.1141C14.5331 41.029 14.5675 40.8757 14.4815 40.7566C14.3955 40.6374 14.2408 40.6033 14.1204 40.6885C13.6734 40.9949 13.1404 41.2844 12.5386 41.5397C10.2519 42.4932 9.46101 44.7917 9.66733 46.6986C8.58414 46.1538 7.93079 45.2684 7.74166 44.0426C7.50095 42.4591 7.86201 41.2503 8.82485 40.4501C9.56417 39.8372 10.4238 39.6499 10.4238 39.6499C10.8709 39.5647 11.1804 39.1391 11.0944 38.6794C11.0084 38.2367 10.5786 37.9303 10.1144 38.0154C10.0628 38.0324 8.87643 38.2537 7.79324 39.1391C6.93356 39.8372 5.91915 41.1652 6.00511 43.4296C6.00511 43.5829 6.14266 43.685 6.28021 43.685C6.40057 43.702 6.50373 43.5658 6.50373 43.4296Z" fill="#00D654" stroke="#00D654" stroke-width="0.09"/>
<path d="M23.353 35.9893C23.353 35.9723 23.353 35.9553 23.353 35.9383C23.3358 35.8531 23.3014 35.768 23.2498 35.6488C23.2498 35.6488 23.2498 35.6488 23.2498 35.6318C23.1123 35.3764 22.2182 34.2357 22.1666 34.1676C21.9431 33.8611 21.221 33.7079 20.7568 33.6398V32.2607C20.7568 32.1074 20.602 31.9712 20.4473 32.0053C20.3785 32.0223 18.7451 32.3288 18.1949 33.8781C17.8683 34.0314 16.9742 34.5592 16.6647 35.8872C16.6131 36.0915 16.5787 36.3299 16.5272 36.5682C16.338 37.6068 16.0973 38.9178 14.8938 40.0926C14.7906 40.1947 14.7906 40.365 14.8938 40.4671C14.9969 40.5693 15.1689 40.5693 15.272 40.4671C15.7535 39.9904 16.0973 39.5137 16.3552 39.0199C17.9198 40.0926 19.4844 40.2969 20.4817 40.2969C20.5504 40.2969 20.6192 40.2969 20.688 40.2969C20.7568 40.4161 20.8083 40.5182 20.8599 40.5863L20.8943 40.6374C20.9459 40.7225 22.0807 42.7486 20.3441 44.8598C20.3097 44.9109 20.2925 44.962 20.2925 45.0301V46.3411C20.2925 46.4943 20.4129 46.5965 20.5504 46.5965C20.7052 46.5965 20.8083 46.4773 20.8083 46.3411V45.1322C21.5305 44.2299 21.8743 43.2253 21.8228 42.1697C21.7884 41.1993 21.4101 40.5182 21.3413 40.399L21.3069 40.348C21.1522 40.0926 20.774 39.4286 20.8599 38.9859C20.8599 38.9518 20.8771 38.9008 20.8943 38.8667C20.9803 38.6965 21.1866 38.5773 21.5305 38.5262C22.3042 38.407 22.8716 37.9643 23.1638 37.2663C23.2498 36.9258 23.3702 36.2447 23.353 35.9893ZM16.5444 38.5092C16.6303 38.2878 16.7163 38.0665 16.7679 37.8452C17.2837 38.3049 18.4012 39.037 20.2925 39.1391C20.3097 39.3434 20.3613 39.5477 20.4301 39.7521C19.4844 39.7521 18.0058 39.5477 16.5444 38.5092ZM21.4273 37.9643C20.9115 38.0495 20.5676 38.2538 20.3957 38.6113V38.6283C19.1062 38.5602 18.2293 38.1857 17.7135 37.8792C17.3009 37.6238 17.043 37.3855 16.9226 37.2492C16.9742 37.0279 17.0086 36.8406 17.043 36.6363C17.0774 36.398 17.1289 36.1766 17.1633 35.9893C17.4728 34.6783 18.4528 34.3208 18.4872 34.3038C18.5732 34.2697 18.6248 34.2186 18.6592 34.1335C18.9514 33.163 19.7595 32.7544 20.2238 32.6012V33.8611C20.2238 33.9973 20.3269 34.1165 20.4645 34.1165C21.049 34.1676 21.6508 34.3378 21.7368 34.44C21.8056 34.5251 21.8915 34.6613 22.0291 34.8145C22.1838 35.0189 22.4933 35.4105 22.6824 35.6999C22.6308 35.785 22.5965 35.8702 22.5965 35.9723C22.5965 36.1426 22.6824 36.2958 22.8028 36.3809C22.7168 37.0279 22.4245 37.8111 21.4273 37.9643Z" fill="#00D654" stroke="#00D654" stroke-width="0.09"/>
</g>
<defs>
<clipPath id="clip0">
<rect width="59.2222" height="52" fill="white" transform="translate(0.888672)"/>
</clipPath>
</defs>
</svg>
