<svg width="94" height="57" viewBox="0 0 94 57" fill="none" xmlns="http://www.w3.org/2000/svg">
<g clip-path="url(#clip0)">
<path d="M51.1462 55.0999H40.6709V56.9999H51.1462V55.0999Z" fill="#00D654"/>
<path d="M90.1911 55.0999H79.7158V56.9999H90.1911V55.0999Z" fill="#00D654"/>
<path d="M90.5678 40.3749L87.3736 11.7562L93.7223 5.42286C94.0992 5.04682 94.0992 4.45307 93.7223 4.07703L89.9131 0.277026C89.5361 -0.0990153 88.9409 -0.0990153 88.564 0.277026L77.1364 11.677C76.9578 11.8552 76.8586 12.0927 76.8586 12.3499H55.908C55.3723 12.3499 54.9557 12.7656 54.9557 13.2999V16.1499C54.9557 16.6843 55.3723 17.0999 55.908 17.0999H80.7869L83.8422 40.6322L76.7197 41.8197C76.2634 41.8989 75.9262 42.2947 75.9262 42.7499V43.7395L38.7468 45.5999C38.2309 45.6197 37.8341 46.0354 37.8341 46.5499V48.4499C37.2985 48.4499 36.8818 48.8656 36.8818 49.3999V53.1999C36.8818 53.7343 37.2985 54.1499 37.8341 54.1499H93.0477C93.5834 54.1499 94 53.7343 94 53.1999V45.5999C94 43.3239 92.6509 41.2854 90.5678 40.3749ZM60.6695 15.1999H56.8603V14.2499H60.6695V15.1999ZM62.5741 15.1999V14.2499H78.3664L79.3187 15.1999H62.5741ZM79.4378 12.627L79.16 12.3499L89.2385 2.29578L91.6986 4.74994L85.7071 10.727L81.6201 14.8041L79.4378 12.627ZM82.6319 16.4864L85.6674 13.4583L88.6037 39.8999C88.5045 39.8999 88.4053 39.8801 88.2862 39.8801C88.2267 39.8801 88.187 39.8801 88.1275 39.8999L85.7071 40.2958L82.6319 16.4864ZM39.7189 47.4604L75.9063 45.6593V48.4697H39.7189V47.4604ZM92.0954 52.2499H38.7666V50.3499H92.0954V52.2499ZM92.0954 48.4499H77.8109V43.5614L88.3656 41.7999C90.4487 41.8395 92.0954 43.5218 92.0954 45.5999V48.4499Z" fill="#00D654"/>
<path d="M80.9486 4.07528L77.1328 7.88184L78.4796 9.22533L82.2953 5.41877L80.9486 4.07528Z" fill="#00D654"/>
<path d="M1.9046 25.175H0V27.075H1.9046V25.175Z" fill="#00D654"/>
<path d="M10.4752 25.175H3.80908V27.075H10.4752V25.175Z" fill="#00D654"/>
<path d="M7.61847 30.875H5.71387V32.775H7.61847V30.875Z" fill="#00D654"/>
<path d="M17.1414 30.875H9.52295V32.775H17.1414V30.875Z" fill="#00D654"/>
<path d="M36.1873 30.875H19.0459V32.775H36.1873V30.875Z" fill="#00D654"/>
<path d="M43.0717 34.2989H43.1312C43.032 34.952 43.0122 35.6052 43.0916 36.2583L43.3098 37.9208L38.4888 44.1552C38.1713 44.551 38.2507 45.1249 38.6475 45.4416L40.8299 47.1239C41.187 47.401 41.7028 47.3812 42.0401 47.0447L46.5635 42.651L48.5078 41.9979C49.4402 41.6812 50.1346 40.8895 50.333 39.9197L50.8092 37.4656L53.2098 36.6541L58.7053 37.7229L60.5901 40.0979L59.8759 43.7197C59.7965 44.1749 60.0346 44.6104 60.4711 44.7687L63.2288 45.7187C63.7049 45.877 64.2406 45.6395 64.3993 45.1447L66.0658 40.3947C66.3039 39.702 66.2642 38.9302 65.9269 38.2572L64.4985 35.4072C65.4706 34.576 66.165 33.4677 66.4825 32.2406L66.6015 31.8052L68.5458 28.302L72.4343 28.2229C72.9105 28.2229 73.3073 27.8468 73.3271 27.3718L73.5454 24.0666C73.5652 23.651 73.3073 23.2552 72.9105 23.1364L70.8472 22.4635L68.9624 20.0885C68.764 19.8312 68.4466 19.7124 68.1291 19.752L64.2604 20.2468C64.0223 20.2864 63.8041 20.4052 63.6454 20.6031L61.1654 23.8093C60.6893 24.4427 60.0346 24.9177 59.3005 25.2145L58.3482 25.5906C56.7015 26.2437 54.9358 26.5604 53.1502 26.5406C51.8805 26.5208 50.6306 26.7583 49.4601 27.2135C48.2499 27.6885 47.119 28.3812 46.1667 29.252C46.0675 29.2124 45.9683 29.1927 45.8691 29.1927L42.6551 29.1531C41.8814 29.1333 41.1076 28.9552 40.3934 28.6187L37.4373 27.1541C36.981 26.9364 36.4255 27.1145 36.2072 27.5697C36.1279 27.7281 36.0882 27.9062 36.1279 28.1041V28.1635C36.3659 30.0239 37.3381 31.7062 38.8261 32.8541C40.0561 33.7447 41.5441 34.2593 43.0717 34.2989ZM64.5183 22.5031L64.1811 23.7104C64.062 24.1854 63.566 24.4624 63.0899 24.3437L64.5183 22.5031ZM50.1346 28.8958C51.0869 28.5197 52.0987 28.3416 53.1304 28.3416C55.154 28.3614 57.1578 28.0052 59.0228 27.2729L59.9751 26.8968C60.6496 26.6197 61.2845 26.2437 61.84 25.7489C62.4947 26.1645 63.2883 26.3031 64.0422 26.0854C64.9746 25.8281 65.6889 25.0958 65.9468 24.1656L66.6015 21.7708L67.8514 21.6124L69.5973 23.8093C69.7163 23.9479 69.8552 24.0468 70.0337 24.1062L71.6804 24.6406L71.5614 26.402L67.9903 26.4614C67.653 26.4614 67.3554 26.6395 67.1967 26.9364L64.935 30.9937C64.8953 31.0531 64.8754 31.1322 64.8556 31.2114L64.7167 31.7656C64.439 32.8343 63.7843 33.7447 62.8518 34.3385C62.8518 34.3385 62.8518 34.3385 62.832 34.3385C62.4352 34.5958 62.2963 35.0906 62.5145 35.526L64.2803 39.0687C64.3993 39.2864 64.3993 39.5437 64.3199 39.7812L62.9708 43.6802L61.84 43.2843L62.4749 40.0385C62.5344 39.7812 62.455 39.5041 62.2963 39.2864L59.9354 36.3177C59.7965 36.1395 59.5981 36.0208 59.3799 35.9812L53.309 34.7937C53.1502 34.7541 52.9915 34.7739 52.8328 34.8333L49.6783 35.902C49.3609 36.001 49.1228 36.2781 49.0633 36.5947L48.4681 39.5833C48.4086 39.8999 48.1705 40.177 47.8531 40.276L45.7104 40.9885C45.5715 41.0281 45.4525 41.1072 45.3533 41.2062L41.2663 45.1843L40.4331 44.551L44.9367 38.7322C45.0954 38.5343 45.1549 38.2968 45.1152 38.0593L44.8573 36.0208C44.7184 35.0312 44.9168 34.002 45.393 33.1312L45.4525 33.0322C46.5238 31.1322 48.1705 29.6874 50.1346 28.8958ZM39.5998 30.2416C40.5521 30.7166 41.5838 30.9541 42.6551 30.9739L44.6192 30.9937C44.3613 31.3499 44.1232 31.7458 43.905 32.1218L43.8455 32.2208C43.8058 32.2999 43.7661 32.3593 43.7264 32.4385H43.0916C41.2068 32.4187 39.4808 31.3697 38.5681 29.727L39.5998 30.2416Z" fill="#00D654"/>
<path d="M68.3331 24.1612C68.6073 23.8062 68.5412 23.2967 68.1853 23.0231C67.8295 22.7495 67.3187 22.8154 67.0444 23.1704C66.7702 23.5254 66.8363 24.035 67.1922 24.3086C67.548 24.5822 68.0588 24.5162 68.3331 24.1612Z" fill="#00D654"/>
</g>
<defs>
<clipPath id="clip0">
<rect width="94" height="57" fill="white"/>
</clipPath>
</defs>
</svg>
