<svg width="26" height="27" viewBox="0 0 26 27" fill="none" xmlns="http://www.w3.org/2000/svg">
<path d="M23.2114 4.29122L20.9528 3.15659C20.905 3.13528 20.8518 3.12995 20.804 3.15126L18.0405 4.19001C17.8439 4.26458 17.6739 4.40841 17.5623 4.58953L16.781 5.89462C16.6163 6.17162 16.6004 6.51254 16.7438 6.80019L17.4985 8.31836C17.5144 8.35032 17.5357 8.37163 17.5623 8.39294C17.5516 8.57938 17.6048 8.76582 17.7111 8.92563C17.8811 9.18132 18.1575 9.31982 18.4391 9.31982C18.5932 9.31982 18.7474 9.27721 18.8908 9.19198L20.1822 8.41425C20.3842 8.3663 21.3886 8.06267 22.1539 6.82683C22.9563 5.52706 23.2858 4.56289 23.3018 4.5256C23.339 4.42972 23.2965 4.33383 23.2114 4.29122ZM21.8403 6.6244C21.0963 7.82829 20.0919 8.04669 20.0813 8.04669C20.06 8.05202 20.0387 8.05734 20.0228 8.068L18.7048 8.86171C18.4763 9.00021 18.1787 8.93096 18.0299 8.70723C17.9555 8.59536 17.9289 8.45686 17.9555 8.32369C17.9821 8.19052 18.0618 8.07865 18.1787 8.00407C19.1884 7.35952 19.3745 7.28494 19.3691 7.28494C19.4754 7.28494 19.5551 7.21036 19.5551 7.10383C19.5764 6.98663 19.9165 6.43264 20.2513 6.09704C20.3045 6.04377 20.3204 5.96387 20.2938 5.88929C20.2673 5.82004 20.1982 5.7721 20.1185 5.7721C19.5339 5.7721 19.114 5.44183 19.1087 5.4365C19.0715 5.40454 19.0237 5.38856 18.9759 5.38856C18.9546 5.38856 18.928 5.39389 18.9068 5.40454C18.843 5.4365 18.8005 5.48977 18.8005 5.56435C18.7367 5.72416 18.014 6.13433 17.8545 6.15564C17.7748 6.15564 17.7057 6.20358 17.6792 6.27816C17.6526 6.35273 17.6685 6.43264 17.727 6.48591C17.7323 6.48591 18.0405 6.78421 18.0405 7.10383C18.0405 7.21036 18.1203 7.29027 18.2265 7.29027C18.2584 7.2956 18.3169 7.35952 18.37 7.43942C18.2531 7.514 18.1203 7.59923 17.9715 7.69511C17.8758 7.75904 17.7908 7.83361 17.727 7.9295L17.084 6.63506C16.9989 6.45927 17.0042 6.25685 17.1052 6.09171L17.8864 4.78662C17.9502 4.67476 18.0512 4.59485 18.1734 4.54691L20.8625 3.5348L22.8979 4.55224C22.765 4.87185 22.4355 5.65491 21.8403 6.6244ZM18.4126 6.95467C18.3807 6.74692 18.2797 6.56581 18.184 6.43264C18.471 6.31012 18.859 6.08639 19.0503 5.85733C19.1991 5.94789 19.4382 6.05975 19.7305 6.11835C19.5126 6.39002 19.2841 6.73094 19.2044 6.95467C19.114 6.99729 18.9599 7.07719 18.6889 7.24233C18.6304 7.13579 18.5295 7.0186 18.4126 6.95467Z" fill="#00D654" stroke="#00D654" stroke-width="0.3"/>
<path d="M18.2319 8.98419C18.1256 8.98419 18.0459 9.06942 18.0459 9.17063V10.1135C18.0459 10.22 18.1309 10.2999 18.2319 10.2999C18.3382 10.2999 18.4179 10.2147 18.4179 10.1135V9.17063C18.4232 9.06942 18.3382 8.98419 18.2319 8.98419Z" fill="#00D654" stroke="#00D654" stroke-width="0.3"/>
<path d="M23.9554 3.15125L21.3195 2.02195C21.2398 1.98999 21.1495 2.01129 21.0963 2.07522L20.347 3.01808C20.3098 3.06069 20.2992 3.11929 20.3098 3.17789C20.3204 3.23116 20.3576 3.2791 20.4108 3.30573L23.254 4.72802C23.3337 4.77063 23.4187 4.78661 23.5037 4.78661C23.6472 4.78661 23.7907 4.72802 23.897 4.62681C24.0086 4.52027 24.067 4.37644 24.067 4.22196V3.32704C24.067 3.25246 24.0245 3.18321 23.9554 3.15125ZM23.695 4.22729C23.695 4.29121 23.6632 4.33915 23.6366 4.36046C23.5781 4.41373 23.4931 4.42971 23.4187 4.39242L20.7828 3.07135L21.2983 2.42147L23.6897 3.44956L23.695 4.22729Z" fill="#00D654" stroke="#00D654" stroke-width="0.3"/>
<path d="M19.1198 8.77108C19.056 8.71248 18.9657 8.70716 18.8966 8.74977L18.6999 8.86696C18.4767 9.00014 18.1685 8.93089 18.025 8.71248C18.0038 8.68585 17.9931 8.65389 17.9772 8.62193C17.94 8.52604 17.8284 8.4781 17.7327 8.52071C17.2385 8.72314 16.9143 9.20256 16.9143 9.74058C16.9143 10.4704 17.5042 11.0617 18.2323 11.0617C18.9603 11.0617 19.5502 10.4704 19.5502 9.74058C19.5502 9.37302 19.3961 9.02145 19.1198 8.77108ZM18.2323 10.6835C17.7115 10.6835 17.2916 10.2626 17.2916 9.74058C17.2916 9.41564 17.4564 9.11733 17.7274 8.94687C17.9825 9.30377 18.5086 9.41564 18.8912 9.18658L18.9603 9.14397C19.0985 9.31443 19.1729 9.51685 19.1729 9.74058C19.1782 10.2626 18.7531 10.6835 18.2323 10.6835Z" fill="#00D654" stroke="#00D654" stroke-width="0.3"/>
<path d="M14.1237 12.926C13.9536 12.926 13.8154 13.0645 13.8154 13.235C13.8154 13.4054 13.9536 13.5439 14.1237 13.5439C14.2937 13.5439 14.4319 13.4054 14.4319 13.235C14.4319 13.0645 14.2937 12.926 14.1237 12.926Z" fill="#00D654" stroke="#00D654" stroke-width="0.3"/>
<path d="M14.2086 23.7023C14.0385 23.5958 13.8685 23.5319 13.7516 23.4893V22.9512C13.7516 22.834 13.6559 22.7382 13.539 22.7382C13.4221 22.7382 13.3264 22.834 13.3264 22.9512V23.6491C13.3264 23.7503 13.3955 23.8355 13.4912 23.8568C13.4912 23.8568 13.7462 23.9154 13.996 24.0699C14.2192 24.2084 14.3574 24.3735 14.4159 24.5653H13.082C12.896 24.5653 12.7312 24.4481 12.6727 24.2723L11.4398 20.7779C11.4026 20.666 11.2804 20.6074 11.1688 20.65C11.0572 20.6873 10.9987 20.8098 11.0359 20.9164C11.1263 21.1774 11.1688 21.465 11.1688 21.7793C11.1688 22.3972 10.8659 22.834 10.2388 23.1057C9.69671 23.3454 9.07493 23.3827 8.83047 23.388C8.71355 23.388 8.62321 23.4839 8.62321 23.6011C8.62321 23.7183 8.71886 23.8089 8.83578 23.8089H10.4992C10.8287 23.8089 11.0838 23.8994 11.2485 24.0699C11.392 24.219 11.4451 24.4108 11.4717 24.5546H6.94387C6.59844 24.5546 6.27958 24.4161 6.00854 24.1445C5.97134 24.1072 5.92351 24.0859 5.87568 24.0805C4.49927 23.9793 2.83056 22.7222 2.44792 20.5808C2.42667 20.4636 2.31507 20.389 2.20346 20.4103C2.08655 20.4316 2.01215 20.5435 2.0334 20.6553C2.22472 21.7101 2.71896 22.6476 3.46297 23.3667C4.13789 24.0219 4.9563 24.4215 5.77471 24.496C6.11483 24.8103 6.51872 24.9755 6.9545 24.9755H11.7055C11.8171 24.9755 11.9075 24.8902 11.9181 24.7784C11.9181 24.7571 11.95 24.1924 11.5727 23.7822C11.3495 23.5425 11.0306 23.4093 10.6373 23.3827C11.1103 23.1217 11.4132 22.7541 11.5408 22.2907L12.2848 24.4002C12.407 24.7411 12.7312 24.9755 13.0926 24.9755H14.6709C14.7879 24.9755 14.8835 24.8796 14.8835 24.7624C14.8676 24.3362 14.6444 23.9633 14.2086 23.7023Z" fill="#00D654" stroke="#00D654" stroke-width="0.3"/>
<path d="M2.35806 19.771C2.29429 18.1143 3.01704 17.1555 3.62819 16.6494C4.4094 15.9996 5.2597 15.8344 5.29159 15.8291C5.42445 15.8025 5.55199 15.893 5.57856 16.0262C5.60513 16.1594 5.51479 16.2872 5.38193 16.3138C5.35004 16.3192 4.59009 16.4736 3.90985 17.0543C3.01704 17.8107 2.67692 18.9187 2.90013 20.3516C3.08613 21.5715 3.75042 22.4291 4.87175 22.9139C4.99398 22.9671 5.13747 23.0471 5.25439 22.9458C5.31284 22.8979 5.33942 22.818 5.32347 22.7434C4.91958 20.6766 6.06748 19.1744 7.31104 18.6524C7.81591 18.4393 8.26763 18.1942 8.65557 17.9279C8.75123 17.8586 8.7778 17.7308 8.70872 17.6349C8.63963 17.539 8.51209 17.5124 8.41643 17.5816C8.05505 17.832 7.6299 18.0664 7.15161 18.2635C5.31816 19.0306 4.69638 20.8843 4.85581 22.4345C3.98957 22.003 3.47408 21.2785 3.31996 20.2824C3.12333 19.0093 3.41562 18.0291 4.1862 17.3739C4.77609 16.8732 5.45633 16.7293 5.46165 16.7293C5.82302 16.6601 6.06217 16.3138 5.99308 15.9463C5.92399 15.5841 5.57856 15.3443 5.21719 15.4136C5.17467 15.4189 4.2234 15.6054 3.36248 16.3245C2.67692 16.8945 1.86914 17.9599 1.93823 19.787C1.94354 19.9042 2.0392 19.9947 2.15612 19.9894C2.27303 19.9894 2.36338 19.8882 2.35806 19.771Z" fill="#00D654" stroke="#00D654" stroke-width="0.3"/>
<path d="M15.8137 13.757C15.8137 13.741 15.8137 13.7251 15.8084 13.7144C15.7977 13.6505 15.7712 13.5759 15.7233 13.48L15.718 13.4747C15.6064 13.2723 14.8996 12.3454 14.8571 12.2868C14.6817 12.0311 14.1025 11.9139 13.7251 11.866V10.7526C13.7251 10.6248 13.6029 10.5236 13.4754 10.5449C13.4169 10.5556 12.1096 10.8059 11.6791 12.0524C11.4134 12.1803 10.7066 12.6064 10.4515 13.6718C10.409 13.8423 10.3771 14.0234 10.3452 14.2205C10.1964 15.0674 10.0104 16.1168 9.04321 17.065C8.95818 17.1449 8.95818 17.2834 9.0379 17.3633C9.11761 17.4486 9.25579 17.4486 9.3355 17.3687C9.72345 16.9905 9.99448 16.5963 10.1964 16.2021C11.44 17.065 12.6942 17.2355 13.486 17.2355C13.5445 17.2355 13.6029 17.2355 13.6561 17.2302C13.7039 17.3261 13.7517 17.406 13.7889 17.4699L13.8155 17.5125C13.8527 17.5817 14.7614 19.2171 13.3797 20.9164C13.3478 20.9537 13.3319 21.0016 13.3319 21.0496V22.1043C13.3319 22.2215 13.4275 22.3174 13.5445 22.3174C13.6614 22.3174 13.757 22.2215 13.757 22.1043V21.1241C14.331 20.3944 14.602 19.59 14.5648 18.7324C14.5329 17.944 14.2406 17.4006 14.1822 17.2994L14.1556 17.2568C14.0334 17.0437 13.7251 16.511 13.7942 16.1595V16.1541C13.7995 16.1222 13.8102 16.0902 13.8261 16.0583C13.8952 15.9144 14.0653 15.8185 14.3363 15.7759C14.9528 15.68 15.3992 15.3231 15.633 14.7532C15.7287 14.5241 15.8296 13.9648 15.8137 13.757ZM10.3718 15.8026C10.4462 15.6214 10.5047 15.4403 10.5525 15.2645C10.967 15.6374 11.8492 16.2234 13.3638 16.3086C13.3691 16.4738 13.4116 16.6442 13.4701 16.804C12.7207 16.804 11.541 16.6336 10.3718 15.8026ZM14.2725 15.3604C13.858 15.4243 13.5817 15.6001 13.4488 15.8771C13.4488 15.8825 13.4435 15.8878 13.4435 15.8931C12.4178 15.8452 11.7163 15.5415 11.3018 15.2912C10.967 15.0888 10.7651 14.8917 10.6747 14.7851C10.7119 14.6147 10.7385 14.4495 10.7651 14.295C10.7969 14.1086 10.8288 13.9275 10.866 13.773C11.1211 12.713 11.8917 12.4253 11.9236 12.4146C11.9874 12.3933 12.0405 12.3401 12.0564 12.2761C12.2903 11.4984 12.9386 11.1628 13.3053 11.035V12.0577C13.3053 12.1643 13.3903 12.2602 13.4966 12.2708C13.959 12.3188 14.4426 12.4413 14.517 12.5372C14.5648 12.6064 14.6445 12.7076 14.7455 12.8408C14.873 13.0059 15.1228 13.3202 15.2716 13.5493C15.2291 13.6132 15.2079 13.6878 15.2079 13.7677C15.2079 13.9009 15.2716 14.0234 15.3779 14.0926C15.3088 14.604 15.0644 15.2326 14.2725 15.3604Z" fill="#00D654" stroke="#00D654" stroke-width="0.3"/>
</svg>
