<svg width="31" height="31" viewBox="0 0 31 31" fill="none" xmlns="http://www.w3.org/2000/svg">
<g clip-path="url(#clip0)">
<path d="M30.5839 14.0513L29.323 12.1454C29.1845 11.9361 28.9025 11.8787 28.6934 12.0171C28.484 12.1556 28.4266 12.4375 28.5651 12.6468L29.826 14.5527C30.0696 14.921 30.1505 15.3786 30.0479 15.8082L29.1638 19.5106C29.1569 19.5395 29.1448 19.5667 29.1277 19.5914L27.5741 21.8478C26.8131 22.953 25.6111 23.6648 24.2761 23.8005C23.1708 23.913 22.0678 23.6983 21.0856 23.1798L20.5329 22.8881C20.4277 22.8325 20.3514 22.7342 20.3236 22.6183L19.9302 20.9731C19.8304 20.5557 19.5328 20.2115 19.1342 20.0524C18.7357 19.8933 18.2828 19.938 17.923 20.1718C17.8448 20.2227 17.7429 20.2238 17.6636 20.1748L14.4221 18.1709C14.1687 18.0143 13.8687 17.9621 13.5774 18.0242L10.7112 18.634C10.5441 18.6695 10.3843 18.7433 10.2489 18.8475L8.71125 20.0303C8.67491 20.0582 8.63171 20.0753 8.58615 20.0795L6.84402 20.2428C6.64083 20.2618 6.44528 20.3176 6.26268 20.4085C6.03805 20.5204 5.94663 20.7931 6.05847 21.0178C6.17042 21.2424 6.44328 21.3338 6.66773 21.2219C6.74976 21.1812 6.8376 21.1561 6.9289 21.1475L8.67109 20.9842C8.88748 20.9639 9.09304 20.8831 9.26539 20.7506L10.803 19.5678C10.8315 19.5458 10.8652 19.5303 10.9003 19.5228L13.7666 18.9129C13.8281 18.8999 13.8911 18.9109 13.9444 18.9438L17.186 20.9477C17.5629 21.1808 18.0466 21.1754 18.4184 20.9338C18.5327 20.8595 18.6708 20.8459 18.7975 20.8964C18.9241 20.947 19.0149 21.052 19.0466 21.1846L19.4399 22.8297C19.5285 23.1999 19.7723 23.5142 20.1089 23.6918L20.6616 23.9835C21.6055 24.4816 22.6455 24.7383 23.7033 24.7383C23.9244 24.7383 24.1463 24.7271 24.3682 24.7045C25.969 24.5417 27.4103 23.6883 28.3228 22.3631L29.8763 20.1068C29.9571 19.9894 30.0149 19.8596 30.0478 19.7213L30.9319 16.0192C31.0926 15.3459 30.9658 14.6286 30.5839 14.0513Z" fill="#00D654"/>
<path d="M2.07787 11.6118L4.13878 10.5982C5.11801 10.1166 5.95325 9.38068 6.55427 8.47003L6.73874 8.19051C6.96259 7.85131 7.22618 7.53829 7.52224 7.26004L9.93295 4.99394C10.0244 4.90803 10.1687 4.90676 10.2616 4.99103L10.7776 5.45926C10.9899 5.65179 11.2645 5.75781 11.551 5.75781C12.0472 5.75781 12.4861 5.44151 12.6429 4.97086L12.9244 4.1263C12.9506 4.0476 13.0142 3.98847 13.0947 3.96806L14.0726 3.71992C14.5535 3.59791 14.9473 3.26901 15.153 2.81744L15.2379 2.63091C15.3542 2.37556 15.6107 2.21054 15.8913 2.21054H17.1766C17.5593 2.21054 17.8744 2.50993 17.8937 2.89232C17.8993 3.00148 17.8793 3.11223 17.8359 3.21267L17.4752 4.04954C17.1726 4.75149 17.4145 5.56898 18.0504 5.99317L19.5423 6.98864C19.9416 7.25507 20.4335 7.32601 20.8918 7.18322C21.3501 7.04043 21.7147 6.70269 21.8922 6.25663L22.2493 5.35827C22.2916 5.25208 22.3178 5.14024 22.3271 5.02574L22.4708 3.2515C22.4845 3.08315 22.6274 2.95126 22.7963 2.95126C22.9317 2.95126 23.0546 3.0365 23.1021 3.1633L23.6589 4.64996C23.7552 4.90713 23.9373 5.12758 24.1715 5.27073L24.9055 5.71928C24.9703 5.7589 25.0133 5.82778 25.0204 5.90356L25.1749 7.56452C25.245 8.31803 25.5783 9.02762 26.1133 9.56273L26.9789 10.4283C27.1272 10.5766 27.2675 10.7361 27.3957 10.9023C27.5489 11.101 27.8343 11.1377 28.033 10.9845C28.2316 10.8312 28.2685 10.5459 28.1152 10.3472C27.9632 10.1503 27.7971 9.96135 27.6214 9.78561L26.756 8.92008C26.3704 8.53455 26.1302 8.02318 26.0798 7.48025L25.9252 5.8193C25.8918 5.45951 25.6877 5.13219 25.3794 4.94378L24.6454 4.49523C24.5835 4.45737 24.5354 4.39909 24.5099 4.33112L23.9532 2.84446C23.7735 2.36478 23.3085 2.04242 22.7963 2.04242C22.1575 2.04242 21.6167 2.54125 21.5651 3.17802L21.4214 4.95208C21.4195 4.97625 21.414 4.99982 21.405 5.02223L21.0478 5.92077C20.9722 6.11081 20.8169 6.25469 20.6217 6.31552C20.4265 6.37634 20.2168 6.34611 20.0467 6.23264L18.5549 5.23717C18.2839 5.05646 18.181 4.70824 18.3099 4.40921L18.6705 3.5724C18.7687 3.3448 18.8139 3.09369 18.8013 2.84628C18.7575 1.98021 18.0439 1.30176 17.1768 1.30176H15.8914C15.2557 1.30176 14.6746 1.6756 14.411 2.25422L14.3261 2.44074C14.2354 2.64006 14.0616 2.78521 13.8492 2.83907L12.8713 3.08721C12.4894 3.18408 12.187 3.46505 12.0624 3.83884L11.7809 4.68352C11.7478 4.78257 11.6555 4.84909 11.5511 4.84909C11.4908 4.84909 11.433 4.82673 11.3883 4.78627L10.8723 4.31809C10.4309 3.91747 9.74484 3.92365 9.31065 4.33185L6.89995 6.59789C6.55258 6.92448 6.24313 7.2919 5.98039 7.68992L5.79592 7.96944C5.28382 8.74543 4.57218 9.37244 3.73785 9.78282L1.67694 10.7963C1.0472 11.106 0.543527 11.6297 0.258613 12.2708C-0.0904555 13.0561 -0.0859725 13.9548 0.270972 14.7366L2.52041 19.6639C2.60619 19.8519 2.60947 20.069 2.52926 20.2594L2.48406 20.3668C2.22259 20.988 2.36157 21.6973 2.8381 22.1739C3.15609 22.4919 3.5798 22.656 4.00653 22.656C4.32349 22.656 4.64215 22.5653 4.92009 22.3801C5.12886 22.2409 5.18532 21.9588 5.0461 21.75C4.90695 21.5412 4.62476 21.4849 4.41606 21.624C4.12309 21.8193 3.72967 21.7804 3.48068 21.5314C3.26659 21.3173 3.20419 20.9986 3.3216 20.7195L3.36679 20.6122C3.54532 20.1882 3.53818 19.705 3.3471 19.2866L1.09766 14.3593C0.848856 13.8142 0.845706 13.1875 1.08906 12.64C1.28758 12.1928 1.63883 11.8277 2.07787 11.6118Z" fill="#00D654"/>
<path d="M26.2575 25.8783C25.5685 25.5649 24.2391 25.7339 23.508 25.8624C23.1477 25.9258 22.3039 26.0741 21.9855 26.7644C21.7603 27.2523 21.909 27.8709 22.3314 28.2032C22.5494 28.3748 22.7897 28.445 23.0017 28.507C23.1416 28.5478 23.2735 28.5864 23.3559 28.6449C23.4464 28.7091 23.534 28.8351 23.6268 28.9685C23.8009 29.219 24.0176 29.5308 24.4152 29.6513C24.5267 29.6851 24.636 29.6983 24.742 29.6983C24.9256 29.6983 25.0989 29.6586 25.2552 29.6175C25.6808 29.5057 26.1047 29.3684 26.5151 29.2093C26.652 29.1562 26.9068 29.0574 27.0624 28.8084C27.362 28.329 27.3014 27.6025 27.1447 27.0823C27.0403 26.7359 26.7862 26.1187 26.2575 25.8783ZM26.3007 28.3112C26.2816 28.3229 26.2433 28.3399 26.1864 28.362C25.8079 28.5088 25.4169 28.6355 25.0243 28.7386C24.933 28.7626 24.7631 28.8072 24.6787 28.7816C24.5835 28.7528 24.4812 28.6057 24.3729 28.4498C24.2458 28.267 24.1018 28.0599 23.8819 27.9038C23.675 27.757 23.4528 27.692 23.2567 27.6347C23.1109 27.5921 22.9731 27.5518 22.8934 27.4891C22.799 27.4148 22.7603 27.254 22.8107 27.145C22.9163 26.9161 23.3229 26.8177 23.6654 26.7574C24.2246 26.6591 24.7482 26.609 25.1581 26.609C25.4849 26.609 25.7392 26.6409 25.8813 26.7055C25.9934 26.7565 26.1642 26.9781 26.2745 27.3445C26.3988 27.7569 26.3853 28.1519 26.3007 28.3112Z" fill="#00D654"/>
<path d="M24.0429 15.1883H20.3201C20.2568 15.1883 20.2056 15.137 20.2056 15.0737C20.2056 15.0105 20.2568 14.9592 20.3201 14.9592H24.0429C24.1062 14.9592 24.1574 15.0105 24.1574 15.0737C24.1574 15.137 24.1062 15.1883 24.0429 15.1883Z" fill="#00D654"/>
<path d="M22.2175 15.8185H20.3201C20.2568 15.8185 20.2056 15.7673 20.2056 15.704C20.2056 15.6407 20.2568 15.5895 20.3201 15.5895H22.2175C22.2807 15.5895 22.332 15.6407 22.332 15.704C22.332 15.7673 22.2807 15.8185 22.2175 15.8185Z" fill="#00D654"/>
<path d="M25.8036 11.3893H25.0189V10.8914C25.0189 10.6912 24.8561 10.5283 24.6559 10.5283H19.7813C19.5811 10.5283 19.4182 10.6912 19.4182 10.8914V16.3678C19.4182 17.1511 20.0555 17.7883 20.8388 17.7883H23.5984C24.3565 17.7883 24.9778 17.1914 25.017 16.4429C26.2458 16.4114 27.2357 15.402 27.2357 14.1657V12.8214C27.2357 12.0318 26.5933 11.3893 25.8036 11.3893ZM24.7899 16.3678C24.7899 17.0248 24.2554 17.5593 23.5984 17.5593H20.8388C20.1818 17.5593 19.6472 17.0248 19.6472 16.3678V10.8914C19.6472 10.8175 19.7074 10.7573 19.7813 10.7573H24.6559C24.7298 10.7573 24.7899 10.8175 24.7899 10.8914V14.4553C24.7899 14.5185 24.8412 14.5698 24.9044 14.5698C24.9677 14.5698 25.0189 14.5185 25.0189 14.4553V12.5571C25.0699 12.4355 25.1802 12.3485 25.3113 12.3283L25.7168 12.2656C25.9367 12.2317 26.1566 12.3246 26.2768 12.5025C26.3405 12.5968 26.3742 12.7071 26.3742 12.8214V14.1657C26.3742 14.7974 25.95 15.3581 25.3427 15.5292C25.2172 15.5646 25.0847 15.5092 25.019 15.3967V14.9906C25.019 14.9274 24.9677 14.8761 24.9045 14.8761C24.8412 14.8761 24.7899 14.9274 24.7899 14.9906V16.3678H24.7899ZM27.0067 14.1657C27.0067 15.275 26.1205 16.1812 25.0189 16.2137V15.7051C25.094 15.7464 25.1788 15.7689 25.2659 15.7689C25.3119 15.7689 25.3586 15.7626 25.4048 15.7496C26.1104 15.5508 26.6032 14.8995 26.6032 14.1657V12.8214C26.6032 12.6612 26.5559 12.5066 26.4665 12.3743C26.297 12.1233 25.989 11.9919 25.6818 12.0393L25.2763 12.1019C25.1819 12.1165 25.0943 12.1527 25.0189 12.2058V11.6183H25.8036C26.467 11.6183 27.0067 12.1581 27.0067 12.8214V14.1657Z" fill="#00D654"/>
<g clip-path="url(#clip1)">
<path d="M17.9325 10.5071C17.9335 10.4966 17.934 10.4865 17.933 10.4758C17.932 10.4652 17.9299 10.4552 17.9271 10.4448C17.9241 10.4346 17.9207 10.4253 17.9159 10.4157C17.9109 10.4058 17.9046 10.3971 17.8977 10.3881C17.8937 10.3832 17.8919 10.3772 17.8872 10.3725L16.2268 8.71166C16.2225 8.70734 16.2167 8.70568 16.2122 8.70186C16.2034 8.69472 16.1946 8.68874 16.1843 8.68342C16.174 8.67828 16.1639 8.67446 16.1529 8.67147C16.1473 8.66981 16.1426 8.66632 16.1366 8.66532L14.1435 8.33301C14.1386 8.33218 14.134 8.33384 14.1292 8.33335C14.1245 8.33301 14.1205 8.33069 14.1159 8.33069H11.1273C11.1226 8.33069 11.1185 8.33301 11.114 8.33351C11.1092 8.33384 11.1045 8.33218 11.0997 8.33301L9.10651 8.66532C9.10053 8.66632 9.09605 8.66981 9.09023 8.67147C9.07927 8.67462 9.06898 8.67828 9.05885 8.68342C9.04855 8.68874 9.03975 8.69472 9.03095 8.70186C9.02646 8.70551 9.02065 8.70717 9.01633 8.71166L7.35595 10.3725C7.35147 10.377 7.34964 10.383 7.34549 10.3881C7.33851 10.3971 7.3322 10.4058 7.32722 10.4157C7.3224 10.4253 7.31892 10.4346 7.31609 10.4448C7.3131 10.4552 7.31111 10.465 7.31011 10.4758C7.30912 10.4866 7.30962 10.4966 7.31061 10.5071C7.31177 10.5175 7.3136 10.5275 7.31659 10.5379C7.31991 10.5484 7.32456 10.5582 7.32988 10.5683C7.33303 10.5738 7.33353 10.58 7.33735 10.5854L8.50051 12.2463C8.50068 12.2465 8.50101 12.2467 8.50118 12.2468C8.50134 12.2472 8.50134 12.2475 8.50151 12.2476C8.51147 12.2614 8.52542 12.2694 8.53821 12.279C8.54635 12.2853 8.55249 12.2946 8.56163 12.2991C8.58471 12.3108 8.61062 12.3169 8.63669 12.3169C8.6533 12.3169 8.66991 12.3142 8.68618 12.3093C8.69 12.3081 8.69365 12.3053 8.69747 12.3036C8.7091 12.2991 8.72106 12.2943 8.73168 12.2868C8.73185 12.2867 8.73202 12.2863 8.73235 12.2862C8.73252 12.286 8.73285 12.286 8.73301 12.2858L9.63295 11.643V17.1311C9.63295 17.1323 9.63229 17.1333 9.63229 17.1345C9.63229 17.1356 9.63295 17.1366 9.63295 17.1378V17.3004C9.63295 17.5747 9.85615 17.7979 10.1305 17.7979H15.1126C15.387 17.7979 15.6102 17.5747 15.6102 17.3004V11.643L16.5101 12.2858C16.5103 12.286 16.5106 12.286 16.5108 12.2862C16.5111 12.2863 16.5113 12.2867 16.5115 12.2868C16.5221 12.2943 16.5341 12.299 16.5457 12.3036C16.5495 12.3053 16.5531 12.3081 16.557 12.3093C16.5732 12.3142 16.5899 12.3169 16.6065 12.3169C16.6325 12.3169 16.6584 12.3108 16.6817 12.299C16.6908 12.2945 16.697 12.2852 16.7051 12.2789C16.7179 12.2691 16.7318 12.2613 16.7418 12.2475C16.742 12.2473 16.742 12.247 16.7421 12.2467C16.7423 12.2465 16.7426 12.2463 16.7428 12.2462L17.906 10.5853C17.9096 10.58 17.9103 10.5738 17.9134 10.5682C17.9188 10.558 17.9236 10.5484 17.9267 10.5378C17.9297 10.5275 17.9315 10.5175 17.9325 10.5071ZM16.5668 11.9183L15.5406 11.1855C15.5358 11.182 15.5301 11.1815 15.5252 11.1785C15.515 11.1728 15.5051 11.168 15.4938 11.1645C15.4833 11.161 15.4729 11.1592 15.4619 11.1581C15.4559 11.1574 15.4506 11.1546 15.4443 11.1546C15.4395 11.1546 15.4355 11.1569 15.4308 11.1574C15.4197 11.1582 15.4094 11.1609 15.3988 11.1639C15.3883 11.1669 15.3784 11.17 15.3687 11.175C15.3599 11.1795 15.3521 11.1853 15.3443 11.1914C15.3348 11.1987 15.3264 11.2062 15.3187 11.2155C15.3159 11.2188 15.3119 11.2205 15.3093 11.2243C15.3058 11.2291 15.3053 11.2348 15.3023 11.2399C15.2967 11.2501 15.2918 11.2599 15.2883 11.2711C15.2849 11.2819 15.283 11.2926 15.2819 11.3035C15.2812 11.3095 15.2784 11.3147 15.2784 11.3208V16.9687H9.9651V11.3205C9.9651 11.3143 9.96211 11.3092 9.96161 11.3032C9.96045 11.2922 9.95845 11.2816 9.95513 11.2708C9.95165 11.2597 9.94683 11.2496 9.94118 11.2396C9.93819 11.2346 9.9377 11.229 9.93421 11.224C9.93155 11.2203 9.92756 11.2185 9.92474 11.2152C9.9171 11.2059 9.90847 11.1984 9.89917 11.1913C9.8912 11.185 9.88339 11.1793 9.87459 11.1745C9.86512 11.1697 9.85532 11.1665 9.84486 11.1635C9.83407 11.1602 9.8236 11.1579 9.81248 11.1569C9.80783 11.1566 9.80384 11.1542 9.79919 11.1542C9.79305 11.1542 9.7879 11.1572 9.78192 11.1577C9.77079 11.1589 9.76016 11.1609 9.74937 11.1642C9.73841 11.1677 9.72828 11.1725 9.71831 11.1781C9.71333 11.1811 9.70769 11.1816 9.7027 11.1851L8.67638 11.9183L7.68942 10.5089L9.21362 8.98418L10.9736 8.69073C11.0701 9.51511 11.772 10.1573 12.6217 10.1573C13.4715 10.1573 14.1733 9.51511 14.2698 8.69073L16.0299 8.98418L17.5541 10.5089L16.5668 11.9183ZM15.1126 17.4656H10.1305C10.0395 17.4656 9.96543 17.3915 9.9651 17.3005H15.2781C15.2777 17.3915 15.2037 17.4656 15.1126 17.4656ZM11.3048 8.66283H13.9382C13.8562 9.31699 13.2977 9.82517 12.6214 9.82517C11.9452 9.82517 11.3868 9.31715 11.3048 8.66283Z" fill="#00D654"/>
<path d="M12.4554 9.16112H12.7875C12.8794 9.16112 12.9536 9.08689 12.9536 8.99505C12.9536 8.90321 12.8794 8.82898 12.7875 8.82898H12.4554C12.3635 8.82898 12.2893 8.90321 12.2893 8.99505C12.2893 9.08689 12.3635 9.16112 12.4554 9.16112Z" fill="#00D654"/>
<path d="M12.7025 13.3078C12.6846 13.3079 12.6656 13.3079 12.6476 13.3078C12.5625 13.3071 12.4745 13.3061 12.4111 13.369C12.3734 13.4064 12.3542 13.4577 12.3542 13.5214C12.3542 13.6609 12.4437 13.7797 12.5681 13.8239V13.9492C12.5681 14.0083 12.616 14.0561 12.6751 14.0561C12.7341 14.0561 12.782 14.0083 12.782 13.9492V13.8239C12.9065 13.7797 12.9959 13.6609 12.9959 13.5214C12.9959 13.4577 12.9768 13.4064 12.9391 13.369C12.8757 13.3061 12.7876 13.3071 12.7025 13.3078ZM12.6751 13.6284C12.6167 13.6284 12.5691 13.5814 12.5681 13.5233C12.5883 13.5208 12.6219 13.5211 12.646 13.5213C12.665 13.5214 12.6851 13.5214 12.7042 13.5213C12.7283 13.5211 12.7618 13.5208 12.782 13.5233C12.781 13.5814 12.7334 13.6284 12.6751 13.6284Z" fill="#00D654"/>
<path d="M12.2473 12.9868C12.3064 12.9868 12.3543 12.939 12.3543 12.8799C12.3543 12.8208 12.3064 12.7729 12.2473 12.7729C12.1883 12.7729 12.1404 12.8208 12.1404 12.8799C12.1404 12.939 12.1883 12.9868 12.2473 12.9868Z" fill="#00D654"/>
<path d="M13.103 12.9868C13.1621 12.9868 13.21 12.939 13.21 12.8799C13.21 12.8208 13.1621 12.7729 13.103 12.7729C13.044 12.7729 12.9961 12.8208 12.9961 12.8799C12.9961 12.939 13.044 12.9868 13.103 12.9868Z" fill="#00D654"/>
<path d="M13.5307 11.7035C13.4971 11.7035 13.4633 11.7066 13.4297 11.7127C13.2123 11.5717 12.9532 11.4896 12.6752 11.4896C12.3973 11.4896 12.1381 11.5717 11.9207 11.7127C11.8871 11.7066 11.8533 11.7035 11.8197 11.7035C11.223 11.7035 10.8501 12.5856 10.8501 13.2007C10.8501 13.8874 11.2664 14.2701 11.8197 14.2701C11.8758 14.2701 11.9311 14.266 11.9846 14.258C12.1763 14.4109 12.427 14.4839 12.6752 14.4839C12.9234 14.4839 13.1741 14.4109 13.3658 14.258C13.4193 14.266 13.4746 14.2701 13.5307 14.2701C14.084 14.2701 14.5003 13.8876 14.5003 13.2007C14.5003 12.5875 14.1283 11.7035 13.5307 11.7035ZM11.064 13.2007C11.064 12.7709 11.2714 12.1726 11.6212 11.9743C11.4118 12.2178 11.285 12.5343 11.285 12.8798C11.285 13.2707 11.4495 13.6428 11.7374 13.9061C11.7527 13.958 11.7751 14.0082 11.8041 14.056C11.4433 14.0497 11.064 13.8225 11.064 13.2007ZM12.6752 14.2701C12.3246 14.2701 11.9266 14.0681 11.9266 13.7354C11.9266 13.4053 12.3202 13.2007 12.6752 13.2007C13.0258 13.2007 13.4238 13.4026 13.4238 13.7354C13.4238 14.0654 13.0302 14.2701 12.6752 14.2701ZM12.6752 12.9868C12.2692 12.9868 11.8322 13.2004 11.7323 13.5831C11.582 13.3816 11.4989 13.1355 11.4989 12.8798C11.4989 12.2312 12.0266 11.7035 12.6752 11.7035C13.3238 11.7035 13.8515 12.2312 13.8515 12.8798C13.8515 13.1355 13.7684 13.3816 13.6181 13.5831C13.5182 13.2002 13.0816 12.9868 12.6752 12.9868ZM13.5463 14.056C13.5753 14.0082 13.5977 13.958 13.613 13.9061C13.9009 13.6428 14.0654 13.2707 14.0654 12.8798C14.0654 12.5343 13.9386 12.2178 13.7292 11.9743C14.0782 12.1722 14.2864 12.7692 14.2864 13.2007C14.2864 13.8225 13.9071 14.0497 13.5463 14.056Z" fill="#00D654"/>
</g>
<path d="M21.9517 11.959C22.1209 11.9381 22.3001 12.0967 22.3517 12.3154C22.4033 12.533 22.3101 12.7272 22.1409 12.7493C21.9732 12.7714 21.7926 12.6129 21.7396 12.3941C21.6866 12.1766 21.7826 11.9824 21.9517 11.959ZM22.9766 11.959C23.1472 11.9824 23.2418 12.1766 23.1916 12.3941C23.1372 12.6129 22.958 12.7714 22.7889 12.7493C22.6183 12.7272 22.5251 12.533 22.5781 12.3154C22.6297 12.0967 22.8089 11.9381 22.9766 11.959ZM21.1849 12.5244C21.3483 12.4642 21.5704 12.5736 21.6866 12.7641C21.7955 12.9583 21.7582 13.1623 21.5962 13.2225C21.4343 13.2828 21.2135 13.1746 21.1003 12.9816C20.987 12.7887 21.0272 12.5834 21.1849 12.5244ZM23.765 12.5244C23.9227 12.5834 23.9628 12.7887 23.8496 12.9816C23.7363 13.1746 23.5156 13.2828 23.3536 13.2225C23.1916 13.1623 23.1544 12.9583 23.2633 12.7641C23.3794 12.5736 23.6016 12.4642 23.765 12.5244ZM23.5256 13.8494C23.5314 13.9649 23.4282 14.0927 23.3049 14.1407C23.0483 14.2415 22.7444 14.0325 22.4592 14.0325C22.1739 14.0325 21.8672 14.2501 21.6149 14.1407C21.4715 14.0805 21.3726 13.9207 21.3913 13.7879C21.4171 13.6048 21.6736 13.5065 21.8256 13.3725C22.0277 13.1992 22.171 12.8735 22.4592 12.8735C22.7458 12.8735 22.8978 13.1943 23.0913 13.3725C23.2504 13.5224 23.5156 13.649 23.5256 13.8494Z" fill="#00D654"/>
</g>
<defs>
<clipPath id="clip0">
<rect width="31" height="31" fill="white"/>
</clipPath>
<clipPath id="clip1">
<rect width="10.6286" height="10.6286" fill="white" transform="translate(7.30713 7.75)"/>
</clipPath>
</defs>
</svg>
