<svg width="24" height="24" viewBox="0 0 24 24" fill="none" xmlns="http://www.w3.org/2000/svg">
<g clip-path="url(#clip0)">
<path d="M10.2428 14.1063C10.308 14.0656 10.4142 14.0153 10.5502 14.0065C10.7325 13.9949 10.8754 14.0644 10.9441 14.107C11.0017 14.1426 11.0657 14.1597 11.1288 14.1597C11.2466 14.1597 11.3616 14.1005 11.4281 13.9931C11.5303 13.828 11.4793 13.6113 11.3142 13.5091C11.0723 13.3594 10.7848 13.2867 10.505 13.3049C10.2817 13.3193 10.0623 13.3901 9.87052 13.5098C9.7058 13.6126 9.65559 13.8295 9.75839 13.9942C9.86119 14.1588 10.078 14.2091 10.2428 14.1063ZM11.824 3.56365C11.9325 3.50089 12.0674 3.50089 12.176 3.56365L23.1207 9.89342C23.3042 9.99949 23.5233 9.99959 23.7068 9.8937C23.8904 9.78781 24 9.59806 24 9.38618V7.11523C24 6.90673 23.8879 6.71239 23.7074 6.60804L12.528 0.142479C12.2023 -0.0458652 11.7977 -0.0458652 11.472 0.142479L0.292594 6.60804C0.112125 6.71239 0 6.90673 0 7.11523V9.38623C0 9.59815 0.109594 9.78785 0.293156 9.89374C0.476719 9.99964 0.695812 9.99954 0.879281 9.89342L1.66406 9.43957V21.3679H0.585938C0.262828 21.3679 0 21.6307 0 21.9538V23.4149C0 23.738 0.262828 24.0008 0.585938 24.0008H23.4141C23.7372 24.0008 24 23.738 24 23.4149V21.9538C24 21.6307 23.7372 21.3679 23.4141 21.3679H22.3359V10.3253C22.3359 10.1311 22.1785 9.97371 21.9844 9.97371C21.7902 9.97371 21.6328 10.1311 21.6328 10.3253V21.3679H19.7456V14.4833C19.7456 12.4144 18.9399 10.4692 17.477 9.00631C16.0141 7.54339 14.069 6.73774 12 6.73774C7.72903 6.73774 4.25437 10.2124 4.25437 14.4834V20.3132C4.25437 20.5074 4.41178 20.6648 4.60594 20.6648C4.80009 20.6648 4.9575 20.5074 4.9575 20.3132V14.4834C4.9575 10.6002 8.11673 7.44087 12 7.44087C13.8812 7.44087 15.6497 8.17339 16.9799 9.50351C18.31 10.8336 19.0425 12.6022 19.0425 14.4834V21.3679H18.4338C18.4344 21.3523 18.4353 21.3367 18.4353 21.321C18.4353 20.5378 17.6161 19.9244 16.5703 19.9244C16.083 19.9244 15.645 20.0577 15.316 20.2792L14.6963 19.7325C14.7995 19.6861 14.8953 19.6394 14.9809 19.5926C15.946 19.0643 16.781 18.3563 17.4626 17.4885C17.5746 17.3459 17.5989 17.1543 17.526 16.9884C17.4526 16.8212 17.2937 16.7085 17.1112 16.6944C16.892 16.6773 16.7221 16.6148 16.6063 16.5085C16.4203 16.3377 16.4117 16.0967 16.4112 15.6113C16.4108 15.3349 16.41 15.0225 16.3573 14.667C16.4824 14.4687 16.5963 14.2618 16.6955 14.049C17.3018 12.745 17.2457 11.5207 17.1584 10.9072C17.1257 10.6774 16.9341 10.5 16.701 10.4852C16.1182 10.451 15.5507 10.5253 15.014 10.7059C14.5515 10.8613 14.119 11.0938 13.7255 11.3981C13.0858 11.1531 12.4652 11.1036 12 11.1167C11.5348 11.1035 10.9141 11.153 10.2744 11.3981C9.88083 11.0938 9.44836 10.8613 8.98594 10.7059C8.44917 10.5253 7.88156 10.4511 7.29712 10.4853C7.06575 10.5 6.87417 10.6774 6.84155 10.907C6.75417 11.5207 6.69816 12.745 7.30448 14.0493C7.40353 14.2619 7.51748 14.4688 7.64259 14.6671C7.58991 15.0225 7.58902 15.3349 7.58869 15.6113C7.58812 16.0968 7.57959 16.3377 7.39355 16.5085C7.27777 16.6148 7.10789 16.6774 6.88866 16.6944C6.70617 16.7086 6.54722 16.8213 6.47381 16.9885C6.40097 17.1544 6.4253 17.346 6.53728 17.4885C7.21894 18.3564 8.05392 19.0644 9.01903 19.5926C9.07622 19.6239 9.1387 19.6552 9.20391 19.6864L8.59477 20.2234C8.27761 20.0357 7.87425 19.9245 7.42964 19.9245C6.38381 19.9245 5.56462 20.538 5.56462 21.3211C5.56462 21.3368 5.56552 21.3524 5.56617 21.368H2.36719V9.03293L11.824 3.56365ZM15.5799 20.967C15.8005 20.7572 16.1996 20.6274 16.5703 20.6274C17.1199 20.6274 17.7322 20.9122 17.7322 21.3208C17.7322 21.4102 17.7023 21.4932 17.6534 21.5663C17.4708 21.839 17.0013 22.0143 16.5703 22.0143C16.1392 22.0143 15.6698 21.839 15.4872 21.5663C15.4353 21.4889 15.4083 21.4172 15.4083 21.3208C15.4084 21.1867 15.4787 21.0633 15.5799 20.967ZM15.2382 11.3721C15.6356 11.2384 16.0545 11.1744 16.4836 11.1804C16.5418 11.7461 16.5352 12.6956 16.0796 13.7045C15.577 12.5559 14.6408 11.8935 14.5124 11.8067C14.4871 11.7896 14.4618 11.773 14.4364 11.7567C14.6889 11.5955 14.9571 11.4666 15.2382 11.3721ZM7.51641 11.1805C7.94616 11.1749 8.36484 11.2386 8.76188 11.3721C9.04294 11.4666 9.31106 11.5955 9.56363 11.7567C9.36422 11.903 8.44767 12.496 7.92042 13.7045C7.46489 12.6956 7.45823 11.7462 7.51641 11.1805ZM7.31733 17.3294C7.5322 17.2674 7.71698 17.1661 7.86923 17.0262C8.29073 16.6392 8.2913 16.1402 8.29191 15.6119C8.29223 15.3378 8.29256 15.0544 8.34295 14.7359C8.57194 13.2896 9.82823 12.4252 9.88158 12.3891C10.6226 11.8879 11.4364 11.8026 11.9893 11.8197C11.9964 11.8199 12.0036 11.8199 12.0107 11.8197C12.5631 11.8027 13.3773 11.888 14.1184 12.3892C14.1718 12.4253 15.4281 13.2896 15.657 14.736C15.7074 15.0544 15.7078 15.3379 15.7081 15.612C15.7087 16.1403 15.7093 16.6392 16.1308 17.0263C16.2831 17.1661 16.4678 17.2675 16.6827 17.3295C14.286 20.3297 9.7163 20.3319 7.31733 17.3294ZM9.93858 19.9759C10.6102 20.1946 11.3051 20.3043 12 20.3043C12.6564 20.3043 13.3127 20.2063 13.9495 20.0112L14.8379 20.795C14.7525 20.9567 14.7053 21.1339 14.7053 21.3209C14.7053 21.3366 14.7062 21.3522 14.7068 21.3678H9.29316C9.29381 21.3522 9.2947 21.3366 9.2947 21.3209C9.2947 21.0988 9.2287 20.8905 9.11053 20.7059L9.93858 19.9759ZM7.42969 20.6275C8.02397 20.6275 8.90189 20.9851 8.51278 21.5664C8.33025 21.8391 7.86075 22.0144 7.42969 22.0144C6.99862 22.0144 6.52917 21.8391 6.34659 21.5664C5.99203 21.0367 6.82317 20.6275 7.42969 20.6275ZM5.8485 22.071C6.17555 22.4622 6.7553 22.7175 7.42969 22.7175C8.10408 22.7175 8.68383 22.4622 9.01087 22.071H14.9892C15.3162 22.4622 15.896 22.7175 16.5704 22.7175C17.2448 22.7175 17.8245 22.4622 18.1515 22.071H23.2969V23.2977H0.703125V22.071H5.8485ZM0.703125 9.18307V7.18282L11.824 0.75115C11.9325 0.688385 12.0674 0.688385 12.176 0.75115L23.2969 7.18282V9.18307L12.528 2.95498C12.2023 2.76659 11.7977 2.76659 11.472 2.95498L0.703125 9.18307ZM13.057 14.1063C13.1222 14.0656 13.2284 14.0153 13.3643 14.0065C13.5469 13.9949 13.6896 14.0644 13.7583 14.107C13.8159 14.1426 13.8799 14.1597 13.943 14.1597C14.0608 14.1597 14.1757 14.1005 14.2423 13.9931C14.3445 13.828 14.2935 13.6113 14.1284 13.5091C13.8864 13.3594 13.5991 13.2867 13.3192 13.3049C13.0959 13.3193 12.8765 13.3901 12.6847 13.5098C12.52 13.6126 12.4698 13.8295 12.5726 13.9942C12.6754 14.1588 12.8922 14.2091 13.057 14.1063ZM10.9166 15.8133C10.8043 16.0106 10.8066 16.2543 10.9224 16.4494L11.4559 17.3479C11.5054 17.4314 11.5714 17.5003 11.6484 17.5518V17.7794C11.6484 17.9057 11.5457 18.0083 11.4195 18.0083C11.2933 18.0083 11.1906 17.9057 11.1906 17.7794C11.1906 17.5853 11.0332 17.4279 10.839 17.4279C10.6449 17.4279 10.4875 17.5853 10.4875 17.7794C10.4875 18.2934 10.9056 18.7115 11.4195 18.7115C11.639 18.7115 11.8406 18.6348 12 18.5074C12.1594 18.6347 12.361 18.7115 12.5805 18.7115C13.0944 18.7115 13.5125 18.2934 13.5125 17.7794C13.5125 17.5853 13.3551 17.4279 13.161 17.4279C12.9668 17.4279 12.8094 17.5853 12.8094 17.7794C12.8094 17.9057 12.7067 18.0083 12.5805 18.0083C12.4543 18.0083 12.3516 17.9057 12.3516 17.7794V17.5518C12.4286 17.5003 12.4946 17.4314 12.5441 17.3479L13.0776 16.4494C13.1935 16.2543 13.1957 16.0105 13.0834 15.8133C12.9712 15.6161 12.7604 15.4936 12.5335 15.4936H11.4666C11.2396 15.4936 11.0289 15.6161 10.9166 15.8133ZM12.4099 16.1967L12 16.8871L11.5901 16.1967H12.4099Z" fill="#00D654"/>
</g>
<defs>
<clipPath id="clip0">
<rect width="24" height="24" fill="white"/>
</clipPath>
</defs>
</svg>
