<svg width="21" height="21" viewBox="0 0 21 21" fill="none" xmlns="http://www.w3.org/2000/svg">
<g clip-path="url(#clip0)">
<path d="M14.4494 2.9626C13.2383 2.39839 10.8807 1.2908 9.58314 0.680777C8.62214 0.229072 7.59581 0 6.5326 0C5.23322 0 3.95743 0.35335 2.8432 1.0219L0.298717 2.54863C0.113408 2.65982 0 2.86006 0 3.07617V7.99805C0 8.33782 0.275461 8.61328 0.615234 8.61328H2.56651C3.76528 8.61328 4.89706 8.17811 5.78181 7.38281H8.4082C9.42592 7.38281 10.2539 6.55483 10.2539 5.53711C10.2539 5.40446 10.2396 5.27514 10.2128 5.15037L13.1949 6.15923C13.6565 6.31538 14.1634 6.26522 14.5855 6.02154C15.0077 5.77783 15.3046 5.3639 15.4003 4.88574L15.4053 4.86047C15.5618 4.07814 15.1687 3.2977 14.4494 2.9626ZM14.1987 4.61926L14.1937 4.64453C14.1578 4.82397 14.0383 4.91663 13.9703 4.95588C13.9023 4.99517 13.7624 5.05235 13.5892 4.99365L9.83587 3.72385C9.7723 3.7024 9.70573 3.69141 9.63867 3.69141H5.53711C5.19734 3.69141 4.92188 3.96687 4.92188 4.30664C4.92188 4.64641 5.19734 4.92188 5.53711 4.92188H8.4082C8.74744 4.92188 9.02344 5.19787 9.02344 5.53711C9.02344 5.87635 8.74744 6.15234 8.4082 6.15234H5.53711C5.36722 6.15234 5.21341 6.22121 5.10206 6.33257C4.42481 7.00982 3.52435 7.38281 2.56651 7.38281H1.23047V3.42452L3.47628 2.07703C4.39934 1.5232 5.45619 1.23047 6.5326 1.23047C7.41345 1.23047 8.26366 1.42021 9.05961 1.79435C10.3579 2.40475 12.717 3.51299 13.9298 4.07798C14.1329 4.1726 14.2435 4.39511 14.1987 4.61926Z" fill="#00D654"/>
<path d="M20.3848 21H8.89387C8.72632 21 8.56603 20.9317 8.45 20.8108C8.33396 20.69 8.27228 20.527 8.27913 20.3596C8.30739 19.6695 8.43355 18.9762 8.65401 18.2988C8.72029 18.0952 8.75388 17.8868 8.75388 17.6792V17.6509C8.75388 16.7128 8.15493 15.8906 7.26354 15.6051C6.40266 15.3293 5.82422 14.5452 5.82422 13.6539V11.2637C5.82422 10.9239 6.09968 10.6485 6.43945 10.6485H7.6885L9.51197 9.18971C9.9104 8.87086 10.4109 8.69531 10.9212 8.69531H13.4336C14.2677 8.69531 15.0526 9.10239 15.5331 9.7842C16.0136 10.466 16.1329 11.342 15.8523 12.1275L15.3063 13.6562C15.9264 15.4272 17.5094 16.6683 19.3914 16.8393L20.4405 16.9347C20.7574 16.9634 21 17.2292 21 17.5473V20.3848C21 20.7245 20.7245 21 20.3848 21ZM9.56833 19.7695H19.7695V18.1093L19.28 18.0648C18.0841 17.9561 16.9595 17.4982 16.0277 16.7406C15.3723 16.2078 14.8427 15.5513 14.4641 14.809C14.2468 14.9262 13.9999 14.9932 13.739 14.9988C13.0738 15.0113 12.4809 14.6236 12.2302 14.0065L11.6067 12.4718C11.4789 12.157 11.6304 11.7981 11.9452 11.6703C12.2599 11.5424 12.6188 11.6939 12.7468 12.0087L13.3702 13.5434C13.4548 13.7515 13.6377 13.7709 13.7127 13.7686C13.7875 13.767 13.9697 13.7404 14.0452 13.5289L14.6935 11.7137C14.8418 11.2984 14.7813 10.8534 14.5272 10.493C14.2732 10.1325 13.8746 9.92578 13.4336 9.92578H10.9212C10.6893 9.92578 10.4618 10.0056 10.2807 10.1505L8.28868 11.7441C8.17958 11.8314 8.04407 11.8789 7.90433 11.8789H7.05469V13.6539C7.05469 14.0081 7.28946 14.3213 7.63891 14.4332C9.04181 14.8825 9.98439 16.1756 9.98439 17.6508V17.6791C9.98439 18.0162 9.93046 18.3528 9.8241 18.6796C9.70692 19.0396 9.62145 19.4043 9.56833 19.7695Z" fill="#00D654"/>
</g>
<defs>
<clipPath id="clip0">
<rect width="21" height="21" fill="white"/>
</clipPath>
</defs>
</svg>
