<svg width="179" height="12" viewBox="0 0 179 12" fill="none" xmlns="http://www.w3.org/2000/svg">
<path d="M5.74707 6.78223H1.74121V11H0.0117188V1.04688H6.33496V2.44141H1.74121V5.40137H5.74707V6.78223ZM10.5654 11H8.9043V3.60352H10.5654V11ZM8.80176 1.68262C8.80176 1.42741 8.88151 1.21549 9.04102 1.04688C9.20508 0.878255 9.4375 0.793945 9.73828 0.793945C10.0391 0.793945 10.2715 0.878255 10.4355 1.04688C10.5996 1.21549 10.6816 1.42741 10.6816 1.68262C10.6816 1.93327 10.5996 2.1429 10.4355 2.31152C10.2715 2.47559 10.0391 2.55762 9.73828 2.55762C9.4375 2.55762 9.20508 2.47559 9.04102 2.31152C8.88151 2.1429 8.80176 1.93327 8.80176 1.68262ZM15.1719 3.60352L15.2197 4.45801C15.7666 3.7972 16.4844 3.4668 17.373 3.4668C18.9134 3.4668 19.6973 4.34863 19.7246 6.1123V11H18.0635V6.20801C18.0635 5.73861 17.9609 5.39225 17.7559 5.16895C17.5553 4.94108 17.2249 4.82715 16.7646 4.82715C16.0947 4.82715 15.5957 5.13021 15.2676 5.73633V11H13.6064V3.60352H15.1719ZM22.3623 7.24707C22.3623 6.10775 22.6266 5.19401 23.1553 4.50586C23.6839 3.81315 24.3926 3.4668 25.2812 3.4668C26.0651 3.4668 26.6986 3.74023 27.1816 4.28711V0.5H28.8428V11H27.3389L27.2568 10.2344C26.7601 10.8359 26.097 11.1367 25.2676 11.1367C24.4017 11.1367 23.6999 10.7881 23.1621 10.0908C22.6289 9.39355 22.3623 8.44564 22.3623 7.24707ZM24.0234 7.39062C24.0234 8.14258 24.167 8.73047 24.4541 9.1543C24.7458 9.57357 25.1582 9.7832 25.6914 9.7832C26.3704 9.7832 26.8672 9.48014 27.1816 8.87402V5.71582C26.8763 5.12337 26.3841 4.82715 25.7051 4.82715C25.1673 4.82715 24.7526 5.04134 24.4609 5.46973C24.1693 5.89355 24.0234 6.53385 24.0234 7.39062ZM42.2939 8.68262H38.4385L37.6318 11H35.834L39.5938 1.04688H41.1455L44.9121 11H43.1074L42.2939 8.68262ZM38.9238 7.28809H41.8086L40.3662 3.15918L38.9238 7.28809ZM55.6904 7.16504H53.7627V11H52.0332V1.04688H55.5332C56.6816 1.04688 57.568 1.30436 58.1924 1.81934C58.8167 2.33431 59.1289 3.07943 59.1289 4.05469C59.1289 4.72005 58.9671 5.27832 58.6436 5.72949C58.3245 6.17611 57.8779 6.52018 57.3037 6.76172L59.5391 10.9111V11H57.6865L55.6904 7.16504ZM53.7627 5.77734H55.54C56.1234 5.77734 56.5791 5.63151 56.9072 5.33984C57.2354 5.04362 57.3994 4.6403 57.3994 4.12988C57.3994 3.59668 57.2467 3.18424 56.9414 2.89258C56.6406 2.60091 56.1895 2.45052 55.5879 2.44141H53.7627V5.77734ZM65.1162 11.1367C64.0635 11.1367 63.209 10.8063 62.5527 10.1455C61.901 9.48014 61.5752 8.59603 61.5752 7.49316V7.28809C61.5752 6.5498 61.7165 5.89128 61.999 5.3125C62.2861 4.72917 62.6872 4.27572 63.2021 3.95215C63.7171 3.62858 64.2913 3.4668 64.9248 3.4668C65.932 3.4668 66.709 3.78809 67.2559 4.43066C67.8073 5.07324 68.083 5.98242 68.083 7.1582V7.82812H63.25C63.3001 8.4388 63.5029 8.92188 63.8584 9.27734C64.2184 9.63281 64.6696 9.81055 65.2119 9.81055C65.973 9.81055 66.5928 9.50293 67.0713 8.8877L67.9668 9.74219C67.6706 10.1842 67.2741 10.5283 66.7773 10.7744C66.2852 11.016 65.7314 11.1367 65.1162 11.1367ZM64.918 4.7998C64.4622 4.7998 64.0931 4.95931 63.8105 5.27832C63.5326 5.59733 63.3548 6.04167 63.2773 6.61133H66.4424V6.48828C66.4059 5.93229 66.2578 5.51302 65.998 5.23047C65.7383 4.94336 65.3783 4.7998 64.918 4.7998ZM72.3955 11H70.7344V0.5H72.3955V11ZM77.2275 11H75.5664V3.60352H77.2275V11ZM75.4639 1.68262C75.4639 1.42741 75.5436 1.21549 75.7031 1.04688C75.8672 0.878255 76.0996 0.793945 76.4004 0.793945C76.7012 0.793945 76.9336 0.878255 77.0977 1.04688C77.2617 1.21549 77.3438 1.42741 77.3438 1.68262C77.3438 1.93327 77.2617 2.1429 77.0977 2.31152C76.9336 2.47559 76.7012 2.55762 76.4004 2.55762C76.0996 2.55762 75.8672 2.47559 75.7031 2.31152C75.5436 2.1429 75.4639 1.93327 75.4639 1.68262ZM84.7119 11C84.639 10.8587 84.5752 10.6286 84.5205 10.3096C83.9919 10.861 83.3447 11.1367 82.5791 11.1367C81.8363 11.1367 81.2301 10.9248 80.7607 10.501C80.2913 10.0771 80.0566 9.55306 80.0566 8.92871C80.0566 8.1403 80.3483 7.53646 80.9316 7.11719C81.5195 6.69336 82.3581 6.48145 83.4473 6.48145H84.4658V5.99609C84.4658 5.61328 84.3587 5.30794 84.1445 5.08008C83.9303 4.84766 83.6045 4.73145 83.167 4.73145C82.7887 4.73145 82.4788 4.82715 82.2373 5.01855C81.9958 5.2054 81.875 5.44466 81.875 5.73633H80.2139C80.2139 5.33073 80.3483 4.95247 80.6172 4.60156C80.8861 4.24609 81.2507 3.9681 81.7109 3.76758C82.1758 3.56706 82.693 3.4668 83.2627 3.4668C84.1286 3.4668 84.819 3.68555 85.334 4.12305C85.849 4.55599 86.1133 5.16667 86.127 5.95508V9.29102C86.127 9.95638 86.2204 10.4873 86.4072 10.8838V11H84.7119ZM82.8867 9.80371C83.2148 9.80371 83.5225 9.72396 83.8096 9.56445C84.1012 9.40495 84.32 9.19076 84.4658 8.92188V7.52734H83.5703C82.9551 7.52734 82.4925 7.63444 82.1826 7.84863C81.8727 8.06283 81.7178 8.36589 81.7178 8.75781C81.7178 9.07682 81.8226 9.33203 82.0322 9.52344C82.2464 9.71029 82.5312 9.80371 82.8867 9.80371ZM95.6074 7.37695C95.6074 8.52539 95.3499 9.43913 94.835 10.1182C94.3245 10.7972 93.6204 11.1367 92.7227 11.1367C91.8568 11.1367 91.1823 10.8245 90.6992 10.2002L90.6172 11H89.1133V0.5H90.7744V4.31445C91.2529 3.74935 91.8978 3.4668 92.709 3.4668C93.6113 3.4668 94.32 3.80176 94.835 4.47168C95.3499 5.1416 95.6074 6.07812 95.6074 7.28125V7.37695ZM93.9463 7.2334C93.9463 6.43132 93.805 5.82975 93.5225 5.42871C93.2399 5.02767 92.8298 4.82715 92.292 4.82715C91.5719 4.82715 91.0661 5.1416 90.7744 5.77051V8.81934C91.0706 9.46191 91.5811 9.7832 92.3057 9.7832C92.8252 9.7832 93.2262 9.58952 93.5088 9.20215C93.7913 8.81478 93.9372 8.22917 93.9463 7.44531V7.2334ZM100.022 11H98.3613V0.5H100.022V11ZM106.345 11.1367C105.292 11.1367 104.438 10.8063 103.781 10.1455C103.13 9.48014 102.804 8.59603 102.804 7.49316V7.28809C102.804 6.5498 102.945 5.89128 103.228 5.3125C103.515 4.72917 103.916 4.27572 104.431 3.95215C104.946 3.62858 105.52 3.4668 106.153 3.4668C107.16 3.4668 107.938 3.78809 108.484 4.43066C109.036 5.07324 109.312 5.98242 109.312 7.1582V7.82812H104.479C104.529 8.4388 104.731 8.92188 105.087 9.27734C105.447 9.63281 105.898 9.81055 106.44 9.81055C107.201 9.81055 107.821 9.50293 108.3 8.8877L109.195 9.74219C108.899 10.1842 108.503 10.5283 108.006 10.7744C107.514 11.016 106.96 11.1367 106.345 11.1367ZM106.146 4.7998C105.691 4.7998 105.322 4.95931 105.039 5.27832C104.761 5.59733 104.583 6.04167 104.506 6.61133H107.671V6.48828C107.634 5.93229 107.486 5.51302 107.227 5.23047C106.967 4.94336 106.607 4.7998 106.146 4.7998ZM118.483 7.30176V11H116.754V1.04688H120.562C121.674 1.04688 122.555 1.33626 123.207 1.91504C123.863 2.49382 124.191 3.25944 124.191 4.21191C124.191 5.18717 123.87 5.94596 123.228 6.48828C122.59 7.0306 121.694 7.30176 120.541 7.30176H118.483ZM118.483 5.91406H120.562C121.177 5.91406 121.646 5.77051 121.97 5.4834C122.293 5.19173 122.455 4.77246 122.455 4.22559C122.455 3.68783 122.291 3.25944 121.963 2.94043C121.635 2.61686 121.184 2.45052 120.609 2.44141H118.483V5.91406ZM129.96 11.1367C128.907 11.1367 128.053 10.8063 127.396 10.1455C126.745 9.48014 126.419 8.59603 126.419 7.49316V7.28809C126.419 6.5498 126.56 5.89128 126.843 5.3125C127.13 4.72917 127.531 4.27572 128.046 3.95215C128.561 3.62858 129.135 3.4668 129.769 3.4668C130.776 3.4668 131.553 3.78809 132.1 4.43066C132.651 5.07324 132.927 5.98242 132.927 7.1582V7.82812H128.094C128.144 8.4388 128.347 8.92188 128.702 9.27734C129.062 9.63281 129.513 9.81055 130.056 9.81055C130.817 9.81055 131.437 9.50293 131.915 8.8877L132.811 9.74219C132.514 10.1842 132.118 10.5283 131.621 10.7744C131.129 11.016 130.575 11.1367 129.96 11.1367ZM129.762 4.7998C129.306 4.7998 128.937 4.95931 128.654 5.27832C128.376 5.59733 128.199 6.04167 128.121 6.61133H131.286V6.48828C131.25 5.93229 131.102 5.51302 130.842 5.23047C130.582 4.94336 130.222 4.7998 129.762 4.7998ZM137.554 1.80566V3.60352H138.859V4.83398H137.554V8.96289C137.554 9.24544 137.608 9.45052 137.718 9.57812C137.832 9.70117 138.032 9.7627 138.319 9.7627C138.511 9.7627 138.704 9.73991 138.9 9.69434V10.9795C138.522 11.0843 138.158 11.1367 137.807 11.1367C136.531 11.1367 135.893 10.4326 135.893 9.02441V4.83398H134.676V3.60352H135.893V1.80566H137.554ZM154.184 11H152.461V6.57715H148.011V11H146.281V1.04688H148.011V5.18945H152.461V1.04688H154.184V11ZM157.013 7.2334C157.013 6.50879 157.156 5.8571 157.443 5.27832C157.73 4.69499 158.134 4.24837 158.653 3.93848C159.173 3.62402 159.77 3.4668 160.444 3.4668C161.442 3.4668 162.251 3.78809 162.871 4.43066C163.495 5.07324 163.833 5.92546 163.883 6.9873L163.89 7.37695C163.89 8.10612 163.748 8.75781 163.466 9.33203C163.188 9.90625 162.787 10.3506 162.263 10.665C161.743 10.9795 161.142 11.1367 160.458 11.1367C159.414 11.1367 158.578 10.7904 157.949 10.0977C157.325 9.40039 157.013 8.47298 157.013 7.31543V7.2334ZM158.674 7.37695C158.674 8.13802 158.831 8.73503 159.146 9.16797C159.46 9.59635 159.897 9.81055 160.458 9.81055C161.019 9.81055 161.454 9.5918 161.764 9.1543C162.078 8.7168 162.235 8.0765 162.235 7.2334C162.235 6.486 162.074 5.89355 161.75 5.45605C161.431 5.01855 160.996 4.7998 160.444 4.7998C159.902 4.7998 159.471 5.01628 159.152 5.44922C158.833 5.8776 158.674 6.52018 158.674 7.37695ZM170.69 8.99023C170.69 8.69401 170.567 8.46842 170.321 8.31348C170.08 8.15853 169.676 8.02181 169.111 7.90332C168.546 7.78483 168.075 7.63444 167.696 7.45215C166.867 7.05111 166.452 6.47005 166.452 5.70898C166.452 5.07096 166.721 4.53776 167.259 4.10938C167.797 3.68099 168.48 3.4668 169.31 3.4668C170.194 3.4668 170.907 3.68555 171.449 4.12305C171.996 4.56055 172.27 5.12793 172.27 5.8252H170.608C170.608 5.50618 170.49 5.24186 170.253 5.03223C170.016 4.81803 169.701 4.71094 169.31 4.71094C168.945 4.71094 168.646 4.79525 168.414 4.96387C168.186 5.13249 168.072 5.35807 168.072 5.64062C168.072 5.89583 168.179 6.09408 168.394 6.23535C168.608 6.37663 169.041 6.52018 169.692 6.66602C170.344 6.80729 170.854 6.97819 171.224 7.17871C171.597 7.37467 171.873 7.61165 172.051 7.88965C172.233 8.16764 172.324 8.50488 172.324 8.90137C172.324 9.56673 172.049 10.1068 171.497 10.5215C170.946 10.9316 170.223 11.1367 169.33 11.1367C168.724 11.1367 168.184 11.0273 167.71 10.8086C167.236 10.5898 166.867 10.2891 166.603 9.90625C166.338 9.52344 166.206 9.111 166.206 8.66895H167.819C167.842 9.06087 167.99 9.36393 168.264 9.57812C168.537 9.78776 168.899 9.89258 169.351 9.89258C169.788 9.89258 170.121 9.81055 170.349 9.64648C170.576 9.47786 170.69 9.25911 170.69 8.99023ZM177.108 1.80566V3.60352H178.414V4.83398H177.108V8.96289C177.108 9.24544 177.163 9.45052 177.272 9.57812C177.386 9.70117 177.587 9.7627 177.874 9.7627C178.065 9.7627 178.259 9.73991 178.455 9.69434V10.9795C178.077 11.0843 177.712 11.1367 177.361 11.1367C176.085 11.1367 175.447 10.4326 175.447 9.02441V4.83398H174.23V3.60352H175.447V1.80566H177.108Z" fill="#2C7973"/>
</svg>
