<svg width="20" height="20" viewBox="0 0 20 20" fill="none" xmlns="http://www.w3.org/2000/svg">
<path d="M20 19.1172L13.2227 12.3398C14.3281 11.0312 15 9.34375 15 7.5C15 3.36328 11.6367 0 7.5 0C3.36328 0 0 3.36328 0 7.5C0 11.6367 3.36328 15 7.5 15C9.34375 15 11.0312 14.3281 12.3398 13.2227L19.1172 20L20 19.1172ZM7.5 13.75C4.05469 13.75 1.25 10.9453 1.25 7.5C1.25 4.05469 4.05469 1.25 7.5 1.25C10.9453 1.25 13.75 4.05469 13.75 7.5C13.75 10.9453 10.9453 13.75 7.5 13.75Z" fill="#00D654"/>
<path d="M8.33193 6.95697C7.98428 6.414 7.39053 6.08588 6.74209 6.08588C6.09756 6.08588 5.4999 6.41009 5.15225 6.95697L4.3124 8.26946C4.17178 8.48821 4.10928 8.73821 4.1249 8.99602C4.14443 9.25383 4.24209 9.49602 4.41006 9.69133C4.57803 9.88664 4.80068 10.0234 5.05068 10.078C5.30459 10.1366 5.5624 10.1093 5.79678 10.0077L5.8124 9.99992C6.41006 9.74211 7.08975 9.74602 7.6835 10.0077C7.83584 10.0741 7.9999 10.1093 8.16397 10.1093C8.25381 10.1093 8.34365 10.0976 8.42959 10.078C8.6835 10.0195 8.90225 9.88664 9.07022 9.69133C9.23818 9.49602 9.33584 9.25383 9.35537 8.99602C9.3749 8.73821 9.3085 8.48821 9.16787 8.26946L8.33193 6.95697ZM8.73037 9.39446C8.51553 9.64446 8.17178 9.72258 7.871 9.58977C7.51162 9.43352 7.12881 9.3554 6.746 9.3554C6.36318 9.3554 5.97646 9.43352 5.621 9.58977L5.60928 9.59368C5.3124 9.71868 4.96865 9.64055 4.75772 9.39446C4.54287 9.14446 4.51943 8.78899 4.69912 8.51165L5.53897 7.19915C5.80459 6.78509 6.25381 6.539 6.746 6.539C7.23818 6.539 7.6874 6.78509 7.95303 7.19915L8.78897 8.51556C8.96865 8.7929 8.94131 9.14446 8.73037 9.39446Z" fill="#00D654" stroke="#00D654" stroke-width="0.3"/>
<path d="M4.53917 6.95699C4.78918 6.85934 4.98058 6.66012 5.07433 6.39059C5.16418 6.13277 5.15636 5.84371 5.0548 5.57418C4.94933 5.30465 4.76183 5.0859 4.52355 4.95308C4.27355 4.81636 3.99621 4.79293 3.7462 4.89058C3.2423 5.08199 3.01183 5.70308 3.23058 6.2734C3.40636 6.72652 3.81261 7.01559 4.22667 7.01559C4.33214 7.01559 4.43761 6.99606 4.53917 6.95699ZM3.65245 6.10933C3.52355 5.7734 3.63683 5.41402 3.90636 5.31246C3.95324 5.29293 4.00792 5.28511 4.05871 5.28511C4.14074 5.28511 4.22277 5.30855 4.3048 5.35152C4.44933 5.42965 4.56652 5.56637 4.62902 5.73433C4.69543 5.9023 4.69933 6.08199 4.64464 6.23824C4.59386 6.37887 4.50011 6.48434 4.37511 6.53121C4.10558 6.63668 3.78136 6.44527 3.65245 6.10933Z" fill="#00D654" stroke="#00D654" stroke-width="0.3"/>
<path d="M6.16772 5.9297C6.79663 5.9297 7.30835 5.34766 7.30835 4.63282C7.30835 3.91797 6.79663 3.33594 6.16772 3.33594C5.53882 3.33594 5.0271 3.91797 5.0271 4.63282C5.03101 5.34766 5.54272 5.9297 6.16772 5.9297ZM6.16772 3.78906C6.54663 3.78906 6.85132 4.16797 6.85132 4.63282C6.85132 5.09766 6.54272 5.47657 6.16772 5.47657C5.78882 5.47657 5.48413 5.09766 5.48413 4.63282C5.48413 4.16797 5.79272 3.78906 6.16772 3.78906Z" fill="#00D654" stroke="#00D654" stroke-width="0.3"/>
<path d="M8.13674 6.24608C8.2344 6.27733 8.33206 6.29296 8.42971 6.29296C8.88674 6.29296 9.33205 5.96092 9.50393 5.44921C9.60158 5.15624 9.59377 4.84374 9.4844 4.5703C9.37112 4.28514 9.15627 4.08202 8.88674 3.98827C8.6133 3.89842 8.32034 3.93749 8.05862 4.09374C7.80862 4.24608 7.61721 4.49217 7.51956 4.78514C7.31253 5.41014 7.58987 6.06639 8.13674 6.24608ZM7.94924 4.93358C8.01174 4.74217 8.13674 4.58202 8.29299 4.48827C8.43752 4.39842 8.59768 4.37889 8.74221 4.42577C8.88674 4.47264 9.00002 4.58592 9.06252 4.74608C9.13284 4.91796 9.13283 5.11717 9.07034 5.30858C8.94143 5.69139 8.58596 5.92186 8.27737 5.8203C7.96877 5.71483 7.82424 5.31639 7.94924 4.93358Z" fill="#00D654" stroke="#00D654" stroke-width="0.3"/>
<path d="M10.535 6.09769C10.1014 5.77737 9.45295 5.918 9.08967 6.40628C8.72639 6.89847 8.78498 7.55863 9.21467 7.87504C9.37092 7.99223 9.55842 8.04691 9.74983 8.04691C10.0819 8.04691 10.4295 7.87894 10.66 7.56644C11.0233 7.07816 10.9686 6.418 10.535 6.09769ZM10.2967 7.29691C10.0819 7.58597 9.71858 7.68363 9.48811 7.51176C9.25764 7.33988 9.24201 6.96488 9.45686 6.67581C9.59748 6.48441 9.80842 6.37503 9.99983 6.37503C10.0975 6.37503 10.1873 6.40238 10.2655 6.46097C10.4959 6.63285 10.5076 7.00785 10.2967 7.29691Z" fill="#00D654" stroke="#00D654" stroke-width="0.3"/>
</svg>
