<svg width="30" height="32" viewBox="0 0 30 32" fill="none" xmlns="http://www.w3.org/2000/svg">
<path d="M16.9241 19.7671H16.3039V16.7283C16.3039 16.5577 16.1644 16.4182 15.9938 16.4182C15.8233 16.4182 15.6838 16.5577 15.6838 16.7283V19.7671H7.62148V13.5654H10.203C10.3735 13.5654 10.513 13.4258 10.513 13.2553C10.513 13.0847 10.3735 12.9452 10.203 12.9452H7.31139C7.14085 12.9452 7.00131 13.0847 7.00131 13.2553V19.7671H6.38113C6.21058 19.7671 6.07104 19.9067 6.07104 20.0772V20.6974C6.07104 21.554 6.76487 22.2478 7.62148 22.2478H15.6838C16.5404 22.2478 17.2342 21.554 17.2342 20.6974V20.0772C17.2342 19.9067 17.0947 19.7671 16.9241 19.7671ZM16.614 20.6974C16.614 21.2129 16.1993 21.6276 15.6838 21.6276H15.0636V21.3176C15.0636 21.147 14.924 21.0075 14.7535 21.0075C14.5829 21.0075 14.4434 21.147 14.4434 21.3176V21.6276H8.86183V21.3176C8.86183 21.147 8.72229 21.0075 8.55174 21.0075C8.3812 21.0075 8.24166 21.147 8.24166 21.3176V21.6276H7.62148C7.10596 21.6276 6.69122 21.2129 6.69122 20.6974V20.3873H16.614V20.6974Z" fill="#00D654"/>
<path d="M22.1957 5.50299H22.8159C22.9864 5.50299 23.126 5.36345 23.126 5.1929C23.126 5.02235 22.9864 4.88281 22.8159 4.88281H22.1957C21.6802 4.88281 21.2654 5.29755 21.2654 5.81308V6.12316H20.9554C20.7848 6.12316 20.6453 6.2627 20.6453 6.43325C20.6453 6.6038 20.7848 6.74334 20.9554 6.74334H21.2654V7.6736C21.2654 7.84415 21.405 7.98369 21.5755 7.98369C21.7461 7.98369 21.8856 7.84415 21.8856 7.6736V6.74334H22.1957C22.3662 6.74334 22.5058 6.6038 22.5058 6.43325C22.5058 6.2627 22.3662 6.12316 22.1957 6.12316H21.8856V5.81308C21.8856 5.64253 22.0252 5.50299 22.1957 5.50299Z" fill="#00D654"/>
<path d="M23.746 3.64258H20.025C19.5095 3.64258 19.0947 4.05732 19.0947 4.57284V5.19302C19.0947 5.36356 19.2343 5.5031 19.4048 5.5031C19.5754 5.5031 19.7149 5.36356 19.7149 5.19302V4.57284C19.7149 4.40229 19.8544 4.26275 20.025 4.26275H23.746C23.9166 4.26275 24.0561 4.40229 24.0561 4.57284V8.29389C24.0561 8.46444 23.9166 8.60398 23.746 8.60398H20.025C19.8544 8.60398 19.7149 8.46444 19.7149 8.29389V6.43337C19.7149 6.26282 19.5754 6.12328 19.4048 6.12328C19.2343 6.12328 19.0947 6.26282 19.0947 6.43337V8.29389C19.0947 8.80941 19.5095 9.22415 20.025 9.22415H23.746C24.2616 9.22415 24.6763 8.80941 24.6763 8.29389V4.57284C24.6763 4.05732 24.2616 3.64258 23.746 3.64258Z" fill="#00D654"/>
<path d="M20.6453 16.046C20.6453 16.7321 21.1995 17.2864 21.8856 17.2864C22.5717 17.2864 23.126 16.7321 23.126 16.046C23.126 15.3599 22.5717 14.8057 21.8856 14.8057C21.1995 14.8057 20.6453 15.3599 20.6453 16.046ZM22.5058 16.046C22.5058 16.3871 22.2267 16.6662 21.8856 16.6662C21.5445 16.6662 21.2654 16.3871 21.2654 16.046C21.2654 15.7049 21.5445 15.4258 21.8856 15.4258C22.2267 15.4258 22.5058 15.7049 22.5058 16.046Z" fill="#00D654"/>
<path d="M23.746 13.2551H20.025C19.5095 13.2551 19.0947 13.6699 19.0947 14.1854V17.9064C19.0947 18.4219 19.5095 18.8367 20.025 18.8367H23.746C24.2616 18.8367 24.6763 18.4219 24.6763 17.9064V17.2863C24.6763 17.1157 24.5368 16.9762 24.3662 16.9762C24.1957 16.9762 24.0561 17.1157 24.0561 17.2863V17.9064C24.0561 18.077 23.9166 18.2165 23.746 18.2165H20.025C19.8544 18.2165 19.7149 18.077 19.7149 17.9064V14.1854C19.7149 14.0148 19.8544 13.8753 20.025 13.8753H23.746C23.9166 13.8753 24.0561 14.0148 24.0561 14.1854V16.0459C24.0561 16.2165 24.1957 16.356 24.3662 16.356C24.5368 16.356 24.6763 16.2165 24.6763 16.0459V14.1854C24.6763 13.6699 24.2616 13.2551 23.746 13.2551Z" fill="#00D654"/>
<path d="M13.0404 7.31702C13.0907 7.34803 13.145 7.36353 13.2032 7.36353C13.2535 7.36353 13.3001 7.35191 13.3427 7.32865L15.2032 6.39839C15.3544 6.32086 15.4164 6.13481 15.3389 5.97977C15.3079 5.92163 15.2614 5.87511 15.2032 5.84411L13.3427 4.91384C13.1915 4.83632 13.0016 4.89834 12.928 5.04951C12.9047 5.09214 12.8931 5.13866 12.8931 5.18905V7.04957C12.8931 7.16198 12.9473 7.25888 13.0404 7.31702ZM13.5132 5.69681L14.3699 6.12318L13.5132 6.54955V5.69681Z" fill="#00D654"/>
<path d="M13.8233 8.91397C15.3659 8.91397 16.614 7.66587 16.614 6.12319C16.614 4.5805 15.3659 3.3324 13.8233 3.3324C12.2806 3.3324 11.0325 4.5805 11.0325 6.12319C11.0325 7.66587 12.2806 8.91397 13.8233 8.91397ZM13.8233 3.95257C15.021 3.95257 15.9939 4.92547 15.9939 6.12319C15.9939 7.3209 15.021 8.2938 13.8233 8.2938C12.6255 8.2938 11.6526 7.3209 11.6526 6.12319C11.6526 4.92547 12.6255 3.95257 13.8233 3.95257Z" fill="#00D654"/>
<path d="M16.9243 10.1543C17.0212 10.1543 17.1142 10.1078 17.1724 10.0303L18.1026 8.78996C18.2034 8.6543 18.1763 8.45661 18.0406 8.35584C17.9049 8.25506 17.7111 8.28219 17.6065 8.41785L16.6762 9.6582C16.5716 9.79387 16.6026 9.98767 16.7382 10.0923C16.7925 10.1311 16.8584 10.1543 16.9243 10.1543Z" fill="#00D654"/>
<path d="M17.6064 11.2706C17.6645 11.3481 17.7576 11.3946 17.8545 11.3946C17.9204 11.3946 17.9863 11.3714 18.0405 11.3326L19.2809 10.4023C19.4165 10.2977 19.4475 10.1039 19.3429 9.96823C19.2382 9.83256 19.0444 9.80155 18.9088 9.90621L17.6684 10.8365C17.5328 10.9411 17.5017 11.1349 17.6064 11.2706Z" fill="#00D654"/>
<path d="M20.6451 11.9528C20.6141 11.7861 20.4552 11.6737 20.2846 11.7008C20.2807 11.7008 20.2769 11.7008 20.273 11.7047L18.7225 12.0148C18.552 12.0303 18.4279 12.1853 18.4434 12.3559C18.459 12.5264 18.614 12.6504 18.7845 12.6349H18.8466L20.397 12.3249C20.5637 12.2939 20.6761 12.1349 20.649 11.9644C20.6451 11.9605 20.6451 11.9566 20.6451 11.9528Z" fill="#00D654"/>
<path d="M6.38113 12.0148H10.1022C10.2727 12.0148 10.4123 11.8753 10.4123 11.7047V6.74332C10.4123 6.57277 10.2727 6.43323 10.1022 6.43323H6.38113C6.21058 6.43323 6.07104 6.57277 6.07104 6.74332V11.7047C6.07104 11.8753 6.21058 12.0148 6.38113 12.0148ZM6.69122 7.0534H9.79209V11.3946H6.69122V7.0534Z" fill="#00D654"/>
<path d="M8.8619 7.67358H8.24173C8.07118 7.67358 7.93164 7.81312 7.93164 7.98367C7.93164 8.15422 8.07118 8.29377 8.24173 8.29377H8.8619C9.03245 8.29377 9.17199 8.15422 9.17199 7.98367C9.17199 7.81312 9.03245 7.67358 8.8619 7.67358Z" fill="#00D654"/>
<path d="M8.86172 8.91394H7.62137C7.45082 8.91394 7.31128 9.05348 7.31128 9.22403C7.31128 9.39458 7.45082 9.53411 7.62137 9.53411H8.86172C9.03227 9.53411 9.1718 9.39458 9.1718 9.22403C9.1718 9.05348 9.03227 8.91394 8.86172 8.91394Z" fill="#00D654"/>
<path d="M8.86172 10.1543H7.62137C7.45082 10.1543 7.31128 10.2938 7.31128 10.4644C7.31128 10.6349 7.45082 10.7745 7.62137 10.7745H8.86172C9.03227 10.7745 9.1718 10.6349 9.1718 10.4644C9.1718 10.2938 9.03227 10.1543 8.86172 10.1543Z" fill="#00D654"/>
<path d="M16.6527 11.9218C16.5674 11.7745 16.3775 11.7202 16.2263 11.8055C16.079 11.8908 16.0248 12.0807 16.11 12.2319L17.4783 14.5963L12.5169 16.4568C12.5169 16.4568 12.5169 16.4568 12.4936 16.4568H12.4704L11.6642 16.922L11.1293 17.232C10.9858 17.3134 10.8153 17.3367 10.6564 17.2941C10.4975 17.2514 10.3618 17.1468 10.2804 17.0072L9.66023 15.9336C9.50906 15.6428 9.60984 15.2824 9.89279 15.1157L10.9665 14.4955L11.7417 15.8367C11.796 15.9336 11.9006 15.9917 12.013 15.9917C12.1836 15.9917 12.3231 15.856 12.3231 15.6816C12.3231 15.6273 12.3076 15.5731 12.2805 15.5266L11.482 14.1467L15.3736 10.9373L15.5015 11.1582C15.5868 11.3055 15.7767 11.3598 15.9279 11.2745C16.0752 11.1892 16.1294 10.9993 16.0442 10.8481L15.7341 10.3132C15.6876 10.2357 15.61 10.1814 15.5209 10.1659C15.4317 10.1504 15.3387 10.1737 15.2651 10.2318L10.9238 13.8095L9.59821 14.5653C9.10982 14.8483 8.87725 15.4258 9.02842 15.9684L8.71833 16.1467C8.27258 16.4026 8.11754 16.9723 8.37336 17.4181C8.4974 17.6313 8.69895 17.7902 8.93927 17.8522C9.01679 17.8716 9.09819 17.8832 9.17959 17.8832C9.34239 17.8832 9.50131 17.8406 9.64472 17.7592L9.95481 17.5809C10.1021 17.7359 10.292 17.8445 10.4975 17.9026C10.6021 17.9336 10.7145 17.9452 10.8231 17.9452C11.0401 17.9452 11.2533 17.8871 11.4432 17.7786L11.7146 17.6235L12.3347 18.7011C12.5906 19.143 13.1603 19.298 13.6022 19.0422C14.048 18.7864 14.1991 18.2166 13.9433 17.7708L13.3774 16.7863L18.0287 15.0421C18.114 15.011 18.1799 14.9413 18.2109 14.856C18.2419 14.7707 18.2341 14.6777 18.1876 14.6002L16.6527 11.9218ZM9.32688 17.2204C9.25711 17.2631 9.17184 17.2747 9.09044 17.2514C9.01292 17.232 8.94315 17.1778 8.90051 17.108C8.85787 17.0382 8.84625 16.953 8.8695 16.8716C8.89276 16.7902 8.94315 16.7243 9.01679 16.6816L9.28812 16.5266L9.59821 17.0615L9.32688 17.2204ZM13.4084 18.0887C13.451 18.1584 13.4627 18.2437 13.4394 18.3251C13.4162 18.4026 13.3658 18.4724 13.2921 18.5112C13.1448 18.5964 12.9549 18.546 12.8696 18.3987L12.2495 17.3212L12.765 17.0266H12.7882L13.4084 18.0887Z" fill="#00D654"/>
<path d="M18.502 22.7082C18.9037 22.6545 19.3293 23.0625 19.4518 23.6254C19.5744 24.1851 19.3531 24.6848 18.9514 24.7418C18.553 24.7987 18.1241 24.3907 17.9981 23.8278C17.8721 23.268 18.1002 22.7683 18.502 22.7082ZM20.9362 22.7082C21.3413 22.7683 21.566 23.268 21.4469 23.8278C21.3175 24.3907 20.8919 24.7987 20.4902 24.7418C20.0851 24.6848 19.8638 24.1851 19.9897 23.6254C20.1123 23.0625 20.5378 22.6545 20.9362 22.7082ZM16.6806 24.163C17.0687 24.008 17.5964 24.2895 17.8721 24.7797C18.1309 25.2794 18.0424 25.8044 17.6576 25.9593C17.2729 26.1143 16.7486 25.836 16.4797 25.3395C16.2107 24.843 16.3061 24.3148 16.6806 24.163ZM22.8086 24.163C23.1831 24.3148 23.2785 24.843 23.0095 25.3395C22.7406 25.836 22.2163 26.1143 21.8316 25.9593C21.4468 25.8044 21.3583 25.2794 21.6171 24.7797C21.8928 24.2895 22.4205 24.008 22.8086 24.163ZM22.2401 27.5722C22.2537 27.8695 22.0086 28.1984 21.7158 28.3217C21.1064 28.5811 20.3846 28.0434 19.7072 28.0434C19.0297 28.0434 18.3011 28.6032 17.7019 28.3217C17.3615 28.1668 17.1265 27.7556 17.1708 27.4141C17.2321 26.9429 17.8415 26.6899 18.2024 26.3452C18.6824 25.8992 19.0228 25.0612 19.7072 25.0612C20.3881 25.0612 20.7489 25.8866 21.2085 26.3452C21.5864 26.731 22.2163 27.0567 22.2401 27.5722Z" fill="#00D654"/>
</svg>
