<svg width="20" height="20" viewBox="0 0 20 20" fill="none" xmlns="http://www.w3.org/2000/svg">
<g clip-path="url(#clip0)">
<path d="M18.4688 4.28125H17.6953C17.5352 4.28125 17.4023 4.41016 17.4023 4.57422C17.4023 4.73438 17.5312 4.86719 17.6953 4.86719H18.4688C18.9062 4.86719 19.2656 5.22656 19.2656 5.66406V15.5039H17.4062C17.2461 15.5039 17.1133 15.6328 17.1133 15.7969C17.1133 15.9609 17.2422 16.0898 17.4062 16.0898H19.2656V16.3828C19.2656 16.8203 18.9102 17.1797 18.4688 17.1797H1.37891C0.941406 17.1797 0.582031 16.8242 0.582031 16.3828V16.0898H16.1602C16.3203 16.0898 16.4531 15.9609 16.4531 15.7969C16.4531 15.6328 16.3242 15.5039 16.1602 15.5039H0.585938V14.6484C0.585938 14.4883 0.457031 14.3555 0.292969 14.3555C0.128906 14.3555 0 14.4883 0 14.6484V16.3789C0 17.1406 0.621094 17.7578 1.37891 17.7578H6.31641V18.4883L4.78516 19.4141H4.11328C3.95313 19.4141 3.82031 19.543 3.82031 19.707C3.82031 19.8711 3.94922 20 4.11328 20H15.7617C15.9219 20 16.0547 19.8711 16.0547 19.707C16.0547 19.543 15.9258 19.4141 15.7617 19.4141H15.0586L13.5273 18.4883V17.7578H18.4648C19.2266 17.7578 19.8438 17.1367 19.8438 16.3789V5.66406C19.8516 4.90234 19.2305 4.28125 18.4688 4.28125ZM13.0898 18.9024L13.9375 19.4141H5.91406L6.76172 18.9024C6.84766 18.8477 6.90234 18.7539 6.90234 18.6524V17.7578H12.9492V18.6524C12.9492 18.7578 13 18.8516 13.0898 18.9024Z" fill="#00D654"/>
<path d="M0.292969 13.6953C0.453125 13.6953 0.585938 13.5664 0.585938 13.4023V5.66406C0.585938 5.22656 0.941406 4.86719 1.38281 4.86719H1.81641C1.97656 4.86719 2.10938 4.73828 2.10938 4.57422C2.10938 4.41406 1.98047 4.28125 1.81641 4.28125H1.37891C0.621094 4.28125 0 4.90234 0 5.66406V13.4062C0 13.5664 0.128906 13.6953 0.292969 13.6953Z" fill="#00D654"/>
<path d="M8.05103 10.6484C9.30884 10.6484 10.4651 10.2109 11.3791 9.47656H16.2971C16.5432 9.47656 16.7424 9.27734 16.7424 9.03125V2.80078C16.7424 2.55469 16.5432 2.35547 16.2971 2.35547H12.469C12.2424 2.01953 11.9768 1.70703 11.676 1.42578C11.5588 1.31641 11.3713 1.32422 11.262 1.44141C11.1526 1.55859 11.1604 1.74609 11.2776 1.85547C12.2385 2.75 12.7932 4.01562 12.7932 5.32812C12.7932 7.94141 10.6682 10.0664 8.05493 10.0664C5.44165 10.0664 3.30884 7.9375 3.30884 5.32422C3.30884 2.71094 5.43384 0.585938 8.05103 0.585938C8.84399 0.585938 9.62915 0.785156 10.3245 1.16406C10.4651 1.24219 10.6448 1.19141 10.719 1.04688C10.7971 0.90625 10.7463 0.726562 10.6018 0.652344C9.82446 0.226563 8.94165 0 8.05103 0C5.11353 0 2.72681 2.38672 2.72681 5.32422C2.72681 8.26172 5.11353 10.6484 8.05103 10.6484ZM13.3713 5.32422C13.3713 4.99219 13.3401 4.66016 13.2776 4.33594H16.1565V7.49219H12.9104C13.2073 6.83203 13.3713 6.09766 13.3713 5.32422ZM14.0745 3.75391V2.9375H14.8167V3.75391H14.0745ZM14.8167 8.07812V8.89453H14.0745V8.07812H14.8167ZM12.6018 8.07812H13.4885V8.89453H11.9924C12.2229 8.64062 12.426 8.37109 12.6018 8.07812ZM15.3987 8.89453V8.07812H16.1565V8.89453H15.3987ZM16.1565 3.75391H15.3987V2.9375H16.1565V3.75391ZM13.4885 2.9375V3.75391H13.1331C13.0471 3.47266 12.9377 3.19922 12.8049 2.9375H13.4885Z" fill="#00D654"/>
<path d="M9.62109 5.32422C9.62109 4.45703 8.91797 3.75391 8.05078 3.75391C7.18359 3.75391 6.48047 4.45703 6.48047 5.32422C6.48047 6.19141 7.18359 6.89453 8.05078 6.89453C8.91797 6.89453 9.62109 6.19141 9.62109 5.32422ZM8.05078 6.3125C7.50781 6.3125 7.0625 5.8711 7.0625 5.32422C7.0625 4.77734 7.50391 4.33594 8.05078 4.33594C8.59765 4.33594 9.03906 4.77734 9.03906 5.32422C9.03906 5.8711 8.59375 6.3125 8.05078 6.3125Z" fill="#00D654"/>
<path d="M9.00391 2.25781C9.00391 1.73047 8.57422 1.30078 8.04688 1.30078C7.51953 1.30078 7.08984 1.73047 7.08984 2.25781C7.08984 2.78516 7.51953 3.21485 8.04688 3.21485C8.57812 3.21485 9.00391 2.78516 9.00391 2.25781ZM7.67578 2.25781C7.67578 2.05078 7.84375 1.88672 8.04688 1.88672C8.25391 1.88672 8.41797 2.05469 8.41797 2.25781C8.41797 2.46094 8.25 2.62891 8.04688 2.62891C7.84375 2.62891 7.67578 2.46094 7.67578 2.25781Z" fill="#00D654"/>
<path d="M10.1602 5.32422C10.1602 5.85156 10.5898 6.28125 11.1172 6.28125C11.6445 6.28125 12.0742 5.85156 12.0742 5.32422C12.0742 4.79688 11.6445 4.36719 11.1172 4.36719C10.5898 4.36719 10.1602 4.79688 10.1602 5.32422ZM11.1172 4.95312C11.3242 4.95312 11.4883 5.12109 11.4883 5.32422C11.4883 5.53125 11.3203 5.69531 11.1172 5.69531C10.9102 5.69531 10.7461 5.52734 10.7461 5.32422C10.7422 5.11719 10.9102 4.95312 11.1172 4.95312Z" fill="#00D654"/>
<path d="M7.09375 8.39062C7.09375 8.91797 7.52344 9.34766 8.05078 9.34766C8.57812 9.34766 9.00781 8.91797 9.00781 8.39062C9.00781 7.86328 8.57812 7.43359 8.05078 7.43359C7.52344 7.43359 7.09375 7.86328 7.09375 8.39062ZM8.42188 8.39062C8.42188 8.59766 8.25391 8.76172 8.05078 8.76172C7.84375 8.76172 7.67969 8.59375 7.67969 8.39062C7.67969 8.1875 7.84766 8.01953 8.05078 8.01953C8.25391 8.01953 8.42188 8.18359 8.42188 8.39062Z" fill="#00D654"/>
<path d="M4.02734 5.32422C4.02734 5.85156 4.45703 6.28125 4.98437 6.28125C5.51172 6.28125 5.9414 5.85156 5.9414 5.32422C5.9414 4.79688 5.51172 4.36719 4.98437 4.36719C4.45312 4.36719 4.02734 4.79688 4.02734 5.32422ZM5.35547 5.32422C5.35547 5.53125 5.1875 5.69531 4.98437 5.69531C4.77734 5.69531 4.61328 5.52734 4.61328 5.32422C4.61328 5.11719 4.78125 4.95312 4.98437 4.95312C5.1875 4.95312 5.35547 5.11719 5.35547 5.32422Z" fill="#00D654"/>
<path d="M9.74634 11.6093C9.48071 11.4726 9.16821 11.4883 8.91431 11.6445C8.6604 11.8008 8.50806 12.0703 8.50806 12.3711V13.4687C8.50806 13.7656 8.6604 14.039 8.91431 14.1953C9.05102 14.2812 9.20727 14.3203 9.35962 14.3203C9.49243 14.3203 9.62134 14.289 9.74634 14.2265L10.8284 13.6797C11.1174 13.5351 11.2971 13.2422 11.2971 12.9179C11.2971 12.5937 11.1174 12.3047 10.8284 12.1562L9.74634 11.6093ZM10.5666 13.1562L9.48462 13.7031C9.36352 13.7656 9.26196 13.7148 9.2229 13.6914C9.18384 13.6679 9.09399 13.5976 9.09399 13.4648V12.3672C9.09399 12.2304 9.18384 12.164 9.2229 12.1406C9.24634 12.125 9.29712 12.1015 9.36352 12.1015C9.39868 12.1015 9.44165 12.1093 9.48462 12.1328L10.5666 12.6797C10.6995 12.7461 10.7151 12.8672 10.7151 12.9179C10.7151 12.9648 10.6995 13.0898 10.5666 13.1562Z" fill="#00D654"/>
<path d="M1.92163 12.625C1.76147 12.625 1.62866 12.7539 1.62866 12.918C1.62866 13.0781 1.75757 13.2109 1.92163 13.2109H6.92554C7.08569 13.2109 7.21851 13.082 7.21851 12.918C7.21851 12.7578 7.0896 12.625 6.92554 12.625H1.92163Z" fill="#00D654"/>
<path d="M12.5901 12.918C12.5901 13.0781 12.719 13.2109 12.8831 13.2109H17.887C18.0471 13.2109 18.1799 13.082 18.1799 12.918C18.1799 12.7578 18.051 12.625 17.887 12.625H12.8831C12.7229 12.625 12.5901 12.7578 12.5901 12.918Z" fill="#00D654"/>
<path d="M8.18244 7.00752C8.77003 6.92259 9.39249 7.56704 9.57175 8.45628C9.75102 9.34053 9.42734 10.1299 8.83975 10.2198C8.25713 10.3097 7.6297 9.66526 7.44545 8.77601C7.26121 7.89176 7.59484 7.10243 8.18244 7.00752ZM11.7429 7.00752C12.3354 7.10243 12.6641 7.89176 12.4898 8.77601C12.3006 9.66526 11.6781 10.3097 11.0905 10.2198C10.498 10.1299 10.1743 9.34053 10.3585 8.45628C10.5378 7.56704 11.1603 6.92259 11.7429 7.00752ZM5.51834 9.30556C6.08602 9.06077 6.85786 9.50539 7.26121 10.2797C7.63966 11.0691 7.51019 11.8984 6.94749 12.1432C6.38479 12.3879 5.61793 11.9483 5.22454 11.164C4.83115 10.3797 4.97058 9.54536 5.51834 9.30556ZM14.4817 9.30556C15.0294 9.54536 15.1688 10.3797 14.7755 11.164C14.3821 11.9483 13.6152 12.3879 13.0525 12.1432C12.4898 11.8984 12.3603 11.0691 12.7388 10.2797C13.1421 9.50539 13.914 9.06077 14.4817 9.30556ZM13.6501 14.691C13.67 15.1606 13.3114 15.6801 12.8832 15.875C11.9918 16.2846 10.9362 15.4354 9.94522 15.4354C8.95428 15.4354 7.88864 16.3196 7.01223 15.875C6.51426 15.6302 6.17067 14.9807 6.23541 14.4412C6.32504 13.6968 7.21639 13.2972 7.74423 12.7526C8.44636 12.0482 8.94432 10.7244 9.94522 10.7244C10.9411 10.7244 11.469 12.0283 12.1412 12.7526C12.694 13.3621 13.6152 13.8767 13.6501 14.691Z" fill="#00D654"/>
</g>
<defs>
<clipPath id="clip0">
<rect width="19.8516" height="20" fill="white"/>
</clipPath>
</defs>
</svg>
