<svg width="40" height="40" viewBox="0 0 40 40" fill="none" xmlns="http://www.w3.org/2000/svg">
<circle cx="20" cy="20" r="19" stroke="#FFEA2F" stroke-width="2"/>
<g clip-path="url(#clip0)">
<path d="M9 20C9 22.7584 11.0222 30.6333 20.0066 30.6333C30.7008 30.6333 31 20.1056 31 20C30.9999 19.9248 30.9768 19.8515 30.9336 19.7899C30.5179 19.2158 30.071 18.665 29.5949 18.1399C30.0991 15.4037 29.7872 12.5796 28.6981 10.0193C28.5549 9.702 28.2702 9.47094 27.9303 9.39598C27.9211 9.39378 27.9116 9.39341 27.9028 9.39158C27.894 9.38974 27.8896 9.38901 27.8826 9.38828C27.6999 9.35514 27.5119 9.36876 27.3359 9.42788C24.3875 10.43 22.86 12.1804 22.1534 13.2727C20.7414 12.9512 19.2749 12.9525 17.8634 13.2768C17.1598 12.1848 15.6319 10.4322 12.6762 9.42678C12.5044 9.3701 12.321 9.35749 12.1431 9.39011C12.1317 9.39011 12.1211 9.39011 12.1097 9.39304C12.1038 9.39304 12.0972 9.39304 12.0914 9.39304C11.748 9.46717 11.4603 9.69985 11.3159 10.02C10.2291 12.5763 9.91654 15.3952 10.4168 18.1274C9.93616 18.6558 9.48532 19.2106 9.06637 19.7891C9.02308 19.8509 8.99991 19.9245 9 20ZM28.9643 17.4663C27.8153 16.2584 26.4944 15.2266 25.0442 14.4043C25.4729 13.3442 26.4009 11.4394 27.9105 10.1777C27.962 10.2139 28.0032 10.2629 28.03 10.32C28.9887 12.5717 29.3118 15.0431 28.9643 17.4656V17.4663ZM22.2312 14.0479C22.3896 14.0896 22.5565 14.0212 22.64 13.8803C23.556 12.4094 24.8963 11.2507 26.4841 10.5568C25.4036 11.8626 24.5797 13.361 24.0561 14.973C24.0282 15.0661 24.0384 15.1666 24.0845 15.2522C24.1307 15.3378 24.2089 15.4016 24.3021 15.4295C24.3364 15.4396 24.3719 15.4448 24.4077 15.4449C24.5695 15.4447 24.7122 15.3385 24.7586 15.1834C24.7586 15.1805 24.7707 15.1468 24.7865 15.0969C27.6516 16.6904 29.8465 19.5471 30.2619 20.1118C30.2579 20.1888 30.2491 20.3076 30.2348 20.4546C29.4363 20.3297 28.6472 20.1513 27.8727 19.9204C27.8639 19.9178 27.8547 19.9156 27.8456 19.9138C26.232 19.4718 24.7464 18.6532 23.5108 17.5253C23.2766 17.3052 23.0545 17.0727 22.8453 16.8287C22.11 15.9729 21.584 14.9577 21.309 13.8634C21.6196 13.9076 21.9275 13.9692 22.2312 14.0479ZM20.0073 13.7666C20.1874 13.7666 20.3648 13.7729 20.5401 13.7828C20.8209 15.0843 21.4218 16.2952 22.2884 17.3061C22.5142 17.5699 22.754 17.8214 23.0067 18.0596C24.3308 19.2711 25.9246 20.1497 27.656 20.6226C27.6641 20.6251 27.6721 20.627 27.6806 20.6292C28.4862 20.868 29.3069 21.0527 30.1372 21.1821C30.0962 21.4362 30.0415 21.7218 29.9697 22.032C29.1227 21.9123 28.2856 21.7304 27.4653 21.4879C27.1195 21.3813 26.7479 21.5455 26.5938 21.8729L26.3536 22.3782C25.8686 23.4542 24.6345 23.9725 23.5266 23.5654C22.9582 23.3428 22.5078 22.894 22.2833 22.3263C22.0587 21.7587 22.08 21.1233 22.3423 20.572L22.7716 19.67C22.9108 19.379 22.8417 19.031 22.6019 18.8153C22.2977 18.5376 22.0109 18.2413 21.7431 17.9283C20.7374 16.7362 20.0555 15.3053 19.7631 13.7732C19.8449 13.7714 19.9267 13.7666 20.0073 13.7666ZM17.382 13.8924C17.408 13.9324 17.4304 13.9731 17.452 14.0119L17.4751 14.0534C17.6144 14.297 17.7308 14.5531 17.8227 14.8182C17.881 15.0122 18.0854 15.1223 18.2794 15.0641C18.4734 15.0059 18.5835 14.8014 18.5253 14.6074C18.4486 14.379 18.3548 14.1568 18.2444 13.9426C18.5011 13.8898 18.7632 13.8506 19.0269 13.822C19.3339 15.5125 20.0789 17.0928 21.1876 18.4053C21.4744 18.742 21.7829 19.0595 22.1113 19.3557L21.6819 20.2566C21.3326 20.9912 21.3039 21.8379 21.6029 22.5944C21.9018 23.3509 22.5014 23.9493 23.2586 24.2467C23.5892 24.378 23.9416 24.4453 24.2973 24.4451C25.466 24.4329 26.524 23.7514 27.0184 22.6924L27.256 22.1897C28.085 22.4349 28.9305 22.6205 29.786 22.7452C28.9291 25.6756 26.5604 29.9 20.0073 29.9C10.5954 29.9 9.79897 21.2074 9.7381 20.11C10.1535 19.5457 12.3469 16.6897 15.2271 15.0951C15.2432 15.1438 15.2546 15.1794 15.2557 15.1823C15.3164 15.3732 15.519 15.48 15.7107 15.4223C15.9025 15.3646 16.0125 15.1638 15.9579 14.9711C15.4337 13.3593 14.6095 11.861 13.5287 10.5554C15.1212 11.2519 16.4648 12.4153 17.382 13.8917V13.8924ZM11.9854 10.32C12.0118 10.2632 12.0525 10.2141 12.1035 10.1777C13.609 11.4372 14.5392 13.3431 14.9693 14.4039C13.5194 15.2224 12.1983 16.2503 11.0486 17.4546C10.704 15.0354 11.028 12.5682 11.9854 10.32Z" fill="#00D654"/>
<path d="M18.1733 24.2771C18.1733 24.9661 19.0126 25.5604 19.6099 25.7779C19.5236 26.4932 18.8922 27.0157 18.1733 26.9666C17.9708 26.9666 17.8066 27.1308 17.8066 27.3333C17.8066 27.5358 17.9708 27.6999 18.1733 27.6999C18.9095 27.7444 19.6117 27.3853 20.0066 26.7624C20.4016 27.3853 21.1038 27.7444 21.84 27.6999C22.0425 27.6999 22.2066 27.5358 22.2066 27.3333C22.2066 27.1308 22.0425 26.9666 21.84 26.9666C21.1202 27.0194 20.4865 26.4958 20.4026 25.779C20.9999 25.563 21.84 24.9672 21.84 24.2778C21.84 23.3469 20.3128 23.2999 20.0066 23.2999C19.7005 23.2999 18.1733 23.3461 18.1733 24.2771ZM21.1066 24.2771C21.1066 24.6115 20.2692 25.1256 20.0066 25.1325C19.7434 25.1256 18.9066 24.6115 18.9037 24.2841C18.9653 24.1708 19.4709 24.0336 20.0063 24.0325C20.4851 24.0333 21.041 24.1594 21.1066 24.2771Z" fill="#00D654"/>
<path d="M13.8449 19.6395C13.6465 19.6002 13.4537 19.729 13.4141 19.9273C13.3812 20.0992 13.476 20.2699 13.6392 20.3329C13.4872 20.6916 13.4082 21.077 13.4067 21.4666C13.4067 22.8819 14.3934 24.0333 15.6067 24.0333C16.82 24.0333 17.8067 22.8819 17.8067 21.4666C17.8177 20.7221 17.5248 20.0053 16.9957 19.4815C17.1052 19.3381 17.0926 19.136 16.966 19.0074C16.8228 18.8642 16.5907 18.8642 16.4475 19.0074C15.5052 19.9482 13.8695 19.6446 13.8449 19.6395ZM17.0734 21.4666C17.0734 22.4775 16.4156 23.2999 15.6067 23.2999C14.7979 23.2999 14.1401 22.4775 14.1401 21.4666C14.1393 21.1022 14.2314 20.7435 14.4077 20.4245H14.491C15.1655 20.4375 15.8314 20.2712 16.4207 19.9427C16.8477 20.3329 17.0856 20.8883 17.0734 21.4666Z" fill="#00D654"/>
<path d="M16.2682 26.2399L14.4348 26.6065C14.2502 26.644 14.1241 26.8153 14.143 27.0027C14.1619 27.1901 14.3198 27.3327 14.5082 27.3325C14.5328 27.3326 14.5573 27.3303 14.5815 27.3256L16.4148 26.9589C16.5449 26.9348 16.6519 26.8426 16.6949 26.7175C16.7378 26.5925 16.7102 26.454 16.6224 26.355C16.5346 26.2561 16.4004 26.2121 16.2711 26.2399H16.2682Z" fill="#00D654"/>
<path d="M16.3401 25.1333C16.3401 24.9308 16.1759 24.7666 15.9734 24.7666H13.7734C13.5709 24.7666 13.4067 24.9308 13.4067 25.1333C13.4067 25.3358 13.5709 25.4999 13.7734 25.4999H15.9734C16.1759 25.4999 16.3401 25.3358 16.3401 25.1333Z" fill="#00D654"/>
<path d="M23.5934 26.959L25.4268 27.3256C25.4509 27.3306 25.4755 27.3332 25.5001 27.3333C25.6885 27.3335 25.8464 27.191 25.8653 27.0035C25.8842 26.8161 25.7581 26.6448 25.5734 26.6073L23.7401 26.2407C23.543 26.2042 23.3531 26.3328 23.3138 26.5294C23.2745 26.7259 23.4004 26.9176 23.5964 26.9597L23.5934 26.959Z" fill="#00D654"/>
<path d="M24.0332 25.4999H26.2332C26.4357 25.4999 26.5998 25.3358 26.5998 25.1333C26.5998 24.9308 26.4357 24.7666 26.2332 24.7666H24.0332C23.8307 24.7666 23.6665 24.9308 23.6665 25.1333C23.6665 25.3358 23.8307 25.4999 24.0332 25.4999Z" fill="#00D654"/>
</g>
<defs>
<clipPath id="clip0">
<rect width="22" height="22" fill="white" transform="translate(9 9)"/>
</clipPath>
</defs>
</svg>
