<svg width="149" height="14" viewBox="0 0 149 14" fill="none" xmlns="http://www.w3.org/2000/svg">
<path d="M1.74121 9.61914H6.25977V11H0.0117188V1.04688H1.74121V9.61914ZM8.36426 7.2334C8.36426 6.50879 8.50781 5.8571 8.79492 5.27832C9.08203 4.69499 9.48535 4.24837 10.0049 3.93848C10.5244 3.62402 11.1214 3.4668 11.7959 3.4668C12.7939 3.4668 13.6029 3.78809 14.2227 4.43066C14.847 5.07324 15.1842 5.92546 15.2344 6.9873L15.2412 7.37695C15.2412 8.10612 15.0999 8.75781 14.8174 9.33203C14.5394 9.90625 14.1383 10.3506 13.6143 10.665C13.0947 10.9795 12.4932 11.1367 11.8096 11.1367C10.766 11.1367 9.92969 10.7904 9.30078 10.0977C8.67643 9.40039 8.36426 8.47298 8.36426 7.31543V7.2334ZM10.0254 7.37695C10.0254 8.13802 10.1826 8.73503 10.4971 9.16797C10.8115 9.59635 11.249 9.81055 11.8096 9.81055C12.3701 9.81055 12.8053 9.5918 13.1152 9.1543C13.4297 8.7168 13.5869 8.0765 13.5869 7.2334C13.5869 6.486 13.4251 5.89355 13.1016 5.45605C12.7826 5.01855 12.3473 4.7998 11.7959 4.7998C11.2536 4.7998 10.8229 5.01628 10.5039 5.44922C10.1849 5.8776 10.0254 6.52018 10.0254 7.37695ZM20.9346 9.81055C21.3493 9.81055 21.6934 9.68978 21.9668 9.44824C22.2402 9.20671 22.3861 8.9082 22.4043 8.55273H23.9697C23.9515 9.01302 23.8079 9.44368 23.5391 9.84473C23.2702 10.2412 22.9056 10.5557 22.4453 10.7881C21.985 11.0205 21.4883 11.1367 20.9551 11.1367C19.9206 11.1367 19.1003 10.8018 18.4941 10.1318C17.888 9.46191 17.585 8.53678 17.585 7.35645V7.18555C17.585 6.0599 17.8857 5.15983 18.4873 4.48535C19.0889 3.80632 19.9092 3.4668 20.9482 3.4668C21.8278 3.4668 22.5433 3.72428 23.0947 4.23926C23.6507 4.74967 23.9424 5.42188 23.9697 6.25586H22.4043C22.3861 5.83203 22.2402 5.4834 21.9668 5.20996C21.6979 4.93652 21.3538 4.7998 20.9346 4.7998C20.3968 4.7998 19.9821 4.99577 19.6904 5.3877C19.3988 5.77507 19.2507 6.36523 19.2461 7.1582V7.4248C19.2461 8.22689 19.3896 8.82617 19.6768 9.22266C19.9684 9.61458 20.3877 9.81055 20.9346 9.81055ZM30.8936 11C30.8206 10.8587 30.7568 10.6286 30.7021 10.3096C30.1735 10.861 29.5264 11.1367 28.7607 11.1367C28.0179 11.1367 27.4118 10.9248 26.9424 10.501C26.473 10.0771 26.2383 9.55306 26.2383 8.92871C26.2383 8.1403 26.5299 7.53646 27.1133 7.11719C27.7012 6.69336 28.5397 6.48145 29.6289 6.48145H30.6475V5.99609C30.6475 5.61328 30.5404 5.30794 30.3262 5.08008C30.112 4.84766 29.7861 4.73145 29.3486 4.73145C28.9704 4.73145 28.6605 4.82715 28.4189 5.01855C28.1774 5.2054 28.0566 5.44466 28.0566 5.73633H26.3955C26.3955 5.33073 26.5299 4.95247 26.7988 4.60156C27.0677 4.24609 27.4323 3.9681 27.8926 3.76758C28.3574 3.56706 28.8747 3.4668 29.4443 3.4668C30.3102 3.4668 31.0007 3.68555 31.5156 4.12305C32.0306 4.55599 32.2949 5.16667 32.3086 5.95508V9.29102C32.3086 9.95638 32.402 10.4873 32.5889 10.8838V11H30.8936ZM29.0684 9.80371C29.3965 9.80371 29.7041 9.72396 29.9912 9.56445C30.2829 9.40495 30.5016 9.19076 30.6475 8.92188V7.52734H29.752C29.1367 7.52734 28.6742 7.63444 28.3643 7.84863C28.0544 8.06283 27.8994 8.36589 27.8994 8.75781C27.8994 9.07682 28.0042 9.33203 28.2139 9.52344C28.4281 9.71029 28.7129 9.80371 29.0684 9.80371ZM37.0654 11H35.4043V0.5H37.0654V11ZM48.5342 8.83301L51.0635 1.04688H52.9639L49.3818 11H47.707L44.1387 1.04688H46.0322L48.5342 8.83301ZM58.1377 11.1367C57.085 11.1367 56.2305 10.8063 55.5742 10.1455C54.9225 9.48014 54.5967 8.59603 54.5967 7.49316V7.28809C54.5967 6.5498 54.738 5.89128 55.0205 5.3125C55.3076 4.72917 55.7087 4.27572 56.2236 3.95215C56.7386 3.62858 57.3128 3.4668 57.9463 3.4668C58.9535 3.4668 59.7305 3.78809 60.2773 4.43066C60.8288 5.07324 61.1045 5.98242 61.1045 7.1582V7.82812H56.2715C56.3216 8.4388 56.5244 8.92188 56.8799 9.27734C57.2399 9.63281 57.6911 9.81055 58.2334 9.81055C58.9945 9.81055 59.6143 9.50293 60.0928 8.8877L60.9883 9.74219C60.6921 10.1842 60.2956 10.5283 59.7988 10.7744C59.3066 11.016 58.7529 11.1367 58.1377 11.1367ZM57.9395 4.7998C57.4837 4.7998 57.1146 4.95931 56.832 5.27832C56.554 5.59733 56.3763 6.04167 56.2988 6.61133H59.4639V6.48828C59.4274 5.93229 59.2793 5.51302 59.0195 5.23047C58.7598 4.94336 58.3997 4.7998 57.9395 4.7998ZM65.7314 1.80566V3.60352H67.0371V4.83398H65.7314V8.96289C65.7314 9.24544 65.7861 9.45052 65.8955 9.57812C66.0094 9.70117 66.21 9.7627 66.4971 9.7627C66.6885 9.7627 66.8822 9.73991 67.0781 9.69434V10.9795C66.6999 11.0843 66.3353 11.1367 65.9844 11.1367C64.7083 11.1367 64.0703 10.4326 64.0703 9.02441V4.83398H62.8535V3.60352H64.0703V1.80566H65.7314ZM73.708 8.99023C73.708 8.69401 73.585 8.46842 73.3389 8.31348C73.0973 8.15853 72.694 8.02181 72.1289 7.90332C71.5638 7.78483 71.0921 7.63444 70.7139 7.45215C69.8844 7.05111 69.4697 6.47005 69.4697 5.70898C69.4697 5.07096 69.7386 4.53776 70.2764 4.10938C70.8141 3.68099 71.4977 3.4668 72.3271 3.4668C73.2113 3.4668 73.9245 3.68555 74.4668 4.12305C75.0137 4.56055 75.2871 5.12793 75.2871 5.8252H73.626C73.626 5.50618 73.5075 5.24186 73.2705 5.03223C73.0335 4.81803 72.7191 4.71094 72.3271 4.71094C71.9626 4.71094 71.6641 4.79525 71.4316 4.96387C71.2038 5.13249 71.0898 5.35807 71.0898 5.64062C71.0898 5.89583 71.1969 6.09408 71.4111 6.23535C71.6253 6.37663 72.0583 6.52018 72.71 6.66602C73.3617 6.80729 73.8721 6.97819 74.2412 7.17871C74.6149 7.37467 74.8906 7.61165 75.0684 7.88965C75.2507 8.16764 75.3418 8.50488 75.3418 8.90137C75.3418 9.56673 75.0661 10.1068 74.5146 10.5215C73.9632 10.9316 73.2409 11.1367 72.3477 11.1367C71.7415 11.1367 71.2015 11.0273 70.7275 10.8086C70.2536 10.5898 69.8844 10.2891 69.6201 9.90625C69.3558 9.52344 69.2236 9.111 69.2236 8.66895H70.8369C70.8597 9.06087 71.0078 9.36393 71.2812 9.57812C71.5547 9.78776 71.917 9.89258 72.3682 9.89258C72.8057 9.89258 73.1383 9.81055 73.3662 9.64648C73.5941 9.47786 73.708 9.25911 73.708 8.99023ZM82.9414 11V1.04688H85.8809C86.7604 1.04688 87.5397 1.24284 88.2188 1.63477C88.9023 2.02669 89.431 2.58268 89.8047 3.30273C90.1784 4.02279 90.3652 4.84766 90.3652 5.77734V6.27637C90.3652 7.21973 90.1761 8.04915 89.7979 8.76465C89.4242 9.48014 88.8887 10.0316 88.1914 10.4189C87.4987 10.8063 86.7035 11 85.8057 11H82.9414ZM84.6709 2.44141V9.61914H85.7988C86.7057 9.61914 87.4007 9.33659 87.8838 8.77148C88.3714 8.20182 88.6198 7.38607 88.6289 6.32422V5.77051C88.6289 4.69043 88.3942 3.86556 87.9248 3.2959C87.4554 2.72624 86.7741 2.44141 85.8809 2.44141H84.6709ZM94.9443 11H93.2832V3.60352H94.9443V11ZM93.1807 1.68262C93.1807 1.42741 93.2604 1.21549 93.4199 1.04688C93.584 0.878255 93.8164 0.793945 94.1172 0.793945C94.418 0.793945 94.6504 0.878255 94.8145 1.04688C94.9785 1.21549 95.0605 1.42741 95.0605 1.68262C95.0605 1.93327 94.9785 2.1429 94.8145 2.31152C94.6504 2.47559 94.418 2.55762 94.1172 2.55762C93.8164 2.55762 93.584 2.47559 93.4199 2.31152C93.2604 2.1429 93.1807 1.93327 93.1807 1.68262ZM101.882 5.12109C101.663 5.08464 101.438 5.06641 101.205 5.06641C100.444 5.06641 99.9313 5.35807 99.667 5.94141V11H98.0059V3.60352H99.5918L99.6328 4.43066C100.034 3.78809 100.59 3.4668 101.301 3.4668C101.538 3.4668 101.734 3.4987 101.889 3.5625L101.882 5.12109ZM107.302 11.1367C106.249 11.1367 105.395 10.8063 104.738 10.1455C104.087 9.48014 103.761 8.59603 103.761 7.49316V7.28809C103.761 6.5498 103.902 5.89128 104.185 5.3125C104.472 4.72917 104.873 4.27572 105.388 3.95215C105.903 3.62858 106.477 3.4668 107.11 3.4668C108.118 3.4668 108.895 3.78809 109.441 4.43066C109.993 5.07324 110.269 5.98242 110.269 7.1582V7.82812H105.436C105.486 8.4388 105.688 8.92188 106.044 9.27734C106.404 9.63281 106.855 9.81055 107.397 9.81055C108.159 9.81055 108.778 9.50293 109.257 8.8877L110.152 9.74219C109.856 10.1842 109.46 10.5283 108.963 10.7744C108.471 11.016 107.917 11.1367 107.302 11.1367ZM107.104 4.7998C106.648 4.7998 106.279 4.95931 105.996 5.27832C105.718 5.59733 105.54 6.04167 105.463 6.61133H108.628V6.48828C108.591 5.93229 108.443 5.51302 108.184 5.23047C107.924 4.94336 107.564 4.7998 107.104 4.7998ZM115.853 9.81055C116.267 9.81055 116.611 9.68978 116.885 9.44824C117.158 9.20671 117.304 8.9082 117.322 8.55273H118.888C118.869 9.01302 118.726 9.44368 118.457 9.84473C118.188 10.2412 117.824 10.5557 117.363 10.7881C116.903 11.0205 116.406 11.1367 115.873 11.1367C114.839 11.1367 114.018 10.8018 113.412 10.1318C112.806 9.46191 112.503 8.53678 112.503 7.35645V7.18555C112.503 6.0599 112.804 5.15983 113.405 4.48535C114.007 3.80632 114.827 3.4668 115.866 3.4668C116.746 3.4668 117.461 3.72428 118.013 4.23926C118.569 4.74967 118.86 5.42188 118.888 6.25586H117.322C117.304 5.83203 117.158 5.4834 116.885 5.20996C116.616 4.93652 116.272 4.7998 115.853 4.7998C115.315 4.7998 114.9 4.99577 114.608 5.3877C114.317 5.77507 114.169 6.36523 114.164 7.1582V7.4248C114.164 8.22689 114.308 8.82617 114.595 9.22266C114.886 9.61458 115.306 9.81055 115.853 9.81055ZM123.474 1.80566V3.60352H124.779V4.83398H123.474V8.96289C123.474 9.24544 123.528 9.45052 123.638 9.57812C123.752 9.70117 123.952 9.7627 124.239 9.7627C124.431 9.7627 124.624 9.73991 124.82 9.69434V10.9795C124.442 11.0843 124.077 11.1367 123.727 11.1367C122.451 11.1367 121.812 10.4326 121.812 9.02441V4.83398H120.596V3.60352H121.812V1.80566H123.474ZM126.788 7.2334C126.788 6.50879 126.932 5.8571 127.219 5.27832C127.506 4.69499 127.909 4.24837 128.429 3.93848C128.948 3.62402 129.545 3.4668 130.22 3.4668C131.218 3.4668 132.027 3.78809 132.646 4.43066C133.271 5.07324 133.608 5.92546 133.658 6.9873L133.665 7.37695C133.665 8.10612 133.524 8.75781 133.241 9.33203C132.963 9.90625 132.562 10.3506 132.038 10.665C131.519 10.9795 130.917 11.1367 130.233 11.1367C129.19 11.1367 128.354 10.7904 127.725 10.0977C127.1 9.40039 126.788 8.47298 126.788 7.31543V7.2334ZM128.449 7.37695C128.449 8.13802 128.606 8.73503 128.921 9.16797C129.235 9.59635 129.673 9.81055 130.233 9.81055C130.794 9.81055 131.229 9.5918 131.539 9.1543C131.854 8.7168 132.011 8.0765 132.011 7.2334C132.011 6.486 131.849 5.89355 131.525 5.45605C131.206 5.01855 130.771 4.7998 130.22 4.7998C129.677 4.7998 129.247 5.01628 128.928 5.44922C128.609 5.8776 128.449 6.52018 128.449 7.37695ZM140.192 5.12109C139.974 5.08464 139.748 5.06641 139.516 5.06641C138.755 5.06641 138.242 5.35807 137.978 5.94141V11H136.316V3.60352H137.902L137.943 4.43066C138.344 3.78809 138.9 3.4668 139.611 3.4668C139.848 3.4668 140.044 3.4987 140.199 3.5625L140.192 5.12109ZM145.202 8.62109L146.706 3.60352H148.477L145.537 12.1211C145.086 13.3652 144.32 13.9873 143.24 13.9873C142.999 13.9873 142.732 13.9463 142.44 13.8643V12.5791L142.755 12.5996C143.174 12.5996 143.489 12.5221 143.698 12.3672C143.912 12.2168 144.081 11.9616 144.204 11.6016L144.443 10.9658L141.846 3.60352H143.637L145.202 8.62109Z" fill="#2C7973"/>
</svg>
