<svg width="182" height="14" viewBox="0 0 182 14" fill="none" xmlns="http://www.w3.org/2000/svg">
<path d="M1.74121 9.61914H6.25977V11H0.0117188V1.04688H1.74121V9.61914ZM8.36426 7.2334C8.36426 6.50879 8.50781 5.8571 8.79492 5.27832C9.08203 4.69499 9.48535 4.24837 10.0049 3.93848C10.5244 3.62402 11.1214 3.4668 11.7959 3.4668C12.7939 3.4668 13.6029 3.78809 14.2227 4.43066C14.847 5.07324 15.1842 5.92546 15.2344 6.9873L15.2412 7.37695C15.2412 8.10612 15.0999 8.75781 14.8174 9.33203C14.5394 9.90625 14.1383 10.3506 13.6143 10.665C13.0947 10.9795 12.4932 11.1367 11.8096 11.1367C10.766 11.1367 9.92969 10.7904 9.30078 10.0977C8.67643 9.40039 8.36426 8.47298 8.36426 7.31543V7.2334ZM10.0254 7.37695C10.0254 8.13802 10.1826 8.73503 10.4971 9.16797C10.8115 9.59635 11.249 9.81055 11.8096 9.81055C12.3701 9.81055 12.8053 9.5918 13.1152 9.1543C13.4297 8.7168 13.5869 8.0765 13.5869 7.2334C13.5869 6.486 13.4251 5.89355 13.1016 5.45605C12.7826 5.01855 12.3473 4.7998 11.7959 4.7998C11.2536 4.7998 10.8229 5.01628 10.5039 5.44922C10.1849 5.8776 10.0254 6.52018 10.0254 7.37695ZM20.9346 9.81055C21.3493 9.81055 21.6934 9.68978 21.9668 9.44824C22.2402 9.20671 22.3861 8.9082 22.4043 8.55273H23.9697C23.9515 9.01302 23.8079 9.44368 23.5391 9.84473C23.2702 10.2412 22.9056 10.5557 22.4453 10.7881C21.985 11.0205 21.4883 11.1367 20.9551 11.1367C19.9206 11.1367 19.1003 10.8018 18.4941 10.1318C17.888 9.46191 17.585 8.53678 17.585 7.35645V7.18555C17.585 6.0599 17.8857 5.15983 18.4873 4.48535C19.0889 3.80632 19.9092 3.4668 20.9482 3.4668C21.8278 3.4668 22.5433 3.72428 23.0947 4.23926C23.6507 4.74967 23.9424 5.42188 23.9697 6.25586H22.4043C22.3861 5.83203 22.2402 5.4834 21.9668 5.20996C21.6979 4.93652 21.3538 4.7998 20.9346 4.7998C20.3968 4.7998 19.9821 4.99577 19.6904 5.3877C19.3988 5.77507 19.2507 6.36523 19.2461 7.1582V7.4248C19.2461 8.22689 19.3896 8.82617 19.6768 9.22266C19.9684 9.61458 20.3877 9.81055 20.9346 9.81055ZM30.8936 11C30.8206 10.8587 30.7568 10.6286 30.7021 10.3096C30.1735 10.861 29.5264 11.1367 28.7607 11.1367C28.0179 11.1367 27.4118 10.9248 26.9424 10.501C26.473 10.0771 26.2383 9.55306 26.2383 8.92871C26.2383 8.1403 26.5299 7.53646 27.1133 7.11719C27.7012 6.69336 28.5397 6.48145 29.6289 6.48145H30.6475V5.99609C30.6475 5.61328 30.5404 5.30794 30.3262 5.08008C30.112 4.84766 29.7861 4.73145 29.3486 4.73145C28.9704 4.73145 28.6605 4.82715 28.4189 5.01855C28.1774 5.2054 28.0566 5.44466 28.0566 5.73633H26.3955C26.3955 5.33073 26.5299 4.95247 26.7988 4.60156C27.0677 4.24609 27.4323 3.9681 27.8926 3.76758C28.3574 3.56706 28.8747 3.4668 29.4443 3.4668C30.3102 3.4668 31.0007 3.68555 31.5156 4.12305C32.0306 4.55599 32.2949 5.16667 32.3086 5.95508V9.29102C32.3086 9.95638 32.402 10.4873 32.5889 10.8838V11H30.8936ZM29.0684 9.80371C29.3965 9.80371 29.7041 9.72396 29.9912 9.56445C30.2829 9.40495 30.5016 9.19076 30.6475 8.92188V7.52734H29.752C29.1367 7.52734 28.6742 7.63444 28.3643 7.84863C28.0544 8.06283 27.8994 8.36589 27.8994 8.75781C27.8994 9.07682 28.0042 9.33203 28.2139 9.52344C28.4281 9.71029 28.7129 9.80371 29.0684 9.80371ZM37.0654 11H35.4043V0.5H37.0654V11ZM46.7568 7.30176V11H45.0273V1.04688H48.835C49.9469 1.04688 50.8288 1.33626 51.4805 1.91504C52.1367 2.49382 52.4648 3.25944 52.4648 4.21191C52.4648 5.18717 52.1436 5.94596 51.501 6.48828C50.863 7.0306 49.9674 7.30176 48.8145 7.30176H46.7568ZM46.7568 5.91406H48.835C49.4502 5.91406 49.9196 5.77051 50.2432 5.4834C50.5667 5.19173 50.7285 4.77246 50.7285 4.22559C50.7285 3.68783 50.5645 3.25944 50.2363 2.94043C49.9082 2.61686 49.457 2.45052 48.8828 2.44141H46.7568V5.91406ZM58.2334 11.1367C57.1807 11.1367 56.3262 10.8063 55.6699 10.1455C55.0182 9.48014 54.6924 8.59603 54.6924 7.49316V7.28809C54.6924 6.5498 54.8337 5.89128 55.1162 5.3125C55.4033 4.72917 55.8044 4.27572 56.3193 3.95215C56.8343 3.62858 57.4085 3.4668 58.042 3.4668C59.0492 3.4668 59.8262 3.78809 60.373 4.43066C60.9245 5.07324 61.2002 5.98242 61.2002 7.1582V7.82812H56.3672C56.4173 8.4388 56.6201 8.92188 56.9756 9.27734C57.3356 9.63281 57.7868 9.81055 58.3291 9.81055C59.0902 9.81055 59.71 9.50293 60.1885 8.8877L61.084 9.74219C60.7878 10.1842 60.3913 10.5283 59.8945 10.7744C59.4023 11.016 58.8486 11.1367 58.2334 11.1367ZM58.0352 4.7998C57.5794 4.7998 57.2103 4.95931 56.9277 5.27832C56.6497 5.59733 56.472 6.04167 56.3945 6.61133H59.5596V6.48828C59.5231 5.93229 59.375 5.51302 59.1152 5.23047C58.8555 4.94336 58.4954 4.7998 58.0352 4.7998ZM65.8271 1.80566V3.60352H67.1328V4.83398H65.8271V8.96289C65.8271 9.24544 65.8818 9.45052 65.9912 9.57812C66.1051 9.70117 66.3057 9.7627 66.5928 9.7627C66.7842 9.7627 66.9779 9.73991 67.1738 9.69434V10.9795C66.7956 11.0843 66.431 11.1367 66.0801 11.1367C64.804 11.1367 64.166 10.4326 64.166 9.02441V4.83398H62.9492V3.60352H64.166V1.80566H65.8271ZM79.7568 8.43652C79.7568 7.99902 79.6019 7.66178 79.292 7.4248C78.9867 7.18783 78.4329 6.94857 77.6309 6.70703C76.8288 6.46549 76.1908 6.19661 75.7168 5.90039C74.8099 5.33073 74.3564 4.58789 74.3564 3.67188C74.3564 2.86979 74.6823 2.20898 75.334 1.68945C75.9902 1.16992 76.8402 0.910156 77.8838 0.910156C78.5765 0.910156 79.194 1.03776 79.7363 1.29297C80.2786 1.54818 80.7048 1.91276 81.0146 2.38672C81.3245 2.85612 81.4795 3.37793 81.4795 3.95215H79.7568C79.7568 3.43262 79.5928 3.02702 79.2646 2.73535C78.9411 2.43913 78.4762 2.29102 77.8701 2.29102C77.305 2.29102 76.8652 2.41178 76.5508 2.65332C76.2409 2.89486 76.0859 3.2321 76.0859 3.66504C76.0859 4.02962 76.2546 4.33496 76.5918 4.58105C76.929 4.82259 77.485 5.05957 78.2598 5.29199C79.0345 5.51986 79.6566 5.7819 80.126 6.07812C80.5954 6.36979 80.9395 6.70703 81.1582 7.08984C81.377 7.4681 81.4863 7.91243 81.4863 8.42285C81.4863 9.25228 81.1673 9.91309 80.5293 10.4053C79.8958 10.8929 79.0345 11.1367 77.9453 11.1367C77.2253 11.1367 76.5622 11.0046 75.9561 10.7402C75.3545 10.4714 74.8851 10.1022 74.5479 9.63281C74.2152 9.16341 74.0488 8.61654 74.0488 7.99219H75.7783C75.7783 8.55729 75.9652 8.99479 76.3389 9.30469C76.7126 9.61458 77.248 9.76953 77.9453 9.76953C78.5469 9.76953 78.998 9.64876 79.2988 9.40723C79.6042 9.16113 79.7568 8.83757 79.7568 8.43652ZM85.7305 4.41016C86.2728 3.78125 86.9587 3.4668 87.7881 3.4668C89.3649 3.4668 90.1647 4.36686 90.1875 6.16699V11H88.5264V6.22852C88.5264 5.7181 88.4147 5.35807 88.1914 5.14844C87.9727 4.93424 87.6491 4.82715 87.2207 4.82715C86.5553 4.82715 86.0586 5.12337 85.7305 5.71582V11H84.0693V0.5H85.7305V4.41016ZM92.8115 7.2334C92.8115 6.50879 92.9551 5.8571 93.2422 5.27832C93.5293 4.69499 93.9326 4.24837 94.4521 3.93848C94.9717 3.62402 95.5687 3.4668 96.2432 3.4668C97.2412 3.4668 98.0501 3.78809 98.6699 4.43066C99.2943 5.07324 99.6315 5.92546 99.6816 6.9873L99.6885 7.37695C99.6885 8.10612 99.5472 8.75781 99.2646 9.33203C98.9867 9.90625 98.5856 10.3506 98.0615 10.665C97.542 10.9795 96.9404 11.1367 96.2568 11.1367C95.2132 11.1367 94.377 10.7904 93.748 10.0977C93.1237 9.40039 92.8115 8.47298 92.8115 7.31543V7.2334ZM94.4727 7.37695C94.4727 8.13802 94.6299 8.73503 94.9443 9.16797C95.2588 9.59635 95.6963 9.81055 96.2568 9.81055C96.8174 9.81055 97.2526 9.5918 97.5625 9.1543C97.877 8.7168 98.0342 8.0765 98.0342 7.2334C98.0342 6.486 97.8724 5.89355 97.5488 5.45605C97.2298 5.01855 96.7946 4.7998 96.2432 4.7998C95.7008 4.7998 95.2702 5.01628 94.9512 5.44922C94.6322 5.8776 94.4727 6.52018 94.4727 7.37695ZM108.82 7.37695C108.82 8.52083 108.561 9.43457 108.041 10.1182C107.521 10.7972 106.824 11.1367 105.949 11.1367C105.138 11.1367 104.489 10.8701 104.001 10.3369V13.8438H102.34V3.60352H103.871L103.939 4.35547C104.427 3.76302 105.09 3.4668 105.929 3.4668C106.831 3.4668 107.537 3.80404 108.048 4.47852C108.563 5.14844 108.82 6.0804 108.82 7.27441V7.37695ZM107.166 7.2334C107.166 6.49512 107.018 5.90951 106.722 5.47656C106.43 5.04362 106.011 4.82715 105.464 4.82715C104.785 4.82715 104.297 5.10742 104.001 5.66797V8.94922C104.302 9.52344 104.794 9.81055 105.478 9.81055C106.006 9.81055 106.419 9.59863 106.715 9.1748C107.016 8.74642 107.166 8.09928 107.166 7.2334ZM116.379 11V1.04688H119.318C120.198 1.04688 120.977 1.24284 121.656 1.63477C122.34 2.02669 122.868 2.58268 123.242 3.30273C123.616 4.02279 123.803 4.84766 123.803 5.77734V6.27637C123.803 7.21973 123.614 8.04915 123.235 8.76465C122.862 9.48014 122.326 10.0316 121.629 10.4189C120.936 10.8063 120.141 11 119.243 11H116.379ZM118.108 2.44141V9.61914H119.236C120.143 9.61914 120.838 9.33659 121.321 8.77148C121.809 8.20182 122.057 7.38607 122.066 6.32422V5.77051C122.066 4.69043 121.832 3.86556 121.362 3.2959C120.893 2.72624 120.212 2.44141 119.318 2.44141H118.108ZM128.382 11H126.721V3.60352H128.382V11ZM126.618 1.68262C126.618 1.42741 126.698 1.21549 126.857 1.04688C127.021 0.878255 127.254 0.793945 127.555 0.793945C127.855 0.793945 128.088 0.878255 128.252 1.04688C128.416 1.21549 128.498 1.42741 128.498 1.68262C128.498 1.93327 128.416 2.1429 128.252 2.31152C128.088 2.47559 127.855 2.55762 127.555 2.55762C127.254 2.55762 127.021 2.47559 126.857 2.31152C126.698 2.1429 126.618 1.93327 126.618 1.68262ZM135.319 5.12109C135.101 5.08464 134.875 5.06641 134.643 5.06641C133.882 5.06641 133.369 5.35807 133.104 5.94141V11H131.443V3.60352H133.029L133.07 4.43066C133.471 3.78809 134.027 3.4668 134.738 3.4668C134.975 3.4668 135.171 3.4987 135.326 3.5625L135.319 5.12109ZM140.739 11.1367C139.687 11.1367 138.832 10.8063 138.176 10.1455C137.524 9.48014 137.198 8.59603 137.198 7.49316V7.28809C137.198 6.5498 137.34 5.89128 137.622 5.3125C137.909 4.72917 138.31 4.27572 138.825 3.95215C139.34 3.62858 139.914 3.4668 140.548 3.4668C141.555 3.4668 142.332 3.78809 142.879 4.43066C143.43 5.07324 143.706 5.98242 143.706 7.1582V7.82812H138.873C138.923 8.4388 139.126 8.92188 139.481 9.27734C139.841 9.63281 140.293 9.81055 140.835 9.81055C141.596 9.81055 142.216 9.50293 142.694 8.8877L143.59 9.74219C143.294 10.1842 142.897 10.5283 142.4 10.7744C141.908 11.016 141.354 11.1367 140.739 11.1367ZM140.541 4.7998C140.085 4.7998 139.716 4.95931 139.434 5.27832C139.156 5.59733 138.978 6.04167 138.9 6.61133H142.065V6.48828C142.029 5.93229 141.881 5.51302 141.621 5.23047C141.361 4.94336 141.001 4.7998 140.541 4.7998ZM149.29 9.81055C149.705 9.81055 150.049 9.68978 150.322 9.44824C150.596 9.20671 150.742 8.9082 150.76 8.55273H152.325C152.307 9.01302 152.163 9.44368 151.895 9.84473C151.626 10.2412 151.261 10.5557 150.801 10.7881C150.34 11.0205 149.844 11.1367 149.311 11.1367C148.276 11.1367 147.456 10.8018 146.85 10.1318C146.243 9.46191 145.94 8.53678 145.94 7.35645V7.18555C145.94 6.0599 146.241 5.15983 146.843 4.48535C147.444 3.80632 148.265 3.4668 149.304 3.4668C150.183 3.4668 150.899 3.72428 151.45 4.23926C152.006 4.74967 152.298 5.42188 152.325 6.25586H150.76C150.742 5.83203 150.596 5.4834 150.322 5.20996C150.053 4.93652 149.709 4.7998 149.29 4.7998C148.752 4.7998 148.338 4.99577 148.046 5.3877C147.754 5.77507 147.606 6.36523 147.602 7.1582V7.4248C147.602 8.22689 147.745 8.82617 148.032 9.22266C148.324 9.61458 148.743 9.81055 149.29 9.81055ZM156.911 1.80566V3.60352H158.217V4.83398H156.911V8.96289C156.911 9.24544 156.966 9.45052 157.075 9.57812C157.189 9.70117 157.39 9.7627 157.677 9.7627C157.868 9.7627 158.062 9.73991 158.258 9.69434V10.9795C157.88 11.0843 157.515 11.1367 157.164 11.1367C155.888 11.1367 155.25 10.4326 155.25 9.02441V4.83398H154.033V3.60352H155.25V1.80566H156.911ZM160.226 7.2334C160.226 6.50879 160.369 5.8571 160.656 5.27832C160.943 4.69499 161.347 4.24837 161.866 3.93848C162.386 3.62402 162.983 3.4668 163.657 3.4668C164.655 3.4668 165.464 3.78809 166.084 4.43066C166.708 5.07324 167.046 5.92546 167.096 6.9873L167.103 7.37695C167.103 8.10612 166.961 8.75781 166.679 9.33203C166.401 9.90625 166 10.3506 165.476 10.665C164.956 10.9795 164.354 11.1367 163.671 11.1367C162.627 11.1367 161.791 10.7904 161.162 10.0977C160.538 9.40039 160.226 8.47298 160.226 7.31543V7.2334ZM161.887 7.37695C161.887 8.13802 162.044 8.73503 162.358 9.16797C162.673 9.59635 163.11 9.81055 163.671 9.81055C164.231 9.81055 164.667 9.5918 164.977 9.1543C165.291 8.7168 165.448 8.0765 165.448 7.2334C165.448 6.486 165.286 5.89355 164.963 5.45605C164.644 5.01855 164.209 4.7998 163.657 4.7998C163.115 4.7998 162.684 5.01628 162.365 5.44922C162.046 5.8776 161.887 6.52018 161.887 7.37695ZM173.63 5.12109C173.411 5.08464 173.186 5.06641 172.953 5.06641C172.192 5.06641 171.679 5.35807 171.415 5.94141V11H169.754V3.60352H171.34L171.381 4.43066C171.782 3.78809 172.338 3.4668 173.049 3.4668C173.286 3.4668 173.482 3.4987 173.637 3.5625L173.63 5.12109ZM178.64 8.62109L180.144 3.60352H181.914L178.975 12.1211C178.523 13.3652 177.758 13.9873 176.678 13.9873C176.436 13.9873 176.17 13.9463 175.878 13.8643V12.5791L176.192 12.5996C176.612 12.5996 176.926 12.5221 177.136 12.3672C177.35 12.2168 177.519 11.9616 177.642 11.6016L177.881 10.9658L175.283 3.60352H177.074L178.64 8.62109Z" fill="#2C7973"/>
</svg>
