<svg width="17" height="20" viewBox="0 0 17 20" fill="none" xmlns="http://www.w3.org/2000/svg">
<g clip-path="url(#clip0)">
<path d="M15.2982 0H12.3345H11.9246H0.20496C0.0901824 0 0 0.0901824 0 0.20496V19.795C0 19.9098 0.0901824 20 0.20496 20H11.9246H12.3345H15.2982C15.8639 20 16.323 19.5409 16.323 18.9752V1.0248C16.323 0.45911 15.8639 0 15.2982 0ZM11.9246 19.5901H1.80365V19.2171C1.80365 19.1023 1.71347 19.0121 1.59869 19.0121C1.48391 19.0121 1.39373 19.1023 1.39373 19.2171V19.5901H0.40992V0.40992H1.39373V17.9873C1.39373 18.1021 1.48391 18.1923 1.59869 18.1923C1.71347 18.1923 1.80365 18.1021 1.80365 17.9873V0.40992H11.9246H12.3345C12.7854 0.40992 13.1543 0.778848 13.1543 1.22976V18.7702C13.1543 19.2212 12.7854 19.5901 12.3345 19.5901H11.9246ZM15.9131 18.9752C15.9131 19.3154 15.6385 19.5901 15.2982 19.5901H13.2527C13.4495 19.3728 13.5684 19.0859 13.5684 18.7702V1.22976C13.5684 0.914122 13.4495 0.627178 13.2527 0.40992H15.2982C15.6385 0.40992 15.9131 0.684566 15.9131 1.0248V18.9752ZM14.6464 1.05759V18.9424C14.6464 19.0572 14.5563 19.1474 14.4415 19.1474C14.3267 19.1474 14.2365 19.0572 14.2365 18.9424V1.05759C14.2365 0.942816 14.3267 0.852634 14.4415 0.852634C14.5563 0.852634 14.6464 0.942816 14.6464 1.05759ZM15.3556 1.05759V18.9424C15.3556 19.0572 15.2654 19.1474 15.1506 19.1474C15.0359 19.1474 14.9457 19.0572 14.9457 18.9424V1.05759C14.9457 0.942816 15.0359 0.852634 15.1506 0.852634C15.2654 0.852634 15.3556 0.942816 15.3556 1.05759ZM11.3384 2.79975H3.17688C3.0621 2.79975 2.97192 2.88994 2.97192 3.00471V7.90326C2.97192 8.01804 3.0621 8.10822 3.17688 8.10822H11.3384C11.4532 8.10822 11.5433 8.01804 11.5433 7.90326V3.00471C11.5433 2.88994 11.4491 2.79975 11.3384 2.79975ZM11.1334 7.6942H3.38184V3.20967H11.1334V7.6942Z" fill="#00D654"/>
<path d="M10.453 11.9779C10.3178 11.5803 9.99392 11.2852 9.5881 11.1868C9.18228 11.0884 8.76006 11.1991 8.45672 11.486L7.72706 12.1747C7.60409 12.2895 7.5262 12.437 7.49751 12.601C7.46881 12.765 7.49341 12.933 7.5672 13.0806C7.64098 13.2282 7.75986 13.3471 7.91153 13.425C8.0591 13.4987 8.22717 13.5233 8.39113 13.4946H8.40343C8.81745 13.425 9.24377 13.5315 9.5758 13.7898C9.66189 13.8554 9.76027 13.9046 9.86275 13.9292C9.92014 13.9415 9.97753 13.9497 10.0349 13.9497C10.203 13.9538 10.3629 13.9046 10.4981 13.8062C10.6334 13.7078 10.7318 13.5725 10.7851 13.4127C10.8343 13.2528 10.8343 13.0847 10.781 12.9289L10.453 11.9779ZM10.326 13.5684C10.1538 13.6914 9.92424 13.6873 9.75617 13.5561C9.55531 13.4004 9.32575 13.2938 9.0839 13.2323C8.84205 13.1708 8.5879 13.1626 8.34194 13.2036H8.33375C8.12469 13.2364 7.92383 13.1339 7.82954 12.9453C7.73526 12.7568 7.77216 12.5272 7.92793 12.3838L8.66168 11.691C8.89124 11.4737 9.21507 11.3876 9.52251 11.4655C9.82995 11.5434 10.0759 11.7648 10.1784 12.0681L10.5022 13.0232C10.5678 13.2282 10.4981 13.4455 10.326 13.5684Z" fill="#00D654"/>
<path d="M8.07113 11.3876C8.24329 11.3671 8.39496 11.2687 8.49334 11.1129C8.59172 10.9653 8.62862 10.7809 8.60812 10.5964C8.58352 10.4119 8.50154 10.2439 8.37037 10.125C8.23509 10.002 8.06293 9.94464 7.89076 9.96513C7.54643 10.0102 7.30458 10.3628 7.35377 10.7563C7.39476 11.0678 7.60382 11.3138 7.86207 11.3753C7.93175 11.3917 8.00144 11.3958 8.07113 11.3876ZM7.64891 10.7194C7.62021 10.4898 7.74729 10.2808 7.93175 10.2603C7.96455 10.2562 7.99734 10.2562 8.03013 10.2644C8.07932 10.2767 8.12851 10.3054 8.17361 10.3423C8.25149 10.416 8.30478 10.5185 8.31708 10.6333C8.33347 10.7481 8.30888 10.8629 8.24739 10.953C8.1941 11.035 8.11622 11.0842 8.03423 11.0965C7.84977 11.117 7.6776 10.9489 7.64891 10.7194Z" fill="#00D654"/>
<path d="M9.25579 10.9941C9.64932 11.0924 10.0633 10.8055 10.174 10.3546C10.2847 9.90368 10.0551 9.46097 9.66162 9.36259C9.26809 9.26421 8.85407 9.55115 8.74339 10.0021C8.63271 10.453 8.86227 10.8957 9.25579 10.9941ZM9.58783 9.64953C9.82558 9.70692 9.96086 9.99386 9.88707 10.2849C9.81329 10.5759 9.56323 10.7686 9.32548 10.7071C9.08772 10.6497 8.95655 10.3628 9.02624 10.0717C9.10002 9.7807 9.35417 9.59214 9.58783 9.64953Z" fill="#00D654"/>
<path d="M10.4404 11.4982C10.4978 11.5351 10.5551 11.5597 10.6166 11.572C10.9036 11.6417 11.2356 11.5023 11.4242 11.2072C11.5308 11.0391 11.5759 10.8424 11.5472 10.6538C11.5185 10.457 11.416 10.2972 11.2602 10.1947C11.1044 10.0963 10.9118 10.0717 10.7232 10.1332C10.5428 10.1906 10.383 10.3136 10.2764 10.4857C10.055 10.8465 10.1288 11.3015 10.4404 11.4982ZM10.5306 10.6456C10.6002 10.5349 10.7027 10.4529 10.8175 10.4201C10.9241 10.3873 11.0266 10.3996 11.1085 10.4488C11.1905 10.5021 11.2438 10.5882 11.2602 10.6989C11.2766 10.8178 11.2479 10.9448 11.1782 11.0555C11.0389 11.2769 10.7806 11.3671 10.6002 11.2523C10.4199 11.1375 10.3912 10.867 10.5306 10.6456Z" fill="#00D654"/>
<path d="M11.9735 11.7771C11.7521 11.5106 11.3217 11.4942 11.0184 11.7484C10.715 11.9984 10.6494 12.4247 10.8708 12.6912C10.9528 12.7896 11.0594 12.8511 11.1782 12.8839C11.3873 12.9371 11.6291 12.8839 11.8259 12.724C12.1252 12.4698 12.1948 12.0476 11.9735 11.7771ZM11.6373 12.4944C11.457 12.642 11.2151 12.6461 11.0962 12.5026C10.9774 12.3592 11.0266 12.1214 11.2069 11.9738C11.3258 11.8755 11.4734 11.8386 11.5923 11.8714C11.6537 11.8878 11.707 11.9164 11.748 11.9656C11.8628 12.1091 11.8136 12.3469 11.6373 12.4944Z" fill="#00D654"/>
<path d="M4.20159 17.1962C4.1483 17.356 4.1483 17.5241 4.20159 17.6799C4.25488 17.8397 4.35326 17.975 4.49263 18.0693C4.6279 18.1636 4.79187 18.2128 4.95584 18.2087C5.01323 18.2087 5.07062 18.2005 5.12801 18.1841C5.23049 18.1595 5.32477 18.1103 5.41085 18.0447C5.73879 17.7865 6.1651 17.6717 6.58322 17.7373H6.59552C6.75948 17.766 6.92755 17.7373 7.07512 17.6594C7.22269 17.5815 7.34157 17.4626 7.41535 17.3109C7.48914 17.1593 7.50964 16.9953 7.48094 16.8313C7.45225 16.6674 7.37026 16.5198 7.24729 16.405L6.50943 15.7205C6.20199 15.4376 5.77978 15.3269 5.37396 15.4335C4.96814 15.5401 4.6484 15.8393 4.51723 16.237L4.20159 17.1962ZM4.48033 17.2905L4.79597 16.3312C4.89435 16.0279 5.1362 15.8024 5.44364 15.7205C5.75108 15.6426 6.07492 15.7205 6.30447 15.9377L7.04233 16.6223C7.1981 16.7658 7.23909 16.9912 7.14891 17.1839C7.05463 17.3724 6.85786 17.479 6.64881 17.4462H6.64061C6.39056 17.4052 6.13641 17.4175 5.89865 17.479C5.6568 17.5405 5.43135 17.6512 5.23049 17.8111C5.06242 17.9422 4.83286 17.9504 4.6607 17.8274C4.48853 17.7086 4.41475 17.4913 4.48033 17.2905Z" fill="#00D654"/>
<path d="M7.09538 15.6097C7.35363 15.5441 7.56268 15.2982 7.59957 14.9867C7.64467 14.5931 7.39872 14.2406 7.05439 14.2037C6.88222 14.1832 6.71416 14.2406 6.57888 14.3677C6.45181 14.4866 6.36573 14.6546 6.34523 14.8432C6.32474 15.0276 6.36573 15.2121 6.46411 15.3597C6.56659 15.5113 6.71826 15.6097 6.89042 15.6302C6.96011 15.6343 7.02979 15.6261 7.09538 15.6097ZM6.92321 15.331C6.83713 15.3228 6.75925 15.2695 6.70596 15.1916C6.64857 15.1014 6.61987 14.9908 6.63627 14.876C6.64857 14.7612 6.70186 14.6546 6.77564 14.5849C6.82073 14.5439 6.86582 14.5152 6.91911 14.5029C6.95191 14.4948 6.9847 14.4907 7.01749 14.4948C7.20196 14.5152 7.33313 14.7202 7.30444 14.9539C7.28394 15.1834 7.11177 15.3556 6.92321 15.331Z" fill="#00D654"/>
<path d="M6.20595 14.2488C6.09117 13.802 5.67716 13.5192 5.28363 13.6216C4.89011 13.7241 4.66466 14.1709 4.77944 14.6177C4.89421 15.0646 5.30823 15.3474 5.70175 15.2449C6.09527 15.1424 6.32073 14.6956 6.20595 14.2488ZM5.92311 14.3226C5.99689 14.6136 5.86572 14.9006 5.63206 14.9621C5.39841 15.0236 5.14016 14.835 5.06638 14.544C4.99259 14.2529 5.12377 13.966 5.35742 13.9045C5.59517 13.843 5.84522 14.0316 5.92311 14.3226Z" fill="#00D654"/>
<path d="M4.6728 14.7489C4.56212 14.5808 4.40225 14.4579 4.22188 14.4046C4.03332 14.3472 3.84066 14.3718 3.68489 14.4743C3.52912 14.5767 3.43074 14.7366 3.40204 14.9334C3.37745 15.1219 3.42254 15.3187 3.53322 15.4868C3.72178 15.7819 4.05791 15.9172 4.34486 15.8434C4.40635 15.827 4.46374 15.8024 4.52113 15.7655C4.83677 15.5605 4.90235 15.1055 4.6728 14.7489ZM4.36536 15.5155C4.18909 15.6302 3.92674 15.5441 3.78737 15.3228C3.71768 15.2121 3.68489 15.085 3.70128 14.9703C3.71768 14.8596 3.77097 14.7694 3.85295 14.7161C3.93494 14.6628 4.03742 14.6505 4.144 14.6833C4.25878 14.7161 4.36126 14.7981 4.43094 14.9088C4.57032 15.1301 4.54162 15.4007 4.36536 15.5155Z" fill="#00D654"/>
<path d="M3.15617 16.9994C3.35293 17.1593 3.59478 17.2085 3.80384 17.1552C3.92272 17.1224 4.0293 17.0609 4.11128 16.9584C4.32854 16.6879 4.25885 16.2657 3.95141 16.0156C3.64397 15.7656 3.21765 15.7861 2.9963 16.0566C2.77904 16.3272 2.84873 16.7494 3.15617 16.9994ZM3.22585 16.2411C3.26684 16.1919 3.32013 16.1591 3.37752 16.1427C3.4964 16.1099 3.64397 16.1468 3.76285 16.2411C3.94321 16.3886 3.9965 16.6264 3.87762 16.7699C3.75875 16.9133 3.5169 16.9133 3.33653 16.7658C3.16026 16.6223 3.10697 16.3886 3.22585 16.2411Z" fill="#00D654"/>
</g>
<defs>
<clipPath id="clip0">
<rect width="16.323" height="20" fill="white"/>
</clipPath>
</defs>
</svg>
