<svg width="24" height="24" viewBox="0 0 24 24" fill="none" xmlns="http://www.w3.org/2000/svg">
<path d="M11.0168 13.2059H12.9724C13.1667 13.2059 13.324 13.0485 13.324 12.8544C13.324 12.6603 13.1667 12.5028 12.9724 12.5028H11.0168C10.8226 12.5028 10.6653 12.6603 10.6653 12.8544C10.6653 13.0485 10.8226 13.2059 11.0168 13.2059Z" fill="#00D654"/>
<path d="M17.3735 10.0034C15.9865 10.0034 14.8582 11.1319 14.8582 12.5189C14.8582 13.9059 15.9865 15.0342 17.3735 15.0342C18.7605 15.0342 19.889 13.9059 19.889 12.5189C19.889 11.1319 18.7605 10.0034 17.3735 10.0034ZM17.3735 14.3311C16.3743 14.3311 15.5613 13.5181 15.5613 12.5189C15.5613 11.5197 16.3743 10.7065 17.3735 10.7065C18.3727 10.7065 19.1859 11.5197 19.1859 12.5189C19.1859 13.5181 18.3729 14.3311 17.3735 14.3311Z" fill="#00D654"/>
<path d="M23.0235 1.125H19.7791C19.2407 1.125 18.8026 1.56299 18.8026 2.1015V3.90509H18.5358L18.5447 2.43311C18.5469 2.05609 18.2426 1.74994 17.8656 1.74994H9.18695C8.99286 1.74994 8.83539 1.90723 8.83539 2.1015C8.83539 2.29559 8.99286 2.45306 9.18695 2.45306H17.8414L17.8226 5.55762C17.8167 6.50592 17.7158 7.45642 17.5221 8.38934C16.9208 8.29742 16.5093 8.79218 16.1957 8.89398C15.8923 8.99249 15.3479 8.87054 14.9387 9.16846C14.5274 9.46783 14.4741 10.0265 14.2905 10.2788C14.1237 10.5082 13.6745 10.7141 13.48 11.1227H9.48615C9.29205 11.1227 9.13458 11.2802 9.13458 11.4743C9.13458 11.6686 9.29205 11.8259 9.48615 11.8259H13.4171C13.4667 12.0853 13.563 12.3322 13.563 12.5189C13.563 12.8472 13.2786 13.3215 13.4337 13.799C13.5932 14.2897 14.1072 14.5071 14.2905 14.7589C14.309 14.7841 14.326 14.8134 14.3427 14.8451C14.1687 15.0472 13.9889 15.2454 13.8052 15.436C13.2675 15.9998 13.1653 16.7983 13.4409 17.4496H10.5591C10.8356 16.7963 10.7314 15.9987 10.1938 15.4349C7.62634 12.7679 6.19995 9.26019 6.17743 5.55762L6.15857 2.45306H7.54633C7.74042 2.45306 7.89789 2.29559 7.89789 2.1015C7.89789 1.90741 7.74042 1.74994 7.54633 1.74994H6.1344C5.75739 1.74994 5.45288 2.05609 5.45526 2.43311L5.46423 3.90527H5.19727V2.1015C5.19727 1.56299 4.75928 1.125 4.22095 1.125H0.976501C0.437988 1.125 0 1.56299 0 2.1015V2.29413C0 6.85382 2.83521 11.0594 7.30096 12.6627C7.97351 13.9028 8.76508 14.9592 9.6969 15.9327C10.0836 16.3405 10.11 16.9867 9.75824 17.4359C9.67639 17.5402 9.64709 17.6711 9.67218 17.7962C9.32208 18.1818 9.18549 18.507 9.04889 18.8029H8.97546C8.6413 18.8029 8.49719 19.2259 8.75903 19.431L8.42358 20.1577C7.58533 20.1929 6.91406 20.8856 6.91406 21.7322V22.1234C6.91406 22.5295 7.24438 22.8598 7.6507 22.8598H16.3493C16.7554 22.8598 17.0858 22.5295 17.0858 22.1234V21.7322C17.0858 20.9973 16.5798 20.3782 15.8979 20.2046L17.3959 19.3511L19.0318 20.309C19.2651 20.4456 19.5612 20.2775 19.5612 20.0056V18.4867C19.5612 18.2926 19.4037 18.1351 19.2096 18.1351C19.0153 18.1351 18.858 18.2926 18.858 18.4867V19.3923L17.5759 18.6418C17.4675 18.5782 17.3335 18.5775 17.2244 18.6398L15.889 19.4008V16.0988C16.194 16.118 16.244 16.1435 16.5306 16.3308C16.7672 16.4852 17.035 16.6604 17.3734 16.6604C17.7116 16.6604 17.9797 16.4854 18.2161 16.3308C18.5024 16.1437 18.5522 16.118 18.858 16.0988V16.8461C18.858 17.0402 19.0153 17.1976 19.2096 17.1976C19.4037 17.1976 19.5612 17.0402 19.5612 16.8461V15.9987C19.9812 15.8474 20.1354 15.516 20.2875 15.1199C20.4261 14.7589 20.445 14.7327 20.7437 14.4917C20.9625 14.3156 21.2102 14.1158 21.3131 13.7988C21.4124 13.4934 21.332 13.1915 21.2611 12.925C21.1586 12.5391 21.1586 12.4988 21.2611 12.1128C21.332 11.8464 21.4124 11.5443 21.3131 11.2388C21.1672 10.7897 20.727 10.5729 20.5065 10.3385C22.7981 8.2002 24 5.24213 24 2.29413V2.1015C24 1.56299 23.562 1.125 23.0235 1.125V1.125ZM4.22095 5.85809H5.47961C5.51514 7.25464 5.74237 8.62592 6.15637 9.95215C3.78094 8.4527 2.22729 5.90973 1.98596 3.07782H3.24445V4.88159C3.24445 5.4201 3.68243 5.85809 4.22095 5.85809ZM0.703125 2.29413V2.1015C0.703125 1.95081 0.825806 1.82812 0.976501 1.82812H4.22095C4.37164 1.82812 4.49414 1.95081 4.49414 2.1015V4.25665C4.49414 4.45093 4.65161 4.60822 4.8457 4.60822H5.46844L5.47174 5.15497H4.22095C4.07007 5.15497 3.94757 5.03229 3.94757 4.88159V2.72626C3.94757 2.53217 3.7901 2.37469 3.59601 2.37469H1.61096C1.41083 2.37469 1.25079 2.54187 1.25977 2.742C1.41724 6.26807 3.43011 9.375 6.51196 10.9636C6.58905 11.1605 6.659 11.3403 6.83038 11.7171C3.04486 10.036 0.703125 6.30194 0.703125 2.29413ZM18.5206 5.85809H19.7791C20.3176 5.85809 20.7556 5.41992 20.7556 4.88159V3.07782H22.0142C21.8234 5.34869 20.814 7.41925 19.144 8.95697C19.0789 8.95148 19.0146 8.94781 18.9521 8.94434C18.5383 8.922 18.5262 8.90881 18.1785 8.6825C18.3812 7.75287 18.496 6.8053 18.5206 5.85809ZM14.3029 15.9327C14.4157 15.8148 14.5073 15.7185 14.6565 15.553C14.7838 15.7643 14.9489 15.9135 15.1859 15.9987V18.8381C15.1009 18.7971 15.0399 18.8029 14.9511 18.8029C14.7999 18.4752 14.6699 18.173 14.3278 17.7962C14.3529 17.6711 14.3236 17.5402 14.2418 17.4359C13.89 16.9867 13.9164 16.3405 14.3029 15.9327ZM10.3043 18.1527H13.6957C13.8911 18.3415 14.0511 18.5598 14.1742 18.8029H9.82581C9.94885 18.5598 10.1089 18.3415 10.3043 18.1527ZM16.3828 21.7324V22.1234C16.3828 22.1418 16.3678 22.1569 16.3493 22.1569H7.6507C7.6322 22.1569 7.61719 22.1418 7.61719 22.1234V21.7324C7.61719 21.2509 8.00885 20.8592 8.49023 20.8592H10.1677C10.3618 20.8592 10.5192 20.7019 10.5192 20.5076C10.5192 20.3135 10.3618 20.1561 10.1677 20.1561H9.19885L9.49878 19.506H14.5012L14.8011 20.1561H11.8083C11.614 20.1561 11.4567 20.3135 11.4567 20.5076C11.4567 20.7019 11.614 20.8592 11.8083 20.8592H15.5098C15.9911 20.8592 16.3828 21.2509 16.3828 21.7324ZM20.6444 11.456C20.7101 11.6587 20.4809 12.1068 20.4809 12.5189C20.4809 12.9415 20.712 13.3738 20.6444 13.5817C20.5714 13.8067 20.1335 14.0076 19.8878 14.3452C19.643 14.6816 19.5804 15.1655 19.3943 15.3008C19.2101 15.4349 18.7339 15.3453 18.3342 15.4752C17.9434 15.6021 17.6158 15.9573 17.3734 15.9573C17.131 15.9573 16.8038 15.6021 16.4128 15.4752C16.0151 15.3461 15.5354 15.4341 15.3525 15.3008C15.1663 15.1653 15.1038 14.6814 14.859 14.3452C14.6157 14.0109 14.1749 13.8049 14.1024 13.5817C14.0365 13.3788 14.2659 12.9318 14.2659 12.5189C14.2659 12.0963 14.0349 11.664 14.1024 11.456C14.1757 11.2306 14.6127 11.031 14.859 10.6926C15.1029 10.3574 15.1668 9.87195 15.3525 9.73682C15.5363 9.60297 16.0137 9.69232 16.4128 9.56268C16.8036 9.43579 17.1304 9.08057 17.3734 9.08057C17.6158 9.08057 17.9431 9.43579 18.3342 9.56268C18.7271 9.69031 19.2131 9.60498 19.3943 9.73682C19.5807 9.87231 19.6432 10.3563 19.888 10.6926C20.1312 11.027 20.5719 11.233 20.6444 11.456ZM23.2969 2.29413C23.2969 4.98248 22.2286 7.68311 20.1874 9.67145C20.1149 9.51086 20.0219 9.35303 19.8796 9.2265C21.5889 7.53259 22.6287 5.237 22.7402 2.742C22.7492 2.54205 22.5892 2.37469 22.389 2.37469H20.404C20.2099 2.37469 20.0524 2.53217 20.0524 2.72626V4.88159C20.0524 5.03229 19.9297 5.15497 19.7791 5.15497H18.5281L18.5316 4.60822H19.1541C19.3484 4.60822 19.5057 4.45093 19.5057 4.25665V2.1015C19.5057 1.95081 19.6284 1.82812 19.7791 1.82812H23.0235C23.1742 1.82812 23.2969 1.95081 23.2969 2.1015V2.29413Z" fill="#00D654"/>
<path d="M10.7778 6.77915C10.1906 7.37974 10.2042 7.36362 10.1701 7.40263L10.1692 7.40171C9.87934 7.6901 9.72938 8.09019 9.75813 8.49943C9.82368 9.43455 10.778 10.0469 11.6573 9.71488C11.8946 9.62516 12.1561 9.62516 12.3934 9.71488C13.2739 10.0472 14.2272 9.43345 14.2926 8.49943C14.3213 8.0911 14.1723 7.69193 13.8835 7.40354L13.273 6.77915C12.5875 6.07804 11.4625 6.07896 10.7778 6.77915ZM13.3856 7.90012C13.5307 8.04441 13.6055 8.24491 13.5913 8.45017C13.5568 8.94108 13.0654 9.21684 12.6419 9.05717C12.2443 8.90702 11.8065 8.90702 11.409 9.05717C11.3173 9.09177 11.2199 9.10642 11.1201 9.10093C10.4959 9.06596 10.2452 8.31815 10.665 7.90012C10.7112 7.85453 10.4728 8.09696 11.2805 7.27079C11.6895 6.85239 12.3612 6.85239 12.7702 7.27079C13.579 8.09806 13.3397 7.85416 13.3856 7.90012Z" fill="#00D654"/>
<path d="M9.04796 7.52147C9.31127 7.63316 9.60094 7.62987 9.83971 7.49199C10.2986 7.22703 10.4081 6.58635 10.0889 6.03355C9.94591 5.78581 9.73424 5.593 9.49291 5.49064C8.92455 5.24986 8.35564 5.5767 8.27983 6.19102C8.21355 6.72862 8.54863 7.3098 9.04796 7.52147ZM8.97765 6.27708C8.99632 6.12712 9.08037 6.07951 9.21843 6.13811C9.31859 6.1804 9.41381 6.27049 9.47991 6.38512C9.61284 6.61528 9.57347 6.83372 9.48815 6.88316C9.43285 6.91502 9.35375 6.88756 9.32244 6.87419C9.11241 6.7852 8.94982 6.50322 8.97765 6.27708Z" fill="#00D654"/>
<path d="M11.8911 4.77763C11.712 4.10929 11.1401 3.70115 10.5894 3.84892C10.0384 3.9965 9.74726 4.63572 9.92615 5.30406C10.0069 5.60508 10.1748 5.86729 10.3993 6.04234C10.9243 6.45213 11.6019 6.26811 11.8506 5.65342C11.9573 5.38957 11.9718 5.07847 11.8911 4.77763C11.8912 4.77763 11.8912 4.77763 11.8911 4.77763ZM11.1987 5.38975C11.0552 5.74516 10.702 5.4824 10.6055 5.12205C10.5266 4.82743 10.6309 4.52293 10.8122 4.52293C10.9532 4.52293 11.1405 4.69285 11.2119 4.95963C11.2527 5.11161 11.248 5.26853 11.1987 5.38975Z" fill="#00D654"/>
<path d="M14.2109 7.49195C14.4356 7.62177 14.7231 7.6399 15.0027 7.52143C15.5013 7.30994 15.8371 6.72931 15.7708 6.19098C15.6952 5.5785 15.1277 5.24909 14.5577 5.4906C14.3164 5.59296 14.1047 5.78577 13.9617 6.03351C13.6424 6.58631 13.7519 7.227 14.2109 7.49195ZM14.5705 6.38508C14.6366 6.27045 14.732 6.18036 14.832 6.13807C14.9659 6.0813 15.0538 6.1225 15.0728 6.27704C15.1006 6.50336 14.9379 6.78516 14.728 6.87415C14.6967 6.88733 14.6176 6.91498 14.5623 6.88312C14.477 6.83368 14.4376 6.61524 14.5705 6.38508Z" fill="#00D654"/>
<path d="M13.4613 3.84893C12.9103 3.70153 12.3385 4.1093 12.1594 4.77764C12.0789 5.07866 12.0931 5.38958 12.1999 5.65361C12.4484 6.26775 13.1253 6.45287 13.6514 6.04235C13.8757 5.8673 14.0438 5.60509 14.1243 5.30407C14.3034 4.63573 14.0121 3.99651 13.4613 3.84893ZM13.4452 5.12206C13.4044 5.27422 13.3218 5.40752 13.2187 5.48809C12.9171 5.72356 12.7417 5.32091 12.8386 4.95965C12.9173 4.66613 13.1365 4.48998 13.2793 4.52807C13.4225 4.56652 13.5237 4.82872 13.4452 5.12206Z" fill="#00D654"/>
</svg>
