<svg width="237" height="14" viewBox="0 0 237 14" fill="none" xmlns="http://www.w3.org/2000/svg">
<path d="M8.95508 6.2832C8.95508 7.25846 8.78646 8.11523 8.44922 8.85352C8.11198 9.58724 7.62891 10.1523 7 10.5488C6.37565 10.9408 5.6556 11.1367 4.83984 11.1367C4.0332 11.1367 3.31315 10.9408 2.67969 10.5488C2.05078 10.1523 1.56315 9.58952 1.2168 8.86035C0.875 8.13118 0.701823 7.29036 0.697266 6.33789V5.77734C0.697266 4.80664 0.868164 3.94987 1.20996 3.20703C1.55632 2.46419 2.04167 1.89681 2.66602 1.50488C3.29492 1.1084 4.01497 0.910156 4.82617 0.910156C5.63737 0.910156 6.35514 1.10612 6.97949 1.49805C7.6084 1.88542 8.09375 2.44596 8.43555 3.17969C8.77734 3.90885 8.95052 4.75879 8.95508 5.72949V6.2832ZM7.22559 5.76367C7.22559 4.66081 7.01595 3.81543 6.59668 3.22754C6.18197 2.63965 5.5918 2.3457 4.82617 2.3457C4.07878 2.3457 3.49316 2.63965 3.06934 3.22754C2.65007 3.81087 2.43587 4.63802 2.42676 5.70898V6.2832C2.42676 7.37695 2.63867 8.22233 3.0625 8.81934C3.49089 9.41634 4.08333 9.71484 4.83984 9.71484C5.60547 9.71484 6.19336 9.42318 6.60352 8.83984C7.01823 8.25651 7.22559 7.4043 7.22559 6.2832V5.76367ZM13.3086 3.60352L13.3564 4.45801C13.9033 3.7972 14.6211 3.4668 15.5098 3.4668C17.0501 3.4668 17.834 4.34863 17.8613 6.1123V11H16.2002V6.20801C16.2002 5.73861 16.0977 5.39225 15.8926 5.16895C15.6921 4.94108 15.3617 4.82715 14.9014 4.82715C14.2314 4.82715 13.7324 5.13021 13.4043 5.73633V11H11.7432V3.60352H13.3086ZM24.0674 11.1367C23.0146 11.1367 22.1602 10.8063 21.5039 10.1455C20.8522 9.48014 20.5264 8.59603 20.5264 7.49316V7.28809C20.5264 6.5498 20.6676 5.89128 20.9502 5.3125C21.2373 4.72917 21.6383 4.27572 22.1533 3.95215C22.6683 3.62858 23.2425 3.4668 23.876 3.4668C24.8831 3.4668 25.6602 3.78809 26.207 4.43066C26.7585 5.07324 27.0342 5.98242 27.0342 7.1582V7.82812H22.2012C22.2513 8.4388 22.4541 8.92188 22.8096 9.27734C23.1696 9.63281 23.6208 9.81055 24.1631 9.81055C24.9242 9.81055 25.5439 9.50293 26.0225 8.8877L26.918 9.74219C26.6217 10.1842 26.2253 10.5283 25.7285 10.7744C25.2363 11.016 24.6826 11.1367 24.0674 11.1367ZM23.8691 4.7998C23.4134 4.7998 23.0443 4.95931 22.7617 5.27832C22.4837 5.59733 22.306 6.04167 22.2285 6.61133H25.3936V6.48828C25.3571 5.93229 25.209 5.51302 24.9492 5.23047C24.6895 4.94336 24.3294 4.7998 23.8691 4.7998ZM39.6787 8.43652C39.6787 7.99902 39.5238 7.66178 39.2139 7.4248C38.9085 7.18783 38.3548 6.94857 37.5527 6.70703C36.7507 6.46549 36.1126 6.19661 35.6387 5.90039C34.7318 5.33073 34.2783 4.58789 34.2783 3.67188C34.2783 2.86979 34.6042 2.20898 35.2559 1.68945C35.9121 1.16992 36.762 0.910156 37.8057 0.910156C38.4984 0.910156 39.1159 1.03776 39.6582 1.29297C40.2005 1.54818 40.6266 1.91276 40.9365 2.38672C41.2464 2.85612 41.4014 3.37793 41.4014 3.95215H39.6787C39.6787 3.43262 39.5146 3.02702 39.1865 2.73535C38.863 2.43913 38.3981 2.29102 37.792 2.29102C37.2269 2.29102 36.7871 2.41178 36.4727 2.65332C36.1628 2.89486 36.0078 3.2321 36.0078 3.66504C36.0078 4.02962 36.1764 4.33496 36.5137 4.58105C36.8509 4.82259 37.4069 5.05957 38.1816 5.29199C38.9564 5.51986 39.5785 5.7819 40.0479 6.07812C40.5173 6.36979 40.8613 6.70703 41.0801 7.08984C41.2988 7.4681 41.4082 7.91243 41.4082 8.42285C41.4082 9.25228 41.0892 9.91309 40.4512 10.4053C39.8177 10.8929 38.9564 11.1367 37.8672 11.1367C37.1471 11.1367 36.484 11.0046 35.8779 10.7402C35.2764 10.4714 34.807 10.1022 34.4697 9.63281C34.137 9.16341 33.9707 8.61654 33.9707 7.99219H35.7002C35.7002 8.55729 35.887 8.99479 36.2607 9.30469C36.6344 9.61458 37.1699 9.76953 37.8672 9.76953C38.4688 9.76953 38.9199 9.64876 39.2207 9.40723C39.526 9.16113 39.6787 8.83757 39.6787 8.43652ZM46.0967 1.80566V3.60352H47.4023V4.83398H46.0967V8.96289C46.0967 9.24544 46.1514 9.45052 46.2607 9.57812C46.3747 9.70117 46.5752 9.7627 46.8623 9.7627C47.0537 9.7627 47.2474 9.73991 47.4434 9.69434V10.9795C47.0651 11.0843 46.7005 11.1367 46.3496 11.1367C45.0736 11.1367 44.4355 10.4326 44.4355 9.02441V4.83398H43.2188V3.60352H44.4355V1.80566H46.0967ZM49.4111 7.2334C49.4111 6.50879 49.5547 5.8571 49.8418 5.27832C50.1289 4.69499 50.5322 4.24837 51.0518 3.93848C51.5713 3.62402 52.1683 3.4668 52.8428 3.4668C53.8408 3.4668 54.6497 3.78809 55.2695 4.43066C55.8939 5.07324 56.2311 5.92546 56.2812 6.9873L56.2881 7.37695C56.2881 8.10612 56.1468 8.75781 55.8643 9.33203C55.5863 9.90625 55.1852 10.3506 54.6611 10.665C54.1416 10.9795 53.54 11.1367 52.8564 11.1367C51.8128 11.1367 50.9766 10.7904 50.3477 10.0977C49.7233 9.40039 49.4111 8.47298 49.4111 7.31543V7.2334ZM51.0723 7.37695C51.0723 8.13802 51.2295 8.73503 51.5439 9.16797C51.8584 9.59635 52.2959 9.81055 52.8564 9.81055C53.417 9.81055 53.8522 9.5918 54.1621 9.1543C54.4766 8.7168 54.6338 8.0765 54.6338 7.2334C54.6338 6.486 54.472 5.89355 54.1484 5.45605C53.8294 5.01855 53.3942 4.7998 52.8428 4.7998C52.3005 4.7998 51.8698 5.01628 51.5508 5.44922C51.2318 5.8776 51.0723 6.52018 51.0723 7.37695ZM65.4199 7.37695C65.4199 8.52083 65.1602 9.43457 64.6406 10.1182C64.1211 10.7972 63.4238 11.1367 62.5488 11.1367C61.7376 11.1367 61.0882 10.8701 60.6006 10.3369V13.8438H58.9395V3.60352H60.4707L60.5391 4.35547C61.0267 3.76302 61.6898 3.4668 62.5283 3.4668C63.4307 3.4668 64.137 3.80404 64.6475 4.47852C65.1624 5.14844 65.4199 6.0804 65.4199 7.27441V7.37695ZM63.7656 7.2334C63.7656 6.49512 63.6175 5.90951 63.3213 5.47656C63.0296 5.04362 62.6104 4.82715 62.0635 4.82715C61.3844 4.82715 60.8968 5.10742 60.6006 5.66797V8.94922C60.9014 9.52344 61.3936 9.81055 62.0771 9.81055C62.6058 9.81055 63.0182 9.59863 63.3145 9.1748C63.6152 8.74642 63.7656 8.09928 63.7656 7.2334ZM78.1807 8.43652C78.1807 7.99902 78.0257 7.66178 77.7158 7.4248C77.4105 7.18783 76.8568 6.94857 76.0547 6.70703C75.2526 6.46549 74.6146 6.19661 74.1406 5.90039C73.2337 5.33073 72.7803 4.58789 72.7803 3.67188C72.7803 2.86979 73.1061 2.20898 73.7578 1.68945C74.4141 1.16992 75.264 0.910156 76.3076 0.910156C77.0003 0.910156 77.6178 1.03776 78.1602 1.29297C78.7025 1.54818 79.1286 1.91276 79.4385 2.38672C79.7484 2.85612 79.9033 3.37793 79.9033 3.95215H78.1807C78.1807 3.43262 78.0166 3.02702 77.6885 2.73535C77.3649 2.43913 76.9001 2.29102 76.2939 2.29102C75.7288 2.29102 75.2891 2.41178 74.9746 2.65332C74.6647 2.89486 74.5098 3.2321 74.5098 3.66504C74.5098 4.02962 74.6784 4.33496 75.0156 4.58105C75.3529 4.82259 75.9089 5.05957 76.6836 5.29199C77.4583 5.51986 78.0804 5.7819 78.5498 6.07812C79.0192 6.36979 79.3633 6.70703 79.582 7.08984C79.8008 7.4681 79.9102 7.91243 79.9102 8.42285C79.9102 9.25228 79.5911 9.91309 78.9531 10.4053C78.3197 10.8929 77.4583 11.1367 76.3691 11.1367C75.6491 11.1367 74.986 11.0046 74.3799 10.7402C73.7783 10.4714 73.3089 10.1022 72.9717 9.63281C72.639 9.16341 72.4727 8.61654 72.4727 7.99219H74.2021C74.2021 8.55729 74.389 8.99479 74.7627 9.30469C75.1364 9.61458 75.6719 9.76953 76.3691 9.76953C76.9707 9.76953 77.4219 9.64876 77.7227 9.40723C78.028 9.16113 78.1807 8.83757 78.1807 8.43652ZM84.1543 4.41016C84.6966 3.78125 85.3825 3.4668 86.2119 3.4668C87.7887 3.4668 88.5885 4.36686 88.6113 6.16699V11H86.9502V6.22852C86.9502 5.7181 86.8385 5.35807 86.6152 5.14844C86.3965 4.93424 86.0729 4.82715 85.6445 4.82715C84.9792 4.82715 84.4824 5.12337 84.1543 5.71582V11H82.4932V0.5H84.1543V4.41016ZM91.2354 7.2334C91.2354 6.50879 91.3789 5.8571 91.666 5.27832C91.9531 4.69499 92.3564 4.24837 92.876 3.93848C93.3955 3.62402 93.9925 3.4668 94.667 3.4668C95.665 3.4668 96.474 3.78809 97.0938 4.43066C97.7181 5.07324 98.0553 5.92546 98.1055 6.9873L98.1123 7.37695C98.1123 8.10612 97.971 8.75781 97.6885 9.33203C97.4105 9.90625 97.0094 10.3506 96.4854 10.665C95.9658 10.9795 95.3643 11.1367 94.6807 11.1367C93.637 11.1367 92.8008 10.7904 92.1719 10.0977C91.5475 9.40039 91.2354 8.47298 91.2354 7.31543V7.2334ZM92.8965 7.37695C92.8965 8.13802 93.0537 8.73503 93.3682 9.16797C93.6826 9.59635 94.1201 9.81055 94.6807 9.81055C95.2412 9.81055 95.6764 9.5918 95.9863 9.1543C96.3008 8.7168 96.458 8.0765 96.458 7.2334C96.458 6.486 96.2962 5.89355 95.9727 5.45605C95.6536 5.01855 95.2184 4.7998 94.667 4.7998C94.1247 4.7998 93.694 5.01628 93.375 5.44922C93.056 5.8776 92.8965 6.52018 92.8965 7.37695ZM107.244 7.37695C107.244 8.52083 106.984 9.43457 106.465 10.1182C105.945 10.7972 105.248 11.1367 104.373 11.1367C103.562 11.1367 102.912 10.8701 102.425 10.3369V13.8438H100.764V3.60352H102.295L102.363 4.35547C102.851 3.76302 103.514 3.4668 104.353 3.4668C105.255 3.4668 105.961 3.80404 106.472 4.47852C106.987 5.14844 107.244 6.0804 107.244 7.27441V7.37695ZM105.59 7.2334C105.59 6.49512 105.442 5.90951 105.146 5.47656C104.854 5.04362 104.435 4.82715 103.888 4.82715C103.209 4.82715 102.721 5.10742 102.425 5.66797V8.94922C102.726 9.52344 103.218 9.81055 103.901 9.81055C104.43 9.81055 104.842 9.59863 105.139 9.1748C105.439 8.74642 105.59 8.09928 105.59 7.2334ZM120.538 6.78223H116.532V11H114.803V1.04688H121.126V2.44141H116.532V5.40137H120.538V6.78223ZM123.128 7.2334C123.128 6.50879 123.271 5.8571 123.559 5.27832C123.846 4.69499 124.249 4.24837 124.769 3.93848C125.288 3.62402 125.885 3.4668 126.56 3.4668C127.558 3.4668 128.367 3.78809 128.986 4.43066C129.611 5.07324 129.948 5.92546 129.998 6.9873L130.005 7.37695C130.005 8.10612 129.864 8.75781 129.581 9.33203C129.303 9.90625 128.902 10.3506 128.378 10.665C127.858 10.9795 127.257 11.1367 126.573 11.1367C125.53 11.1367 124.693 10.7904 124.064 10.0977C123.44 9.40039 123.128 8.47298 123.128 7.31543V7.2334ZM124.789 7.37695C124.789 8.13802 124.946 8.73503 125.261 9.16797C125.575 9.59635 126.013 9.81055 126.573 9.81055C127.134 9.81055 127.569 9.5918 127.879 9.1543C128.193 8.7168 128.351 8.0765 128.351 7.2334C128.351 6.486 128.189 5.89355 127.865 5.45605C127.546 5.01855 127.111 4.7998 126.56 4.7998C126.017 4.7998 125.587 5.01628 125.268 5.44922C124.949 5.8776 124.789 6.52018 124.789 7.37695ZM136.532 5.12109C136.313 5.08464 136.088 5.06641 135.855 5.06641C135.094 5.06641 134.582 5.35807 134.317 5.94141V11H132.656V3.60352H134.242L134.283 4.43066C134.684 3.78809 135.24 3.4668 135.951 3.4668C136.188 3.4668 136.384 3.4987 136.539 3.5625L136.532 5.12109ZM145.458 7.30176V11H143.729V1.04688H147.536C148.648 1.04688 149.53 1.33626 150.182 1.91504C150.838 2.49382 151.166 3.25944 151.166 4.21191C151.166 5.18717 150.845 5.94596 150.202 6.48828C149.564 7.0306 148.669 7.30176 147.516 7.30176H145.458ZM145.458 5.91406H147.536C148.151 5.91406 148.621 5.77051 148.944 5.4834C149.268 5.19173 149.43 4.77246 149.43 4.22559C149.43 3.68783 149.266 3.25944 148.938 2.94043C148.609 2.61686 148.158 2.45052 147.584 2.44141H145.458V5.91406ZM156.935 11.1367C155.882 11.1367 155.027 10.8063 154.371 10.1455C153.719 9.48014 153.394 8.59603 153.394 7.49316V7.28809C153.394 6.5498 153.535 5.89128 153.817 5.3125C154.104 4.72917 154.506 4.27572 155.021 3.95215C155.535 3.62858 156.11 3.4668 156.743 3.4668C157.75 3.4668 158.527 3.78809 159.074 4.43066C159.626 5.07324 159.901 5.98242 159.901 7.1582V7.82812H155.068C155.118 8.4388 155.321 8.92188 155.677 9.27734C156.037 9.63281 156.488 9.81055 157.03 9.81055C157.791 9.81055 158.411 9.50293 158.89 8.8877L159.785 9.74219C159.489 10.1842 159.092 10.5283 158.596 10.7744C158.104 11.016 157.55 11.1367 156.935 11.1367ZM156.736 4.7998C156.281 4.7998 155.911 4.95931 155.629 5.27832C155.351 5.59733 155.173 6.04167 155.096 6.61133H158.261V6.48828C158.224 5.93229 158.076 5.51302 157.816 5.23047C157.557 4.94336 157.197 4.7998 156.736 4.7998ZM164.528 1.80566V3.60352H165.834V4.83398H164.528V8.96289C164.528 9.24544 164.583 9.45052 164.692 9.57812C164.806 9.70117 165.007 9.7627 165.294 9.7627C165.485 9.7627 165.679 9.73991 165.875 9.69434V10.9795C165.497 11.0843 165.132 11.1367 164.781 11.1367C163.505 11.1367 162.867 10.4326 162.867 9.02441V4.83398H161.65V3.60352H162.867V1.80566H164.528ZM174.985 7.30176V11H173.256V1.04688H177.063C178.175 1.04688 179.057 1.33626 179.709 1.91504C180.365 2.49382 180.693 3.25944 180.693 4.21191C180.693 5.18717 180.372 5.94596 179.729 6.48828C179.091 7.0306 178.196 7.30176 177.043 7.30176H174.985ZM174.985 5.91406H177.063C177.679 5.91406 178.148 5.77051 178.472 5.4834C178.795 5.19173 178.957 4.77246 178.957 4.22559C178.957 3.68783 178.793 3.25944 178.465 2.94043C178.137 2.61686 177.686 2.45052 177.111 2.44141H174.985V5.91406ZM187.173 5.12109C186.954 5.08464 186.729 5.06641 186.496 5.06641C185.735 5.06641 185.222 5.35807 184.958 5.94141V11H183.297V3.60352H184.883L184.924 4.43066C185.325 3.78809 185.881 3.4668 186.592 3.4668C186.829 3.4668 187.025 3.4987 187.18 3.5625L187.173 5.12109ZM188.915 7.2334C188.915 6.50879 189.059 5.8571 189.346 5.27832C189.633 4.69499 190.036 4.24837 190.556 3.93848C191.075 3.62402 191.672 3.4668 192.347 3.4668C193.345 3.4668 194.154 3.78809 194.773 4.43066C195.398 5.07324 195.735 5.92546 195.785 6.9873L195.792 7.37695C195.792 8.10612 195.651 8.75781 195.368 9.33203C195.09 9.90625 194.689 10.3506 194.165 10.665C193.646 10.9795 193.044 11.1367 192.36 11.1367C191.317 11.1367 190.48 10.7904 189.852 10.0977C189.227 9.40039 188.915 8.47298 188.915 7.31543V7.2334ZM190.576 7.37695C190.576 8.13802 190.733 8.73503 191.048 9.16797C191.362 9.59635 191.8 9.81055 192.36 9.81055C192.921 9.81055 193.356 9.5918 193.666 9.1543C193.98 8.7168 194.138 8.0765 194.138 7.2334C194.138 6.486 193.976 5.89355 193.652 5.45605C193.333 5.01855 192.898 4.7998 192.347 4.7998C191.804 4.7998 191.374 5.01628 191.055 5.44922C190.736 5.8776 190.576 6.52018 190.576 7.37695ZM198.136 7.24707C198.136 6.10775 198.4 5.19401 198.929 4.50586C199.457 3.81315 200.166 3.4668 201.055 3.4668C201.839 3.4668 202.472 3.74023 202.955 4.28711V0.5H204.616V11H203.112L203.03 10.2344C202.534 10.8359 201.87 11.1367 201.041 11.1367C200.175 11.1367 199.473 10.7881 198.936 10.0908C198.402 9.39355 198.136 8.44564 198.136 7.24707ZM199.797 7.39062C199.797 8.14258 199.94 8.73047 200.228 9.1543C200.519 9.57357 200.932 9.7832 201.465 9.7832C202.144 9.7832 202.641 9.48014 202.955 8.87402V5.71582C202.65 5.12337 202.158 4.82715 201.479 4.82715C200.941 4.82715 200.526 5.04134 200.234 5.46973C199.943 5.89355 199.797 6.53385 199.797 7.39062ZM212.08 10.2754C211.592 10.8496 210.9 11.1367 210.002 11.1367C209.2 11.1367 208.591 10.902 208.177 10.4326C207.767 9.96322 207.562 9.28418 207.562 8.39551V3.60352H209.223V8.375C209.223 9.3138 209.612 9.7832 210.392 9.7832C211.198 9.7832 211.743 9.49382 212.025 8.91504V3.60352H213.687V11H212.121L212.08 10.2754ZM219.667 9.81055C220.082 9.81055 220.426 9.68978 220.699 9.44824C220.973 9.20671 221.118 8.9082 221.137 8.55273H222.702C222.684 9.01302 222.54 9.44368 222.271 9.84473C222.003 10.2412 221.638 10.5557 221.178 10.7881C220.717 11.0205 220.221 11.1367 219.688 11.1367C218.653 11.1367 217.833 10.8018 217.227 10.1318C216.62 9.46191 216.317 8.53678 216.317 7.35645V7.18555C216.317 6.0599 216.618 5.15983 217.22 4.48535C217.821 3.80632 218.642 3.4668 219.681 3.4668C220.56 3.4668 221.276 3.72428 221.827 4.23926C222.383 4.74967 222.675 5.42188 222.702 6.25586H221.137C221.118 5.83203 220.973 5.4834 220.699 5.20996C220.43 4.93652 220.086 4.7998 219.667 4.7998C219.129 4.7998 218.715 4.99577 218.423 5.3877C218.131 5.77507 217.983 6.36523 217.979 7.1582V7.4248C217.979 8.22689 218.122 8.82617 218.409 9.22266C218.701 9.61458 219.12 9.81055 219.667 9.81055ZM227.288 1.80566V3.60352H228.594V4.83398H227.288V8.96289C227.288 9.24544 227.343 9.45052 227.452 9.57812C227.566 9.70117 227.767 9.7627 228.054 9.7627C228.245 9.7627 228.439 9.73991 228.635 9.69434V10.9795C228.257 11.0843 227.892 11.1367 227.541 11.1367C226.265 11.1367 225.627 10.4326 225.627 9.02441V4.83398H224.41V3.60352H225.627V1.80566H227.288ZM235.265 8.99023C235.265 8.69401 235.142 8.46842 234.896 8.31348C234.654 8.15853 234.251 8.02181 233.686 7.90332C233.12 7.78483 232.649 7.63444 232.271 7.45215C231.441 7.05111 231.026 6.47005 231.026 5.70898C231.026 5.07096 231.295 4.53776 231.833 4.10938C232.371 3.68099 233.054 3.4668 233.884 3.4668C234.768 3.4668 235.481 3.68555 236.023 4.12305C236.57 4.56055 236.844 5.12793 236.844 5.8252H235.183C235.183 5.50618 235.064 5.24186 234.827 5.03223C234.59 4.81803 234.276 4.71094 233.884 4.71094C233.519 4.71094 233.221 4.79525 232.988 4.96387C232.76 5.13249 232.646 5.35807 232.646 5.64062C232.646 5.89583 232.754 6.09408 232.968 6.23535C233.182 6.37663 233.615 6.52018 234.267 6.66602C234.918 6.80729 235.429 6.97819 235.798 7.17871C236.172 7.37467 236.447 7.61165 236.625 7.88965C236.807 8.16764 236.898 8.50488 236.898 8.90137C236.898 9.56673 236.623 10.1068 236.071 10.5215C235.52 10.9316 234.798 11.1367 233.904 11.1367C233.298 11.1367 232.758 11.0273 232.284 10.8086C231.81 10.5898 231.441 10.2891 231.177 9.90625C230.912 9.52344 230.78 9.111 230.78 8.66895H232.394C232.416 9.06087 232.564 9.36393 232.838 9.57812C233.111 9.78776 233.474 9.89258 233.925 9.89258C234.362 9.89258 234.695 9.81055 234.923 9.64648C235.151 9.47786 235.265 9.25911 235.265 8.99023Z" fill="#2C7973"/>
</svg>
