<svg width="24" height="24" viewBox="0 0 24 24" fill="none" xmlns="http://www.w3.org/2000/svg">
<g clip-path="url(#clip0)">
<path d="M22.8695 4.55442C21.1006 1.52187 17.2082 0.497525 14.1757 2.26647C13.4425 2.69417 12.8024 3.26437 12.2931 3.94348L12 4.33407L11.707 3.94357C10.5034 2.34657 8.62131 1.40542 6.62151 1.40057H6.47001C4.29656 1.40047 2.27376 2.51098 1.10706 4.34478C0.383464 5.48053 -0.000636244 6.79938 1.37559e-05 8.14608V9.30258C-0.00563624 12.7447 1.72951 15.9563 4.61166 17.8383L5.29436 18.2855L8.09961 20.1233L11.7809 22.5351C11.9146 22.6226 12.0877 22.6222 12.2209 22.5339L19.43 17.7596C22.2873 15.8724 24.0045 12.6753 24 9.25108V8.73608C23.9997 7.26673 23.6096 5.82377 22.8695 4.55442ZM9.64226 19.9794L9.78956 20.2741L6.57456 18.1679L5.73276 17.6164L5.50366 17.4664L7.53291 14.4225C7.57671 14.3568 7.60006 14.2796 7.60001 14.2006V12.9486C7.60001 12.9224 7.60046 12.8958 7.60126 12.8703C7.62401 12.3756 7.81246 11.9029 8.13626 11.5282L8.20071 11.4524L8.41201 12.2974C8.45646 12.4755 8.61646 12.6005 8.80001 12.6006H9.75781C10.0254 12.6003 10.2754 12.7342 10.4234 12.9572C10.6964 13.3671 11.1185 13.6544 11.6 13.7581V14.2006C11.5995 14.6422 11.2416 15.0001 10.8 15.0006C10.5791 15.0006 10.4 15.1797 10.4 15.4006V16.8556C10.4004 17.1321 10.3185 17.4025 10.1647 17.6323L9.66716 18.3787C9.62336 18.4444 9.60001 18.5216 9.60001 18.6006V19.8006C9.60001 19.8627 9.61446 19.9239 9.64226 19.9795V19.9794ZM11.2 21.1983L10.8 20.9362V20.6006C10.8 20.5384 10.7855 20.477 10.7577 20.4214L10.7534 20.4129L11.2 19.9662V21.1983ZM14.4 20.1313L13.6 20.6613V18.4006L14.4 17.8006V20.1313ZM15.1475 15.1228C15.1186 15.7047 14.9 16.2611 14.525 16.707L12.96 17.8806C12.8593 17.9561 12.8 18.0747 12.8 18.2006V21.1909L12 21.7209V19.0006C12 18.7797 11.821 18.6006 11.6 18.6006C11.4939 18.6006 11.3922 18.6427 11.3172 18.7177L10.4 19.6349V18.7217L10.83 18.0764C11.0718 17.7152 11.2006 17.2902 11.2 16.8556V15.7499C11.906 15.5667 12.3991 14.9299 12.4 14.2006V13.4006C12.4 13.1797 12.2209 13.0006 12 13.0006C11.6339 13.0009 11.2919 12.818 11.0889 12.5133C10.9239 12.2652 10.6928 12.0682 10.4217 11.9446L11.0343 11.332L11.0211 11.3583L12.4106 12.0533C13.1311 12.4124 13.925 12.5997 14.73 12.6006H14.9035L15.1058 14.1156C15.1504 14.4493 15.1643 14.7865 15.1475 15.1228ZM12.4 8.60057V9.90008C12.3999 10.0659 12.2654 10.2004 12.0996 10.2006H11.6V9.48658C11.5974 8.51248 11.9846 7.57778 12.6754 6.89093C12.8615 6.70518 13.1136 6.60073 13.3765 6.60057H14.2425C14.4937 6.59993 14.7346 6.69978 14.9117 6.87793L15.7172 7.68343C15.7922 7.75843 15.8939 7.80058 16 7.80058H16.8V8.40058C16.7997 8.73178 16.5312 9.00023 16.2 9.00058H15.2C14.9791 9.00058 14.8 9.17968 14.8 9.40058V11.8006H14.73C14.0492 11.7998 13.3779 11.6413 12.7686 11.3375L12.0945 11.0006H12.0995C12.707 10.9999 13.1993 10.5076 13.2 9.90008V8.60057H12.4ZM23.2 9.25108C23.2041 12.4069 21.6215 15.3534 18.9882 17.0926L15.2 19.6014V17.1446C15.6496 16.578 15.9106 15.8849 15.9465 15.1625C15.9656 14.7775 15.9496 14.3917 15.8985 14.0097L15.6 11.774V9.80058H16.2C16.9729 9.79967 17.5991 9.17343 17.6 8.40058V7.40058C17.6 7.17968 17.4209 7.00058 17.2 7.00058H16.1657L15.4774 6.31218C15.1506 5.98358 14.7059 5.79933 14.2425 5.80058H13.3765C12.9014 5.80078 12.4458 5.98943 12.1097 6.32523C11.2684 7.16183 10.7968 8.30018 10.8 9.48658V10.4349L9.43431 11.8006H9.11231L8.78806 10.5036C8.73446 10.2893 8.51731 10.1589 8.30301 10.2125C8.22201 10.2328 8.14941 10.2778 8.09531 10.3414L7.52666 11.0101C7.08606 11.5225 6.83071 12.1683 6.80166 12.8434C6.80051 12.8784 6.79991 12.9137 6.79991 12.9484V14.0793L5.68341 15.7543C5.00826 15.2486 4.39981 14.6595 3.87246 14.0011L3.51236 13.5506C3.37431 13.3781 3.12251 13.3502 2.95001 13.4882C2.77751 13.6263 2.74961 13.8781 2.88766 14.0506L3.24766 14.5009C3.82646 15.2236 4.49576 15.8689 5.23906 16.4209L4.83646 17.0248C2.30386 15.2703 0.794914 12.3835 0.800014 9.30258V8.14608C0.799414 6.95153 1.14011 5.78168 1.78201 4.77428C2.80186 3.17127 4.57006 2.20047 6.47001 2.20057H6.62151C8.36966 2.20482 10.0149 3.02757 11.0671 4.42362L11.68 5.24058C11.8126 5.41733 12.0633 5.45313 12.24 5.32058C12.2703 5.29783 12.2973 5.27087 12.32 5.24058L12.933 4.42357C14.7743 1.96832 18.2573 1.47062 20.7125 3.31187C21.3061 3.75702 21.8045 4.31658 22.1784 4.95748C22.8472 6.10448 23.1997 7.40833 23.2 8.73608V9.25108Z" fill="#00D654"/>
<path d="M13.6001 7.40063H14.4001V8.20063H13.6001V7.40063Z" fill="#00D654"/>
<path d="M9.19995 13.4006H9.99995V14.2006H9.19995V13.4006Z" fill="#00D654"/>
<path d="M21.05 13.4883C20.8775 13.3502 20.6258 13.3781 20.4877 13.5505C20.4877 13.5506 20.4877 13.5506 20.4876 13.5506L20.1276 14.0009C19.3407 14.9862 18.3739 15.8131 17.2786 16.4378L16.2017 17.0532C16.0097 17.1625 15.9427 17.4067 16.052 17.5987C16.1613 17.7907 16.4055 17.8577 16.5975 17.7484C16.5979 17.7482 16.5983 17.748 16.5986 17.7478L17.6755 17.1325C18.8583 16.4577 19.9023 15.5646 20.7521 14.5006L21.1121 14.0503C21.2501 13.8779 21.2223 13.6263 21.05 13.4883Z" fill="#00D654"/>
<path d="M22.0001 9.40063C21.7792 9.40063 21.6001 9.57973 21.6001 9.80063V9.93229C21.6003 10.5969 21.4931 11.2572 21.2828 11.8876L21.2206 12.0741C21.1487 12.283 21.2597 12.5106 21.4686 12.5825C21.6775 12.6544 21.9051 12.5434 21.977 12.3345C21.9779 12.3321 21.9787 12.3296 21.9795 12.3271L22.0417 12.1406C22.2792 11.4286 22.4002 10.6829 22.4 9.93229V9.80063C22.4001 9.57973 22.221 9.40063 22.0001 9.40063Z" fill="#00D654"/>
<path d="M22.0001 7.40063C21.7792 7.40063 21.6001 7.57974 21.6001 7.80064V8.20064C21.6001 8.42154 21.7792 8.60064 22.0001 8.60064C22.221 8.60064 22.4001 8.42154 22.4001 8.20064V7.80064C22.4001 7.57974 22.221 7.40063 22.0001 7.40063Z" fill="#00D654"/>
<path d="M2.7174 11.8877C2.50705 11.2572 2.3999 10.5969 2.4001 9.93229V9.80063C2.4001 9.57973 2.221 9.40063 2.0001 9.40063C1.7792 9.40063 1.6001 9.57973 1.6001 9.80063V9.93229C1.5999 10.6829 1.7209 11.4286 1.95845 12.1406L2.02065 12.3271C2.08845 12.5373 2.31385 12.6528 2.5241 12.585C2.73435 12.5172 2.84985 12.2918 2.78205 12.0816C2.78125 12.0791 2.7804 12.0766 2.77955 12.0741L2.7174 11.8877Z" fill="#00D654"/>
</g>
<defs>
<clipPath id="clip0">
<rect width="24" height="24" fill="white"/>
</clipPath>
</defs>
</svg>
