<svg width="179" height="12" viewBox="0 0 179 12" fill="none" xmlns="http://www.w3.org/2000/svg">
<path d="M1.74121 7.30176V11H0.0117188V1.04688H3.81934C4.93132 1.04688 5.81315 1.33626 6.46484 1.91504C7.12109 2.49382 7.44922 3.25944 7.44922 4.21191C7.44922 5.18717 7.12793 5.94596 6.48535 6.48828C5.84733 7.0306 4.95182 7.30176 3.79883 7.30176H1.74121ZM1.74121 5.91406H3.81934C4.43457 5.91406 4.90397 5.77051 5.22754 5.4834C5.55111 5.19173 5.71289 4.77246 5.71289 4.22559C5.71289 3.68783 5.54883 3.25944 5.2207 2.94043C4.89258 2.61686 4.44141 2.45052 3.86719 2.44141H1.74121V5.91406ZM13.2178 11.1367C12.165 11.1367 11.3105 10.8063 10.6543 10.1455C10.0026 9.48014 9.67676 8.59603 9.67676 7.49316V7.28809C9.67676 6.5498 9.81803 5.89128 10.1006 5.3125C10.3877 4.72917 10.7887 4.27572 11.3037 3.95215C11.8187 3.62858 12.3929 3.4668 13.0264 3.4668C14.0335 3.4668 14.8105 3.78809 15.3574 4.43066C15.9089 5.07324 16.1846 5.98242 16.1846 7.1582V7.82812H11.3516C11.4017 8.4388 11.6045 8.92188 11.96 9.27734C12.32 9.63281 12.7712 9.81055 13.3135 9.81055C14.0745 9.81055 14.6943 9.50293 15.1729 8.8877L16.0684 9.74219C15.7721 10.1842 15.3757 10.5283 14.8789 10.7744C14.3867 11.016 13.833 11.1367 13.2178 11.1367ZM13.0195 4.7998C12.5638 4.7998 12.1947 4.95931 11.9121 5.27832C11.6341 5.59733 11.4564 6.04167 11.3789 6.61133H14.5439V6.48828C14.5075 5.93229 14.3594 5.51302 14.0996 5.23047C13.8398 4.94336 13.4798 4.7998 13.0195 4.7998ZM22.6025 5.12109C22.3838 5.08464 22.1582 5.06641 21.9258 5.06641C21.1647 5.06641 20.652 5.35807 20.3877 5.94141V11H18.7266V3.60352H20.3125L20.3535 4.43066C20.7546 3.78809 21.3105 3.4668 22.0215 3.4668C22.2585 3.4668 22.4544 3.4987 22.6094 3.5625L22.6025 5.12109ZM25.623 11V4.83398H24.4951V3.60352H25.623V2.92676C25.623 2.10645 25.8509 1.47298 26.3066 1.02637C26.7624 0.579753 27.4004 0.356445 28.2207 0.356445C28.5124 0.356445 28.8223 0.397461 29.1504 0.479492L29.1094 1.77832C28.9271 1.74186 28.7152 1.72363 28.4736 1.72363C27.6807 1.72363 27.2842 2.13151 27.2842 2.94727V3.60352H28.7881V4.83398H27.2842V11H25.623ZM34.3447 11.1367C33.292 11.1367 32.4375 10.8063 31.7812 10.1455C31.1296 9.48014 30.8037 8.59603 30.8037 7.49316V7.28809C30.8037 6.5498 30.945 5.89128 31.2275 5.3125C31.5146 4.72917 31.9157 4.27572 32.4307 3.95215C32.9456 3.62858 33.5199 3.4668 34.1533 3.4668C35.1605 3.4668 35.9375 3.78809 36.4844 4.43066C37.0358 5.07324 37.3115 5.98242 37.3115 7.1582V7.82812H32.4785C32.5286 8.4388 32.7314 8.92188 33.0869 9.27734C33.4469 9.63281 33.8981 9.81055 34.4404 9.81055C35.2015 9.81055 35.8213 9.50293 36.2998 8.8877L37.1953 9.74219C36.8991 10.1842 36.5026 10.5283 36.0059 10.7744C35.5137 11.016 34.96 11.1367 34.3447 11.1367ZM34.1465 4.7998C33.6908 4.7998 33.3216 4.95931 33.0391 5.27832C32.7611 5.59733 32.5833 6.04167 32.5059 6.61133H35.6709V6.48828C35.6344 5.93229 35.4863 5.51302 35.2266 5.23047C34.9668 4.94336 34.6068 4.7998 34.1465 4.7998ZM42.8955 9.81055C43.3102 9.81055 43.6543 9.68978 43.9277 9.44824C44.2012 9.20671 44.347 8.9082 44.3652 8.55273H45.9307C45.9124 9.01302 45.7689 9.44368 45.5 9.84473C45.2311 10.2412 44.8665 10.5557 44.4062 10.7881C43.946 11.0205 43.4492 11.1367 42.916 11.1367C41.8815 11.1367 41.0612 10.8018 40.4551 10.1318C39.849 9.46191 39.5459 8.53678 39.5459 7.35645V7.18555C39.5459 6.0599 39.8467 5.15983 40.4482 4.48535C41.0498 3.80632 41.8701 3.4668 42.9092 3.4668C43.7887 3.4668 44.5042 3.72428 45.0557 4.23926C45.6117 4.74967 45.9033 5.42188 45.9307 6.25586H44.3652C44.347 5.83203 44.2012 5.4834 43.9277 5.20996C43.6589 4.93652 43.3148 4.7998 42.8955 4.7998C42.3577 4.7998 41.943 4.99577 41.6514 5.3877C41.3597 5.77507 41.2116 6.36523 41.207 7.1582V7.4248C41.207 8.22689 41.3506 8.82617 41.6377 9.22266C41.9294 9.61458 42.3486 9.81055 42.8955 9.81055ZM50.5166 1.80566V3.60352H51.8223V4.83398H50.5166V8.96289C50.5166 9.24544 50.5713 9.45052 50.6807 9.57812C50.7946 9.70117 50.9951 9.7627 51.2822 9.7627C51.4736 9.7627 51.6673 9.73991 51.8633 9.69434V10.9795C51.485 11.0843 51.1204 11.1367 50.7695 11.1367C49.4935 11.1367 48.8555 10.4326 48.8555 9.02441V4.83398H47.6387V3.60352H48.8555V1.80566H50.5166ZM61.4863 1.04688L64.3574 8.67578L67.2217 1.04688H69.457V11H67.7344V7.71875L67.9053 3.33008L64.9658 11H63.7285L60.7959 3.33691L60.9668 7.71875V11H59.2441V1.04688H61.4863ZM77.0166 11C76.9437 10.8587 76.8799 10.6286 76.8252 10.3096C76.2965 10.861 75.6494 11.1367 74.8838 11.1367C74.141 11.1367 73.5348 10.9248 73.0654 10.501C72.596 10.0771 72.3613 9.55306 72.3613 8.92871C72.3613 8.1403 72.653 7.53646 73.2363 7.11719C73.8242 6.69336 74.6628 6.48145 75.752 6.48145H76.7705V5.99609C76.7705 5.61328 76.6634 5.30794 76.4492 5.08008C76.235 4.84766 75.9092 4.73145 75.4717 4.73145C75.0934 4.73145 74.7835 4.82715 74.542 5.01855C74.3005 5.2054 74.1797 5.44466 74.1797 5.73633H72.5186C72.5186 5.33073 72.653 4.95247 72.9219 4.60156C73.1908 4.24609 73.5553 3.9681 74.0156 3.76758C74.4805 3.56706 74.9977 3.4668 75.5674 3.4668C76.4333 3.4668 77.1237 3.68555 77.6387 4.12305C78.1536 4.55599 78.418 5.16667 78.4316 5.95508V9.29102C78.4316 9.95638 78.5251 10.4873 78.7119 10.8838V11H77.0166ZM75.1914 9.80371C75.5195 9.80371 75.8271 9.72396 76.1143 9.56445C76.4059 9.40495 76.6247 9.19076 76.7705 8.92188V7.52734H75.875C75.2598 7.52734 74.7972 7.63444 74.4873 7.84863C74.1774 8.06283 74.0225 8.36589 74.0225 8.75781C74.0225 9.07682 74.1273 9.33203 74.3369 9.52344C74.5511 9.71029 74.8359 9.80371 75.1914 9.80371ZM83.5029 1.80566V3.60352H84.8086V4.83398H83.5029V8.96289C83.5029 9.24544 83.5576 9.45052 83.667 9.57812C83.7809 9.70117 83.9814 9.7627 84.2686 9.7627C84.46 9.7627 84.6536 9.73991 84.8496 9.69434V10.9795C84.4714 11.0843 84.1068 11.1367 83.7559 11.1367C82.4798 11.1367 81.8418 10.4326 81.8418 9.02441V4.83398H80.625V3.60352H81.8418V1.80566H83.5029ZM90.3721 9.81055C90.7868 9.81055 91.1309 9.68978 91.4043 9.44824C91.6777 9.20671 91.8236 8.9082 91.8418 8.55273H93.4072C93.389 9.01302 93.2454 9.44368 92.9766 9.84473C92.7077 10.2412 92.3431 10.5557 91.8828 10.7881C91.4225 11.0205 90.9258 11.1367 90.3926 11.1367C89.3581 11.1367 88.5378 10.8018 87.9316 10.1318C87.3255 9.46191 87.0225 8.53678 87.0225 7.35645V7.18555C87.0225 6.0599 87.3232 5.15983 87.9248 4.48535C88.5264 3.80632 89.3467 3.4668 90.3857 3.4668C91.2653 3.4668 91.9808 3.72428 92.5322 4.23926C93.0882 4.74967 93.3799 5.42188 93.4072 6.25586H91.8418C91.8236 5.83203 91.6777 5.4834 91.4043 5.20996C91.1354 4.93652 90.7913 4.7998 90.3721 4.7998C89.8343 4.7998 89.4196 4.99577 89.1279 5.3877C88.8363 5.77507 88.6882 6.36523 88.6836 7.1582V7.4248C88.6836 8.22689 88.8271 8.82617 89.1143 9.22266C89.4059 9.61458 89.8252 9.81055 90.3721 9.81055ZM97.5488 4.41016C98.0911 3.78125 98.777 3.4668 99.6064 3.4668C101.183 3.4668 101.983 4.36686 102.006 6.16699V11H100.345V6.22852C100.345 5.7181 100.233 5.35807 100.01 5.14844C99.791 4.93424 99.4674 4.82715 99.0391 4.82715C98.3737 4.82715 97.877 5.12337 97.5488 5.71582V11H95.8877V0.5H97.5488V4.41016ZM113.085 5.76367L115.375 1.04688H117.289L113.953 7.33594V11H112.217V7.33594L108.874 1.04688H110.795L113.085 5.76367ZM118.696 7.2334C118.696 6.50879 118.84 5.8571 119.127 5.27832C119.414 4.69499 119.817 4.24837 120.337 3.93848C120.856 3.62402 121.453 3.4668 122.128 3.4668C123.126 3.4668 123.935 3.78809 124.555 4.43066C125.179 5.07324 125.516 5.92546 125.566 6.9873L125.573 7.37695C125.573 8.10612 125.432 8.75781 125.149 9.33203C124.871 9.90625 124.47 10.3506 123.946 10.665C123.427 10.9795 122.825 11.1367 122.142 11.1367C121.098 11.1367 120.262 10.7904 119.633 10.0977C119.008 9.40039 118.696 8.47298 118.696 7.31543V7.2334ZM120.357 7.37695C120.357 8.13802 120.515 8.73503 120.829 9.16797C121.144 9.59635 121.581 9.81055 122.142 9.81055C122.702 9.81055 123.137 9.5918 123.447 9.1543C123.762 8.7168 123.919 8.0765 123.919 7.2334C123.919 6.486 123.757 5.89355 123.434 5.45605C123.115 5.01855 122.679 4.7998 122.128 4.7998C121.586 4.7998 121.155 5.01628 120.836 5.44922C120.517 5.8776 120.357 6.52018 120.357 7.37695ZM132.709 10.2754C132.221 10.8496 131.529 11.1367 130.631 11.1367C129.829 11.1367 129.22 10.902 128.806 10.4326C128.396 9.96322 128.19 9.28418 128.19 8.39551V3.60352H129.852V8.375C129.852 9.3138 130.241 9.7832 131.021 9.7832C131.827 9.7832 132.372 9.49382 132.654 8.91504V3.60352H134.315V11H132.75L132.709 10.2754ZM141.13 5.12109C140.911 5.08464 140.686 5.06641 140.453 5.06641C139.692 5.06641 139.179 5.35807 138.915 5.94141V11H137.254V3.60352H138.84L138.881 4.43066C139.282 3.78809 139.838 3.4668 140.549 3.4668C140.786 3.4668 140.982 3.4987 141.137 3.5625L141.13 5.12109ZM150.056 7.30176V11H148.326V1.04688H152.134C153.246 1.04688 154.128 1.33626 154.779 1.91504C155.436 2.49382 155.764 3.25944 155.764 4.21191C155.764 5.18717 155.442 5.94596 154.8 6.48828C154.162 7.0306 153.266 7.30176 152.113 7.30176H150.056ZM150.056 5.91406H152.134C152.749 5.91406 153.218 5.77051 153.542 5.4834C153.866 5.19173 154.027 4.77246 154.027 4.22559C154.027 3.68783 153.863 3.25944 153.535 2.94043C153.207 2.61686 152.756 2.45052 152.182 2.44141H150.056V5.91406ZM161.532 11.1367C160.479 11.1367 159.625 10.8063 158.969 10.1455C158.317 9.48014 157.991 8.59603 157.991 7.49316V7.28809C157.991 6.5498 158.132 5.89128 158.415 5.3125C158.702 4.72917 159.103 4.27572 159.618 3.95215C160.133 3.62858 160.707 3.4668 161.341 3.4668C162.348 3.4668 163.125 3.78809 163.672 4.43066C164.223 5.07324 164.499 5.98242 164.499 7.1582V7.82812H159.666C159.716 8.4388 159.919 8.92188 160.274 9.27734C160.634 9.63281 161.086 9.81055 161.628 9.81055C162.389 9.81055 163.009 9.50293 163.487 8.8877L164.383 9.74219C164.087 10.1842 163.69 10.5283 163.193 10.7744C162.701 11.016 162.147 11.1367 161.532 11.1367ZM161.334 4.7998C160.878 4.7998 160.509 4.95931 160.227 5.27832C159.949 5.59733 159.771 6.04167 159.693 6.61133H162.858V6.48828C162.822 5.93229 162.674 5.51302 162.414 5.23047C162.154 4.94336 161.794 4.7998 161.334 4.7998ZM169.126 1.80566V3.60352H170.432V4.83398H169.126V8.96289C169.126 9.24544 169.181 9.45052 169.29 9.57812C169.404 9.70117 169.604 9.7627 169.892 9.7627C170.083 9.7627 170.277 9.73991 170.473 9.69434V10.9795C170.094 11.0843 169.73 11.1367 169.379 11.1367C168.103 11.1367 167.465 10.4326 167.465 9.02441V4.83398H166.248V3.60352H167.465V1.80566H169.126ZM177.103 8.99023C177.103 8.69401 176.979 8.46842 176.733 8.31348C176.492 8.15853 176.089 8.02181 175.523 7.90332C174.958 7.78483 174.487 7.63444 174.108 7.45215C173.279 7.05111 172.864 6.47005 172.864 5.70898C172.864 5.07096 173.133 4.53776 173.671 4.10938C174.209 3.68099 174.892 3.4668 175.722 3.4668C176.606 3.4668 177.319 3.68555 177.861 4.12305C178.408 4.56055 178.682 5.12793 178.682 5.8252H177.021C177.021 5.50618 176.902 5.24186 176.665 5.03223C176.428 4.81803 176.114 4.71094 175.722 4.71094C175.357 4.71094 175.059 4.79525 174.826 4.96387C174.598 5.13249 174.484 5.35807 174.484 5.64062C174.484 5.89583 174.591 6.09408 174.806 6.23535C175.02 6.37663 175.453 6.52018 176.104 6.66602C176.756 6.80729 177.267 6.97819 177.636 7.17871C178.009 7.37467 178.285 7.61165 178.463 7.88965C178.645 8.16764 178.736 8.50488 178.736 8.90137C178.736 9.56673 178.461 10.1068 177.909 10.5215C177.358 10.9316 176.635 11.1367 175.742 11.1367C175.136 11.1367 174.596 11.0273 174.122 10.8086C173.648 10.5898 173.279 10.2891 173.015 9.90625C172.75 9.52344 172.618 9.111 172.618 8.66895H174.231C174.254 9.06087 174.402 9.36393 174.676 9.57812C174.949 9.78776 175.312 9.89258 175.763 9.89258C176.2 9.89258 176.533 9.81055 176.761 9.64648C176.989 9.47786 177.103 9.25911 177.103 8.99023Z" fill="#2C7973"/>
</svg>
