<svg width="166" height="12" viewBox="0 0 166 12" fill="none" xmlns="http://www.w3.org/2000/svg">
<path d="M1.74121 7.30176V11H0.0117188V1.04688H3.81934C4.93132 1.04688 5.81315 1.33626 6.46484 1.91504C7.12109 2.49382 7.44922 3.25944 7.44922 4.21191C7.44922 5.18717 7.12793 5.94596 6.48535 6.48828C5.84733 7.0306 4.95182 7.30176 3.79883 7.30176H1.74121ZM1.74121 5.91406H3.81934C4.43457 5.91406 4.90397 5.77051 5.22754 5.4834C5.55111 5.19173 5.71289 4.77246 5.71289 4.22559C5.71289 3.68783 5.54883 3.25944 5.2207 2.94043C4.89258 2.61686 4.44141 2.45052 3.86719 2.44141H1.74121V5.91406ZM13.2178 11.1367C12.165 11.1367 11.3105 10.8063 10.6543 10.1455C10.0026 9.48014 9.67676 8.59603 9.67676 7.49316V7.28809C9.67676 6.5498 9.81803 5.89128 10.1006 5.3125C10.3877 4.72917 10.7887 4.27572 11.3037 3.95215C11.8187 3.62858 12.3929 3.4668 13.0264 3.4668C14.0335 3.4668 14.8105 3.78809 15.3574 4.43066C15.9089 5.07324 16.1846 5.98242 16.1846 7.1582V7.82812H11.3516C11.4017 8.4388 11.6045 8.92188 11.96 9.27734C12.32 9.63281 12.7712 9.81055 13.3135 9.81055C14.0745 9.81055 14.6943 9.50293 15.1729 8.8877L16.0684 9.74219C15.7721 10.1842 15.3757 10.5283 14.8789 10.7744C14.3867 11.016 13.833 11.1367 13.2178 11.1367ZM13.0195 4.7998C12.5638 4.7998 12.1947 4.95931 11.9121 5.27832C11.6341 5.59733 11.4564 6.04167 11.3789 6.61133H14.5439V6.48828C14.5075 5.93229 14.3594 5.51302 14.0996 5.23047C13.8398 4.94336 13.4798 4.7998 13.0195 4.7998ZM20.8115 1.80566V3.60352H22.1172V4.83398H20.8115V8.96289C20.8115 9.24544 20.8662 9.45052 20.9756 9.57812C21.0895 9.70117 21.29 9.7627 21.5771 9.7627C21.7686 9.7627 21.9622 9.73991 22.1582 9.69434V10.9795C21.7799 11.0843 21.4154 11.1367 21.0645 11.1367C19.7884 11.1367 19.1504 10.4326 19.1504 9.02441V4.83398H17.9336V3.60352H19.1504V1.80566H20.8115ZM31.3643 11H29.6416V1.04688H31.3643V11ZM36.1211 3.60352L36.1689 4.45801C36.7158 3.7972 37.4336 3.4668 38.3223 3.4668C39.8626 3.4668 40.6465 4.34863 40.6738 6.1123V11H39.0127V6.20801C39.0127 5.73861 38.9102 5.39225 38.7051 5.16895C38.5046 4.94108 38.1742 4.82715 37.7139 4.82715C37.0439 4.82715 36.5449 5.13021 36.2168 5.73633V11H34.5557V3.60352H36.1211ZM47.7686 8.99023C47.7686 8.69401 47.6455 8.46842 47.3994 8.31348C47.1579 8.15853 46.7546 8.02181 46.1895 7.90332C45.6243 7.78483 45.1527 7.63444 44.7744 7.45215C43.945 7.05111 43.5303 6.47005 43.5303 5.70898C43.5303 5.07096 43.7992 4.53776 44.3369 4.10938C44.8747 3.68099 45.5583 3.4668 46.3877 3.4668C47.2718 3.4668 47.985 3.68555 48.5273 4.12305C49.0742 4.56055 49.3477 5.12793 49.3477 5.8252H47.6865C47.6865 5.50618 47.568 5.24186 47.3311 5.03223C47.0941 4.81803 46.7796 4.71094 46.3877 4.71094C46.0231 4.71094 45.7246 4.79525 45.4922 4.96387C45.2643 5.13249 45.1504 5.35807 45.1504 5.64062C45.1504 5.89583 45.2575 6.09408 45.4717 6.23535C45.6859 6.37663 46.1188 6.52018 46.7705 6.66602C47.4222 6.80729 47.9326 6.97819 48.3018 7.17871C48.6755 7.37467 48.9512 7.61165 49.1289 7.88965C49.3112 8.16764 49.4023 8.50488 49.4023 8.90137C49.4023 9.56673 49.1266 10.1068 48.5752 10.5215C48.0238 10.9316 47.3014 11.1367 46.4082 11.1367C45.8021 11.1367 45.262 11.0273 44.7881 10.8086C44.3141 10.5898 43.945 10.2891 43.6807 9.90625C43.4163 9.52344 43.2842 9.111 43.2842 8.66895H44.8975C44.9202 9.06087 45.0684 9.36393 45.3418 9.57812C45.6152 9.78776 45.9775 9.89258 46.4287 9.89258C46.8662 9.89258 47.1989 9.81055 47.4268 9.64648C47.6546 9.47786 47.7686 9.25911 47.7686 8.99023ZM56.5859 10.2754C56.0983 10.8496 55.4056 11.1367 54.5078 11.1367C53.7057 11.1367 53.0973 10.902 52.6826 10.4326C52.2725 9.96322 52.0674 9.28418 52.0674 8.39551V3.60352H53.7285V8.375C53.7285 9.3138 54.1182 9.7832 54.8975 9.7832C55.7041 9.7832 56.2487 9.49382 56.5312 8.91504V3.60352H58.1924V11H56.627L56.5859 10.2754ZM65.0068 5.12109C64.7881 5.08464 64.5625 5.06641 64.3301 5.06641C63.569 5.06641 63.0563 5.35807 62.792 5.94141V11H61.1309V3.60352H62.7168L62.7578 4.43066C63.1589 3.78809 63.7148 3.4668 64.4258 3.4668C64.6628 3.4668 64.8587 3.4987 65.0137 3.5625L65.0068 5.12109ZM71.5205 11C71.4476 10.8587 71.3838 10.6286 71.3291 10.3096C70.8005 10.861 70.1533 11.1367 69.3877 11.1367C68.6449 11.1367 68.0387 10.9248 67.5693 10.501C67.0999 10.0771 66.8652 9.55306 66.8652 8.92871C66.8652 8.1403 67.1569 7.53646 67.7402 7.11719C68.3281 6.69336 69.1667 6.48145 70.2559 6.48145H71.2744V5.99609C71.2744 5.61328 71.1673 5.30794 70.9531 5.08008C70.7389 4.84766 70.4131 4.73145 69.9756 4.73145C69.5973 4.73145 69.2874 4.82715 69.0459 5.01855C68.8044 5.2054 68.6836 5.44466 68.6836 5.73633H67.0225C67.0225 5.33073 67.1569 4.95247 67.4258 4.60156C67.6947 4.24609 68.0592 3.9681 68.5195 3.76758C68.9844 3.56706 69.5016 3.4668 70.0713 3.4668C70.9372 3.4668 71.6276 3.68555 72.1426 4.12305C72.6576 4.55599 72.9219 5.16667 72.9355 5.95508V9.29102C72.9355 9.95638 73.029 10.4873 73.2158 10.8838V11H71.5205ZM69.6953 9.80371C70.0234 9.80371 70.3311 9.72396 70.6182 9.56445C70.9098 9.40495 71.1286 9.19076 71.2744 8.92188V7.52734H70.3789C69.7637 7.52734 69.3011 7.63444 68.9912 7.84863C68.6813 8.06283 68.5264 8.36589 68.5264 8.75781C68.5264 9.07682 68.6312 9.33203 68.8408 9.52344C69.055 9.71029 69.3398 9.80371 69.6953 9.80371ZM77.4668 3.60352L77.5146 4.45801C78.0615 3.7972 78.7793 3.4668 79.668 3.4668C81.2083 3.4668 81.9922 4.34863 82.0195 6.1123V11H80.3584V6.20801C80.3584 5.73861 80.2559 5.39225 80.0508 5.16895C79.8503 4.94108 79.5199 4.82715 79.0596 4.82715C78.3896 4.82715 77.8906 5.13021 77.5625 5.73633V11H75.9014V3.60352H77.4668ZM88.0068 9.81055C88.4215 9.81055 88.7656 9.68978 89.0391 9.44824C89.3125 9.20671 89.4583 8.9082 89.4766 8.55273H91.042C91.0238 9.01302 90.8802 9.44368 90.6113 9.84473C90.3424 10.2412 89.9779 10.5557 89.5176 10.7881C89.0573 11.0205 88.5605 11.1367 88.0273 11.1367C86.9928 11.1367 86.1725 10.8018 85.5664 10.1318C84.9603 9.46191 84.6572 8.53678 84.6572 7.35645V7.18555C84.6572 6.0599 84.958 5.15983 85.5596 4.48535C86.1611 3.80632 86.9814 3.4668 88.0205 3.4668C88.9001 3.4668 89.6156 3.72428 90.167 4.23926C90.723 4.74967 91.0146 5.42188 91.042 6.25586H89.4766C89.4583 5.83203 89.3125 5.4834 89.0391 5.20996C88.7702 4.93652 88.4261 4.7998 88.0068 4.7998C87.4691 4.7998 87.0544 4.99577 86.7627 5.3877C86.471 5.77507 86.3229 6.36523 86.3184 7.1582V7.4248C86.3184 8.22689 86.4619 8.82617 86.749 9.22266C87.0407 9.61458 87.46 9.81055 88.0068 9.81055ZM96.8037 11.1367C95.751 11.1367 94.8965 10.8063 94.2402 10.1455C93.5885 9.48014 93.2627 8.59603 93.2627 7.49316V7.28809C93.2627 6.5498 93.404 5.89128 93.6865 5.3125C93.9736 4.72917 94.3747 4.27572 94.8896 3.95215C95.4046 3.62858 95.9788 3.4668 96.6123 3.4668C97.6195 3.4668 98.3965 3.78809 98.9434 4.43066C99.4948 5.07324 99.7705 5.98242 99.7705 7.1582V7.82812H94.9375C94.9876 8.4388 95.1904 8.92188 95.5459 9.27734C95.9059 9.63281 96.3571 9.81055 96.8994 9.81055C97.6605 9.81055 98.2803 9.50293 98.7588 8.8877L99.6543 9.74219C99.3581 10.1842 98.9616 10.5283 98.4648 10.7744C97.9727 11.016 97.4189 11.1367 96.8037 11.1367ZM96.6055 4.7998C96.1497 4.7998 95.7806 4.95931 95.498 5.27832C95.2201 5.59733 95.0423 6.04167 94.9648 6.61133H98.1299V6.48828C98.0934 5.93229 97.9453 5.51302 97.6855 5.23047C97.4258 4.94336 97.0658 4.7998 96.6055 4.7998ZM112.948 6.78223H108.942V11H107.213V1.04688H113.536V2.44141H108.942V5.40137H112.948V6.78223ZM115.538 7.2334C115.538 6.50879 115.682 5.8571 115.969 5.27832C116.256 4.69499 116.659 4.24837 117.179 3.93848C117.698 3.62402 118.295 3.4668 118.97 3.4668C119.968 3.4668 120.777 3.78809 121.396 4.43066C122.021 5.07324 122.358 5.92546 122.408 6.9873L122.415 7.37695C122.415 8.10612 122.274 8.75781 121.991 9.33203C121.713 9.90625 121.312 10.3506 120.788 10.665C120.269 10.9795 119.667 11.1367 118.983 11.1367C117.94 11.1367 117.104 10.7904 116.475 10.0977C115.85 9.40039 115.538 8.47298 115.538 7.31543V7.2334ZM117.199 7.37695C117.199 8.13802 117.356 8.73503 117.671 9.16797C117.985 9.59635 118.423 9.81055 118.983 9.81055C119.544 9.81055 119.979 9.5918 120.289 9.1543C120.604 8.7168 120.761 8.0765 120.761 7.2334C120.761 6.486 120.599 5.89355 120.275 5.45605C119.956 5.01855 119.521 4.7998 118.97 4.7998C118.427 4.7998 117.997 5.01628 117.678 5.44922C117.359 5.8776 117.199 6.52018 117.199 7.37695ZM128.942 5.12109C128.724 5.08464 128.498 5.06641 128.266 5.06641C127.505 5.06641 126.992 5.35807 126.728 5.94141V11H125.066V3.60352H126.652L126.693 4.43066C127.094 3.78809 127.65 3.4668 128.361 3.4668C128.598 3.4668 128.794 3.4987 128.949 3.5625L128.942 5.12109ZM141.341 8.43652C141.341 7.99902 141.186 7.66178 140.876 7.4248C140.571 7.18783 140.017 6.94857 139.215 6.70703C138.413 6.46549 137.775 6.19661 137.301 5.90039C136.394 5.33073 135.94 4.58789 135.94 3.67188C135.94 2.86979 136.266 2.20898 136.918 1.68945C137.574 1.16992 138.424 0.910156 139.468 0.910156C140.16 0.910156 140.778 1.03776 141.32 1.29297C141.863 1.54818 142.289 1.91276 142.599 2.38672C142.909 2.85612 143.063 3.37793 143.063 3.95215H141.341C141.341 3.43262 141.177 3.02702 140.849 2.73535C140.525 2.43913 140.06 2.29102 139.454 2.29102C138.889 2.29102 138.449 2.41178 138.135 2.65332C137.825 2.89486 137.67 3.2321 137.67 3.66504C137.67 4.02962 137.839 4.33496 138.176 4.58105C138.513 4.82259 139.069 5.05957 139.844 5.29199C140.618 5.51986 141.241 5.7819 141.71 6.07812C142.179 6.36979 142.523 6.70703 142.742 7.08984C142.961 7.4681 143.07 7.91243 143.07 8.42285C143.07 9.25228 142.751 9.91309 142.113 10.4053C141.48 10.8929 140.618 11.1367 139.529 11.1367C138.809 11.1367 138.146 11.0046 137.54 10.7402C136.938 10.4714 136.469 10.1022 136.132 9.63281C135.799 9.16341 135.633 8.61654 135.633 7.99219H137.362C137.362 8.55729 137.549 8.99479 137.923 9.30469C138.297 9.61458 138.832 9.76953 139.529 9.76953C140.131 9.76953 140.582 9.64876 140.883 9.40723C141.188 9.16113 141.341 8.83757 141.341 8.43652ZM150.097 11C150.024 10.8587 149.96 10.6286 149.905 10.3096C149.377 10.861 148.729 11.1367 147.964 11.1367C147.221 11.1367 146.615 10.9248 146.146 10.501C145.676 10.0771 145.441 9.55306 145.441 8.92871C145.441 8.1403 145.733 7.53646 146.316 7.11719C146.904 6.69336 147.743 6.48145 148.832 6.48145H149.851V5.99609C149.851 5.61328 149.743 5.30794 149.529 5.08008C149.315 4.84766 148.989 4.73145 148.552 4.73145C148.174 4.73145 147.864 4.82715 147.622 5.01855C147.381 5.2054 147.26 5.44466 147.26 5.73633H145.599C145.599 5.33073 145.733 4.95247 146.002 4.60156C146.271 4.24609 146.635 3.9681 147.096 3.76758C147.561 3.56706 148.078 3.4668 148.647 3.4668C149.513 3.4668 150.204 3.68555 150.719 4.12305C151.234 4.55599 151.498 5.16667 151.512 5.95508V9.29102C151.512 9.95638 151.605 10.4873 151.792 10.8838V11H150.097ZM148.271 9.80371C148.6 9.80371 148.907 9.72396 149.194 9.56445C149.486 9.40495 149.705 9.19076 149.851 8.92188V7.52734H148.955C148.34 7.52734 147.877 7.63444 147.567 7.84863C147.257 8.06283 147.103 8.36589 147.103 8.75781C147.103 9.07682 147.207 9.33203 147.417 9.52344C147.631 9.71029 147.916 9.80371 148.271 9.80371ZM156.269 11H154.607V0.5H156.269V11ZM162.591 11.1367C161.538 11.1367 160.684 10.8063 160.027 10.1455C159.376 9.48014 159.05 8.59603 159.05 7.49316V7.28809C159.05 6.5498 159.191 5.89128 159.474 5.3125C159.761 4.72917 160.162 4.27572 160.677 3.95215C161.192 3.62858 161.766 3.4668 162.399 3.4668C163.407 3.4668 164.184 3.78809 164.73 4.43066C165.282 5.07324 165.558 5.98242 165.558 7.1582V7.82812H160.725C160.775 8.4388 160.978 8.92188 161.333 9.27734C161.693 9.63281 162.144 9.81055 162.687 9.81055C163.448 9.81055 164.067 9.50293 164.546 8.8877L165.441 9.74219C165.145 10.1842 164.749 10.5283 164.252 10.7744C163.76 11.016 163.206 11.1367 162.591 11.1367ZM162.393 4.7998C161.937 4.7998 161.568 4.95931 161.285 5.27832C161.007 5.59733 160.829 6.04167 160.752 6.61133H163.917V6.48828C163.881 5.93229 163.732 5.51302 163.473 5.23047C163.213 4.94336 162.853 4.7998 162.393 4.7998Z" fill="#2C7973"/>
</svg>
