<svg width="26" height="26" viewBox="0 0 26 26" fill="none" xmlns="http://www.w3.org/2000/svg">
<path d="M16.3997 5.66756C16.3953 5.65985 16.3879 5.6556 16.383 5.64832C16.3474 4.76519 16.0876 4.18192 15.6038 3.93405C14.1721 3.19981 11.9123 5.89913 10.8445 7.33711C10.3756 5.37567 8.66684 4.68875 8.58754 4.65807C8.48025 4.61647 8.35935 4.63129 8.26488 4.69715C8.17007 4.76302 8.1146 4.87153 8.11625 4.98662L8.16192 8.12335C8.16192 8.1256 8.16331 8.12759 8.16339 8.12993C8.16331 8.13262 8.16192 8.13487 8.16192 8.13756C8.16192 9.00639 7.88502 9.6635 7.43843 10.4424C6.97935 11.2423 6.38725 11.9459 5.67831 12.533C4.50051 13.5089 3.95174 14.5317 4.04725 15.5736C4.13755 16.5577 4.79579 17.3854 5.53271 18.0184C5.06523 19.6716 4.50537 22.4494 5.78093 23.103C5.94204 23.1854 6.11849 23.2264 6.30977 23.2264C6.55165 23.2264 6.81945 23.1529 7.10597 23.0228C7.10961 23.0229 7.11282 23.0248 7.11655 23.0248C7.12842 23.0248 7.14021 23.0243 7.15208 23.023L12.8511 22.4415C13.9954 22.3158 14.9944 21.7948 15.5926 21.0121C17.3026 18.774 18.585 16.272 19.4036 13.5753C19.7286 12.5043 19.6368 11.398 19.1525 10.5401L16.3997 5.66756ZM15.2876 4.55121C15.6644 4.74439 15.9054 5.69278 15.4511 7.77547C15.3423 8.27432 15.2006 8.80403 15.03 9.35609V5.89385C15.03 5.76081 14.9538 5.63957 14.8343 5.58167C14.7144 5.52395 14.572 5.53955 14.468 5.62215L12.0836 7.51252L11.5489 7.55395C13.3871 5.12373 14.7636 4.28115 15.2876 4.55121ZM10.203 7.62987L8.84988 7.7421L8.81842 5.57188C9.29474 5.89471 9.98469 6.5357 10.203 7.62987ZM6.72854 13.4775C7.59009 13.4775 8.23403 13.8812 8.23403 14.2423C8.23403 14.6546 7.55014 15.7476 6.72854 15.7476C5.90694 15.7476 5.2234 14.6546 5.2234 14.2423C5.2234 13.8812 5.86699 13.4775 6.72854 13.4775ZM4.73798 15.5101C4.72368 15.3546 4.73599 15.198 4.76233 15.041C5.11368 15.7268 5.83587 16.4409 6.72863 16.4409C7.99881 16.4409 8.92745 14.9948 8.92745 14.2423C8.92745 13.4247 7.96155 12.7842 6.72863 12.7842C6.62159 12.7842 6.51751 12.7907 6.41498 12.8001C7.05605 12.2157 7.60578 11.5441 8.03981 10.7873C8.47652 10.0261 8.78323 9.32533 8.84416 8.45918L12.2428 8.19563C12.3115 8.19025 12.3772 8.16451 12.4314 8.12161L14.3367 6.61101V10.2324C14.3367 10.719 14.2828 11.2065 14.1768 11.6814C14.1742 11.693 14.1775 11.704 14.1762 11.7155C13.7896 12.6612 13.3425 13.6374 12.8397 14.6188C12.069 16.1226 11.2327 17.5193 10.3914 18.7205H8.48865C8.08236 18.7205 7.6856 18.6188 7.34101 18.4265C6.42148 17.9134 4.86122 16.8526 4.73798 15.5101ZM6.09717 22.4858C5.63091 22.247 5.47404 20.917 6.12517 18.4807C6.43881 18.7022 6.74362 18.887 7.0031 19.0317C7.45065 19.2818 7.96423 19.4138 8.48865 19.4138H9.88832C9.52588 19.896 9.16474 20.3408 8.80993 20.7354C7.38435 22.3209 6.47435 22.6788 6.09717 22.4858ZM18.74 13.3738C17.9458 15.9909 16.7014 18.4191 15.0414 20.591C14.3549 21.4898 13.2278 21.7024 12.778 21.7519L8.30734 22.2082C8.63087 21.927 8.96948 21.5952 9.32559 21.1991C10.7065 19.6631 12.1737 17.4384 13.4565 14.9349C14.7396 12.4315 15.6885 9.94127 16.1286 7.92323C16.2068 7.56478 16.2655 7.23033 16.3085 6.91599L18.5485 10.8809C18.9405 11.5748 19.0102 12.4832 18.74 13.3738Z" fill="#00D654"/>
<path d="M20.23 4.16047C20.4216 4.16047 20.5766 4.00525 20.5766 3.8138V3.12047C20.5766 2.92902 20.4216 2.7738 20.23 2.7738C20.0383 2.7738 19.8833 2.92902 19.8833 3.12047V3.8138C19.8833 4.00525 20.0383 4.16047 20.23 4.16047Z" fill="#00D654"/>
<path d="M20.23 4.85388C20.0383 4.85388 19.8833 5.0091 19.8833 5.20055V5.89388C19.8833 6.08533 20.0383 6.24055 20.23 6.24055C20.4216 6.24055 20.5766 6.08533 20.5766 5.89388V5.20055C20.5766 5.0091 20.4216 4.85388 20.23 4.85388Z" fill="#00D654"/>
<path d="M19.5366 4.16052H18.8432C18.6516 4.16052 18.4966 4.31574 18.4966 4.50719C18.4966 4.69864 18.6516 4.85386 18.8432 4.85386H19.5366C19.7282 4.85386 19.8832 4.69864 19.8832 4.50719C19.8832 4.31574 19.7282 4.16052 19.5366 4.16052Z" fill="#00D654"/>
<path d="M21.6167 4.16052H20.9233C20.7317 4.16052 20.5767 4.31574 20.5767 4.50719C20.5767 4.69864 20.7317 4.85386 20.9233 4.85386H21.6167C21.8083 4.85386 21.9633 4.69864 21.9633 4.50719C21.9633 4.31574 21.8083 4.16052 21.6167 4.16052Z" fill="#00D654"/>
<path d="M11.6455 13.44C12.693 13.44 13.5454 12.5877 13.5454 11.5401C13.5454 10.4925 12.693 9.64001 11.6455 9.64001C10.5981 9.64001 9.74561 10.4925 9.74561 11.5401C9.74561 12.5877 10.5981 13.44 11.6455 13.44ZM11.6455 10.3333C12.3108 10.3333 12.8521 10.8747 12.8521 11.5401C12.8521 12.2053 12.3108 12.7467 11.6455 12.7467C10.9803 12.7467 10.4389 12.2053 10.4389 11.5401C10.4389 10.8748 10.9803 10.3333 11.6455 10.3333Z" fill="#00D654"/>
<path d="M11.5438 12.1637C11.828 12.1637 12.0584 11.9334 12.0584 11.6492C12.0584 11.365 11.828 11.1346 11.5438 11.1346C11.2597 11.1346 11.0293 11.365 11.0293 11.6492C11.0293 11.9334 11.2597 12.1637 11.5438 12.1637Z" fill="#00D654"/>
<path d="M9.09549 11.6492C9.09549 11.365 8.86513 11.1346 8.58095 11.1346C8.29677 11.1346 8.06641 11.365 8.06641 11.6492C8.06641 11.9334 8.29677 12.1637 8.58095 12.1637C8.86513 12.1637 9.09549 11.9334 9.09549 11.6492Z" fill="#00D654"/>
<path d="M21.4638 10.0417C21.2591 10.0417 21.0933 10.2077 21.0933 10.4124C21.0933 10.6171 21.2592 10.783 21.4638 10.783C21.6685 10.783 21.8345 10.617 21.8345 10.4124C21.8345 10.2078 21.6686 10.0417 21.4638 10.0417Z" fill="#00D654"/>
</svg>
