<svg width="22" height="22" viewBox="0 0 22 22" fill="none" xmlns="http://www.w3.org/2000/svg">
<g clip-path="url(#clip0)">
<path d="M20.8999 19.0667H20.5334V7.90189C21.2051 7.58751 21.6339 6.9126 21.6333 6.17105V5.03221C21.6326 4.89424 21.6059 4.75762 21.5545 4.62955C21.5527 4.62518 21.5505 4.62132 21.5487 4.61696C21.507 4.51256 21.4496 4.41504 21.3785 4.3281L18.3215 0.659807C17.9737 0.241197 17.4574 -0.000669993 16.9132 1.39406e-06H5.08676C4.5426 -0.000669993 4.02631 0.241197 3.67853 0.659807L0.62204 4.32776C0.550705 4.41487 0.493134 4.51222 0.451508 4.61679C0.449493 4.62116 0.447311 4.62518 0.445465 4.62972C0.394104 4.75778 0.367416 4.89424 0.366745 5.03221V6.17105C0.366074 6.91277 0.794922 7.58768 1.46664 7.90206V19.0667H1.10007C0.492798 19.0674 0.000671387 19.5595 0 20.1666V21.2667C0.000503542 21.6715 0.328476 21.9995 0.733322 22H21.2667C21.6715 21.9995 21.9995 21.6715 22 21.2667V20.1666C21.9993 19.5595 21.5072 19.0674 20.8999 19.0667ZM1.10007 6.17105V5.13326H3.66661C3.8692 5.13326 4.03336 4.9691 4.03336 4.76668C4.03336 4.56409 3.8692 4.39993 3.66661 4.39993H1.51649L4.24216 1.12927C4.45062 0.878175 4.7603 0.732988 5.08676 0.733324H5.57201L4.08925 3.10567C4.01624 3.21678 4.00902 3.35878 4.07062 3.47661C4.13205 3.59444 4.25256 3.6698 4.3855 3.67349C4.51843 3.67719 4.64281 3.6087 4.71078 3.4944L6.43642 0.733324H7.53749L6.62323 3.1713C6.57724 3.29399 6.60023 3.43179 6.68349 3.53301C6.76674 3.63422 6.89766 3.68323 7.0269 3.66174C7.15614 3.64026 7.26407 3.55147 7.31006 3.42877L8.32083 0.733324H9.48468L9.1693 3.25455C9.14429 3.45546 9.28679 3.63875 9.4877 3.66376C9.50298 3.66577 9.51825 3.66678 9.53369 3.66661C9.71849 3.66644 9.87425 3.52881 9.89708 3.34552L10.2237 0.733324H11.7763L12.1029 3.34552C12.1257 3.52881 12.2815 3.66644 12.4663 3.66661C12.4816 3.66661 12.4969 3.66577 12.5121 3.66376C12.713 3.63875 12.8555 3.45546 12.8305 3.25455L12.5153 0.733324H13.6792L14.6899 3.42877C14.7611 3.61844 14.9724 3.71445 15.1621 3.64345C15.3518 3.57228 15.4478 3.36096 15.3768 3.1713L14.4625 0.733324H15.5636L17.2892 3.4944C17.3572 3.6087 17.4816 3.67719 17.6145 3.67349C17.7474 3.6698 17.868 3.59444 17.9294 3.47661C17.991 3.35878 17.9838 3.21678 17.9108 3.10567L16.428 0.733324H16.9132C17.2397 0.732988 17.5494 0.878175 17.7578 1.12927L20.4837 4.39993H5.13326C4.93083 4.39993 4.76668 4.56409 4.76668 4.76668C4.76668 4.9691 4.93083 5.13326 5.13326 5.13326H20.8999V6.17105C20.9125 6.75281 20.4857 7.25131 19.9088 7.32836C19.5988 7.36041 19.2898 7.2582 19.0598 7.04755C18.8309 6.83875 18.7001 6.54317 18.7 6.23332C18.7 6.0309 18.5358 5.86675 18.3334 5.86675C18.1308 5.86675 17.9666 6.0309 17.9666 6.23332C17.9666 6.84093 17.4742 7.33339 16.8667 7.33339C16.2591 7.33339 15.7667 6.84093 15.7667 6.23332C15.7667 6.0309 15.6025 5.86675 15.3999 5.86675C15.1975 5.86675 15.0334 6.0309 15.0334 6.23332C15.0334 6.84093 14.5409 7.33339 13.9333 7.33339C13.3259 7.33339 12.8334 6.84093 12.8334 6.23332C12.8334 6.0309 12.6692 5.86675 12.4666 5.86675C12.2642 5.86675 12.1001 6.0309 12.1001 6.23332C12.1001 6.84093 11.6074 7.33339 11 7.33339C10.3926 7.33339 9.89993 6.84093 9.89993 6.23332C9.89993 6.0309 9.73578 5.86675 9.53336 5.86675C9.33076 5.86675 9.16661 6.0309 9.16661 6.23332C9.16661 6.84093 8.67415 7.33339 8.06671 7.33339C7.45911 7.33339 6.96664 6.84093 6.96664 6.23332C6.96664 6.0309 6.80249 5.86675 6.60007 5.86675C6.39748 5.86675 6.23332 6.0309 6.23332 6.23332C6.23332 6.84093 5.74086 7.33339 5.13326 7.33339C4.52582 7.33339 4.03336 6.84093 4.03336 6.23332C4.03336 6.0309 3.8692 5.86675 3.66661 5.86675C3.46419 5.86675 3.30003 6.0309 3.30003 6.23332C3.2997 6.54317 3.16911 6.83858 2.94017 7.04738C2.71022 7.25786 2.40121 7.35991 2.0912 7.32802C1.51431 7.25098 1.08748 6.75281 1.10007 6.17105ZM7.33339 8.80003H3.66661C3.26193 8.80054 2.93379 9.12851 2.93329 9.53336V19.0667H2.19997V8.05647C2.77669 8.06403 3.32219 7.79497 3.66711 7.33272C4.01305 7.7948 4.55653 8.06671 5.13359 8.06671C5.71082 8.06654 6.2543 7.79447 6.60007 7.33222C6.94583 7.79447 7.48932 8.06671 8.06671 8.06671C8.64394 8.06671 9.18742 7.79447 9.53336 7.33222C9.87912 7.79447 10.4228 8.06671 11 8.06671C11.5772 8.06671 12.1209 7.79447 12.4666 7.33222C12.8126 7.79447 13.3561 8.06671 13.9333 8.06671C14.5107 8.06671 15.0542 7.79447 15.3999 7.33222C15.7459 7.79447 16.2892 8.06654 16.8664 8.06671C17.4435 8.06671 17.987 7.7948 18.3329 7.33272C18.6778 7.79497 19.2233 8.06403 19.8 8.05647V19.0667H8.06671V9.53336C8.06621 9.12851 7.73807 8.80054 7.33339 8.80003ZM3.66661 12.8334V9.53336H7.33339V12.8334H3.66661ZM7.33339 13.5667V19.0667H3.66661V13.5667H7.33339ZM21.2667 21.2667H0.733322V20.1666C0.73349 19.9642 0.897644 19.8002 1.10007 19.8H20.8999C21.1024 19.8002 21.2665 19.9642 21.2667 20.1666V21.2667Z" fill="#00D654"/>
<path d="M10.4499 14.6666C10.969 14.6666 11.437 14.3539 11.6355 13.8744C11.8341 13.3949 11.7243 12.843 11.3574 12.4759C10.9903 12.1088 10.4383 11.999 9.95874 12.1978C9.4792 12.3963 9.1665 12.8643 9.1665 13.3833C9.16734 14.0918 9.74155 14.6658 10.4499 14.6666ZM10.4499 12.8334C10.7537 12.8334 10.9999 13.0796 10.9999 13.3833C10.9999 13.6871 10.7537 13.9333 10.4499 13.9333C10.1461 13.9333 9.89983 13.6871 9.89983 13.3833C9.90016 13.0798 10.1462 12.8337 10.4499 12.8334Z" fill="#00D654"/>
<path d="M12.2834 12.1002C12.9922 12.1002 13.5667 11.5255 13.5667 10.8168C13.5667 10.108 12.9922 9.53345 12.2834 9.53345C11.5745 9.53345 11 10.108 11 10.8168C11.0008 11.5251 11.5749 12.0993 12.2834 12.1002ZM12.2834 10.2668C12.5872 10.2668 12.8334 10.513 12.8334 10.8168C12.8334 11.1204 12.5872 11.3668 12.2834 11.3668C11.9796 11.3668 11.7333 11.1204 11.7333 10.8168C11.7337 10.5132 11.9797 10.2671 12.2834 10.2668Z" fill="#00D654"/>
<path d="M15.5834 12.1002C16.2921 12.1002 16.8668 11.5255 16.8668 10.8168C16.8668 10.108 16.2921 9.53345 15.5834 9.53345C14.8746 9.53345 14.3 10.108 14.3 10.8168C14.3009 11.5251 14.8749 12.0993 15.5834 12.1002ZM15.5834 10.2668C15.887 10.2668 16.1333 10.513 16.1333 10.8168C16.1333 11.1204 15.887 11.3668 15.5834 11.3668C15.2796 11.3668 15.0334 11.1204 15.0334 10.8168C15.0337 10.5132 15.2798 10.2671 15.5834 10.2668Z" fill="#00D654"/>
<path d="M16.1333 13.3832C16.1333 14.092 16.708 14.6665 17.4167 14.6665C18.1255 14.6665 18.7 14.092 18.7 13.3832C18.7 12.6745 18.1255 12.1 17.4167 12.1C16.7083 12.1008 16.1343 12.6749 16.1333 13.3832ZM17.4167 12.8333C17.7205 12.8333 17.9667 13.0795 17.9667 13.3832C17.9667 13.687 17.7205 13.9332 17.4167 13.9332C17.113 13.9332 16.8668 13.687 16.8668 13.3832C16.8671 13.0797 17.113 12.8336 17.4167 12.8333Z" fill="#00D654"/>
<path d="M4.76665 15.0334H5.49997C5.70239 15.0334 5.86671 14.8692 5.86671 14.6666C5.86671 14.4642 5.70239 14.3 5.49997 14.3H4.76665C4.56406 14.3 4.3999 14.4642 4.3999 14.6666C4.3999 14.8692 4.56406 15.0334 4.76665 15.0334Z" fill="#00D654"/>
<path d="M11.3667 16.1333V16.5001C11.3674 17.1073 11.8593 17.5995 12.4666 17.6001H15.3999C16.0072 17.5995 16.4993 17.1073 16.5 16.5001V16.1333C16.5 14.7159 15.3509 13.5668 13.9332 13.5668C12.5158 13.5668 11.3667 14.7159 11.3667 16.1333ZM13.9332 14.3001C14.9454 14.3013 15.7655 15.1214 15.7666 16.1333V16.5001C15.7665 16.7025 15.6023 16.8665 15.3999 16.8668H12.4666C12.2642 16.8665 12.1002 16.7025 12.1 16.5001V16.1333C12.1012 15.1214 12.9213 14.3013 13.9332 14.3001Z" fill="#00D654"/>
</g>
<defs>
<clipPath id="clip0">
<rect width="22" height="22" fill="white"/>
</clipPath>
</defs>
</svg>
