<svg width="24" height="24" viewBox="0 0 24 24" fill="none" xmlns="http://www.w3.org/2000/svg">
<g clip-path="url(#clip0)">
<path d="M7.59995 7.99993C7.59995 7.33719 7.06269 6.79993 6.39995 6.79993C5.73721 6.79993 5.19995 7.33719 5.19995 7.99993C5.19995 8.66267 5.73721 9.19993 6.39995 9.19993C7.06269 9.19993 7.59995 8.66267 7.59995 7.99993ZM6.39995 8.39993C6.17904 8.39993 5.99995 8.22084 5.99995 7.99993C5.99995 7.77901 6.17904 7.59993 6.39995 7.59993C6.62087 7.59993 6.79995 7.77901 6.79995 7.99993C6.79995 8.22084 6.62087 8.39993 6.39995 8.39993Z" fill="#00D654"/>
<path d="M5.56006 6.57882C5.71764 6.24883 6.03946 6.02813 6.40406 6.00002C6.62497 5.99891 6.80316 5.81893 6.80206 5.59802C6.80096 5.3771 6.62097 5.19891 6.40006 5.20002C5.73284 5.22922 5.13504 5.62105 4.84206 6.22122C4.74331 6.41894 4.82354 6.65927 5.02126 6.75802C5.21898 6.85677 5.45931 6.77654 5.55806 6.57882H5.56006Z" fill="#00D654"/>
<path d="M11.2 9.19993C11.8627 9.19993 12.4 8.66267 12.4 7.99993C12.4 7.33719 11.8627 6.79993 11.2 6.79993C10.5373 6.79993 10 7.33719 10 7.99993C10 8.66267 10.5373 9.19993 11.2 9.19993ZM11.2 7.59993C11.4209 7.59993 11.6 7.77901 11.6 7.99993C11.6 8.22084 11.4209 8.39993 11.2 8.39993C10.9791 8.39993 10.8 8.22084 10.8 7.99993C10.8 7.77901 10.9791 7.59993 11.2 7.59993Z" fill="#00D654"/>
<path d="M11.2 6.00001C11.5649 6.02603 11.8871 6.2475 12.042 6.57881C12.1408 6.77653 12.3811 6.85676 12.5788 6.75801C12.7766 6.65926 12.8568 6.41893 12.758 6.22121C12.4651 5.62105 11.8673 5.22921 11.2 5.20001C10.9791 5.20001 10.8 5.3791 10.8 5.60001C10.8 5.82093 10.9791 6.00001 11.2 6.00001Z" fill="#00D654"/>
<path d="M0.800014 24.0002H16.8C17.0175 24.0004 17.2256 23.9113 17.3756 23.7538L17.8332 23.9638C17.9391 24.0124 18.0609 24.0124 18.1668 23.9638L18.8524 23.649C21.4006 22.5376 23.2089 20.207 23.6524 17.4626L23.9976 15.0862C24.0148 14.968 23.9783 14.8482 23.898 14.7598C22.3105 13.0903 20.3122 11.8673 18.1032 11.2134C18.0366 11.1958 17.9666 11.1958 17.9 11.2134C16.6297 11.5909 15.4225 12.1551 14.318 12.8874C14.1919 12.3417 13.9247 11.8387 13.5432 11.4286C13.9421 10.5787 14.2132 9.67453 14.3476 8.74538C14.7 9.03711 15.1425 9.19782 15.6 9.20018C16.704 9.19886 17.5987 8.3042 17.6 7.20018V4.56018C17.6159 3.08984 16.9372 1.69819 15.7688 0.80538C14.9681 0.150477 13.9206 -0.12057 12.9028 0.0637802C11.8767 0.327358 10.9628 0.914662 10.2968 1.73858C9.30748 1.55405 8.29255 1.55405 7.30321 1.73858C6.6372 0.914662 5.72335 0.327358 4.69721 0.0637802C3.67922 -0.119741 2.63191 0.151696 1.83121 0.80658C0.663214 1.69914 -0.0154482 3.09026 1.44851e-05 4.56018V7.20018C0.00133693 8.3042 0.895993 9.19886 2.00001 9.20018C2.45804 9.19818 2.9012 9.03746 3.25401 8.74538C3.38824 9.6741 3.65903 10.5779 4.05761 11.4274C3.03587 12.5209 2.91352 14.1784 3.76361 15.4102C3.6585 15.5892 3.6021 15.7926 3.60001 16.0002V17.2002C3.60094 17.5383 3.74531 17.8602 3.99721 18.0858C3.17422 18.5068 2.505 19.1767 2.08481 20.0002H2.00001C0.895993 20.0015 0.00133693 20.8962 1.44851e-05 22.0002V23.2002C1.44851e-05 23.642 0.358187 24.0002 0.800014 24.0002ZM5.60001 22.1538C6.21681 22.3022 6.91281 22.6018 7.13001 23.2002H5.60001V22.1538ZM10.47 23.2002C10.6872 22.6002 11.3832 22.3022 12 22.1538V23.2002H10.47ZM14.4 23.2002V22.8002C14.4 22.5793 14.2209 22.4002 14 22.4002C13.7791 22.4002 13.6 22.5793 13.6 22.8002V23.2002H12.8L12.8 22.0002C12.7997 21.9152 12.8089 21.8304 12.8272 21.7474C12.9238 21.2983 13.2691 20.9442 13.7156 20.8362C14.4026 21.7952 15.2821 22.6004 16.298 23.2002H14.4ZM18 12.0166C19.956 12.627 21.7331 13.7062 23.1768 15.1602L22.8592 17.3478C22.4545 19.8228 20.82 21.9225 18.52 22.9222L18 23.1602L17.48 22.9226C15.1799 21.9229 13.5455 19.8229 13.1412 17.3478L12.8212 15.1602C14.2666 13.7073 16.0441 12.6283 18 12.0166ZM10 19.6002C10.004 20.1174 9.67609 20.579 9.18636 20.7455C8.69664 20.9121 8.15532 20.746 7.84318 20.3336C7.53103 19.9211 7.51831 19.355 7.81161 18.929C8.42065 19.2911 9.17898 19.2911 9.78801 18.929C9.92463 19.1263 9.99852 19.3602 10 19.6002ZM8.40001 16.0874V16.8002C8.40001 17.0211 8.5791 17.2002 8.80001 17.2002C9.02093 17.2002 9.20001 17.0211 9.20001 16.8002V16.0874C9.4424 16.2829 9.71188 16.4421 10 16.5602V17.2002C10 17.6289 9.77129 18.0251 9.40001 18.2394C9.02873 18.4538 8.57129 18.4538 8.20001 18.2394C7.82873 18.0251 7.60001 17.6289 7.60001 17.2002V16.5602C7.88815 16.4421 8.15763 16.2829 8.40001 16.0874ZM8.80001 13.2002C8.44739 13.1444 8.14935 12.9088 8.01361 12.5786C8.25326 12.4451 8.52621 12.3831 8.80001 12.4002C9.07246 12.3837 9.344 12.4447 9.58321 12.5762C9.4507 12.9079 9.15297 13.1451 8.80001 13.2002ZM10.8 17.2002V16.7722C11.2808 16.8378 11.7703 16.7879 12.228 16.6266L12.348 17.4626C12.3548 17.509 12.3652 17.5542 12.3728 17.6002H10.76C10.7867 17.4685 10.8001 17.3345 10.8 17.2002ZM6.40001 11.2002C6.62093 11.2002 6.80001 11.0211 6.80001 10.8002C6.80001 10.5793 6.62093 10.4002 6.40001 10.4002C5.79688 10.4004 5.20627 10.5723 4.69721 10.8958C4.2762 9.98598 4.03926 9.0019 4.00001 8.00018C4.00001 7.93018 4.00001 7.84858 3.99681 7.75618C3.99441 7.64178 3.99201 7.51058 3.99201 7.35218C3.99201 7.32418 3.99201 7.29098 3.99201 7.26178C3.99201 7.24098 3.99841 7.22178 3.99841 7.20018V5.97778C4.03347 5.62171 4.25423 5.31073 4.57881 5.16018C4.70671 5.0963 4.79082 4.96904 4.79945 4.82633C4.80808 4.68363 4.73992 4.54716 4.62065 4.46833C4.50138 4.38951 4.34912 4.3803 4.22121 4.44418C4.14563 4.48259 4.07255 4.52574 4.00241 4.57338L4.00401 3.20018C4.19299 3.23069 4.37026 3.31152 4.51721 3.43418C4.67417 3.58577 4.92365 3.5836 5.07794 3.42931C5.23223 3.27501 5.2344 3.02553 5.08281 2.86858C4.82937 2.63421 4.51367 2.47796 4.17361 2.41858C3.93662 2.3659 3.68852 2.42369 3.4992 2.57567C3.30987 2.72766 3.19981 2.9574 3.20001 3.20018V6.95618V6.99098C3.19721 7.08338 3.19601 7.17138 3.19481 7.25978C3.17836 7.92109 2.62892 8.44384 1.96761 8.42738C1.30631 8.41092 0.783556 7.86149 0.800014 7.20018V4.56018C0.784227 3.34381 1.34276 2.19116 2.30721 1.44978C2.92726 0.934026 3.74167 0.714863 4.53681 0.84978C6.13681 1.16978 7.24561 2.98898 7.25681 3.00738C7.37196 3.19263 7.61429 3.25148 7.80157 3.13968C7.98885 3.02787 8.05204 2.78664 7.94361 2.59738C7.93641 2.58538 7.90601 2.53578 7.85681 2.46138C8.48314 2.38245 9.11689 2.38245 9.74321 2.46138C9.69401 2.53578 9.66321 2.58538 9.65641 2.59738C9.54799 2.78664 9.61117 3.02787 9.79846 3.13968C9.98574 3.25148 10.2281 3.19263 10.3432 3.00738C10.3544 2.98898 11.4632 1.16738 13.0632 0.84978C13.8587 0.715467 14.6731 0.935364 15.2928 1.45178C16.2567 2.19274 16.8152 3.34451 16.8 4.56018V7.20018C16.8001 7.84956 16.2826 8.38068 15.6334 8.39749C14.9843 8.41431 14.44 7.91069 14.4064 7.26218C14.4064 7.17498 14.4036 7.08738 14.4008 6.99098V6.95618V3.20018C14.4013 2.95827 14.2918 2.72925 14.1032 2.57778C13.9138 2.425 13.6654 2.36618 13.4276 2.41778C13.0874 2.47738 12.7716 2.63375 12.518 2.86818C12.3664 3.02513 12.3686 3.27461 12.5229 3.42891C12.6772 3.5832 12.9267 3.58537 13.0836 3.43378C13.2315 3.31067 13.4099 3.22994 13.6 3.20018V4.57298C13.5292 4.52463 13.4553 4.48094 13.3788 4.44218C13.1811 4.34343 12.9408 4.42366 12.842 4.62138C12.7433 4.8191 12.8235 5.05943 13.0212 5.15818C13.3518 5.31611 13.5726 5.63885 13.6 6.00418V7.20018C13.6 7.22058 13.6056 7.24018 13.606 7.25978C13.606 7.29418 13.608 7.32978 13.608 7.36418C13.608 7.51058 13.6056 7.64178 13.6032 7.75618C13.6032 7.84858 13.6 7.93018 13.6 8.00018C13.5607 9.00219 13.3236 9.98654 12.9024 10.8966C12.3937 10.5726 11.8031 10.4004 11.2 10.4002C10.9791 10.4002 10.8 10.5793 10.8 10.8002C10.8 11.0211 10.9791 11.2002 11.2 11.2002C12.4472 11.2034 13.4848 12.1598 13.5896 13.4026C13.0544 13.8095 12.5571 14.2639 12.1036 14.7602C12.0233 14.8486 11.9868 14.9684 12.004 15.0866L12.1108 15.8214C11.8219 15.9403 11.5124 16.001 11.2 16.0002C10.3932 15.9958 9.64224 15.5874 9.20001 14.9126V13.9326C9.82882 13.7248 10.2908 13.1858 10.4 12.5326C10.4 11.9926 9.72721 11.6002 8.80001 11.6002C7.87281 11.6002 7.20001 11.9926 7.20001 12.5334C7.30922 13.1866 7.77121 13.7256 8.40001 13.9334V14.9134C7.77054 15.8711 6.55109 16.2492 5.4902 15.8156C4.4293 15.3819 3.82387 14.2579 4.04554 13.1334C4.2672 12.009 5.25391 11.1988 6.40001 11.2002ZM4.80001 17.6002C4.5791 17.6002 4.40001 17.4211 4.40001 17.2002V16.0942C5.07146 16.6432 5.94039 16.8894 6.80001 16.7742V17.2002C6.79979 17.3345 6.81319 17.4685 6.84001 17.6002H4.80001ZM6.00001 18.4002H7.20281C6.58134 19.2248 6.68979 20.387 7.4531 21.0824C8.21641 21.7778 9.38362 21.7778 10.1469 21.0824C10.9102 20.387 11.0187 19.2248 10.3972 18.4002H12.548C12.7175 19.0075 12.9608 19.5917 13.2724 20.1398C12.7402 20.3481 12.3229 20.7745 12.126 21.311C10.708 21.5722 9.82881 22.2442 9.64001 23.2002H7.96001C7.77121 22.2434 6.89041 21.571 5.47001 21.3106C5.18179 20.5259 4.43595 20.0033 3.60001 20.0002H3.01601C3.68117 19.0021 4.8006 18.4019 6.00001 18.4002ZM0.800014 22.0002C0.800014 21.3374 1.33727 20.8002 2.00001 20.8002H3.60001C4.26276 20.8002 4.80001 21.3374 4.80001 22.0002V23.2002H4.00001V22.8002C4.00001 22.5793 3.82093 22.4002 3.60001 22.4002C3.3791 22.4002 3.20001 22.5793 3.20001 22.8002V23.2002H2.40001V22.8002C2.40001 22.5793 2.22093 22.4002 2.00001 22.4002C1.7791 22.4002 1.60001 22.5793 1.60001 22.8002V23.2002H0.800014V22.0002Z" fill="#00D654"/>
<path d="M13.9329 17.2328C14.2993 19.4393 15.762 21.3085 17.8157 22.1948L17.9829 21.8312L17.8313 22.202C17.8824 22.2247 17.9378 22.2362 17.9937 22.2356C18.0594 22.2359 18.1245 22.2223 18.1845 22.1956C20.2378 21.3097 21.7004 19.4414 22.0677 17.2356L22.2985 15.6456C22.3173 15.5156 22.2711 15.3846 22.1749 15.2952C21.0004 14.2377 19.627 13.4248 18.1349 12.904C18.0491 12.8738 17.9555 12.8738 17.8697 12.904C16.3769 13.4248 15.0027 14.2377 13.8273 15.2952C13.7314 15.3848 13.6853 15.5156 13.7037 15.6456L13.9329 17.2328ZM18.0001 13.704C19.2709 14.1694 20.4481 14.8586 21.4761 15.7388L21.2761 17.1176C20.9591 18.998 19.7327 20.6 18.0001 21.3968C16.2671 20.6003 15.0407 18.9977 14.7249 17.1168L14.5249 15.738C15.5529 14.8584 16.7298 14.1695 18.0001 13.704Z" fill="#00D654"/>
<path d="M17.3172 19.0828C17.3922 19.1578 17.494 19.2 17.6 19.2H17.6156C17.7268 19.1957 17.8312 19.1452 17.9036 19.0608L20.3036 16.2608C20.4373 16.0923 20.4138 15.8483 20.2504 15.7084C20.0871 15.5685 19.8424 15.5828 19.6964 15.7408L17.5764 18.2128L16.682 17.3184C16.5251 17.1668 16.2756 17.169 16.1213 17.3233C15.967 17.4776 15.9648 17.727 16.1164 17.884L17.3172 19.0828Z" fill="#00D654"/>
</g>
<defs>
<clipPath id="clip0">
<rect width="24" height="24" fill="white"/>
</clipPath>
</defs>
</svg>
