<svg width="24" height="24" viewBox="0 0 24 24" fill="none" xmlns="http://www.w3.org/2000/svg">
<path d="M4.64389 16.9005L4.66606 16.8838C4.79207 17.1192 4.95209 17.3347 5.14095 17.5234L5.62503 18.0075V21.2272C5.62503 21.3266 5.66454 21.422 5.73486 21.4923C5.80519 21.5627 5.90057 21.6022 6.00003 21.6022H7.12503C7.21528 21.6022 7.30251 21.5696 7.3707 21.5105C7.43889 21.4513 7.48346 21.3696 7.49623 21.2802L7.85923 18.7396L8.32062 18.0475C8.43042 17.8824 8.49474 17.6913 8.50709 17.4934C8.51943 17.2955 8.47937 17.0979 8.39093 16.9204L7.93287 16.0044L8.50695 15.1433L10.5438 14.1248L11.7419 14.4244L12.4148 15.7701C12.4552 15.8508 12.5233 15.9143 12.6067 15.9488C12.6901 15.9833 12.7831 15.9867 12.8688 15.9582L13.9938 15.5832C14.0405 15.5676 14.0837 15.543 14.1209 15.5107C14.1581 15.4784 14.1886 15.4392 14.2106 15.3951C14.2326 15.351 14.2458 15.3031 14.2492 15.254C14.2527 15.2048 14.2465 15.1555 14.2309 15.1088L13.5805 13.1578C13.5328 13.0159 13.4574 12.8848 13.3587 12.7722C13.26 12.6596 13.1399 12.5677 13.0054 12.5019L11.836 11.9329C11.9434 11.4236 11.8908 10.8935 11.6852 10.4153L11.6139 10.2488L11.3719 8.63509L12.6094 7.645C12.6827 7.58638 12.7313 7.50241 12.7457 7.40969C12.7601 7.31696 12.7392 7.22221 12.6871 7.14414L11.9371 6.01914C11.891 5.94989 11.8231 5.89797 11.7441 5.87155C11.6652 5.84513 11.5797 5.84572 11.5012 5.87322L10.6696 6.16427L9.46601 5.86338C9.40318 5.84762 9.33735 5.84841 9.27492 5.86566C9.21248 5.88291 9.15558 5.91604 9.10976 5.96181L7.98476 7.08681C7.94993 7.12167 7.92232 7.16304 7.90349 7.20857C7.88466 7.2541 7.87499 7.3029 7.87503 7.35217V9.0047C7.875 9.32754 7.78727 9.64431 7.6212 9.92116L7.40496 10.2815C7.03325 10.9024 6.54404 11.4448 5.96473 11.8784C5.55267 12.1869 5.2047 12.5727 4.94028 13.0143C4.66701 13.4704 4.47875 13.9723 4.38462 14.4956C4.34523 14.5082 4.3082 14.5272 4.27503 14.5518L3.23014 15.3358C2.97511 15.5266 2.68082 15.6581 2.36862 15.721L1.05148 15.9844C0.984895 15.9977 0.923175 16.0288 0.872906 16.0745C0.822637 16.1201 0.785705 16.1786 0.766052 16.2436C0.746398 16.3086 0.744761 16.3777 0.761314 16.4435C0.777868 16.5094 0.811991 16.5695 0.860042 16.6175L0.875182 16.6326C1.14229 16.9012 1.46002 17.1141 1.80998 17.2591C2.15993 17.404 2.53517 17.4782 2.91396 17.4771C3.5376 17.4759 4.14422 17.2736 4.64389 16.9005ZM8.62503 7.75783L8.82082 8.23028C8.83903 8.27415 8.84841 8.32119 8.84842 8.36869C8.84843 8.41619 8.83908 8.46323 8.82089 8.50711C8.80271 8.55099 8.77605 8.59086 8.74244 8.62442C8.70883 8.65799 8.66893 8.6846 8.62503 8.70274V7.75783ZM5.5834 13.4004C5.79798 13.042 6.08036 12.7289 6.41473 12.4786C7.07171 11.9868 7.62651 11.3717 8.04809 10.6676L8.26432 10.3073C8.41784 10.0511 8.52483 9.76983 8.58035 9.47641C8.73661 9.46372 8.88837 9.41789 9.02553 9.34197C9.16269 9.26606 9.28211 9.16179 9.37582 9.03611C9.49135 8.88138 9.56478 8.69934 9.58895 8.50776C9.61311 8.31617 9.58718 8.1216 9.51368 7.94303L9.1257 7.0068L9.49006 6.64244L10.5966 6.919C10.6676 6.93679 10.7423 6.93337 10.8114 6.90916L11.4744 6.67713L11.8723 7.27408L10.7344 8.18439C10.6831 8.22542 10.6435 8.2792 10.6195 8.34035C10.5956 8.40149 10.5881 8.46786 10.5978 8.53281L10.8791 10.4078C10.8838 10.4395 10.8926 10.4705 10.9053 10.4999L10.9956 10.7109C11.1722 11.1216 11.1873 11.5839 11.0381 12.0053C11.0381 12.0057 11.0367 12.0094 11.0366 12.01C11.0063 12.0968 11.0089 12.1916 11.0439 12.2766C11.0789 12.3615 11.1439 12.4307 11.2265 12.4709L12.6773 13.1766C12.7222 13.1985 12.7622 13.2291 12.7951 13.2667C12.828 13.3042 12.8532 13.3479 12.869 13.3952L13.4007 14.9902L12.94 15.1437L12.3353 13.9346C12.3111 13.8863 12.2767 13.8437 12.2345 13.8098C12.1923 13.776 12.1433 13.7517 12.0908 13.7386L10.5908 13.3636C10.504 13.3418 10.4122 13.3519 10.3322 13.3919L8.08217 14.5169C8.02381 14.5461 7.97407 14.59 7.93789 14.6443L7.18789 15.7693C7.1512 15.8243 7.12971 15.8881 7.1256 15.9541C7.12148 16.02 7.13488 16.0859 7.16445 16.1451L7.71978 17.256C7.74926 17.3152 7.76262 17.3811 7.7585 17.447C7.75439 17.513 7.73295 17.5767 7.69634 17.6317L7.18779 18.3946C7.15674 18.4412 7.13651 18.4941 7.12859 18.5495L6.79957 20.8526H6.37503V17.8526C6.37503 17.8033 6.36534 17.7546 6.34649 17.7091C6.32765 17.6636 6.30002 17.6222 6.2652 17.5874L5.67129 16.9936C5.38053 16.7037 5.18818 16.3299 5.12145 15.9248L5.11334 15.8763C4.9711 15.0213 5.13773 14.1437 5.5834 13.4004ZM2.51567 16.4564C2.93765 16.3715 3.33542 16.1936 3.68014 15.9358L4.3182 15.4573C4.32536 15.639 4.34381 15.82 4.37346 15.9994L4.38157 16.0479C4.38701 16.0807 4.3932 16.1135 4.39985 16.146L4.1936 16.3007C3.89102 16.5272 3.53378 16.6695 3.1583 16.713C2.78281 16.7566 2.4025 16.6998 2.0561 16.5485L2.51567 16.4564Z" fill="#00D654"/>
<path d="M22.6713 13.9749C22.6709 13.9717 22.6704 13.9684 22.6698 13.9651C22.5487 13.2398 22.3499 12.5296 22.0768 11.8468C21.9295 11.476 21.6616 11.1656 21.3164 10.9656C21.1191 10.8109 20.8756 10.727 20.625 10.7272V10.2848C20.8685 9.98931 21.0011 9.61811 21 9.23527V9.1291L21.4211 8.49746C21.5572 8.29337 21.6353 8.05618 21.6471 7.81118C21.659 7.56618 21.6041 7.32257 21.4883 7.10631C21.3726 6.89005 21.2003 6.70925 20.9899 6.58321C20.7795 6.45716 20.5388 6.39058 20.2935 6.39057H19.9885L19.4612 6.03901C19.2683 5.91039 19.04 5.84525 18.8082 5.8527C18.5765 5.86014 18.3528 5.9398 18.1686 6.08055C17.9843 6.22129 17.8486 6.41608 17.7805 6.63771C17.7123 6.85933 17.7151 7.09671 17.7884 7.31668L18 7.95141V9.23527C17.9989 9.61811 18.1315 9.98931 18.375 10.2848V10.6515L16.4454 9.36502L15.4403 6.01468C15.626 5.77268 15.7335 5.47983 15.7484 5.17517C15.7634 4.87051 15.6851 4.56853 15.5241 4.3095C15.363 4.05047 15.1268 3.84669 14.8469 3.72536C14.5671 3.60402 14.2569 3.57088 13.9577 3.63036C13.6586 3.68984 13.3846 3.83912 13.1725 4.05828C12.9603 4.27744 12.82 4.55607 12.7703 4.85702C12.7206 5.15796 12.7638 5.46692 12.8942 5.74268C13.0245 6.01844 13.2359 6.2479 13.5 6.40046V7.35202C13.5 7.40127 13.5097 7.45003 13.5285 7.49553C13.5474 7.54103 13.575 7.58237 13.6098 7.61719L13.8965 7.90379L14.2538 10.4051C14.261 10.4553 14.2782 10.5035 14.3046 10.5468C14.3309 10.5901 14.3658 10.6277 14.407 10.6571L17.032 12.5321C17.0333 12.5331 17.0348 12.5337 17.0361 12.5346C17.0374 12.5355 17.04 12.5377 17.042 12.5393L18 13.1778V14.8522H16.2187C15.8956 14.8525 15.5858 14.981 15.3574 15.2095C15.1289 15.438 15.0004 15.7478 15 16.0709V16.7272C15 16.8266 15.0395 16.922 15.1098 16.9923C15.1802 17.0627 15.2755 17.1022 15.375 17.1022H16.0341C16.0349 17.3573 16.0861 17.6098 16.1846 17.8451L16.2292 17.9523L15.0133 18.6819C14.7184 18.8588 14.4897 19.1274 14.3622 19.4467C14.2346 19.766 14.2153 20.1183 14.307 20.4497C14.3988 20.781 14.5967 21.0731 14.8704 21.2813C15.144 21.4895 15.4784 21.6022 15.8222 21.6022H19.875C19.9745 21.6022 20.0698 21.5627 20.1402 21.4923C20.2105 21.422 20.25 21.3266 20.25 21.2272V19.8296C20.7314 20.0146 21.2556 20.0585 21.761 19.9561C22.1192 19.8842 22.4481 19.7078 22.7062 19.4492C22.7256 19.4299 22.7445 19.4102 22.7631 19.3899C22.9462 19.1869 23.0819 18.9458 23.1604 18.6839C23.2389 18.4221 23.2582 18.1461 23.217 17.8758L22.6713 13.9749ZM21.75 15.6022V13.2498C21.822 13.5251 21.8824 13.8033 21.9292 14.0836L22.3161 16.8571L21.468 16.476C21.6516 16.2216 21.7502 15.9159 21.75 15.6022ZM20.8929 11.5902C20.9615 11.6601 21 11.7542 21 11.8522V12.9772H20.25V11.8522C20.2501 11.7662 20.2797 11.6828 20.3339 11.6161C20.3881 11.5493 20.4635 11.5031 20.5476 11.4853C20.668 11.4996 20.7849 11.5351 20.8929 11.5902ZM19.0152 9.8754C18.9308 9.79153 18.864 9.69178 18.8185 9.5819C18.7729 9.47202 18.7497 9.3542 18.75 9.23527V8.26557H19.6743L20.25 9.1291V9.23527C20.2503 9.3542 20.2271 9.47202 20.1815 9.5819C20.136 9.69178 20.0692 9.79153 19.9848 9.8754C19.95 9.91022 19.9224 9.95156 19.9035 9.99706C19.8847 10.0426 19.875 10.0913 19.875 10.1406V10.7272H19.125V10.1406C19.125 10.0913 19.1153 10.0426 19.0965 9.99706C19.0776 9.95156 19.05 9.91022 19.0152 9.8754ZM18.5876 6.70833C18.647 6.64925 18.7249 6.61248 18.8083 6.60424C18.8917 6.596 18.9754 6.61679 19.0452 6.6631L19.667 7.07757C19.7286 7.11864 19.801 7.14056 19.875 7.14057H20.2935C20.4031 7.14059 20.5105 7.17032 20.6045 7.2266C20.6984 7.28287 20.7753 7.36359 20.827 7.46014C20.8787 7.55669 20.9032 7.66545 20.8979 7.77483C20.8926 7.88422 20.8578 7.99012 20.7971 8.08126L20.625 8.33954L20.187 7.68282C20.1528 7.63141 20.1064 7.58924 20.052 7.56006C19.9975 7.53088 19.9368 7.5156 19.875 7.51557H18.6453L18.5 7.07963C18.4784 7.01574 18.4752 6.94709 18.4907 6.88146C18.5062 6.81584 18.5398 6.75586 18.5876 6.70833ZM14.25 4.35216C14.4272 4.35211 14.5987 4.41513 14.7337 4.52996C14.3659 4.62576 13.9898 4.68681 13.6105 4.7123C13.6773 4.60248 13.7712 4.51167 13.8832 4.44861C13.9952 4.38554 14.1215 4.35233 14.25 4.35216ZM13.5942 5.46563C14.0651 5.43863 14.5318 5.36288 14.9871 5.2396C14.9703 5.32988 14.937 5.41626 14.8886 5.49432C14.8862 5.49507 14.8839 5.49554 14.8815 5.49633L13.9734 5.79905C13.8122 5.73526 13.6781 5.61739 13.5942 5.46563ZM17.2095 11.7375L14.9735 10.1404L14.6212 7.67429C14.6097 7.59396 14.5725 7.51952 14.5151 7.46213L14.25 7.19682V6.4974L14.7519 6.33015L15.7658 9.70984C15.7909 9.79342 15.8444 9.86564 15.917 9.91407L17.7864 11.1603L17.2095 11.7375ZM17.8386 12.1691L18.5303 11.4774H19.5645C19.5218 11.5978 19.4999 11.7246 19.5 11.8524V14.8524H18.75V12.9774C18.75 12.9156 18.7348 12.8548 18.7056 12.8004C18.6765 12.746 18.6344 12.6996 18.583 12.6653L17.8386 12.1691ZM15.75 16.3522V16.0709C15.7501 15.9466 15.7996 15.8275 15.8874 15.7396C15.9753 15.6517 16.0945 15.6023 16.2187 15.6022H19.875C19.9745 15.6022 20.0698 15.5627 20.1402 15.4923C20.2105 15.422 20.25 15.3266 20.25 15.2272V13.7272H21V15.6022C20.9998 15.801 20.9207 15.9916 20.7801 16.1322C20.6395 16.2728 20.4488 16.3519 20.25 16.3522H15.75ZM16.563 20.2691C16.5219 20.3307 16.5 20.4031 16.5 20.4772V20.8522H15.8222C15.6424 20.8522 15.4675 20.7932 15.3244 20.6844C15.1813 20.5755 15.0778 20.4227 15.0298 20.2495C14.9818 20.0762 14.992 19.8919 15.0587 19.725C15.1254 19.558 15.245 19.4175 15.3991 19.325L16.5208 18.652L16.9516 19.6861L16.563 20.2691ZM19.5 20.8522H17.25V20.5907L17.5757 20.1022H19.5V20.8522ZM22.2099 18.8834C22.1989 18.8954 22.1877 18.9072 22.1759 18.9189C22.0221 19.0731 21.826 19.1782 21.6126 19.2211C21.2362 19.2974 20.8457 19.2617 20.4895 19.1184L19.6649 18.7873L18.6802 17.4074C18.6519 17.3667 18.6158 17.332 18.5739 17.3054C18.5321 17.2787 18.4854 17.2606 18.4365 17.2522C18.3876 17.2437 18.3375 17.245 18.2891 17.256C18.2408 17.2671 18.1951 17.2876 18.1547 17.3164C18.1143 17.3452 18.08 17.3818 18.0539 17.4239C18.0277 17.4661 18.0102 17.513 18.0023 17.562C17.9944 17.6109 17.9963 17.661 18.0078 17.7092C18.0194 17.7575 18.0405 17.8029 18.0697 17.843L19.1467 19.3524H17.625L16.8769 17.5568C16.8166 17.4128 16.7852 17.2584 16.7844 17.1024H20.25C20.4379 17.1024 20.6242 17.067 20.7989 16.9979L22.4391 17.7347L22.4742 17.9818C22.4996 18.1422 22.4891 18.3063 22.4434 18.4622C22.3977 18.6181 22.318 18.7619 22.2099 18.8832V18.8834Z" fill="#00D654"/>
<path d="M9.9375 7.68024C10.1187 7.68024 10.2656 7.53333 10.2656 7.35211C10.2656 7.17089 10.1187 7.02399 9.9375 7.02399C9.75628 7.02399 9.60938 7.17089 9.60938 7.35211C9.60938 7.53333 9.75628 7.68024 9.9375 7.68024Z" fill="#00D654"/>
<path d="M3.48581 18.7093L3.75435 18.5494C3.79706 18.5244 3.83441 18.4912 3.86423 18.4517C3.89405 18.4122 3.91576 18.3672 3.92811 18.3193C3.94046 18.2714 3.94321 18.2215 3.93618 18.1725C3.92916 18.1235 3.91252 18.0764 3.88721 18.0339C3.86189 17.9914 3.82842 17.9543 3.7887 17.9248C3.74899 17.8952 3.70383 17.8739 3.65582 17.8619C3.60781 17.8499 3.5579 17.8475 3.50897 17.8549C3.46004 17.8623 3.41306 17.8793 3.37073 17.9049L3.10213 18.0648C2.88424 18.1943 2.64177 18.2771 2.39017 18.3078C2.13856 18.3385 1.88332 18.3165 1.64067 18.2432C1.5933 18.2281 1.54338 18.2225 1.49383 18.2268C1.44428 18.2311 1.39608 18.2452 1.35205 18.2684C1.30801 18.2915 1.26901 18.3231 1.23732 18.3615C1.20564 18.3998 1.18189 18.4441 1.16747 18.4917C1.15305 18.5393 1.14825 18.5893 1.15333 18.6387C1.15842 18.6882 1.1733 18.7362 1.19711 18.7799C1.22091 18.8235 1.25316 18.862 1.29199 18.8931C1.33082 18.9242 1.37544 18.9473 1.42326 18.9609C1.7657 19.0643 2.12592 19.0954 2.481 19.052C2.83608 19.0087 3.17825 18.8919 3.48576 18.7092L3.48581 18.7093Z" fill="#00D654"/>
<path d="M7.60475 5.21092L7.27039 5.5824C6.86763 6.02938 6.6449 6.60982 6.64526 7.21149C6.64526 7.31095 6.68477 7.40633 6.7551 7.47666C6.82543 7.54698 6.92081 7.58649 7.02027 7.58649C7.11972 7.58649 7.21511 7.54698 7.28543 7.47666C7.35576 7.40633 7.39527 7.31095 7.39527 7.21149C7.39507 6.79508 7.54929 6.39339 7.82811 6.0841L8.16243 5.71262C8.19645 5.67621 8.22288 5.63337 8.24016 5.58662C8.25744 5.53988 8.26523 5.49016 8.26307 5.44036C8.26091 5.39057 8.24885 5.34171 8.22759 5.29663C8.20633 5.25156 8.17629 5.21117 8.13925 5.17784C8.1022 5.1445 8.05887 5.11889 8.01181 5.10249C7.96475 5.08609 7.91489 5.07923 7.86514 5.08233C7.8154 5.08542 7.76677 5.0984 7.72211 5.1205C7.67744 5.14261 7.63762 5.17339 7.60499 5.21106L7.60475 5.21092Z" fill="#00D654"/>
<path d="M15.6206 2.625C15.5211 2.625 15.4258 2.66451 15.3554 2.73484C15.2851 2.80516 15.2456 2.90055 15.2456 3C15.2456 3.09946 15.2851 3.19484 15.3554 3.26517C15.4258 3.33549 15.5211 3.375 15.6206 3.375C15.8013 3.37477 15.9792 3.41943 16.1383 3.50495C16.2974 3.59047 16.4328 3.71419 16.5323 3.86499L16.5624 3.91041C16.5895 3.9517 16.6245 3.98723 16.6653 4.01497C16.7062 4.04271 16.7521 4.06211 16.8005 4.07205C16.8489 4.08199 16.8987 4.08227 16.9472 4.07289C16.9957 4.06351 17.0418 4.04465 17.083 4.01738C17.1242 3.99011 17.1596 3.95498 17.1871 3.91401C17.2147 3.87303 17.2339 3.82701 17.2436 3.7786C17.2533 3.73018 17.2534 3.68032 17.2438 3.63188C17.2342 3.58344 17.2152 3.53737 17.1877 3.49631L17.1577 3.45099C16.99 3.19677 16.7617 2.98821 16.4934 2.84404C16.2251 2.69987 15.9252 2.6246 15.6206 2.625Z" fill="#00D654"/>
</svg>
