<svg width="24" height="24" viewBox="0 0 24 24" fill="none" xmlns="http://www.w3.org/2000/svg">
<g clip-path="url(#clip0)">
<path d="M12.1266 20.8204L11.2002 20.5116V19.1672C11.6015 19.118 11.9788 18.9492 12.283 18.6828C12.4377 18.5285 12.4386 18.2782 12.285 18.1228C12.1317 17.9663 11.8814 17.9611 11.7218 18.1112C11.4592 18.315 11.1321 18.4175 10.8002 18.4C10.4691 18.4173 10.1428 18.3156 9.88019 18.1132C9.72079 17.973 9.47957 17.9817 9.33072 18.1331C9.18187 18.2845 9.17724 18.5258 9.32019 18.6828C9.62362 18.9487 9.99983 19.1174 10.4002 19.1672V20.5116L9.47379 20.8204C9.33803 20.8656 9.23667 20.9797 9.2079 21.1199C9.17913 21.26 9.22731 21.4049 9.3343 21.4999C9.44129 21.5949 9.59083 21.6256 9.72659 21.5804L10.8002 21.2216L11.8738 21.5796C12.0095 21.6248 12.1591 21.5941 12.2661 21.4991C12.3731 21.4041 12.4212 21.2592 12.3925 21.1191C12.3637 20.9789 12.2623 20.8648 12.1266 20.8196V20.8204Z" fill="#00D654"/>
<path d="M8.7416 13.3948C8.83163 13.2411 8.80771 13.0462 8.6832 12.9188C8.52805 12.7635 8.27669 12.7623 8.12 12.916C8.12 12.918 8.0604 12.9716 7.9632 13.0456L7.96 13.048C7.51274 13.3947 6.96578 13.5883 6.4 13.6C6.17909 13.6 6 13.7791 6 14C6.00192 14.0778 6.02714 14.1532 6.0724 14.2164C6.02509 14.4074 6.00078 14.6033 6 14.8C6 15.92 6.7028 16.8 7.6 16.8C8.4972 16.8 9.2 15.92 9.2 14.8C9.20591 14.294 9.04479 13.8001 8.7416 13.3948ZM7.6 16C7.1664 16 6.8 15.4504 6.8 14.8C6.80198 14.6523 6.82391 14.5055 6.8652 14.3636C7.31064 14.2939 7.73782 14.1364 8.122 13.9004C8.308 14.1631 8.40539 14.4782 8.4 14.8C8.4 15.4504 8.0336 16 7.6 16Z" fill="#00D654"/>
<path d="M15.6001 14.8C15.5993 14.6033 15.575 14.4074 15.5277 14.2164C15.5729 14.1531 15.5981 14.0778 15.6001 14C15.6001 13.7791 15.421 13.6 15.2001 13.6C14.6355 13.5879 14.0898 13.3948 13.6433 13.0492L13.6377 13.0452C13.5433 12.9732 13.4873 12.9212 13.4821 12.9164C13.326 12.7608 13.0734 12.7608 12.9173 12.9164C12.7917 13.0439 12.7676 13.2399 12.8585 13.394C12.5551 13.7995 12.394 14.2937 12.4001 14.8C12.4001 15.92 13.1029 16.8 14.0001 16.8C14.8973 16.8 15.6001 15.92 15.6001 14.8ZM14.0001 16C13.5665 16 13.2001 15.4504 13.2001 14.8C13.1953 14.478 13.2934 14.1628 13.4801 13.9004C13.8642 14.1364 14.2914 14.2938 14.7369 14.3636C14.7775 14.5056 14.7987 14.6523 14.8001 14.8C14.8001 15.4504 14.4337 16 14.0001 16Z" fill="#00D654"/>
<path d="M6.80015 18.8H4.80015C4.57923 18.8 4.40015 18.9791 4.40015 19.2C4.40015 19.421 4.57923 19.6 4.80015 19.6H6.80015C7.02106 19.6 7.20015 19.421 7.20015 19.2C7.20015 18.9791 7.02106 18.8 6.80015 18.8Z" fill="#00D654"/>
<path d="M6.67364 20.0203L5.47364 20.4203C5.26377 20.4901 5.15023 20.7169 5.22004 20.9267C5.28985 21.1366 5.51657 21.2501 5.72644 21.1803L6.92644 20.7803C7.13631 20.7105 7.24985 20.4838 7.18004 20.2739C7.11023 20.0641 6.88351 19.9505 6.67364 20.0203Z" fill="#00D654"/>
<path d="M14.4001 19.2C14.4001 19.421 14.5792 19.6 14.8001 19.6H16.8001C17.0211 19.6 17.2001 19.421 17.2001 19.2C17.2001 18.9791 17.0211 18.8 16.8001 18.8H14.8001C14.5792 18.8 14.4001 18.9791 14.4001 19.2Z" fill="#00D654"/>
<path d="M16.1264 20.4203L14.9264 20.0203C14.7165 19.9505 14.4898 20.0641 14.42 20.2739C14.3502 20.4838 14.4637 20.7105 14.6736 20.7803L15.8736 21.1803C16.0835 21.2501 16.3102 21.1366 16.38 20.9267C16.4498 20.7169 16.3363 20.4901 16.1264 20.4203Z" fill="#00D654"/>
<path d="M7.58352 8.28521C6.36032 4.21241 4.33592 2.55641 4.25032 2.48761C4.07801 2.34931 3.82622 2.37689 3.68792 2.54921C3.54963 2.72152 3.57721 2.97331 3.74952 3.11161C3.76872 3.12721 5.67352 4.70201 6.81712 8.51481C6.86784 8.68408 7.02362 8.80002 7.20032 8.80001C7.23919 8.79989 7.27785 8.79423 7.31512 8.78321C7.41676 8.75277 7.50214 8.68319 7.55247 8.5898C7.60281 8.4964 7.61398 8.38684 7.58352 8.28521Z" fill="#00D654"/>
<path d="M4.01334 14.7276C4.00647 14.8589 3.933 14.9777 3.81854 15.0424C2.59374 15.76 1.98214 16.9924 2.00014 18.712C2.03378 20.9777 3.87865 22.7974 6.14454 22.8H7.78134C9.47629 24.4013 12.1264 24.4013 13.8213 22.8H15.4561C17.7218 22.7974 19.5665 20.9778 19.6001 18.7124C19.6185 16.9924 19.0069 15.758 17.7777 15.0404C17.6664 14.9762 17.595 14.8603 17.5877 14.732C17.5382 13.1897 17.1396 11.6788 16.4217 10.3128C16.9643 9.81834 17.441 9.25612 17.8401 8.64001C18.4096 9.04984 18.8866 9.57479 19.2401 10.1808C19.3152 10.3303 19.4753 10.4174 19.6416 10.399C19.8079 10.3806 19.9452 10.2607 19.9857 10.0984L20.2889 8.88641L21.5009 9.18921C21.6348 9.22364 21.7769 9.18654 21.8769 9.09107C21.9768 8.9956 22.0204 8.8553 21.9921 8.72001C21.6757 7.14041 20.0853 6.04881 19.1701 5.54001C19.5568 3.96734 19.6838 2.34205 19.5461 0.728409C19.5253 0.485619 19.3938 0.265942 19.1897 0.132809C18.9821 -0.00415673 18.723 -0.0376624 18.4873 0.0420092C17.1468 0.484147 15.9513 1.28167 15.0281 2.34961C14.9838 2.38169 14.9465 2.42253 14.9185 2.46961C14.9165 2.47361 14.9165 2.47801 14.9145 2.48201C14.5059 2.97138 14.1477 3.50073 13.8453 4.06201C13.8292 4.07734 13.8145 4.09407 13.8013 4.11201C13.7869 4.14158 13.7764 4.17291 13.7701 4.20521C13.5119 4.70219 13.2897 5.21712 13.1053 5.74601C13.1005 5.75321 13.0929 5.75721 13.0885 5.76481C13.0598 5.81683 13.0433 5.87468 13.0401 5.93401C12.879 6.41941 12.7455 6.91353 12.6401 7.41401C11.4307 7.12921 10.1716 7.12921 8.96214 7.41401C8.49254 5.19521 7.11414 1.37401 3.11454 0.0424092C2.87876 -0.0377041 2.61919 -0.00433488 2.41134 0.132809C2.20658 0.266107 2.07489 0.48653 2.05454 0.730009C1.91454 2.31481 1.79694 7.23681 5.17854 10.3128C4.46152 11.6775 4.06314 13.1869 4.01334 14.7276ZM13.9369 5.78961C14.0489 5.48961 14.1769 5.18281 14.3249 4.87481L15.0009 5.26281C15.0617 5.29803 15.1307 5.31639 15.2009 5.31601C15.3823 5.31632 15.5411 5.19463 15.588 5.01949C15.6349 4.84435 15.5581 4.65956 15.4009 4.56921L14.7033 4.16921C14.9026 3.82996 15.1247 3.50468 15.3681 3.19561L18.4793 5.00921C18.3928 5.39351 18.286 5.77297 18.1593 6.14601L16.5993 5.25361C16.4753 5.18258 16.3228 5.18313 16.1993 5.25504C16.0757 5.32696 15.9999 5.45931 16.0005 5.60224C16.001 5.74518 16.0777 5.87698 16.2017 5.94801L17.8681 6.90081C17.7367 7.20202 17.5889 7.49579 17.4253 7.78081L13.9369 5.78961ZM20.9701 8.22961L20.0969 8.01161C19.8828 7.95819 19.6658 8.08832 19.6121 8.30241L19.4269 9.04241C19.0827 8.62905 18.6863 8.26199 18.2477 7.95041C18.5234 7.43151 18.7544 6.89009 18.9381 6.33201C19.7673 6.77956 20.4672 7.43325 20.9701 8.23001V8.22961ZM18.7493 0.800009C18.8437 1.92539 18.8054 3.05796 18.6353 4.17441L17.4625 3.49041C17.5847 3.35637 17.7147 3.22962 17.8517 3.11081C18.0189 2.97077 18.0431 2.72263 17.9061 2.55295C17.7692 2.38326 17.5215 2.35455 17.3493 2.48841C17.1374 2.67098 16.939 2.8687 16.7557 3.08001L15.9049 2.58401C16.6949 1.76812 17.6709 1.15596 18.7493 0.800009ZM6.70934 11.4256C6.83364 11.5006 6.98881 11.5024 7.11477 11.4302C7.24073 11.3581 7.31772 11.2233 7.31593 11.0782C7.31414 10.933 7.23385 10.8002 7.10614 10.7312C2.57294 8.14041 2.70334 2.47521 2.86094 0.800009C8.07014 2.53481 8.39774 9.02921 8.40014 9.09441C8.40898 9.31532 8.59523 9.48725 8.81614 9.47841C9.03706 9.46957 9.20898 9.28332 9.20014 9.06241C9.20014 9.04761 9.18294 8.72161 9.10494 8.20241C10.2192 7.93254 11.3819 7.93254 12.4961 8.20241C12.4185 8.72241 12.4017 9.04761 12.4013 9.06241C12.3956 9.20532 12.4666 9.34042 12.5875 9.41682C12.7084 9.49322 12.8609 9.49932 12.9875 9.43282C13.1141 9.36632 13.1956 9.23732 13.2013 9.09441C13.267 8.23539 13.4268 7.38617 13.6777 6.56201L14.4613 7.00961C14.3013 7.42521 14.1489 7.84961 14.0181 8.28481C13.9876 8.38644 13.9986 8.49606 14.0489 8.58954C14.0991 8.68302 14.1845 8.75269 14.2861 8.78321C14.3232 8.79413 14.3615 8.79978 14.4001 8.80001C14.5767 8.80007 14.7325 8.68432 14.7833 8.51521C14.8961 8.13961 15.0257 7.77201 15.1629 7.41081L16.9953 8.45761C16.3399 9.39101 15.4857 10.1675 14.4941 10.7312C14.3664 10.8002 14.2861 10.933 14.2844 11.0782C14.2826 11.2233 14.3596 11.3581 14.4855 11.4302C14.6115 11.5024 14.7666 11.5006 14.8909 11.4256C15.2048 11.2462 15.5072 11.0476 15.7965 10.8308C16.4068 12.0592 16.7453 13.4047 16.7889 14.7756C16.8104 15.1741 17.0323 15.5346 17.3785 15.7332C18.3385 16.2932 18.8153 17.2932 18.8001 18.704C18.7724 20.5314 17.2838 21.9987 15.4561 22H13.6561C13.5488 22.0001 13.4461 22.0434 13.3709 22.12C12.6939 22.8106 11.7674 23.1997 10.8003 23.1997C9.83324 23.1997 8.9068 22.8106 8.22974 22.12C8.15462 22.0434 8.05186 22.0001 7.94454 22H6.14454C4.3166 21.9989 2.82767 20.5313 2.80014 18.7036C2.78494 17.2924 3.26334 16.2932 4.21774 15.7356C4.56668 15.5363 4.79032 15.1733 4.81134 14.772C4.85542 13.4023 5.19389 12.0581 5.80374 10.8308C6.09318 11.0476 6.39576 11.2462 6.70974 11.4256H6.70934Z" fill="#00D654"/>
</g>
<defs>
<clipPath id="clip0">
<rect width="24" height="24" fill="white"/>
</clipPath>
</defs>
</svg>
