<svg width="135" height="14" viewBox="0 0 135 14" fill="none" xmlns="http://www.w3.org/2000/svg">
<path d="M3.66895 7.16504H1.74121V11H0.0117188V1.04688H3.51172C4.66016 1.04688 5.54655 1.30436 6.1709 1.81934C6.79525 2.33431 7.10742 3.07943 7.10742 4.05469C7.10742 4.72005 6.94564 5.27832 6.62207 5.72949C6.30306 6.17611 5.85645 6.52018 5.28223 6.76172L7.51758 10.9111V11H5.66504L3.66895 7.16504ZM1.74121 5.77734H3.51855C4.10189 5.77734 4.55762 5.63151 4.88574 5.33984C5.21387 5.04362 5.37793 4.6403 5.37793 4.12988C5.37793 3.59668 5.22526 3.18424 4.91992 2.89258C4.61914 2.60091 4.16797 2.45052 3.56641 2.44141H1.74121V5.77734ZM13.0947 11.1367C12.042 11.1367 11.1875 10.8063 10.5312 10.1455C9.87956 9.48014 9.55371 8.59603 9.55371 7.49316V7.28809C9.55371 6.5498 9.69499 5.89128 9.97754 5.3125C10.2646 4.72917 10.6657 4.27572 11.1807 3.95215C11.6956 3.62858 12.2699 3.4668 12.9033 3.4668C13.9105 3.4668 14.6875 3.78809 15.2344 4.43066C15.7858 5.07324 16.0615 5.98242 16.0615 7.1582V7.82812H11.2285C11.2786 8.4388 11.4814 8.92188 11.8369 9.27734C12.1969 9.63281 12.6481 9.81055 13.1904 9.81055C13.9515 9.81055 14.5713 9.50293 15.0498 8.8877L15.9453 9.74219C15.6491 10.1842 15.2526 10.5283 14.7559 10.7744C14.2637 11.016 13.71 11.1367 13.0947 11.1367ZM12.8965 4.7998C12.4408 4.7998 12.0716 4.95931 11.7891 5.27832C11.5111 5.59733 11.3333 6.04167 11.2559 6.61133H14.4209V6.48828C14.3844 5.93229 14.2363 5.51302 13.9766 5.23047C13.7168 4.94336 13.3568 4.7998 12.8965 4.7998ZM25.084 7.37695C25.084 8.52083 24.8242 9.43457 24.3047 10.1182C23.7852 10.7972 23.0879 11.1367 22.2129 11.1367C21.4017 11.1367 20.7523 10.8701 20.2646 10.3369V13.8438H18.6035V3.60352H20.1348L20.2031 4.35547C20.6908 3.76302 21.3538 3.4668 22.1924 3.4668C23.0947 3.4668 23.8011 3.80404 24.3115 4.47852C24.8265 5.14844 25.084 6.0804 25.084 7.27441V7.37695ZM23.4297 7.2334C23.4297 6.49512 23.2816 5.90951 22.9854 5.47656C22.6937 5.04362 22.2744 4.82715 21.7275 4.82715C21.0485 4.82715 20.5609 5.10742 20.2646 5.66797V8.94922C20.5654 9.52344 21.0576 9.81055 21.7412 9.81055C22.2699 9.81055 22.6823 9.59863 22.9785 9.1748C23.2793 8.74642 23.4297 8.09928 23.4297 7.2334ZM27.4346 7.2334C27.4346 6.50879 27.5781 5.8571 27.8652 5.27832C28.1523 4.69499 28.5557 4.24837 29.0752 3.93848C29.5947 3.62402 30.1917 3.4668 30.8662 3.4668C31.8643 3.4668 32.6732 3.78809 33.293 4.43066C33.9173 5.07324 34.2546 5.92546 34.3047 6.9873L34.3115 7.37695C34.3115 8.10612 34.1702 8.75781 33.8877 9.33203C33.6097 9.90625 33.2087 10.3506 32.6846 10.665C32.165 10.9795 31.5635 11.1367 30.8799 11.1367C29.8363 11.1367 29 10.7904 28.3711 10.0977C27.7467 9.40039 27.4346 8.47298 27.4346 7.31543V7.2334ZM29.0957 7.37695C29.0957 8.13802 29.2529 8.73503 29.5674 9.16797C29.8818 9.59635 30.3193 9.81055 30.8799 9.81055C31.4404 9.81055 31.8757 9.5918 32.1855 9.1543C32.5 8.7168 32.6572 8.0765 32.6572 7.2334C32.6572 6.486 32.4954 5.89355 32.1719 5.45605C31.8529 5.01855 31.4176 4.7998 30.8662 4.7998C30.3239 4.7998 29.8932 5.01628 29.5742 5.44922C29.2552 5.8776 29.0957 6.52018 29.0957 7.37695ZM40.8389 5.12109C40.6201 5.08464 40.3945 5.06641 40.1621 5.06641C39.401 5.06641 38.8883 5.35807 38.624 5.94141V11H36.9629V3.60352H38.5488L38.5898 4.43066C38.9909 3.78809 39.5469 3.4668 40.2578 3.4668C40.4948 3.4668 40.6908 3.4987 40.8457 3.5625L40.8389 5.12109ZM45.5615 1.80566V3.60352H46.8672V4.83398H45.5615V8.96289C45.5615 9.24544 45.6162 9.45052 45.7256 9.57812C45.8395 9.70117 46.04 9.7627 46.3271 9.7627C46.5186 9.7627 46.7122 9.73991 46.9082 9.69434V10.9795C46.5299 11.0843 46.1654 11.1367 45.8145 11.1367C44.5384 11.1367 43.9004 10.4326 43.9004 9.02441V4.83398H42.6836V3.60352H43.9004V1.80566H45.5615ZM56.0186 7.30176V11H54.2891V1.04688H58.0967C59.2087 1.04688 60.0905 1.33626 60.7422 1.91504C61.3984 2.49382 61.7266 3.25944 61.7266 4.21191C61.7266 5.18717 61.4053 5.94596 60.7627 6.48828C60.1247 7.0306 59.2292 7.30176 58.0762 7.30176H56.0186ZM56.0186 5.91406H58.0967C58.7119 5.91406 59.1813 5.77051 59.5049 5.4834C59.8285 5.19173 59.9902 4.77246 59.9902 4.22559C59.9902 3.68783 59.8262 3.25944 59.498 2.94043C59.1699 2.61686 58.7188 2.45052 58.1445 2.44141H56.0186V5.91406ZM67.4951 11.1367C66.4424 11.1367 65.5879 10.8063 64.9316 10.1455C64.2799 9.48014 63.9541 8.59603 63.9541 7.49316V7.28809C63.9541 6.5498 64.0954 5.89128 64.3779 5.3125C64.665 4.72917 65.0661 4.27572 65.5811 3.95215C66.096 3.62858 66.6702 3.4668 67.3037 3.4668C68.3109 3.4668 69.0879 3.78809 69.6348 4.43066C70.1862 5.07324 70.4619 5.98242 70.4619 7.1582V7.82812H65.6289C65.679 8.4388 65.8818 8.92188 66.2373 9.27734C66.5973 9.63281 67.0485 9.81055 67.5908 9.81055C68.3519 9.81055 68.9717 9.50293 69.4502 8.8877L70.3457 9.74219C70.0495 10.1842 69.653 10.5283 69.1562 10.7744C68.6641 11.016 68.1104 11.1367 67.4951 11.1367ZM67.2969 4.7998C66.8411 4.7998 66.472 4.95931 66.1895 5.27832C65.9115 5.59733 65.7337 6.04167 65.6562 6.61133H68.8213V6.48828C68.7848 5.93229 68.6367 5.51302 68.377 5.23047C68.1172 4.94336 67.7572 4.7998 67.2969 4.7998ZM75.0889 1.80566V3.60352H76.3945V4.83398H75.0889V8.96289C75.0889 9.24544 75.1436 9.45052 75.2529 9.57812C75.3669 9.70117 75.5674 9.7627 75.8545 9.7627C76.0459 9.7627 76.2396 9.73991 76.4355 9.69434V10.9795C76.0573 11.0843 75.6927 11.1367 75.3418 11.1367C74.0658 11.1367 73.4277 10.4326 73.4277 9.02441V4.83398H72.2109V3.60352H73.4277V1.80566H75.0889ZM91.4111 7.75977C91.3109 8.82161 90.9189 9.65104 90.2354 10.248C89.5518 10.8405 88.6426 11.1367 87.5078 11.1367C86.7148 11.1367 86.0153 10.9499 85.4092 10.5762C84.8076 10.1979 84.3428 9.66243 84.0146 8.96973C83.6865 8.27702 83.5156 7.47266 83.502 6.55664V5.62695C83.502 4.68815 83.6683 3.861 84.001 3.14551C84.3337 2.43001 84.8099 1.87858 85.4297 1.49121C86.054 1.10384 86.7741 0.910156 87.5898 0.910156C88.6882 0.910156 89.5723 1.20866 90.2422 1.80566C90.9121 2.40267 91.3018 3.24577 91.4111 4.33496H89.6885C89.6064 3.61947 89.3968 3.10449 89.0596 2.79004C88.7269 2.47103 88.237 2.31152 87.5898 2.31152C86.8379 2.31152 86.2591 2.58724 85.8535 3.13867C85.4525 3.68555 85.2474 4.48991 85.2383 5.55176V6.43359C85.2383 7.50911 85.4297 8.32943 85.8125 8.89453C86.1999 9.45964 86.765 9.74219 87.5078 9.74219C88.1868 9.74219 88.6973 9.58952 89.0391 9.28418C89.3809 8.97884 89.5973 8.4707 89.6885 7.75977H91.4111ZM97.9248 5.12109C97.7061 5.08464 97.4805 5.06641 97.248 5.06641C96.487 5.06641 95.9743 5.35807 95.71 5.94141V11H94.0488V3.60352H95.6348L95.6758 4.43066C96.0768 3.78809 96.6328 3.4668 97.3438 3.4668C97.5807 3.4668 97.7767 3.4987 97.9316 3.5625L97.9248 5.12109ZM104.705 10.2754C104.217 10.8496 103.525 11.1367 102.627 11.1367C101.825 11.1367 101.216 10.902 100.802 10.4326C100.392 9.96322 100.187 9.28418 100.187 8.39551V3.60352H101.848V8.375C101.848 9.3138 102.237 9.7832 103.017 9.7832C103.823 9.7832 104.368 9.49382 104.65 8.91504V3.60352H106.312V11H104.746L104.705 10.2754ZM112.511 11.1367C111.458 11.1367 110.604 10.8063 109.947 10.1455C109.296 9.48014 108.97 8.59603 108.97 7.49316V7.28809C108.97 6.5498 109.111 5.89128 109.394 5.3125C109.681 4.72917 110.082 4.27572 110.597 3.95215C111.112 3.62858 111.686 3.4668 112.319 3.4668C113.326 3.4668 114.104 3.78809 114.65 4.43066C115.202 5.07324 115.478 5.98242 115.478 7.1582V7.82812H110.645C110.695 8.4388 110.897 8.92188 111.253 9.27734C111.613 9.63281 112.064 9.81055 112.606 9.81055C113.368 9.81055 113.987 9.50293 114.466 8.8877L115.361 9.74219C115.065 10.1842 114.669 10.5283 114.172 10.7744C113.68 11.016 113.126 11.1367 112.511 11.1367ZM112.312 4.7998C111.857 4.7998 111.488 4.95931 111.205 5.27832C110.927 5.59733 110.749 6.04167 110.672 6.61133H113.837V6.48828C113.8 5.93229 113.652 5.51302 113.393 5.23047C113.133 4.94336 112.773 4.7998 112.312 4.7998ZM119.79 11H118.129V0.5H119.79V11ZM124.937 1.80566V3.60352H126.242V4.83398H124.937V8.96289C124.937 9.24544 124.991 9.45052 125.101 9.57812C125.215 9.70117 125.415 9.7627 125.702 9.7627C125.894 9.7627 126.087 9.73991 126.283 9.69434V10.9795C125.905 11.0843 125.54 11.1367 125.189 11.1367C123.913 11.1367 123.275 10.4326 123.275 9.02441V4.83398H122.059V3.60352H123.275V1.80566H124.937ZM131.354 8.62109L132.858 3.60352H134.629L131.689 12.1211C131.238 13.3652 130.473 13.9873 129.393 13.9873C129.151 13.9873 128.884 13.9463 128.593 13.8643V12.5791L128.907 12.5996C129.326 12.5996 129.641 12.5221 129.851 12.3672C130.065 12.2168 130.233 11.9616 130.356 11.6016L130.596 10.9658L127.998 3.60352H129.789L131.354 8.62109Z" fill="#2C7973"/>
</svg>
