<svg width="213" height="12" viewBox="0 0 213 12" fill="none" xmlns="http://www.w3.org/2000/svg">
<path d="M3.66895 7.16504H1.74121V11H0.0117188V1.04688H3.51172C4.66016 1.04688 5.54655 1.30436 6.1709 1.81934C6.79525 2.33431 7.10742 3.07943 7.10742 4.05469C7.10742 4.72005 6.94564 5.27832 6.62207 5.72949C6.30306 6.17611 5.85645 6.52018 5.28223 6.76172L7.51758 10.9111V11H5.66504L3.66895 7.16504ZM1.74121 5.77734H3.51855C4.10189 5.77734 4.55762 5.63151 4.88574 5.33984C5.21387 5.04362 5.37793 4.6403 5.37793 4.12988C5.37793 3.59668 5.22526 3.18424 4.91992 2.89258C4.61914 2.60091 4.16797 2.45052 3.56641 2.44141H1.74121V5.77734ZM13.0947 11.1367C12.042 11.1367 11.1875 10.8063 10.5312 10.1455C9.87956 9.48014 9.55371 8.59603 9.55371 7.49316V7.28809C9.55371 6.5498 9.69499 5.89128 9.97754 5.3125C10.2646 4.72917 10.6657 4.27572 11.1807 3.95215C11.6956 3.62858 12.2699 3.4668 12.9033 3.4668C13.9105 3.4668 14.6875 3.78809 15.2344 4.43066C15.7858 5.07324 16.0615 5.98242 16.0615 7.1582V7.82812H11.2285C11.2786 8.4388 11.4814 8.92188 11.8369 9.27734C12.1969 9.63281 12.6481 9.81055 13.1904 9.81055C13.9515 9.81055 14.5713 9.50293 15.0498 8.8877L15.9453 9.74219C15.6491 10.1842 15.2526 10.5283 14.7559 10.7744C14.2637 11.016 13.71 11.1367 13.0947 11.1367ZM12.8965 4.7998C12.4408 4.7998 12.0716 4.95931 11.7891 5.27832C11.5111 5.59733 11.3333 6.04167 11.2559 6.61133H14.4209V6.48828C14.3844 5.93229 14.2363 5.51302 13.9766 5.23047C13.7168 4.94336 13.3568 4.7998 12.8965 4.7998ZM22.7529 8.99023C22.7529 8.69401 22.6299 8.46842 22.3838 8.31348C22.1423 8.15853 21.7389 8.02181 21.1738 7.90332C20.6087 7.78483 20.137 7.63444 19.7588 7.45215C18.9294 7.05111 18.5146 6.47005 18.5146 5.70898C18.5146 5.07096 18.7835 4.53776 19.3213 4.10938C19.859 3.68099 20.5426 3.4668 21.3721 3.4668C22.2562 3.4668 22.9694 3.68555 23.5117 4.12305C24.0586 4.56055 24.332 5.12793 24.332 5.8252H22.6709C22.6709 5.50618 22.5524 5.24186 22.3154 5.03223C22.0785 4.81803 21.764 4.71094 21.3721 4.71094C21.0075 4.71094 20.709 4.79525 20.4766 4.96387C20.2487 5.13249 20.1348 5.35807 20.1348 5.64062C20.1348 5.89583 20.2419 6.09408 20.4561 6.23535C20.6702 6.37663 21.1032 6.52018 21.7549 6.66602C22.4066 6.80729 22.917 6.97819 23.2861 7.17871C23.6598 7.37467 23.9355 7.61165 24.1133 7.88965C24.2956 8.16764 24.3867 8.50488 24.3867 8.90137C24.3867 9.56673 24.111 10.1068 23.5596 10.5215C23.0081 10.9316 22.2858 11.1367 21.3926 11.1367C20.7865 11.1367 20.2464 11.0273 19.7725 10.8086C19.2985 10.5898 18.9294 10.2891 18.665 9.90625C18.4007 9.52344 18.2686 9.111 18.2686 8.66895H19.8818C19.9046 9.06087 20.0527 9.36393 20.3262 9.57812C20.5996 9.78776 20.9619 9.89258 21.4131 9.89258C21.8506 9.89258 22.1833 9.81055 22.4111 9.64648C22.639 9.47786 22.7529 9.25911 22.7529 8.99023ZM30.1279 9.81055C30.5426 9.81055 30.8867 9.68978 31.1602 9.44824C31.4336 9.20671 31.5794 8.9082 31.5977 8.55273H33.1631C33.1449 9.01302 33.0013 9.44368 32.7324 9.84473C32.4635 10.2412 32.099 10.5557 31.6387 10.7881C31.1784 11.0205 30.6816 11.1367 30.1484 11.1367C29.1139 11.1367 28.2936 10.8018 27.6875 10.1318C27.0814 9.46191 26.7783 8.53678 26.7783 7.35645V7.18555C26.7783 6.0599 27.0791 5.15983 27.6807 4.48535C28.2822 3.80632 29.1025 3.4668 30.1416 3.4668C31.0212 3.4668 31.7367 3.72428 32.2881 4.23926C32.8441 4.74967 33.1357 5.42188 33.1631 6.25586H31.5977C31.5794 5.83203 31.4336 5.4834 31.1602 5.20996C30.8913 4.93652 30.5472 4.7998 30.1279 4.7998C29.5902 4.7998 29.1755 4.99577 28.8838 5.3877C28.5921 5.77507 28.444 6.36523 28.4395 7.1582V7.4248C28.4395 8.22689 28.583 8.82617 28.8701 9.22266C29.1618 9.61458 29.5811 9.81055 30.1279 9.81055ZM40.1484 10.2754C39.6608 10.8496 38.9681 11.1367 38.0703 11.1367C37.2682 11.1367 36.6598 10.902 36.2451 10.4326C35.835 9.96322 35.6299 9.28418 35.6299 8.39551V3.60352H37.291V8.375C37.291 9.3138 37.6807 9.7832 38.46 9.7832C39.2666 9.7832 39.8112 9.49382 40.0938 8.91504V3.60352H41.7549V11H40.1895L40.1484 10.2754ZM47.9541 11.1367C46.9014 11.1367 46.0469 10.8063 45.3906 10.1455C44.7389 9.48014 44.4131 8.59603 44.4131 7.49316V7.28809C44.4131 6.5498 44.5544 5.89128 44.8369 5.3125C45.124 4.72917 45.5251 4.27572 46.04 3.95215C46.555 3.62858 47.1292 3.4668 47.7627 3.4668C48.7699 3.4668 49.5469 3.78809 50.0938 4.43066C50.6452 5.07324 50.9209 5.98242 50.9209 7.1582V7.82812H46.0879C46.138 8.4388 46.3408 8.92188 46.6963 9.27734C47.0563 9.63281 47.5075 9.81055 48.0498 9.81055C48.8109 9.81055 49.4307 9.50293 49.9092 8.8877L50.8047 9.74219C50.5085 10.1842 50.112 10.5283 49.6152 10.7744C49.123 11.016 48.5693 11.1367 47.9541 11.1367ZM47.7559 4.7998C47.3001 4.7998 46.931 4.95931 46.6484 5.27832C46.3704 5.59733 46.1927 6.04167 46.1152 6.61133H49.2803V6.48828C49.2438 5.93229 49.0957 5.51302 48.8359 5.23047C48.5762 4.94336 48.2161 4.7998 47.7559 4.7998ZM63.5654 8.43652C63.5654 7.99902 63.4105 7.66178 63.1006 7.4248C62.7952 7.18783 62.2415 6.94857 61.4395 6.70703C60.6374 6.46549 59.9993 6.19661 59.5254 5.90039C58.6185 5.33073 58.165 4.58789 58.165 3.67188C58.165 2.86979 58.4909 2.20898 59.1426 1.68945C59.7988 1.16992 60.6488 0.910156 61.6924 0.910156C62.3851 0.910156 63.0026 1.03776 63.5449 1.29297C64.0872 1.54818 64.5133 1.91276 64.8232 2.38672C65.1331 2.85612 65.2881 3.37793 65.2881 3.95215H63.5654C63.5654 3.43262 63.4014 3.02702 63.0732 2.73535C62.7497 2.43913 62.2848 2.29102 61.6787 2.29102C61.1136 2.29102 60.6738 2.41178 60.3594 2.65332C60.0495 2.89486 59.8945 3.2321 59.8945 3.66504C59.8945 4.02962 60.0632 4.33496 60.4004 4.58105C60.7376 4.82259 61.2936 5.05957 62.0684 5.29199C62.8431 5.51986 63.4652 5.7819 63.9346 6.07812C64.404 6.36979 64.748 6.70703 64.9668 7.08984C65.1855 7.4681 65.2949 7.91243 65.2949 8.42285C65.2949 9.25228 64.9759 9.91309 64.3379 10.4053C63.7044 10.8929 62.8431 11.1367 61.7539 11.1367C61.0339 11.1367 60.3708 11.0046 59.7646 10.7402C59.1631 10.4714 58.6937 10.1022 58.3564 9.63281C58.0238 9.16341 57.8574 8.61654 57.8574 7.99219H59.5869C59.5869 8.55729 59.7738 8.99479 60.1475 9.30469C60.5212 9.61458 61.0566 9.76953 61.7539 9.76953C62.3555 9.76953 62.8066 9.64876 63.1074 9.40723C63.4128 9.16113 63.5654 8.83757 63.5654 8.43652ZM71.1592 11.1367C70.1064 11.1367 69.252 10.8063 68.5957 10.1455C67.944 9.48014 67.6182 8.59603 67.6182 7.49316V7.28809C67.6182 6.5498 67.7594 5.89128 68.042 5.3125C68.3291 4.72917 68.7301 4.27572 69.2451 3.95215C69.7601 3.62858 70.3343 3.4668 70.9678 3.4668C71.9749 3.4668 72.752 3.78809 73.2988 4.43066C73.8503 5.07324 74.126 5.98242 74.126 7.1582V7.82812H69.293C69.3431 8.4388 69.5459 8.92188 69.9014 9.27734C70.2614 9.63281 70.7126 9.81055 71.2549 9.81055C72.016 9.81055 72.6357 9.50293 73.1143 8.8877L74.0098 9.74219C73.7135 10.1842 73.3171 10.5283 72.8203 10.7744C72.3281 11.016 71.7744 11.1367 71.1592 11.1367ZM70.9609 4.7998C70.5052 4.7998 70.1361 4.95931 69.8535 5.27832C69.5755 5.59733 69.3978 6.04167 69.3203 6.61133H72.4854V6.48828C72.4489 5.93229 72.3008 5.51302 72.041 5.23047C71.7812 4.94336 71.4212 4.7998 70.9609 4.7998ZM80.5439 5.12109C80.3252 5.08464 80.0996 5.06641 79.8672 5.06641C79.1061 5.06641 78.5934 5.35807 78.3291 5.94141V11H76.668V3.60352H78.2539L78.2949 4.43066C78.696 3.78809 79.252 3.4668 79.9629 3.4668C80.1999 3.4668 80.3958 3.4987 80.5508 3.5625L80.5439 5.12109ZM85.5742 8.89453L87.1396 3.60352H88.8555L86.292 11H84.8496L82.2656 3.60352H83.9883L85.5742 8.89453ZM92.915 11H91.2539V3.60352H92.915V11ZM91.1514 1.68262C91.1514 1.42741 91.2311 1.21549 91.3906 1.04688C91.5547 0.878255 91.7871 0.793945 92.0879 0.793945C92.3887 0.793945 92.6211 0.878255 92.7852 1.04688C92.9492 1.21549 93.0312 1.42741 93.0312 1.68262C93.0312 1.93327 92.9492 2.1429 92.7852 2.31152C92.6211 2.47559 92.3887 2.55762 92.0879 2.55762C91.7871 2.55762 91.5547 2.47559 91.3906 2.31152C91.2311 2.1429 91.1514 1.93327 91.1514 1.68262ZM99.0186 9.81055C99.4333 9.81055 99.7773 9.68978 100.051 9.44824C100.324 9.20671 100.47 8.9082 100.488 8.55273H102.054C102.035 9.01302 101.892 9.44368 101.623 9.84473C101.354 10.2412 100.99 10.5557 100.529 10.7881C100.069 11.0205 99.5723 11.1367 99.0391 11.1367C98.0046 11.1367 97.1842 10.8018 96.5781 10.1318C95.972 9.46191 95.6689 8.53678 95.6689 7.35645V7.18555C95.6689 6.0599 95.9697 5.15983 96.5713 4.48535C97.1729 3.80632 97.9932 3.4668 99.0322 3.4668C99.9118 3.4668 100.627 3.72428 101.179 4.23926C101.735 4.74967 102.026 5.42188 102.054 6.25586H100.488C100.47 5.83203 100.324 5.4834 100.051 5.20996C99.7819 4.93652 99.4378 4.7998 99.0186 4.7998C98.4808 4.7998 98.0661 4.99577 97.7744 5.3877C97.4827 5.77507 97.3346 6.36523 97.3301 7.1582V7.4248C97.3301 8.22689 97.4736 8.82617 97.7607 9.22266C98.0524 9.61458 98.4717 9.81055 99.0186 9.81055ZM107.815 11.1367C106.763 11.1367 105.908 10.8063 105.252 10.1455C104.6 9.48014 104.274 8.59603 104.274 7.49316V7.28809C104.274 6.5498 104.416 5.89128 104.698 5.3125C104.985 4.72917 105.386 4.27572 105.901 3.95215C106.416 3.62858 106.991 3.4668 107.624 3.4668C108.631 3.4668 109.408 3.78809 109.955 4.43066C110.507 5.07324 110.782 5.98242 110.782 7.1582V7.82812H105.949C105.999 8.4388 106.202 8.92188 106.558 9.27734C106.918 9.63281 107.369 9.81055 107.911 9.81055C108.672 9.81055 109.292 9.50293 109.771 8.8877L110.666 9.74219C110.37 10.1842 109.973 10.5283 109.477 10.7744C108.984 11.016 108.431 11.1367 107.815 11.1367ZM107.617 4.7998C107.161 4.7998 106.792 4.95931 106.51 5.27832C106.232 5.59733 106.054 6.04167 105.977 6.61133H109.142V6.48828C109.105 5.93229 108.957 5.51302 108.697 5.23047C108.438 4.94336 108.077 4.7998 107.617 4.7998ZM126.031 8.53906L127.562 1.04688H129.278L126.981 11H125.327L123.434 3.7334L121.499 11H119.838L117.541 1.04688H119.257L120.802 8.52539L122.702 1.04688H124.151L126.031 8.53906ZM133.399 11H131.738V3.60352H133.399V11ZM131.636 1.68262C131.636 1.42741 131.715 1.21549 131.875 1.04688C132.039 0.878255 132.271 0.793945 132.572 0.793945C132.873 0.793945 133.105 0.878255 133.27 1.04688C133.434 1.21549 133.516 1.42741 133.516 1.68262C133.516 1.93327 133.434 2.1429 133.27 2.31152C133.105 2.47559 132.873 2.55762 132.572 2.55762C132.271 2.55762 132.039 2.47559 131.875 2.31152C131.715 2.1429 131.636 1.93327 131.636 1.68262ZM138.231 11H136.57V0.5H138.231V11ZM140.985 7.24707C140.985 6.10775 141.25 5.19401 141.778 4.50586C142.307 3.81315 143.016 3.4668 143.904 3.4668C144.688 3.4668 145.322 3.74023 145.805 4.28711V0.5H147.466V11H145.962L145.88 10.2344C145.383 10.8359 144.72 11.1367 143.891 11.1367C143.025 11.1367 142.323 10.7881 141.785 10.0908C141.252 9.39355 140.985 8.44564 140.985 7.24707ZM142.646 7.39062C142.646 8.14258 142.79 8.73047 143.077 9.1543C143.369 9.57357 143.781 9.7832 144.314 9.7832C144.993 9.7832 145.49 9.48014 145.805 8.87402V5.71582C145.499 5.12337 145.007 4.82715 144.328 4.82715C143.79 4.82715 143.376 5.04134 143.084 5.46973C142.792 5.89355 142.646 6.53385 142.646 7.39062ZM160.917 8.68262H157.062L156.255 11H154.457L158.217 1.04688H159.769L163.535 11H161.73L160.917 8.68262ZM157.547 7.28809H160.432L158.989 3.15918L157.547 7.28809ZM166.973 3.60352L167.021 4.45801C167.567 3.7972 168.285 3.4668 169.174 3.4668C170.714 3.4668 171.498 4.34863 171.525 6.1123V11H169.864V6.20801C169.864 5.73861 169.762 5.39225 169.557 5.16895C169.356 4.94108 169.026 4.82715 168.565 4.82715C167.896 4.82715 167.396 5.13021 167.068 5.73633V11H165.407V3.60352H166.973ZM176.241 11H174.58V3.60352H176.241V11ZM174.478 1.68262C174.478 1.42741 174.557 1.21549 174.717 1.04688C174.881 0.878255 175.113 0.793945 175.414 0.793945C175.715 0.793945 175.947 0.878255 176.111 1.04688C176.275 1.21549 176.357 1.42741 176.357 1.68262C176.357 1.93327 176.275 2.1429 176.111 2.31152C175.947 2.47559 175.715 2.55762 175.414 2.55762C175.113 2.55762 174.881 2.47559 174.717 2.31152C174.557 2.1429 174.478 1.93327 174.478 1.68262ZM180.868 3.60352L180.916 4.37598C181.436 3.76986 182.146 3.4668 183.049 3.4668C184.038 3.4668 184.715 3.84505 185.079 4.60156C185.617 3.84505 186.373 3.4668 187.349 3.4668C188.164 3.4668 188.771 3.69238 189.167 4.14355C189.568 4.59473 189.773 5.26009 189.782 6.13965V11H188.121V6.1875C188.121 5.7181 188.019 5.37402 187.813 5.15527C187.608 4.93652 187.269 4.82715 186.795 4.82715C186.417 4.82715 186.107 4.92969 185.865 5.13477C185.628 5.33529 185.462 5.59961 185.366 5.92773L185.373 11H183.712V6.13281C183.689 5.26237 183.245 4.82715 182.379 4.82715C181.714 4.82715 181.242 5.09831 180.964 5.64062V11H179.303V3.60352H180.868ZM197.157 11C197.084 10.8587 197.021 10.6286 196.966 10.3096C196.437 10.861 195.79 11.1367 195.024 11.1367C194.282 11.1367 193.675 10.9248 193.206 10.501C192.737 10.0771 192.502 9.55306 192.502 8.92871C192.502 8.1403 192.794 7.53646 193.377 7.11719C193.965 6.69336 194.803 6.48145 195.893 6.48145H196.911V5.99609C196.911 5.61328 196.804 5.30794 196.59 5.08008C196.376 4.84766 196.05 4.73145 195.612 4.73145C195.234 4.73145 194.924 4.82715 194.683 5.01855C194.441 5.2054 194.32 5.44466 194.32 5.73633H192.659C192.659 5.33073 192.794 4.95247 193.062 4.60156C193.331 4.24609 193.696 3.9681 194.156 3.76758C194.621 3.56706 195.138 3.4668 195.708 3.4668C196.574 3.4668 197.264 3.68555 197.779 4.12305C198.294 4.55599 198.559 5.16667 198.572 5.95508V9.29102C198.572 9.95638 198.666 10.4873 198.853 10.8838V11H197.157ZM195.332 9.80371C195.66 9.80371 195.968 9.72396 196.255 9.56445C196.547 9.40495 196.765 9.19076 196.911 8.92188V7.52734H196.016C195.4 7.52734 194.938 7.63444 194.628 7.84863C194.318 8.06283 194.163 8.36589 194.163 8.75781C194.163 9.07682 194.268 9.33203 194.478 9.52344C194.692 9.71029 194.977 9.80371 195.332 9.80371ZM203.329 11H201.668V0.5H203.329V11ZM210.54 8.99023C210.54 8.69401 210.417 8.46842 210.171 8.31348C209.929 8.15853 209.526 8.02181 208.961 7.90332C208.396 7.78483 207.924 7.63444 207.546 7.45215C206.716 7.05111 206.302 6.47005 206.302 5.70898C206.302 5.07096 206.571 4.53776 207.108 4.10938C207.646 3.68099 208.33 3.4668 209.159 3.4668C210.043 3.4668 210.757 3.68555 211.299 4.12305C211.846 4.56055 212.119 5.12793 212.119 5.8252H210.458C210.458 5.50618 210.34 5.24186 210.103 5.03223C209.866 4.81803 209.551 4.71094 209.159 4.71094C208.795 4.71094 208.496 4.79525 208.264 4.96387C208.036 5.13249 207.922 5.35807 207.922 5.64062C207.922 5.89583 208.029 6.09408 208.243 6.23535C208.457 6.37663 208.89 6.52018 209.542 6.66602C210.194 6.80729 210.704 6.97819 211.073 7.17871C211.447 7.37467 211.723 7.61165 211.9 7.88965C212.083 8.16764 212.174 8.50488 212.174 8.90137C212.174 9.56673 211.898 10.1068 211.347 10.5215C210.795 10.9316 210.073 11.1367 209.18 11.1367C208.574 11.1367 208.034 11.0273 207.56 10.8086C207.086 10.5898 206.716 10.2891 206.452 9.90625C206.188 9.52344 206.056 9.111 206.056 8.66895H207.669C207.692 9.06087 207.84 9.36393 208.113 9.57812C208.387 9.78776 208.749 9.89258 209.2 9.89258C209.638 9.89258 209.97 9.81055 210.198 9.64648C210.426 9.47786 210.54 9.25911 210.54 8.99023Z" fill="#2C7973"/>
</svg>
