<svg width="24" height="24" viewBox="0 0 24 24" fill="none" xmlns="http://www.w3.org/2000/svg">
<path d="M23.1797 7.66683H18.3387C17.7993 6.87956 17.1177 6.20053 16.3332 5.66377V0.820312C16.3332 0.368016 15.9652 0 15.5129 0H8.48714C8.03484 0 7.66683 0.368016 7.66683 0.820312V5.66705C6.88359 6.20466 6.20466 6.88355 5.66705 7.66683H3.69577C3.50156 7.66683 3.3442 7.82423 3.3442 8.01839C3.3442 8.21255 3.50156 8.36995 3.69577 8.36995H5.23772C4.65483 9.45141 4.32356 10.6877 4.32356 12C4.32356 13.3123 4.65483 14.5485 5.23772 15.63H0.820312C0.755672 15.63 0.703125 15.5775 0.703125 15.5129V8.48714C0.703125 8.42255 0.755672 8.36995 0.820312 8.36995H2.01169C2.20589 8.36995 2.36325 8.21255 2.36325 8.01839C2.36325 7.82423 2.20589 7.66683 2.01169 7.66683H0.820312C0.368016 7.66683 0 8.03484 0 8.48714V15.5129C0 15.9652 0.368016 16.3332 0.820312 16.3332H5.66705C6.20466 17.1164 6.88355 17.7953 7.66683 18.333V23.1797C7.66683 23.632 8.03484 24 8.48714 24H9.69305C9.88725 24 10.0446 23.8426 10.0446 23.6484C10.0446 23.4543 9.88725 23.2969 9.69305 23.2969H8.48714C8.4225 23.2969 8.36995 23.2443 8.36995 23.1797V18.7622C9.45145 19.3451 10.6877 19.6764 12 19.6764C13.2792 19.6764 14.5231 19.359 15.63 18.7643V23.1797C15.63 23.2443 15.5775 23.2969 15.5129 23.2969H11.3771C11.1829 23.2969 11.0255 23.4543 11.0255 23.6484C11.0255 23.8426 11.1829 24 11.3771 24H15.5129C15.9652 24 16.3332 23.632 16.3332 23.1797V18.3367C16.6147 18.1439 16.8847 17.9318 17.1408 17.7006C17.5959 17.2898 17.9961 16.8302 18.3365 16.3332H23.1797C23.632 16.3332 24 15.9652 24 15.5129V8.48714C24 8.0348 23.632 7.66683 23.1797 7.66683ZM8.36995 0.820312C8.36995 0.755719 8.4225 0.703125 8.48714 0.703125H15.5129C15.5775 0.703125 15.6301 0.755719 15.6301 0.820312V5.23598C14.5448 4.65286 13.3069 4.32356 12 4.32356C10.6877 4.32356 9.45141 4.65483 8.36995 5.23772V0.820312ZM23.2969 15.5129C23.2969 15.5775 23.2443 15.63 23.1797 15.63H18.7648C19.2262 14.7714 19.5227 13.8266 19.6302 12.8421C19.6513 12.6491 19.5119 12.4755 19.3189 12.4545C19.125 12.4334 18.9523 12.5728 18.9312 12.7658C18.5448 16.3046 15.5651 18.9733 12 18.9733C8.15494 18.9733 5.02669 15.8451 5.02669 12C5.02669 8.15489 8.15489 5.02669 12 5.02669C15.5278 5.02669 18.504 7.66416 18.923 11.1617C18.946 11.3545 19.1212 11.4918 19.3138 11.469C19.5066 11.4458 19.6442 11.2709 19.6211 11.0781C19.5045 10.1042 19.2075 9.19102 18.7664 8.36995H23.1797C23.2443 8.36995 23.2969 8.42255 23.2969 8.48714V15.5129Z" fill="#00D654"/>
<path d="M14.4551 13.3268C14.1374 13.0915 13.9297 12.7578 13.8703 12.3871C13.7959 11.9218 13.5566 11.4951 13.1967 11.1856C12.4499 10.5435 11.3265 10.5471 10.5836 11.1941C10.2017 11.5268 9.96115 11.9857 9.90631 12.4863C9.86627 12.8515 9.68993 13.1891 9.40976 13.4367C8.93403 13.8573 8.69004 14.4628 8.74038 15.0978C8.81792 16.0754 9.61442 16.8636 10.5932 16.9314C10.6411 16.9348 10.6888 16.9364 10.7363 16.9364C10.9853 16.9364 11.228 16.8909 11.4599 16.8007C11.8081 16.6651 12.1918 16.6651 12.5404 16.8007C12.8159 16.9079 13.1067 16.952 13.4051 16.9315C14.3745 16.8652 15.171 16.0862 15.2578 15.1194C15.321 14.4161 15.0209 13.746 14.4551 13.3268ZM14.5575 15.0566C14.5013 15.6826 13.9853 16.1871 13.3572 16.23C13.1627 16.2433 12.9737 16.2149 12.7954 16.1455C12.2824 15.9459 11.7176 15.946 11.2049 16.1455C11.0261 16.215 10.8365 16.2435 10.6417 16.23C10.0077 16.1861 9.49156 15.6755 9.44135 15.0423C9.40863 14.6295 9.56688 14.2364 9.87551 13.9635C10.287 13.5998 10.5462 13.1024 10.6053 12.5629C10.6408 12.2384 10.7972 11.9407 11.0455 11.7244C11.2873 11.5138 11.5913 11.4084 11.8954 11.4084C12.1965 11.4084 12.4977 11.5118 12.7384 11.7188C12.9758 11.9229 13.1271 12.1925 13.1761 12.4982C13.2647 13.0515 13.5703 13.5465 14.0367 13.8919C14.4039 14.1639 14.5986 14.5993 14.5575 15.0566Z" fill="#00D654"/>
<path d="M10.1627 10.122C11.0058 10.122 11.6918 9.43603 11.6918 8.59289C11.6918 7.74975 11.0058 7.06378 10.1627 7.06378C9.31951 7.06378 8.63354 7.74975 8.63354 8.59289C8.63354 9.43603 9.31947 10.122 10.1627 10.122ZM10.1627 7.76686C10.6181 7.76686 10.9886 8.13741 10.9886 8.59284C10.9886 9.04828 10.6181 9.41883 10.1627 9.41883C9.70722 9.41883 9.33667 9.04828 9.33667 8.59284C9.33667 8.13741 9.70722 7.76686 10.1627 7.76686Z" fill="#00D654"/>
<path d="M13.8375 10.122C14.6806 10.122 15.3666 9.43603 15.3666 8.59289C15.3666 7.74975 14.6806 7.06378 13.8375 7.06378C12.9943 7.06378 12.3083 7.74975 12.3083 8.59289C12.3083 9.43603 12.9943 10.122 13.8375 10.122ZM13.8375 7.76686C14.2929 7.76686 14.6634 8.13741 14.6634 8.59284C14.6634 9.04828 14.2929 9.41883 13.8375 9.41883C13.382 9.41883 13.0115 9.04828 13.0115 8.59284C13.0115 8.13741 13.382 7.76686 13.8375 7.76686Z" fill="#00D654"/>
<path d="M9.25544 11.4264C9.25544 10.5833 8.56947 9.89734 7.72633 9.89734C6.88323 9.89734 6.19727 10.5833 6.19727 11.4264C6.19727 12.2696 6.88323 12.9556 7.72633 12.9556C8.56947 12.9556 9.25544 12.2696 9.25544 11.4264ZM7.72633 12.2524C7.27089 12.2524 6.90039 11.8819 6.90039 11.4264C6.90039 10.971 7.27089 10.6005 7.72633 10.6005C8.18177 10.6005 8.55231 10.971 8.55231 11.4264C8.55231 11.8819 8.18177 12.2524 7.72633 12.2524Z" fill="#00D654"/>
<path d="M16.2735 9.89734C15.4304 9.89734 14.7444 10.5833 14.7444 11.4264C14.7444 12.2696 15.4304 12.9556 16.2735 12.9556C17.1166 12.9556 17.8026 12.2696 17.8026 11.4264C17.8026 10.5833 17.1166 9.89734 16.2735 9.89734ZM16.2735 12.2524C15.8181 12.2524 15.4475 11.8819 15.4475 11.4264C15.4475 10.971 15.8181 10.6005 16.2735 10.6005C16.7289 10.6005 17.0995 10.971 17.0995 11.4264C17.0995 11.8819 16.7289 12.2524 16.2735 12.2524Z" fill="#00D654"/>
</svg>
