<svg width="18" height="30" viewBox="0 0 18 30" fill="none" xmlns="http://www.w3.org/2000/svg">
<path fill-rule="evenodd" clip-rule="evenodd" d="M10.1979 2.0877C11.7945 2.56061 13.0126 3.54191 13.7104 4.94882C15.4134 8.35379 15.9337 9.7016 15.9455 10.7302C15.9455 11.6878 15.165 12.4681 14.2071 12.4681C13.2491 12.4681 12.4686 11.6878 12.4686 10.7302V9.38238C12.1848 9.57154 11.9837 10.139 11.688 10.9903L11.6644 11.0494C11.1913 12.4445 10.0797 13.2366 8.63684 13.2366C7.19402 13.2366 6.08234 12.4445 5.60928 11.0494L5.58563 10.9903C5.28997 10.139 5.08892 9.57154 4.80509 9.38238V10.7302C4.80509 11.6878 4.02454 12.4681 3.06661 12.4681C2.10867 12.4681 1.32812 11.6878 1.32812 10.7302C1.32812 9.7016 1.84849 8.35379 3.53966 4.94882C4.24924 3.55373 5.45554 2.56061 7.0521 2.0877C7.30045 1.43744 7.92725 1 8.62501 1C9.32277 1 9.94957 1.43744 10.1979 2.0877ZM12.9298 10.7302C12.9298 11.4277 13.4975 11.9952 14.1952 11.9952C14.893 11.9952 15.4607 11.4277 15.4725 10.7184C15.4725 9.78435 14.9403 8.43655 13.2964 5.14981C12.6223 3.81383 11.5107 2.9153 9.96139 2.48968C9.87861 2.46603 9.81948 2.40692 9.79582 2.32416C9.65391 1.80395 9.16902 1.44927 8.63684 1.44927C8.10465 1.44927 7.63159 1.81577 7.47785 2.32416C7.4542 2.40692 7.39507 2.46603 7.31228 2.48968C5.76302 2.92712 4.65134 3.81383 3.97724 5.14981C2.33337 8.43655 1.80118 9.79618 1.80118 10.7184C1.80118 11.4159 2.36885 11.9834 3.06661 11.9834C3.76436 11.9834 4.33203 11.4159 4.33203 10.7184V6.16657C4.33203 6.03652 4.43847 5.93012 4.56856 5.93012C4.69865 5.93012 4.80509 6.03652 4.80509 6.16657V8.86217C5.06527 8.93311 5.28997 9.1341 5.47919 9.46514C5.66071 9.79404 5.82046 10.2535 6.0002 10.7704C6.00783 10.7924 6.0155 10.8144 6.0232 10.8366L6.04686 10.8957C6.59087 12.5272 7.89177 12.7637 8.62501 12.7637C9.35825 12.7637 10.6592 12.5272 11.215 10.8957L11.2386 10.8366C11.2528 10.7951 11.2667 10.7541 11.2805 10.7135C11.4511 10.211 11.5966 9.78241 11.7827 9.46514C11.9719 9.1341 12.1966 8.93311 12.4568 8.86217V6.16657C12.4568 6.03652 12.5632 5.93012 12.6933 5.93012C12.8234 5.93012 12.9298 6.03652 12.9298 6.16657V10.7302ZM7.0994 6.55664C7.21766 6.58028 7.30045 6.67487 7.30045 6.79309H7.28862V7.38424C7.28862 7.51429 7.18218 7.62069 7.05209 7.62069C6.922 7.62069 6.81556 7.51429 6.81556 7.38424V6.98226L5.86945 6.86403C5.73936 6.85221 5.65658 6.73398 5.6684 6.60393C5.68023 6.47388 5.79849 6.39112 5.92859 6.40294L7.0994 6.55664ZM8.87324 10.3401C8.92055 10.7893 9.29899 11.144 9.76022 11.144C9.89031 11.144 10.0322 11.2504 10.0322 11.3805C10.0322 11.5105 9.92579 11.6169 9.7957 11.6169C9.32264 11.6169 8.90872 11.3805 8.66037 11.014C8.41201 11.3805 7.99809 11.6169 7.52503 11.6169C7.39494 11.6169 7.2885 11.5105 7.2885 11.3805C7.2885 11.2504 7.39494 11.144 7.52503 11.144C7.98626 11.144 8.36471 10.7893 8.41201 10.3401L7.51321 9.79622C7.44225 9.74893 7.39494 9.67799 7.39494 9.59523C7.39494 9.12232 7.77339 8.74399 8.24644 8.74399H9.03881C9.51187 8.74399 9.89031 9.12232 9.89031 9.59523C9.89031 9.67799 9.843 9.74893 9.77205 9.79622L8.87324 10.3401ZM9.02698 9.2169H8.23461C8.05722 9.2169 7.9153 9.32331 7.87982 9.477L8.63671 9.93809L9.3936 9.477C9.3463 9.32331 9.19255 9.2169 9.02698 9.2169ZM11.286 6.43841L10.2098 6.58029C10.0915 6.59211 10.0088 6.69851 10.0088 6.81674V7.36059C10.0088 7.49064 10.1152 7.59705 10.2453 7.59705C10.3754 7.59705 10.4818 7.49064 10.4818 7.36059V7.02955L11.3451 6.92315C11.4752 6.91132 11.5698 6.7931 11.5462 6.66305C11.5343 6.52117 11.4161 6.42659 11.286 6.43841Z" fill="#00D654"/>
<path d="M13.7104 4.94882L13.4864 5.0599L13.4868 5.06065L13.7104 4.94882ZM10.1979 2.0877L9.96438 2.1769L10.0085 2.29232L10.1269 2.3274L10.1979 2.0877ZM15.9455 10.7302H16.1956L16.1955 10.7273L15.9455 10.7302ZM12.4686 9.38238H12.7186V8.91533L12.3299 9.17435L12.4686 9.38238ZM11.688 10.9903L11.9204 11.0833L11.9242 11.0723L11.688 10.9903ZM11.6644 11.0494L11.4319 10.9564L11.4276 10.9691L11.6644 11.0494ZM5.60928 11.0494L5.84638 10.969L5.84139 10.9565L5.60928 11.0494ZM5.58563 10.9903L5.34921 11.0724L5.35352 11.0832L5.58563 10.9903ZM4.80509 9.38238L4.94373 9.17435L4.55509 8.91533V9.38238H4.80509ZM3.53966 4.94882L3.31682 4.83548L3.31576 4.83761L3.53966 4.94882ZM7.0521 2.0877L7.1231 2.3274L7.24156 2.29232L7.28565 2.1769L7.0521 2.0877ZM15.4725 10.7184L15.7225 10.7225V10.7184H15.4725ZM13.2964 5.14981L13.52 5.03798L13.5196 5.03719L13.2964 5.14981ZM9.96139 2.48968L9.89273 2.73007L9.89517 2.73074L9.96139 2.48968ZM9.79582 2.32416L9.55462 2.38996L9.55545 2.39286L9.79582 2.32416ZM7.47785 2.32416L7.23853 2.25178L7.23747 2.25546L7.47785 2.32416ZM7.31228 2.48968L7.38021 2.73027L7.38094 2.73006L7.31228 2.48968ZM3.97724 5.14981L3.75404 5.03719L3.75364 5.03798L3.97724 5.14981ZM4.80509 8.86217H4.55509V9.05314L4.73932 9.10337L4.80509 8.86217ZM5.47919 9.46514L5.69809 9.34433L5.69623 9.34107L5.47919 9.46514ZM6.0002 10.7704L6.23634 10.6883V10.6883L6.0002 10.7704ZM6.0232 10.8366L5.78684 10.9188L5.79109 10.9295L6.0232 10.8366ZM6.04686 10.8957L6.28402 10.8166L6.2817 10.8097L6.27897 10.8028L6.04686 10.8957ZM11.215 10.8957L10.9826 10.8027L10.9783 10.8151L11.215 10.8957ZM11.2386 10.8366L11.4711 10.9296L11.4753 10.9172L11.2386 10.8366ZM11.2805 10.7135L11.0437 10.6332V10.6332L11.2805 10.7135ZM11.7827 9.46514L11.9983 9.5916L11.9997 9.5892L11.7827 9.46514ZM12.4568 8.86217L12.5225 9.10337L12.7068 9.05314V8.86217H12.4568ZM7.30045 6.79309V7.04309H7.55045V6.79309H7.30045ZM7.0994 6.55664L7.14841 6.31149L7.14022 6.30985L7.13194 6.30876L7.0994 6.55664ZM7.28862 6.79309V6.54309H7.03862V6.79309H7.28862ZM6.81556 6.98226H7.06556V6.76156L6.84656 6.73419L6.81556 6.98226ZM5.86945 6.86403L5.90047 6.61582L5.89208 6.61506L5.86945 6.86403ZM5.6684 6.60393L5.91738 6.62657V6.62657L5.6684 6.60393ZM5.92859 6.40294L5.96115 6.15487L5.95121 6.15397L5.92859 6.40294ZM8.87324 10.3401L8.74382 10.1262L8.60799 10.2084L8.62461 10.3662L8.87324 10.3401ZM8.66037 11.014L8.86733 10.8737L8.66037 10.5683L8.4534 10.8737L8.66037 11.014ZM8.41201 10.3401L8.66064 10.3662L8.67726 10.2084L8.54143 10.1262L8.41201 10.3401ZM7.51321 9.79622L7.37443 10.0045L7.38378 10.0101L7.51321 9.79622ZM9.77205 9.79622L9.90159 10.0103L9.91069 10.0043L9.77205 9.79622ZM7.87982 9.477L7.63623 9.42077L7.59564 9.59662L7.74976 9.69051L7.87982 9.477ZM8.63671 9.93809L8.50665 10.1516L8.63671 10.2308L8.76678 10.1516L8.63671 9.93809ZM9.3936 9.477L9.52367 9.69051L9.68975 9.58933L9.63254 9.40346L9.3936 9.477ZM10.2098 6.58029L10.2347 6.82917L10.2425 6.82814L10.2098 6.58029ZM11.286 6.43841L11.2633 6.18923L11.2533 6.19056L11.286 6.43841ZM10.4818 7.02955L10.4512 6.78143L10.2318 6.80847V7.02955H10.4818ZM11.3451 6.92315L11.3225 6.67405L11.3145 6.67502L11.3451 6.92315ZM11.5462 6.66305L11.297 6.68381L11.298 6.69587L11.3002 6.70778L11.5462 6.66305ZM13.9343 4.83775C13.203 3.36312 11.9261 2.33886 10.2689 1.84799L10.1269 2.3274C11.6629 2.78237 12.8222 3.7207 13.4864 5.0599L13.9343 4.83775ZM16.1955 10.7273C16.1891 10.1703 16.0446 9.54424 15.6953 8.64052C15.3463 7.73737 14.7857 6.54 13.934 4.83699L13.4868 5.06065C14.338 6.76261 14.8892 7.94163 15.229 8.82078C15.5685 9.69934 15.6901 10.2615 15.6956 10.7331L16.1955 10.7273ZM14.2071 12.7181C15.303 12.7181 16.1955 11.826 16.1955 10.7302H15.6955C15.6955 11.5497 15.027 12.2181 14.2071 12.2181V12.7181ZM12.2186 10.7302C12.2186 11.826 13.1111 12.7181 14.2071 12.7181V12.2181C13.3871 12.2181 12.7186 11.5497 12.7186 10.7302H12.2186ZM12.2186 9.38238V10.7302H12.7186V9.38238H12.2186ZM11.9242 11.0723C12.0732 10.6433 12.1935 10.3004 12.3106 10.0409C12.4319 9.7722 12.5292 9.64244 12.6072 9.59041L12.3299 9.17435C12.1242 9.31149 11.979 9.56006 11.8549 9.83523C11.7266 10.1195 11.5985 10.486 11.4519 10.9083L11.9242 11.0723ZM11.8965 11.1423L11.9202 11.0832L11.4559 10.8974L11.4323 10.9565L11.8965 11.1423ZM8.63684 13.4866C10.1876 13.4866 11.394 12.6255 11.9012 11.1297L11.4276 10.9691C10.9887 12.2635 9.97173 12.9866 8.63684 12.9866V13.4866ZM5.37252 11.1297C5.87972 12.6255 7.08609 13.4866 8.63684 13.4866V12.9866C7.30194 12.9866 6.28495 12.2635 5.84604 10.9691L5.37252 11.1297ZM5.35352 11.0832L5.37717 11.1423L5.84139 10.9565L5.81774 10.8974L5.35352 11.0832ZM4.66644 9.59041C4.7445 9.64244 4.84181 9.7722 4.96305 10.0409C5.08015 10.3004 5.20046 10.6433 5.34947 11.0723L5.82179 10.9083C5.67514 10.486 5.54708 10.1195 5.4188 9.83523C5.29463 9.56006 5.14951 9.31149 4.94373 9.17435L4.66644 9.59041ZM5.05509 10.7302V9.38238H4.55509V10.7302H5.05509ZM3.06661 12.7181C4.16254 12.7181 5.05509 11.826 5.05509 10.7302H4.55509C4.55509 11.5497 3.88654 12.2181 3.06661 12.2181V12.7181ZM1.07812 10.7302C1.07812 11.826 1.97067 12.7181 3.06661 12.7181V12.2181C2.24667 12.2181 1.57812 11.5497 1.57812 10.7302H1.07812ZM3.31576 4.83761C2.46998 6.54048 1.91238 7.73795 1.56626 8.64119C1.21994 9.54493 1.07812 10.1719 1.07812 10.7302H1.57812C1.57812 10.2599 1.69649 9.69866 2.03315 8.8201C2.37 7.94105 2.91816 6.76214 3.76356 5.06003L3.31576 4.83761ZM6.9811 1.84799C5.32197 2.33944 4.05903 3.37626 3.31683 4.83548L3.76249 5.06216C4.43946 3.7312 5.58911 2.78178 7.1231 2.3274L6.9811 1.84799ZM8.62501 0.75C7.82228 0.75 7.10342 1.25265 6.81855 1.9985L7.28565 2.1769C7.49749 1.62224 8.03223 1.25 8.62501 1.25V0.75ZM10.4315 1.9985C10.1466 1.25265 9.42774 0.75 8.62501 0.75V1.25C9.21779 1.25 9.75253 1.62224 9.96438 2.1769L10.4315 1.9985ZM14.1952 11.7452C13.6355 11.7452 13.1798 11.2896 13.1798 10.7302H12.6798C12.6798 11.5659 13.3595 12.2452 14.1952 12.2452V11.7452ZM15.2225 10.7142C15.2129 11.291 14.7527 11.7452 14.1952 11.7452V12.2452C15.0333 12.2452 15.7084 11.5645 15.7225 10.7225L15.2225 10.7142ZM13.0728 5.26164C13.8945 6.90453 14.4341 8.0544 14.7681 8.90752C15.1028 9.76219 15.2225 10.2981 15.2225 10.7184H15.7225C15.7225 10.2047 15.5761 9.59962 15.2337 8.72521C14.8907 7.84923 14.3422 6.68184 13.52 5.03798L13.0728 5.26164ZM9.89517 2.73074C11.3802 3.13871 12.4327 3.99302 13.0732 5.26243L13.5196 5.03719C12.8119 3.63464 11.6411 2.69188 10.0276 2.24861L9.89517 2.73074ZM9.55545 2.39286C9.60284 2.55869 9.72692 2.6827 9.89273 2.73006L10.0301 2.24929C10.0283 2.24879 10.0282 2.24855 10.0292 2.2491C10.0301 2.24967 10.0316 2.25072 10.0332 2.25228C10.0347 2.25384 10.0358 2.25533 10.0364 2.25632C10.0369 2.25729 10.0367 2.25718 10.0362 2.25546L9.55545 2.39286ZM8.63684 1.69927C9.06053 1.69927 9.44349 1.98254 9.55464 2.38995L10.037 2.25836C9.86432 1.62537 9.27752 1.19927 8.63684 1.19927V1.69927ZM7.71715 2.39652C7.84041 1.98893 8.21967 1.69927 8.63684 1.69927V1.19927C7.98963 1.19927 7.42278 1.64262 7.23855 2.25179L7.71715 2.39652ZM7.38094 2.73006C7.54675 2.6827 7.67083 2.55869 7.71823 2.39285L7.23747 2.25546C7.23698 2.25718 7.23674 2.25729 7.2373 2.25632C7.23788 2.25533 7.23893 2.25384 7.24049 2.25228C7.24205 2.25072 7.24353 2.24967 7.24452 2.2491C7.24548 2.24855 7.24536 2.24879 7.24362 2.24929L7.38094 2.73006ZM4.20043 5.26243C4.84041 3.99409 5.89262 3.1503 7.38021 2.73027L7.24435 2.24908C5.63342 2.70394 4.46228 3.63357 3.75404 5.03719L4.20043 5.26243ZM2.05118 10.7184C2.05118 10.3041 2.1708 9.7683 2.5056 8.91181C2.83966 8.05722 3.37923 6.90435 4.20083 5.26164L3.75364 5.03798C2.93138 6.68201 2.38291 7.85233 2.03992 8.72978C1.69766 9.60534 1.55118 10.2105 1.55118 10.7184H2.05118ZM3.06661 11.7334C2.50685 11.7334 2.05118 11.2778 2.05118 10.7184H1.55118C1.55118 11.554 2.23085 12.2334 3.06661 12.2334V11.7334ZM4.08203 10.7184C4.08203 11.2778 3.62636 11.7334 3.06661 11.7334V12.2334C3.90236 12.2334 4.58203 11.554 4.58203 10.7184H4.08203ZM4.08203 6.16657V10.7184H4.58203V6.16657H4.08203ZM4.56856 5.68012C4.30047 5.68012 4.08203 5.89838 4.08203 6.16657H4.58203C4.58203 6.1711 4.57995 6.17469 4.57826 6.17638C4.57657 6.17807 4.57302 6.18012 4.56856 6.18012V5.68012ZM5.05509 6.16657C5.05509 5.89838 4.83665 5.68012 4.56856 5.68012V6.18012C4.5641 6.18012 4.56054 6.17807 4.55886 6.17638C4.55716 6.17469 4.55509 6.1711 4.55509 6.16657H5.05509ZM5.05509 8.86217V6.16657H4.55509V8.86217H5.05509ZM5.69623 9.34107C5.48788 8.97657 5.21754 8.7155 4.87085 8.62098L4.73932 9.10337C4.91299 9.15072 5.09205 9.29163 5.26214 9.5892L5.69623 9.34107ZM6.23634 10.6883C6.05928 10.1791 5.89221 9.69611 5.69807 9.34434L5.26031 9.58594C5.4292 9.89196 5.58164 10.3279 5.76407 10.8526L6.23634 10.6883ZM6.25932 10.7544C6.25163 10.7323 6.24397 10.7103 6.23634 10.6883L5.76407 10.8526C5.7717 10.8745 5.77937 10.8966 5.78709 10.9187L6.25932 10.7544ZM6.27897 10.8028L6.25531 10.7437L5.79109 10.9295L5.81475 10.9886L6.27897 10.8028ZM8.62501 12.5137C8.28227 12.5137 7.81953 12.458 7.38419 12.2218C6.95581 11.9894 6.53625 11.5731 6.28402 10.8166L5.80969 10.9748C6.10148 11.8499 6.60437 12.3676 7.14576 12.6613C7.68019 12.9512 8.23451 13.0137 8.62501 13.0137V12.5137ZM10.9783 10.8151C10.7204 11.5721 10.2978 11.9889 9.86759 12.2216C9.43059 12.458 8.96766 12.5137 8.62501 12.5137V13.0137C9.0156 13.0137 9.56974 12.9512 10.1055 12.6614C10.648 12.368 11.1537 11.8508 11.4516 10.9763L10.9783 10.8151ZM11.0065 10.7437L10.9829 10.8028L11.4471 10.9886L11.4708 10.9295L11.0065 10.7437ZM11.0437 10.6332C11.03 10.6737 11.0161 10.7146 11.002 10.756L11.4753 10.9172C11.4895 10.8756 11.5034 10.8344 11.5172 10.7939L11.0437 10.6332ZM11.567 9.33868C11.3652 9.68281 11.2114 10.1394 11.0437 10.6332L11.5172 10.7939C11.6908 10.2827 11.828 9.882 11.9983 9.5916L11.567 9.33868ZM12.391 8.62098C12.0443 8.7155 11.774 8.97657 11.5656 9.34107L11.9997 9.5892C12.1698 9.29163 12.3489 9.15072 12.5225 9.10337L12.391 8.62098ZM12.2068 6.16657V8.86217H12.7068V6.16657H12.2068ZM12.6933 5.68012C12.4252 5.68012 12.2068 5.89838 12.2068 6.16657H12.7068C12.7068 6.1711 12.7047 6.17469 12.703 6.17638C12.7013 6.17807 12.6977 6.18012 12.6933 6.18012V5.68012ZM13.1798 6.16657C13.1798 5.89838 12.9614 5.68012 12.6933 5.68012V6.18012C12.6888 6.18012 12.6853 6.17807 12.6836 6.17638C12.6819 6.17469 12.6798 6.1711 12.6798 6.16657H13.1798ZM13.1798 10.7302V6.16657H12.6798V10.7302H13.1798ZM7.55045 6.79309C7.55045 6.54632 7.3741 6.35661 7.14841 6.31149L7.05038 6.80179C7.05728 6.80317 7.05707 6.80515 7.05448 6.80212C7.05331 6.80076 7.05213 6.79887 7.05132 6.79667C7.05047 6.79439 7.05045 6.79296 7.05045 6.79309H7.55045ZM7.28862 7.04309H7.30045V6.54309H7.28862V7.04309ZM7.53862 7.38424V6.79309H7.03862V7.38424H7.53862ZM7.05209 7.87069C7.32018 7.87069 7.53862 7.65243 7.53862 7.38424H7.03862C7.03862 7.37971 7.0407 7.37612 7.04239 7.37443C7.04408 7.37274 7.04764 7.37069 7.05209 7.37069V7.87069ZM6.56556 7.38424C6.56556 7.65243 6.784 7.87069 7.05209 7.87069V7.37069C7.05655 7.37069 7.0601 7.37274 7.06179 7.37443C7.06349 7.37612 7.06556 7.37971 7.06556 7.38424H6.56556ZM6.56556 6.98226V7.38424H7.06556V6.98226H6.56556ZM5.83845 7.1121L6.78456 7.23033L6.84656 6.73419L5.90045 6.61596L5.83845 7.1121ZM5.41943 6.58129C5.39734 6.82426 5.55586 7.08656 5.84683 7.11301L5.89208 6.61506C5.89517 6.61534 5.90018 6.61658 5.9055 6.61961C5.91057 6.62251 5.91387 6.62586 5.91569 6.62829C5.91906 6.63278 5.91681 6.63285 5.91738 6.62657L5.41943 6.58129ZM5.95121 6.15397C5.70835 6.1319 5.4459 6.29025 5.41943 6.58129L5.91738 6.62657C5.91709 6.62969 5.91584 6.63473 5.9128 6.64006C5.90989 6.64514 5.90654 6.64844 5.90412 6.65025C5.89965 6.65361 5.89962 6.65134 5.90596 6.65192L5.95121 6.15397ZM7.13194 6.30876L5.96112 6.15507L5.89605 6.65082L7.06686 6.80451L7.13194 6.30876ZM9.76022 10.894C9.43069 10.894 9.15617 10.6397 9.12187 10.3139L8.62461 10.3662C8.68492 10.939 9.16729 11.394 9.76022 11.394V10.894ZM10.2822 11.3805C10.2822 11.2211 10.1962 11.0969 10.1045 11.021C10.0127 10.9449 9.88946 10.894 9.76022 10.894V11.394C9.75917 11.394 9.76239 11.3939 9.7688 11.3964C9.77512 11.3988 9.78111 11.4023 9.78553 11.406C9.79006 11.4098 9.79005 11.4112 9.78829 11.4079C9.78619 11.404 9.78223 11.3944 9.78223 11.3805H10.2822ZM9.7957 11.8669C10.0638 11.8669 10.2822 11.6487 10.2822 11.3805H9.78223C9.78223 11.3759 9.78431 11.3724 9.786 11.3707C9.78769 11.369 9.79124 11.3669 9.7957 11.3669V11.8669ZM8.4534 11.1542C8.74637 11.5866 9.23639 11.8669 9.7957 11.8669V11.3669C9.4089 11.3669 9.07107 11.1744 8.86733 10.8737L8.4534 11.1542ZM7.52503 11.8669C8.08434 11.8669 8.57436 11.5866 8.86733 11.1542L8.4534 10.8737C8.24966 11.1744 7.91183 11.3669 7.52503 11.3669V11.8669ZM7.0385 11.3805C7.0385 11.6487 7.25694 11.8669 7.52503 11.8669V11.3669C7.52949 11.3669 7.53304 11.369 7.53473 11.3707C7.53643 11.3724 7.5385 11.3759 7.5385 11.3805H7.0385ZM7.52503 10.894C7.25694 10.894 7.0385 11.1123 7.0385 11.3805H7.5385C7.5385 11.385 7.53642 11.3886 7.53473 11.3903C7.53304 11.392 7.52949 11.394 7.52503 11.394V10.894ZM8.16339 10.3139C8.12908 10.6397 7.85456 10.894 7.52503 10.894V11.394C8.11796 11.394 8.60033 10.939 8.66064 10.3662L8.16339 10.3139ZM7.38378 10.0101L8.28259 10.554L8.54143 10.1262L7.64263 9.58233L7.38378 10.0101ZM7.14494 9.59523C7.14494 9.78146 7.25238 9.92282 7.37456 10.0043L7.65185 9.58819C7.64255 9.58199 7.64027 9.57782 7.641 9.57901C7.64144 9.57975 7.64252 9.58175 7.64346 9.58497C7.64443 9.58829 7.64494 9.59187 7.64494 9.59523H7.14494ZM8.24644 8.49399C7.63539 8.49399 7.14494 8.98418 7.14494 9.59523H7.64494C7.64494 9.26046 7.91139 8.99399 8.24644 8.99399V8.49399ZM9.03881 8.49399H8.24644V8.99399H9.03881V8.49399ZM10.1403 9.59523C10.1403 8.98418 9.64987 8.49399 9.03881 8.49399V8.99399C9.37387 8.99399 9.64031 9.26046 9.64031 9.59523H10.1403ZM9.91069 10.0043C10.0329 9.92282 10.1403 9.78146 10.1403 9.59523H9.64031C9.64031 9.59187 9.64082 9.58829 9.64179 9.58497C9.64273 9.58175 9.64381 9.57975 9.64426 9.57901C9.64498 9.57782 9.6427 9.58199 9.6334 9.58819L9.91069 10.0043ZM9.00266 10.554L9.90147 10.0101L9.64262 9.58233L8.74382 10.1262L9.00266 10.554ZM8.23461 9.4669H9.02698V8.9669H8.23461V9.4669ZM8.12342 9.53323C8.12717 9.51696 8.13627 9.50241 8.15243 9.49048C8.169 9.47826 8.19611 9.4669 8.23461 9.4669V8.9669C7.95661 8.9669 7.70129 9.13894 7.63623 9.42077L8.12342 9.53323ZM8.76678 9.72459L8.00989 9.2635L7.74976 9.69051L8.50665 10.1516L8.76678 9.72459ZM9.26354 9.2635L8.50665 9.72459L8.76678 10.1516L9.52367 9.69051L9.26354 9.2635ZM9.02698 9.4669C9.09227 9.4669 9.14234 9.5105 9.15466 9.55054L9.63254 9.40346C9.55025 9.13611 9.29284 8.9669 9.02698 8.9669V9.4669ZM10.2425 6.82814L11.3187 6.68627L11.2533 6.19056L10.1771 6.33243L10.2425 6.82814ZM10.2588 6.81674C10.2588 6.81537 10.2594 6.8157 10.2575 6.81803C10.2563 6.8195 10.2538 6.822 10.2495 6.82438C10.2449 6.8269 10.2396 6.82855 10.2347 6.82905L10.1849 6.33153C9.91962 6.35805 9.75875 6.59038 9.75875 6.81674H10.2588ZM10.2588 7.36059V6.81674H9.75875V7.36059H10.2588ZM10.2453 7.34705C10.2497 7.34705 10.2533 7.3491 10.255 7.35079C10.2567 7.35248 10.2588 7.35606 10.2588 7.36059H9.75875C9.75875 7.62878 9.97719 7.84705 10.2453 7.84705V7.34705ZM10.2318 7.36059C10.2318 7.35606 10.2339 7.35248 10.2356 7.35079C10.2373 7.3491 10.2408 7.34705 10.2453 7.34705V7.84705C10.5134 7.84705 10.7318 7.62878 10.7318 7.36059H10.2318ZM10.2318 7.02955V7.36059H10.7318V7.02955H10.2318ZM11.3145 6.67502L10.4512 6.78143L10.5124 7.27768L11.3757 7.17127L11.3145 6.67502ZM11.3002 6.70778C11.2996 6.70441 11.2996 6.69976 11.3009 6.69481C11.3021 6.69014 11.3041 6.68635 11.3063 6.68349C11.3107 6.67783 11.317 6.67467 11.3225 6.67417L11.3678 7.17212C11.6376 7.1476 11.8432 6.89925 11.7921 6.61831L11.3002 6.70778ZM11.3086 6.68739C11.3059 6.68763 11.3021 6.68656 11.2992 6.68419C11.2979 6.68307 11.2971 6.68191 11.2967 6.68112C11.2962 6.68019 11.2968 6.68074 11.297 6.68381L11.7953 6.64228C11.772 6.36313 11.5327 6.16496 11.2634 6.18944L11.3086 6.68739Z" fill="#00D654"/>
<path d="M16.3636 24.4366H1.63636V14.8366H16.3636V24.4366ZM16.3636 13.2366H1.63636C0.728182 13.2366 0 13.9486 0 14.8366V24.4366C0 24.8609 0.172402 25.2679 0.47928 25.5679C0.786158 25.868 1.20237 26.0366 1.63636 26.0366H7.36364V27.6366H5.72727V29.2366H12.2727V27.6366H10.6364V26.0366H16.3636C16.7976 26.0366 17.2138 25.868 17.5207 25.5679C17.8276 25.2679 18 24.8609 18 24.4366V14.8366C18 13.9486 17.2636 13.2366 16.3636 13.2366Z" fill="#00D654"/>
</svg>
