<svg width="166" height="12" viewBox="0 0 166 12" fill="none" xmlns="http://www.w3.org/2000/svg">
<path d="M4.51855 8.83301L7.04785 1.04688H8.94824L5.36621 11H3.69141L0.123047 1.04688H2.0166L4.51855 8.83301ZM12.9326 11H11.2715V3.60352H12.9326V11ZM11.1689 1.68262C11.1689 1.42741 11.2487 1.21549 11.4082 1.04688C11.5723 0.878255 11.8047 0.793945 12.1055 0.793945C12.4062 0.793945 12.6387 0.878255 12.8027 1.04688C12.9668 1.21549 13.0488 1.42741 13.0488 1.68262C13.0488 1.93327 12.9668 2.1429 12.8027 2.31152C12.6387 2.47559 12.4062 2.55762 12.1055 2.55762C11.8047 2.55762 11.5723 2.47559 11.4082 2.31152C11.2487 2.1429 11.1689 1.93327 11.1689 1.68262ZM19.8701 5.12109C19.6514 5.08464 19.4258 5.06641 19.1934 5.06641C18.4323 5.06641 17.9196 5.35807 17.6553 5.94141V11H15.9941V3.60352H17.5801L17.6211 4.43066C18.0221 3.78809 18.5781 3.4668 19.2891 3.4668C19.526 3.4668 19.722 3.4987 19.877 3.5625L19.8701 5.12109ZM24.5928 1.80566V3.60352H25.8984V4.83398H24.5928V8.96289C24.5928 9.24544 24.6475 9.45052 24.7568 9.57812C24.8708 9.70117 25.0713 9.7627 25.3584 9.7627C25.5498 9.7627 25.7435 9.73991 25.9395 9.69434V10.9795C25.5612 11.0843 25.1966 11.1367 24.8457 11.1367C23.5697 11.1367 22.9316 10.4326 22.9316 9.02441V4.83398H21.7148V3.60352H22.9316V1.80566H24.5928ZM32.9043 10.2754C32.4167 10.8496 31.724 11.1367 30.8262 11.1367C30.0241 11.1367 29.4157 10.902 29.001 10.4326C28.5908 9.96322 28.3857 9.28418 28.3857 8.39551V3.60352H30.0469V8.375C30.0469 9.3138 30.4365 9.7832 31.2158 9.7832C32.0225 9.7832 32.5671 9.49382 32.8496 8.91504V3.60352H34.5107V11H32.9453L32.9043 10.2754ZM41.8721 11C41.7992 10.8587 41.7354 10.6286 41.6807 10.3096C41.152 10.861 40.5049 11.1367 39.7393 11.1367C38.9964 11.1367 38.3903 10.9248 37.9209 10.501C37.4515 10.0771 37.2168 9.55306 37.2168 8.92871C37.2168 8.1403 37.5085 7.53646 38.0918 7.11719C38.6797 6.69336 39.5182 6.48145 40.6074 6.48145H41.626V5.99609C41.626 5.61328 41.5189 5.30794 41.3047 5.08008C41.0905 4.84766 40.7646 4.73145 40.3271 4.73145C39.9489 4.73145 39.639 4.82715 39.3975 5.01855C39.1559 5.2054 39.0352 5.44466 39.0352 5.73633H37.374C37.374 5.33073 37.5085 4.95247 37.7773 4.60156C38.0462 4.24609 38.4108 3.9681 38.8711 3.76758C39.3359 3.56706 39.8532 3.4668 40.4229 3.4668C41.2887 3.4668 41.9792 3.68555 42.4941 4.12305C43.0091 4.55599 43.2734 5.16667 43.2871 5.95508V9.29102C43.2871 9.95638 43.3805 10.4873 43.5674 10.8838V11H41.8721ZM40.0469 9.80371C40.375 9.80371 40.6826 9.72396 40.9697 9.56445C41.2614 9.40495 41.4801 9.19076 41.626 8.92188V7.52734H40.7305C40.1152 7.52734 39.6527 7.63444 39.3428 7.84863C39.0329 8.06283 38.8779 8.36589 38.8779 8.75781C38.8779 9.07682 38.9827 9.33203 39.1924 9.52344C39.4066 9.71029 39.6914 9.80371 40.0469 9.80371ZM48.0439 11H46.3828V0.5H48.0439V11ZM61.5771 8.68262H57.7217L56.915 11H55.1172L58.877 1.04688H60.4287L64.1953 11H62.3906L61.5771 8.68262ZM58.207 7.28809H61.0918L59.6494 3.15918L58.207 7.28809ZM70.5654 8.99023C70.5654 8.69401 70.4424 8.46842 70.1963 8.31348C69.9548 8.15853 69.5514 8.02181 68.9863 7.90332C68.4212 7.78483 67.9495 7.63444 67.5713 7.45215C66.7419 7.05111 66.3271 6.47005 66.3271 5.70898C66.3271 5.07096 66.596 4.53776 67.1338 4.10938C67.6715 3.68099 68.3551 3.4668 69.1846 3.4668C70.0687 3.4668 70.7819 3.68555 71.3242 4.12305C71.8711 4.56055 72.1445 5.12793 72.1445 5.8252H70.4834C70.4834 5.50618 70.3649 5.24186 70.1279 5.03223C69.891 4.81803 69.5765 4.71094 69.1846 4.71094C68.82 4.71094 68.5215 4.79525 68.2891 4.96387C68.0612 5.13249 67.9473 5.35807 67.9473 5.64062C67.9473 5.89583 68.0544 6.09408 68.2686 6.23535C68.4827 6.37663 68.9157 6.52018 69.5674 6.66602C70.2191 6.80729 70.7295 6.97819 71.0986 7.17871C71.4723 7.37467 71.748 7.61165 71.9258 7.88965C72.1081 8.16764 72.1992 8.50488 72.1992 8.90137C72.1992 9.56673 71.9235 10.1068 71.3721 10.5215C70.8206 10.9316 70.0983 11.1367 69.2051 11.1367C68.599 11.1367 68.0589 11.0273 67.585 10.8086C67.111 10.5898 66.7419 10.2891 66.4775 9.90625C66.2132 9.52344 66.0811 9.111 66.0811 8.66895H67.6943C67.7171 9.06087 67.8652 9.36393 68.1387 9.57812C68.4121 9.78776 68.7744 9.89258 69.2256 9.89258C69.6631 9.89258 69.9958 9.81055 70.2236 9.64648C70.4515 9.47786 70.5654 9.25911 70.5654 8.99023ZM79.0479 8.99023C79.0479 8.69401 78.9248 8.46842 78.6787 8.31348C78.4372 8.15853 78.0339 8.02181 77.4688 7.90332C76.9036 7.78483 76.432 7.63444 76.0537 7.45215C75.2243 7.05111 74.8096 6.47005 74.8096 5.70898C74.8096 5.07096 75.0785 4.53776 75.6162 4.10938C76.154 3.68099 76.8376 3.4668 77.667 3.4668C78.5511 3.4668 79.2643 3.68555 79.8066 4.12305C80.3535 4.56055 80.627 5.12793 80.627 5.8252H78.9658C78.9658 5.50618 78.8473 5.24186 78.6104 5.03223C78.3734 4.81803 78.0589 4.71094 77.667 4.71094C77.3024 4.71094 77.0039 4.79525 76.7715 4.96387C76.5436 5.13249 76.4297 5.35807 76.4297 5.64062C76.4297 5.89583 76.5368 6.09408 76.751 6.23535C76.9652 6.37663 77.3981 6.52018 78.0498 6.66602C78.7015 6.80729 79.2119 6.97819 79.5811 7.17871C79.9548 7.37467 80.2305 7.61165 80.4082 7.88965C80.5905 8.16764 80.6816 8.50488 80.6816 8.90137C80.6816 9.56673 80.4059 10.1068 79.8545 10.5215C79.3031 10.9316 78.5807 11.1367 77.6875 11.1367C77.0814 11.1367 76.5413 11.0273 76.0674 10.8086C75.5934 10.5898 75.2243 10.2891 74.96 9.90625C74.6956 9.52344 74.5635 9.111 74.5635 8.66895H76.1768C76.1995 9.06087 76.3477 9.36393 76.6211 9.57812C76.8945 9.78776 77.2568 9.89258 77.708 9.89258C78.1455 9.89258 78.4782 9.81055 78.7061 9.64648C78.9339 9.47786 79.0479 9.25911 79.0479 8.99023ZM85.1514 11H83.4902V3.60352H85.1514V11ZM83.3877 1.68262C83.3877 1.42741 83.4674 1.21549 83.627 1.04688C83.791 0.878255 84.0234 0.793945 84.3242 0.793945C84.625 0.793945 84.8574 0.878255 85.0215 1.04688C85.1855 1.21549 85.2676 1.42741 85.2676 1.68262C85.2676 1.93327 85.1855 2.1429 85.0215 2.31152C84.8574 2.47559 84.625 2.55762 84.3242 2.55762C84.0234 2.55762 83.791 2.47559 83.627 2.31152C83.4674 2.1429 83.3877 1.93327 83.3877 1.68262ZM92.3623 8.99023C92.3623 8.69401 92.2393 8.46842 91.9932 8.31348C91.7516 8.15853 91.3483 8.02181 90.7832 7.90332C90.2181 7.78483 89.7464 7.63444 89.3682 7.45215C88.5387 7.05111 88.124 6.47005 88.124 5.70898C88.124 5.07096 88.3929 4.53776 88.9307 4.10938C89.4684 3.68099 90.152 3.4668 90.9814 3.4668C91.8656 3.4668 92.5788 3.68555 93.1211 4.12305C93.668 4.56055 93.9414 5.12793 93.9414 5.8252H92.2803C92.2803 5.50618 92.1618 5.24186 91.9248 5.03223C91.6878 4.81803 91.3734 4.71094 90.9814 4.71094C90.6169 4.71094 90.3184 4.79525 90.0859 4.96387C89.8581 5.13249 89.7441 5.35807 89.7441 5.64062C89.7441 5.89583 89.8512 6.09408 90.0654 6.23535C90.2796 6.37663 90.7126 6.52018 91.3643 6.66602C92.016 6.80729 92.5264 6.97819 92.8955 7.17871C93.2692 7.37467 93.5449 7.61165 93.7227 7.88965C93.9049 8.16764 93.9961 8.50488 93.9961 8.90137C93.9961 9.56673 93.7204 10.1068 93.1689 10.5215C92.6175 10.9316 91.8952 11.1367 91.002 11.1367C90.3958 11.1367 89.8558 11.0273 89.3818 10.8086C88.9079 10.5898 88.5387 10.2891 88.2744 9.90625C88.0101 9.52344 87.8779 9.111 87.8779 8.66895H89.4912C89.514 9.06087 89.6621 9.36393 89.9355 9.57812C90.209 9.78776 90.5713 9.89258 91.0225 9.89258C91.46 9.89258 91.7926 9.81055 92.0205 9.64648C92.2484 9.47786 92.3623 9.25911 92.3623 8.99023ZM98.7803 1.80566V3.60352H100.086V4.83398H98.7803V8.96289C98.7803 9.24544 98.835 9.45052 98.9443 9.57812C99.0583 9.70117 99.2588 9.7627 99.5459 9.7627C99.7373 9.7627 99.931 9.73991 100.127 9.69434V10.9795C99.7487 11.0843 99.3841 11.1367 99.0332 11.1367C97.7572 11.1367 97.1191 10.4326 97.1191 9.02441V4.83398H95.9023V3.60352H97.1191V1.80566H98.7803ZM107.03 11C106.957 10.8587 106.894 10.6286 106.839 10.3096C106.31 10.861 105.663 11.1367 104.897 11.1367C104.155 11.1367 103.549 10.9248 103.079 10.501C102.61 10.0771 102.375 9.55306 102.375 8.92871C102.375 8.1403 102.667 7.53646 103.25 7.11719C103.838 6.69336 104.676 6.48145 105.766 6.48145H106.784V5.99609C106.784 5.61328 106.677 5.30794 106.463 5.08008C106.249 4.84766 105.923 4.73145 105.485 4.73145C105.107 4.73145 104.797 4.82715 104.556 5.01855C104.314 5.2054 104.193 5.44466 104.193 5.73633H102.532C102.532 5.33073 102.667 4.95247 102.936 4.60156C103.204 4.24609 103.569 3.9681 104.029 3.76758C104.494 3.56706 105.011 3.4668 105.581 3.4668C106.447 3.4668 107.137 3.68555 107.652 4.12305C108.167 4.55599 108.432 5.16667 108.445 5.95508V9.29102C108.445 9.95638 108.539 10.4873 108.726 10.8838V11H107.03ZM105.205 9.80371C105.533 9.80371 105.841 9.72396 106.128 9.56445C106.42 9.40495 106.638 9.19076 106.784 8.92188V7.52734H105.889C105.273 7.52734 104.811 7.63444 104.501 7.84863C104.191 8.06283 104.036 8.36589 104.036 8.75781C104.036 9.07682 104.141 9.33203 104.351 9.52344C104.565 9.71029 104.85 9.80371 105.205 9.80371ZM112.977 3.60352L113.024 4.45801C113.571 3.7972 114.289 3.4668 115.178 3.4668C116.718 3.4668 117.502 4.34863 117.529 6.1123V11H115.868V6.20801C115.868 5.73861 115.766 5.39225 115.561 5.16895C115.36 4.94108 115.03 4.82715 114.569 4.82715C113.899 4.82715 113.4 5.13021 113.072 5.73633V11H111.411V3.60352H112.977ZM122.56 1.80566V3.60352H123.865V4.83398H122.56V8.96289C122.56 9.24544 122.614 9.45052 122.724 9.57812C122.838 9.70117 123.038 9.7627 123.325 9.7627C123.517 9.7627 123.71 9.73991 123.906 9.69434V10.9795C123.528 11.0843 123.163 11.1367 122.812 11.1367C121.536 11.1367 120.898 10.4326 120.898 9.02441V4.83398H119.682V3.60352H120.898V1.80566H122.56ZM131.287 11V1.04688H134.227C135.106 1.04688 135.885 1.24284 136.564 1.63477C137.248 2.02669 137.777 2.58268 138.15 3.30273C138.524 4.02279 138.711 4.84766 138.711 5.77734V6.27637C138.711 7.21973 138.522 8.04915 138.144 8.76465C137.77 9.48014 137.234 10.0316 136.537 10.4189C135.844 10.8063 135.049 11 134.151 11H131.287ZM133.017 2.44141V9.61914H134.145C135.051 9.61914 135.746 9.33659 136.229 8.77148C136.717 8.20182 136.965 7.38607 136.975 6.32422V5.77051C136.975 4.69043 136.74 3.86556 136.271 3.2959C135.801 2.72624 135.12 2.44141 134.227 2.44141H133.017ZM144.78 11.1367C143.728 11.1367 142.873 10.8063 142.217 10.1455C141.565 9.48014 141.239 8.59603 141.239 7.49316V7.28809C141.239 6.5498 141.381 5.89128 141.663 5.3125C141.95 4.72917 142.351 4.27572 142.866 3.95215C143.381 3.62858 143.955 3.4668 144.589 3.4668C145.596 3.4668 146.373 3.78809 146.92 4.43066C147.471 5.07324 147.747 5.98242 147.747 7.1582V7.82812H142.914C142.964 8.4388 143.167 8.92188 143.522 9.27734C143.882 9.63281 144.334 9.81055 144.876 9.81055C145.637 9.81055 146.257 9.50293 146.735 8.8877L147.631 9.74219C147.335 10.1842 146.938 10.5283 146.441 10.7744C145.949 11.016 145.396 11.1367 144.78 11.1367ZM144.582 4.7998C144.126 4.7998 143.757 4.95931 143.475 5.27832C143.197 5.59733 143.019 6.04167 142.941 6.61133H146.106V6.48828C146.07 5.93229 145.922 5.51302 145.662 5.23047C145.402 4.94336 145.042 4.7998 144.582 4.7998ZM154.438 8.99023C154.438 8.69401 154.315 8.46842 154.069 8.31348C153.828 8.15853 153.424 8.02181 152.859 7.90332C152.294 7.78483 151.823 7.63444 151.444 7.45215C150.615 7.05111 150.2 6.47005 150.2 5.70898C150.2 5.07096 150.469 4.53776 151.007 4.10938C151.545 3.68099 152.228 3.4668 153.058 3.4668C153.942 3.4668 154.655 3.68555 155.197 4.12305C155.744 4.56055 156.018 5.12793 156.018 5.8252H154.356C154.356 5.50618 154.238 5.24186 154.001 5.03223C153.764 4.81803 153.45 4.71094 153.058 4.71094C152.693 4.71094 152.395 4.79525 152.162 4.96387C151.934 5.13249 151.82 5.35807 151.82 5.64062C151.82 5.89583 151.927 6.09408 152.142 6.23535C152.356 6.37663 152.789 6.52018 153.44 6.66602C154.092 6.80729 154.603 6.97819 154.972 7.17871C155.345 7.37467 155.621 7.61165 155.799 7.88965C155.981 8.16764 156.072 8.50488 156.072 8.90137C156.072 9.56673 155.797 10.1068 155.245 10.5215C154.694 10.9316 153.971 11.1367 153.078 11.1367C152.472 11.1367 151.932 11.0273 151.458 10.8086C150.984 10.5898 150.615 10.2891 150.351 9.90625C150.086 9.52344 149.954 9.111 149.954 8.66895H151.567C151.59 9.06087 151.738 9.36393 152.012 9.57812C152.285 9.78776 152.647 9.89258 153.099 9.89258C153.536 9.89258 153.869 9.81055 154.097 9.64648C154.325 9.47786 154.438 9.25911 154.438 8.99023ZM161.178 7.82812L160.439 8.58691V11H158.778V0.5H160.439V6.55664L160.959 5.90723L163.003 3.60352H164.999L162.251 6.68652L165.293 11H163.372L161.178 7.82812Z" fill="#2C7973"/>
</svg>
