<svg width="20" height="20" viewBox="0 0 20 20" fill="none" xmlns="http://www.w3.org/2000/svg">
<path d="M5.0113 18.3684H1.51953V19.0017H5.0113V18.3684Z" fill="#00D654"/>
<path d="M18.026 18.3684H14.5342V19.0017H18.026V18.3684Z" fill="#00D654"/>
<path d="M18.1517 13.46L17.0869 3.9204L19.2032 1.80929C19.3288 1.68394 19.3288 1.48602 19.2032 1.36068L17.9334 0.0940104C17.8078 -0.0313368 17.6094 -0.0313368 17.4837 0.0940104L13.6745 3.89401C13.615 3.95339 13.5819 4.03255 13.5819 4.11832H6.5984C6.41985 4.11832 6.28097 4.25686 6.28097 4.43498V5.38498C6.28097 5.56311 6.41985 5.70165 6.5984 5.70165H14.8914L15.9098 13.5457L13.5357 13.9416C13.3835 13.968 13.2711 14.0999 13.2711 14.2516V14.5815L0.877989 15.2016C0.706046 15.2082 0.573781 15.3468 0.573781 15.5183V16.1516C0.395225 16.1516 0.256348 16.2902 0.256348 16.4683V17.735C0.256348 17.9131 0.395225 18.0516 0.573781 18.0516H18.9783C19.1569 18.0516 19.2957 17.9131 19.2957 17.735V15.2016C19.2957 14.443 18.846 13.7635 18.1517 13.46ZM8.18557 5.06832H6.91584V4.75165H8.18557V5.06832ZM8.82044 5.06832V4.75165H14.0845L14.402 5.06832H8.82044ZM14.4417 4.21068L14.3491 4.11832L17.7086 0.766927L18.5286 1.58498L16.5314 3.57734L15.1691 4.93637L14.4417 4.21068ZM15.5064 5.49714L16.5182 4.48776L17.497 13.3017C17.4639 13.3017 17.4308 13.2951 17.3911 13.2951C17.3713 13.2951 17.3581 13.2951 17.3382 13.3017L16.5314 13.4336L15.5064 5.49714ZM1.20204 15.8218L13.2645 15.2214V16.1582H1.20204V15.8218ZM18.6609 17.4183H0.884601V16.785H18.6609V17.4183ZM18.6609 16.1516H13.8994V14.5221L17.4176 13.935C18.112 13.9482 18.6609 14.5089 18.6609 15.2016V16.1516Z" fill="#00D654"/>
<path d="M14.9453 1.36012L13.6733 2.62897L14.1223 3.0768L15.3942 1.80795L14.9453 1.36012Z" fill="#00D654"/>
<path d="M2.31981 11.4347H2.33965C2.30658 11.6524 2.29997 11.8701 2.32642 12.0878L2.39917 12.642L0.792159 14.7201C0.686348 14.8521 0.712801 15.0434 0.845065 15.1489L1.57252 15.7097C1.69155 15.8021 1.8635 15.7955 1.97592 15.6833L3.48373 14.2187L4.13182 14.001C4.44265 13.8955 4.67411 13.6316 4.74024 13.3083L4.89896 12.4903L5.69915 12.2198L7.53101 12.576L8.15926 13.3677L7.92119 14.575C7.89473 14.7267 7.97409 14.8718 8.11958 14.9246L9.03882 15.2413C9.19754 15.2941 9.37609 15.2149 9.429 15.05L9.98451 13.4666C10.0639 13.2357 10.0506 12.9784 9.93821 12.7541L9.46206 11.8041C9.78611 11.5271 10.0176 11.1576 10.1234 10.7486L10.1631 10.6034L10.8112 9.43574L12.1073 9.40935C12.2661 9.40935 12.3983 9.284 12.4049 9.12567L12.4777 8.02393C12.4843 7.88539 12.3983 7.75345 12.2661 7.71386L11.5783 7.48956L10.95 6.69789C10.8839 6.61213 10.7781 6.57254 10.6723 6.58574L9.3827 6.75067C9.30335 6.76386 9.2306 6.80345 9.1777 6.86942L8.35105 7.93817C8.19233 8.14928 7.97409 8.30761 7.7294 8.40657L7.41197 8.53192C6.86308 8.74963 6.2745 8.85518 5.67931 8.84859C5.25607 8.84199 4.83944 8.92115 4.44926 9.07289C4.04585 9.23122 3.6689 9.46213 3.35147 9.7524C3.3184 9.73921 3.28534 9.73261 3.25227 9.73261L2.18093 9.71942C1.92302 9.71282 1.6651 9.65345 1.42703 9.54129L0.441659 9.0531C0.289556 8.98053 0.104386 9.03991 0.0316412 9.19164C0.00518845 9.24442 -0.00803755 9.30379 0.00518885 9.36977V9.38956C0.0845473 10.0097 0.408593 10.5705 0.904583 10.9531C1.3146 11.25 1.81059 11.4215 2.31981 11.4347ZM9.46868 7.50275L9.35625 7.90518C9.31657 8.06352 9.15124 8.15588 8.99253 8.11629L9.46868 7.50275ZM4.67411 9.63365C4.99154 9.50831 5.32881 9.44893 5.6727 9.44893C6.34725 9.45553 7.01518 9.33678 7.63682 9.09268L7.95425 8.96733C8.1791 8.87497 8.39073 8.74963 8.5759 8.5847C8.79413 8.72324 9.05866 8.76942 9.30996 8.69685C9.62078 8.61109 9.85886 8.36699 9.94483 8.05692L10.1631 7.25866L10.5797 7.20588L11.1617 7.93817C11.2013 7.98435 11.2476 8.01734 11.3071 8.03713L11.856 8.21525L11.8164 8.8024L10.626 8.8222C10.5136 8.8222 10.4144 8.88157 10.3615 8.98053L9.60755 10.333C9.59433 10.3528 9.58771 10.3791 9.5811 10.4055L9.53481 10.5903C9.44222 10.9465 9.22399 11.25 8.91317 11.4479C8.91317 11.4479 8.91317 11.4479 8.90656 11.4479C8.77429 11.5337 8.728 11.6986 8.80074 11.8437L9.38932 13.0246C9.429 13.0972 9.429 13.183 9.40255 13.2621L8.95285 14.5618L8.5759 14.4298L8.78752 13.3479C8.80736 13.2621 8.7809 13.1698 8.728 13.0972L7.94103 12.1076C7.89474 12.0482 7.8286 12.0087 7.75586 11.9955L5.73222 11.5996C5.67931 11.5864 5.62641 11.593 5.5735 11.6128L4.522 11.9691C4.41619 12.0021 4.33683 12.0944 4.31699 12.2L4.1186 13.1962C4.09876 13.3017 4.0194 13.3941 3.91359 13.4271L3.19936 13.6646C3.15307 13.6778 3.11339 13.7041 3.08033 13.7371L1.71801 15.0632L1.44025 14.8521L2.94145 12.9125C2.99435 12.8465 3.01419 12.7673 3.00097 12.6882L2.915 12.0087C2.8687 11.6788 2.93484 11.3357 3.09355 11.0455L3.11339 11.0125C3.47051 10.3791 4.0194 9.89754 4.67411 9.63365ZM1.1625 10.0823C1.47993 10.2406 1.82382 10.3198 2.18093 10.3264L2.83564 10.333C2.74967 10.4517 2.67031 10.5837 2.59756 10.709L2.57772 10.742C2.5645 10.7684 2.55127 10.7882 2.53804 10.8146H2.32642C1.69817 10.808 1.12282 10.4583 0.818612 9.91074L1.1625 10.0823Z" fill="#00D654"/>
<path d="M10.7401 8.0554C10.8315 7.93707 10.8095 7.76722 10.6909 7.67602C10.5722 7.58482 10.402 7.60681 10.3106 7.72514C10.2191 7.84347 10.2412 8.01332 10.3598 8.10452C10.4784 8.19572 10.6487 8.17373 10.7401 8.0554Z" fill="#00D654"/>
</svg>
