<svg width="77" height="12" viewBox="0 0 77 12" fill="none" xmlns="http://www.w3.org/2000/svg">
<path d="M8.81836 8.53906L10.3496 1.04688H12.0654L9.76855 11H8.11426L6.2207 3.7334L4.28613 11H2.625L0.328125 1.04688H2.04395L3.58887 8.52539L5.48926 1.04688H6.93848L8.81836 8.53906ZM16.1865 11H14.5254V3.60352H16.1865V11ZM14.4229 1.68262C14.4229 1.42741 14.5026 1.21549 14.6621 1.04688C14.8262 0.878255 15.0586 0.793945 15.3594 0.793945C15.6602 0.793945 15.8926 0.878255 16.0566 1.04688C16.2207 1.21549 16.3027 1.42741 16.3027 1.68262C16.3027 1.93327 16.2207 2.1429 16.0566 2.31152C15.8926 2.47559 15.6602 2.55762 15.3594 2.55762C15.0586 2.55762 14.8262 2.47559 14.6621 2.31152C14.5026 2.1429 14.4229 1.93327 14.4229 1.68262ZM20.793 3.60352L20.8408 4.45801C21.3877 3.7972 22.1055 3.4668 22.9941 3.4668C24.5345 3.4668 25.3184 4.34863 25.3457 6.1123V11H23.6846V6.20801C23.6846 5.73861 23.582 5.39225 23.377 5.16895C23.1764 4.94108 22.846 4.82715 22.3857 4.82715C21.7158 4.82715 21.2168 5.13021 20.8887 5.73633V11H19.2275V3.60352H20.793ZM34.9209 7.30176V11H33.1914V1.04688H36.999C38.111 1.04688 38.9928 1.33626 39.6445 1.91504C40.3008 2.49382 40.6289 3.25944 40.6289 4.21191C40.6289 5.18717 40.3076 5.94596 39.665 6.48828C39.027 7.0306 38.1315 7.30176 36.9785 7.30176H34.9209ZM34.9209 5.91406H36.999C37.6143 5.91406 38.0837 5.77051 38.4072 5.4834C38.7308 5.19173 38.8926 4.77246 38.8926 4.22559C38.8926 3.68783 38.7285 3.25944 38.4004 2.94043C38.0723 2.61686 37.6211 2.45052 37.0469 2.44141H34.9209V5.91406ZM47.1084 5.12109C46.8896 5.08464 46.6641 5.06641 46.4316 5.06641C45.6706 5.06641 45.1579 5.35807 44.8936 5.94141V11H43.2324V3.60352H44.8184L44.8594 4.43066C45.2604 3.78809 45.8164 3.4668 46.5273 3.4668C46.7643 3.4668 46.9603 3.4987 47.1152 3.5625L47.1084 5.12109ZM51.1748 11H49.5137V3.60352H51.1748V11ZM49.4111 1.68262C49.4111 1.42741 49.4909 1.21549 49.6504 1.04688C49.8145 0.878255 50.0469 0.793945 50.3477 0.793945C50.6484 0.793945 50.8809 0.878255 51.0449 1.04688C51.209 1.21549 51.291 1.42741 51.291 1.68262C51.291 1.93327 51.209 2.1429 51.0449 2.31152C50.8809 2.47559 50.6484 2.55762 50.3477 2.55762C50.0469 2.55762 49.8145 2.47559 49.6504 2.31152C49.4909 2.1429 49.4111 1.93327 49.4111 1.68262ZM56.0137 9.67383H59.9512V11H53.9492V9.91309L57.7021 4.94336H54.0176V3.60352H59.8076V4.65625L56.0137 9.67383ZM65.6787 11.1367C64.626 11.1367 63.7715 10.8063 63.1152 10.1455C62.4635 9.48014 62.1377 8.59603 62.1377 7.49316V7.28809C62.1377 6.5498 62.279 5.89128 62.5615 5.3125C62.8486 4.72917 63.2497 4.27572 63.7646 3.95215C64.2796 3.62858 64.8538 3.4668 65.4873 3.4668C66.4945 3.4668 67.2715 3.78809 67.8184 4.43066C68.3698 5.07324 68.6455 5.98242 68.6455 7.1582V7.82812H63.8125C63.8626 8.4388 64.0654 8.92188 64.4209 9.27734C64.7809 9.63281 65.2321 9.81055 65.7744 9.81055C66.5355 9.81055 67.1553 9.50293 67.6338 8.8877L68.5293 9.74219C68.2331 10.1842 67.8366 10.5283 67.3398 10.7744C66.8477 11.016 66.2939 11.1367 65.6787 11.1367ZM65.4805 4.7998C65.0247 4.7998 64.6556 4.95931 64.373 5.27832C64.0951 5.59733 63.9173 6.04167 63.8398 6.61133H67.0049V6.48828C66.9684 5.93229 66.8203 5.51302 66.5605 5.23047C66.3008 4.94336 65.9408 4.7998 65.4805 4.7998ZM75.3369 8.99023C75.3369 8.69401 75.2139 8.46842 74.9678 8.31348C74.7262 8.15853 74.3229 8.02181 73.7578 7.90332C73.1927 7.78483 72.721 7.63444 72.3428 7.45215C71.5133 7.05111 71.0986 6.47005 71.0986 5.70898C71.0986 5.07096 71.3675 4.53776 71.9053 4.10938C72.443 3.68099 73.1266 3.4668 73.9561 3.4668C74.8402 3.4668 75.5534 3.68555 76.0957 4.12305C76.6426 4.56055 76.916 5.12793 76.916 5.8252H75.2549C75.2549 5.50618 75.1364 5.24186 74.8994 5.03223C74.6624 4.81803 74.348 4.71094 73.9561 4.71094C73.5915 4.71094 73.293 4.79525 73.0605 4.96387C72.8327 5.13249 72.7188 5.35807 72.7188 5.64062C72.7188 5.89583 72.8258 6.09408 73.04 6.23535C73.2542 6.37663 73.6872 6.52018 74.3389 6.66602C74.9906 6.80729 75.501 6.97819 75.8701 7.17871C76.2438 7.37467 76.5195 7.61165 76.6973 7.88965C76.8796 8.16764 76.9707 8.50488 76.9707 8.90137C76.9707 9.56673 76.695 10.1068 76.1436 10.5215C75.5921 10.9316 74.8698 11.1367 73.9766 11.1367C73.3704 11.1367 72.8304 11.0273 72.3564 10.8086C71.8825 10.5898 71.5133 10.2891 71.249 9.90625C70.9847 9.52344 70.8525 9.111 70.8525 8.66895H72.4658C72.4886 9.06087 72.6367 9.36393 72.9102 9.57812C73.1836 9.78776 73.5459 9.89258 73.9971 9.89258C74.4346 9.89258 74.7673 9.81055 74.9951 9.64648C75.223 9.47786 75.3369 9.25911 75.3369 8.99023Z" fill="#2C7973"/>
</svg>
