<svg width="161" height="14" viewBox="0 0 161 14" fill="none" xmlns="http://www.w3.org/2000/svg">
<path d="M6.58301 8.68262H2.72754L1.9209 11H0.123047L3.88281 1.04688H5.43457L9.20117 11H7.39648L6.58301 8.68262ZM3.21289 7.28809H6.09766L4.65527 3.15918L3.21289 7.28809ZM11.1143 7.24707C11.1143 6.10775 11.3786 5.19401 11.9072 4.50586C12.4359 3.81315 13.1445 3.4668 14.0332 3.4668C14.8171 3.4668 15.4505 3.74023 15.9336 4.28711V0.5H17.5947V11H16.0908L16.0088 10.2344C15.512 10.8359 14.849 11.1367 14.0195 11.1367C13.1536 11.1367 12.4518 10.7881 11.9141 10.0908C11.3809 9.39355 11.1143 8.44564 11.1143 7.24707ZM12.7754 7.39062C12.7754 8.14258 12.9189 8.73047 13.2061 9.1543C13.4977 9.57357 13.9102 9.7832 14.4434 9.7832C15.1224 9.7832 15.6191 9.48014 15.9336 8.87402V5.71582C15.6283 5.12337 15.1361 4.82715 14.457 4.82715C13.9193 4.82715 13.5046 5.04134 13.2129 5.46973C12.9212 5.89355 12.7754 6.53385 12.7754 7.39062ZM20.2666 7.2334C20.2666 6.50879 20.4102 5.8571 20.6973 5.27832C20.9844 4.69499 21.3877 4.24837 21.9072 3.93848C22.4268 3.62402 23.0238 3.4668 23.6982 3.4668C24.6963 3.4668 25.5052 3.78809 26.125 4.43066C26.7493 5.07324 27.0866 5.92546 27.1367 6.9873L27.1436 7.37695C27.1436 8.10612 27.0023 8.75781 26.7197 9.33203C26.4417 9.90625 26.0407 10.3506 25.5166 10.665C24.9971 10.9795 24.3955 11.1367 23.7119 11.1367C22.6683 11.1367 21.832 10.7904 21.2031 10.0977C20.5788 9.40039 20.2666 8.47298 20.2666 7.31543V7.2334ZM21.9277 7.37695C21.9277 8.13802 22.085 8.73503 22.3994 9.16797C22.7139 9.59635 23.1514 9.81055 23.7119 9.81055C24.2725 9.81055 24.7077 9.5918 25.0176 9.1543C25.332 8.7168 25.4893 8.0765 25.4893 7.2334C25.4893 6.486 25.3275 5.89355 25.0039 5.45605C24.6849 5.01855 24.2497 4.7998 23.6982 4.7998C23.1559 4.7998 22.7253 5.01628 22.4062 5.44922C22.0872 5.8776 21.9277 6.52018 21.9277 7.37695ZM36.2754 7.37695C36.2754 8.52083 36.0156 9.43457 35.4961 10.1182C34.9766 10.7972 34.2793 11.1367 33.4043 11.1367C32.5931 11.1367 31.9437 10.8701 31.4561 10.3369V13.8438H29.7949V3.60352H31.3262L31.3945 4.35547C31.8822 3.76302 32.5452 3.4668 33.3838 3.4668C34.2861 3.4668 34.9925 3.80404 35.5029 4.47852C36.0179 5.14844 36.2754 6.0804 36.2754 7.27441V7.37695ZM34.6211 7.2334C34.6211 6.49512 34.473 5.90951 34.1768 5.47656C33.8851 5.04362 33.4658 4.82715 32.9189 4.82715C32.2399 4.82715 31.7523 5.10742 31.4561 5.66797V8.94922C31.7568 9.52344 32.249 9.81055 32.9326 9.81055C33.4613 9.81055 33.8737 9.59863 34.1699 9.1748C34.4707 8.74642 34.6211 8.09928 34.6211 7.2334ZM41.0186 1.80566V3.60352H42.3242V4.83398H41.0186V8.96289C41.0186 9.24544 41.0732 9.45052 41.1826 9.57812C41.2965 9.70117 41.4971 9.7627 41.7842 9.7627C41.9756 9.7627 42.1693 9.73991 42.3652 9.69434V10.9795C41.987 11.0843 41.6224 11.1367 41.2715 11.1367C39.9954 11.1367 39.3574 10.4326 39.3574 9.02441V4.83398H38.1406V3.60352H39.3574V1.80566H41.0186ZM49.3223 8.31348C49.3223 7.85319 49.4476 7.43164 49.6982 7.04883C49.9489 6.66146 50.4434 6.20345 51.1816 5.6748C50.7943 5.18717 50.5231 4.77246 50.3682 4.43066C50.2178 4.08887 50.1426 3.75846 50.1426 3.43945C50.1426 2.66016 50.3796 2.04492 50.8535 1.59375C51.3275 1.13802 51.9655 0.910156 52.7676 0.910156C53.4922 0.910156 54.0846 1.12435 54.5449 1.55273C55.0098 1.97656 55.2422 2.50293 55.2422 3.13184C55.2422 3.54655 55.1374 3.92936 54.9277 4.28027C54.7181 4.62663 54.374 4.97298 53.8955 5.31934L53.2188 5.81152L55.1396 8.08105C55.4176 7.53418 55.5566 6.92578 55.5566 6.25586H56.999C56.999 7.48177 56.7119 8.48665 56.1377 9.27051L57.6006 11H55.6729L55.1123 10.3369C54.4014 10.8701 53.5537 11.1367 52.5693 11.1367C51.585 11.1367 50.7965 10.877 50.2041 10.3574C49.6162 9.83333 49.3223 9.15202 49.3223 8.31348ZM52.6172 9.81055C53.1777 9.81055 53.7018 9.6237 54.1895 9.25L52.0156 6.68652L51.8037 6.83691C51.2568 7.25163 50.9834 7.72559 50.9834 8.25879C50.9834 8.71908 51.1315 9.09277 51.4277 9.37988C51.724 9.66699 52.1204 9.81055 52.6172 9.81055ZM51.7012 3.39844C51.7012 3.78125 51.9359 4.26204 52.4053 4.84082L53.1641 4.32129L53.376 4.15039C53.6585 3.89974 53.7998 3.57845 53.7998 3.18652C53.7998 2.92676 53.7018 2.70573 53.5059 2.52344C53.3099 2.33659 53.0615 2.24316 52.7607 2.24316C52.4372 2.24316 52.1797 2.35254 51.9883 2.57129C51.7969 2.79004 51.7012 3.06576 51.7012 3.39844ZM68.3447 7.16504H66.417V11H64.6875V1.04688H68.1875C69.3359 1.04688 70.2223 1.30436 70.8467 1.81934C71.471 2.33431 71.7832 3.07943 71.7832 4.05469C71.7832 4.72005 71.6214 5.27832 71.2979 5.72949C70.9788 6.17611 70.5322 6.52018 69.958 6.76172L72.1934 10.9111V11H70.3408L68.3447 7.16504ZM66.417 5.77734H68.1943C68.7777 5.77734 69.2334 5.63151 69.5615 5.33984C69.8896 5.04362 70.0537 4.6403 70.0537 4.12988C70.0537 3.59668 69.901 3.18424 69.5957 2.89258C69.2949 2.60091 68.8438 2.45052 68.2422 2.44141H66.417V5.77734ZM77.7705 11.1367C76.7178 11.1367 75.8633 10.8063 75.207 10.1455C74.5553 9.48014 74.2295 8.59603 74.2295 7.49316V7.28809C74.2295 6.5498 74.3708 5.89128 74.6533 5.3125C74.9404 4.72917 75.3415 4.27572 75.8564 3.95215C76.3714 3.62858 76.9456 3.4668 77.5791 3.4668C78.5863 3.4668 79.3633 3.78809 79.9102 4.43066C80.4616 5.07324 80.7373 5.98242 80.7373 7.1582V7.82812H75.9043C75.9544 8.4388 76.1572 8.92188 76.5127 9.27734C76.8727 9.63281 77.3239 9.81055 77.8662 9.81055C78.6273 9.81055 79.2471 9.50293 79.7256 8.8877L80.6211 9.74219C80.3249 10.1842 79.9284 10.5283 79.4316 10.7744C78.9395 11.016 78.3857 11.1367 77.7705 11.1367ZM77.5723 4.7998C77.1165 4.7998 76.7474 4.95931 76.4648 5.27832C76.1868 5.59733 76.0091 6.04167 75.9316 6.61133H79.0967V6.48828C79.0602 5.93229 78.9121 5.51302 78.6523 5.23047C78.3926 4.94336 78.0326 4.7998 77.5723 4.7998ZM87.4287 8.99023C87.4287 8.69401 87.3057 8.46842 87.0596 8.31348C86.818 8.15853 86.4147 8.02181 85.8496 7.90332C85.2845 7.78483 84.8128 7.63444 84.4346 7.45215C83.6051 7.05111 83.1904 6.47005 83.1904 5.70898C83.1904 5.07096 83.4593 4.53776 83.9971 4.10938C84.5348 3.68099 85.2184 3.4668 86.0479 3.4668C86.932 3.4668 87.6452 3.68555 88.1875 4.12305C88.7344 4.56055 89.0078 5.12793 89.0078 5.8252H87.3467C87.3467 5.50618 87.2282 5.24186 86.9912 5.03223C86.7542 4.81803 86.4398 4.71094 86.0479 4.71094C85.6833 4.71094 85.3848 4.79525 85.1523 4.96387C84.9245 5.13249 84.8105 5.35807 84.8105 5.64062C84.8105 5.89583 84.9176 6.09408 85.1318 6.23535C85.346 6.37663 85.779 6.52018 86.4307 6.66602C87.0824 6.80729 87.5928 6.97819 87.9619 7.17871C88.3356 7.37467 88.6113 7.61165 88.7891 7.88965C88.9714 8.16764 89.0625 8.50488 89.0625 8.90137C89.0625 9.56673 88.7868 10.1068 88.2354 10.5215C87.6839 10.9316 86.9616 11.1367 86.0684 11.1367C85.4622 11.1367 84.9222 11.0273 84.4482 10.8086C83.9743 10.5898 83.6051 10.2891 83.3408 9.90625C83.0765 9.52344 82.9443 9.111 82.9443 8.66895H84.5576C84.5804 9.06087 84.7285 9.36393 85.002 9.57812C85.2754 9.78776 85.6377 9.89258 86.0889 9.89258C86.5264 9.89258 86.859 9.81055 87.0869 9.64648C87.3148 9.47786 87.4287 9.25911 87.4287 8.99023ZM94.8037 9.81055C95.2184 9.81055 95.5625 9.68978 95.8359 9.44824C96.1094 9.20671 96.2552 8.9082 96.2734 8.55273H97.8389C97.8206 9.01302 97.6771 9.44368 97.4082 9.84473C97.1393 10.2412 96.7747 10.5557 96.3145 10.7881C95.8542 11.0205 95.3574 11.1367 94.8242 11.1367C93.7897 11.1367 92.9694 10.8018 92.3633 10.1318C91.7572 9.46191 91.4541 8.53678 91.4541 7.35645V7.18555C91.4541 6.0599 91.7549 5.15983 92.3564 4.48535C92.958 3.80632 93.7783 3.4668 94.8174 3.4668C95.6969 3.4668 96.4124 3.72428 96.9639 4.23926C97.5199 4.74967 97.8115 5.42188 97.8389 6.25586H96.2734C96.2552 5.83203 96.1094 5.4834 95.8359 5.20996C95.5671 4.93652 95.223 4.7998 94.8037 4.7998C94.266 4.7998 93.8512 4.99577 93.5596 5.3877C93.2679 5.77507 93.1198 6.36523 93.1152 7.1582V7.4248C93.1152 8.22689 93.2588 8.82617 93.5459 9.22266C93.8376 9.61458 94.2568 9.81055 94.8037 9.81055ZM104.824 10.2754C104.337 10.8496 103.644 11.1367 102.746 11.1367C101.944 11.1367 101.336 10.902 100.921 10.4326C100.511 9.96322 100.306 9.28418 100.306 8.39551V3.60352H101.967V8.375C101.967 9.3138 102.356 9.7832 103.136 9.7832C103.942 9.7832 104.487 9.49382 104.77 8.91504V3.60352H106.431V11H104.865L104.824 10.2754ZM112.63 11.1367C111.577 11.1367 110.723 10.8063 110.066 10.1455C109.415 9.48014 109.089 8.59603 109.089 7.49316V7.28809C109.089 6.5498 109.23 5.89128 109.513 5.3125C109.8 4.72917 110.201 4.27572 110.716 3.95215C111.231 3.62858 111.805 3.4668 112.438 3.4668C113.446 3.4668 114.223 3.78809 114.77 4.43066C115.321 5.07324 115.597 5.98242 115.597 7.1582V7.82812H110.764C110.814 8.4388 111.017 8.92188 111.372 9.27734C111.732 9.63281 112.183 9.81055 112.726 9.81055C113.487 9.81055 114.106 9.50293 114.585 8.8877L115.48 9.74219C115.184 10.1842 114.788 10.5283 114.291 10.7744C113.799 11.016 113.245 11.1367 112.63 11.1367ZM112.432 4.7998C111.976 4.7998 111.607 4.95931 111.324 5.27832C111.046 5.59733 110.868 6.04167 110.791 6.61133H113.956V6.48828C113.92 5.93229 113.771 5.51302 113.512 5.23047C113.252 4.94336 112.892 4.7998 112.432 4.7998ZM128.61 8.68262H124.755L123.948 11H122.15L125.91 1.04688H127.462L131.229 11H129.424L128.61 8.68262ZM125.24 7.28809H128.125L126.683 3.15918L125.24 7.28809ZM140.079 7.30176V11H138.35V1.04688H142.157C143.269 1.04688 144.151 1.33626 144.803 1.91504C145.459 2.49382 145.787 3.25944 145.787 4.21191C145.787 5.18717 145.466 5.94596 144.823 6.48828C144.185 7.0306 143.29 7.30176 142.137 7.30176H140.079ZM140.079 5.91406H142.157C142.772 5.91406 143.242 5.77051 143.565 5.4834C143.889 5.19173 144.051 4.77246 144.051 4.22559C144.051 3.68783 143.887 3.25944 143.559 2.94043C143.23 2.61686 142.779 2.45052 142.205 2.44141H140.079V5.91406ZM151.556 11.1367C150.503 11.1367 149.648 10.8063 148.992 10.1455C148.34 9.48014 148.015 8.59603 148.015 7.49316V7.28809C148.015 6.5498 148.156 5.89128 148.438 5.3125C148.726 4.72917 149.127 4.27572 149.642 3.95215C150.157 3.62858 150.731 3.4668 151.364 3.4668C152.371 3.4668 153.148 3.78809 153.695 4.43066C154.247 5.07324 154.522 5.98242 154.522 7.1582V7.82812H149.689C149.74 8.4388 149.942 8.92188 150.298 9.27734C150.658 9.63281 151.109 9.81055 151.651 9.81055C152.412 9.81055 153.032 9.50293 153.511 8.8877L154.406 9.74219C154.11 10.1842 153.714 10.5283 153.217 10.7744C152.725 11.016 152.171 11.1367 151.556 11.1367ZM151.357 4.7998C150.902 4.7998 150.533 4.95931 150.25 5.27832C149.972 5.59733 149.794 6.04167 149.717 6.61133H152.882V6.48828C152.845 5.93229 152.697 5.51302 152.438 5.23047C152.178 4.94336 151.818 4.7998 151.357 4.7998ZM159.149 1.80566V3.60352H160.455V4.83398H159.149V8.96289C159.149 9.24544 159.204 9.45052 159.313 9.57812C159.427 9.70117 159.628 9.7627 159.915 9.7627C160.106 9.7627 160.3 9.73991 160.496 9.69434V10.9795C160.118 11.0843 159.753 11.1367 159.402 11.1367C158.126 11.1367 157.488 10.4326 157.488 9.02441V4.83398H156.271V3.60352H157.488V1.80566H159.149Z" fill="#2C7973"/>
</svg>
