<svg width="122" height="12" viewBox="0 0 122 12" fill="none" xmlns="http://www.w3.org/2000/svg">
<path d="M6.58301 8.68262H2.72754L1.9209 11H0.123047L3.88281 1.04688H5.43457L9.20117 11H7.39648L6.58301 8.68262ZM3.21289 7.28809H6.09766L4.65527 3.15918L3.21289 7.28809ZM12.6387 3.60352L12.6865 4.45801C13.2334 3.7972 13.9512 3.4668 14.8398 3.4668C16.3802 3.4668 17.1641 4.34863 17.1914 6.1123V11H15.5303V6.20801C15.5303 5.73861 15.4277 5.39225 15.2227 5.16895C15.0221 4.94108 14.6917 4.82715 14.2314 4.82715C13.5615 4.82715 13.0625 5.13021 12.7344 5.73633V11H11.0732V3.60352H12.6387ZM21.9072 11H20.2461V3.60352H21.9072V11ZM20.1436 1.68262C20.1436 1.42741 20.2233 1.21549 20.3828 1.04688C20.5469 0.878255 20.7793 0.793945 21.0801 0.793945C21.3809 0.793945 21.6133 0.878255 21.7773 1.04688C21.9414 1.21549 22.0234 1.42741 22.0234 1.68262C22.0234 1.93327 21.9414 2.1429 21.7773 2.31152C21.6133 2.47559 21.3809 2.55762 21.0801 2.55762C20.7793 2.55762 20.5469 2.47559 20.3828 2.31152C20.2233 2.1429 20.1436 1.93327 20.1436 1.68262ZM26.5342 3.60352L26.582 4.37598C27.1016 3.76986 27.8125 3.4668 28.7148 3.4668C29.7038 3.4668 30.3805 3.84505 30.7451 4.60156C31.2829 3.84505 32.0394 3.4668 33.0146 3.4668C33.8304 3.4668 34.4365 3.69238 34.833 4.14355C35.234 4.59473 35.4391 5.26009 35.4482 6.13965V11H33.7871V6.1875C33.7871 5.7181 33.6846 5.37402 33.4795 5.15527C33.2744 4.93652 32.9349 4.82715 32.4609 4.82715C32.0827 4.82715 31.7728 4.92969 31.5312 5.13477C31.2943 5.33529 31.1279 5.59961 31.0322 5.92773L31.0391 11H29.3779V6.13281C29.3551 5.26237 28.9108 4.82715 28.0449 4.82715C27.3796 4.82715 26.9079 5.09831 26.6299 5.64062V11H24.9688V3.60352H26.5342ZM42.8232 11C42.7503 10.8587 42.6865 10.6286 42.6318 10.3096C42.1032 10.861 41.4561 11.1367 40.6904 11.1367C39.9476 11.1367 39.3415 10.9248 38.8721 10.501C38.4027 10.0771 38.168 9.55306 38.168 8.92871C38.168 8.1403 38.4596 7.53646 39.043 7.11719C39.6309 6.69336 40.4694 6.48145 41.5586 6.48145H42.5771V5.99609C42.5771 5.61328 42.4701 5.30794 42.2559 5.08008C42.0417 4.84766 41.7158 4.73145 41.2783 4.73145C40.9001 4.73145 40.5902 4.82715 40.3486 5.01855C40.1071 5.2054 39.9863 5.44466 39.9863 5.73633H38.3252C38.3252 5.33073 38.4596 4.95247 38.7285 4.60156C38.9974 4.24609 39.362 3.9681 39.8223 3.76758C40.2871 3.56706 40.8044 3.4668 41.374 3.4668C42.2399 3.4668 42.9303 3.68555 43.4453 4.12305C43.9603 4.55599 44.2246 5.16667 44.2383 5.95508V9.29102C44.2383 9.95638 44.3317 10.4873 44.5186 10.8838V11H42.8232ZM40.998 9.80371C41.3262 9.80371 41.6338 9.72396 41.9209 9.56445C42.2126 9.40495 42.4313 9.19076 42.5771 8.92188V7.52734H41.6816C41.0664 7.52734 40.6038 7.63444 40.2939 7.84863C39.984 8.06283 39.8291 8.36589 39.8291 8.75781C39.8291 9.07682 39.9339 9.33203 40.1436 9.52344C40.3577 9.71029 40.6426 9.80371 40.998 9.80371ZM48.9951 11H47.334V0.5H48.9951V11ZM64.5518 7.75977C64.4515 8.82161 64.0596 9.65104 63.376 10.248C62.6924 10.8405 61.7832 11.1367 60.6484 11.1367C59.8555 11.1367 59.1559 10.9499 58.5498 10.5762C57.9482 10.1979 57.4834 9.66243 57.1553 8.96973C56.8271 8.27702 56.6562 7.47266 56.6426 6.55664V5.62695C56.6426 4.68815 56.8089 3.861 57.1416 3.14551C57.4743 2.43001 57.9505 1.87858 58.5703 1.49121C59.1947 1.10384 59.9147 0.910156 60.7305 0.910156C61.8288 0.910156 62.7129 1.20866 63.3828 1.80566C64.0527 2.40267 64.4424 3.24577 64.5518 4.33496H62.8291C62.7471 3.61947 62.5374 3.10449 62.2002 2.79004C61.8675 2.47103 61.3776 2.31152 60.7305 2.31152C59.9785 2.31152 59.3997 2.58724 58.9941 3.13867C58.5931 3.68555 58.388 4.48991 58.3789 5.55176V6.43359C58.3789 7.50911 58.5703 8.32943 58.9531 8.89453C59.3405 9.45964 59.9056 9.74219 60.6484 9.74219C61.3275 9.74219 61.8379 9.58952 62.1797 9.28418C62.5215 8.97884 62.738 8.4707 62.8291 7.75977H64.5518ZM68.8301 4.41016C69.3724 3.78125 70.0583 3.4668 70.8877 3.4668C72.4645 3.4668 73.2643 4.36686 73.2871 6.16699V11H71.626V6.22852C71.626 5.7181 71.5143 5.35807 71.291 5.14844C71.0723 4.93424 70.7487 4.82715 70.3203 4.82715C69.6549 4.82715 69.1582 5.12337 68.8301 5.71582V11H67.1689V0.5H68.8301V4.41016ZM80.6416 11C80.5687 10.8587 80.5049 10.6286 80.4502 10.3096C79.9215 10.861 79.2744 11.1367 78.5088 11.1367C77.766 11.1367 77.1598 10.9248 76.6904 10.501C76.221 10.0771 75.9863 9.55306 75.9863 8.92871C75.9863 8.1403 76.278 7.53646 76.8613 7.11719C77.4492 6.69336 78.2878 6.48145 79.377 6.48145H80.3955V5.99609C80.3955 5.61328 80.2884 5.30794 80.0742 5.08008C79.86 4.84766 79.5342 4.73145 79.0967 4.73145C78.7184 4.73145 78.4085 4.82715 78.167 5.01855C77.9255 5.2054 77.8047 5.44466 77.8047 5.73633H76.1436C76.1436 5.33073 76.278 4.95247 76.5469 4.60156C76.8158 4.24609 77.1803 3.9681 77.6406 3.76758C78.1055 3.56706 78.6227 3.4668 79.1924 3.4668C80.0583 3.4668 80.7487 3.68555 81.2637 4.12305C81.7786 4.55599 82.043 5.16667 82.0566 5.95508V9.29102C82.0566 9.95638 82.1501 10.4873 82.3369 10.8838V11H80.6416ZM78.8164 9.80371C79.1445 9.80371 79.4521 9.72396 79.7393 9.56445C80.0309 9.40495 80.2497 9.19076 80.3955 8.92188V7.52734H79.5C78.8848 7.52734 78.4222 7.63444 78.1123 7.84863C77.8024 8.06283 77.6475 8.36589 77.6475 8.75781C77.6475 9.07682 77.7523 9.33203 77.9619 9.52344C78.1761 9.71029 78.4609 9.80371 78.8164 9.80371ZM88.9189 5.12109C88.7002 5.08464 88.4746 5.06641 88.2422 5.06641C87.4811 5.06641 86.9684 5.35807 86.7041 5.94141V11H85.043V3.60352H86.6289L86.6699 4.43066C87.071 3.78809 87.627 3.4668 88.3379 3.4668C88.5749 3.4668 88.7708 3.4987 88.9258 3.5625L88.9189 5.12109ZM92.9854 11H91.3242V3.60352H92.9854V11ZM91.2217 1.68262C91.2217 1.42741 91.3014 1.21549 91.4609 1.04688C91.625 0.878255 91.8574 0.793945 92.1582 0.793945C92.459 0.793945 92.6914 0.878255 92.8555 1.04688C93.0195 1.21549 93.1016 1.42741 93.1016 1.68262C93.1016 1.93327 93.0195 2.1429 92.8555 2.31152C92.6914 2.47559 92.459 2.55762 92.1582 2.55762C91.8574 2.55762 91.625 2.47559 91.4609 2.31152C91.3014 2.1429 91.2217 1.93327 91.2217 1.68262ZM98.1318 1.80566V3.60352H99.4375V4.83398H98.1318V8.96289C98.1318 9.24544 98.1865 9.45052 98.2959 9.57812C98.4098 9.70117 98.6104 9.7627 98.8975 9.7627C99.0889 9.7627 99.2826 9.73991 99.4785 9.69434V10.9795C99.1003 11.0843 98.7357 11.1367 98.3848 11.1367C97.1087 11.1367 96.4707 10.4326 96.4707 9.02441V4.83398H95.2539V3.60352H96.4707V1.80566H98.1318ZM103.729 11H102.068V3.60352H103.729V11ZM101.966 1.68262C101.966 1.42741 102.046 1.21549 102.205 1.04688C102.369 0.878255 102.602 0.793945 102.902 0.793945C103.203 0.793945 103.436 0.878255 103.6 1.04688C103.764 1.21549 103.846 1.42741 103.846 1.68262C103.846 1.93327 103.764 2.1429 103.6 2.31152C103.436 2.47559 103.203 2.55762 102.902 2.55762C102.602 2.55762 102.369 2.47559 102.205 2.31152C102.046 2.1429 101.966 1.93327 101.966 1.68262ZM110.052 11.1367C108.999 11.1367 108.145 10.8063 107.488 10.1455C106.837 9.48014 106.511 8.59603 106.511 7.49316V7.28809C106.511 6.5498 106.652 5.89128 106.935 5.3125C107.222 4.72917 107.623 4.27572 108.138 3.95215C108.653 3.62858 109.227 3.4668 109.86 3.4668C110.868 3.4668 111.645 3.78809 112.191 4.43066C112.743 5.07324 113.019 5.98242 113.019 7.1582V7.82812H108.186C108.236 8.4388 108.438 8.92188 108.794 9.27734C109.154 9.63281 109.605 9.81055 110.147 9.81055C110.909 9.81055 111.528 9.50293 112.007 8.8877L112.902 9.74219C112.606 10.1842 112.21 10.5283 111.713 10.7744C111.221 11.016 110.667 11.1367 110.052 11.1367ZM109.854 4.7998C109.398 4.7998 109.029 4.95931 108.746 5.27832C108.468 5.59733 108.29 6.04167 108.213 6.61133H111.378V6.48828C111.341 5.93229 111.193 5.51302 110.934 5.23047C110.674 4.94336 110.314 4.7998 109.854 4.7998ZM119.71 8.99023C119.71 8.69401 119.587 8.46842 119.341 8.31348C119.099 8.15853 118.696 8.02181 118.131 7.90332C117.566 7.78483 117.094 7.63444 116.716 7.45215C115.886 7.05111 115.472 6.47005 115.472 5.70898C115.472 5.07096 115.741 4.53776 116.278 4.10938C116.816 3.68099 117.5 3.4668 118.329 3.4668C119.213 3.4668 119.926 3.68555 120.469 4.12305C121.016 4.56055 121.289 5.12793 121.289 5.8252H119.628C119.628 5.50618 119.509 5.24186 119.272 5.03223C119.035 4.81803 118.721 4.71094 118.329 4.71094C117.965 4.71094 117.666 4.79525 117.434 4.96387C117.206 5.13249 117.092 5.35807 117.092 5.64062C117.092 5.89583 117.199 6.09408 117.413 6.23535C117.627 6.37663 118.06 6.52018 118.712 6.66602C119.364 6.80729 119.874 6.97819 120.243 7.17871C120.617 7.37467 120.893 7.61165 121.07 7.88965C121.253 8.16764 121.344 8.50488 121.344 8.90137C121.344 9.56673 121.068 10.1068 120.517 10.5215C119.965 10.9316 119.243 11.1367 118.35 11.1367C117.743 11.1367 117.203 11.0273 116.729 10.8086C116.256 10.5898 115.886 10.2891 115.622 9.90625C115.358 9.52344 115.226 9.111 115.226 8.66895H116.839C116.862 9.06087 117.01 9.36393 117.283 9.57812C117.557 9.78776 117.919 9.89258 118.37 9.89258C118.808 9.89258 119.14 9.81055 119.368 9.64648C119.596 9.47786 119.71 9.25911 119.71 8.99023Z" fill="#2C7973"/>
</svg>
