<svg width="163" height="12" viewBox="0 0 163 12" fill="none" xmlns="http://www.w3.org/2000/svg">
<path d="M6.58301 8.68262H2.72754L1.9209 11H0.123047L3.88281 1.04688H5.43457L9.20117 11H7.39648L6.58301 8.68262ZM3.21289 7.28809H6.09766L4.65527 3.15918L3.21289 7.28809ZM15.8242 10.2754C15.3366 10.8496 14.6439 11.1367 13.7461 11.1367C12.944 11.1367 12.3356 10.902 11.9209 10.4326C11.5107 9.96322 11.3057 9.28418 11.3057 8.39551V3.60352H12.9668V8.375C12.9668 9.3138 13.3564 9.7832 14.1357 9.7832C14.9424 9.7832 15.487 9.49382 15.7695 8.91504V3.60352H17.4307V11H15.8652L15.8242 10.2754ZM24.5186 8.99023C24.5186 8.69401 24.3955 8.46842 24.1494 8.31348C23.9079 8.15853 23.5046 8.02181 22.9395 7.90332C22.3743 7.78483 21.9027 7.63444 21.5244 7.45215C20.695 7.05111 20.2803 6.47005 20.2803 5.70898C20.2803 5.07096 20.5492 4.53776 21.0869 4.10938C21.6247 3.68099 22.3083 3.4668 23.1377 3.4668C24.0218 3.4668 24.735 3.68555 25.2773 4.12305C25.8242 4.56055 26.0977 5.12793 26.0977 5.8252H24.4365C24.4365 5.50618 24.318 5.24186 24.0811 5.03223C23.8441 4.81803 23.5296 4.71094 23.1377 4.71094C22.7731 4.71094 22.4746 4.79525 22.2422 4.96387C22.0143 5.13249 21.9004 5.35807 21.9004 5.64062C21.9004 5.89583 22.0075 6.09408 22.2217 6.23535C22.4359 6.37663 22.8688 6.52018 23.5205 6.66602C24.1722 6.80729 24.6826 6.97819 25.0518 7.17871C25.4255 7.37467 25.7012 7.61165 25.8789 7.88965C26.0612 8.16764 26.1523 8.50488 26.1523 8.90137C26.1523 9.56673 25.8766 10.1068 25.3252 10.5215C24.7738 10.9316 24.0514 11.1367 23.1582 11.1367C22.5521 11.1367 22.012 11.0273 21.5381 10.8086C21.0641 10.5898 20.695 10.2891 20.4307 9.90625C20.1663 9.52344 20.0342 9.111 20.0342 8.66895H21.6475C21.6702 9.06087 21.8184 9.36393 22.0918 9.57812C22.3652 9.78776 22.7275 9.89258 23.1787 9.89258C23.6162 9.89258 23.9489 9.81055 24.1768 9.64648C24.4046 9.47786 24.5186 9.25911 24.5186 8.99023ZM33.001 8.99023C33.001 8.69401 32.8779 8.46842 32.6318 8.31348C32.3903 8.15853 31.987 8.02181 31.4219 7.90332C30.8568 7.78483 30.3851 7.63444 30.0068 7.45215C29.1774 7.05111 28.7627 6.47005 28.7627 5.70898C28.7627 5.07096 29.0316 4.53776 29.5693 4.10938C30.1071 3.68099 30.7907 3.4668 31.6201 3.4668C32.5042 3.4668 33.2174 3.68555 33.7598 4.12305C34.3066 4.56055 34.5801 5.12793 34.5801 5.8252H32.9189C32.9189 5.50618 32.8005 5.24186 32.5635 5.03223C32.3265 4.81803 32.012 4.71094 31.6201 4.71094C31.2555 4.71094 30.957 4.79525 30.7246 4.96387C30.4967 5.13249 30.3828 5.35807 30.3828 5.64062C30.3828 5.89583 30.4899 6.09408 30.7041 6.23535C30.9183 6.37663 31.3512 6.52018 32.0029 6.66602C32.6546 6.80729 33.165 6.97819 33.5342 7.17871C33.9079 7.37467 34.1836 7.61165 34.3613 7.88965C34.5436 8.16764 34.6348 8.50488 34.6348 8.90137C34.6348 9.56673 34.359 10.1068 33.8076 10.5215C33.2562 10.9316 32.5339 11.1367 31.6406 11.1367C31.0345 11.1367 30.4945 11.0273 30.0205 10.8086C29.5465 10.5898 29.1774 10.2891 28.9131 9.90625C28.6488 9.52344 28.5166 9.111 28.5166 8.66895H30.1299C30.1527 9.06087 30.3008 9.36393 30.5742 9.57812C30.8477 9.78776 31.21 9.89258 31.6611 9.89258C32.0986 9.89258 32.4313 9.81055 32.6592 9.64648C32.887 9.47786 33.001 9.25911 33.001 8.99023ZM39.1045 11H37.4434V3.60352H39.1045V11ZM37.3408 1.68262C37.3408 1.42741 37.4206 1.21549 37.5801 1.04688C37.7441 0.878255 37.9766 0.793945 38.2773 0.793945C38.5781 0.793945 38.8105 0.878255 38.9746 1.04688C39.1387 1.21549 39.2207 1.42741 39.2207 1.68262C39.2207 1.93327 39.1387 2.1429 38.9746 2.31152C38.8105 2.47559 38.5781 2.55762 38.2773 2.55762C37.9766 2.55762 37.7441 2.47559 37.5801 2.31152C37.4206 2.1429 37.3408 1.93327 37.3408 1.68262ZM45.4268 11.1367C44.374 11.1367 43.5195 10.8063 42.8633 10.1455C42.2116 9.48014 41.8857 8.59603 41.8857 7.49316V7.28809C41.8857 6.5498 42.027 5.89128 42.3096 5.3125C42.5967 4.72917 42.9977 4.27572 43.5127 3.95215C44.0277 3.62858 44.6019 3.4668 45.2354 3.4668C46.2425 3.4668 47.0195 3.78809 47.5664 4.43066C48.1178 5.07324 48.3936 5.98242 48.3936 7.1582V7.82812H43.5605C43.6107 8.4388 43.8135 8.92188 44.1689 9.27734C44.529 9.63281 44.9801 9.81055 45.5225 9.81055C46.2835 9.81055 46.9033 9.50293 47.3818 8.8877L48.2773 9.74219C47.9811 10.1842 47.5846 10.5283 47.0879 10.7744C46.5957 11.016 46.042 11.1367 45.4268 11.1367ZM45.2285 4.7998C44.7728 4.7998 44.4036 4.95931 44.1211 5.27832C43.8431 5.59733 43.6654 6.04167 43.5879 6.61133H46.7529V6.48828C46.7165 5.93229 46.5684 5.51302 46.3086 5.23047C46.0488 4.94336 45.6888 4.7998 45.2285 4.7998ZM57.5654 7.30176V11H55.8359V1.04688H59.6436C60.7555 1.04688 61.6374 1.33626 62.2891 1.91504C62.9453 2.49382 63.2734 3.25944 63.2734 4.21191C63.2734 5.18717 62.9521 5.94596 62.3096 6.48828C61.6715 7.0306 60.776 7.30176 59.623 7.30176H57.5654ZM57.5654 5.91406H59.6436C60.2588 5.91406 60.7282 5.77051 61.0518 5.4834C61.3753 5.19173 61.5371 4.77246 61.5371 4.22559C61.5371 3.68783 61.373 3.25944 61.0449 2.94043C60.7168 2.61686 60.2656 2.45052 59.6914 2.44141H57.5654V5.91406ZM69.042 11.1367C67.9893 11.1367 67.1348 10.8063 66.4785 10.1455C65.8268 9.48014 65.501 8.59603 65.501 7.49316V7.28809C65.501 6.5498 65.6423 5.89128 65.9248 5.3125C66.2119 4.72917 66.613 4.27572 67.1279 3.95215C67.6429 3.62858 68.2171 3.4668 68.8506 3.4668C69.8577 3.4668 70.6348 3.78809 71.1816 4.43066C71.7331 5.07324 72.0088 5.98242 72.0088 7.1582V7.82812H67.1758C67.2259 8.4388 67.4287 8.92188 67.7842 9.27734C68.1442 9.63281 68.5954 9.81055 69.1377 9.81055C69.8988 9.81055 70.5186 9.50293 70.9971 8.8877L71.8926 9.74219C71.5964 10.1842 71.1999 10.5283 70.7031 10.7744C70.2109 11.016 69.6572 11.1367 69.042 11.1367ZM68.8438 4.7998C68.388 4.7998 68.0189 4.95931 67.7363 5.27832C67.4583 5.59733 67.2806 6.04167 67.2031 6.61133H70.3682V6.48828C70.3317 5.93229 70.1836 5.51302 69.9238 5.23047C69.6641 4.94336 69.304 4.7998 68.8438 4.7998ZM76.6357 1.80566V3.60352H77.9414V4.83398H76.6357V8.96289C76.6357 9.24544 76.6904 9.45052 76.7998 9.57812C76.9137 9.70117 77.1143 9.7627 77.4014 9.7627C77.5928 9.7627 77.7865 9.73991 77.9824 9.69434V10.9795C77.6042 11.0843 77.2396 11.1367 76.8887 11.1367C75.6126 11.1367 74.9746 10.4326 74.9746 9.02441V4.83398H73.7578V3.60352H74.9746V1.80566H76.6357ZM85.3633 11V1.04688H88.7744C89.9001 1.04688 90.7568 1.27246 91.3447 1.72363C91.9326 2.1748 92.2266 2.84701 92.2266 3.74023C92.2266 4.19596 92.1035 4.60612 91.8574 4.9707C91.6113 5.33529 91.2513 5.61784 90.7773 5.81836C91.3151 5.96419 91.7298 6.23991 92.0215 6.64551C92.3177 7.04655 92.4658 7.52962 92.4658 8.09473C92.4658 9.02897 92.165 9.74674 91.5635 10.248C90.9665 10.7493 90.1097 11 88.9932 11H85.3633ZM87.0928 6.50879V9.61914H89.0137C89.556 9.61914 89.9798 9.4847 90.2852 9.21582C90.5905 8.94694 90.7432 8.57324 90.7432 8.09473C90.7432 7.06022 90.2145 6.53158 89.1572 6.50879H87.0928ZM87.0928 5.2373H88.7881C89.3258 5.2373 89.7451 5.11654 90.0459 4.875C90.3512 4.62891 90.5039 4.28255 90.5039 3.83594C90.5039 3.34375 90.3626 2.98828 90.0801 2.76953C89.8021 2.55078 89.3669 2.44141 88.7744 2.44141H87.0928V5.2373ZM96.8262 3.60352L96.874 4.45801C97.4209 3.7972 98.1387 3.4668 99.0273 3.4668C100.568 3.4668 101.352 4.34863 101.379 6.1123V11H99.7178V6.20801C99.7178 5.73861 99.6152 5.39225 99.4102 5.16895C99.2096 4.94108 98.8792 4.82715 98.4189 4.82715C97.749 4.82715 97.25 5.13021 96.9219 5.73633V11H95.2607V3.60352H96.8262ZM104.488 11V1.04688H107.899C109.025 1.04688 109.882 1.27246 110.47 1.72363C111.058 2.1748 111.352 2.84701 111.352 3.74023C111.352 4.19596 111.229 4.60612 110.982 4.9707C110.736 5.33529 110.376 5.61784 109.902 5.81836C110.44 5.96419 110.855 6.23991 111.146 6.64551C111.443 7.04655 111.591 7.52962 111.591 8.09473C111.591 9.02897 111.29 9.74674 110.688 10.248C110.091 10.7493 109.235 11 108.118 11H104.488ZM106.218 6.50879V9.61914H108.139C108.681 9.61914 109.105 9.4847 109.41 9.21582C109.715 8.94694 109.868 8.57324 109.868 8.09473C109.868 7.06022 109.34 6.53158 108.282 6.50879H106.218ZM106.218 5.2373H107.913C108.451 5.2373 108.87 5.11654 109.171 4.875C109.476 4.62891 109.629 4.28255 109.629 3.83594C109.629 3.34375 109.488 2.98828 109.205 2.76953C108.927 2.55078 108.492 2.44141 107.899 2.44141H106.218V5.2373ZM121.549 1.04688L124.42 8.67578L127.284 1.04688H129.52V11H127.797V7.71875L127.968 3.33008L125.028 11H123.791L120.858 3.33691L121.029 7.71875V11H119.307V1.04688H121.549ZM137.079 11C137.006 10.8587 136.942 10.6286 136.888 10.3096C136.359 10.861 135.712 11.1367 134.946 11.1367C134.203 11.1367 133.597 10.9248 133.128 10.501C132.659 10.0771 132.424 9.55306 132.424 8.92871C132.424 8.1403 132.715 7.53646 133.299 7.11719C133.887 6.69336 134.725 6.48145 135.814 6.48145H136.833V5.99609C136.833 5.61328 136.726 5.30794 136.512 5.08008C136.298 4.84766 135.972 4.73145 135.534 4.73145C135.156 4.73145 134.846 4.82715 134.604 5.01855C134.363 5.2054 134.242 5.44466 134.242 5.73633H132.581C132.581 5.33073 132.715 4.95247 132.984 4.60156C133.253 4.24609 133.618 3.9681 134.078 3.76758C134.543 3.56706 135.06 3.4668 135.63 3.4668C136.496 3.4668 137.186 3.68555 137.701 4.12305C138.216 4.55599 138.48 5.16667 138.494 5.95508V9.29102C138.494 9.95638 138.588 10.4873 138.774 10.8838V11H137.079ZM135.254 9.80371C135.582 9.80371 135.89 9.72396 136.177 9.56445C136.468 9.40495 136.687 9.19076 136.833 8.92188V7.52734H135.938C135.322 7.52734 134.86 7.63444 134.55 7.84863C134.24 8.06283 134.085 8.36589 134.085 8.75781C134.085 9.07682 134.19 9.33203 134.399 9.52344C134.614 9.71029 134.898 9.80371 135.254 9.80371ZM145.356 5.12109C145.138 5.08464 144.912 5.06641 144.68 5.06641C143.919 5.06641 143.406 5.35807 143.142 5.94141V11H141.48V3.60352H143.066L143.107 4.43066C143.508 3.78809 144.064 3.4668 144.775 3.4668C145.012 3.4668 145.208 3.4987 145.363 3.5625L145.356 5.12109ZM150.558 9.81055C150.972 9.81055 151.316 9.68978 151.59 9.44824C151.863 9.20671 152.009 8.9082 152.027 8.55273H153.593C153.575 9.01302 153.431 9.44368 153.162 9.84473C152.893 10.2412 152.529 10.5557 152.068 10.7881C151.608 11.0205 151.111 11.1367 150.578 11.1367C149.544 11.1367 148.723 10.8018 148.117 10.1318C147.511 9.46191 147.208 8.53678 147.208 7.35645V7.18555C147.208 6.0599 147.509 5.15983 148.11 4.48535C148.712 3.80632 149.532 3.4668 150.571 3.4668C151.451 3.4668 152.166 3.72428 152.718 4.23926C153.274 4.74967 153.565 5.42188 153.593 6.25586H152.027C152.009 5.83203 151.863 5.4834 151.59 5.20996C151.321 4.93652 150.977 4.7998 150.558 4.7998C150.02 4.7998 149.605 4.99577 149.313 5.3877C149.022 5.77507 148.874 6.36523 148.869 7.1582V7.4248C148.869 8.22689 149.013 8.82617 149.3 9.22266C149.591 9.61458 150.011 9.81055 150.558 9.81055ZM157.734 4.41016C158.277 3.78125 158.963 3.4668 159.792 3.4668C161.369 3.4668 162.169 4.36686 162.191 6.16699V11H160.53V6.22852C160.53 5.7181 160.419 5.35807 160.195 5.14844C159.977 4.93424 159.653 4.82715 159.225 4.82715C158.559 4.82715 158.062 5.12337 157.734 5.71582V11H156.073V0.5H157.734V4.41016Z" fill="#2C7973"/>
</svg>
