<svg width="132" height="14" viewBox="0 0 132 14" fill="none" xmlns="http://www.w3.org/2000/svg">
<path d="M0.0117188 11V1.04688H2.95117C3.83073 1.04688 4.61003 1.24284 5.28906 1.63477C5.97266 2.02669 6.5013 2.58268 6.875 3.30273C7.2487 4.02279 7.43555 4.84766 7.43555 5.77734V6.27637C7.43555 7.21973 7.24642 8.04915 6.86816 8.76465C6.49447 9.48014 5.95898 10.0316 5.26172 10.4189C4.56901 10.8063 3.77376 11 2.87598 11H0.0117188ZM1.74121 2.44141V9.61914H2.86914C3.77604 9.61914 4.47103 9.33659 4.9541 8.77148C5.44173 8.20182 5.6901 7.38607 5.69922 6.32422V5.77051C5.69922 4.69043 5.46452 3.86556 4.99512 3.2959C4.52572 2.72624 3.8444 2.44141 2.95117 2.44141H1.74121ZM14.667 11C14.5941 10.8587 14.5303 10.6286 14.4756 10.3096C13.9469 10.861 13.2998 11.1367 12.5342 11.1367C11.7913 11.1367 11.1852 10.9248 10.7158 10.501C10.2464 10.0771 10.0117 9.55306 10.0117 8.92871C10.0117 8.1403 10.3034 7.53646 10.8867 7.11719C11.4746 6.69336 12.3132 6.48145 13.4023 6.48145H14.4209V5.99609C14.4209 5.61328 14.3138 5.30794 14.0996 5.08008C13.8854 4.84766 13.5596 4.73145 13.1221 4.73145C12.7438 4.73145 12.4339 4.82715 12.1924 5.01855C11.9508 5.2054 11.8301 5.44466 11.8301 5.73633H10.1689C10.1689 5.33073 10.3034 4.95247 10.5723 4.60156C10.8411 4.24609 11.2057 3.9681 11.666 3.76758C12.1309 3.56706 12.6481 3.4668 13.2178 3.4668C14.0837 3.4668 14.7741 3.68555 15.2891 4.12305C15.804 4.55599 16.0684 5.16667 16.082 5.95508V9.29102C16.082 9.95638 16.1755 10.4873 16.3623 10.8838V11H14.667ZM12.8418 9.80371C13.1699 9.80371 13.4775 9.72396 13.7646 9.56445C14.0563 9.40495 14.2751 9.19076 14.4209 8.92188V7.52734H13.5254C12.9102 7.52734 12.4476 7.63444 12.1377 7.84863C11.8278 8.06283 11.6729 8.36589 11.6729 8.75781C11.6729 9.07682 11.7777 9.33203 11.9873 9.52344C12.2015 9.71029 12.4863 9.80371 12.8418 9.80371ZM21.5498 8.62109L23.0537 3.60352H24.8242L21.8848 12.1211C21.4336 13.3652 20.668 13.9873 19.5879 13.9873C19.3464 13.9873 19.0798 13.9463 18.7881 13.8643V12.5791L19.1025 12.5996C19.5218 12.5996 19.8363 12.5221 20.0459 12.3672C20.2601 12.2168 20.4287 11.9616 20.5518 11.6016L20.791 10.9658L18.1934 3.60352H19.9844L21.5498 8.62109ZM39.5264 7.75977C39.4261 8.82161 39.0342 9.65104 38.3506 10.248C37.667 10.8405 36.7578 11.1367 35.623 11.1367C34.8301 11.1367 34.1305 10.9499 33.5244 10.5762C32.9229 10.1979 32.458 9.66243 32.1299 8.96973C31.8018 8.27702 31.6309 7.47266 31.6172 6.55664V5.62695C31.6172 4.68815 31.7835 3.861 32.1162 3.14551C32.4489 2.43001 32.9251 1.87858 33.5449 1.49121C34.1693 1.10384 34.8893 0.910156 35.7051 0.910156C36.8034 0.910156 37.6875 1.20866 38.3574 1.80566C39.0273 2.40267 39.417 3.24577 39.5264 4.33496H37.8037C37.7217 3.61947 37.512 3.10449 37.1748 2.79004C36.8421 2.47103 36.3522 2.31152 35.7051 2.31152C34.9531 2.31152 34.3743 2.58724 33.9688 3.13867C33.5677 3.68555 33.3626 4.48991 33.3535 5.55176V6.43359C33.3535 7.50911 33.5449 8.32943 33.9277 8.89453C34.3151 9.45964 34.8802 9.74219 35.623 9.74219C36.3021 9.74219 36.8125 9.58952 37.1543 9.28418C37.4961 8.97884 37.7126 8.4707 37.8037 7.75977H39.5264ZM46.5869 11C46.514 10.8587 46.4502 10.6286 46.3955 10.3096C45.8669 10.861 45.2197 11.1367 44.4541 11.1367C43.7113 11.1367 43.1051 10.9248 42.6357 10.501C42.1663 10.0771 41.9316 9.55306 41.9316 8.92871C41.9316 8.1403 42.2233 7.53646 42.8066 7.11719C43.3945 6.69336 44.2331 6.48145 45.3223 6.48145H46.3408V5.99609C46.3408 5.61328 46.2337 5.30794 46.0195 5.08008C45.8053 4.84766 45.4795 4.73145 45.042 4.73145C44.6637 4.73145 44.3538 4.82715 44.1123 5.01855C43.8708 5.2054 43.75 5.44466 43.75 5.73633H42.0889C42.0889 5.33073 42.2233 4.95247 42.4922 4.60156C42.7611 4.24609 43.1257 3.9681 43.5859 3.76758C44.0508 3.56706 44.568 3.4668 45.1377 3.4668C46.0036 3.4668 46.694 3.68555 47.209 4.12305C47.724 4.55599 47.9883 5.16667 48.002 5.95508V9.29102C48.002 9.95638 48.0954 10.4873 48.2822 10.8838V11H46.5869ZM44.7617 9.80371C45.0898 9.80371 45.3975 9.72396 45.6846 9.56445C45.9762 9.40495 46.195 9.19076 46.3408 8.92188V7.52734H45.4453C44.8301 7.52734 44.3675 7.63444 44.0576 7.84863C43.7477 8.06283 43.5928 8.36589 43.5928 8.75781C43.5928 9.07682 43.6976 9.33203 43.9072 9.52344C44.1214 9.71029 44.4062 9.80371 44.7617 9.80371ZM54.8643 5.12109C54.6455 5.08464 54.4199 5.06641 54.1875 5.06641C53.4264 5.06641 52.9137 5.35807 52.6494 5.94141V11H50.9883V3.60352H52.5742L52.6152 4.43066C53.0163 3.78809 53.5723 3.4668 54.2832 3.4668C54.5202 3.4668 54.7161 3.4987 54.8711 3.5625L54.8643 5.12109ZM60.2842 11.1367C59.2314 11.1367 58.377 10.8063 57.7207 10.1455C57.069 9.48014 56.7432 8.59603 56.7432 7.49316V7.28809C56.7432 6.5498 56.8844 5.89128 57.167 5.3125C57.4541 4.72917 57.8551 4.27572 58.3701 3.95215C58.8851 3.62858 59.4593 3.4668 60.0928 3.4668C61.0999 3.4668 61.877 3.78809 62.4238 4.43066C62.9753 5.07324 63.251 5.98242 63.251 7.1582V7.82812H58.418C58.4681 8.4388 58.6709 8.92188 59.0264 9.27734C59.3864 9.63281 59.8376 9.81055 60.3799 9.81055C61.141 9.81055 61.7607 9.50293 62.2393 8.8877L63.1348 9.74219C62.8385 10.1842 62.4421 10.5283 61.9453 10.7744C61.4531 11.016 60.8994 11.1367 60.2842 11.1367ZM60.0859 4.7998C59.6302 4.7998 59.2611 4.95931 58.9785 5.27832C58.7005 5.59733 58.5228 6.04167 58.4453 6.61133H61.6104V6.48828C61.5739 5.93229 61.4258 5.51302 61.166 5.23047C60.9062 4.94336 60.5462 4.7998 60.0859 4.7998ZM75.8955 8.43652C75.8955 7.99902 75.7406 7.66178 75.4307 7.4248C75.1253 7.18783 74.5716 6.94857 73.7695 6.70703C72.9674 6.46549 72.3294 6.19661 71.8555 5.90039C70.9486 5.33073 70.4951 4.58789 70.4951 3.67188C70.4951 2.86979 70.821 2.20898 71.4727 1.68945C72.1289 1.16992 72.9788 0.910156 74.0225 0.910156C74.7152 0.910156 75.3327 1.03776 75.875 1.29297C76.4173 1.54818 76.8434 1.91276 77.1533 2.38672C77.4632 2.85612 77.6182 3.37793 77.6182 3.95215H75.8955C75.8955 3.43262 75.7314 3.02702 75.4033 2.73535C75.0798 2.43913 74.6149 2.29102 74.0088 2.29102C73.4437 2.29102 73.0039 2.41178 72.6895 2.65332C72.3796 2.89486 72.2246 3.2321 72.2246 3.66504C72.2246 4.02962 72.3932 4.33496 72.7305 4.58105C73.0677 4.82259 73.6237 5.05957 74.3984 5.29199C75.1732 5.51986 75.7952 5.7819 76.2646 6.07812C76.734 6.36979 77.0781 6.70703 77.2969 7.08984C77.5156 7.4681 77.625 7.91243 77.625 8.42285C77.625 9.25228 77.306 9.91309 76.668 10.4053C76.0345 10.8929 75.1732 11.1367 74.084 11.1367C73.3639 11.1367 72.7008 11.0046 72.0947 10.7402C71.4932 10.4714 71.0238 10.1022 70.6865 9.63281C70.3538 9.16341 70.1875 8.61654 70.1875 7.99219H71.917C71.917 8.55729 72.1038 8.99479 72.4775 9.30469C72.8512 9.61458 73.3867 9.76953 74.084 9.76953C74.6855 9.76953 75.1367 9.64876 75.4375 9.40723C75.7428 9.16113 75.8955 8.83757 75.8955 8.43652ZM83.4893 11.1367C82.4365 11.1367 81.582 10.8063 80.9258 10.1455C80.2741 9.48014 79.9482 8.59603 79.9482 7.49316V7.28809C79.9482 6.5498 80.0895 5.89128 80.3721 5.3125C80.6592 4.72917 81.0602 4.27572 81.5752 3.95215C82.0902 3.62858 82.6644 3.4668 83.2979 3.4668C84.305 3.4668 85.082 3.78809 85.6289 4.43066C86.1803 5.07324 86.4561 5.98242 86.4561 7.1582V7.82812H81.623C81.6732 8.4388 81.876 8.92188 82.2314 9.27734C82.5915 9.63281 83.0426 9.81055 83.585 9.81055C84.346 9.81055 84.9658 9.50293 85.4443 8.8877L86.3398 9.74219C86.0436 10.1842 85.6471 10.5283 85.1504 10.7744C84.6582 11.016 84.1045 11.1367 83.4893 11.1367ZM83.291 4.7998C82.8353 4.7998 82.4661 4.95931 82.1836 5.27832C81.9056 5.59733 81.7279 6.04167 81.6504 6.61133H84.8154V6.48828C84.779 5.93229 84.6309 5.51302 84.3711 5.23047C84.1113 4.94336 83.7513 4.7998 83.291 4.7998ZM92.874 5.12109C92.6553 5.08464 92.4297 5.06641 92.1973 5.06641C91.4362 5.06641 90.9235 5.35807 90.6592 5.94141V11H88.998V3.60352H90.584L90.625 4.43066C91.026 3.78809 91.582 3.4668 92.293 3.4668C92.5299 3.4668 92.7259 3.4987 92.8809 3.5625L92.874 5.12109ZM97.9043 8.89453L99.4697 3.60352H101.186L98.6221 11H97.1797L94.5957 3.60352H96.3184L97.9043 8.89453ZM105.245 11H103.584V3.60352H105.245V11ZM103.481 1.68262C103.481 1.42741 103.561 1.21549 103.721 1.04688C103.885 0.878255 104.117 0.793945 104.418 0.793945C104.719 0.793945 104.951 0.878255 105.115 1.04688C105.279 1.21549 105.361 1.42741 105.361 1.68262C105.361 1.93327 105.279 2.1429 105.115 2.31152C104.951 2.47559 104.719 2.55762 104.418 2.55762C104.117 2.55762 103.885 2.47559 103.721 2.31152C103.561 2.1429 103.481 1.93327 103.481 1.68262ZM111.349 9.81055C111.763 9.81055 112.107 9.68978 112.381 9.44824C112.654 9.20671 112.8 8.9082 112.818 8.55273H114.384C114.366 9.01302 114.222 9.44368 113.953 9.84473C113.684 10.2412 113.32 10.5557 112.859 10.7881C112.399 11.0205 111.902 11.1367 111.369 11.1367C110.335 11.1367 109.514 10.8018 108.908 10.1318C108.302 9.46191 107.999 8.53678 107.999 7.35645V7.18555C107.999 6.0599 108.3 5.15983 108.901 4.48535C109.503 3.80632 110.323 3.4668 111.362 3.4668C112.242 3.4668 112.957 3.72428 113.509 4.23926C114.065 4.74967 114.356 5.42188 114.384 6.25586H112.818C112.8 5.83203 112.654 5.4834 112.381 5.20996C112.112 4.93652 111.768 4.7998 111.349 4.7998C110.811 4.7998 110.396 4.99577 110.104 5.3877C109.813 5.77507 109.665 6.36523 109.66 7.1582V7.4248C109.66 8.22689 109.804 8.82617 110.091 9.22266C110.382 9.61458 110.802 9.81055 111.349 9.81055ZM120.146 11.1367C119.093 11.1367 118.238 10.8063 117.582 10.1455C116.93 9.48014 116.604 8.59603 116.604 7.49316V7.28809C116.604 6.5498 116.746 5.89128 117.028 5.3125C117.315 4.72917 117.716 4.27572 118.231 3.95215C118.746 3.62858 119.321 3.4668 119.954 3.4668C120.961 3.4668 121.738 3.78809 122.285 4.43066C122.837 5.07324 123.112 5.98242 123.112 7.1582V7.82812H118.279C118.329 8.4388 118.532 8.92188 118.888 9.27734C119.248 9.63281 119.699 9.81055 120.241 9.81055C121.002 9.81055 121.622 9.50293 122.101 8.8877L122.996 9.74219C122.7 10.1842 122.303 10.5283 121.807 10.7744C121.314 11.016 120.761 11.1367 120.146 11.1367ZM119.947 4.7998C119.492 4.7998 119.122 4.95931 118.84 5.27832C118.562 5.59733 118.384 6.04167 118.307 6.61133H121.472V6.48828C121.435 5.93229 121.287 5.51302 121.027 5.23047C120.768 4.94336 120.408 4.7998 119.947 4.7998ZM129.804 8.99023C129.804 8.69401 129.681 8.46842 129.435 8.31348C129.193 8.15853 128.79 8.02181 128.225 7.90332C127.66 7.78483 127.188 7.63444 126.81 7.45215C125.98 7.05111 125.565 6.47005 125.565 5.70898C125.565 5.07096 125.834 4.53776 126.372 4.10938C126.91 3.68099 127.593 3.4668 128.423 3.4668C129.307 3.4668 130.02 3.68555 130.562 4.12305C131.109 4.56055 131.383 5.12793 131.383 5.8252H129.722C129.722 5.50618 129.603 5.24186 129.366 5.03223C129.129 4.81803 128.815 4.71094 128.423 4.71094C128.058 4.71094 127.76 4.79525 127.527 4.96387C127.299 5.13249 127.186 5.35807 127.186 5.64062C127.186 5.89583 127.293 6.09408 127.507 6.23535C127.721 6.37663 128.154 6.52018 128.806 6.66602C129.457 6.80729 129.968 6.97819 130.337 7.17871C130.711 7.37467 130.986 7.61165 131.164 7.88965C131.346 8.16764 131.438 8.50488 131.438 8.90137C131.438 9.56673 131.162 10.1068 130.61 10.5215C130.059 10.9316 129.337 11.1367 128.443 11.1367C127.837 11.1367 127.297 11.0273 126.823 10.8086C126.349 10.5898 125.98 10.2891 125.716 9.90625C125.451 9.52344 125.319 9.111 125.319 8.66895H126.933C126.955 9.06087 127.104 9.36393 127.377 9.57812C127.65 9.78776 128.013 9.89258 128.464 9.89258C128.901 9.89258 129.234 9.81055 129.462 9.64648C129.69 9.47786 129.804 9.25911 129.804 8.99023Z" fill="#2C7973"/>
</svg>
