<svg width="24" height="24" viewBox="0 0 24 24" fill="none" xmlns="http://www.w3.org/2000/svg">
<path d="M22 14.2607V3.99998C22 2.89697 21.103 1.99997 20 1.99997H17V0.499969C17 0.223641 16.7764 0 16.5 0C16.2236 0 16 0.223641 16 0.500016V2.00002H6.99998V0.500016C6.99998 0.223641 6.77639 0 6.50002 0C6.22364 0 6 0.223641 6 0.500016V2.00002H2.00002C0.896953 2.00002 0 2.89697 0 3.99998V20C0 21.103 0.896953 22 2.00002 22H14.2607C15.2703 23.2208 16.7958 24 18.5 24C21.5327 24 24 21.5327 24 18.5C24 16.7958 23.2208 15.2703 22 14.2607ZM0.999984 3.99998C0.999984 3.44873 1.44872 3 2.00002 3H6V3.99998C5.44823 3.99998 5.00002 4.44872 5.00002 4.99997C5.00002 5.55122 5.44828 5.99995 6 5.99995C6.55172 5.99995 6.99998 5.55122 6.99998 4.99997V3H16V3.99998C15.4482 3.99998 15 4.44872 15 4.99997C15 5.55122 15.4483 5.99995 16 5.99995C16.5518 5.99995 17 5.55122 17 4.99997V3H20C20.5513 3 21 3.44873 21 3.99998V6.99998H0.999984V3.99998ZM2.00002 21C1.44877 21 1.00003 20.5513 1.00003 20V8.00002H21V13.6072C20.2489 13.2219 19.4006 13 18.5 13C15.4673 13 13 15.4673 13 18.5C13 19.4006 13.2219 20.2489 13.6072 21H2.00002ZM18.5 23C16.0185 23 14 20.9814 14 18.5C14 16.0186 16.0186 14 18.5 14C20.9814 14 23 16.0186 23 18.5C23 20.9814 20.9814 23 18.5 23Z" fill="#00D654"/>
<path d="M20.6465 16.6465L17.5 19.793L16.3535 18.6465C16.1582 18.4512 15.8418 18.4512 15.6465 18.6465C15.4512 18.8418 15.4512 19.1583 15.6465 19.3535L17.1465 20.8535C17.2441 20.9512 17.3721 21 17.5 21C17.6279 21 17.7559 20.9512 17.8536 20.8535L21.3536 17.3535C21.5489 17.1582 21.5489 16.8418 21.3536 16.6465C21.1582 16.4512 20.8418 16.4512 20.6465 16.6465Z" fill="#00D654"/>
<path d="M5.50008 14C5.96032 14 6.33341 13.6269 6.33341 13.1667C6.33341 12.7065 5.96032 12.3334 5.50008 12.3334C5.03984 12.3334 4.66675 12.7065 4.66675 13.1667C4.66675 13.6269 5.03984 14 5.50008 14Z" fill="#00D654"/>
<path d="M7.00008 12.6667C7.46032 12.6667 7.83341 12.2936 7.83341 11.8333C7.83341 11.3731 7.46032 11 7.00008 11C6.53984 11 6.16675 11.3731 6.16675 11.8333C6.16675 12.2936 6.53984 12.6667 7.00008 12.6667Z" fill="#00D654"/>
<path d="M9.00008 12.6667C9.46032 12.6667 9.83341 12.2936 9.83341 11.8333C9.83341 11.3731 9.46032 11 9.00008 11C8.53984 11 8.16675 11.3731 8.16675 11.8333C8.16675 12.2936 8.53984 12.6667 9.00008 12.6667Z" fill="#00D654"/>
<path d="M10.5001 14C10.9603 14 11.3334 13.6269 11.3334 13.1667C11.3334 12.7065 10.9603 12.3334 10.5001 12.3334C10.0398 12.3334 9.66675 12.7065 9.66675 13.1667C9.66675 13.6269 10.0398 14 10.5001 14Z" fill="#00D654"/>
<path d="M9.77988 14.9533C9.48988 14.6133 9.24655 14.3233 8.95322 13.9833C8.79988 13.8033 8.60322 13.6233 8.36988 13.5433C8.33322 13.53 8.29655 13.52 8.25988 13.5133C8.17655 13.5 8.08655 13.5 7.99988 13.5C7.91322 13.5 7.82322 13.5 7.73655 13.5167C7.69988 13.5233 7.66322 13.5333 7.62655 13.5467C7.39322 13.6267 7.19988 13.8067 7.04322 13.9867C6.75322 14.3267 6.50988 14.6167 6.21655 14.9567C5.77989 15.3933 5.24322 15.8767 5.34322 16.5533C5.43989 16.8933 5.68322 17.23 6.11989 17.3267C6.36322 17.3767 7.13988 17.18 7.96655 17.18H8.02655C8.85322 17.18 9.62988 17.3733 9.87322 17.3267C10.3099 17.23 10.5532 16.89 10.6499 16.5533C10.7532 15.8733 10.2166 15.39 9.77988 14.9533Z" fill="#00D654"/>
</svg>
