<svg width="139" height="14" viewBox="0 0 139 14" fill="none" xmlns="http://www.w3.org/2000/svg">
<path d="M8.64062 9.70801C8.2806 10.1774 7.78158 10.5329 7.14355 10.7744C6.50553 11.016 5.78092 11.1367 4.96973 11.1367C4.13574 11.1367 3.39746 10.9476 2.75488 10.5693C2.1123 10.1911 1.61556 9.65104 1.26465 8.94922C0.918294 8.24284 0.738281 7.42025 0.724609 6.48145V5.70215C0.724609 4.19824 1.08464 3.02474 1.80469 2.18164C2.52474 1.33398 3.52962 0.910156 4.81934 0.910156C5.92676 0.910156 6.80632 1.18359 7.45801 1.73047C8.1097 2.27734 8.50163 3.06576 8.63379 4.0957H6.93848C6.74707 2.89714 6.05208 2.29785 4.85352 2.29785C4.07878 2.29785 3.48861 2.57812 3.08301 3.13867C2.68197 3.69466 2.47461 4.5127 2.46094 5.59277V6.3584C2.46094 7.43392 2.68652 8.27018 3.1377 8.86719C3.59342 9.45964 4.22461 9.75586 5.03125 9.75586C5.91536 9.75586 6.54427 9.55534 6.91797 9.1543V7.20605H4.86719V5.89355H8.64062V9.70801ZM15.5029 5.12109C15.2842 5.08464 15.0586 5.06641 14.8262 5.06641C14.0651 5.06641 13.5524 5.35807 13.2881 5.94141V11H11.627V3.60352H13.2129L13.2539 4.43066C13.6549 3.78809 14.2109 3.4668 14.9219 3.4668C15.1589 3.4668 15.3548 3.4987 15.5098 3.5625L15.5029 5.12109ZM17.2451 7.2334C17.2451 6.50879 17.3887 5.8571 17.6758 5.27832C17.9629 4.69499 18.3662 4.24837 18.8857 3.93848C19.4053 3.62402 20.0023 3.4668 20.6768 3.4668C21.6748 3.4668 22.4837 3.78809 23.1035 4.43066C23.7279 5.07324 24.0651 5.92546 24.1152 6.9873L24.1221 7.37695C24.1221 8.10612 23.9808 8.75781 23.6982 9.33203C23.4202 9.90625 23.0192 10.3506 22.4951 10.665C21.9756 10.9795 21.374 11.1367 20.6904 11.1367C19.6468 11.1367 18.8105 10.7904 18.1816 10.0977C17.5573 9.40039 17.2451 8.47298 17.2451 7.31543V7.2334ZM18.9062 7.37695C18.9062 8.13802 19.0635 8.73503 19.3779 9.16797C19.6924 9.59635 20.1299 9.81055 20.6904 9.81055C21.251 9.81055 21.6862 9.5918 21.9961 9.1543C22.3105 8.7168 22.4678 8.0765 22.4678 7.2334C22.4678 6.486 22.306 5.89355 21.9824 5.45605C21.6634 5.01855 21.2282 4.7998 20.6768 4.7998C20.1344 4.7998 19.7038 5.01628 19.3848 5.44922C19.0658 5.8776 18.9062 6.52018 18.9062 7.37695ZM26.4658 7.2334C26.4658 6.50879 26.6094 5.8571 26.8965 5.27832C27.1836 4.69499 27.5869 4.24837 28.1064 3.93848C28.626 3.62402 29.223 3.4668 29.8975 3.4668C30.8955 3.4668 31.7044 3.78809 32.3242 4.43066C32.9486 5.07324 33.2858 5.92546 33.3359 6.9873L33.3428 7.37695C33.3428 8.10612 33.2015 8.75781 32.9189 9.33203C32.641 9.90625 32.2399 10.3506 31.7158 10.665C31.1963 10.9795 30.5947 11.1367 29.9111 11.1367C28.8675 11.1367 28.0312 10.7904 27.4023 10.0977C26.778 9.40039 26.4658 8.47298 26.4658 7.31543V7.2334ZM28.127 7.37695C28.127 8.13802 28.2842 8.73503 28.5986 9.16797C28.9131 9.59635 29.3506 9.81055 29.9111 9.81055C30.4717 9.81055 30.9069 9.5918 31.2168 9.1543C31.5312 8.7168 31.6885 8.0765 31.6885 7.2334C31.6885 6.486 31.5267 5.89355 31.2031 5.45605C30.8841 5.01855 30.4489 4.7998 29.8975 4.7998C29.3551 4.7998 28.9245 5.01628 28.6055 5.44922C28.2865 5.8776 28.127 6.52018 28.127 7.37695ZM37.5596 3.60352L37.6074 4.37598C38.127 3.76986 38.8379 3.4668 39.7402 3.4668C40.7292 3.4668 41.4059 3.84505 41.7705 4.60156C42.3083 3.84505 43.0648 3.4668 44.04 3.4668C44.8558 3.4668 45.4619 3.69238 45.8584 4.14355C46.2594 4.59473 46.4645 5.26009 46.4736 6.13965V11H44.8125V6.1875C44.8125 5.7181 44.71 5.37402 44.5049 5.15527C44.2998 4.93652 43.9603 4.82715 43.4863 4.82715C43.1081 4.82715 42.7982 4.92969 42.5566 5.13477C42.3197 5.33529 42.1533 5.59961 42.0576 5.92773L42.0645 11H40.4033V6.13281C40.3805 5.26237 39.9362 4.82715 39.0703 4.82715C38.4049 4.82715 37.9333 5.09831 37.6553 5.64062V11H35.9941V3.60352H37.5596ZM51.1963 11H49.5352V3.60352H51.1963V11ZM49.4326 1.68262C49.4326 1.42741 49.5124 1.21549 49.6719 1.04688C49.8359 0.878255 50.0684 0.793945 50.3691 0.793945C50.6699 0.793945 50.9023 0.878255 51.0664 1.04688C51.2305 1.21549 51.3125 1.42741 51.3125 1.68262C51.3125 1.93327 51.2305 2.1429 51.0664 2.31152C50.9023 2.47559 50.6699 2.55762 50.3691 2.55762C50.0684 2.55762 49.8359 2.47559 49.6719 2.31152C49.5124 2.1429 49.4326 1.93327 49.4326 1.68262ZM55.8027 3.60352L55.8506 4.45801C56.3975 3.7972 57.1152 3.4668 58.0039 3.4668C59.5443 3.4668 60.3281 4.34863 60.3555 6.1123V11H58.6943V6.20801C58.6943 5.73861 58.5918 5.39225 58.3867 5.16895C58.1862 4.94108 57.8558 4.82715 57.3955 4.82715C56.7256 4.82715 56.2266 5.13021 55.8984 5.73633V11H54.2373V3.60352H55.8027ZM63.0137 7.24707C63.0137 6.09863 63.2826 5.18262 63.8203 4.49902C64.3626 3.81087 65.0804 3.4668 65.9736 3.4668C66.8167 3.4668 67.4798 3.76074 67.9629 4.34863L68.0381 3.60352H69.5352V10.7744C69.5352 11.7451 69.2321 12.5107 68.626 13.0713C68.0244 13.6318 67.2109 13.9121 66.1855 13.9121C65.6432 13.9121 65.1123 13.7982 64.5928 13.5703C64.0778 13.347 63.6859 13.0531 63.417 12.6885L64.2031 11.6904C64.7135 12.2965 65.3424 12.5996 66.0898 12.5996C66.6413 12.5996 67.0765 12.4492 67.3955 12.1484C67.7145 11.8522 67.874 11.4147 67.874 10.8359V10.3369C67.3955 10.8701 66.7575 11.1367 65.96 11.1367C65.0941 11.1367 64.3854 10.7926 63.834 10.1045C63.2871 9.41634 63.0137 8.46387 63.0137 7.24707ZM64.668 7.39062C64.668 8.13346 64.8184 8.71908 65.1191 9.14746C65.4245 9.57129 65.846 9.7832 66.3838 9.7832C67.0537 9.7832 67.5505 9.49609 67.874 8.92188V5.66797C67.5596 5.10742 67.0674 4.82715 66.3975 4.82715C65.8506 4.82715 65.4245 5.04362 65.1191 5.47656C64.8184 5.90951 64.668 6.54753 64.668 7.39062ZM82.5967 8.43652C82.5967 7.99902 82.4417 7.66178 82.1318 7.4248C81.8265 7.18783 81.2728 6.94857 80.4707 6.70703C79.6686 6.46549 79.0306 6.19661 78.5566 5.90039C77.6497 5.33073 77.1963 4.58789 77.1963 3.67188C77.1963 2.86979 77.5221 2.20898 78.1738 1.68945C78.8301 1.16992 79.68 0.910156 80.7236 0.910156C81.4163 0.910156 82.0339 1.03776 82.5762 1.29297C83.1185 1.54818 83.5446 1.91276 83.8545 2.38672C84.1644 2.85612 84.3193 3.37793 84.3193 3.95215H82.5967C82.5967 3.43262 82.4326 3.02702 82.1045 2.73535C81.7809 2.43913 81.3161 2.29102 80.71 2.29102C80.1449 2.29102 79.7051 2.41178 79.3906 2.65332C79.0807 2.89486 78.9258 3.2321 78.9258 3.66504C78.9258 4.02962 79.0944 4.33496 79.4316 4.58105C79.7689 4.82259 80.3249 5.05957 81.0996 5.29199C81.8743 5.51986 82.4964 5.7819 82.9658 6.07812C83.4352 6.36979 83.7793 6.70703 83.998 7.08984C84.2168 7.4681 84.3262 7.91243 84.3262 8.42285C84.3262 9.25228 84.0072 9.91309 83.3691 10.4053C82.7357 10.8929 81.8743 11.1367 80.7852 11.1367C80.0651 11.1367 79.402 11.0046 78.7959 10.7402C78.1943 10.4714 77.7249 10.1022 77.3877 9.63281C77.055 9.16341 76.8887 8.61654 76.8887 7.99219H78.6182C78.6182 8.55729 78.805 8.99479 79.1787 9.30469C79.5524 9.61458 80.0879 9.76953 80.7852 9.76953C81.3867 9.76953 81.8379 9.64876 82.1387 9.40723C82.444 9.16113 82.5967 8.83757 82.5967 8.43652ZM90.1904 11.1367C89.1377 11.1367 88.2832 10.8063 87.627 10.1455C86.9753 9.48014 86.6494 8.59603 86.6494 7.49316V7.28809C86.6494 6.5498 86.7907 5.89128 87.0732 5.3125C87.3604 4.72917 87.7614 4.27572 88.2764 3.95215C88.7913 3.62858 89.3656 3.4668 89.999 3.4668C91.0062 3.4668 91.7832 3.78809 92.3301 4.43066C92.8815 5.07324 93.1572 5.98242 93.1572 7.1582V7.82812H88.3242C88.3743 8.4388 88.5771 8.92188 88.9326 9.27734C89.2926 9.63281 89.7438 9.81055 90.2861 9.81055C91.0472 9.81055 91.667 9.50293 92.1455 8.8877L93.041 9.74219C92.7448 10.1842 92.3483 10.5283 91.8516 10.7744C91.3594 11.016 90.8057 11.1367 90.1904 11.1367ZM89.9922 4.7998C89.5365 4.7998 89.1673 4.95931 88.8848 5.27832C88.6068 5.59733 88.429 6.04167 88.3516 6.61133H91.5166V6.48828C91.4801 5.93229 91.332 5.51302 91.0723 5.23047C90.8125 4.94336 90.4525 4.7998 89.9922 4.7998ZM99.5752 5.12109C99.3564 5.08464 99.1309 5.06641 98.8984 5.06641C98.1374 5.06641 97.6247 5.35807 97.3604 5.94141V11H95.6992V3.60352H97.2852L97.3262 4.43066C97.7272 3.78809 98.2832 3.4668 98.9941 3.4668C99.2311 3.4668 99.4271 3.4987 99.582 3.5625L99.5752 5.12109ZM104.605 8.89453L106.171 3.60352H107.887L105.323 11H103.881L101.297 3.60352H103.02L104.605 8.89453ZM111.946 11H110.285V3.60352H111.946V11ZM110.183 1.68262C110.183 1.42741 110.262 1.21549 110.422 1.04688C110.586 0.878255 110.818 0.793945 111.119 0.793945C111.42 0.793945 111.652 0.878255 111.816 1.04688C111.98 1.21549 112.062 1.42741 112.062 1.68262C112.062 1.93327 111.98 2.1429 111.816 2.31152C111.652 2.47559 111.42 2.55762 111.119 2.55762C110.818 2.55762 110.586 2.47559 110.422 2.31152C110.262 2.1429 110.183 1.93327 110.183 1.68262ZM118.05 9.81055C118.465 9.81055 118.809 9.68978 119.082 9.44824C119.355 9.20671 119.501 8.9082 119.52 8.55273H121.085C121.067 9.01302 120.923 9.44368 120.654 9.84473C120.385 10.2412 120.021 10.5557 119.561 10.7881C119.1 11.0205 118.604 11.1367 118.07 11.1367C117.036 11.1367 116.215 10.8018 115.609 10.1318C115.003 9.46191 114.7 8.53678 114.7 7.35645V7.18555C114.7 6.0599 115.001 5.15983 115.603 4.48535C116.204 3.80632 117.024 3.4668 118.063 3.4668C118.943 3.4668 119.659 3.72428 120.21 4.23926C120.766 4.74967 121.058 5.42188 121.085 6.25586H119.52C119.501 5.83203 119.355 5.4834 119.082 5.20996C118.813 4.93652 118.469 4.7998 118.05 4.7998C117.512 4.7998 117.097 4.99577 116.806 5.3877C116.514 5.77507 116.366 6.36523 116.361 7.1582V7.4248C116.361 8.22689 116.505 8.82617 116.792 9.22266C117.084 9.61458 117.503 9.81055 118.05 9.81055ZM126.847 11.1367C125.794 11.1367 124.939 10.8063 124.283 10.1455C123.632 9.48014 123.306 8.59603 123.306 7.49316V7.28809C123.306 6.5498 123.447 5.89128 123.729 5.3125C124.017 4.72917 124.418 4.27572 124.933 3.95215C125.448 3.62858 126.022 3.4668 126.655 3.4668C127.662 3.4668 128.439 3.78809 128.986 4.43066C129.538 5.07324 129.813 5.98242 129.813 7.1582V7.82812H124.98C125.031 8.4388 125.233 8.92188 125.589 9.27734C125.949 9.63281 126.4 9.81055 126.942 9.81055C127.703 9.81055 128.323 9.50293 128.802 8.8877L129.697 9.74219C129.401 10.1842 129.005 10.5283 128.508 10.7744C128.016 11.016 127.462 11.1367 126.847 11.1367ZM126.648 4.7998C126.193 4.7998 125.824 4.95931 125.541 5.27832C125.263 5.59733 125.085 6.04167 125.008 6.61133H128.173V6.48828C128.136 5.93229 127.988 5.51302 127.729 5.23047C127.469 4.94336 127.109 4.7998 126.648 4.7998ZM136.505 8.99023C136.505 8.69401 136.382 8.46842 136.136 8.31348C135.894 8.15853 135.491 8.02181 134.926 7.90332C134.361 7.78483 133.889 7.63444 133.511 7.45215C132.681 7.05111 132.267 6.47005 132.267 5.70898C132.267 5.07096 132.535 4.53776 133.073 4.10938C133.611 3.68099 134.295 3.4668 135.124 3.4668C136.008 3.4668 136.721 3.68555 137.264 4.12305C137.811 4.56055 138.084 5.12793 138.084 5.8252H136.423C136.423 5.50618 136.304 5.24186 136.067 5.03223C135.83 4.81803 135.516 4.71094 135.124 4.71094C134.759 4.71094 134.461 4.79525 134.229 4.96387C134.001 5.13249 133.887 5.35807 133.887 5.64062C133.887 5.89583 133.994 6.09408 134.208 6.23535C134.422 6.37663 134.855 6.52018 135.507 6.66602C136.159 6.80729 136.669 6.97819 137.038 7.17871C137.412 7.37467 137.688 7.61165 137.865 7.88965C138.048 8.16764 138.139 8.50488 138.139 8.90137C138.139 9.56673 137.863 10.1068 137.312 10.5215C136.76 10.9316 136.038 11.1367 135.145 11.1367C134.538 11.1367 133.998 11.0273 133.524 10.8086C133.05 10.5898 132.681 10.2891 132.417 9.90625C132.153 9.52344 132.021 9.111 132.021 8.66895H133.634C133.657 9.06087 133.805 9.36393 134.078 9.57812C134.352 9.78776 134.714 9.89258 135.165 9.89258C135.603 9.89258 135.935 9.81055 136.163 9.64648C136.391 9.47786 136.505 9.25911 136.505 8.99023Z" fill="#2C7973"/>
</svg>
