<svg width="24" height="24" viewBox="0 0 24 24" fill="none" xmlns="http://www.w3.org/2000/svg">
<path d="M22.8135 20.103C23.8103 19.672 24.269 18.5144 23.8379 17.5175C23.6697 17.1284 23.3802 16.8041 23.0126 16.5929C23.2442 15.6416 22.7406 14.6648 21.8314 14.3017C21.7685 14.2766 21.7043 14.2547 21.6391 14.2361V13.803C21.7083 13.7858 21.7715 13.7501 21.8219 13.6997L23.4911 12.0305C23.6448 11.8768 23.6448 11.6277 23.4911 11.4741L23.4911 11.474L12.1291 0.112314C11.9376 -0.0374381 11.6687 -0.0374381 11.4772 0.112314L0.115271 11.4743C-0.0384155 11.6279 -0.0384155 11.877 0.115222 12.0307L0.115271 12.0307L1.78448 13.6999C1.83484 13.7503 1.89803 13.7861 1.96723 13.8032V23.2099C1.96723 23.4272 2.14339 23.6034 2.36067 23.6034H23.1847C23.402 23.6034 23.5781 23.4272 23.5781 23.2099C23.5781 23.1778 23.5742 23.1457 23.5664 23.1145L22.8135 20.103ZM22.1862 15.6631C22.278 15.8776 22.3042 16.1144 22.2614 16.3437C21.9194 16.3032 21.5728 16.3536 21.2566 16.49L21.5668 17.2131C21.8302 17.0994 22.1262 17.0863 22.3986 17.1762L22.4 17.1767C23.0194 17.3798 23.357 18.0465 23.1539 18.666C22.9509 19.2854 22.2841 19.6229 21.6647 19.4199C21.3424 19.3142 21.0811 19.075 20.9474 18.7632C20.8618 18.5635 20.6305 18.471 20.4308 18.5566H20.4308L17.8382 19.669H14.7982C14.2131 19.3825 13.9711 18.676 14.2575 18.0909C14.544 17.5059 15.2505 17.2638 15.8356 17.5503C16.0892 17.6744 16.2898 17.8854 16.401 18.145C16.4867 18.3447 16.7179 18.4372 16.9177 18.3515H16.9177L19.8103 17.1106C20.01 17.025 20.1024 16.7937 20.0168 16.594V16.594C19.757 15.9961 20.031 15.3008 20.6289 15.041C21.2267 14.7812 21.922 15.0552 22.1819 15.6531C22.1833 15.6565 22.1848 15.6599 22.1862 15.6633L22.1862 15.6631ZM20.6218 19.669H19.8342L20.416 19.4194C20.4775 19.5082 20.5464 19.5917 20.6218 19.669ZM6.29504 20.4559H4.32786V18.8821H6.29504V20.4559ZM6.29504 18.0952H4.32786V16.5215H6.29504V18.0952ZM4.32786 21.2427H6.29504V22.8165H4.32786V21.2427ZM6.3515 15.7346H4.32786V14.1608H6.82722C6.59017 14.6584 6.4298 15.189 6.3515 15.7346ZM7.28557 13.374H4.32786V11.8002H8.96889C8.30389 12.2013 7.7304 12.7374 7.28557 13.374ZM5.02749 11.0133L6.60124 9.43959H17.0051L18.5789 11.0133H5.02749ZM9.44254 7.07897H14.1638V8.65272H9.44254V7.07897ZM14.9507 7.38516L16.2182 8.65272H14.9507V7.38516ZM9.74874 6.29209L11.8032 4.23766L13.8576 6.29209H9.74874ZM8.65567 8.65272H7.38811L8.65567 7.38516V8.65272ZM20.8522 13.2868V14.1769C20.5731 14.2131 20.3049 14.3082 20.0654 14.4559V12.5L20.8522 13.2868ZM19.1745 16.527L17.3113 17.3263V16.5215H19.1735C19.1739 16.5233 19.1741 16.5252 19.1745 16.527ZM19.2785 11.8002V13.374H16.325C15.8803 12.7383 15.3079 12.2023 14.6443 11.8002H19.2785ZM19.2785 14.1608V15.3897C19.2773 15.3927 19.2759 15.3956 19.2747 15.3985C19.2316 15.5074 19.1982 15.6199 19.1749 15.7346H17.2556C17.1784 15.1891 17.0191 14.6585 16.783 14.1608H19.2785ZM0.94985 11.7525L11.8032 0.89919L22.6565 11.7525L21.5437 12.8653L21.5253 12.847C21.5248 12.8465 21.5244 12.8459 21.5239 12.8454L12.0814 3.40293C11.9277 3.24929 11.6786 3.24929 11.525 3.40293L2.08246 12.8454C2.08197 12.8459 2.08157 12.8465 2.08108 12.847L2.06269 12.8653L0.94985 11.7525ZM2.75411 22.8165V13.2868L3.54098 12.4999V22.8165H2.75411ZM7.08192 16.5215C7.08192 13.914 9.19571 11.8002 11.8032 11.8002C14.4106 11.8002 16.5244 13.914 16.5244 16.5215V17.0583C16.2926 16.8788 16.0239 16.7529 15.7375 16.6898V16.5215C15.7375 14.3486 13.9761 12.5871 11.8032 12.5871C9.63026 12.5871 7.86879 14.3486 7.86879 16.5215V22.8165H7.08192V16.5215ZM8.65567 16.5215C8.65567 14.7832 10.0649 13.374 11.8032 13.374C13.5415 13.374 14.9507 14.7832 14.9507 16.5215V16.6772C13.8835 16.8785 13.1816 17.9068 13.3828 18.974C13.43 19.2244 13.5255 19.4632 13.6639 19.6772C13.5154 19.7073 13.3974 19.8201 13.3605 19.9671L12.6481 22.8165H8.65567V16.5215ZM13.4592 22.8165L14.0494 20.4559H22.0906L22.6808 22.8165H13.4592Z" fill="#00D654"/>
<path d="M10.2295 7.47235H11.0164V8.25922H10.2295V7.47235Z" fill="#00D654"/>
<path d="M11.8032 7.47235H13.377V8.25922H11.8032V7.47235Z" fill="#00D654"/>
</svg>
