<svg width="24" height="20" viewBox="0 0 24 20" fill="none" xmlns="http://www.w3.org/2000/svg">
<g clip-path="url(#clip0)">
<path d="M4.10582 15.0444L4.13052 15.0246C4.26392 15.2717 4.43191 15.499 4.62953 15.6966L5.13843 16.2055V19.5997C5.13843 19.8171 5.31629 19.995 5.53368 19.995H6.71946C6.91708 19.995 7.08507 19.8517 7.10977 19.6541L7.49021 16.9762L7.9744 16.245C8.21155 15.8893 8.23625 15.4397 8.04851 15.0592L7.56432 14.0958L8.16708 13.1867L10.3163 12.1146L11.5811 12.4308L12.2926 13.8488C12.3815 14.0266 12.5841 14.1106 12.7718 14.0464L13.9576 13.6511C14.1651 13.582 14.2787 13.3596 14.2096 13.1521L13.5228 11.0968C13.4191 10.7954 13.2017 10.5434 12.9151 10.4051L11.6849 9.80725C11.7985 9.26871 11.7442 8.71041 11.5268 8.20646L11.4527 8.02859L11.1957 6.32899L12.5001 5.2865C12.6582 5.15804 12.6977 4.93077 12.5841 4.75784L11.7936 3.57207C11.6948 3.42385 11.5021 3.35962 11.3341 3.41891L10.4596 3.72523L9.18981 3.40903C9.05641 3.37444 8.91313 3.41397 8.81432 3.51278L7.62855 4.69855C7.55444 4.77266 7.51491 4.87148 7.51491 4.98017V6.72425C7.51491 7.06516 7.42104 7.39618 7.24811 7.69263L7.02084 8.07306C6.63052 8.72523 6.11175 9.29836 5.50404 9.75784C5.06926 10.0839 4.70365 10.4891 4.42202 10.9535C4.13546 11.4327 3.93783 11.9614 3.83408 12.5148C3.79455 12.5296 3.75503 12.5493 3.72044 12.574L2.61866 13.3991C2.35187 13.6017 2.0406 13.7401 1.70957 13.8043L0.316293 14.081C0.103843 14.1254 -0.0344973 14.3329 0.00502836 14.5454C0.0198505 14.6244 0.0593762 14.6936 0.113724 14.748L0.128546 14.7628C0.696728 15.3359 1.47242 15.6571 2.27776 15.6521C2.93981 15.6521 3.57716 15.4397 4.10582 15.0444ZM8.30048 5.41002L8.50799 5.90903C8.58704 6.10172 8.49811 6.32405 8.30048 6.40804V5.41002ZM5.09396 11.3586C5.32123 10.9831 5.61768 10.6521 5.96847 10.3853C6.66017 9.86654 7.24811 9.21931 7.68784 8.4782L7.91511 8.09776C8.07815 7.82602 8.19179 7.52958 8.24613 7.22326C8.57716 7.19855 8.88349 7.02563 9.08606 6.75883C9.33309 6.4278 9.38744 5.98808 9.22934 5.60765L8.81926 4.6195L9.20463 4.23413L10.3706 4.52563C10.4448 4.54539 10.5238 4.54045 10.5979 4.51575L11.2946 4.27365L11.7145 4.90112L10.5238 5.85962C10.4151 5.94855 10.3608 6.08689 10.3805 6.22523L10.677 8.20152C10.6819 8.2361 10.6918 8.26575 10.7066 8.30033L10.8005 8.52267C10.9882 8.95745 11.0031 9.44164 10.8449 9.8863V9.89124C10.7807 10.079 10.8647 10.2914 11.0475 10.3754L12.5791 11.1215C12.673 11.1659 12.7471 11.2499 12.7817 11.3537L13.34 13.0335L12.8558 13.1966L12.2185 11.9219C12.1691 11.8181 12.0752 11.744 11.9616 11.7144L10.3805 11.3191C10.2866 11.2944 10.1928 11.3092 10.1088 11.3488L7.73724 12.5345C7.67795 12.5642 7.62361 12.6136 7.58408 12.6679L6.79357 13.8537C6.71451 13.9723 6.70463 14.1205 6.76886 14.2489L7.35187 15.4199C7.4161 15.5484 7.40621 15.6966 7.32716 15.8152L6.79357 16.6205C6.75898 16.6699 6.73922 16.7242 6.72934 16.7835L6.38349 19.2094H5.92894V16.0474C5.92894 15.9436 5.88942 15.8399 5.81531 15.7657L5.18783 15.1432C4.88151 14.8369 4.67894 14.4416 4.60977 14.0167L4.59989 13.9673C4.45167 13.0681 4.62459 12.1393 5.09396 11.3586ZM1.86274 14.58C2.3074 14.491 2.72736 14.3033 3.08803 14.0316L3.75997 13.5276C3.76985 13.7203 3.78467 13.908 3.81926 14.1007L3.82914 14.1501C3.83408 14.1847 3.83902 14.2193 3.8489 14.2539L3.63151 14.4169C2.98428 14.9011 2.11965 15.0049 1.37855 14.6788L1.86274 14.58Z" fill="#00D654"/>
<path d="M23.1078 11.9614C23.1078 11.9565 23.1078 11.9565 23.1078 11.9515C22.9794 11.1857 22.7718 10.4397 22.4803 9.71835C22.3272 9.32803 22.0406 9.00194 21.6799 8.78949C21.4724 8.62645 21.2155 8.53752 20.9537 8.53752V8.07309C21.2106 7.76183 21.3489 7.37151 21.3489 6.96637V6.85274L21.7936 6.18574C22.2333 5.52863 22.0554 4.64424 21.3983 4.20451C21.1661 4.04641 20.8894 3.96242 20.6078 3.96242H20.2867L19.7284 3.59187C19.1898 3.23119 18.4635 3.37942 18.1029 3.91795C17.9003 4.21934 17.8509 4.59483 17.9645 4.94068L18.1869 5.60768V6.96637C18.1869 7.37151 18.3252 7.76183 18.5821 8.07309V8.45847L16.5465 7.10471L15.4892 3.5721C16.0228 2.8804 15.8894 1.88732 15.1977 1.35372C14.506 0.820127 13.5129 0.953526 12.9793 1.64523C12.4457 2.33693 12.5791 3.33001 13.2708 3.86361C13.3252 3.90313 13.3845 3.94266 13.4438 3.97724V4.98021C13.4438 5.08396 13.4833 5.18772 13.5574 5.26183L13.8588 5.56321L14.2343 8.20155C14.2491 8.31025 14.3084 8.40412 14.3973 8.46835L17.1641 10.4446C17.1641 10.4446 17.1691 10.4446 17.1691 10.4496C17.1691 10.4545 17.174 10.4545 17.174 10.4545L18.1819 11.1265V12.8903H16.3044C15.593 12.8903 15.0199 13.4634 15.0199 14.1749V14.8666C15.0199 15.084 15.1977 15.2618 15.4151 15.2618H16.1118C16.1118 15.5286 16.1661 15.7954 16.2699 16.0425L16.3193 16.1561L15.0396 16.9268C14.254 17.3962 14.0021 18.414 14.4714 19.1996C14.7728 19.6986 15.3114 20.0049 15.8944 20.0049H20.1582C20.3756 20.0049 20.5535 19.827 20.5535 19.6097V18.1324C21.0624 18.3251 21.6157 18.3745 22.1444 18.2658C22.5199 18.1917 22.8707 18.0039 23.1424 17.7322C23.1622 17.7124 23.1819 17.6927 23.2017 17.668C23.592 17.2332 23.7699 16.6502 23.6809 16.0721L23.1078 11.9614ZM22.1345 13.6759V11.1956C22.2086 11.4871 22.2728 11.7786 22.3222 12.0751L22.7323 15L21.8381 14.5998C22.0307 14.333 22.1345 14.0069 22.1345 13.6759ZM21.2303 9.45155C21.3045 9.52566 21.344 9.62447 21.344 9.72823V10.914H20.5535V9.72823C20.5535 9.54048 20.6869 9.38238 20.8647 9.34285C20.9932 9.35274 21.1167 9.39226 21.2303 9.45155ZM19.2541 7.64325C19.0762 7.46538 18.9724 7.22329 18.9724 6.96637V5.94365H19.9458L20.5535 6.85274V6.96637C20.5535 7.21835 20.4546 7.46044 20.2718 7.64325C20.1977 7.71736 20.1582 7.81617 20.1582 7.92487V8.54246H19.3677V7.92487C19.3677 7.81617 19.3282 7.71736 19.2541 7.64325ZM18.7995 4.30333C18.928 4.17487 19.1305 4.15511 19.2837 4.25392L19.9408 4.6887C20.005 4.73317 20.0841 4.75293 20.1582 4.75293H20.5979C20.9487 4.75293 21.2353 5.03949 21.2353 5.39029C21.2353 5.5138 21.1958 5.63732 21.1266 5.74602L20.9438 6.01776L20.4843 5.32606C20.4102 5.21736 20.2867 5.14819 20.1533 5.14819H18.8588L18.7056 4.6887C18.6612 4.56025 18.7007 4.40708 18.7995 4.30333ZM14.2293 1.81815C14.4171 1.81815 14.595 1.88238 14.7382 2.0059C14.3529 2.10471 13.9527 2.16894 13.5525 2.19859C13.7007 1.96637 13.9527 1.82309 14.2293 1.81815ZM13.5376 2.99404C14.0317 2.9644 14.5258 2.88534 15.005 2.75689C14.9853 2.85076 14.9507 2.94463 14.9013 3.02368C14.8963 3.02368 14.8963 3.02368 14.8914 3.02368L13.9329 3.34483C13.7699 3.2806 13.6266 3.15214 13.5376 2.99404ZM17.3469 9.60471L14.9902 7.91993L14.6197 5.32112C14.6098 5.23712 14.5702 5.15807 14.506 5.09878L14.2244 4.81716V4.081L14.7531 3.90313L15.8203 7.46538C15.845 7.55432 15.9042 7.62843 15.9784 7.68278L17.9497 8.997L17.3469 9.60471ZM18.0139 10.0593L18.7452 9.32803H19.8371C19.7926 9.45649 19.7679 9.58989 19.7679 9.72329V12.8853H18.9774V10.9091C18.9774 10.7757 18.9131 10.6521 18.7995 10.578L18.0139 10.0593ZM15.8104 14.4664V14.1699C15.8104 13.8982 16.0327 13.6759 16.3044 13.6759H20.1582C20.3756 13.6759 20.5535 13.498 20.5535 13.2806V11.6996H21.344V13.6759C21.344 14.1106 20.9882 14.4664 20.5535 14.4664H15.8104ZM16.6651 18.5968C16.6206 18.661 16.6009 18.7401 16.6009 18.8142V19.2095H15.8845C15.4052 19.2095 15.0199 18.8191 15.0199 18.3448C15.0199 18.0385 15.178 17.7569 15.4398 17.6037L16.6206 16.8923L17.0752 17.9842L16.6651 18.5968ZM19.7629 19.2095H17.3914V18.9328L17.7323 18.4189H19.7629V19.2095ZM22.6187 17.1344C22.6088 17.1492 22.594 17.1591 22.5841 17.1739C22.4211 17.3369 22.2135 17.4456 21.9912 17.4901C21.596 17.5691 21.1809 17.5346 20.8054 17.3814L19.9359 17.0306L18.8983 15.578C18.7748 15.4002 18.5278 15.3557 18.3499 15.4792C18.172 15.6027 18.1276 15.8498 18.2511 16.0276C18.2511 16.0326 18.256 16.0326 18.256 16.0375L19.3924 17.6284H17.7867L16.9961 15.7361C16.9319 15.583 16.8973 15.4199 16.8973 15.2569H20.5535C20.7511 15.2569 20.9487 15.2174 21.1315 15.1482L22.8608 15.9239L22.9003 16.1857C22.9547 16.5266 22.8509 16.8774 22.6187 17.1344Z" fill="#00D654"/>
<path d="M9.68398 5.32605C9.87499 5.32605 10.0298 5.1712 10.0298 4.98019C10.0298 4.78918 9.87499 4.63434 9.68398 4.63434C9.49298 4.63434 9.33813 4.78918 9.33813 4.98019C9.33813 5.1712 9.49298 5.32605 9.68398 5.32605Z" fill="#00D654"/>
<path d="M2.88554 16.9516L3.16716 16.7836C3.35491 16.6749 3.41914 16.4328 3.31044 16.2451C3.20175 16.0573 2.95965 15.9931 2.7719 16.1018C2.7719 16.1018 2.76696 16.1018 2.76696 16.1067L2.48534 16.2747C2.02092 16.5514 1.46262 16.6206 0.943841 16.4625C0.736331 16.3982 0.513999 16.5119 0.444829 16.7194C0.375659 16.9269 0.494236 17.1492 0.701746 17.2184C0.706687 17.2184 0.711628 17.2184 0.711628 17.2233C1.43791 17.4407 2.22843 17.3419 2.88554 16.9516Z" fill="#00D654"/>
<path d="M7.22347 2.72725L6.87268 3.11757C6.44779 3.58693 6.21558 4.19958 6.21558 4.83693C6.21558 5.05432 6.39344 5.23219 6.61083 5.23219C6.82822 5.23219 7.00608 5.05432 7.00608 4.83693C7.00608 4.39721 7.16912 3.97231 7.46062 3.64622L7.81141 3.2559C7.95963 3.0978 7.94975 2.84583 7.79165 2.6976C7.63355 2.54938 7.38157 2.55927 7.23335 2.71737C7.23335 2.71737 7.22841 2.72231 7.22347 2.72725Z" fill="#00D654"/>
<path d="M15.6721 0C15.4547 0 15.2769 0.177866 15.2769 0.395257C15.2769 0.612648 15.4547 0.790514 15.6721 0.790514C16.0575 0.790514 16.4182 0.983202 16.6356 1.30929L16.6652 1.3587C16.7838 1.5415 17.0308 1.59091 17.2136 1.47233C17.3964 1.35375 17.4458 1.10672 17.3273 0.923913C17.3273 0.923913 17.3273 0.923913 17.3273 0.918972L17.2976 0.869565C16.9369 0.326087 16.3243 0 15.6721 0Z" fill="#00D654"/>
</g>
<defs>
<clipPath id="clip0">
<rect width="23.7006" height="20" fill="white"/>
</clipPath>
</defs>
</svg>
