<svg width="862" height="531" viewBox="0 0 862 531" fill="none" xmlns="http://www.w3.org/2000/svg">
<circle cx="16" cy="16" r="16" fill="white"/>
<circle cx="16" cy="64" r="16" fill="white"/>
<circle cx="16" cy="112" r="16" fill="white"/>
<circle cx="16" cy="161" r="16" fill="white"/>
<circle cx="16" cy="208" r="16" fill="white"/>
<circle cx="16" cy="323" r="16" fill="white"/>
<circle cx="16" cy="371" r="16" fill="white"/>
<circle cx="16" cy="419" r="16" fill="white"/>
<circle cx="16" cy="467" r="16" fill="white"/>
<circle cx="16" cy="515" r="16" fill="white"/>
<circle cx="477" cy="515" r="16" fill="white"/>
<circle cx="846" cy="515" r="16" fill="white"/>
<circle cx="846" cy="208" r="16" fill="white"/>
<circle cx="477" cy="468" r="16" fill="white"/>
<circle cx="846" cy="468" r="16" fill="white"/>
<circle cx="846" cy="161" r="16" fill="white"/>
<circle cx="477" cy="419" r="16" fill="white"/>
<circle cx="846" cy="419" r="16" fill="white"/>
<circle cx="846" cy="112" r="16" fill="white"/>
<circle cx="477" cy="371" r="16" fill="white"/>
<circle cx="846" cy="371" r="16" fill="white"/>
<circle cx="846" cy="64" r="16" fill="white"/>
<circle cx="477" cy="323" r="16" fill="white"/>
<circle cx="846" cy="323" r="16" fill="white"/>
<circle cx="846" cy="16" r="16" fill="white"/>
</svg>
