<svg width="167" height="14" viewBox="0 0 167 14" fill="none" xmlns="http://www.w3.org/2000/svg">
<path d="M7.91406 11H6.19141V6.57715H1.74121V11H0.0117188V1.04688H1.74121V5.18945H6.19141V1.04688H7.91406V11ZM10.7432 7.2334C10.7432 6.50879 10.8867 5.8571 11.1738 5.27832C11.4609 4.69499 11.8643 4.24837 12.3838 3.93848C12.9033 3.62402 13.5003 3.4668 14.1748 3.4668C15.1729 3.4668 15.9818 3.78809 16.6016 4.43066C17.2259 5.07324 17.5632 5.92546 17.6133 6.9873L17.6201 7.37695C17.6201 8.10612 17.4788 8.75781 17.1963 9.33203C16.9183 9.90625 16.5173 10.3506 15.9932 10.665C15.4736 10.9795 14.8721 11.1367 14.1885 11.1367C13.1449 11.1367 12.3086 10.7904 11.6797 10.0977C11.0553 9.40039 10.7432 8.47298 10.7432 7.31543V7.2334ZM12.4043 7.37695C12.4043 8.13802 12.5615 8.73503 12.876 9.16797C13.1904 9.59635 13.6279 9.81055 14.1885 9.81055C14.749 9.81055 15.1842 9.5918 15.4941 9.1543C15.8086 8.7168 15.9658 8.0765 15.9658 7.2334C15.9658 6.486 15.804 5.89355 15.4805 5.45605C15.1615 5.01855 14.7262 4.7998 14.1748 4.7998C13.6325 4.7998 13.2018 5.01628 12.8828 5.44922C12.5638 5.8776 12.4043 6.52018 12.4043 7.37695ZM24.7559 10.2754C24.2682 10.8496 23.5755 11.1367 22.6777 11.1367C21.8757 11.1367 21.2673 10.902 20.8525 10.4326C20.4424 9.96322 20.2373 9.28418 20.2373 8.39551V3.60352H21.8984V8.375C21.8984 9.3138 22.2881 9.7832 23.0674 9.7832C23.874 9.7832 24.4186 9.49382 24.7012 8.91504V3.60352H26.3623V11H24.7969L24.7559 10.2754ZM33.4502 8.99023C33.4502 8.69401 33.3271 8.46842 33.0811 8.31348C32.8395 8.15853 32.4362 8.02181 31.8711 7.90332C31.306 7.78483 30.8343 7.63444 30.4561 7.45215C29.6266 7.05111 29.2119 6.47005 29.2119 5.70898C29.2119 5.07096 29.4808 4.53776 30.0186 4.10938C30.5563 3.68099 31.2399 3.4668 32.0693 3.4668C32.9535 3.4668 33.6667 3.68555 34.209 4.12305C34.7559 4.56055 35.0293 5.12793 35.0293 5.8252H33.3682C33.3682 5.50618 33.2497 5.24186 33.0127 5.03223C32.7757 4.81803 32.4613 4.71094 32.0693 4.71094C31.7048 4.71094 31.4062 4.79525 31.1738 4.96387C30.946 5.13249 30.832 5.35807 30.832 5.64062C30.832 5.89583 30.9391 6.09408 31.1533 6.23535C31.3675 6.37663 31.8005 6.52018 32.4521 6.66602C33.1038 6.80729 33.6143 6.97819 33.9834 7.17871C34.3571 7.37467 34.6328 7.61165 34.8105 7.88965C34.9928 8.16764 35.084 8.50488 35.084 8.90137C35.084 9.56673 34.8083 10.1068 34.2568 10.5215C33.7054 10.9316 32.9831 11.1367 32.0898 11.1367C31.4837 11.1367 30.9437 11.0273 30.4697 10.8086C29.9958 10.5898 29.6266 10.2891 29.3623 9.90625C29.098 9.52344 28.9658 9.111 28.9658 8.66895H30.5791C30.6019 9.06087 30.75 9.36393 31.0234 9.57812C31.2969 9.78776 31.6592 9.89258 32.1104 9.89258C32.5479 9.89258 32.8805 9.81055 33.1084 9.64648C33.3363 9.47786 33.4502 9.25911 33.4502 8.99023ZM41.0439 11.1367C39.9912 11.1367 39.1367 10.8063 38.4805 10.1455C37.8288 9.48014 37.5029 8.59603 37.5029 7.49316V7.28809C37.5029 6.5498 37.6442 5.89128 37.9268 5.3125C38.2139 4.72917 38.6149 4.27572 39.1299 3.95215C39.6449 3.62858 40.2191 3.4668 40.8525 3.4668C41.8597 3.4668 42.6367 3.78809 43.1836 4.43066C43.735 5.07324 44.0107 5.98242 44.0107 7.1582V7.82812H39.1777C39.2279 8.4388 39.4307 8.92188 39.7861 9.27734C40.1462 9.63281 40.5973 9.81055 41.1396 9.81055C41.9007 9.81055 42.5205 9.50293 42.999 8.8877L43.8945 9.74219C43.5983 10.1842 43.2018 10.5283 42.7051 10.7744C42.2129 11.016 41.6592 11.1367 41.0439 11.1367ZM40.8457 4.7998C40.39 4.7998 40.0208 4.95931 39.7383 5.27832C39.4603 5.59733 39.2826 6.04167 39.2051 6.61133H42.3701V6.48828C42.3337 5.93229 42.1855 5.51302 41.9258 5.23047C41.666 4.94336 41.306 4.7998 40.8457 4.7998ZM56.6553 8.43652C56.6553 7.99902 56.5003 7.66178 56.1904 7.4248C55.8851 7.18783 55.3314 6.94857 54.5293 6.70703C53.7272 6.46549 53.0892 6.19661 52.6152 5.90039C51.7083 5.33073 51.2549 4.58789 51.2549 3.67188C51.2549 2.86979 51.5807 2.20898 52.2324 1.68945C52.8887 1.16992 53.7386 0.910156 54.7822 0.910156C55.4749 0.910156 56.0924 1.03776 56.6348 1.29297C57.1771 1.54818 57.6032 1.91276 57.9131 2.38672C58.223 2.85612 58.3779 3.37793 58.3779 3.95215H56.6553C56.6553 3.43262 56.4912 3.02702 56.1631 2.73535C55.8395 2.43913 55.3747 2.29102 54.7686 2.29102C54.2035 2.29102 53.7637 2.41178 53.4492 2.65332C53.1393 2.89486 52.9844 3.2321 52.9844 3.66504C52.9844 4.02962 53.153 4.33496 53.4902 4.58105C53.8275 4.82259 54.3835 5.05957 55.1582 5.29199C55.9329 5.51986 56.555 5.7819 57.0244 6.07812C57.4938 6.36979 57.8379 6.70703 58.0566 7.08984C58.2754 7.4681 58.3848 7.91243 58.3848 8.42285C58.3848 9.25228 58.0658 9.91309 57.4277 10.4053C56.7943 10.8929 55.9329 11.1367 54.8438 11.1367C54.1237 11.1367 53.4606 11.0046 52.8545 10.7402C52.2529 10.4714 51.7835 10.1022 51.4463 9.63281C51.1136 9.16341 50.9473 8.61654 50.9473 7.99219H52.6768C52.6768 8.55729 52.8636 8.99479 53.2373 9.30469C53.611 9.61458 54.1465 9.76953 54.8438 9.76953C55.4453 9.76953 55.8965 9.64876 56.1973 9.40723C56.5026 9.16113 56.6553 8.83757 56.6553 8.43652ZM62.7588 11H61.0977V3.60352H62.7588V11ZM60.9951 1.68262C60.9951 1.42741 61.0749 1.21549 61.2344 1.04688C61.3984 0.878255 61.6309 0.793945 61.9316 0.793945C62.2324 0.793945 62.4648 0.878255 62.6289 1.04688C62.793 1.21549 62.875 1.42741 62.875 1.68262C62.875 1.93327 62.793 2.1429 62.6289 2.31152C62.4648 2.47559 62.2324 2.55762 61.9316 2.55762C61.6309 2.55762 61.3984 2.47559 61.2344 2.31152C61.0749 2.1429 60.9951 1.93327 60.9951 1.68262ZM67.9053 1.80566V3.60352H69.2109V4.83398H67.9053V8.96289C67.9053 9.24544 67.96 9.45052 68.0693 9.57812C68.1833 9.70117 68.3838 9.7627 68.6709 9.7627C68.8623 9.7627 69.056 9.73991 69.252 9.69434V10.9795C68.8737 11.0843 68.5091 11.1367 68.1582 11.1367C66.8822 11.1367 66.2441 10.4326 66.2441 9.02441V4.83398H65.0273V3.60352H66.2441V1.80566H67.9053ZM73.8174 1.80566V3.60352H75.123V4.83398H73.8174V8.96289C73.8174 9.24544 73.8721 9.45052 73.9814 9.57812C74.0954 9.70117 74.2959 9.7627 74.583 9.7627C74.7744 9.7627 74.9681 9.73991 75.1641 9.69434V10.9795C74.7858 11.0843 74.4212 11.1367 74.0703 11.1367C72.7943 11.1367 72.1562 10.4326 72.1562 9.02441V4.83398H70.9395V3.60352H72.1562V1.80566H73.8174ZM79.415 11H77.7539V3.60352H79.415V11ZM77.6514 1.68262C77.6514 1.42741 77.7311 1.21549 77.8906 1.04688C78.0547 0.878255 78.2871 0.793945 78.5879 0.793945C78.8887 0.793945 79.1211 0.878255 79.2852 1.04688C79.4492 1.21549 79.5312 1.42741 79.5312 1.68262C79.5312 1.93327 79.4492 2.1429 79.2852 2.31152C79.1211 2.47559 78.8887 2.55762 78.5879 2.55762C78.2871 2.55762 78.0547 2.47559 77.8906 2.31152C77.7311 2.1429 77.6514 1.93327 77.6514 1.68262ZM84.0215 3.60352L84.0693 4.45801C84.6162 3.7972 85.334 3.4668 86.2227 3.4668C87.763 3.4668 88.5469 4.34863 88.5742 6.1123V11H86.9131V6.20801C86.9131 5.73861 86.8105 5.39225 86.6055 5.16895C86.4049 4.94108 86.0745 4.82715 85.6143 4.82715C84.9443 4.82715 84.4453 5.13021 84.1172 5.73633V11H82.4561V3.60352H84.0215ZM91.2324 7.24707C91.2324 6.09863 91.5013 5.18262 92.0391 4.49902C92.5814 3.81087 93.2992 3.4668 94.1924 3.4668C95.0355 3.4668 95.6986 3.76074 96.1816 4.34863L96.2568 3.60352H97.7539V10.7744C97.7539 11.7451 97.4508 12.5107 96.8447 13.0713C96.2432 13.6318 95.4297 13.9121 94.4043 13.9121C93.862 13.9121 93.3311 13.7982 92.8115 13.5703C92.2965 13.347 91.9046 13.0531 91.6357 12.6885L92.4219 11.6904C92.9323 12.2965 93.5612 12.5996 94.3086 12.5996C94.86 12.5996 95.2952 12.4492 95.6143 12.1484C95.9333 11.8522 96.0928 11.4147 96.0928 10.8359V10.3369C95.6143 10.8701 94.9762 11.1367 94.1787 11.1367C93.3128 11.1367 92.6042 10.7926 92.0527 10.1045C91.5059 9.41634 91.2324 8.46387 91.2324 7.24707ZM92.8867 7.39062C92.8867 8.13346 93.0371 8.71908 93.3379 9.14746C93.6432 9.57129 94.0648 9.7832 94.6025 9.7832C95.2725 9.7832 95.7692 9.49609 96.0928 8.92188V5.66797C95.7783 5.10742 95.2861 4.82715 94.6162 4.82715C94.0693 4.82715 93.6432 5.04362 93.3379 5.47656C93.0371 5.90951 92.8867 6.54753 92.8867 7.39062ZM110.815 8.43652C110.815 7.99902 110.66 7.66178 110.351 7.4248C110.045 7.18783 109.492 6.94857 108.689 6.70703C107.887 6.46549 107.249 6.19661 106.775 5.90039C105.868 5.33073 105.415 4.58789 105.415 3.67188C105.415 2.86979 105.741 2.20898 106.393 1.68945C107.049 1.16992 107.899 0.910156 108.942 0.910156C109.635 0.910156 110.253 1.03776 110.795 1.29297C111.337 1.54818 111.763 1.91276 112.073 2.38672C112.383 2.85612 112.538 3.37793 112.538 3.95215H110.815C110.815 3.43262 110.651 3.02702 110.323 2.73535C110 2.43913 109.535 2.29102 108.929 2.29102C108.364 2.29102 107.924 2.41178 107.609 2.65332C107.299 2.89486 107.145 3.2321 107.145 3.66504C107.145 4.02962 107.313 4.33496 107.65 4.58105C107.988 4.82259 108.544 5.05957 109.318 5.29199C110.093 5.51986 110.715 5.7819 111.185 6.07812C111.654 6.36979 111.998 6.70703 112.217 7.08984C112.436 7.4681 112.545 7.91243 112.545 8.42285C112.545 9.25228 112.226 9.91309 111.588 10.4053C110.954 10.8929 110.093 11.1367 109.004 11.1367C108.284 11.1367 107.621 11.0046 107.015 10.7402C106.413 10.4714 105.944 10.1022 105.606 9.63281C105.274 9.16341 105.107 8.61654 105.107 7.99219H106.837C106.837 8.55729 107.024 8.99479 107.397 9.30469C107.771 9.61458 108.307 9.76953 109.004 9.76953C109.605 9.76953 110.057 9.64876 110.357 9.40723C110.663 9.16113 110.815 8.83757 110.815 8.43652ZM118.409 11.1367C117.356 11.1367 116.502 10.8063 115.846 10.1455C115.194 9.48014 114.868 8.59603 114.868 7.49316V7.28809C114.868 6.5498 115.009 5.89128 115.292 5.3125C115.579 4.72917 115.98 4.27572 116.495 3.95215C117.01 3.62858 117.584 3.4668 118.218 3.4668C119.225 3.4668 120.002 3.78809 120.549 4.43066C121.1 5.07324 121.376 5.98242 121.376 7.1582V7.82812H116.543C116.593 8.4388 116.796 8.92188 117.151 9.27734C117.511 9.63281 117.963 9.81055 118.505 9.81055C119.266 9.81055 119.886 9.50293 120.364 8.8877L121.26 9.74219C120.964 10.1842 120.567 10.5283 120.07 10.7744C119.578 11.016 119.024 11.1367 118.409 11.1367ZM118.211 4.7998C117.755 4.7998 117.386 4.95931 117.104 5.27832C116.826 5.59733 116.648 6.04167 116.57 6.61133H119.735V6.48828C119.699 5.93229 119.551 5.51302 119.291 5.23047C119.031 4.94336 118.671 4.7998 118.211 4.7998ZM127.794 5.12109C127.575 5.08464 127.35 5.06641 127.117 5.06641C126.356 5.06641 125.843 5.35807 125.579 5.94141V11H123.918V3.60352H125.504L125.545 4.43066C125.946 3.78809 126.502 3.4668 127.213 3.4668C127.45 3.4668 127.646 3.4987 127.801 3.5625L127.794 5.12109ZM132.824 8.89453L134.39 3.60352H136.105L133.542 11H132.1L129.516 3.60352H131.238L132.824 8.89453ZM140.165 11H138.504V3.60352H140.165V11ZM138.401 1.68262C138.401 1.42741 138.481 1.21549 138.641 1.04688C138.805 0.878255 139.037 0.793945 139.338 0.793945C139.639 0.793945 139.871 0.878255 140.035 1.04688C140.199 1.21549 140.281 1.42741 140.281 1.68262C140.281 1.93327 140.199 2.1429 140.035 2.31152C139.871 2.47559 139.639 2.55762 139.338 2.55762C139.037 2.55762 138.805 2.47559 138.641 2.31152C138.481 2.1429 138.401 1.93327 138.401 1.68262ZM146.269 9.81055C146.683 9.81055 147.027 9.68978 147.301 9.44824C147.574 9.20671 147.72 8.9082 147.738 8.55273H149.304C149.285 9.01302 149.142 9.44368 148.873 9.84473C148.604 10.2412 148.24 10.5557 147.779 10.7881C147.319 11.0205 146.822 11.1367 146.289 11.1367C145.255 11.1367 144.434 10.8018 143.828 10.1318C143.222 9.46191 142.919 8.53678 142.919 7.35645V7.18555C142.919 6.0599 143.22 5.15983 143.821 4.48535C144.423 3.80632 145.243 3.4668 146.282 3.4668C147.162 3.4668 147.877 3.72428 148.429 4.23926C148.985 4.74967 149.276 5.42188 149.304 6.25586H147.738C147.72 5.83203 147.574 5.4834 147.301 5.20996C147.032 4.93652 146.688 4.7998 146.269 4.7998C145.731 4.7998 145.316 4.99577 145.024 5.3877C144.733 5.77507 144.585 6.36523 144.58 7.1582V7.4248C144.58 8.22689 144.724 8.82617 145.011 9.22266C145.302 9.61458 145.722 9.81055 146.269 9.81055ZM155.065 11.1367C154.013 11.1367 153.158 10.8063 152.502 10.1455C151.85 9.48014 151.524 8.59603 151.524 7.49316V7.28809C151.524 6.5498 151.666 5.89128 151.948 5.3125C152.235 4.72917 152.636 4.27572 153.151 3.95215C153.666 3.62858 154.241 3.4668 154.874 3.4668C155.881 3.4668 156.658 3.78809 157.205 4.43066C157.757 5.07324 158.032 5.98242 158.032 7.1582V7.82812H153.199C153.249 8.4388 153.452 8.92188 153.808 9.27734C154.168 9.63281 154.619 9.81055 155.161 9.81055C155.922 9.81055 156.542 9.50293 157.021 8.8877L157.916 9.74219C157.62 10.1842 157.223 10.5283 156.727 10.7744C156.234 11.016 155.681 11.1367 155.065 11.1367ZM154.867 4.7998C154.411 4.7998 154.042 4.95931 153.76 5.27832C153.482 5.59733 153.304 6.04167 153.227 6.61133H156.392V6.48828C156.355 5.93229 156.207 5.51302 155.947 5.23047C155.688 4.94336 155.327 4.7998 154.867 4.7998ZM164.724 8.99023C164.724 8.69401 164.601 8.46842 164.354 8.31348C164.113 8.15853 163.71 8.02181 163.145 7.90332C162.579 7.78483 162.108 7.63444 161.729 7.45215C160.9 7.05111 160.485 6.47005 160.485 5.70898C160.485 5.07096 160.754 4.53776 161.292 4.10938C161.83 3.68099 162.513 3.4668 163.343 3.4668C164.227 3.4668 164.94 3.68555 165.482 4.12305C166.029 4.56055 166.303 5.12793 166.303 5.8252H164.642C164.642 5.50618 164.523 5.24186 164.286 5.03223C164.049 4.81803 163.735 4.71094 163.343 4.71094C162.978 4.71094 162.68 4.79525 162.447 4.96387C162.219 5.13249 162.105 5.35807 162.105 5.64062C162.105 5.89583 162.213 6.09408 162.427 6.23535C162.641 6.37663 163.074 6.52018 163.726 6.66602C164.377 6.80729 164.888 6.97819 165.257 7.17871C165.631 7.37467 165.906 7.61165 166.084 7.88965C166.266 8.16764 166.357 8.50488 166.357 8.90137C166.357 9.56673 166.082 10.1068 165.53 10.5215C164.979 10.9316 164.257 11.1367 163.363 11.1367C162.757 11.1367 162.217 11.0273 161.743 10.8086C161.269 10.5898 160.9 10.2891 160.636 9.90625C160.371 9.52344 160.239 9.111 160.239 8.66895H161.853C161.875 9.06087 162.023 9.36393 162.297 9.57812C162.57 9.78776 162.933 9.89258 163.384 9.89258C163.821 9.89258 164.154 9.81055 164.382 9.64648C164.61 9.47786 164.724 9.25911 164.724 8.99023Z" fill="#2C7973"/>
</svg>
