<svg width="29" height="8" viewBox="0 0 29 8" fill="none" xmlns="http://www.w3.org/2000/svg">
<path d="M0.308594 3.84766C0.308594 3.43359 0.390625 3.0612 0.554688 2.73047C0.71875 2.39714 0.949219 2.14193 1.24609 1.96484C1.54297 1.78516 1.88411 1.69531 2.26953 1.69531C2.83984 1.69531 3.30208 1.87891 3.65625 2.24609C4.01302 2.61328 4.20573 3.10026 4.23438 3.70703L4.23828 3.92969C4.23828 4.34635 4.15755 4.71875 3.99609 5.04688C3.83724 5.375 3.60807 5.62891 3.30859 5.80859C3.01172 5.98828 2.66797 6.07812 2.27734 6.07812C1.68099 6.07812 1.20312 5.88021 0.84375 5.48438C0.486979 5.08594 0.308594 4.55599 0.308594 3.89453V3.84766ZM1.25781 3.92969C1.25781 4.36458 1.34766 4.70573 1.52734 4.95312C1.70703 5.19792 1.95703 5.32031 2.27734 5.32031C2.59766 5.32031 2.84635 5.19531 3.02344 4.94531C3.20312 4.69531 3.29297 4.32943 3.29297 3.84766C3.29297 3.42057 3.20052 3.08203 3.01562 2.83203C2.83333 2.58203 2.58464 2.45703 2.26953 2.45703C1.95964 2.45703 1.71354 2.58073 1.53125 2.82812C1.34896 3.07292 1.25781 3.4401 1.25781 3.92969ZM8.74219 3.92969C8.74219 4.58333 8.59375 5.10547 8.29688 5.49609C8 5.88411 7.60156 6.07812 7.10156 6.07812C6.63802 6.07812 6.26693 5.92578 5.98828 5.62109V7.625H5.03906V1.77344H5.91406L5.95312 2.20312C6.23177 1.86458 6.61068 1.69531 7.08984 1.69531C7.60547 1.69531 8.00911 1.88802 8.30078 2.27344C8.59505 2.65625 8.74219 3.1888 8.74219 3.87109V3.92969ZM7.79688 3.84766C7.79688 3.42578 7.71224 3.09115 7.54297 2.84375C7.3763 2.59635 7.13672 2.47266 6.82422 2.47266C6.4362 2.47266 6.15755 2.63281 5.98828 2.95312V4.82812C6.16016 5.15625 6.44141 5.32031 6.83203 5.32031C7.13411 5.32031 7.36979 5.19922 7.53906 4.95703C7.71094 4.71224 7.79688 4.34245 7.79688 3.84766ZM10.7383 0.746094V1.77344H11.4844V2.47656H10.7383V4.83594C10.7383 4.9974 10.7695 5.11458 10.832 5.1875C10.8971 5.25781 11.0117 5.29297 11.1758 5.29297C11.2852 5.29297 11.3958 5.27995 11.5078 5.25391V5.98828C11.2917 6.04818 11.0833 6.07812 10.8828 6.07812C10.1536 6.07812 9.78906 5.67578 9.78906 4.87109V2.47656H9.09375V1.77344H9.78906V0.746094H10.7383ZM13.2227 6H12.2734V1.77344H13.2227V6ZM12.2148 0.675781C12.2148 0.529948 12.2604 0.408854 12.3516 0.3125C12.4453 0.216146 12.5781 0.167969 12.75 0.167969C12.9219 0.167969 13.0547 0.216146 13.1484 0.3125C13.2422 0.408854 13.2891 0.529948 13.2891 0.675781C13.2891 0.81901 13.2422 0.938802 13.1484 1.03516C13.0547 1.12891 12.9219 1.17578 12.75 1.17578C12.5781 1.17578 12.4453 1.12891 12.3516 1.03516C12.2604 0.938802 12.2148 0.81901 12.2148 0.675781ZM14.082 3.84766C14.082 3.43359 14.1641 3.0612 14.3281 2.73047C14.4922 2.39714 14.7227 2.14193 15.0195 1.96484C15.3164 1.78516 15.6576 1.69531 16.043 1.69531C16.6133 1.69531 17.0755 1.87891 17.4297 2.24609C17.7865 2.61328 17.9792 3.10026 18.0078 3.70703L18.0117 3.92969C18.0117 4.34635 17.931 4.71875 17.7695 5.04688C17.6107 5.375 17.3815 5.62891 17.082 5.80859C16.7852 5.98828 16.4414 6.07812 16.0508 6.07812C15.4544 6.07812 14.9766 5.88021 14.6172 5.48438C14.2604 5.08594 14.082 4.55599 14.082 3.89453V3.84766ZM15.0312 3.92969C15.0312 4.36458 15.1211 4.70573 15.3008 4.95312C15.4805 5.19792 15.7305 5.32031 16.0508 5.32031C16.3711 5.32031 16.6198 5.19531 16.7969 4.94531C16.9766 4.69531 17.0664 4.32943 17.0664 3.84766C17.0664 3.42057 16.974 3.08203 16.7891 2.83203C16.6068 2.58203 16.3581 2.45703 16.043 2.45703C15.7331 2.45703 15.487 2.58073 15.3047 2.82812C15.1224 3.07292 15.0312 3.4401 15.0312 3.92969ZM19.6953 1.77344L19.7227 2.26172C20.0352 1.88411 20.4453 1.69531 20.9531 1.69531C21.8333 1.69531 22.2812 2.19922 22.2969 3.20703V6H21.3477V3.26172C21.3477 2.99349 21.2891 2.79557 21.1719 2.66797C21.0573 2.53776 20.8685 2.47266 20.6055 2.47266C20.2227 2.47266 19.9375 2.64583 19.75 2.99219V6H18.8008V1.77344H19.6953ZM25.793 6C25.7513 5.91927 25.7148 5.78776 25.6836 5.60547C25.3815 5.92057 25.0117 6.07812 24.5742 6.07812C24.1497 6.07812 23.8034 5.95703 23.5352 5.71484C23.2669 5.47266 23.1328 5.17318 23.1328 4.81641C23.1328 4.36589 23.2995 4.02083 23.6328 3.78125C23.9688 3.53906 24.4479 3.41797 25.0703 3.41797H25.6523V3.14062C25.6523 2.92188 25.5911 2.7474 25.4688 2.61719C25.3464 2.48438 25.1602 2.41797 24.9102 2.41797C24.694 2.41797 24.5169 2.47266 24.3789 2.58203C24.2409 2.6888 24.1719 2.82552 24.1719 2.99219H23.2227C23.2227 2.76042 23.2995 2.54427 23.4531 2.34375C23.6068 2.14062 23.8151 1.98177 24.0781 1.86719C24.3438 1.7526 24.6393 1.69531 24.9648 1.69531C25.4596 1.69531 25.8542 1.82031 26.1484 2.07031C26.4427 2.31771 26.5938 2.66667 26.6016 3.11719V5.02344C26.6016 5.40365 26.6549 5.70703 26.7617 5.93359V6H25.793ZM24.75 5.31641C24.9375 5.31641 25.1133 5.27083 25.2773 5.17969C25.444 5.08854 25.569 4.96615 25.6523 4.8125V4.01562H25.1406C24.7891 4.01562 24.5247 4.07682 24.3477 4.19922C24.1706 4.32161 24.082 4.49479 24.082 4.71875C24.082 4.90104 24.1419 5.04688 24.2617 5.15625C24.3841 5.26302 24.5469 5.31641 24.75 5.31641ZM28.6055 6H27.6562V0H28.6055V6Z" fill="black"/>
</svg>
