<svg width="82" height="12" viewBox="0 0 82 12" fill="none" xmlns="http://www.w3.org/2000/svg">
<path d="M1.74121 7.30176V11H0.0117188V1.04688H3.81934C4.93132 1.04688 5.81315 1.33626 6.46484 1.91504C7.12109 2.49382 7.44922 3.25944 7.44922 4.21191C7.44922 5.18717 7.12793 5.94596 6.48535 6.48828C5.84733 7.0306 4.95182 7.30176 3.79883 7.30176H1.74121ZM1.74121 5.91406H3.81934C4.43457 5.91406 4.90397 5.77051 5.22754 5.4834C5.55111 5.19173 5.71289 4.77246 5.71289 4.22559C5.71289 3.68783 5.54883 3.25944 5.2207 2.94043C4.89258 2.61686 4.44141 2.45052 3.86719 2.44141H1.74121V5.91406ZM13.2178 11.1367C12.165 11.1367 11.3105 10.8063 10.6543 10.1455C10.0026 9.48014 9.67676 8.59603 9.67676 7.49316V7.28809C9.67676 6.5498 9.81803 5.89128 10.1006 5.3125C10.3877 4.72917 10.7887 4.27572 11.3037 3.95215C11.8187 3.62858 12.3929 3.4668 13.0264 3.4668C14.0335 3.4668 14.8105 3.78809 15.3574 4.43066C15.9089 5.07324 16.1846 5.98242 16.1846 7.1582V7.82812H11.3516C11.4017 8.4388 11.6045 8.92188 11.96 9.27734C12.32 9.63281 12.7712 9.81055 13.3135 9.81055C14.0745 9.81055 14.6943 9.50293 15.1729 8.8877L16.0684 9.74219C15.7721 10.1842 15.3757 10.5283 14.8789 10.7744C14.3867 11.016 13.833 11.1367 13.2178 11.1367ZM13.0195 4.7998C12.5638 4.7998 12.1947 4.95931 11.9121 5.27832C11.6341 5.59733 11.4564 6.04167 11.3789 6.61133H14.5439V6.48828C14.5075 5.93229 14.3594 5.51302 14.0996 5.23047C13.8398 4.94336 13.4798 4.7998 13.0195 4.7998ZM20.8115 1.80566V3.60352H22.1172V4.83398H20.8115V8.96289C20.8115 9.24544 20.8662 9.45052 20.9756 9.57812C21.0895 9.70117 21.29 9.7627 21.5771 9.7627C21.7686 9.7627 21.9622 9.73991 22.1582 9.69434V10.9795C21.7799 11.0843 21.4154 11.1367 21.0645 11.1367C19.7884 11.1367 19.1504 10.4326 19.1504 9.02441V4.83398H17.9336V3.60352H19.1504V1.80566H20.8115ZM37.4824 6.2832C37.4824 7.25846 37.3138 8.11523 36.9766 8.85352C36.6393 9.58724 36.1562 10.1523 35.5273 10.5488C34.903 10.9408 34.1829 11.1367 33.3672 11.1367C32.5605 11.1367 31.8405 10.9408 31.207 10.5488C30.5781 10.1523 30.0905 9.58952 29.7441 8.86035C29.4023 8.13118 29.2292 7.29036 29.2246 6.33789V5.77734C29.2246 4.80664 29.3955 3.94987 29.7373 3.20703C30.0837 2.46419 30.569 1.89681 31.1934 1.50488C31.8223 1.1084 32.5423 0.910156 33.3535 0.910156C34.1647 0.910156 34.8825 1.10612 35.5068 1.49805C36.1357 1.88542 36.6211 2.44596 36.9629 3.17969C37.3047 3.90885 37.4779 4.75879 37.4824 5.72949V6.2832ZM35.7529 5.76367C35.7529 4.66081 35.5433 3.81543 35.124 3.22754C34.7093 2.63965 34.1191 2.3457 33.3535 2.3457C32.6061 2.3457 32.0205 2.63965 31.5967 3.22754C31.1774 3.81087 30.9632 4.63802 30.9541 5.70898V6.2832C30.9541 7.37695 31.166 8.22233 31.5898 8.81934C32.0182 9.41634 32.6107 9.71484 33.3672 9.71484C34.1328 9.71484 34.7207 9.42318 35.1309 8.83984C35.5456 8.25651 35.7529 7.4043 35.7529 6.2832V5.76367ZM52.8203 9.70801C52.4603 10.1774 51.9613 10.5329 51.3232 10.7744C50.6852 11.016 49.9606 11.1367 49.1494 11.1367C48.3154 11.1367 47.5771 10.9476 46.9346 10.5693C46.292 10.1911 45.7952 9.65104 45.4443 8.94922C45.098 8.24284 44.918 7.42025 44.9043 6.48145V5.70215C44.9043 4.19824 45.2643 3.02474 45.9844 2.18164C46.7044 1.33398 47.7093 0.910156 48.999 0.910156C50.1064 0.910156 50.986 1.18359 51.6377 1.73047C52.2894 2.27734 52.6813 3.06576 52.8135 4.0957H51.1182C50.9268 2.89714 50.2318 2.29785 49.0332 2.29785C48.2585 2.29785 47.6683 2.57812 47.2627 3.13867C46.8617 3.69466 46.6543 4.5127 46.6406 5.59277V6.3584C46.6406 7.43392 46.8662 8.27018 47.3174 8.86719C47.7731 9.45964 48.4043 9.75586 49.2109 9.75586C50.0951 9.75586 50.724 9.55534 51.0977 9.1543V7.20605H49.0469V5.89355H52.8203V9.70801ZM59.6826 5.12109C59.4639 5.08464 59.2383 5.06641 59.0059 5.06641C58.2448 5.06641 57.7321 5.35807 57.4678 5.94141V11H55.8066V3.60352H57.3926L57.4336 4.43066C57.8346 3.78809 58.3906 3.4668 59.1016 3.4668C59.3385 3.4668 59.5345 3.4987 59.6895 3.5625L59.6826 5.12109ZM66.1963 11C66.1234 10.8587 66.0596 10.6286 66.0049 10.3096C65.4762 10.861 64.8291 11.1367 64.0635 11.1367C63.3206 11.1367 62.7145 10.9248 62.2451 10.501C61.7757 10.0771 61.541 9.55306 61.541 8.92871C61.541 8.1403 61.8327 7.53646 62.416 7.11719C63.0039 6.69336 63.8424 6.48145 64.9316 6.48145H65.9502V5.99609C65.9502 5.61328 65.8431 5.30794 65.6289 5.08008C65.4147 4.84766 65.0889 4.73145 64.6514 4.73145C64.2731 4.73145 63.9632 4.82715 63.7217 5.01855C63.4801 5.2054 63.3594 5.44466 63.3594 5.73633H61.6982C61.6982 5.33073 61.8327 4.95247 62.1016 4.60156C62.3704 4.24609 62.735 3.9681 63.1953 3.76758C63.6602 3.56706 64.1774 3.4668 64.7471 3.4668C65.613 3.4668 66.3034 3.68555 66.8184 4.12305C67.3333 4.55599 67.5977 5.16667 67.6113 5.95508V9.29102C67.6113 9.95638 67.7048 10.4873 67.8916 10.8838V11H66.1963ZM64.3711 9.80371C64.6992 9.80371 65.0068 9.72396 65.2939 9.56445C65.5856 9.40495 65.8044 9.19076 65.9502 8.92188V7.52734H65.0547C64.4395 7.52734 63.9769 7.63444 63.667 7.84863C63.3571 8.06283 63.2021 8.36589 63.2021 8.75781C63.2021 9.07682 63.307 9.33203 63.5166 9.52344C63.7308 9.71029 64.0156 9.80371 64.3711 9.80371ZM72.1631 3.60352L72.2109 4.37598C72.7305 3.76986 73.4414 3.4668 74.3438 3.4668C75.3327 3.4668 76.0094 3.84505 76.374 4.60156C76.9118 3.84505 77.6683 3.4668 78.6436 3.4668C79.4593 3.4668 80.0654 3.69238 80.4619 4.14355C80.863 4.59473 81.068 5.26009 81.0771 6.13965V11H79.416V6.1875C79.416 5.7181 79.3135 5.37402 79.1084 5.15527C78.9033 4.93652 78.5638 4.82715 78.0898 4.82715C77.7116 4.82715 77.4017 4.92969 77.1602 5.13477C76.9232 5.33529 76.7568 5.59961 76.6611 5.92773L76.668 11H75.0068V6.13281C74.984 5.26237 74.5397 4.82715 73.6738 4.82715C73.0085 4.82715 72.5368 5.09831 72.2588 5.64062V11H70.5977V3.60352H72.1631Z" fill="#2C7973"/>
</svg>
