<svg width="139" height="12" viewBox="0 0 139 12" fill="none" xmlns="http://www.w3.org/2000/svg">
<path d="M1.74121 7.30176V11H0.0117188V1.04688H3.81934C4.93132 1.04688 5.81315 1.33626 6.46484 1.91504C7.12109 2.49382 7.44922 3.25944 7.44922 4.21191C7.44922 5.18717 7.12793 5.94596 6.48535 6.48828C5.84733 7.0306 4.95182 7.30176 3.79883 7.30176H1.74121ZM1.74121 5.91406H3.81934C4.43457 5.91406 4.90397 5.77051 5.22754 5.4834C5.55111 5.19173 5.71289 4.77246 5.71289 4.22559C5.71289 3.68783 5.54883 3.25944 5.2207 2.94043C4.89258 2.61686 4.44141 2.45052 3.86719 2.44141H1.74121V5.91406ZM13.2178 11.1367C12.165 11.1367 11.3105 10.8063 10.6543 10.1455C10.0026 9.48014 9.67676 8.59603 9.67676 7.49316V7.28809C9.67676 6.5498 9.81803 5.89128 10.1006 5.3125C10.3877 4.72917 10.7887 4.27572 11.3037 3.95215C11.8187 3.62858 12.3929 3.4668 13.0264 3.4668C14.0335 3.4668 14.8105 3.78809 15.3574 4.43066C15.9089 5.07324 16.1846 5.98242 16.1846 7.1582V7.82812H11.3516C11.4017 8.4388 11.6045 8.92188 11.96 9.27734C12.32 9.63281 12.7712 9.81055 13.3135 9.81055C14.0745 9.81055 14.6943 9.50293 15.1729 8.8877L16.0684 9.74219C15.7721 10.1842 15.3757 10.5283 14.8789 10.7744C14.3867 11.016 13.833 11.1367 13.2178 11.1367ZM13.0195 4.7998C12.5638 4.7998 12.1947 4.95931 11.9121 5.27832C11.6341 5.59733 11.4564 6.04167 11.3789 6.61133H14.5439V6.48828C14.5075 5.93229 14.3594 5.51302 14.0996 5.23047C13.8398 4.94336 13.4798 4.7998 13.0195 4.7998ZM20.8115 1.80566V3.60352H22.1172V4.83398H20.8115V8.96289C20.8115 9.24544 20.8662 9.45052 20.9756 9.57812C21.0895 9.70117 21.29 9.7627 21.5771 9.7627C21.7686 9.7627 21.9622 9.73991 22.1582 9.69434V10.9795C21.7799 11.0843 21.4154 11.1367 21.0645 11.1367C19.7884 11.1367 19.1504 10.4326 19.1504 9.02441V4.83398H17.9336V3.60352H19.1504V1.80566H20.8115ZM31.2686 7.30176V11H29.5391V1.04688H33.3467C34.4587 1.04688 35.3405 1.33626 35.9922 1.91504C36.6484 2.49382 36.9766 3.25944 36.9766 4.21191C36.9766 5.18717 36.6553 5.94596 36.0127 6.48828C35.3747 7.0306 34.4792 7.30176 33.3262 7.30176H31.2686ZM31.2686 5.91406H33.3467C33.9619 5.91406 34.4313 5.77051 34.7549 5.4834C35.0785 5.19173 35.2402 4.77246 35.2402 4.22559C35.2402 3.68783 35.0762 3.25944 34.748 2.94043C34.4199 2.61686 33.9688 2.45052 33.3945 2.44141H31.2686V5.91406ZM43.9209 11C43.848 10.8587 43.7842 10.6286 43.7295 10.3096C43.2008 10.861 42.5537 11.1367 41.7881 11.1367C41.0452 11.1367 40.4391 10.9248 39.9697 10.501C39.5003 10.0771 39.2656 9.55306 39.2656 8.92871C39.2656 8.1403 39.5573 7.53646 40.1406 7.11719C40.7285 6.69336 41.5671 6.48145 42.6562 6.48145H43.6748V5.99609C43.6748 5.61328 43.5677 5.30794 43.3535 5.08008C43.1393 4.84766 42.8135 4.73145 42.376 4.73145C41.9977 4.73145 41.6878 4.82715 41.4463 5.01855C41.2048 5.2054 41.084 5.44466 41.084 5.73633H39.4229C39.4229 5.33073 39.5573 4.95247 39.8262 4.60156C40.0951 4.24609 40.4596 3.9681 40.9199 3.76758C41.3848 3.56706 41.902 3.4668 42.4717 3.4668C43.3376 3.4668 44.028 3.68555 44.543 4.12305C45.0579 4.55599 45.3223 5.16667 45.3359 5.95508V9.29102C45.3359 9.95638 45.4294 10.4873 45.6162 10.8838V11H43.9209ZM42.0957 9.80371C42.4238 9.80371 42.7314 9.72396 43.0186 9.56445C43.3102 9.40495 43.529 9.19076 43.6748 8.92188V7.52734H42.7793C42.1641 7.52734 41.7015 7.63444 41.3916 7.84863C41.0817 8.06283 40.9268 8.36589 40.9268 8.75781C40.9268 9.07682 41.0316 9.33203 41.2412 9.52344C41.4554 9.71029 41.7402 9.80371 42.0957 9.80371ZM52.1982 5.12109C51.9795 5.08464 51.7539 5.06641 51.5215 5.06641C50.7604 5.06641 50.2477 5.35807 49.9834 5.94141V11H48.3223V3.60352H49.9082L49.9492 4.43066C50.3503 3.78809 50.9062 3.4668 51.6172 3.4668C51.8542 3.4668 52.0501 3.4987 52.2051 3.5625L52.1982 5.12109ZM56.9004 7.82812L56.1621 8.58691V11H54.501V0.5H56.1621V6.55664L56.6816 5.90723L58.7256 3.60352H60.7217L57.9736 6.68652L61.0156 11H59.0947L56.9004 7.82812ZM69.6885 9.61914H74.207V11H67.959V1.04688H69.6885V9.61914ZM76.3115 7.2334C76.3115 6.50879 76.4551 5.8571 76.7422 5.27832C77.0293 4.69499 77.4326 4.24837 77.9521 3.93848C78.4717 3.62402 79.0687 3.4668 79.7432 3.4668C80.7412 3.4668 81.5501 3.78809 82.1699 4.43066C82.7943 5.07324 83.1315 5.92546 83.1816 6.9873L83.1885 7.37695C83.1885 8.10612 83.0472 8.75781 82.7646 9.33203C82.4867 9.90625 82.0856 10.3506 81.5615 10.665C81.042 10.9795 80.4404 11.1367 79.7568 11.1367C78.7132 11.1367 77.877 10.7904 77.248 10.0977C76.6237 9.40039 76.3115 8.47298 76.3115 7.31543V7.2334ZM77.9727 7.37695C77.9727 8.13802 78.1299 8.73503 78.4443 9.16797C78.7588 9.59635 79.1963 9.81055 79.7568 9.81055C80.3174 9.81055 80.7526 9.5918 81.0625 9.1543C81.377 8.7168 81.5342 8.0765 81.5342 7.2334C81.5342 6.486 81.3724 5.89355 81.0488 5.45605C80.7298 5.01855 80.2946 4.7998 79.7432 4.7998C79.2008 4.7998 78.7702 5.01628 78.4512 5.44922C78.1322 5.8776 77.9727 6.52018 77.9727 7.37695ZM88.8818 9.81055C89.2965 9.81055 89.6406 9.68978 89.9141 9.44824C90.1875 9.20671 90.3333 8.9082 90.3516 8.55273H91.917C91.8988 9.01302 91.7552 9.44368 91.4863 9.84473C91.2174 10.2412 90.8529 10.5557 90.3926 10.7881C89.9323 11.0205 89.4355 11.1367 88.9023 11.1367C87.8678 11.1367 87.0475 10.8018 86.4414 10.1318C85.8353 9.46191 85.5322 8.53678 85.5322 7.35645V7.18555C85.5322 6.0599 85.833 5.15983 86.4346 4.48535C87.0361 3.80632 87.8564 3.4668 88.8955 3.4668C89.7751 3.4668 90.4906 3.72428 91.042 4.23926C91.598 4.74967 91.8896 5.42188 91.917 6.25586H90.3516C90.3333 5.83203 90.1875 5.4834 89.9141 5.20996C89.6452 4.93652 89.3011 4.7998 88.8818 4.7998C88.3441 4.7998 87.9294 4.99577 87.6377 5.3877C87.346 5.77507 87.1979 6.36523 87.1934 7.1582V7.4248C87.1934 8.22689 87.3369 8.82617 87.624 9.22266C87.9157 9.61458 88.335 9.81055 88.8818 9.81055ZM98.8408 11C98.7679 10.8587 98.7041 10.6286 98.6494 10.3096C98.1208 10.861 97.4736 11.1367 96.708 11.1367C95.9652 11.1367 95.359 10.9248 94.8896 10.501C94.4202 10.0771 94.1855 9.55306 94.1855 8.92871C94.1855 8.1403 94.4772 7.53646 95.0605 7.11719C95.6484 6.69336 96.487 6.48145 97.5762 6.48145H98.5947V5.99609C98.5947 5.61328 98.4876 5.30794 98.2734 5.08008C98.0592 4.84766 97.7334 4.73145 97.2959 4.73145C96.9176 4.73145 96.6077 4.82715 96.3662 5.01855C96.1247 5.2054 96.0039 5.44466 96.0039 5.73633H94.3428C94.3428 5.33073 94.4772 4.95247 94.7461 4.60156C95.015 4.24609 95.3796 3.9681 95.8398 3.76758C96.3047 3.56706 96.8219 3.4668 97.3916 3.4668C98.2575 3.4668 98.9479 3.68555 99.4629 4.12305C99.9779 4.55599 100.242 5.16667 100.256 5.95508V9.29102C100.256 9.95638 100.349 10.4873 100.536 10.8838V11H98.8408ZM97.0156 9.80371C97.3438 9.80371 97.6514 9.72396 97.9385 9.56445C98.2301 9.40495 98.4489 9.19076 98.5947 8.92188V7.52734H97.6992C97.084 7.52734 96.6214 7.63444 96.3115 7.84863C96.0016 8.06283 95.8467 8.36589 95.8467 8.75781C95.8467 9.07682 95.9515 9.33203 96.1611 9.52344C96.3753 9.71029 96.6602 9.80371 97.0156 9.80371ZM105.327 1.80566V3.60352H106.633V4.83398H105.327V8.96289C105.327 9.24544 105.382 9.45052 105.491 9.57812C105.605 9.70117 105.806 9.7627 106.093 9.7627C106.284 9.7627 106.478 9.73991 106.674 9.69434V10.9795C106.296 11.0843 105.931 11.1367 105.58 11.1367C104.304 11.1367 103.666 10.4326 103.666 9.02441V4.83398H102.449V3.60352H103.666V1.80566H105.327ZM110.925 11H109.264V3.60352H110.925V11ZM109.161 1.68262C109.161 1.42741 109.241 1.21549 109.4 1.04688C109.564 0.878255 109.797 0.793945 110.098 0.793945C110.398 0.793945 110.631 0.878255 110.795 1.04688C110.959 1.21549 111.041 1.42741 111.041 1.68262C111.041 1.93327 110.959 2.1429 110.795 2.31152C110.631 2.47559 110.398 2.55762 110.098 2.55762C109.797 2.55762 109.564 2.47559 109.4 2.31152C109.241 2.1429 109.161 1.93327 109.161 1.68262ZM113.679 7.2334C113.679 6.50879 113.822 5.8571 114.109 5.27832C114.396 4.69499 114.8 4.24837 115.319 3.93848C115.839 3.62402 116.436 3.4668 117.11 3.4668C118.108 3.4668 118.917 3.78809 119.537 4.43066C120.161 5.07324 120.499 5.92546 120.549 6.9873L120.556 7.37695C120.556 8.10612 120.414 8.75781 120.132 9.33203C119.854 9.90625 119.453 10.3506 118.929 10.665C118.409 10.9795 117.808 11.1367 117.124 11.1367C116.08 11.1367 115.244 10.7904 114.615 10.0977C113.991 9.40039 113.679 8.47298 113.679 7.31543V7.2334ZM115.34 7.37695C115.34 8.13802 115.497 8.73503 115.812 9.16797C116.126 9.59635 116.563 9.81055 117.124 9.81055C117.685 9.81055 118.12 9.5918 118.43 9.1543C118.744 8.7168 118.901 8.0765 118.901 7.2334C118.901 6.486 118.74 5.89355 118.416 5.45605C118.097 5.01855 117.662 4.7998 117.11 4.7998C116.568 4.7998 116.137 5.01628 115.818 5.44922C115.499 5.8776 115.34 6.52018 115.34 7.37695ZM124.752 3.60352L124.8 4.45801C125.347 3.7972 126.064 3.4668 126.953 3.4668C128.493 3.4668 129.277 4.34863 129.305 6.1123V11H127.644V6.20801C127.644 5.73861 127.541 5.39225 127.336 5.16895C127.135 4.94108 126.805 4.82715 126.345 4.82715C125.675 4.82715 125.176 5.13021 124.848 5.73633V11H123.187V3.60352H124.752ZM136.399 8.99023C136.399 8.69401 136.276 8.46842 136.03 8.31348C135.789 8.15853 135.385 8.02181 134.82 7.90332C134.255 7.78483 133.784 7.63444 133.405 7.45215C132.576 7.05111 132.161 6.47005 132.161 5.70898C132.161 5.07096 132.43 4.53776 132.968 4.10938C133.506 3.68099 134.189 3.4668 135.019 3.4668C135.903 3.4668 136.616 3.68555 137.158 4.12305C137.705 4.56055 137.979 5.12793 137.979 5.8252H136.317C136.317 5.50618 136.199 5.24186 135.962 5.03223C135.725 4.81803 135.41 4.71094 135.019 4.71094C134.654 4.71094 134.355 4.79525 134.123 4.96387C133.895 5.13249 133.781 5.35807 133.781 5.64062C133.781 5.89583 133.888 6.09408 134.103 6.23535C134.317 6.37663 134.75 6.52018 135.401 6.66602C136.053 6.80729 136.563 6.97819 136.933 7.17871C137.306 7.37467 137.582 7.61165 137.76 7.88965C137.942 8.16764 138.033 8.50488 138.033 8.90137C138.033 9.56673 137.757 10.1068 137.206 10.5215C136.655 10.9316 135.932 11.1367 135.039 11.1367C134.433 11.1367 133.893 11.0273 133.419 10.8086C132.945 10.5898 132.576 10.2891 132.312 9.90625C132.047 9.52344 131.915 9.111 131.915 8.66895H133.528C133.551 9.06087 133.699 9.36393 133.973 9.57812C134.246 9.78776 134.608 9.89258 135.06 9.89258C135.497 9.89258 135.83 9.81055 136.058 9.64648C136.285 9.47786 136.399 9.25911 136.399 8.99023Z" fill="#2C7973"/>
</svg>
