<svg width="55" height="12" viewBox="0 0 55 12" fill="none" xmlns="http://www.w3.org/2000/svg">
<path d="M1.74121 7.30176V11H0.0117188V1.04688H3.81934C4.93132 1.04688 5.81315 1.33626 6.46484 1.91504C7.12109 2.49382 7.44922 3.25944 7.44922 4.21191C7.44922 5.18717 7.12793 5.94596 6.48535 6.48828C5.84733 7.0306 4.95182 7.30176 3.79883 7.30176H1.74121ZM1.74121 5.91406H3.81934C4.43457 5.91406 4.90397 5.77051 5.22754 5.4834C5.55111 5.19173 5.71289 4.77246 5.71289 4.22559C5.71289 3.68783 5.54883 3.25944 5.2207 2.94043C4.89258 2.61686 4.44141 2.45052 3.86719 2.44141H1.74121V5.91406ZM13.2178 11.1367C12.165 11.1367 11.3105 10.8063 10.6543 10.1455C10.0026 9.48014 9.67676 8.59603 9.67676 7.49316V7.28809C9.67676 6.5498 9.81803 5.89128 10.1006 5.3125C10.3877 4.72917 10.7887 4.27572 11.3037 3.95215C11.8187 3.62858 12.3929 3.4668 13.0264 3.4668C14.0335 3.4668 14.8105 3.78809 15.3574 4.43066C15.9089 5.07324 16.1846 5.98242 16.1846 7.1582V7.82812H11.3516C11.4017 8.4388 11.6045 8.92188 11.96 9.27734C12.32 9.63281 12.7712 9.81055 13.3135 9.81055C14.0745 9.81055 14.6943 9.50293 15.1729 8.8877L16.0684 9.74219C15.7721 10.1842 15.3757 10.5283 14.8789 10.7744C14.3867 11.016 13.833 11.1367 13.2178 11.1367ZM13.0195 4.7998C12.5638 4.7998 12.1947 4.95931 11.9121 5.27832C11.6341 5.59733 11.4564 6.04167 11.3789 6.61133H14.5439V6.48828C14.5075 5.93229 14.3594 5.51302 14.0996 5.23047C13.8398 4.94336 13.4798 4.7998 13.0195 4.7998ZM20.8115 1.80566V3.60352H22.1172V4.83398H20.8115V8.96289C20.8115 9.24544 20.8662 9.45052 20.9756 9.57812C21.0895 9.70117 21.29 9.7627 21.5771 9.7627C21.7686 9.7627 21.9622 9.73991 22.1582 9.69434V10.9795C21.7799 11.0843 21.4154 11.1367 21.0645 11.1367C19.7884 11.1367 19.1504 10.4326 19.1504 9.02441V4.83398H17.9336V3.60352H19.1504V1.80566H20.8115ZM31.2686 7.30176V11H29.5391V1.04688H33.3467C34.4587 1.04688 35.3405 1.33626 35.9922 1.91504C36.6484 2.49382 36.9766 3.25944 36.9766 4.21191C36.9766 5.18717 36.6553 5.94596 36.0127 6.48828C35.3747 7.0306 34.4792 7.30176 33.3262 7.30176H31.2686ZM31.2686 5.91406H33.3467C33.9619 5.91406 34.4313 5.77051 34.7549 5.4834C35.0785 5.19173 35.2402 4.77246 35.2402 4.22559C35.2402 3.68783 35.0762 3.25944 34.748 2.94043C34.4199 2.61686 33.9688 2.45052 33.3945 2.44141H31.2686V5.91406ZM43.9209 11C43.848 10.8587 43.7842 10.6286 43.7295 10.3096C43.2008 10.861 42.5537 11.1367 41.7881 11.1367C41.0452 11.1367 40.4391 10.9248 39.9697 10.501C39.5003 10.0771 39.2656 9.55306 39.2656 8.92871C39.2656 8.1403 39.5573 7.53646 40.1406 7.11719C40.7285 6.69336 41.5671 6.48145 42.6562 6.48145H43.6748V5.99609C43.6748 5.61328 43.5677 5.30794 43.3535 5.08008C43.1393 4.84766 42.8135 4.73145 42.376 4.73145C41.9977 4.73145 41.6878 4.82715 41.4463 5.01855C41.2048 5.2054 41.084 5.44466 41.084 5.73633H39.4229C39.4229 5.33073 39.5573 4.95247 39.8262 4.60156C40.0951 4.24609 40.4596 3.9681 40.9199 3.76758C41.3848 3.56706 41.902 3.4668 42.4717 3.4668C43.3376 3.4668 44.028 3.68555 44.543 4.12305C45.0579 4.55599 45.3223 5.16667 45.3359 5.95508V9.29102C45.3359 9.95638 45.4294 10.4873 45.6162 10.8838V11H43.9209ZM42.0957 9.80371C42.4238 9.80371 42.7314 9.72396 43.0186 9.56445C43.3102 9.40495 43.529 9.19076 43.6748 8.92188V7.52734H42.7793C42.1641 7.52734 41.7015 7.63444 41.3916 7.84863C41.0817 8.06283 40.9268 8.36589 40.9268 8.75781C40.9268 9.07682 41.0316 9.33203 41.2412 9.52344C41.4554 9.71029 41.7402 9.80371 42.0957 9.80371ZM48.0146 7.24707C48.0146 6.10775 48.279 5.19401 48.8076 4.50586C49.3363 3.81315 50.0449 3.4668 50.9336 3.4668C51.7174 3.4668 52.3509 3.74023 52.834 4.28711V0.5H54.4951V11H52.9912L52.9092 10.2344C52.4124 10.8359 51.7493 11.1367 50.9199 11.1367C50.054 11.1367 49.3522 10.7881 48.8145 10.0908C48.2812 9.39355 48.0146 8.44564 48.0146 7.24707ZM49.6758 7.39062C49.6758 8.14258 49.8193 8.73047 50.1064 9.1543C50.3981 9.57357 50.8105 9.7832 51.3438 9.7832C52.0228 9.7832 52.5195 9.48014 52.834 8.87402V5.71582C52.5286 5.12337 52.0365 4.82715 51.3574 4.82715C50.8197 4.82715 50.4049 5.04134 50.1133 5.46973C49.8216 5.89355 49.6758 6.53385 49.6758 7.39062Z" fill="#2C7973"/>
</svg>
