<svg width="156" height="14" viewBox="0 0 156 14" fill="none" xmlns="http://www.w3.org/2000/svg">
<path d="M1.74121 7.30176V11H0.0117188V1.04688H3.81934C4.93132 1.04688 5.81315 1.33626 6.46484 1.91504C7.12109 2.49382 7.44922 3.25944 7.44922 4.21191C7.44922 5.18717 7.12793 5.94596 6.48535 6.48828C5.84733 7.0306 4.95182 7.30176 3.79883 7.30176H1.74121ZM1.74121 5.91406H3.81934C4.43457 5.91406 4.90397 5.77051 5.22754 5.4834C5.55111 5.19173 5.71289 4.77246 5.71289 4.22559C5.71289 3.68783 5.54883 3.25944 5.2207 2.94043C4.89258 2.61686 4.44141 2.45052 3.86719 2.44141H1.74121V5.91406ZM13.2178 11.1367C12.165 11.1367 11.3105 10.8063 10.6543 10.1455C10.0026 9.48014 9.67676 8.59603 9.67676 7.49316V7.28809C9.67676 6.5498 9.81803 5.89128 10.1006 5.3125C10.3877 4.72917 10.7887 4.27572 11.3037 3.95215C11.8187 3.62858 12.3929 3.4668 13.0264 3.4668C14.0335 3.4668 14.8105 3.78809 15.3574 4.43066C15.9089 5.07324 16.1846 5.98242 16.1846 7.1582V7.82812H11.3516C11.4017 8.4388 11.6045 8.92188 11.96 9.27734C12.32 9.63281 12.7712 9.81055 13.3135 9.81055C14.0745 9.81055 14.6943 9.50293 15.1729 8.8877L16.0684 9.74219C15.7721 10.1842 15.3757 10.5283 14.8789 10.7744C14.3867 11.016 13.833 11.1367 13.2178 11.1367ZM13.0195 4.7998C12.5638 4.7998 12.1947 4.95931 11.9121 5.27832C11.6341 5.59733 11.4564 6.04167 11.3789 6.61133H14.5439V6.48828C14.5075 5.93229 14.3594 5.51302 14.0996 5.23047C13.8398 4.94336 13.4798 4.7998 13.0195 4.7998ZM20.8115 1.80566V3.60352H22.1172V4.83398H20.8115V8.96289C20.8115 9.24544 20.8662 9.45052 20.9756 9.57812C21.0895 9.70117 21.29 9.7627 21.5771 9.7627C21.7686 9.7627 21.9622 9.73991 22.1582 9.69434V10.9795C21.7799 11.0843 21.4154 11.1367 21.0645 11.1367C19.7884 11.1367 19.1504 10.4326 19.1504 9.02441V4.83398H17.9336V3.60352H19.1504V1.80566H20.8115ZM36.3203 2.44141H33.2168V11H31.501V2.44141H28.4248V1.04688H36.3203V2.44141ZM42.1436 5.12109C41.9248 5.08464 41.6992 5.06641 41.4668 5.06641C40.7057 5.06641 40.193 5.35807 39.9287 5.94141V11H38.2676V3.60352H39.8535L39.8945 4.43066C40.2956 3.78809 40.8516 3.4668 41.5625 3.4668C41.7995 3.4668 41.9954 3.4987 42.1504 3.5625L42.1436 5.12109ZM48.6572 11C48.5843 10.8587 48.5205 10.6286 48.4658 10.3096C47.9372 10.861 47.29 11.1367 46.5244 11.1367C45.7816 11.1367 45.1755 10.9248 44.7061 10.501C44.2367 10.0771 44.002 9.55306 44.002 8.92871C44.002 8.1403 44.2936 7.53646 44.877 7.11719C45.4648 6.69336 46.3034 6.48145 47.3926 6.48145H48.4111V5.99609C48.4111 5.61328 48.304 5.30794 48.0898 5.08008C47.8757 4.84766 47.5498 4.73145 47.1123 4.73145C46.734 4.73145 46.4242 4.82715 46.1826 5.01855C45.9411 5.2054 45.8203 5.44466 45.8203 5.73633H44.1592C44.1592 5.33073 44.2936 4.95247 44.5625 4.60156C44.8314 4.24609 45.196 3.9681 45.6562 3.76758C46.1211 3.56706 46.6383 3.4668 47.208 3.4668C48.0739 3.4668 48.7643 3.68555 49.2793 4.12305C49.7943 4.55599 50.0586 5.16667 50.0723 5.95508V9.29102C50.0723 9.95638 50.1657 10.4873 50.3525 10.8838V11H48.6572ZM46.832 9.80371C47.1602 9.80371 47.4678 9.72396 47.7549 9.56445C48.0465 9.40495 48.2653 9.19076 48.4111 8.92188V7.52734H47.5156C46.9004 7.52734 46.4378 7.63444 46.1279 7.84863C45.818 8.06283 45.6631 8.36589 45.6631 8.75781C45.6631 9.07682 45.7679 9.33203 45.9775 9.52344C46.1917 9.71029 46.4766 9.80371 46.832 9.80371ZM54.8291 11H53.168V3.60352H54.8291V11ZM53.0654 1.68262C53.0654 1.42741 53.1452 1.21549 53.3047 1.04688C53.4688 0.878255 53.7012 0.793945 54.002 0.793945C54.3027 0.793945 54.5352 0.878255 54.6992 1.04688C54.8633 1.21549 54.9453 1.42741 54.9453 1.68262C54.9453 1.93327 54.8633 2.1429 54.6992 2.31152C54.5352 2.47559 54.3027 2.55762 54.002 2.55762C53.7012 2.55762 53.4688 2.47559 53.3047 2.31152C53.1452 2.1429 53.0654 1.93327 53.0654 1.68262ZM59.4355 3.60352L59.4834 4.45801C60.0303 3.7972 60.748 3.4668 61.6367 3.4668C63.1771 3.4668 63.9609 4.34863 63.9883 6.1123V11H62.3271V6.20801C62.3271 5.73861 62.2246 5.39225 62.0195 5.16895C61.819 4.94108 61.4886 4.82715 61.0283 4.82715C60.3584 4.82715 59.8594 5.13021 59.5312 5.73633V11H57.8701V3.60352H59.4355ZM68.7041 11H67.043V3.60352H68.7041V11ZM66.9404 1.68262C66.9404 1.42741 67.0202 1.21549 67.1797 1.04688C67.3438 0.878255 67.5762 0.793945 67.877 0.793945C68.1777 0.793945 68.4102 0.878255 68.5742 1.04688C68.7383 1.21549 68.8203 1.42741 68.8203 1.68262C68.8203 1.93327 68.7383 2.1429 68.5742 2.31152C68.4102 2.47559 68.1777 2.55762 67.877 2.55762C67.5762 2.55762 67.3438 2.47559 67.1797 2.31152C67.0202 2.1429 66.9404 1.93327 66.9404 1.68262ZM73.3105 3.60352L73.3584 4.45801C73.9053 3.7972 74.623 3.4668 75.5117 3.4668C77.0521 3.4668 77.8359 4.34863 77.8633 6.1123V11H76.2021V6.20801C76.2021 5.73861 76.0996 5.39225 75.8945 5.16895C75.694 4.94108 75.3636 4.82715 74.9033 4.82715C74.2334 4.82715 73.7344 5.13021 73.4062 5.73633V11H71.7451V3.60352H73.3105ZM80.5215 7.24707C80.5215 6.09863 80.7904 5.18262 81.3281 4.49902C81.8704 3.81087 82.5882 3.4668 83.4814 3.4668C84.3245 3.4668 84.9876 3.76074 85.4707 4.34863L85.5459 3.60352H87.043V10.7744C87.043 11.7451 86.7399 12.5107 86.1338 13.0713C85.5322 13.6318 84.7188 13.9121 83.6934 13.9121C83.151 13.9121 82.6201 13.7982 82.1006 13.5703C81.5856 13.347 81.1937 13.0531 80.9248 12.6885L81.7109 11.6904C82.2214 12.2965 82.8503 12.5996 83.5977 12.5996C84.1491 12.5996 84.5843 12.4492 84.9033 12.1484C85.2223 11.8522 85.3818 11.4147 85.3818 10.8359V10.3369C84.9033 10.8701 84.2653 11.1367 83.4678 11.1367C82.6019 11.1367 81.8932 10.7926 81.3418 10.1045C80.7949 9.41634 80.5215 8.46387 80.5215 7.24707ZM82.1758 7.39062C82.1758 8.13346 82.3262 8.71908 82.627 9.14746C82.9323 9.57129 83.3538 9.7832 83.8916 9.7832C84.5615 9.7832 85.0583 9.49609 85.3818 8.92188V5.66797C85.0674 5.10742 84.5752 4.82715 83.9053 4.82715C83.3584 4.82715 82.9323 5.04362 82.627 5.47656C82.3262 5.90951 82.1758 6.54753 82.1758 7.39062ZM100.104 8.43652C100.104 7.99902 99.9495 7.66178 99.6396 7.4248C99.3343 7.18783 98.7806 6.94857 97.9785 6.70703C97.1764 6.46549 96.5384 6.19661 96.0645 5.90039C95.1576 5.33073 94.7041 4.58789 94.7041 3.67188C94.7041 2.86979 95.0299 2.20898 95.6816 1.68945C96.3379 1.16992 97.1878 0.910156 98.2314 0.910156C98.9242 0.910156 99.5417 1.03776 100.084 1.29297C100.626 1.54818 101.052 1.91276 101.362 2.38672C101.672 2.85612 101.827 3.37793 101.827 3.95215H100.104C100.104 3.43262 99.9404 3.02702 99.6123 2.73535C99.2887 2.43913 98.8239 2.29102 98.2178 2.29102C97.6527 2.29102 97.2129 2.41178 96.8984 2.65332C96.5885 2.89486 96.4336 3.2321 96.4336 3.66504C96.4336 4.02962 96.6022 4.33496 96.9395 4.58105C97.2767 4.82259 97.8327 5.05957 98.6074 5.29199C99.3822 5.51986 100.004 5.7819 100.474 6.07812C100.943 6.36979 101.287 6.70703 101.506 7.08984C101.725 7.4681 101.834 7.91243 101.834 8.42285C101.834 9.25228 101.515 9.91309 100.877 10.4053C100.243 10.8929 99.3822 11.1367 98.293 11.1367C97.5729 11.1367 96.9098 11.0046 96.3037 10.7402C95.7021 10.4714 95.2327 10.1022 94.8955 9.63281C94.5628 9.16341 94.3965 8.61654 94.3965 7.99219H96.126C96.126 8.55729 96.3128 8.99479 96.6865 9.30469C97.0602 9.61458 97.5957 9.76953 98.293 9.76953C98.8945 9.76953 99.3457 9.64876 99.6465 9.40723C99.9518 9.16113 100.104 8.83757 100.104 8.43652ZM107.698 11.1367C106.646 11.1367 105.791 10.8063 105.135 10.1455C104.483 9.48014 104.157 8.59603 104.157 7.49316V7.28809C104.157 6.5498 104.299 5.89128 104.581 5.3125C104.868 4.72917 105.269 4.27572 105.784 3.95215C106.299 3.62858 106.873 3.4668 107.507 3.4668C108.514 3.4668 109.291 3.78809 109.838 4.43066C110.389 5.07324 110.665 5.98242 110.665 7.1582V7.82812H105.832C105.882 8.4388 106.085 8.92188 106.44 9.27734C106.8 9.63281 107.252 9.81055 107.794 9.81055C108.555 9.81055 109.175 9.50293 109.653 8.8877L110.549 9.74219C110.253 10.1842 109.856 10.5283 109.359 10.7744C108.867 11.016 108.313 11.1367 107.698 11.1367ZM107.5 4.7998C107.044 4.7998 106.675 4.95931 106.393 5.27832C106.115 5.59733 105.937 6.04167 105.859 6.61133H109.024V6.48828C108.988 5.93229 108.84 5.51302 108.58 5.23047C108.32 4.94336 107.96 4.7998 107.5 4.7998ZM117.083 5.12109C116.864 5.08464 116.639 5.06641 116.406 5.06641C115.645 5.06641 115.132 5.35807 114.868 5.94141V11H113.207V3.60352H114.793L114.834 4.43066C115.235 3.78809 115.791 3.4668 116.502 3.4668C116.739 3.4668 116.935 3.4987 117.09 3.5625L117.083 5.12109ZM122.113 8.89453L123.679 3.60352H125.395L122.831 11H121.389L118.805 3.60352H120.527L122.113 8.89453ZM129.454 11H127.793V3.60352H129.454V11ZM127.69 1.68262C127.69 1.42741 127.77 1.21549 127.93 1.04688C128.094 0.878255 128.326 0.793945 128.627 0.793945C128.928 0.793945 129.16 0.878255 129.324 1.04688C129.488 1.21549 129.57 1.42741 129.57 1.68262C129.57 1.93327 129.488 2.1429 129.324 2.31152C129.16 2.47559 128.928 2.55762 128.627 2.55762C128.326 2.55762 128.094 2.47559 127.93 2.31152C127.77 2.1429 127.69 1.93327 127.69 1.68262ZM135.558 9.81055C135.972 9.81055 136.316 9.68978 136.59 9.44824C136.863 9.20671 137.009 8.9082 137.027 8.55273H138.593C138.575 9.01302 138.431 9.44368 138.162 9.84473C137.893 10.2412 137.529 10.5557 137.068 10.7881C136.608 11.0205 136.111 11.1367 135.578 11.1367C134.544 11.1367 133.723 10.8018 133.117 10.1318C132.511 9.46191 132.208 8.53678 132.208 7.35645V7.18555C132.208 6.0599 132.509 5.15983 133.11 4.48535C133.712 3.80632 134.532 3.4668 135.571 3.4668C136.451 3.4668 137.166 3.72428 137.718 4.23926C138.274 4.74967 138.565 5.42188 138.593 6.25586H137.027C137.009 5.83203 136.863 5.4834 136.59 5.20996C136.321 4.93652 135.977 4.7998 135.558 4.7998C135.02 4.7998 134.605 4.99577 134.313 5.3877C134.022 5.77507 133.874 6.36523 133.869 7.1582V7.4248C133.869 8.22689 134.013 8.82617 134.3 9.22266C134.591 9.61458 135.011 9.81055 135.558 9.81055ZM144.354 11.1367C143.302 11.1367 142.447 10.8063 141.791 10.1455C141.139 9.48014 140.813 8.59603 140.813 7.49316V7.28809C140.813 6.5498 140.955 5.89128 141.237 5.3125C141.524 4.72917 141.925 4.27572 142.44 3.95215C142.955 3.62858 143.53 3.4668 144.163 3.4668C145.17 3.4668 145.947 3.78809 146.494 4.43066C147.046 5.07324 147.321 5.98242 147.321 7.1582V7.82812H142.488C142.538 8.4388 142.741 8.92188 143.097 9.27734C143.457 9.63281 143.908 9.81055 144.45 9.81055C145.211 9.81055 145.831 9.50293 146.31 8.8877L147.205 9.74219C146.909 10.1842 146.512 10.5283 146.016 10.7744C145.523 11.016 144.97 11.1367 144.354 11.1367ZM144.156 4.7998C143.701 4.7998 143.331 4.95931 143.049 5.27832C142.771 5.59733 142.593 6.04167 142.516 6.61133H145.681V6.48828C145.644 5.93229 145.496 5.51302 145.236 5.23047C144.977 4.94336 144.617 4.7998 144.156 4.7998ZM154.013 8.99023C154.013 8.69401 153.89 8.46842 153.644 8.31348C153.402 8.15853 152.999 8.02181 152.434 7.90332C151.868 7.78483 151.397 7.63444 151.019 7.45215C150.189 7.05111 149.774 6.47005 149.774 5.70898C149.774 5.07096 150.043 4.53776 150.581 4.10938C151.119 3.68099 151.802 3.4668 152.632 3.4668C153.516 3.4668 154.229 3.68555 154.771 4.12305C155.318 4.56055 155.592 5.12793 155.592 5.8252H153.931C153.931 5.50618 153.812 5.24186 153.575 5.03223C153.338 4.81803 153.024 4.71094 152.632 4.71094C152.267 4.71094 151.969 4.79525 151.736 4.96387C151.508 5.13249 151.395 5.35807 151.395 5.64062C151.395 5.89583 151.502 6.09408 151.716 6.23535C151.93 6.37663 152.363 6.52018 153.015 6.66602C153.666 6.80729 154.177 6.97819 154.546 7.17871C154.92 7.37467 155.195 7.61165 155.373 7.88965C155.555 8.16764 155.646 8.50488 155.646 8.90137C155.646 9.56673 155.371 10.1068 154.819 10.5215C154.268 10.9316 153.546 11.1367 152.652 11.1367C152.046 11.1367 151.506 11.0273 151.032 10.8086C150.558 10.5898 150.189 10.2891 149.925 9.90625C149.66 9.52344 149.528 9.111 149.528 8.66895H151.142C151.164 9.06087 151.312 9.36393 151.586 9.57812C151.859 9.78776 152.222 9.89258 152.673 9.89258C153.11 9.89258 153.443 9.81055 153.671 9.64648C153.899 9.47786 154.013 9.25911 154.013 8.99023Z" fill="#2C7973"/>
</svg>
