<svg width="76" height="11" viewBox="0 0 76 11" fill="none" xmlns="http://www.w3.org/2000/svg">
<path d="M1.74121 6.30176V10H0.0117188V0.046875H3.81934C4.93132 0.046875 5.81315 0.336263 6.46484 0.915039C7.12109 1.49382 7.44922 2.25944 7.44922 3.21191C7.44922 4.18717 7.12793 4.94596 6.48535 5.48828C5.84733 6.0306 4.95182 6.30176 3.79883 6.30176H1.74121ZM1.74121 4.91406H3.81934C4.43457 4.91406 4.90397 4.77051 5.22754 4.4834C5.55111 4.19173 5.71289 3.77246 5.71289 3.22559C5.71289 2.68783 5.54883 2.25944 5.2207 1.94043C4.89258 1.61686 4.44141 1.45052 3.86719 1.44141H1.74121V4.91406ZM13.2178 10.1367C12.165 10.1367 11.3105 9.80632 10.6543 9.14551C10.0026 8.48014 9.67676 7.59603 9.67676 6.49316V6.28809C9.67676 5.5498 9.81803 4.89128 10.1006 4.3125C10.3877 3.72917 10.7887 3.27572 11.3037 2.95215C11.8187 2.62858 12.3929 2.4668 13.0264 2.4668C14.0335 2.4668 14.8105 2.78809 15.3574 3.43066C15.9089 4.07324 16.1846 4.98242 16.1846 6.1582V6.82812H11.3516C11.4017 7.4388 11.6045 7.92188 11.96 8.27734C12.32 8.63281 12.7712 8.81055 13.3135 8.81055C14.0745 8.81055 14.6943 8.50293 15.1729 7.8877L16.0684 8.74219C15.7721 9.18424 15.3757 9.52832 14.8789 9.77441C14.3867 10.016 13.833 10.1367 13.2178 10.1367ZM13.0195 3.7998C12.5638 3.7998 12.1947 3.95931 11.9121 4.27832C11.6341 4.59733 11.4564 5.04167 11.3789 5.61133H14.5439V5.48828C14.5075 4.93229 14.3594 4.51302 14.0996 4.23047C13.8398 3.94336 13.4798 3.7998 13.0195 3.7998ZM20.8115 0.805664V2.60352H22.1172V3.83398H20.8115V7.96289C20.8115 8.24544 20.8662 8.45052 20.9756 8.57812C21.0895 8.70117 21.29 8.7627 21.5771 8.7627C21.7686 8.7627 21.9622 8.73991 22.1582 8.69434V9.97949C21.7799 10.0843 21.4154 10.1367 21.0645 10.1367C19.7884 10.1367 19.1504 9.43262 19.1504 8.02441V3.83398H17.9336V2.60352H19.1504V0.805664H20.8115ZM35.3564 5.55664H31.2686V8.61914H36.0469V10H29.5391V0.046875H35.999V1.44141H31.2686V4.18945H35.3564V5.55664ZM40.9746 7.89453L42.54 2.60352H44.2559L41.6924 10H40.25L37.666 2.60352H39.3887L40.9746 7.89453ZM49.71 10.1367C48.6572 10.1367 47.8027 9.80632 47.1465 9.14551C46.4948 8.48014 46.1689 7.59603 46.1689 6.49316V6.28809C46.1689 5.5498 46.3102 4.89128 46.5928 4.3125C46.8799 3.72917 47.2809 3.27572 47.7959 2.95215C48.3109 2.62858 48.8851 2.4668 49.5186 2.4668C50.5257 2.4668 51.3027 2.78809 51.8496 3.43066C52.401 4.07324 52.6768 4.98242 52.6768 6.1582V6.82812H47.8438C47.8939 7.4388 48.0967 7.92188 48.4521 8.27734C48.8122 8.63281 49.2633 8.81055 49.8057 8.81055C50.5667 8.81055 51.1865 8.50293 51.665 7.8877L52.5605 8.74219C52.2643 9.18424 51.8678 9.52832 51.3711 9.77441C50.8789 10.016 50.3252 10.1367 49.71 10.1367ZM49.5117 3.7998C49.056 3.7998 48.6868 3.95931 48.4043 4.27832C48.1263 4.59733 47.9486 5.04167 47.8711 5.61133H51.0361V5.48828C50.9997 4.93229 50.8516 4.51302 50.5918 4.23047C50.332 3.94336 49.972 3.7998 49.5117 3.7998ZM56.7637 2.60352L56.8115 3.45801C57.3584 2.7972 58.0762 2.4668 58.9648 2.4668C60.5052 2.4668 61.2891 3.34863 61.3164 5.1123V10H59.6553V5.20801C59.6553 4.73861 59.5527 4.39225 59.3477 4.16895C59.1471 3.94108 58.8167 3.82715 58.3564 3.82715C57.6865 3.82715 57.1875 4.13021 56.8594 4.73633V10H55.1982V2.60352H56.7637ZM66.3467 0.805664V2.60352H67.6523V3.83398H66.3467V7.96289C66.3467 8.24544 66.4014 8.45052 66.5107 8.57812C66.6247 8.70117 66.8252 8.7627 67.1123 8.7627C67.3037 8.7627 67.4974 8.73991 67.6934 8.69434V9.97949C67.3151 10.0843 66.9505 10.1367 66.5996 10.1367C65.3236 10.1367 64.6855 9.43262 64.6855 8.02441V3.83398H63.4688V2.60352H64.6855V0.805664H66.3467ZM74.3232 7.99023C74.3232 7.69401 74.2002 7.46842 73.9541 7.31348C73.7126 7.15853 73.3092 7.02181 72.7441 6.90332C72.179 6.78483 71.7074 6.63444 71.3291 6.45215C70.4997 6.05111 70.085 5.47005 70.085 4.70898C70.085 4.07096 70.3538 3.53776 70.8916 3.10938C71.4294 2.68099 72.113 2.4668 72.9424 2.4668C73.8265 2.4668 74.5397 2.68555 75.082 3.12305C75.6289 3.56055 75.9023 4.12793 75.9023 4.8252H74.2412C74.2412 4.50618 74.1227 4.24186 73.8857 4.03223C73.6488 3.81803 73.3343 3.71094 72.9424 3.71094C72.5778 3.71094 72.2793 3.79525 72.0469 3.96387C71.819 4.13249 71.7051 4.35807 71.7051 4.64062C71.7051 4.89583 71.8122 5.09408 72.0264 5.23535C72.2406 5.37663 72.6735 5.52018 73.3252 5.66602C73.9769 5.80729 74.4873 5.97819 74.8564 6.17871C75.2301 6.37467 75.5059 6.61165 75.6836 6.88965C75.8659 7.16764 75.957 7.50488 75.957 7.90137C75.957 8.56673 75.6813 9.10677 75.1299 9.52148C74.5785 9.93164 73.8561 10.1367 72.9629 10.1367C72.3568 10.1367 71.8167 10.0273 71.3428 9.80859C70.8688 9.58984 70.4997 9.28906 70.2354 8.90625C69.971 8.52344 69.8389 8.111 69.8389 7.66895H71.4521C71.4749 8.06087 71.623 8.36393 71.8965 8.57812C72.1699 8.78776 72.5322 8.89258 72.9834 8.89258C73.4209 8.89258 73.7536 8.81055 73.9814 8.64648C74.2093 8.47786 74.3232 8.25911 74.3232 7.99023Z" fill="#2C7973"/>
</svg>
