<svg width="63" height="12" viewBox="0 0 63 12" fill="none" xmlns="http://www.w3.org/2000/svg">
<path d="M1.74121 7.30176V11H0.0117188V1.04688H3.81934C4.93132 1.04688 5.81315 1.33626 6.46484 1.91504C7.12109 2.49382 7.44922 3.25944 7.44922 4.21191C7.44922 5.18717 7.12793 5.94596 6.48535 6.48828C5.84733 7.0306 4.95182 7.30176 3.79883 7.30176H1.74121ZM1.74121 5.91406H3.81934C4.43457 5.91406 4.90397 5.77051 5.22754 5.4834C5.55111 5.19173 5.71289 4.77246 5.71289 4.22559C5.71289 3.68783 5.54883 3.25944 5.2207 2.94043C4.89258 2.61686 4.44141 2.45052 3.86719 2.44141H1.74121V5.91406ZM13.2178 11.1367C12.165 11.1367 11.3105 10.8063 10.6543 10.1455C10.0026 9.48014 9.67676 8.59603 9.67676 7.49316V7.28809C9.67676 6.5498 9.81803 5.89128 10.1006 5.3125C10.3877 4.72917 10.7887 4.27572 11.3037 3.95215C11.8187 3.62858 12.3929 3.4668 13.0264 3.4668C14.0335 3.4668 14.8105 3.78809 15.3574 4.43066C15.9089 5.07324 16.1846 5.98242 16.1846 7.1582V7.82812H11.3516C11.4017 8.4388 11.6045 8.92188 11.96 9.27734C12.32 9.63281 12.7712 9.81055 13.3135 9.81055C14.0745 9.81055 14.6943 9.50293 15.1729 8.8877L16.0684 9.74219C15.7721 10.1842 15.3757 10.5283 14.8789 10.7744C14.3867 11.016 13.833 11.1367 13.2178 11.1367ZM13.0195 4.7998C12.5638 4.7998 12.1947 4.95931 11.9121 5.27832C11.6341 5.59733 11.4564 6.04167 11.3789 6.61133H14.5439V6.48828C14.5075 5.93229 14.3594 5.51302 14.0996 5.23047C13.8398 4.94336 13.4798 4.7998 13.0195 4.7998ZM20.8115 1.80566V3.60352H22.1172V4.83398H20.8115V8.96289C20.8115 9.24544 20.8662 9.45052 20.9756 9.57812C21.0895 9.70117 21.29 9.7627 21.5771 9.7627C21.7686 9.7627 21.9622 9.73991 22.1582 9.69434V10.9795C21.7799 11.0843 21.4154 11.1367 21.0645 11.1367C19.7884 11.1367 19.1504 10.4326 19.1504 9.02441V4.83398H17.9336V3.60352H19.1504V1.80566H20.8115ZM36.3203 2.44141H33.2168V11H31.501V2.44141H28.4248V1.04688H36.3203V2.44141ZM42.752 10.2754C42.2643 10.8496 41.5716 11.1367 40.6738 11.1367C39.8717 11.1367 39.2633 10.902 38.8486 10.4326C38.4385 9.96322 38.2334 9.28418 38.2334 8.39551V3.60352H39.8945V8.375C39.8945 9.3138 40.2842 9.7832 41.0635 9.7832C41.8701 9.7832 42.4147 9.49382 42.6973 8.91504V3.60352H44.3584V11H42.793L42.752 10.2754ZM53.791 7.37695C53.791 8.52539 53.5335 9.43913 53.0186 10.1182C52.5081 10.7972 51.804 11.1367 50.9062 11.1367C50.0404 11.1367 49.3659 10.8245 48.8828 10.2002L48.8008 11H47.2969V0.5H48.958V4.31445C49.4365 3.74935 50.0814 3.4668 50.8926 3.4668C51.7949 3.4668 52.5036 3.80176 53.0186 4.47168C53.5335 5.1416 53.791 6.07812 53.791 7.28125V7.37695ZM52.1299 7.2334C52.1299 6.43132 51.9886 5.82975 51.7061 5.42871C51.4235 5.02767 51.0133 4.82715 50.4756 4.82715C49.7555 4.82715 49.2497 5.1416 48.958 5.77051V8.81934C49.2542 9.46191 49.7646 9.7832 50.4893 9.7832C51.0088 9.7832 51.4098 9.58952 51.6924 9.20215C51.9749 8.81478 52.1208 8.22917 52.1299 7.44531V7.2334ZM59.6963 11.1367C58.6436 11.1367 57.7891 10.8063 57.1328 10.1455C56.4811 9.48014 56.1553 8.59603 56.1553 7.49316V7.28809C56.1553 6.5498 56.2965 5.89128 56.5791 5.3125C56.8662 4.72917 57.2673 4.27572 57.7822 3.95215C58.2972 3.62858 58.8714 3.4668 59.5049 3.4668C60.512 3.4668 61.2891 3.78809 61.8359 4.43066C62.3874 5.07324 62.6631 5.98242 62.6631 7.1582V7.82812H57.8301C57.8802 8.4388 58.083 8.92188 58.4385 9.27734C58.7985 9.63281 59.2497 9.81055 59.792 9.81055C60.5531 9.81055 61.1729 9.50293 61.6514 8.8877L62.5469 9.74219C62.2507 10.1842 61.8542 10.5283 61.3574 10.7744C60.8652 11.016 60.3115 11.1367 59.6963 11.1367ZM59.498 4.7998C59.0423 4.7998 58.6732 4.95931 58.3906 5.27832C58.1126 5.59733 57.9349 6.04167 57.8574 6.61133H61.0225V6.48828C60.986 5.93229 60.8379 5.51302 60.5781 5.23047C60.3184 4.94336 59.9583 4.7998 59.498 4.7998Z" fill="#2C7973"/>
</svg>
