<svg width="24" height="24" viewBox="0 0 24 24" fill="none" xmlns="http://www.w3.org/2000/svg">
<path d="M18.1066 10L17.3994 10.25C17.581 10.7615 17.9164 11.2043 18.3596 11.5176C18.8029 11.831 19.3322 11.9995 19.875 12C19.9745 12 20.0698 11.9605 20.1402 11.8902C20.2105 11.8198 20.25 11.7245 20.25 11.625V5.25C20.2491 4.56834 19.9834 3.91369 19.5089 3.42428C19.0344 2.93487 18.3883 2.64901 17.707 2.62706C17.3326 2.05108 16.8204 1.57771 16.2167 1.24991C15.613 0.922117 14.937 0.750281 14.25 0.75H13.5C12.4064 0.751241 11.3579 1.18624 10.5846 1.95955C9.81124 2.73287 9.37624 3.78136 9.375 4.875V5.8268C9.08906 5.99182 8.86557 6.24661 8.73921 6.55162C8.61285 6.85664 8.59069 7.19482 8.67616 7.51372C8.76164 7.83261 8.94996 8.11439 9.21193 8.31532C9.4739 8.51625 9.79485 8.62511 10.125 8.625H10.2012C10.2695 8.96237 10.3842 9.28868 10.5419 9.59466L11.208 9.25022C10.9877 8.82539 10.8735 8.35356 10.875 7.875V6.19763C12.6812 5.68603 14.7815 4.20267 15.6181 3.57478L16.875 6.08855V7.875C16.8752 8.26902 16.7977 8.65922 16.6471 9.02329C16.4964 9.38736 16.2754 9.71816 15.9968 9.99677C15.7182 10.2754 15.3874 10.4964 15.0233 10.6471C14.6592 10.7977 14.269 10.8752 13.875 10.875V11.625C14.2566 11.6257 14.636 11.5678 15 11.4534V12.8072C14.9996 12.939 15.0341 13.0686 15.1 13.1827C15.1658 13.2969 15.2607 13.3917 15.375 13.4573V15C15.375 15.3148 15.2759 15.6217 15.0919 15.8771C14.9078 16.1325 14.648 16.3235 14.3493 16.423C14.0507 16.5226 13.7283 16.5256 13.4278 16.4318C13.1272 16.3379 12.8639 16.1519 12.675 15.9L12.075 16.3504C12.3584 16.7282 12.7534 17.0073 13.2042 17.1481C13.655 17.2889 14.1387 17.2843 14.5867 17.1349C15.0347 16.9855 15.4244 16.6989 15.7005 16.3158C15.9766 15.9326 16.1251 15.4723 16.125 15V13.6301L16.6565 13.7187L17.2551 17.3116C17.2662 17.3784 17.2952 17.4408 17.3389 17.4924C17.3717 17.531 17.4056 17.5742 17.442 17.6231C17.779 18.0816 17.952 18.6402 17.9331 19.209C17.9142 19.7777 17.7046 20.3236 17.3379 20.7588C17.2812 20.8264 17.25 20.9118 17.25 21V23.25H18V21.132C18.4359 20.5671 18.676 19.8757 18.6842 19.1622C18.6923 18.4487 18.468 17.752 18.0451 17.1773C18.0223 17.1465 18.0001 17.1176 17.9785 17.0902L17.4385 13.8491L18.2469 13.9838C18.5975 14.0412 18.9162 14.2217 19.1458 14.4928C19.3754 14.7639 19.501 15.1079 19.5 15.4631V23.25H20.25V15.4631C20.2515 14.9302 20.0631 14.4142 19.7187 14.0075C19.3742 13.6009 18.8962 13.3302 18.3703 13.244L15.75 12.8072V11.1227C16.2109 10.8589 16.6099 10.4995 16.9204 10.0687C17.2308 9.6379 17.4455 9.14564 17.55 8.625H17.625C17.9552 8.62511 18.2761 8.51625 18.5381 8.31532C18.8 8.11439 18.9884 7.83261 19.0738 7.51372C19.1593 7.19482 19.1372 6.85664 19.0108 6.55162C18.8844 6.24661 18.6609 5.99182 18.375 5.8268V4.875C18.3754 4.38555 18.2884 3.89997 18.1178 3.44119C18.5145 3.54978 18.8645 3.78556 19.1142 4.11232C19.3639 4.43908 19.4994 4.83876 19.5 5.25V11.212C19.183 11.1471 18.8882 11.0014 18.6441 10.7891C18.4 10.5767 18.2148 10.3049 18.1066 10ZM10.125 7.875C9.92609 7.875 9.73532 7.79598 9.59467 7.65533C9.45402 7.51468 9.375 7.32391 9.375 7.125C9.375 6.92609 9.45402 6.73532 9.59467 6.59467C9.73532 6.45402 9.92609 6.375 10.125 6.375V7.875ZM17.4818 5.625L16.0854 2.83228C16.0604 2.78225 16.0245 2.73845 15.9804 2.70408C15.9363 2.6697 15.885 2.64564 15.8304 2.63364C15.7758 2.62164 15.7192 2.62201 15.6647 2.63473C15.6102 2.64744 15.5593 2.67218 15.5156 2.70712C15.4813 2.73464 12.2482 5.30259 10.125 5.59748V4.875C10.126 3.9802 10.4819 3.12234 11.1146 2.48962C11.7473 1.85691 12.6052 1.501 13.5 1.5H14.25C15.1448 1.501 16.0027 1.85691 16.6354 2.48962C17.2681 3.12234 17.624 3.9802 17.625 4.875V5.625H17.4818ZM18.375 7.125C18.3748 7.32384 18.2957 7.51447 18.1551 7.65507C18.0145 7.79567 17.8238 7.87476 17.625 7.875V6.375C17.8238 6.37524 18.0145 6.45433 18.1551 6.59493C18.2957 6.73553 18.3748 6.92616 18.375 7.125ZM12.75 6.5625C12.75 6.67375 12.717 6.78251 12.6552 6.87501C12.5934 6.96751 12.5055 7.03961 12.4028 7.08218C12.3 7.12476 12.1869 7.1359 12.0778 7.11419C11.9686 7.09249 11.8684 7.03891 11.7898 6.96025C11.7111 6.88158 11.6575 6.78135 11.6358 6.67224C11.6141 6.56312 11.6252 6.45002 11.6678 6.34724C11.7104 6.24446 11.7825 6.15661 11.875 6.0948C11.9675 6.03299 12.0763 6 12.1875 6C12.3366 6.00016 12.4796 6.05948 12.5851 6.16493C12.6905 6.27039 12.7498 6.41337 12.75 6.5625ZM15.5625 7.125C15.4513 7.125 15.3425 7.09201 15.25 7.0302C15.1575 6.96839 15.0854 6.88054 15.0428 6.77776C15.0002 6.67498 14.9891 6.56188 15.0108 6.45276C15.0325 6.34365 15.0861 6.24342 15.1648 6.16475C15.2434 6.08609 15.3436 6.03251 15.4528 6.01081C15.5619 5.9891 15.675 6.00024 15.7778 6.04282C15.8805 6.08539 15.9684 6.15749 16.0302 6.24999C16.092 6.34249 16.125 6.45125 16.125 6.5625C16.1248 6.71163 16.0655 6.85461 15.9601 6.96007C15.8546 7.06552 15.7116 7.12484 15.5625 7.125ZM12.75 8.25H13.5C13.5 8.34946 13.5395 8.44484 13.6098 8.51517C13.6802 8.58549 13.7755 8.625 13.875 8.625C13.9745 8.625 14.0698 8.58549 14.1402 8.51517C14.2105 8.44484 14.25 8.34946 14.25 8.25H15C15 8.54837 14.8815 8.83452 14.6705 9.0455C14.4595 9.25647 14.1734 9.375 13.875 9.375C13.5766 9.375 13.2905 9.25647 13.0795 9.0455C12.8685 8.83452 12.75 8.54837 12.75 8.25ZM8.25 13.125H7.5V12.375H8.25V13.125ZM10.5 13.125H9.75V12.375H10.5V13.125ZM4.875 18C4.57674 18.0003 4.29079 18.119 4.07989 18.3299C3.86899 18.5408 3.75035 18.8267 3.75 19.125V20.8125C3.7511 21.16 3.88922 21.493 4.13438 21.7393C4.17834 22.1538 4.37406 22.5374 4.68386 22.8163C4.99366 23.0952 5.39566 23.2497 5.8125 23.25H6.75C6.76247 23.25 6.77489 23.2493 6.7875 23.2481L10.4953 22.8773L13.4535 23.2471C13.4691 23.249 13.4847 23.25 13.5004 23.25C13.57 23.25 13.6382 23.2306 13.6974 23.194C13.7566 23.1573 13.8045 23.105 13.8356 23.0427L14.5297 21.6546L14.7495 21.5448C14.9654 21.4368 15.141 21.2627 15.251 21.0479C15.3609 20.8331 15.3993 20.5888 15.3607 20.3506C15.322 20.1124 15.2082 19.8927 15.036 19.7237C14.8638 19.5547 14.642 19.4451 14.4031 19.4109L12.75 19.1748V18.375C12.75 18.3215 12.7385 18.2685 12.7164 18.2198L11.5514 15.6568L11.8953 14.625H13.125C13.2 14.625 13.2732 14.6025 13.3352 14.5605C13.3973 14.5185 13.4454 14.4589 13.4732 14.3893L14.2232 12.5143C14.2551 12.4344 14.2586 12.3459 14.2331 12.2638C14.2076 12.1816 14.1546 12.1107 14.083 12.063L11.833 10.563C11.8259 10.5583 11.0427 10.1646 11.0427 10.1646C10.9906 10.1385 10.9332 10.125 10.875 10.125H7.125C7.06678 10.125 7.00935 10.1386 6.95728 10.1646L6.20728 10.5396C6.19322 10.5466 3.91697 12.063 3.91697 12.063C3.84539 12.1108 3.79239 12.1817 3.76688 12.2638C3.74136 12.346 3.74487 12.4344 3.77682 12.5143L4.52682 14.3893C4.55466 14.4589 4.60271 14.5185 4.66477 14.5605C4.72683 14.6026 4.80006 14.625 4.875 14.625H5.625V13.875H5.12888L4.58621 12.5182L6 11.5757V14.25C6.00002 14.2903 6.00651 14.3303 6.01922 14.3686L6.44864 15.6568L5.3835 18H4.875ZM12 11.5757L13.4138 12.5182L12.8711 13.875H12V11.5757ZM14.2969 20.1533C14.3775 20.1649 14.4524 20.2019 14.5106 20.259C14.5687 20.316 14.6071 20.3902 14.6202 20.4706C14.6333 20.551 14.6203 20.6335 14.5833 20.7061C14.5462 20.7787 14.4869 20.8375 14.4141 20.874L14.0827 21.0395C14.01 21.0758 13.9511 21.1346 13.9148 21.2073L13.2834 22.47L10.5467 22.1278C10.5189 22.1243 10.4908 22.1239 10.4629 22.1267L6.73125 22.5H5.8125C5.56403 22.4997 5.32578 22.401 5.14978 22.2256C5.1188 22.1941 5.09006 22.1605 5.06377 22.125H6C6.09946 22.125 6.19484 22.0855 6.26517 22.0152C6.33549 21.9448 6.375 21.8495 6.375 21.75V20.625H7.5V20.8125C7.5004 21.1605 7.63881 21.4941 7.88486 21.7401C8.13092 21.9862 8.46453 22.1246 8.8125 22.125H9.75C9.84946 22.125 9.94484 22.0855 10.0152 22.0152C10.0855 21.9448 10.125 21.8495 10.125 21.75V20.625H10.5C10.5477 20.625 10.595 20.6159 10.6393 20.5982L12.4212 19.8854L14.2969 20.1533ZM6.75 11.1068L7.21355 10.875H10.7865L11.25 11.1068V14.1891L10.6902 15.8685C10.6654 15.9432 10.6177 16.0082 10.5538 16.0543C10.4899 16.1003 10.4132 16.1251 10.3344 16.125H9.375V15.6068L9.91772 15.3354C9.98001 15.3042 10.0324 15.2564 10.069 15.1971C10.1056 15.1379 10.125 15.0696 10.125 15V14.25C10.125 14.1505 10.0855 14.0552 10.0152 13.9848C9.94484 13.9145 9.84946 13.875 9.75 13.875H8.25C8.15055 13.875 8.05516 13.9145 7.98484 13.9848C7.91451 14.0552 7.875 14.1505 7.875 14.25V15C7.87501 15.0696 7.8944 15.1379 7.93101 15.1971C7.96762 15.2564 8.02 15.3042 8.08228 15.3354L8.625 15.6068V16.125H7.66557C7.58684 16.1251 7.51009 16.1003 7.44623 16.0543C7.38237 16.0083 7.33464 15.9433 7.30983 15.8685L6.75 14.1891V11.1068ZM9 14.9557L8.625 14.7682V14.625H9.375V14.7682L9 14.9557ZM6.86902 16.5444C6.97347 16.6493 7.0976 16.7325 7.2343 16.7892C7.371 16.8459 7.51756 16.8751 7.66557 16.875H10.3344C10.4824 16.8751 10.629 16.8459 10.7657 16.7892C10.9024 16.7325 11.0265 16.6493 11.131 16.5444L12 18.4562V19.2461L10.4278 19.875H9.75C9.65055 19.875 9.55516 19.9145 9.48484 19.9848C9.41451 20.0552 9.375 20.1505 9.375 20.25V21.375H8.8125C8.66337 21.3748 8.52039 21.3155 8.41493 21.2101C8.30948 21.1046 8.25016 20.9616 8.25 20.8125V19.125C8.25011 19.0256 8.28966 18.9303 8.35996 18.86C8.43026 18.7897 8.52558 18.7501 8.625 18.75H10.5V18H8.625C8.32674 18.0003 8.04079 18.119 7.82989 18.3299C7.61899 18.5408 7.50035 18.8267 7.5 19.125V19.875H6C5.90055 19.875 5.80516 19.9145 5.73484 19.9848C5.66451 20.0552 5.625 20.1505 5.625 20.25V21.375H5.0625C4.91332 21.375 4.77024 21.3157 4.66476 21.2102C4.55927 21.1048 4.5 20.9617 4.5 20.8125V19.125C4.50011 19.0256 4.53966 18.9303 4.60996 18.86C4.68026 18.7897 4.77558 18.7501 4.875 18.75H6.75V18H6.20738L6.86902 16.5444Z" fill="#00D654"/>
</svg>
