<svg width="180" height="14" viewBox="0 0 180 14" fill="none" xmlns="http://www.w3.org/2000/svg">
<path d="M1.74121 7.30176V11H0.0117188V1.04688H3.81934C4.93132 1.04688 5.81315 1.33626 6.46484 1.91504C7.12109 2.49382 7.44922 3.25944 7.44922 4.21191C7.44922 5.18717 7.12793 5.94596 6.48535 6.48828C5.84733 7.0306 4.95182 7.30176 3.79883 7.30176H1.74121ZM1.74121 5.91406H3.81934C4.43457 5.91406 4.90397 5.77051 5.22754 5.4834C5.55111 5.19173 5.71289 4.77246 5.71289 4.22559C5.71289 3.68783 5.54883 3.25944 5.2207 2.94043C4.89258 2.61686 4.44141 2.45052 3.86719 2.44141H1.74121V5.91406ZM13.2178 11.1367C12.165 11.1367 11.3105 10.8063 10.6543 10.1455C10.0026 9.48014 9.67676 8.59603 9.67676 7.49316V7.28809C9.67676 6.5498 9.81803 5.89128 10.1006 5.3125C10.3877 4.72917 10.7887 4.27572 11.3037 3.95215C11.8187 3.62858 12.3929 3.4668 13.0264 3.4668C14.0335 3.4668 14.8105 3.78809 15.3574 4.43066C15.9089 5.07324 16.1846 5.98242 16.1846 7.1582V7.82812H11.3516C11.4017 8.4388 11.6045 8.92188 11.96 9.27734C12.32 9.63281 12.7712 9.81055 13.3135 9.81055C14.0745 9.81055 14.6943 9.50293 15.1729 8.8877L16.0684 9.74219C15.7721 10.1842 15.3757 10.5283 14.8789 10.7744C14.3867 11.016 13.833 11.1367 13.2178 11.1367ZM13.0195 4.7998C12.5638 4.7998 12.1947 4.95931 11.9121 5.27832C11.6341 5.59733 11.4564 6.04167 11.3789 6.61133H14.5439V6.48828C14.5075 5.93229 14.3594 5.51302 14.0996 5.23047C13.8398 4.94336 13.4798 4.7998 13.0195 4.7998ZM20.8115 1.80566V3.60352H22.1172V4.83398H20.8115V8.96289C20.8115 9.24544 20.8662 9.45052 20.9756 9.57812C21.0895 9.70117 21.29 9.7627 21.5771 9.7627C21.7686 9.7627 21.9622 9.73991 22.1582 9.69434V10.9795C21.7799 11.0843 21.4154 11.1367 21.0645 11.1367C19.7884 11.1367 19.1504 10.4326 19.1504 9.02441V4.83398H17.9336V3.60352H19.1504V1.80566H20.8115ZM28.7881 8.99023C28.7881 8.69401 28.665 8.46842 28.4189 8.31348C28.1774 8.15853 27.7741 8.02181 27.209 7.90332C26.6439 7.78483 26.1722 7.63444 25.7939 7.45215C24.9645 7.05111 24.5498 6.47005 24.5498 5.70898C24.5498 5.07096 24.8187 4.53776 25.3564 4.10938C25.8942 3.68099 26.5778 3.4668 27.4072 3.4668C28.2913 3.4668 29.0046 3.68555 29.5469 4.12305C30.0938 4.56055 30.3672 5.12793 30.3672 5.8252H28.7061C28.7061 5.50618 28.5876 5.24186 28.3506 5.03223C28.1136 4.81803 27.7992 4.71094 27.4072 4.71094C27.0426 4.71094 26.7441 4.79525 26.5117 4.96387C26.2839 5.13249 26.1699 5.35807 26.1699 5.64062C26.1699 5.89583 26.277 6.09408 26.4912 6.23535C26.7054 6.37663 27.1383 6.52018 27.79 6.66602C28.4417 6.80729 28.9521 6.97819 29.3213 7.17871C29.695 7.37467 29.9707 7.61165 30.1484 7.88965C30.3307 8.16764 30.4219 8.50488 30.4219 8.90137C30.4219 9.56673 30.1462 10.1068 29.5947 10.5215C29.0433 10.9316 28.321 11.1367 27.4277 11.1367C26.8216 11.1367 26.2816 11.0273 25.8076 10.8086C25.3337 10.5898 24.9645 10.2891 24.7002 9.90625C24.4359 9.52344 24.3037 9.111 24.3037 8.66895H25.917C25.9398 9.06087 26.0879 9.36393 26.3613 9.57812C26.6348 9.78776 26.9971 9.89258 27.4482 9.89258C27.8857 9.89258 28.2184 9.81055 28.4463 9.64648C28.6742 9.47786 28.7881 9.25911 28.7881 8.99023ZM45.8281 8.53906L47.3594 1.04688H49.0752L46.7783 11H45.124L43.2305 3.7334L41.2959 11H39.6348L37.3379 1.04688H39.0537L40.5986 8.52539L42.499 1.04688H43.9482L45.8281 8.53906ZM55.6162 11C55.5433 10.8587 55.4795 10.6286 55.4248 10.3096C54.8962 10.861 54.249 11.1367 53.4834 11.1367C52.7406 11.1367 52.1344 10.9248 51.665 10.501C51.1956 10.0771 50.9609 9.55306 50.9609 8.92871C50.9609 8.1403 51.2526 7.53646 51.8359 7.11719C52.4238 6.69336 53.2624 6.48145 54.3516 6.48145H55.3701V5.99609C55.3701 5.61328 55.263 5.30794 55.0488 5.08008C54.8346 4.84766 54.5088 4.73145 54.0713 4.73145C53.693 4.73145 53.3831 4.82715 53.1416 5.01855C52.9001 5.2054 52.7793 5.44466 52.7793 5.73633H51.1182C51.1182 5.33073 51.2526 4.95247 51.5215 4.60156C51.7904 4.24609 52.1549 3.9681 52.6152 3.76758C53.0801 3.56706 53.5973 3.4668 54.167 3.4668C55.0329 3.4668 55.7233 3.68555 56.2383 4.12305C56.7533 4.55599 57.0176 5.16667 57.0312 5.95508V9.29102C57.0312 9.95638 57.1247 10.4873 57.3115 10.8838V11H55.6162ZM53.791 9.80371C54.1191 9.80371 54.4268 9.72396 54.7139 9.56445C55.0055 9.40495 55.2243 9.19076 55.3701 8.92188V7.52734H54.4746C53.8594 7.52734 53.3968 7.63444 53.0869 7.84863C52.777 8.06283 52.6221 8.36589 52.6221 8.75781C52.6221 9.07682 52.7269 9.33203 52.9365 9.52344C53.1507 9.71029 53.4355 9.80371 53.791 9.80371ZM61.5625 3.60352L61.6104 4.45801C62.1572 3.7972 62.875 3.4668 63.7637 3.4668C65.304 3.4668 66.0879 4.34863 66.1152 6.1123V11H64.4541V6.20801C64.4541 5.73861 64.3516 5.39225 64.1465 5.16895C63.946 4.94108 63.6156 4.82715 63.1553 4.82715C62.4854 4.82715 61.9863 5.13021 61.6582 5.73633V11H59.9971V3.60352H61.5625ZM71.1455 1.80566V3.60352H72.4512V4.83398H71.1455V8.96289C71.1455 9.24544 71.2002 9.45052 71.3096 9.57812C71.4235 9.70117 71.624 9.7627 71.9111 9.7627C72.1025 9.7627 72.2962 9.73991 72.4922 9.69434V10.9795C72.1139 11.0843 71.7493 11.1367 71.3984 11.1367C70.1224 11.1367 69.4844 10.4326 69.4844 9.02441V4.83398H68.2676V3.60352H69.4844V1.80566H71.1455ZM76.7432 11H75.082V3.60352H76.7432V11ZM74.9795 1.68262C74.9795 1.42741 75.0592 1.21549 75.2188 1.04688C75.3828 0.878255 75.6152 0.793945 75.916 0.793945C76.2168 0.793945 76.4492 0.878255 76.6133 1.04688C76.7773 1.21549 76.8594 1.42741 76.8594 1.68262C76.8594 1.93327 76.7773 2.1429 76.6133 2.31152C76.4492 2.47559 76.2168 2.55762 75.916 2.55762C75.6152 2.55762 75.3828 2.47559 75.2188 2.31152C75.0592 2.1429 74.9795 1.93327 74.9795 1.68262ZM81.3496 3.60352L81.3975 4.45801C81.9443 3.7972 82.6621 3.4668 83.5508 3.4668C85.0911 3.4668 85.875 4.34863 85.9023 6.1123V11H84.2412V6.20801C84.2412 5.73861 84.1387 5.39225 83.9336 5.16895C83.7331 4.94108 83.4027 4.82715 82.9424 4.82715C82.2725 4.82715 81.7734 5.13021 81.4453 5.73633V11H79.7842V3.60352H81.3496ZM88.5605 7.24707C88.5605 6.09863 88.8294 5.18262 89.3672 4.49902C89.9095 3.81087 90.6273 3.4668 91.5205 3.4668C92.3636 3.4668 93.0267 3.76074 93.5098 4.34863L93.585 3.60352H95.082V10.7744C95.082 11.7451 94.779 12.5107 94.1729 13.0713C93.5713 13.6318 92.7578 13.9121 91.7324 13.9121C91.1901 13.9121 90.6592 13.7982 90.1396 13.5703C89.6247 13.347 89.2327 13.0531 88.9639 12.6885L89.75 11.6904C90.2604 12.2965 90.8893 12.5996 91.6367 12.5996C92.1882 12.5996 92.6234 12.4492 92.9424 12.1484C93.2614 11.8522 93.4209 11.4147 93.4209 10.8359V10.3369C92.9424 10.8701 92.3044 11.1367 91.5068 11.1367C90.641 11.1367 89.9323 10.7926 89.3809 10.1045C88.834 9.41634 88.5605 8.46387 88.5605 7.24707ZM90.2148 7.39062C90.2148 8.13346 90.3652 8.71908 90.666 9.14746C90.9714 9.57129 91.3929 9.7832 91.9307 9.7832C92.6006 9.7832 93.0973 9.49609 93.4209 8.92188V5.66797C93.1064 5.10742 92.6143 4.82715 91.9443 4.82715C91.3975 4.82715 90.9714 5.04362 90.666 5.47656C90.3652 5.90951 90.2148 6.54753 90.2148 7.39062ZM110.837 11H109.107L104.671 3.93848V11H102.941V1.04688H104.671L109.121 8.13574V1.04688H110.837V11ZM117.228 11.1367C116.175 11.1367 115.32 10.8063 114.664 10.1455C114.012 9.48014 113.687 8.59603 113.687 7.49316V7.28809C113.687 6.5498 113.828 5.89128 114.11 5.3125C114.397 4.72917 114.799 4.27572 115.313 3.95215C115.828 3.62858 116.403 3.4668 117.036 3.4668C118.043 3.4668 118.82 3.78809 119.367 4.43066C119.919 5.07324 120.194 5.98242 120.194 7.1582V7.82812H115.361C115.411 8.4388 115.614 8.92188 115.97 9.27734C116.33 9.63281 116.781 9.81055 117.323 9.81055C118.084 9.81055 118.704 9.50293 119.183 8.8877L120.078 9.74219C119.782 10.1842 119.385 10.5283 118.889 10.7744C118.396 11.016 117.843 11.1367 117.228 11.1367ZM117.029 4.7998C116.574 4.7998 116.204 4.95931 115.922 5.27832C115.644 5.59733 115.466 6.04167 115.389 6.61133H118.554V6.48828C118.517 5.93229 118.369 5.51302 118.109 5.23047C117.85 4.94336 117.49 4.7998 117.029 4.7998ZM129.237 8.70996L130.413 3.60352H132.033L130.017 11H128.649L127.063 5.9209L125.505 11H124.138L122.114 3.60352H123.734L124.931 8.65527L126.448 3.60352H127.699L129.237 8.70996ZM147.193 11H145.471V6.57715H141.021V11H139.291V1.04688H141.021V5.18945H145.471V1.04688H147.193V11ZM150.022 7.2334C150.022 6.50879 150.166 5.8571 150.453 5.27832C150.74 4.69499 151.144 4.24837 151.663 3.93848C152.183 3.62402 152.78 3.4668 153.454 3.4668C154.452 3.4668 155.261 3.78809 155.881 4.43066C156.505 5.07324 156.842 5.92546 156.893 6.9873L156.899 7.37695C156.899 8.10612 156.758 8.75781 156.476 9.33203C156.198 9.90625 155.797 10.3506 155.272 10.665C154.753 10.9795 154.151 11.1367 153.468 11.1367C152.424 11.1367 151.588 10.7904 150.959 10.0977C150.335 9.40039 150.022 8.47298 150.022 7.31543V7.2334ZM151.684 7.37695C151.684 8.13802 151.841 8.73503 152.155 9.16797C152.47 9.59635 152.907 9.81055 153.468 9.81055C154.028 9.81055 154.464 9.5918 154.773 9.1543C155.088 8.7168 155.245 8.0765 155.245 7.2334C155.245 6.486 155.083 5.89355 154.76 5.45605C154.441 5.01855 154.006 4.7998 153.454 4.7998C152.912 4.7998 152.481 5.01628 152.162 5.44922C151.843 5.8776 151.684 6.52018 151.684 7.37695ZM161.116 3.60352L161.164 4.37598C161.684 3.76986 162.395 3.4668 163.297 3.4668C164.286 3.4668 164.963 3.84505 165.327 4.60156C165.865 3.84505 166.621 3.4668 167.597 3.4668C168.412 3.4668 169.019 3.69238 169.415 4.14355C169.816 4.59473 170.021 5.26009 170.03 6.13965V11H168.369V6.1875C168.369 5.7181 168.267 5.37402 168.062 5.15527C167.856 4.93652 167.517 4.82715 167.043 4.82715C166.665 4.82715 166.355 4.92969 166.113 5.13477C165.876 5.33529 165.71 5.59961 165.614 5.92773L165.621 11H163.96V6.13281C163.937 5.26237 163.493 4.82715 162.627 4.82715C161.962 4.82715 161.49 5.09831 161.212 5.64062V11H159.551V3.60352H161.116ZM176.243 11.1367C175.19 11.1367 174.336 10.8063 173.68 10.1455C173.028 9.48014 172.702 8.59603 172.702 7.49316V7.28809C172.702 6.5498 172.843 5.89128 173.126 5.3125C173.413 4.72917 173.814 4.27572 174.329 3.95215C174.844 3.62858 175.418 3.4668 176.052 3.4668C177.059 3.4668 177.836 3.78809 178.383 4.43066C178.934 5.07324 179.21 5.98242 179.21 7.1582V7.82812H174.377C174.427 8.4388 174.63 8.92188 174.985 9.27734C175.345 9.63281 175.797 9.81055 176.339 9.81055C177.1 9.81055 177.72 9.50293 178.198 8.8877L179.094 9.74219C178.798 10.1842 178.401 10.5283 177.904 10.7744C177.412 11.016 176.858 11.1367 176.243 11.1367ZM176.045 4.7998C175.589 4.7998 175.22 4.95931 174.938 5.27832C174.66 5.59733 174.482 6.04167 174.404 6.61133H177.569V6.48828C177.533 5.93229 177.385 5.51302 177.125 5.23047C176.865 4.94336 176.505 4.7998 176.045 4.7998Z" fill="#2C7973"/>
</svg>
