<svg width="24" height="24" viewBox="0 0 24 24" fill="none" xmlns="http://www.w3.org/2000/svg">
<path d="M24 11.5469C24 10.8707 23.7367 10.2351 23.2586 9.75698L14.243 0.741375C13.7649 0.263297 13.1293 0 12.4531 0C11.777 0 11.1413 0.263297 10.6633 0.741375L5.68594 5.71875H2.53125C1.1355 5.71875 0 6.8543 0 8.25V21.4688C0 22.8645 1.1355 24 2.53125 24H15.2812C16.677 24 17.8125 22.8645 17.8125 21.4688V18.7829L23.2586 13.3367C23.7367 12.8586 24 12.223 24 11.5469ZM15.2812 23.0625H2.53125C1.65244 23.0625 0.9375 22.3476 0.9375 21.4688V8.25C0.9375 7.37119 1.65244 6.65625 2.53125 6.65625H15.2812C16.1601 6.65625 16.875 7.37119 16.875 8.25V21.4688C16.875 22.3476 16.1601 23.0625 15.2812 23.0625ZM17.8125 8.55352L20.8058 11.5469L17.8125 14.5402V8.55352ZM9.92859 5.71875L12.4531 3.1942L14.9777 5.71875H9.92859ZM22.5957 12.6738L17.8125 17.457V15.8661L21.8002 11.8784C21.9833 11.6953 21.9833 11.3985 21.8002 11.2154L12.7846 2.1998C12.6015 2.0168 12.3047 2.0168 12.1216 2.1998L8.60269 5.71875H7.01175L11.3262 1.40433C11.6272 1.1033 12.0274 0.9375 12.4531 0.9375C12.8788 0.9375 13.2791 1.1033 13.5801 1.40433L22.5957 10.4199C22.8967 10.7209 23.0625 11.1211 23.0625 11.5469C23.0625 11.9726 22.8967 12.3728 22.5957 12.6738Z" fill="#00D654"/>
<path d="M15.2812 7.78125H2.53125C2.27236 7.78125 2.0625 7.99111 2.0625 8.25V19.875C2.0625 20.1338 2.27236 20.3438 2.53125 20.3438H6.79688C7.05577 20.3438 7.26562 20.1338 7.26562 19.875C7.26562 19.6162 7.05577 19.4062 6.79688 19.4062H3V8.71875H14.8125V19.4062H11.0156C10.7567 19.4062 10.5468 19.6162 10.5468 19.875C10.5468 20.1338 10.7567 20.3438 11.0156 20.3438H15.2812C15.5401 20.3438 15.75 20.1338 15.75 19.875V8.25C15.75 7.99111 15.5401 7.78125 15.2812 7.78125Z" fill="#00D654"/>
<path d="M8.90625 19.4062C8.78297 19.4062 8.66203 19.4564 8.57484 19.5436C8.48766 19.6308 8.4375 19.7517 8.4375 19.875C8.4375 19.9983 8.48766 20.1192 8.57484 20.2064C8.66203 20.2935 8.78297 20.3438 8.90625 20.3438C9.02953 20.3438 9.15047 20.2936 9.23766 20.2064C9.32484 20.1192 9.375 19.9983 9.375 19.875C9.375 19.7517 9.32484 19.6308 9.23766 19.5436C9.15047 19.4564 9.02953 19.4062 8.90625 19.4062Z" fill="#00D654"/>
<path d="M9.52559 14.8912C9.47906 14.8915 9.42994 14.8915 9.38343 14.8912C9.16281 14.8894 8.93496 14.8867 8.77069 15.0497C8.67304 15.1466 8.62354 15.2795 8.62354 15.4446C8.62354 15.8057 8.85512 16.1136 9.17751 16.2279V16.5525C9.17751 16.7055 9.30153 16.8295 9.4545 16.8295C9.60747 16.8295 9.73149 16.7055 9.73149 16.5525V16.2279C10.0539 16.1136 10.2855 15.8057 10.2855 15.4446C10.2855 15.2795 10.236 15.1466 10.1383 15.0497C9.97406 14.8867 9.74602 14.8893 9.52559 14.8912ZM9.4545 15.7216C9.30334 15.7216 9.1801 15.5999 9.17755 15.4493C9.22983 15.443 9.3168 15.4437 9.37909 15.4442C9.42843 15.4446 9.48057 15.4446 9.52992 15.4442C9.59226 15.4437 9.67918 15.443 9.73145 15.4493C9.7289 15.5999 9.60566 15.7216 9.4545 15.7216Z" fill="#00D654"/>
<path d="M8.34657 14.0596C8.49955 14.0596 8.62356 13.9356 8.62356 13.7826C8.62356 13.6296 8.49955 13.5056 8.34657 13.5056C8.19359 13.5056 8.06958 13.6296 8.06958 13.7826C8.06958 13.9356 8.19359 14.0596 8.34657 14.0596Z" fill="#00D654"/>
<path d="M10.5626 14.0596C10.7156 14.0596 10.8396 13.9356 10.8396 13.7826C10.8396 13.6296 10.7156 13.5056 10.5626 13.5056C10.4097 13.5056 10.2856 13.6296 10.2856 13.7826C10.2856 13.9356 10.4097 14.0596 10.5626 14.0596Z" fill="#00D654"/>
<path d="M11.6705 10.7357C11.5834 10.7357 11.4958 10.7439 11.4089 10.7597C10.8457 10.3943 10.1745 10.1818 9.45457 10.1818C8.73464 10.1818 8.06348 10.3943 7.50025 10.7597C7.41331 10.7439 7.32576 10.7357 7.23866 10.7357C5.69317 10.7357 4.72729 13.0205 4.72729 14.6136C4.72729 16.3923 5.80554 17.3835 7.23866 17.3835C7.3841 17.3835 7.52726 17.3729 7.6659 17.3521C8.1623 17.7482 8.81175 17.9374 9.45457 17.9374C10.0973 17.9374 10.7468 17.7482 11.2432 17.3521C11.3819 17.3729 11.525 17.3835 11.6705 17.3835C13.1035 17.3835 14.1818 16.393 14.1818 14.6136C14.1818 13.0254 13.2184 10.7357 11.6705 10.7357ZM5.28127 14.6136C5.28127 13.5003 5.81857 11.9509 6.72459 11.4372C6.18209 12.0678 5.85372 12.8875 5.85372 13.7826C5.85372 14.7951 6.27978 15.7588 7.02556 16.4407C7.06525 16.5752 7.12323 16.7053 7.19831 16.8291C6.26388 16.8127 5.28127 16.2242 5.28127 14.6136ZM9.45457 17.3835C8.54649 17.3835 7.51565 16.8604 7.51565 15.9985C7.51565 15.1437 8.53513 14.6136 9.45457 14.6136C10.3626 14.6136 11.3935 15.1366 11.3935 15.9985C11.3935 16.8534 10.374 17.3835 9.45457 17.3835ZM9.45457 14.0596C8.40306 14.0596 7.27097 14.613 7.01227 15.6042C6.62306 15.0823 6.40769 14.4448 6.40769 13.7826C6.40769 12.1026 7.77452 10.7357 9.45457 10.7357C11.1346 10.7357 12.5014 12.1026 12.5014 13.7826C12.5014 14.4448 12.2861 15.0823 11.8969 15.6042C11.638 14.6125 10.5071 14.0596 9.45457 14.0596ZM11.7108 16.8291C11.7859 16.7053 11.8439 16.5752 11.8836 16.4407C12.6294 15.7588 13.0554 14.7951 13.0554 13.7826C13.0554 12.8875 12.727 12.0678 12.1845 11.4372C13.0886 11.9497 13.6279 13.496 13.6279 14.6136C13.6279 16.2242 12.6453 16.8127 11.7108 16.8291Z" fill="#00D654"/>
</svg>
