<svg width="207" height="12" viewBox="0 0 207 12" fill="none" xmlns="http://www.w3.org/2000/svg">
<path d="M8.81836 8.53906L10.3496 1.04688H12.0654L9.76855 11H8.11426L6.2207 3.7334L4.28613 11H2.625L0.328125 1.04688H2.04395L3.58887 8.52539L5.48926 1.04688H6.93848L8.81836 8.53906ZM18.6064 11C18.5335 10.8587 18.4697 10.6286 18.415 10.3096C17.8864 10.861 17.2393 11.1367 16.4736 11.1367C15.7308 11.1367 15.1247 10.9248 14.6553 10.501C14.1859 10.0771 13.9512 9.55306 13.9512 8.92871C13.9512 8.1403 14.2428 7.53646 14.8262 7.11719C15.4141 6.69336 16.2526 6.48145 17.3418 6.48145H18.3604V5.99609C18.3604 5.61328 18.2533 5.30794 18.0391 5.08008C17.8249 4.84766 17.499 4.73145 17.0615 4.73145C16.6833 4.73145 16.3734 4.82715 16.1318 5.01855C15.8903 5.2054 15.7695 5.44466 15.7695 5.73633H14.1084C14.1084 5.33073 14.2428 4.95247 14.5117 4.60156C14.7806 4.24609 15.1452 3.9681 15.6055 3.76758C16.0703 3.56706 16.5876 3.4668 17.1572 3.4668C18.0231 3.4668 18.7135 3.68555 19.2285 4.12305C19.7435 4.55599 20.0078 5.16667 20.0215 5.95508V9.29102C20.0215 9.95638 20.1149 10.4873 20.3018 10.8838V11H18.6064ZM16.7812 9.80371C17.1094 9.80371 17.417 9.72396 17.7041 9.56445C17.9958 9.40495 18.2145 9.19076 18.3604 8.92188V7.52734H17.4648C16.8496 7.52734 16.387 7.63444 16.0771 7.84863C15.7673 8.06283 15.6123 8.36589 15.6123 8.75781C15.6123 9.07682 15.7171 9.33203 15.9268 9.52344C16.141 9.71029 16.4258 9.80371 16.7812 9.80371ZM24.7783 11H23.1172V0.5H24.7783V11ZM30.2461 7.82812L29.5078 8.58691V11H27.8467V0.5H29.5078V6.55664L30.0273 5.90723L32.0713 3.60352H34.0674L31.3193 6.68652L34.3613 11H32.4404L30.2461 7.82812ZM38.1748 11H36.5137V3.60352H38.1748V11ZM36.4111 1.68262C36.4111 1.42741 36.4909 1.21549 36.6504 1.04688C36.8145 0.878255 37.0469 0.793945 37.3477 0.793945C37.6484 0.793945 37.8809 0.878255 38.0449 1.04688C38.209 1.21549 38.291 1.42741 38.291 1.68262C38.291 1.93327 38.209 2.1429 38.0449 2.31152C37.8809 2.47559 37.6484 2.55762 37.3477 2.55762C37.0469 2.55762 36.8145 2.47559 36.6504 2.31152C36.4909 2.1429 36.4111 1.93327 36.4111 1.68262ZM44.4971 11.1367C43.4443 11.1367 42.5898 10.8063 41.9336 10.1455C41.2819 9.48014 40.9561 8.59603 40.9561 7.49316V7.28809C40.9561 6.5498 41.0973 5.89128 41.3799 5.3125C41.667 4.72917 42.068 4.27572 42.583 3.95215C43.098 3.62858 43.6722 3.4668 44.3057 3.4668C45.3128 3.4668 46.0898 3.78809 46.6367 4.43066C47.1882 5.07324 47.4639 5.98242 47.4639 7.1582V7.82812H42.6309C42.681 8.4388 42.8838 8.92188 43.2393 9.27734C43.5993 9.63281 44.0505 9.81055 44.5928 9.81055C45.3538 9.81055 45.9736 9.50293 46.4521 8.8877L47.3477 9.74219C47.0514 10.1842 46.6549 10.5283 46.1582 10.7744C45.666 11.016 45.1123 11.1367 44.4971 11.1367ZM44.2988 4.7998C43.8431 4.7998 43.474 4.95931 43.1914 5.27832C42.9134 5.59733 42.7357 6.04167 42.6582 6.61133H45.8232V6.48828C45.7868 5.93229 45.6387 5.51302 45.3789 5.23047C45.1191 4.94336 44.7591 4.7998 44.2988 4.7998ZM54.1553 8.99023C54.1553 8.69401 54.0322 8.46842 53.7861 8.31348C53.5446 8.15853 53.1413 8.02181 52.5762 7.90332C52.0111 7.78483 51.5394 7.63444 51.1611 7.45215C50.3317 7.05111 49.917 6.47005 49.917 5.70898C49.917 5.07096 50.1859 4.53776 50.7236 4.10938C51.2614 3.68099 51.945 3.4668 52.7744 3.4668C53.6585 3.4668 54.3717 3.68555 54.9141 4.12305C55.4609 4.56055 55.7344 5.12793 55.7344 5.8252H54.0732C54.0732 5.50618 53.9548 5.24186 53.7178 5.03223C53.4808 4.81803 53.1663 4.71094 52.7744 4.71094C52.4098 4.71094 52.1113 4.79525 51.8789 4.96387C51.651 5.13249 51.5371 5.35807 51.5371 5.64062C51.5371 5.89583 51.6442 6.09408 51.8584 6.23535C52.0726 6.37663 52.5055 6.52018 53.1572 6.66602C53.8089 6.80729 54.3193 6.97819 54.6885 7.17871C55.0622 7.37467 55.3379 7.61165 55.5156 7.88965C55.6979 8.16764 55.7891 8.50488 55.7891 8.90137C55.7891 9.56673 55.5133 10.1068 54.9619 10.5215C54.4105 10.9316 53.6882 11.1367 52.7949 11.1367C52.1888 11.1367 51.6488 11.0273 51.1748 10.8086C50.7008 10.5898 50.3317 10.2891 50.0674 9.90625C49.8031 9.52344 49.6709 9.111 49.6709 8.66895H51.2842C51.307 9.06087 51.4551 9.36393 51.7285 9.57812C52.002 9.78776 52.3643 9.89258 52.8154 9.89258C53.2529 9.89258 53.5856 9.81055 53.8135 9.64648C54.0413 9.47786 54.1553 9.25911 54.1553 8.99023ZM62.9648 8.31348C62.9648 7.85319 63.0902 7.43164 63.3408 7.04883C63.5915 6.66146 64.0859 6.20345 64.8242 5.6748C64.4368 5.18717 64.1657 4.77246 64.0107 4.43066C63.8604 4.08887 63.7852 3.75846 63.7852 3.43945C63.7852 2.66016 64.0221 2.04492 64.4961 1.59375C64.9701 1.13802 65.6081 0.910156 66.4102 0.910156C67.1348 0.910156 67.7272 1.12435 68.1875 1.55273C68.6523 1.97656 68.8848 2.50293 68.8848 3.13184C68.8848 3.54655 68.7799 3.92936 68.5703 4.28027C68.3607 4.62663 68.0166 4.97298 67.5381 5.31934L66.8613 5.81152L68.7822 8.08105C69.0602 7.53418 69.1992 6.92578 69.1992 6.25586H70.6416C70.6416 7.48177 70.3545 8.48665 69.7803 9.27051L71.2432 11H69.3154L68.7549 10.3369C68.0439 10.8701 67.1963 11.1367 66.2119 11.1367C65.2275 11.1367 64.4391 10.877 63.8467 10.3574C63.2588 9.83333 62.9648 9.15202 62.9648 8.31348ZM66.2598 9.81055C66.8203 9.81055 67.3444 9.6237 67.832 9.25L65.6582 6.68652L65.4463 6.83691C64.8994 7.25163 64.626 7.72559 64.626 8.25879C64.626 8.71908 64.7741 9.09277 65.0703 9.37988C65.3665 9.66699 65.763 9.81055 66.2598 9.81055ZM65.3438 3.39844C65.3438 3.78125 65.5785 4.26204 66.0479 4.84082L66.8066 4.32129L67.0186 4.15039C67.3011 3.89974 67.4424 3.57845 67.4424 3.18652C67.4424 2.92676 67.3444 2.70573 67.1484 2.52344C66.9525 2.33659 66.7041 2.24316 66.4033 2.24316C66.0798 2.24316 65.8223 2.35254 65.6309 2.57129C65.4395 2.79004 65.3438 3.06576 65.3438 3.39844ZM84.1475 6.55664H80.0596V9.61914H84.8379V11H78.3301V1.04688H84.79V2.44141H80.0596V5.18945H84.1475V6.55664ZM89.9912 6.03711L91.3994 3.60352H93.2451L90.9824 7.24707L93.3203 11H91.4883L90.0117 8.4707L88.542 11H86.6963L89.0342 7.24707L86.7783 3.60352H88.6104L89.9912 6.03711ZM98.7471 11.1367C97.6943 11.1367 96.8398 10.8063 96.1836 10.1455C95.5319 9.48014 95.2061 8.59603 95.2061 7.49316V7.28809C95.2061 6.5498 95.3473 5.89128 95.6299 5.3125C95.917 4.72917 96.318 4.27572 96.833 3.95215C97.348 3.62858 97.9222 3.4668 98.5557 3.4668C99.5628 3.4668 100.34 3.78809 100.887 4.43066C101.438 5.07324 101.714 5.98242 101.714 7.1582V7.82812H96.8809C96.931 8.4388 97.1338 8.92188 97.4893 9.27734C97.8493 9.63281 98.3005 9.81055 98.8428 9.81055C99.6038 9.81055 100.224 9.50293 100.702 8.8877L101.598 9.74219C101.301 10.1842 100.905 10.5283 100.408 10.7744C99.916 11.016 99.3623 11.1367 98.7471 11.1367ZM98.5488 4.7998C98.0931 4.7998 97.724 4.95931 97.4414 5.27832C97.1634 5.59733 96.9857 6.04167 96.9082 6.61133H100.073V6.48828C100.037 5.93229 99.8887 5.51302 99.6289 5.23047C99.3691 4.94336 99.0091 4.7998 98.5488 4.7998ZM108.132 5.12109C107.913 5.08464 107.688 5.06641 107.455 5.06641C106.694 5.06641 106.181 5.35807 105.917 5.94141V11H104.256V3.60352H105.842L105.883 4.43066C106.284 3.78809 106.84 3.4668 107.551 3.4668C107.788 3.4668 107.984 3.4987 108.139 3.5625L108.132 5.12109ZM113.333 9.81055C113.748 9.81055 114.092 9.68978 114.365 9.44824C114.639 9.20671 114.785 8.9082 114.803 8.55273H116.368C116.35 9.01302 116.206 9.44368 115.938 9.84473C115.669 10.2412 115.304 10.5557 114.844 10.7881C114.383 11.0205 113.887 11.1367 113.354 11.1367C112.319 11.1367 111.499 10.8018 110.893 10.1318C110.286 9.46191 109.983 8.53678 109.983 7.35645V7.18555C109.983 6.0599 110.284 5.15983 110.886 4.48535C111.487 3.80632 112.308 3.4668 113.347 3.4668C114.226 3.4668 114.942 3.72428 115.493 4.23926C116.049 4.74967 116.341 5.42188 116.368 6.25586H114.803C114.785 5.83203 114.639 5.4834 114.365 5.20996C114.096 4.93652 113.752 4.7998 113.333 4.7998C112.795 4.7998 112.381 4.99577 112.089 5.3877C111.797 5.77507 111.649 6.36523 111.645 7.1582V7.4248C111.645 8.22689 111.788 8.82617 112.075 9.22266C112.367 9.61458 112.786 9.81055 113.333 9.81055ZM120.64 11H118.979V3.60352H120.64V11ZM118.876 1.68262C118.876 1.42741 118.956 1.21549 119.115 1.04688C119.279 0.878255 119.512 0.793945 119.812 0.793945C120.113 0.793945 120.346 0.878255 120.51 1.04688C120.674 1.21549 120.756 1.42741 120.756 1.68262C120.756 1.93327 120.674 2.1429 120.51 2.31152C120.346 2.47559 120.113 2.55762 119.812 2.55762C119.512 2.55762 119.279 2.47559 119.115 2.31152C118.956 2.1429 118.876 1.93327 118.876 1.68262ZM127.851 8.99023C127.851 8.69401 127.728 8.46842 127.481 8.31348C127.24 8.15853 126.837 8.02181 126.271 7.90332C125.706 7.78483 125.235 7.63444 124.856 7.45215C124.027 7.05111 123.612 6.47005 123.612 5.70898C123.612 5.07096 123.881 4.53776 124.419 4.10938C124.957 3.68099 125.64 3.4668 126.47 3.4668C127.354 3.4668 128.067 3.68555 128.609 4.12305C129.156 4.56055 129.43 5.12793 129.43 5.8252H127.769C127.769 5.50618 127.65 5.24186 127.413 5.03223C127.176 4.81803 126.862 4.71094 126.47 4.71094C126.105 4.71094 125.807 4.79525 125.574 4.96387C125.346 5.13249 125.232 5.35807 125.232 5.64062C125.232 5.89583 125.34 6.09408 125.554 6.23535C125.768 6.37663 126.201 6.52018 126.853 6.66602C127.504 6.80729 128.015 6.97819 128.384 7.17871C128.757 7.37467 129.033 7.61165 129.211 7.88965C129.393 8.16764 129.484 8.50488 129.484 8.90137C129.484 9.56673 129.209 10.1068 128.657 10.5215C128.106 10.9316 127.383 11.1367 126.49 11.1367C125.884 11.1367 125.344 11.0273 124.87 10.8086C124.396 10.5898 124.027 10.2891 123.763 9.90625C123.498 9.52344 123.366 9.111 123.366 8.66895H124.979C125.002 9.06087 125.15 9.36393 125.424 9.57812C125.697 9.78776 126.06 9.89258 126.511 9.89258C126.948 9.89258 127.281 9.81055 127.509 9.64648C127.737 9.47786 127.851 9.25911 127.851 8.99023ZM135.444 11.1367C134.392 11.1367 133.537 10.8063 132.881 10.1455C132.229 9.48014 131.903 8.59603 131.903 7.49316V7.28809C131.903 6.5498 132.045 5.89128 132.327 5.3125C132.614 4.72917 133.015 4.27572 133.53 3.95215C134.045 3.62858 134.619 3.4668 135.253 3.4668C136.26 3.4668 137.037 3.78809 137.584 4.43066C138.135 5.07324 138.411 5.98242 138.411 7.1582V7.82812H133.578C133.628 8.4388 133.831 8.92188 134.187 9.27734C134.547 9.63281 134.998 9.81055 135.54 9.81055C136.301 9.81055 136.921 9.50293 137.399 8.8877L138.295 9.74219C137.999 10.1842 137.602 10.5283 137.105 10.7744C136.613 11.016 136.06 11.1367 135.444 11.1367ZM135.246 4.7998C134.79 4.7998 134.421 4.95931 134.139 5.27832C133.861 5.59733 133.683 6.04167 133.605 6.61133H136.771V6.48828C136.734 5.93229 136.586 5.51302 136.326 5.23047C136.066 4.94336 135.706 4.7998 135.246 4.7998ZM151.056 8.43652C151.056 7.99902 150.901 7.66178 150.591 7.4248C150.285 7.18783 149.732 6.94857 148.93 6.70703C148.128 6.46549 147.49 6.19661 147.016 5.90039C146.109 5.33073 145.655 4.58789 145.655 3.67188C145.655 2.86979 145.981 2.20898 146.633 1.68945C147.289 1.16992 148.139 0.910156 149.183 0.910156C149.875 0.910156 150.493 1.03776 151.035 1.29297C151.577 1.54818 152.004 1.91276 152.313 2.38672C152.623 2.85612 152.778 3.37793 152.778 3.95215H151.056C151.056 3.43262 150.892 3.02702 150.563 2.73535C150.24 2.43913 149.775 2.29102 149.169 2.29102C148.604 2.29102 148.164 2.41178 147.85 2.65332C147.54 2.89486 147.385 3.2321 147.385 3.66504C147.385 4.02962 147.553 4.33496 147.891 4.58105C148.228 4.82259 148.784 5.05957 149.559 5.29199C150.333 5.51986 150.955 5.7819 151.425 6.07812C151.894 6.36979 152.238 6.70703 152.457 7.08984C152.676 7.4681 152.785 7.91243 152.785 8.42285C152.785 9.25228 152.466 9.91309 151.828 10.4053C151.195 10.8929 150.333 11.1367 149.244 11.1367C148.524 11.1367 147.861 11.0046 147.255 10.7402C146.653 10.4714 146.184 10.1022 145.847 9.63281C145.514 9.16341 145.348 8.61654 145.348 7.99219H147.077C147.077 8.55729 147.264 8.99479 147.638 9.30469C148.011 9.61458 148.547 9.76953 149.244 9.76953C149.846 9.76953 150.297 9.64876 150.598 9.40723C150.903 9.16113 151.056 8.83757 151.056 8.43652ZM158.649 11.1367C157.597 11.1367 156.742 10.8063 156.086 10.1455C155.434 9.48014 155.108 8.59603 155.108 7.49316V7.28809C155.108 6.5498 155.25 5.89128 155.532 5.3125C155.819 4.72917 156.22 4.27572 156.735 3.95215C157.25 3.62858 157.825 3.4668 158.458 3.4668C159.465 3.4668 160.242 3.78809 160.789 4.43066C161.34 5.07324 161.616 5.98242 161.616 7.1582V7.82812H156.783C156.833 8.4388 157.036 8.92188 157.392 9.27734C157.752 9.63281 158.203 9.81055 158.745 9.81055C159.506 9.81055 160.126 9.50293 160.604 8.8877L161.5 9.74219C161.204 10.1842 160.807 10.5283 160.311 10.7744C159.818 11.016 159.265 11.1367 158.649 11.1367ZM158.451 4.7998C157.995 4.7998 157.626 4.95931 157.344 5.27832C157.066 5.59733 156.888 6.04167 156.811 6.61133H159.976V6.48828C159.939 5.93229 159.791 5.51302 159.531 5.23047C159.271 4.94336 158.911 4.7998 158.451 4.7998ZM168.034 5.12109C167.815 5.08464 167.59 5.06641 167.357 5.06641C166.596 5.06641 166.084 5.35807 165.819 5.94141V11H164.158V3.60352H165.744L165.785 4.43066C166.186 3.78809 166.742 3.4668 167.453 3.4668C167.69 3.4668 167.886 3.4987 168.041 3.5625L168.034 5.12109ZM173.064 8.89453L174.63 3.60352H176.346L173.782 11H172.34L169.756 3.60352H171.479L173.064 8.89453ZM180.405 11H178.744V3.60352H180.405V11ZM178.642 1.68262C178.642 1.42741 178.721 1.21549 178.881 1.04688C179.045 0.878255 179.277 0.793945 179.578 0.793945C179.879 0.793945 180.111 0.878255 180.275 1.04688C180.439 1.21549 180.521 1.42741 180.521 1.68262C180.521 1.93327 180.439 2.1429 180.275 2.31152C180.111 2.47559 179.879 2.55762 179.578 2.55762C179.277 2.55762 179.045 2.47559 178.881 2.31152C178.721 2.1429 178.642 1.93327 178.642 1.68262ZM186.509 9.81055C186.924 9.81055 187.268 9.68978 187.541 9.44824C187.814 9.20671 187.96 8.9082 187.979 8.55273H189.544C189.526 9.01302 189.382 9.44368 189.113 9.84473C188.844 10.2412 188.48 10.5557 188.02 10.7881C187.559 11.0205 187.062 11.1367 186.529 11.1367C185.495 11.1367 184.674 10.8018 184.068 10.1318C183.462 9.46191 183.159 8.53678 183.159 7.35645V7.18555C183.159 6.0599 183.46 5.15983 184.062 4.48535C184.663 3.80632 185.483 3.4668 186.522 3.4668C187.402 3.4668 188.118 3.72428 188.669 4.23926C189.225 4.74967 189.517 5.42188 189.544 6.25586H187.979C187.96 5.83203 187.814 5.4834 187.541 5.20996C187.272 4.93652 186.928 4.7998 186.509 4.7998C185.971 4.7998 185.556 4.99577 185.265 5.3877C184.973 5.77507 184.825 6.36523 184.82 7.1582V7.4248C184.82 8.22689 184.964 8.82617 185.251 9.22266C185.543 9.61458 185.962 9.81055 186.509 9.81055ZM195.306 11.1367C194.253 11.1367 193.398 10.8063 192.742 10.1455C192.09 9.48014 191.765 8.59603 191.765 7.49316V7.28809C191.765 6.5498 191.906 5.89128 192.188 5.3125C192.476 4.72917 192.877 4.27572 193.392 3.95215C193.907 3.62858 194.481 3.4668 195.114 3.4668C196.121 3.4668 196.898 3.78809 197.445 4.43066C197.997 5.07324 198.272 5.98242 198.272 7.1582V7.82812H193.439C193.49 8.4388 193.692 8.92188 194.048 9.27734C194.408 9.63281 194.859 9.81055 195.401 9.81055C196.162 9.81055 196.782 9.50293 197.261 8.8877L198.156 9.74219C197.86 10.1842 197.464 10.5283 196.967 10.7744C196.475 11.016 195.921 11.1367 195.306 11.1367ZM195.107 4.7998C194.652 4.7998 194.283 4.95931 194 5.27832C193.722 5.59733 193.544 6.04167 193.467 6.61133H196.632V6.48828C196.595 5.93229 196.447 5.51302 196.188 5.23047C195.928 4.94336 195.568 4.7998 195.107 4.7998ZM204.964 8.99023C204.964 8.69401 204.841 8.46842 204.595 8.31348C204.353 8.15853 203.95 8.02181 203.385 7.90332C202.82 7.78483 202.348 7.63444 201.97 7.45215C201.14 7.05111 200.726 6.47005 200.726 5.70898C200.726 5.07096 200.994 4.53776 201.532 4.10938C202.07 3.68099 202.754 3.4668 203.583 3.4668C204.467 3.4668 205.18 3.68555 205.723 4.12305C206.27 4.56055 206.543 5.12793 206.543 5.8252H204.882C204.882 5.50618 204.763 5.24186 204.526 5.03223C204.289 4.81803 203.975 4.71094 203.583 4.71094C203.218 4.71094 202.92 4.79525 202.688 4.96387C202.46 5.13249 202.346 5.35807 202.346 5.64062C202.346 5.89583 202.453 6.09408 202.667 6.23535C202.881 6.37663 203.314 6.52018 203.966 6.66602C204.618 6.80729 205.128 6.97819 205.497 7.17871C205.871 7.37467 206.146 7.61165 206.324 7.88965C206.507 8.16764 206.598 8.50488 206.598 8.90137C206.598 9.56673 206.322 10.1068 205.771 10.5215C205.219 10.9316 204.497 11.1367 203.604 11.1367C202.997 11.1367 202.457 11.0273 201.983 10.8086C201.509 10.5898 201.14 10.2891 200.876 9.90625C200.612 9.52344 200.479 9.111 200.479 8.66895H202.093C202.116 9.06087 202.264 9.36393 202.537 9.57812C202.811 9.78776 203.173 9.89258 203.624 9.89258C204.062 9.89258 204.394 9.81055 204.622 9.64648C204.85 9.47786 204.964 9.25911 204.964 8.99023Z" fill="#2C7973"/>
</svg>
