<svg width="34" height="34" viewBox="0 0 34 34" fill="none" xmlns="http://www.w3.org/2000/svg">
<path d="M28.7442 13.0173C28.7442 12.7908 28.6559 12.5778 28.4958 12.4178C28.3357 12.2576 28.1228 12.1694 27.8963 12.1694C27.7397 12.1694 27.5895 12.2117 27.4589 12.2907C26.4021 11.4548 24.8966 11.455 23.84 12.2915C23.5142 12.0957 23.0846 12.1372 22.804 12.4178C22.4735 12.7483 22.4735 13.2862 22.8041 13.6168C22.8258 13.6385 22.8488 13.6584 22.8725 13.6774C22.7428 14.0763 22.6998 14.5038 22.7526 14.9352C22.8624 15.8327 23.3696 16.6149 24.1442 17.0814L24.6659 17.3956V17.3955C24.9694 17.5783 25.3096 17.6697 25.6499 17.6697C25.9902 17.6696 26.3305 17.5783 26.634 17.3955L27.1557 17.0814C27.9303 16.6149 28.4375 15.8327 28.5473 14.9352C28.6001 14.5038 28.5571 14.0763 28.4274 13.6774C28.4511 13.6584 28.4741 13.6384 28.4958 13.6167C28.6559 13.4567 28.7442 13.2437 28.7442 13.0173ZM27.8618 14.8513C27.778 15.5365 27.3908 16.1337 26.7994 16.4898L26.2777 16.8039C25.8905 17.037 25.4094 17.037 25.0222 16.8039L24.5004 16.4898C23.9091 16.1337 23.5219 15.5365 23.4381 14.8513C23.3543 14.1661 23.5861 13.4932 24.0743 13.0051C24.5088 12.5706 25.0792 12.3535 25.6499 12.3535C26.2205 12.3535 26.7913 12.5707 27.2256 13.0051C27.7137 13.4932 27.9456 14.1661 27.8618 14.8513Z" fill="#00D654"/>
<path d="M30.5997 14.3912C30.5809 13.1007 30.0661 11.8855 29.15 10.9694C27.6678 9.48724 25.4022 9.09904 23.5124 10.0036C23.3404 10.0859 23.2676 10.2921 23.35 10.4642C23.4323 10.6362 23.6385 10.7088 23.8105 10.6266C25.4366 9.84816 27.3862 10.1823 28.6617 11.4578C30.1838 12.9799 30.3252 15.3693 29.0451 17.0469L28.922 16.9238C28.8233 16.8251 28.6747 16.7956 28.5457 16.849C28.4167 16.9024 28.3325 17.0283 28.3325 17.168V17.2527C28.3325 17.6056 28.149 17.9358 27.8508 18.1161L26.4369 18.9675C25.9515 19.2598 25.3484 19.2598 24.8628 18.9675L23.4553 18.12L23.4462 18.1144C23.1507 17.9358 22.9672 17.6056 22.9672 17.2527V17.168C22.9672 17.0283 22.883 16.9024 22.754 16.849C22.6249 16.7956 22.4764 16.8251 22.3777 16.9239L22.2551 17.0464C21.3054 15.7924 21.1181 14.0623 21.8053 12.6296C21.8878 12.4577 21.8152 12.2514 21.6433 12.1689C21.4714 12.0864 21.2651 12.159 21.1826 12.3309C20.8628 12.9975 20.6996 13.7217 20.6993 14.4577H19.2638C17.9204 14.4577 16.7412 15.1736 16.0874 16.2439C15.8247 15.9447 15.4399 15.7583 15.0238 15.7583C14.2447 15.7583 13.6108 16.3922 13.6108 17.1713V19.2802C13.2089 19.4227 12.9202 19.8066 12.9202 20.2567C12.9202 20.9098 13.2284 21.5386 13.7446 21.9387C13.8069 21.9869 13.8815 22.011 13.9561 22.011C14.0307 22.011 14.1054 21.9869 14.1676 21.9387C14.6839 21.5386 14.992 20.9098 14.992 20.2567C14.992 19.8066 14.7033 19.4227 14.3014 19.2802V17.1713C14.3014 16.773 14.6255 16.4489 15.0238 16.4489C15.3605 16.4489 15.6573 16.687 15.7294 17.0151C15.7296 17.0158 15.7298 17.0164 15.7299 17.017C15.6098 17.3822 15.5445 17.772 15.5445 18.1769V23.7318C15.5445 24.122 15.862 24.4395 16.2523 24.4395H19.5676C19.8092 24.4395 20.0271 24.3155 20.1505 24.1077C20.2738 23.9 20.2784 23.6493 20.1626 23.4372L19.943 23.0345V21.2258H22.543V23.7318C22.543 24.122 22.8605 24.4395 23.2507 24.4395H26.5926C26.8335 24.4395 27.0507 24.3159 27.1736 24.1087C27.2966 23.9016 27.3011 23.6518 27.1858 23.4403L26.9644 23.0345V20.2565C27.2347 19.9321 27.4334 19.5435 27.5348 19.1125L28.2033 18.7101C28.2042 18.7095 28.21 18.706 28.2109 18.7055C28.5328 18.5108 28.7764 18.2115 28.9094 17.865C28.9605 17.8916 29.0175 17.9052 29.0768 17.9036C29.1713 17.9013 29.2607 17.8603 29.3242 17.7903C30.165 16.8625 30.618 15.6553 30.5997 14.3912ZM13.9561 21.1905C13.7365 20.9323 13.6108 20.5995 13.6108 20.2567C13.6108 20.0663 13.7657 19.9114 13.9561 19.9114C14.1465 19.9114 14.3014 20.0663 14.3014 20.2567C14.3014 20.5995 14.1757 20.9323 13.9561 21.1905ZM19.2945 23.288L19.546 23.7489H18.4696C18.468 23.6406 18.4404 23.5323 18.386 23.4325L18.1689 23.0345V21.2258H19.2524V23.1226C19.2524 23.1804 19.2668 23.2372 19.2945 23.288ZM23.2336 23.7318V20.8804C23.2336 20.6898 23.079 20.5351 22.8883 20.5351H19.0636C19.6501 20.1373 20.0362 19.4654 20.0362 18.705C20.0362 18.5143 19.8816 18.3597 19.6909 18.3597C19.5002 18.3597 19.3456 18.5143 19.3456 18.705C19.3456 19.5428 18.664 20.2244 17.8262 20.2244C17.8257 20.2244 17.8253 20.2244 17.8249 20.2244C17.8245 20.2244 17.8241 20.2244 17.8236 20.2244C17.6329 20.2244 17.4783 20.379 17.4783 20.5697V23.1226C17.4783 23.1804 17.4928 23.2372 17.5205 23.288L17.7719 23.7489H16.2523C16.2429 23.7489 16.2352 23.7412 16.2352 23.7318V18.1769C16.2352 16.5069 17.5938 15.1483 19.2638 15.1483H20.7472C20.7485 15.1578 20.7494 15.1674 20.7508 15.1769C20.8923 16.1586 21.3159 17.0623 21.9756 17.7903C22.0391 17.8603 22.1285 17.9013 22.223 17.9036C22.2818 17.905 22.3393 17.8915 22.3904 17.865C22.5235 18.2116 22.7673 18.511 23.0899 18.7061L24.5066 19.5591C24.8592 19.7715 25.2546 19.8777 25.6499 19.8777C25.9476 19.8777 26.2453 19.8174 26.5248 19.697C26.1409 20.2306 25.5158 20.5697 24.8221 20.5697C24.6314 20.5697 24.4767 20.7243 24.4767 20.915V23.1226C24.4767 23.1804 24.4912 23.2373 24.5189 23.288L24.7704 23.749H23.2507C23.2413 23.7489 23.2336 23.7412 23.2336 23.7318ZM25.47 23.7489C25.468 23.642 25.4405 23.5352 25.3868 23.4368L25.1673 23.0345L25.1674 21.239C25.567 21.1895 25.9425 21.0547 26.2738 20.8524V23.1226C26.2738 23.1804 26.2883 23.2372 26.316 23.288L26.5674 23.7489H25.47V23.7489Z" fill="#00D654"/>
<path d="M26.6853 13.963H26.3399C26.1493 13.963 25.9946 14.1176 25.9946 14.3083V15.1137L25.6493 15.2979L25.304 15.1137V14.3083C25.304 14.1176 25.1494 13.963 24.9587 13.963H24.6134C24.4227 13.963 24.2681 14.1176 24.2681 14.3083C24.2681 14.499 24.4227 14.6536 24.6134 14.6536V15.3209C24.6134 15.4484 24.6836 15.5656 24.7962 15.6256L25.4868 15.9939C25.5376 16.021 25.5934 16.0345 25.6493 16.0345C25.7052 16.0345 25.761 16.021 25.8118 15.9939L26.5024 15.6256C26.615 15.5656 26.6853 15.4484 26.6853 15.3209V14.6536C26.8759 14.6536 27.0306 14.499 27.0306 14.3083C27.0306 14.1176 26.8759 13.963 26.6853 13.963Z" fill="#00D654"/>
<path d="M22.3939 11.559C22.4851 11.559 22.5738 11.5221 22.6384 11.4579C22.7026 11.3936 22.7392 11.3045 22.7392 11.2137C22.7392 11.1229 22.7026 11.0338 22.6384 10.9696C22.5738 10.9054 22.4851 10.8684 22.3939 10.8684C22.3031 10.8684 22.214 10.9054 22.1498 10.9696C22.0856 11.0338 22.0486 11.1229 22.0486 11.2137C22.0486 11.3045 22.0855 11.3936 22.1498 11.4579C22.214 11.5221 22.3031 11.559 22.3939 11.559Z" fill="#00D654"/>
<path d="M12.1655 15.725C12.2535 15.725 12.3249 15.6536 12.3249 15.5656C12.3249 15.4776 12.2535 15.4062 12.1655 15.4062C12.0775 15.4062 12.0061 15.4776 12.0061 15.5656C12.0061 15.6536 12.0775 15.725 12.1655 15.725Z" fill="#00D654"/>
<path d="M14.3967 15.725C14.4847 15.725 14.5561 15.6536 14.5561 15.5656C14.5561 15.4776 14.4847 15.4062 14.3967 15.4062C14.3087 15.4062 14.2373 15.4776 14.2373 15.5656C14.2373 15.6536 14.3087 15.725 14.3967 15.725Z" fill="#00D654"/>
<path d="M14.5561 13.4937C14.7321 13.4937 14.8748 13.351 14.8748 13.175C14.8748 12.9989 14.7321 12.8562 14.5561 12.8562C14.38 12.8562 14.2373 12.9989 14.2373 13.175C14.2373 13.351 14.38 13.4937 14.5561 13.4937Z" fill="#00D654"/>
<path d="M12.0063 13.4937C12.1823 13.4937 12.325 13.351 12.325 13.175C12.325 12.9989 12.1823 12.8562 12.0063 12.8562C11.8302 12.8562 11.6875 12.9989 11.6875 13.175C11.6875 13.351 11.8302 13.4937 12.0063 13.4937Z" fill="#00D654"/>
<path d="M10.0937 20.6975H9.7749V9.15872C9.7749 8.9827 9.63217 8.83997 9.45615 8.83997C9.28014 8.83997 9.1374 8.9827 9.1374 9.15872V9.4832C8.08036 9.52024 7.07251 9.74139 6.19623 10.1235C6.15677 10.1327 6.11925 10.1494 6.08582 10.1728C5.77991 10.3127 5.49071 10.4724 5.22229 10.6513C4.04712 11.4348 3.3999 12.4895 3.3999 13.6212C3.3999 14.7529 4.04712 15.8076 5.22232 16.5911C5.49154 16.7706 5.78167 16.9307 6.08856 17.0709C6.12066 17.0929 6.15626 17.1088 6.19384 17.1179C7.07069 17.5006 8.07938 17.7222 9.13737 17.7592V20.6975H8.81862C8.64261 20.6975 8.49987 20.8402 8.49987 21.0162V24.8412C8.49987 25.0172 8.64261 25.16 8.81862 25.16H10.0936C10.2696 25.16 10.4124 25.0172 10.4124 24.8412V21.0162C10.4124 20.8402 10.2697 20.6975 10.0937 20.6975ZM6.50427 16.5581C6.39768 16.3211 6.30611 16.0657 6.23015 15.7962C6.61874 15.8957 7.03349 15.9764 7.46741 16.0371C7.53533 16.3548 7.61706 16.6574 7.71167 16.9411C7.28719 16.8472 6.88215 16.7188 6.50427 16.5581ZM6.07144 15.0925C6.00635 14.7193 5.96702 14.3314 5.95312 13.94H7.22901C7.24125 14.4343 7.28189 14.9165 7.34909 15.3759C6.88167 15.3024 6.45359 15.2059 6.07144 15.0925ZM7.71163 10.3014C7.61703 10.585 7.5353 10.8876 7.46738 11.2053C7.03346 11.266 6.6187 11.3468 6.23012 11.4463C6.30611 11.1768 6.39768 10.9213 6.50424 10.6843C6.88215 10.5236 7.28719 10.3952 7.71163 10.3014ZM7.34909 11.8665C7.28189 12.326 7.24125 12.8081 7.22901 13.3025H5.95312C5.96702 12.9111 6.00632 12.5231 6.07144 12.1499C6.45359 12.0365 6.88167 11.94 7.34909 11.8665ZM9.1374 13.3025H7.86473C7.87847 12.7844 7.92561 12.2708 8.00648 11.7813C8.36577 11.7444 8.74355 11.7205 9.1374 11.7122V13.3025ZM5.3182 13.3025H4.12649C4.30477 12.9778 4.74544 12.6565 5.39241 12.3883C5.3533 12.6851 5.32834 12.991 5.3182 13.3025ZM4.12649 13.94H5.3182C5.32834 14.2515 5.3533 14.5573 5.39238 14.8541C4.74544 14.5859 4.30477 14.2646 4.12649 13.94ZM7.86473 13.94H9.1374V15.5302C8.74355 15.5219 8.36577 15.4981 8.00648 15.4611C7.92564 14.9717 7.8785 14.458 7.86473 13.94ZM9.1374 11.0746C8.79822 11.0817 8.4642 11.0999 8.13806 11.129C8.21937 10.7911 8.31873 10.4716 8.43577 10.1774C8.66597 10.1489 8.90019 10.1301 9.13737 10.1212V11.0746H9.1374ZM5.57594 11.1818C5.60403 11.163 5.63249 11.1447 5.66108 11.1264C5.60865 11.2983 5.5617 11.476 5.52074 11.6592C5.44009 11.6874 5.36092 11.7164 5.28365 11.7464C5.03592 11.8427 4.81126 11.9473 4.60997 12.0587C4.85723 11.7406 5.18114 11.4449 5.57594 11.1818ZM4.60994 15.1838C4.81123 15.2952 5.03589 15.3997 5.28362 15.496C5.36092 15.5261 5.44006 15.5551 5.52071 15.5832C5.56166 15.7664 5.60862 15.9442 5.66105 16.116C5.63246 16.0978 5.60399 16.0794 5.57591 16.0607C5.18114 15.7975 4.85723 15.5018 4.60994 15.1838ZM8.4358 17.065C8.31876 16.7709 8.2194 16.4514 8.13809 16.1135C8.4642 16.1425 8.79825 16.1607 9.13743 16.1678V17.1212C8.90022 17.1124 8.666 17.0935 8.4358 17.065ZM9.1374 22.61H9.7749V23.2475H9.1374V22.61ZM9.7749 21.335V21.9725H9.1374V21.335H9.7749ZM9.1374 24.5225V23.885H9.7749V24.5225H9.1374Z" fill="#00D654"/>
</svg>
