<svg width="175" height="12" viewBox="0 0 175 12" fill="none" xmlns="http://www.w3.org/2000/svg">
<path d="M5.74707 6.78223H1.74121V11H0.0117188V1.04688H6.33496V2.44141H1.74121V5.40137H5.74707V6.78223ZM10.5654 11H8.9043V3.60352H10.5654V11ZM8.80176 1.68262C8.80176 1.42741 8.88151 1.21549 9.04102 1.04688C9.20508 0.878255 9.4375 0.793945 9.73828 0.793945C10.0391 0.793945 10.2715 0.878255 10.4355 1.04688C10.5996 1.21549 10.6816 1.42741 10.6816 1.68262C10.6816 1.93327 10.5996 2.1429 10.4355 2.31152C10.2715 2.47559 10.0391 2.55762 9.73828 2.55762C9.4375 2.55762 9.20508 2.47559 9.04102 2.31152C8.88151 2.1429 8.80176 1.93327 8.80176 1.68262ZM15.1719 3.60352L15.2197 4.45801C15.7666 3.7972 16.4844 3.4668 17.373 3.4668C18.9134 3.4668 19.6973 4.34863 19.7246 6.1123V11H18.0635V6.20801C18.0635 5.73861 17.9609 5.39225 17.7559 5.16895C17.5553 4.94108 17.2249 4.82715 16.7646 4.82715C16.0947 4.82715 15.5957 5.13021 15.2676 5.73633V11H13.6064V3.60352H15.1719ZM22.3623 7.24707C22.3623 6.10775 22.6266 5.19401 23.1553 4.50586C23.6839 3.81315 24.3926 3.4668 25.2812 3.4668C26.0651 3.4668 26.6986 3.74023 27.1816 4.28711V0.5H28.8428V11H27.3389L27.2568 10.2344C26.7601 10.8359 26.097 11.1367 25.2676 11.1367C24.4017 11.1367 23.6999 10.7881 23.1621 10.0908C22.6289 9.39355 22.3623 8.44564 22.3623 7.24707ZM24.0234 7.39062C24.0234 8.14258 24.167 8.73047 24.4541 9.1543C24.7458 9.57357 25.1582 9.7832 25.6914 9.7832C26.3704 9.7832 26.8672 9.48014 27.1816 8.87402V5.71582C26.8763 5.12337 26.3841 4.82715 25.7051 4.82715C25.1673 4.82715 24.7526 5.04134 24.4609 5.46973C24.1693 5.89355 24.0234 6.53385 24.0234 7.39062ZM39.9697 5.76367L42.2598 1.04688H44.1738L40.8379 7.33594V11H39.1016V7.33594L35.7588 1.04688H37.6797L39.9697 5.76367ZM45.5811 7.2334C45.5811 6.50879 45.7246 5.8571 46.0117 5.27832C46.2988 4.69499 46.7021 4.24837 47.2217 3.93848C47.7412 3.62402 48.3382 3.4668 49.0127 3.4668C50.0107 3.4668 50.8197 3.78809 51.4395 4.43066C52.0638 5.07324 52.401 5.92546 52.4512 6.9873L52.458 7.37695C52.458 8.10612 52.3167 8.75781 52.0342 9.33203C51.7562 9.90625 51.3551 10.3506 50.8311 10.665C50.3115 10.9795 49.71 11.1367 49.0264 11.1367C47.9827 11.1367 47.1465 10.7904 46.5176 10.0977C45.8932 9.40039 45.5811 8.47298 45.5811 7.31543V7.2334ZM47.2422 7.37695C47.2422 8.13802 47.3994 8.73503 47.7139 9.16797C48.0283 9.59635 48.4658 9.81055 49.0264 9.81055C49.5869 9.81055 50.0221 9.5918 50.332 9.1543C50.6465 8.7168 50.8037 8.0765 50.8037 7.2334C50.8037 6.486 50.6419 5.89355 50.3184 5.45605C49.9993 5.01855 49.5641 4.7998 49.0127 4.7998C48.4704 4.7998 48.0397 5.01628 47.7207 5.44922C47.4017 5.8776 47.2422 6.52018 47.2422 7.37695ZM59.5938 10.2754C59.1061 10.8496 58.4134 11.1367 57.5156 11.1367C56.7135 11.1367 56.1051 10.902 55.6904 10.4326C55.2803 9.96322 55.0752 9.28418 55.0752 8.39551V3.60352H56.7363V8.375C56.7363 9.3138 57.126 9.7832 57.9053 9.7832C58.7119 9.7832 59.2565 9.49382 59.5391 8.91504V3.60352H61.2002V11H59.6348L59.5938 10.2754ZM68.0146 5.12109C67.7959 5.08464 67.5703 5.06641 67.3379 5.06641C66.5768 5.06641 66.0641 5.35807 65.7998 5.94141V11H64.1387V3.60352H65.7246L65.7656 4.43066C66.1667 3.78809 66.7227 3.4668 67.4336 3.4668C67.6706 3.4668 67.8665 3.4987 68.0215 3.5625L68.0146 5.12109ZM76.9404 7.30176V11H75.2109V1.04688H79.0186C80.1305 1.04688 81.0124 1.33626 81.6641 1.91504C82.3203 2.49382 82.6484 3.25944 82.6484 4.21191C82.6484 5.18717 82.3271 5.94596 81.6846 6.48828C81.0465 7.0306 80.151 7.30176 78.998 7.30176H76.9404ZM76.9404 5.91406H79.0186C79.6338 5.91406 80.1032 5.77051 80.4268 5.4834C80.7503 5.19173 80.9121 4.77246 80.9121 4.22559C80.9121 3.68783 80.748 3.25944 80.4199 2.94043C80.0918 2.61686 79.6406 2.45052 79.0664 2.44141H76.9404V5.91406ZM88.417 11.1367C87.3643 11.1367 86.5098 10.8063 85.8535 10.1455C85.2018 9.48014 84.876 8.59603 84.876 7.49316V7.28809C84.876 6.5498 85.0173 5.89128 85.2998 5.3125C85.5869 4.72917 85.988 4.27572 86.5029 3.95215C87.0179 3.62858 87.5921 3.4668 88.2256 3.4668C89.2327 3.4668 90.0098 3.78809 90.5566 4.43066C91.1081 5.07324 91.3838 5.98242 91.3838 7.1582V7.82812H86.5508C86.6009 8.4388 86.8037 8.92188 87.1592 9.27734C87.5192 9.63281 87.9704 9.81055 88.5127 9.81055C89.2738 9.81055 89.8936 9.50293 90.3721 8.8877L91.2676 9.74219C90.9714 10.1842 90.5749 10.5283 90.0781 10.7744C89.5859 11.016 89.0322 11.1367 88.417 11.1367ZM88.2188 4.7998C87.763 4.7998 87.3939 4.95931 87.1113 5.27832C86.8333 5.59733 86.6556 6.04167 86.5781 6.61133H89.7432V6.48828C89.7067 5.93229 89.5586 5.51302 89.2988 5.23047C89.0391 4.94336 88.679 4.7998 88.2188 4.7998ZM96.0107 1.80566V3.60352H97.3164V4.83398H96.0107V8.96289C96.0107 9.24544 96.0654 9.45052 96.1748 9.57812C96.2887 9.70117 96.4893 9.7627 96.7764 9.7627C96.9678 9.7627 97.1615 9.73991 97.3574 9.69434V10.9795C96.9792 11.0843 96.6146 11.1367 96.2637 11.1367C94.9876 11.1367 94.3496 10.4326 94.3496 9.02441V4.83398H93.1328V3.60352H94.3496V1.80566H96.0107ZM100.31 11.8545H99.0039L102.921 1.04688H104.227L100.31 11.8545ZM108.519 9.61914H113.037V11H106.789V1.04688H108.519V9.61914ZM115.142 7.2334C115.142 6.50879 115.285 5.8571 115.572 5.27832C115.859 4.69499 116.263 4.24837 116.782 3.93848C117.302 3.62402 117.899 3.4668 118.573 3.4668C119.571 3.4668 120.38 3.78809 121 4.43066C121.624 5.07324 121.962 5.92546 122.012 6.9873L122.019 7.37695C122.019 8.10612 121.877 8.75781 121.595 9.33203C121.317 9.90625 120.916 10.3506 120.392 10.665C119.872 10.9795 119.271 11.1367 118.587 11.1367C117.543 11.1367 116.707 10.7904 116.078 10.0977C115.454 9.40039 115.142 8.47298 115.142 7.31543V7.2334ZM116.803 7.37695C116.803 8.13802 116.96 8.73503 117.274 9.16797C117.589 9.59635 118.026 9.81055 118.587 9.81055C119.147 9.81055 119.583 9.5918 119.893 9.1543C120.207 8.7168 120.364 8.0765 120.364 7.2334C120.364 6.486 120.202 5.89355 119.879 5.45605C119.56 5.01855 119.125 4.7998 118.573 4.7998C118.031 4.7998 117.6 5.01628 117.281 5.44922C116.962 5.8776 116.803 6.52018 116.803 7.37695ZM128.819 8.99023C128.819 8.69401 128.696 8.46842 128.45 8.31348C128.209 8.15853 127.805 8.02181 127.24 7.90332C126.675 7.78483 126.203 7.63444 125.825 7.45215C124.996 7.05111 124.581 6.47005 124.581 5.70898C124.581 5.07096 124.85 4.53776 125.388 4.10938C125.925 3.68099 126.609 3.4668 127.438 3.4668C128.323 3.4668 129.036 3.68555 129.578 4.12305C130.125 4.56055 130.398 5.12793 130.398 5.8252H128.737C128.737 5.50618 128.619 5.24186 128.382 5.03223C128.145 4.81803 127.83 4.71094 127.438 4.71094C127.074 4.71094 126.775 4.79525 126.543 4.96387C126.315 5.13249 126.201 5.35807 126.201 5.64062C126.201 5.89583 126.308 6.09408 126.522 6.23535C126.737 6.37663 127.17 6.52018 127.821 6.66602C128.473 6.80729 128.983 6.97819 129.353 7.17871C129.726 7.37467 130.002 7.61165 130.18 7.88965C130.362 8.16764 130.453 8.50488 130.453 8.90137C130.453 9.56673 130.177 10.1068 129.626 10.5215C129.075 10.9316 128.352 11.1367 127.459 11.1367C126.853 11.1367 126.313 11.0273 125.839 10.8086C125.365 10.5898 124.996 10.2891 124.731 9.90625C124.467 9.52344 124.335 9.111 124.335 8.66895H125.948C125.971 9.06087 126.119 9.36393 126.393 9.57812C126.666 9.78776 127.028 9.89258 127.479 9.89258C127.917 9.89258 128.25 9.81055 128.478 9.64648C128.705 9.47786 128.819 9.25911 128.819 8.99023ZM135.237 1.80566V3.60352H136.543V4.83398H135.237V8.96289C135.237 9.24544 135.292 9.45052 135.401 9.57812C135.515 9.70117 135.716 9.7627 136.003 9.7627C136.194 9.7627 136.388 9.73991 136.584 9.69434V10.9795C136.206 11.0843 135.841 11.1367 135.49 11.1367C134.214 11.1367 133.576 10.4326 133.576 9.02441V4.83398H132.359V3.60352H133.576V1.80566H135.237ZM145.694 7.30176V11H143.965V1.04688H147.772C148.884 1.04688 149.766 1.33626 150.418 1.91504C151.074 2.49382 151.402 3.25944 151.402 4.21191C151.402 5.18717 151.081 5.94596 150.438 6.48828C149.8 7.0306 148.905 7.30176 147.752 7.30176H145.694ZM145.694 5.91406H147.772C148.388 5.91406 148.857 5.77051 149.181 5.4834C149.504 5.19173 149.666 4.77246 149.666 4.22559C149.666 3.68783 149.502 3.25944 149.174 2.94043C148.846 2.61686 148.395 2.45052 147.82 2.44141H145.694V5.91406ZM157.171 11.1367C156.118 11.1367 155.264 10.8063 154.607 10.1455C153.956 9.48014 153.63 8.59603 153.63 7.49316V7.28809C153.63 6.5498 153.771 5.89128 154.054 5.3125C154.341 4.72917 154.742 4.27572 155.257 3.95215C155.772 3.62858 156.346 3.4668 156.979 3.4668C157.987 3.4668 158.764 3.78809 159.311 4.43066C159.862 5.07324 160.138 5.98242 160.138 7.1582V7.82812H155.305C155.355 8.4388 155.558 8.92188 155.913 9.27734C156.273 9.63281 156.724 9.81055 157.267 9.81055C158.028 9.81055 158.647 9.50293 159.126 8.8877L160.021 9.74219C159.725 10.1842 159.329 10.5283 158.832 10.7744C158.34 11.016 157.786 11.1367 157.171 11.1367ZM156.973 4.7998C156.517 4.7998 156.148 4.95931 155.865 5.27832C155.587 5.59733 155.41 6.04167 155.332 6.61133H158.497V6.48828C158.461 5.93229 158.312 5.51302 158.053 5.23047C157.793 4.94336 157.433 4.7998 156.973 4.7998ZM164.765 1.80566V3.60352H166.07V4.83398H164.765V8.96289C164.765 9.24544 164.819 9.45052 164.929 9.57812C165.043 9.70117 165.243 9.7627 165.53 9.7627C165.722 9.7627 165.915 9.73991 166.111 9.69434V10.9795C165.733 11.0843 165.368 11.1367 165.018 11.1367C163.742 11.1367 163.104 10.4326 163.104 9.02441V4.83398H161.887V3.60352H163.104V1.80566H164.765ZM172.741 8.99023C172.741 8.69401 172.618 8.46842 172.372 8.31348C172.131 8.15853 171.727 8.02181 171.162 7.90332C170.597 7.78483 170.125 7.63444 169.747 7.45215C168.918 7.05111 168.503 6.47005 168.503 5.70898C168.503 5.07096 168.772 4.53776 169.31 4.10938C169.847 3.68099 170.531 3.4668 171.36 3.4668C172.244 3.4668 172.958 3.68555 173.5 4.12305C174.047 4.56055 174.32 5.12793 174.32 5.8252H172.659C172.659 5.50618 172.541 5.24186 172.304 5.03223C172.067 4.81803 171.752 4.71094 171.36 4.71094C170.996 4.71094 170.697 4.79525 170.465 4.96387C170.237 5.13249 170.123 5.35807 170.123 5.64062C170.123 5.89583 170.23 6.09408 170.444 6.23535C170.659 6.37663 171.091 6.52018 171.743 6.66602C172.395 6.80729 172.905 6.97819 173.274 7.17871C173.648 7.37467 173.924 7.61165 174.102 7.88965C174.284 8.16764 174.375 8.50488 174.375 8.90137C174.375 9.56673 174.099 10.1068 173.548 10.5215C172.996 10.9316 172.274 11.1367 171.381 11.1367C170.775 11.1367 170.235 11.0273 169.761 10.8086C169.287 10.5898 168.918 10.2891 168.653 9.90625C168.389 9.52344 168.257 9.111 168.257 8.66895H169.87C169.893 9.06087 170.041 9.36393 170.314 9.57812C170.588 9.78776 170.95 9.89258 171.401 9.89258C171.839 9.89258 172.172 9.81055 172.399 9.64648C172.627 9.47786 172.741 9.25911 172.741 8.99023Z" fill="#2C7973"/>
</svg>
